%TF.GenerationSoftware,KiCad,Pcbnew,(5.1.12-1-10_14)*%
%TF.CreationDate,2022-03-03T15:00:23+08:00*%
%TF.ProjectId,DeerMon,44656572-4d6f-46e2-9e6b-696361645f70,rev?*%
%TF.SameCoordinates,Original*%
%TF.FileFunction,Legend,Bot*%
%TF.FilePolarity,Positive*%
%FSLAX46Y46*%
G04 Gerber Fmt 4.6, Leading zero omitted, Abs format (unit mm)*
G04 Created by KiCad (PCBNEW (5.1.12-1-10_14)) date 2022-03-03 15:00:23*
%MOMM*%
%LPD*%
G01*
G04 APERTURE LIST*
%ADD10C,0.120000*%
%ADD11C,0.150000*%
G04 APERTURE END LIST*
D10*
X22022000Y22205000D02*
X21922000Y22168334D01*
X21888666Y22131667D01*
X21855333Y22058334D01*
X21855333Y21948334D01*
X21888666Y21875000D01*
X21922000Y21838334D01*
X21988666Y21801667D01*
X22255333Y21801667D01*
X22255333Y22571667D01*
X22022000Y22571667D01*
X21955333Y22535000D01*
X21922000Y22498334D01*
X21888666Y22425000D01*
X21888666Y22351667D01*
X21922000Y22278334D01*
X21955333Y22241667D01*
X22022000Y22205000D01*
X22255333Y22205000D01*
X21422000Y22571667D02*
X21288666Y22571667D01*
X21222000Y22535000D01*
X21155333Y22461667D01*
X21122000Y22315000D01*
X21122000Y22058334D01*
X21155333Y21911667D01*
X21222000Y21838334D01*
X21288666Y21801667D01*
X21422000Y21801667D01*
X21488666Y21838334D01*
X21555333Y21911667D01*
X21588666Y22058334D01*
X21588666Y22315000D01*
X21555333Y22461667D01*
X21488666Y22535000D01*
X21422000Y22571667D01*
X20688666Y22571667D02*
X20555333Y22571667D01*
X20488666Y22535000D01*
X20422000Y22461667D01*
X20388666Y22315000D01*
X20388666Y22058334D01*
X20422000Y21911667D01*
X20488666Y21838334D01*
X20555333Y21801667D01*
X20688666Y21801667D01*
X20755333Y21838334D01*
X20822000Y21911667D01*
X20855333Y22058334D01*
X20855333Y22315000D01*
X20822000Y22461667D01*
X20755333Y22535000D01*
X20688666Y22571667D01*
X20188666Y22571667D02*
X19788666Y22571667D01*
X19988666Y21801667D02*
X19988666Y22571667D01*
X22288666Y19948334D02*
X22255333Y19985000D01*
X22188666Y20021667D01*
X22022000Y20021667D01*
X21955333Y19985000D01*
X21922000Y19948334D01*
X21888666Y19875000D01*
X21888666Y19801667D01*
X21922000Y19691667D01*
X22322000Y19251667D01*
X21888666Y19251667D01*
X21288666Y20021667D02*
X21422000Y20021667D01*
X21488666Y19985000D01*
X21522000Y19948334D01*
X21588666Y19838334D01*
X21622000Y19691667D01*
X21622000Y19398334D01*
X21588666Y19325000D01*
X21555333Y19288334D01*
X21488666Y19251667D01*
X21355333Y19251667D01*
X21288666Y19288334D01*
X21255333Y19325000D01*
X21222000Y19398334D01*
X21222000Y19581667D01*
X21255333Y19655000D01*
X21288666Y19691667D01*
X21355333Y19728334D01*
X21488666Y19728334D01*
X21555333Y19691667D01*
X21588666Y19655000D01*
X21622000Y19581667D01*
X22322000Y17471667D02*
X21888666Y17471667D01*
X22122000Y17178334D01*
X22022000Y17178334D01*
X21955333Y17141667D01*
X21922000Y17105000D01*
X21888666Y17031667D01*
X21888666Y16848334D01*
X21922000Y16775000D01*
X21955333Y16738334D01*
X22022000Y16701667D01*
X22222000Y16701667D01*
X22288666Y16738334D01*
X22322000Y16775000D01*
X21655333Y17471667D02*
X21222000Y17471667D01*
X21455333Y17178334D01*
X21355333Y17178334D01*
X21288666Y17141667D01*
X21255333Y17105000D01*
X21222000Y17031667D01*
X21222000Y16848334D01*
X21255333Y16775000D01*
X21288666Y16738334D01*
X21355333Y16701667D01*
X21555333Y16701667D01*
X21622000Y16738334D01*
X21655333Y16775000D01*
X22322000Y14921667D02*
X21888666Y14921667D01*
X22122000Y14628334D01*
X22022000Y14628334D01*
X21955333Y14591667D01*
X21922000Y14555000D01*
X21888666Y14481667D01*
X21888666Y14298334D01*
X21922000Y14225000D01*
X21955333Y14188334D01*
X22022000Y14151667D01*
X22222000Y14151667D01*
X22288666Y14188334D01*
X22322000Y14225000D01*
X21255333Y14921667D02*
X21588666Y14921667D01*
X21622000Y14555000D01*
X21588666Y14591667D01*
X21522000Y14628334D01*
X21355333Y14628334D01*
X21288666Y14591667D01*
X21255333Y14555000D01*
X21222000Y14481667D01*
X21222000Y14298334D01*
X21255333Y14225000D01*
X21288666Y14188334D01*
X21355333Y14151667D01*
X21522000Y14151667D01*
X21588666Y14188334D01*
X21622000Y14225000D01*
X21922000Y12371667D02*
X22255333Y12371667D01*
X22288666Y12005000D01*
X22255333Y12041667D01*
X22188666Y12078334D01*
X22022000Y12078334D01*
X21955333Y12041667D01*
X21922000Y12005000D01*
X21888666Y11931667D01*
X21888666Y11748334D01*
X21922000Y11675000D01*
X21955333Y11638334D01*
X22022000Y11601667D01*
X22188666Y11601667D01*
X22255333Y11638334D01*
X22288666Y11675000D01*
X22288666Y9748334D02*
X22255333Y9785000D01*
X22188666Y9821667D01*
X22022000Y9821667D01*
X21955333Y9785000D01*
X21922000Y9748334D01*
X21888666Y9675000D01*
X21888666Y9601667D01*
X21922000Y9491667D01*
X22322000Y9051667D01*
X21888666Y9051667D01*
X21622000Y9748334D02*
X21588666Y9785000D01*
X21522000Y9821667D01*
X21355333Y9821667D01*
X21288666Y9785000D01*
X21255333Y9748334D01*
X21222000Y9675000D01*
X21222000Y9601667D01*
X21255333Y9491667D01*
X21655333Y9051667D01*
X21222000Y9051667D01*
X22355333Y7271667D02*
X21955333Y7271667D01*
X22155333Y6501667D02*
X22155333Y7271667D01*
X21788666Y7271667D02*
X21322000Y6501667D01*
X21322000Y7271667D02*
X21788666Y6501667D01*
X21922000Y4721667D02*
X22255333Y4721667D01*
X22288666Y4355000D01*
X22255333Y4391667D01*
X22188666Y4428334D01*
X22022000Y4428334D01*
X21955333Y4391667D01*
X21922000Y4355000D01*
X21888666Y4281667D01*
X21888666Y4098334D01*
X21922000Y4025000D01*
X21955333Y3988334D01*
X22022000Y3951667D01*
X22188666Y3951667D01*
X22255333Y3988334D01*
X22288666Y4025000D01*
X21688666Y4721667D02*
X21455333Y3951667D01*
X21222000Y4721667D01*
X22322000Y2171667D02*
X21888666Y2171667D01*
X22122000Y1878334D01*
X22022000Y1878334D01*
X21955333Y1841667D01*
X21922000Y1805000D01*
X21888666Y1731667D01*
X21888666Y1548334D01*
X21922000Y1475000D01*
X21955333Y1438334D01*
X22022000Y1401667D01*
X22222000Y1401667D01*
X22288666Y1438334D01*
X22322000Y1475000D01*
X21688666Y2171667D02*
X21455333Y1401667D01*
X21222000Y2171667D01*
X21055333Y2171667D02*
X20622000Y2171667D01*
X20855333Y1878334D01*
X20755333Y1878334D01*
X20688666Y1841667D01*
X20655333Y1805000D01*
X20622000Y1731667D01*
X20622000Y1548334D01*
X20655333Y1475000D01*
X20688666Y1438334D01*
X20755333Y1401667D01*
X20955333Y1401667D01*
X21022000Y1438334D01*
X21055333Y1475000D01*
X23955333Y22205000D02*
X23722000Y22205000D01*
X23622000Y21801667D02*
X23955333Y21801667D01*
X23955333Y22571667D01*
X23622000Y22571667D01*
X23322000Y21801667D02*
X23322000Y22571667D01*
X22922000Y21801667D01*
X22922000Y22571667D01*
X23988666Y19948334D02*
X23955333Y19985000D01*
X23888666Y20021667D01*
X23722000Y20021667D01*
X23655333Y19985000D01*
X23622000Y19948334D01*
X23588666Y19875000D01*
X23588666Y19801667D01*
X23622000Y19691667D01*
X24022000Y19251667D01*
X23588666Y19251667D01*
X23355333Y20021667D02*
X22888666Y20021667D01*
X23188666Y19251667D01*
X23988666Y17398334D02*
X23955333Y17435000D01*
X23888666Y17471667D01*
X23722000Y17471667D01*
X23655333Y17435000D01*
X23622000Y17398334D01*
X23588666Y17325000D01*
X23588666Y17251667D01*
X23622000Y17141667D01*
X24022000Y16701667D01*
X23588666Y16701667D01*
X22955333Y17471667D02*
X23288666Y17471667D01*
X23322000Y17105000D01*
X23288666Y17141667D01*
X23222000Y17178334D01*
X23055333Y17178334D01*
X22988666Y17141667D01*
X22955333Y17105000D01*
X22922000Y17031667D01*
X22922000Y16848334D01*
X22955333Y16775000D01*
X22988666Y16738334D01*
X23055333Y16701667D01*
X23222000Y16701667D01*
X23288666Y16738334D01*
X23322000Y16775000D01*
X24022000Y14921667D02*
X23588666Y14921667D01*
X23822000Y14628334D01*
X23722000Y14628334D01*
X23655333Y14591667D01*
X23622000Y14555000D01*
X23588666Y14481667D01*
X23588666Y14298334D01*
X23622000Y14225000D01*
X23655333Y14188334D01*
X23722000Y14151667D01*
X23922000Y14151667D01*
X23988666Y14188334D01*
X24022000Y14225000D01*
X23322000Y14848334D02*
X23288666Y14885000D01*
X23222000Y14921667D01*
X23055333Y14921667D01*
X22988666Y14885000D01*
X22955333Y14848334D01*
X22922000Y14775000D01*
X22922000Y14701667D01*
X22955333Y14591667D01*
X23355333Y14151667D01*
X22922000Y14151667D01*
X24022000Y12371667D02*
X23588666Y12371667D01*
X23822000Y12078334D01*
X23722000Y12078334D01*
X23655333Y12041667D01*
X23622000Y12005000D01*
X23588666Y11931667D01*
X23588666Y11748334D01*
X23622000Y11675000D01*
X23655333Y11638334D01*
X23722000Y11601667D01*
X23922000Y11601667D01*
X23988666Y11638334D01*
X24022000Y11675000D01*
X22988666Y12115000D02*
X22988666Y11601667D01*
X23155333Y12408334D02*
X23322000Y11858334D01*
X22888666Y11858334D01*
X23588666Y9051667D02*
X23988666Y9051667D01*
X23788666Y9051667D02*
X23788666Y9821667D01*
X23855333Y9711667D01*
X23922000Y9638334D01*
X23988666Y9601667D01*
X23255333Y9051667D02*
X23122000Y9051667D01*
X23055333Y9088334D01*
X23022000Y9125000D01*
X22955333Y9235000D01*
X22922000Y9381667D01*
X22922000Y9675000D01*
X22955333Y9748334D01*
X22988666Y9785000D01*
X23055333Y9821667D01*
X23188666Y9821667D01*
X23255333Y9785000D01*
X23288666Y9748334D01*
X23322000Y9675000D01*
X23322000Y9491667D01*
X23288666Y9418334D01*
X23255333Y9381667D01*
X23188666Y9345000D01*
X23055333Y9345000D01*
X22988666Y9381667D01*
X22955333Y9418334D01*
X22922000Y9491667D01*
X23555333Y6501667D02*
X23788666Y6868334D01*
X23955333Y6501667D02*
X23955333Y7271667D01*
X23688666Y7271667D01*
X23622000Y7235000D01*
X23588666Y7198334D01*
X23555333Y7125000D01*
X23555333Y7015000D01*
X23588666Y6941667D01*
X23622000Y6905000D01*
X23688666Y6868334D01*
X23955333Y6868334D01*
X23322000Y7271667D02*
X22855333Y6501667D01*
X22855333Y7271667D02*
X23322000Y6501667D01*
X23588666Y4685000D02*
X23655333Y4721667D01*
X23755333Y4721667D01*
X23855333Y4685000D01*
X23922000Y4611667D01*
X23955333Y4538334D01*
X23988666Y4391667D01*
X23988666Y4281667D01*
X23955333Y4135000D01*
X23922000Y4061667D01*
X23855333Y3988334D01*
X23755333Y3951667D01*
X23688666Y3951667D01*
X23588666Y3988334D01*
X23555333Y4025000D01*
X23555333Y4281667D01*
X23688666Y4281667D01*
X23588666Y2135000D02*
X23655333Y2171667D01*
X23755333Y2171667D01*
X23855333Y2135000D01*
X23922000Y2061667D01*
X23955333Y1988334D01*
X23988666Y1841667D01*
X23988666Y1731667D01*
X23955333Y1585000D01*
X23922000Y1511667D01*
X23855333Y1438334D01*
X23755333Y1401667D01*
X23688666Y1401667D01*
X23588666Y1438334D01*
X23555333Y1475000D01*
X23555333Y1731667D01*
X23688666Y1731667D01*
%TO.C,BZ1*%
X18212993Y20787006D02*
G75*
G03*
X18212993Y20787006I-6099999J0D01*
G01*
%TO.C,J3*%
X24380000Y470000D02*
X26980000Y470000D01*
X24380000Y470000D02*
X24380000Y23450000D01*
X24380000Y23450000D02*
X29580000Y23450000D01*
X29580000Y3070000D02*
X29580000Y23450000D01*
X26980000Y3070000D02*
X29580000Y3070000D01*
X26980000Y470000D02*
X26980000Y3070000D01*
X29580000Y470000D02*
X29580000Y1800000D01*
X28250000Y470000D02*
X29580000Y470000D01*
%TO.C,BZ1*%
D11*
X16821988Y19569099D02*
X16283240Y20107847D01*
X16283240Y19569099D02*
X16821988Y20107847D01*
%TD*%
M02*
