M48
; DRILL file {KiCad (5.1.12-1-10_14)} date Friday, 11 March 2022 at 17:20:58
; FORMAT={-:-/ absolute / metric / decimal}
; #@! TF.CreationDate,2022-03-11T17:20:58+08:00
; #@! TF.GenerationSoftware,Kicad,Pcbnew,(5.1.12-1-10_14)
; #@! TF.FileFunction,Plated,1,4,PTH
FMAT,2
METRIC
T1C0.250
T2C0.300
T3C0.400
T4C0.500
T5C0.600
T6C0.900
T7C1.000
%
G90
G05
T1
X3.843Y16.172
X3.843Y14.828
X4.515Y15.5
X4.586Y16.914
X4.586Y14.086
X5.258Y16.242
X5.258Y14.758
X5.328Y17.657
X5.328Y13.343
X6.0Y16.985
X6.0Y15.5
X6.0Y14.015
X6.672Y17.657
X6.672Y13.343
X6.742Y16.242
X6.742Y14.758
X7.414Y16.914
X7.414Y14.086
X7.485Y15.5
X8.157Y16.172
X8.157Y14.828
T2
X0.75Y21.0
X0.75Y12.0
X0.75Y10.0
X0.8Y23.0
X1.0Y19.5
X1.0Y8.5
X2.0Y23.0
X2.0Y8.5
X2.75Y26.75
X2.75Y9.75
X3.0Y8.5
X3.4Y9.05
X3.75Y20.25
X4.0Y8.5
X5.15Y21.5
X5.25Y28.5
X5.5Y8.5
X5.85Y23.5
X6.0Y29.25
X6.05Y21.5
X6.35Y8.7
X6.6Y23.5
X6.9Y9.35
X7.0Y21.25
X7.0Y7.0
X7.0Y6.0
X7.0Y5.0
X7.0Y4.0
X7.0Y3.0
X7.0Y2.0
X7.0Y1.0
X7.1Y10.2
X7.15Y7.8
X7.75Y25.8
X7.75Y8.5
X8.0Y29.25
X8.0Y28.0
X8.0Y0.75
X8.15Y9.35
X8.2Y10.2
X8.25Y22.35
X8.7Y3.5
X9.25Y9.15
X9.75Y8.65
X10.0Y29.25
X10.35Y20.55
X10.85Y11.25
X11.25Y23.75
X11.25Y23.0
X11.5Y28.0
X11.55Y10.6
X11.65Y13.85
X11.65Y13.05
X12.0Y29.25
X12.0Y23.75
X12.0Y3.5
X12.0Y0.75
X13.1Y15.3
X13.1Y14.45
X13.2Y10.35
X14.0Y29.25
X14.0Y0.75
X14.25Y10.75
X14.5Y2.5
X15.0Y23.25
X15.75Y24.0
X15.75Y10.75
X15.9Y4.75
X16.0Y29.25
X16.0Y0.75
X16.1Y19.45
X16.7Y18.85
X17.0Y2.5
X17.05Y10.35
X17.45Y23.05
X18.0Y29.25
X18.0Y0.75
X18.25Y19.15
X18.5Y26.1
X18.5Y24.6
X19.65Y13.1
X20.0Y29.25
X20.75Y23.05
X20.75Y10.4
X21.55Y8.0
X21.7Y23.05
X22.0Y29.25
X22.0Y28.0
X22.0Y12.95
X22.0Y0.75
X22.05Y19.75
X22.425Y13.375
X22.6Y18.275
X22.65Y16.1
X22.85Y2.75
X23.1Y14.05
X23.2Y8.0
X23.25Y13.0
X23.75Y2.75
X24.0Y29.25
X24.0Y0.75
X24.15Y11.85
X24.55Y24.6
X24.75Y28.5
X25.25Y23.75
X27.25Y26.75
X29.25Y23.0
X29.25Y20.85
X29.25Y18.3
X29.25Y15.75
X29.25Y13.25
X29.25Y10.7
X29.25Y8.15
T3
X0.95Y14.25
X0.95Y13.4
X1.0Y16.85
X1.65Y11.65
X1.9Y18.0
X2.3Y12.3
X2.95Y11.4
X3.6Y23.5
X4.3Y24.0
X7.8Y7.4
X8.65Y21.15
X8.7Y8.25
X9.15Y18.525
X12.25Y24.5
X13.25Y29.0
X14.075Y4.875
X14.1Y13.2
X14.775Y12.525
X14.925Y4.875
X17.375Y3.625
X18.2Y13.0
X18.75Y23.6
X19.35Y19.5
X21.15Y15.85
X21.275Y19.65
X21.95Y18.975
X23.25Y25.6
X23.5Y23.6
T4
X5.9Y10.475
X11.5Y8.65
X16.75Y23.6
X19.614Y7.664
X20.286Y8.336
X22.5Y9.1
T6
X2.6Y28.9
X2.6Y24.6
X27.4Y28.9
X27.4Y24.6
T7
X9.426Y23.474
X14.8Y18.1
X25.71Y22.12
X25.71Y19.58
X25.71Y17.04
X25.71Y14.5
X25.71Y11.96
X25.71Y9.42
X25.71Y6.88
X25.71Y4.34
X25.71Y1.8
X28.25Y22.12
X28.25Y19.58
X28.25Y17.04
X28.25Y14.5
X28.25Y11.96
X28.25Y9.42
X28.25Y6.88
X28.25Y4.34
X28.25Y1.8
T5
G00X10.675Y6.18
M15
G01X10.675Y5.08
M16
G05
G00X10.675Y1.75
M15
G01X10.675Y1.15
M16
G05
G00X19.325Y6.18
M15
G01X19.325Y5.08
M16
G05
G00X19.325Y1.75
M15
G01X19.325Y1.15
M16
G05
T0
M30
