%TF.GenerationSoftware,KiCad,Pcbnew,(5.1.12-1-10_14)*%
%TF.CreationDate,2022-04-04T20:25:46+08:00*%
%TF.ProjectId,DeerMon,44656572-4d6f-46e2-9e6b-696361645f70,rev?*%
%TF.SameCoordinates,Original*%
%TF.FileFunction,Paste,Top*%
%TF.FilePolarity,Positive*%
%FSLAX46Y46*%
G04 Gerber Fmt 4.6, Leading zero omitted, Abs format (unit mm)*
G04 Created by KiCad (PCBNEW (5.1.12-1-10_14)) date 2022-04-04 20:25:46*
%MOMM*%
%LPD*%
G01*
G04 APERTURE LIST*
%ADD10C,0.350000*%
%ADD11R,0.500000X0.500000*%
%ADD12R,1.000000X1.500000*%
%ADD13R,1.200000X0.700000*%
%ADD14R,0.700000X1.100000*%
%ADD15R,0.900000X0.800000*%
%ADD16R,2.000000X2.400000*%
%ADD17R,0.400000X1.150000*%
%ADD18R,2.000000X1.200000*%
%ADD19R,0.650000X1.060000*%
%ADD20R,0.300000X1.450000*%
%ADD21R,0.600000X1.450000*%
%ADD22R,0.700000X0.600000*%
G04 APERTURE END LIST*
%TO.C,C14*%
G36*
G01*
X9663371Y17653787D02*
X9903787Y17413371D01*
G75*
G02*
X9903787Y17215381I-98995J-98995D01*
G01*
X9705797Y17017391D01*
G75*
G02*
X9507807Y17017391I-98995J98995D01*
G01*
X9267391Y17257807D01*
G75*
G02*
X9267391Y17455797I98995J98995D01*
G01*
X9465381Y17653787D01*
G75*
G02*
X9663371Y17653787I98995J-98995D01*
G01*
G37*
G36*
G01*
X10342193Y18332609D02*
X10582609Y18092193D01*
G75*
G02*
X10582609Y17894203I-98995J-98995D01*
G01*
X10384619Y17696213D01*
G75*
G02*
X10186629Y17696213I-98995J98995D01*
G01*
X9946213Y17936629D01*
G75*
G02*
X9946213Y18134619I98995J98995D01*
G01*
X10144203Y18332609D01*
G75*
G02*
X10342193Y18332609I98995J-98995D01*
G01*
G37*
%TD*%
D10*
%TO.C,Q1*%
G36*
X16541421Y19475736D02*
G01*
X16824264Y19758579D01*
X17319239Y19263604D01*
X17036396Y18980761D01*
X16541421Y19475736D01*
G37*
G36*
X16187868Y19122183D02*
G01*
X16470711Y19405026D01*
X16965686Y18910051D01*
X16682843Y18627208D01*
X16187868Y19122183D01*
G37*
G36*
X15480761Y20536396D02*
G01*
X15763604Y20819239D01*
X16258579Y20324264D01*
X15975736Y20041421D01*
X15480761Y20536396D01*
G37*
G36*
X16894974Y19829289D02*
G01*
X17177817Y20112132D01*
X17672792Y19617157D01*
X17389949Y19334314D01*
X16894974Y19829289D01*
G37*
G36*
X15127208Y20182843D02*
G01*
X15410051Y20465686D01*
X15905026Y19970711D01*
X15622183Y19687868D01*
X15127208Y20182843D01*
G37*
G36*
X15834314Y20889949D02*
G01*
X16117157Y21172792D01*
X16612132Y20677817D01*
X16329289Y20394974D01*
X15834314Y20889949D01*
G37*
%TD*%
%TO.C,R11*%
G36*
G01*
X8490000Y13815000D02*
X8490000Y14185000D01*
G75*
G02*
X8625000Y14320000I135000J0D01*
G01*
X8895000Y14320000D01*
G75*
G02*
X9030000Y14185000I0J-135000D01*
G01*
X9030000Y13815000D01*
G75*
G02*
X8895000Y13680000I-135000J0D01*
G01*
X8625000Y13680000D01*
G75*
G02*
X8490000Y13815000I0J135000D01*
G01*
G37*
G36*
G01*
X7470000Y13815000D02*
X7470000Y14185000D01*
G75*
G02*
X7605000Y14320000I135000J0D01*
G01*
X7875000Y14320000D01*
G75*
G02*
X8010000Y14185000I0J-135000D01*
G01*
X8010000Y13815000D01*
G75*
G02*
X7875000Y13680000I-135000J0D01*
G01*
X7605000Y13680000D01*
G75*
G02*
X7470000Y13815000I0J135000D01*
G01*
G37*
%TD*%
D11*
%TO.C,D4*%
X7800000Y12050000D03*
X8700000Y12050000D03*
X8700000Y12950000D03*
X7800000Y12950000D03*
%TD*%
%TO.C,C16*%
G36*
G01*
X4763371Y16803787D02*
X5003787Y16563371D01*
G75*
G02*
X5003787Y16365381I-98995J-98995D01*
G01*
X4805797Y16167391D01*
G75*
G02*
X4607807Y16167391I-98995J98995D01*
G01*
X4367391Y16407807D01*
G75*
G02*
X4367391Y16605797I98995J98995D01*
G01*
X4565381Y16803787D01*
G75*
G02*
X4763371Y16803787I98995J-98995D01*
G01*
G37*
G36*
G01*
X5442193Y17482609D02*
X5682609Y17242193D01*
G75*
G02*
X5682609Y17044203I-98995J-98995D01*
G01*
X5484619Y16846213D01*
G75*
G02*
X5286629Y16846213I-98995J98995D01*
G01*
X5046213Y17086629D01*
G75*
G02*
X5046213Y17284619I98995J98995D01*
G01*
X5244203Y17482609D01*
G75*
G02*
X5442193Y17482609I98995J-98995D01*
G01*
G37*
%TD*%
%TO.C,C15*%
G36*
G01*
X4088371Y17478787D02*
X4328787Y17238371D01*
G75*
G02*
X4328787Y17040381I-98995J-98995D01*
G01*
X4130797Y16842391D01*
G75*
G02*
X3932807Y16842391I-98995J98995D01*
G01*
X3692391Y17082807D01*
G75*
G02*
X3692391Y17280797I98995J98995D01*
G01*
X3890381Y17478787D01*
G75*
G02*
X4088371Y17478787I98995J-98995D01*
G01*
G37*
G36*
G01*
X4767193Y18157609D02*
X5007609Y17917193D01*
G75*
G02*
X5007609Y17719203I-98995J-98995D01*
G01*
X4809619Y17521213D01*
G75*
G02*
X4611629Y17521213I-98995J98995D01*
G01*
X4371213Y17761629D01*
G75*
G02*
X4371213Y17959619I98995J98995D01*
G01*
X4569203Y18157609D01*
G75*
G02*
X4767193Y18157609I98995J-98995D01*
G01*
G37*
%TD*%
%TO.C,C12*%
G36*
G01*
X9761629Y27221213D02*
X9521213Y27461629D01*
G75*
G02*
X9521213Y27659619I98995J98995D01*
G01*
X9719203Y27857609D01*
G75*
G02*
X9917193Y27857609I98995J-98995D01*
G01*
X10157609Y27617193D01*
G75*
G02*
X10157609Y27419203I-98995J-98995D01*
G01*
X9959619Y27221213D01*
G75*
G02*
X9761629Y27221213I-98995J98995D01*
G01*
G37*
G36*
G01*
X9082807Y26542391D02*
X8842391Y26782807D01*
G75*
G02*
X8842391Y26980797I98995J98995D01*
G01*
X9040381Y27178787D01*
G75*
G02*
X9238371Y27178787I98995J-98995D01*
G01*
X9478787Y26938371D01*
G75*
G02*
X9478787Y26740381I-98995J-98995D01*
G01*
X9280797Y26542391D01*
G75*
G02*
X9082807Y26542391I-98995J98995D01*
G01*
G37*
%TD*%
%TO.C,C7*%
G36*
G01*
X3413371Y18153787D02*
X3653787Y17913371D01*
G75*
G02*
X3653787Y17715381I-98995J-98995D01*
G01*
X3455797Y17517391D01*
G75*
G02*
X3257807Y17517391I-98995J98995D01*
G01*
X3017391Y17757807D01*
G75*
G02*
X3017391Y17955797I98995J98995D01*
G01*
X3215381Y18153787D01*
G75*
G02*
X3413371Y18153787I98995J-98995D01*
G01*
G37*
G36*
G01*
X4092193Y18832609D02*
X4332609Y18592193D01*
G75*
G02*
X4332609Y18394203I-98995J-98995D01*
G01*
X4134619Y18196213D01*
G75*
G02*
X3936629Y18196213I-98995J98995D01*
G01*
X3696213Y18436629D01*
G75*
G02*
X3696213Y18634619I98995J98995D01*
G01*
X3894203Y18832609D01*
G75*
G02*
X4092193Y18832609I98995J-98995D01*
G01*
G37*
%TD*%
%TO.C,C6*%
G36*
G01*
X10338371Y16978787D02*
X10578787Y16738371D01*
G75*
G02*
X10578787Y16540381I-98995J-98995D01*
G01*
X10380797Y16342391D01*
G75*
G02*
X10182807Y16342391I-98995J98995D01*
G01*
X9942391Y16582807D01*
G75*
G02*
X9942391Y16780797I98995J98995D01*
G01*
X10140381Y16978787D01*
G75*
G02*
X10338371Y16978787I98995J-98995D01*
G01*
G37*
G36*
G01*
X11017193Y17657609D02*
X11257609Y17417193D01*
G75*
G02*
X11257609Y17219203I-98995J-98995D01*
G01*
X11059619Y17021213D01*
G75*
G02*
X10861629Y17021213I-98995J98995D01*
G01*
X10621213Y17261629D01*
G75*
G02*
X10621213Y17459619I98995J98995D01*
G01*
X10819203Y17657609D01*
G75*
G02*
X11017193Y17657609I98995J-98995D01*
G01*
G37*
%TD*%
%TO.C,C5*%
G36*
G01*
X1170000Y25800000D02*
X830000Y25800000D01*
G75*
G02*
X690000Y25940000I0J140000D01*
G01*
X690000Y26220000D01*
G75*
G02*
X830000Y26360000I140000J0D01*
G01*
X1170000Y26360000D01*
G75*
G02*
X1310000Y26220000I0J-140000D01*
G01*
X1310000Y25940000D01*
G75*
G02*
X1170000Y25800000I-140000J0D01*
G01*
G37*
G36*
G01*
X1170000Y24840000D02*
X830000Y24840000D01*
G75*
G02*
X690000Y24980000I0J140000D01*
G01*
X690000Y25260000D01*
G75*
G02*
X830000Y25400000I140000J0D01*
G01*
X1170000Y25400000D01*
G75*
G02*
X1310000Y25260000I0J-140000D01*
G01*
X1310000Y24980000D01*
G75*
G02*
X1170000Y24840000I-140000J0D01*
G01*
G37*
%TD*%
%TO.C,R14*%
G36*
G01*
X22075000Y13125000D02*
X22075000Y12575000D01*
G75*
G02*
X21875000Y12375000I-200000J0D01*
G01*
X21475000Y12375000D01*
G75*
G02*
X21275000Y12575000I0J200000D01*
G01*
X21275000Y13125000D01*
G75*
G02*
X21475000Y13325000I200000J0D01*
G01*
X21875000Y13325000D01*
G75*
G02*
X22075000Y13125000I0J-200000D01*
G01*
G37*
G36*
G01*
X23725000Y13125000D02*
X23725000Y12575000D01*
G75*
G02*
X23525000Y12375000I-200000J0D01*
G01*
X23125000Y12375000D01*
G75*
G02*
X22925000Y12575000I0J200000D01*
G01*
X22925000Y13125000D01*
G75*
G02*
X23125000Y13325000I200000J0D01*
G01*
X23525000Y13325000D01*
G75*
G02*
X23725000Y13125000I0J-200000D01*
G01*
G37*
%TD*%
%TO.C,R13*%
G36*
G01*
X6840000Y33115000D02*
X6840000Y33485000D01*
G75*
G02*
X6975000Y33620000I135000J0D01*
G01*
X7245000Y33620000D01*
G75*
G02*
X7380000Y33485000I0J-135000D01*
G01*
X7380000Y33115000D01*
G75*
G02*
X7245000Y32980000I-135000J0D01*
G01*
X6975000Y32980000D01*
G75*
G02*
X6840000Y33115000I0J135000D01*
G01*
G37*
G36*
G01*
X5820000Y33115000D02*
X5820000Y33485000D01*
G75*
G02*
X5955000Y33620000I135000J0D01*
G01*
X6225000Y33620000D01*
G75*
G02*
X6360000Y33485000I0J-135000D01*
G01*
X6360000Y33115000D01*
G75*
G02*
X6225000Y32980000I-135000J0D01*
G01*
X5955000Y32980000D01*
G75*
G02*
X5820000Y33115000I0J135000D01*
G01*
G37*
%TD*%
D12*
%TO.C,SW1*%
X4200000Y34250000D03*
D13*
X3900000Y32550000D03*
X3900000Y35950000D03*
D14*
X1650000Y32150000D03*
X1650000Y36350000D03*
%TD*%
D15*
%TO.C,Q2*%
X7600000Y30975000D03*
X5600000Y30025000D03*
X5600000Y31925000D03*
%TD*%
%TO.C,C10*%
G36*
G01*
X22504595Y19103033D02*
X22151041Y19456587D01*
G75*
G02*
X22151041Y19774785I159099J159099D01*
G01*
X22469239Y20092983D01*
G75*
G02*
X22787437Y20092983I159099J-159099D01*
G01*
X23140991Y19739429D01*
G75*
G02*
X23140991Y19421231I-159099J-159099D01*
G01*
X22822793Y19103033D01*
G75*
G02*
X22504595Y19103033I-159099J159099D01*
G01*
G37*
G36*
G01*
X21408579Y18007017D02*
X21055025Y18360571D01*
G75*
G02*
X21055025Y18678769I159099J159099D01*
G01*
X21373223Y18996967D01*
G75*
G02*
X21691421Y18996967I159099J-159099D01*
G01*
X22044975Y18643413D01*
G75*
G02*
X22044975Y18325215I-159099J-159099D01*
G01*
X21726777Y18007017D01*
G75*
G02*
X21408579Y18007017I-159099J159099D01*
G01*
G37*
%TD*%
%TO.C,C9*%
G36*
G01*
X22825000Y11100000D02*
X22825000Y11600000D01*
G75*
G02*
X23050000Y11825000I225000J0D01*
G01*
X23500000Y11825000D01*
G75*
G02*
X23725000Y11600000I0J-225000D01*
G01*
X23725000Y11100000D01*
G75*
G02*
X23500000Y10875000I-225000J0D01*
G01*
X23050000Y10875000D01*
G75*
G02*
X22825000Y11100000I0J225000D01*
G01*
G37*
G36*
G01*
X21275000Y11100000D02*
X21275000Y11600000D01*
G75*
G02*
X21500000Y11825000I225000J0D01*
G01*
X21950000Y11825000D01*
G75*
G02*
X22175000Y11600000I0J-225000D01*
G01*
X22175000Y11100000D01*
G75*
G02*
X21950000Y10875000I-225000J0D01*
G01*
X21500000Y10875000D01*
G75*
G02*
X21275000Y11100000I0J225000D01*
G01*
G37*
%TD*%
D16*
%TO.C,J2*%
X20050000Y34500000D03*
X9950000Y34500000D03*
D17*
X12250000Y35475000D03*
X16250000Y35475000D03*
X17250000Y35475000D03*
X18250000Y35475000D03*
X15250000Y35475000D03*
X13250000Y35475000D03*
X14250000Y35475000D03*
X17750000Y33525000D03*
X16750000Y33525000D03*
X15750000Y33525000D03*
X14750000Y33525000D03*
X13750000Y33525000D03*
X12750000Y33525000D03*
X11750000Y33525000D03*
%TD*%
D18*
%TO.C,AE1*%
X2000000Y8750000D03*
X2000000Y14250000D03*
%TD*%
D12*
%TO.C,SW2*%
X25800000Y34250000D03*
D13*
X26100000Y35950000D03*
X26100000Y32550000D03*
D14*
X28350000Y36350000D03*
X28350000Y32150000D03*
%TD*%
%TO.C,U4*%
G36*
G01*
X7882672Y23609879D02*
X7617507Y23344714D01*
G75*
G02*
X7352341Y23344714I-132583J132583D01*
G01*
X7087176Y23609879D01*
G75*
G02*
X7087176Y23875045I132583J132583D01*
G01*
X7352341Y24140210D01*
G75*
G02*
X7617507Y24140210I132583J-132583D01*
G01*
X7882672Y23875045D01*
G75*
G02*
X7882672Y23609879I-132583J-132583D01*
G01*
G37*
G36*
G01*
X7140210Y22867417D02*
X6875045Y22602252D01*
G75*
G02*
X6609879Y22602252I-132583J132583D01*
G01*
X6344714Y22867417D01*
G75*
G02*
X6344714Y23132583I132583J132583D01*
G01*
X6609879Y23397748D01*
G75*
G02*
X6875045Y23397748I132583J-132583D01*
G01*
X7140210Y23132583D01*
G75*
G02*
X7140210Y22867417I-132583J-132583D01*
G01*
G37*
G36*
G01*
X6397748Y22124955D02*
X6132583Y21859790D01*
G75*
G02*
X5867417Y21859790I-132583J132583D01*
G01*
X5602252Y22124955D01*
G75*
G02*
X5602252Y22390121I132583J132583D01*
G01*
X5867417Y22655286D01*
G75*
G02*
X6132583Y22655286I132583J-132583D01*
G01*
X6397748Y22390121D01*
G75*
G02*
X6397748Y22124955I-132583J-132583D01*
G01*
G37*
G36*
G01*
X8625134Y22867417D02*
X8359969Y22602252D01*
G75*
G02*
X8094803Y22602252I-132583J132583D01*
G01*
X7829638Y22867417D01*
G75*
G02*
X7829638Y23132583I132583J132583D01*
G01*
X8094803Y23397748D01*
G75*
G02*
X8359969Y23397748I132583J-132583D01*
G01*
X8625134Y23132583D01*
G75*
G02*
X8625134Y22867417I-132583J-132583D01*
G01*
G37*
G36*
G01*
X7882672Y22124955D02*
X7617507Y21859790D01*
G75*
G02*
X7352341Y21859790I-132583J132583D01*
G01*
X7087176Y22124955D01*
G75*
G02*
X7087176Y22390121I132583J132583D01*
G01*
X7352341Y22655286D01*
G75*
G02*
X7617507Y22655286I132583J-132583D01*
G01*
X7882672Y22390121D01*
G75*
G02*
X7882672Y22124955I-132583J-132583D01*
G01*
G37*
G36*
G01*
X7140210Y21382493D02*
X6875045Y21117328D01*
G75*
G02*
X6609879Y21117328I-132583J132583D01*
G01*
X6344714Y21382493D01*
G75*
G02*
X6344714Y21647659I132583J132583D01*
G01*
X6609879Y21912824D01*
G75*
G02*
X6875045Y21912824I132583J-132583D01*
G01*
X7140210Y21647659D01*
G75*
G02*
X7140210Y21382493I-132583J-132583D01*
G01*
G37*
G36*
G01*
X6397748Y25094803D02*
X6132583Y24829638D01*
G75*
G02*
X5867417Y24829638I-132583J132583D01*
G01*
X5602252Y25094803D01*
G75*
G02*
X5602252Y25359969I132583J132583D01*
G01*
X5867417Y25625134D01*
G75*
G02*
X6132583Y25625134I132583J-132583D01*
G01*
X6397748Y25359969D01*
G75*
G02*
X6397748Y25094803I-132583J-132583D01*
G01*
G37*
G36*
G01*
X5655286Y24352341D02*
X5390121Y24087176D01*
G75*
G02*
X5124955Y24087176I-132583J132583D01*
G01*
X4859790Y24352341D01*
G75*
G02*
X4859790Y24617507I132583J132583D01*
G01*
X5124955Y24882672D01*
G75*
G02*
X5390121Y24882672I132583J-132583D01*
G01*
X5655286Y24617507D01*
G75*
G02*
X5655286Y24352341I-132583J-132583D01*
G01*
G37*
G36*
G01*
X4912824Y23609879D02*
X4647659Y23344714D01*
G75*
G02*
X4382493Y23344714I-132583J132583D01*
G01*
X4117328Y23609879D01*
G75*
G02*
X4117328Y23875045I132583J132583D01*
G01*
X4382493Y24140210D01*
G75*
G02*
X4647659Y24140210I132583J-132583D01*
G01*
X4912824Y23875045D01*
G75*
G02*
X4912824Y23609879I-132583J-132583D01*
G01*
G37*
G36*
G01*
X7140210Y24352341D02*
X6875045Y24087176D01*
G75*
G02*
X6609879Y24087176I-132583J132583D01*
G01*
X6344714Y24352341D01*
G75*
G02*
X6344714Y24617507I132583J132583D01*
G01*
X6609879Y24882672D01*
G75*
G02*
X6875045Y24882672I132583J-132583D01*
G01*
X7140210Y24617507D01*
G75*
G02*
X7140210Y24352341I-132583J-132583D01*
G01*
G37*
G36*
G01*
X6397748Y23609879D02*
X6132583Y23344714D01*
G75*
G02*
X5867417Y23344714I-132583J132583D01*
G01*
X5602252Y23609879D01*
G75*
G02*
X5602252Y23875045I132583J132583D01*
G01*
X5867417Y24140210D01*
G75*
G02*
X6132583Y24140210I132583J-132583D01*
G01*
X6397748Y23875045D01*
G75*
G02*
X6397748Y23609879I-132583J-132583D01*
G01*
G37*
G36*
G01*
X5655286Y22867417D02*
X5390121Y22602252D01*
G75*
G02*
X5124955Y22602252I-132583J132583D01*
G01*
X4859790Y22867417D01*
G75*
G02*
X4859790Y23132583I132583J132583D01*
G01*
X5124955Y23397748D01*
G75*
G02*
X5390121Y23397748I132583J-132583D01*
G01*
X5655286Y23132583D01*
G75*
G02*
X5655286Y22867417I-132583J-132583D01*
G01*
G37*
G36*
G01*
X4170362Y22867417D02*
X3905197Y22602252D01*
G75*
G02*
X3640031Y22602252I-132583J132583D01*
G01*
X3374866Y22867417D01*
G75*
G02*
X3374866Y23132583I132583J132583D01*
G01*
X3640031Y23397748D01*
G75*
G02*
X3905197Y23397748I132583J-132583D01*
G01*
X4170362Y23132583D01*
G75*
G02*
X4170362Y22867417I-132583J-132583D01*
G01*
G37*
G36*
G01*
X4912824Y22124955D02*
X4647659Y21859790D01*
G75*
G02*
X4382493Y21859790I-132583J132583D01*
G01*
X4117328Y22124955D01*
G75*
G02*
X4117328Y22390121I132583J132583D01*
G01*
X4382493Y22655286D01*
G75*
G02*
X4647659Y22655286I132583J-132583D01*
G01*
X4912824Y22390121D01*
G75*
G02*
X4912824Y22124955I-132583J-132583D01*
G01*
G37*
G36*
G01*
X5655286Y21382493D02*
X5390121Y21117328D01*
G75*
G02*
X5124955Y21117328I-132583J132583D01*
G01*
X4859790Y21382493D01*
G75*
G02*
X4859790Y21647659I132583J132583D01*
G01*
X5124955Y21912824D01*
G75*
G02*
X5390121Y21912824I132583J-132583D01*
G01*
X5655286Y21647659D01*
G75*
G02*
X5655286Y21382493I-132583J-132583D01*
G01*
G37*
G36*
G01*
X6397748Y20640031D02*
X6132583Y20374866D01*
G75*
G02*
X5867417Y20374866I-132583J132583D01*
G01*
X5602252Y20640031D01*
G75*
G02*
X5602252Y20905197I132583J132583D01*
G01*
X5867417Y21170362D01*
G75*
G02*
X6132583Y21170362I132583J-132583D01*
G01*
X6397748Y20905197D01*
G75*
G02*
X6397748Y20640031I-132583J-132583D01*
G01*
G37*
G36*
G01*
X5867417Y18801554D02*
X5337087Y18271224D01*
G75*
G02*
X5248699Y18271224I-44194J44194D01*
G01*
X5160311Y18359612D01*
G75*
G02*
X5160311Y18448000I44194J44194D01*
G01*
X5690641Y18978330D01*
G75*
G02*
X5779029Y18978330I44194J-44194D01*
G01*
X5867417Y18889942D01*
G75*
G02*
X5867417Y18801554I-44194J-44194D01*
G01*
G37*
G36*
G01*
X5513864Y19155107D02*
X4983534Y18624777D01*
G75*
G02*
X4895146Y18624777I-44194J44194D01*
G01*
X4806758Y18713165D01*
G75*
G02*
X4806758Y18801553I44194J44194D01*
G01*
X5337088Y19331883D01*
G75*
G02*
X5425476Y19331883I44194J-44194D01*
G01*
X5513864Y19243495D01*
G75*
G02*
X5513864Y19155107I-44194J-44194D01*
G01*
G37*
G36*
G01*
X5160310Y19508661D02*
X4629980Y18978331D01*
G75*
G02*
X4541592Y18978331I-44194J44194D01*
G01*
X4453204Y19066719D01*
G75*
G02*
X4453204Y19155107I44194J44194D01*
G01*
X4983534Y19685437D01*
G75*
G02*
X5071922Y19685437I44194J-44194D01*
G01*
X5160310Y19597049D01*
G75*
G02*
X5160310Y19508661I-44194J-44194D01*
G01*
G37*
G36*
G01*
X4806757Y19862214D02*
X4276427Y19331884D01*
G75*
G02*
X4188039Y19331884I-44194J44194D01*
G01*
X4099651Y19420272D01*
G75*
G02*
X4099651Y19508660I44194J44194D01*
G01*
X4629981Y20038990D01*
G75*
G02*
X4718369Y20038990I44194J-44194D01*
G01*
X4806757Y19950602D01*
G75*
G02*
X4806757Y19862214I-44194J-44194D01*
G01*
G37*
G36*
G01*
X4453204Y20215767D02*
X3922874Y19685437D01*
G75*
G02*
X3834486Y19685437I-44194J44194D01*
G01*
X3746098Y19773825D01*
G75*
G02*
X3746098Y19862213I44194J44194D01*
G01*
X4276428Y20392543D01*
G75*
G02*
X4364816Y20392543I44194J-44194D01*
G01*
X4453204Y20304155D01*
G75*
G02*
X4453204Y20215767I-44194J-44194D01*
G01*
G37*
G36*
G01*
X4099650Y20569321D02*
X3569320Y20038991D01*
G75*
G02*
X3480932Y20038991I-44194J44194D01*
G01*
X3392544Y20127379D01*
G75*
G02*
X3392544Y20215767I44194J44194D01*
G01*
X3922874Y20746097D01*
G75*
G02*
X4011262Y20746097I44194J-44194D01*
G01*
X4099650Y20657709D01*
G75*
G02*
X4099650Y20569321I-44194J-44194D01*
G01*
G37*
G36*
G01*
X3746097Y20922874D02*
X3215767Y20392544D01*
G75*
G02*
X3127379Y20392544I-44194J44194D01*
G01*
X3038991Y20480932D01*
G75*
G02*
X3038991Y20569320I44194J44194D01*
G01*
X3569321Y21099650D01*
G75*
G02*
X3657709Y21099650I44194J-44194D01*
G01*
X3746097Y21011262D01*
G75*
G02*
X3746097Y20922874I-44194J-44194D01*
G01*
G37*
G36*
G01*
X3392543Y21276428D02*
X2862213Y20746098D01*
G75*
G02*
X2773825Y20746098I-44194J44194D01*
G01*
X2685437Y20834486D01*
G75*
G02*
X2685437Y20922874I44194J44194D01*
G01*
X3215767Y21453204D01*
G75*
G02*
X3304155Y21453204I44194J-44194D01*
G01*
X3392543Y21364816D01*
G75*
G02*
X3392543Y21276428I-44194J-44194D01*
G01*
G37*
G36*
G01*
X3038990Y21629981D02*
X2508660Y21099651D01*
G75*
G02*
X2420272Y21099651I-44194J44194D01*
G01*
X2331884Y21188039D01*
G75*
G02*
X2331884Y21276427I44194J44194D01*
G01*
X2862214Y21806757D01*
G75*
G02*
X2950602Y21806757I44194J-44194D01*
G01*
X3038990Y21718369D01*
G75*
G02*
X3038990Y21629981I-44194J-44194D01*
G01*
G37*
G36*
G01*
X2685437Y21983534D02*
X2155107Y21453204D01*
G75*
G02*
X2066719Y21453204I-44194J44194D01*
G01*
X1978331Y21541592D01*
G75*
G02*
X1978331Y21629980I44194J44194D01*
G01*
X2508661Y22160310D01*
G75*
G02*
X2597049Y22160310I44194J-44194D01*
G01*
X2685437Y22071922D01*
G75*
G02*
X2685437Y21983534I-44194J-44194D01*
G01*
G37*
G36*
G01*
X2331883Y22337088D02*
X1801553Y21806758D01*
G75*
G02*
X1713165Y21806758I-44194J44194D01*
G01*
X1624777Y21895146D01*
G75*
G02*
X1624777Y21983534I44194J44194D01*
G01*
X2155107Y22513864D01*
G75*
G02*
X2243495Y22513864I44194J-44194D01*
G01*
X2331883Y22425476D01*
G75*
G02*
X2331883Y22337088I-44194J-44194D01*
G01*
G37*
G36*
G01*
X1978330Y22690641D02*
X1448000Y22160311D01*
G75*
G02*
X1359612Y22160311I-44194J44194D01*
G01*
X1271224Y22248699D01*
G75*
G02*
X1271224Y22337087I44194J44194D01*
G01*
X1801554Y22867417D01*
G75*
G02*
X1889942Y22867417I44194J-44194D01*
G01*
X1978330Y22779029D01*
G75*
G02*
X1978330Y22690641I-44194J-44194D01*
G01*
G37*
G36*
G01*
X1978330Y23220971D02*
X1889942Y23132583D01*
G75*
G02*
X1801554Y23132583I-44194J44194D01*
G01*
X1271224Y23662913D01*
G75*
G02*
X1271224Y23751301I44194J44194D01*
G01*
X1359612Y23839689D01*
G75*
G02*
X1448000Y23839689I44194J-44194D01*
G01*
X1978330Y23309359D01*
G75*
G02*
X1978330Y23220971I-44194J-44194D01*
G01*
G37*
G36*
G01*
X2331883Y23574524D02*
X2243495Y23486136D01*
G75*
G02*
X2155107Y23486136I-44194J44194D01*
G01*
X1624777Y24016466D01*
G75*
G02*
X1624777Y24104854I44194J44194D01*
G01*
X1713165Y24193242D01*
G75*
G02*
X1801553Y24193242I44194J-44194D01*
G01*
X2331883Y23662912D01*
G75*
G02*
X2331883Y23574524I-44194J-44194D01*
G01*
G37*
G36*
G01*
X2685437Y23928078D02*
X2597049Y23839690D01*
G75*
G02*
X2508661Y23839690I-44194J44194D01*
G01*
X1978331Y24370020D01*
G75*
G02*
X1978331Y24458408I44194J44194D01*
G01*
X2066719Y24546796D01*
G75*
G02*
X2155107Y24546796I44194J-44194D01*
G01*
X2685437Y24016466D01*
G75*
G02*
X2685437Y23928078I-44194J-44194D01*
G01*
G37*
G36*
G01*
X3038990Y24281631D02*
X2950602Y24193243D01*
G75*
G02*
X2862214Y24193243I-44194J44194D01*
G01*
X2331884Y24723573D01*
G75*
G02*
X2331884Y24811961I44194J44194D01*
G01*
X2420272Y24900349D01*
G75*
G02*
X2508660Y24900349I44194J-44194D01*
G01*
X3038990Y24370019D01*
G75*
G02*
X3038990Y24281631I-44194J-44194D01*
G01*
G37*
G36*
G01*
X3392543Y24635184D02*
X3304155Y24546796D01*
G75*
G02*
X3215767Y24546796I-44194J44194D01*
G01*
X2685437Y25077126D01*
G75*
G02*
X2685437Y25165514I44194J44194D01*
G01*
X2773825Y25253902D01*
G75*
G02*
X2862213Y25253902I44194J-44194D01*
G01*
X3392543Y24723572D01*
G75*
G02*
X3392543Y24635184I-44194J-44194D01*
G01*
G37*
G36*
G01*
X3746097Y24988738D02*
X3657709Y24900350D01*
G75*
G02*
X3569321Y24900350I-44194J44194D01*
G01*
X3038991Y25430680D01*
G75*
G02*
X3038991Y25519068I44194J44194D01*
G01*
X3127379Y25607456D01*
G75*
G02*
X3215767Y25607456I44194J-44194D01*
G01*
X3746097Y25077126D01*
G75*
G02*
X3746097Y24988738I-44194J-44194D01*
G01*
G37*
G36*
G01*
X4099650Y25342291D02*
X4011262Y25253903D01*
G75*
G02*
X3922874Y25253903I-44194J44194D01*
G01*
X3392544Y25784233D01*
G75*
G02*
X3392544Y25872621I44194J44194D01*
G01*
X3480932Y25961009D01*
G75*
G02*
X3569320Y25961009I44194J-44194D01*
G01*
X4099650Y25430679D01*
G75*
G02*
X4099650Y25342291I-44194J-44194D01*
G01*
G37*
G36*
G01*
X4453204Y25695845D02*
X4364816Y25607457D01*
G75*
G02*
X4276428Y25607457I-44194J44194D01*
G01*
X3746098Y26137787D01*
G75*
G02*
X3746098Y26226175I44194J44194D01*
G01*
X3834486Y26314563D01*
G75*
G02*
X3922874Y26314563I44194J-44194D01*
G01*
X4453204Y25784233D01*
G75*
G02*
X4453204Y25695845I-44194J-44194D01*
G01*
G37*
G36*
G01*
X4806757Y26049398D02*
X4718369Y25961010D01*
G75*
G02*
X4629981Y25961010I-44194J44194D01*
G01*
X4099651Y26491340D01*
G75*
G02*
X4099651Y26579728I44194J44194D01*
G01*
X4188039Y26668116D01*
G75*
G02*
X4276427Y26668116I44194J-44194D01*
G01*
X4806757Y26137786D01*
G75*
G02*
X4806757Y26049398I-44194J-44194D01*
G01*
G37*
G36*
G01*
X5160310Y26402951D02*
X5071922Y26314563D01*
G75*
G02*
X4983534Y26314563I-44194J44194D01*
G01*
X4453204Y26844893D01*
G75*
G02*
X4453204Y26933281I44194J44194D01*
G01*
X4541592Y27021669D01*
G75*
G02*
X4629980Y27021669I44194J-44194D01*
G01*
X5160310Y26491339D01*
G75*
G02*
X5160310Y26402951I-44194J-44194D01*
G01*
G37*
G36*
G01*
X5513864Y26756505D02*
X5425476Y26668117D01*
G75*
G02*
X5337088Y26668117I-44194J44194D01*
G01*
X4806758Y27198447D01*
G75*
G02*
X4806758Y27286835I44194J44194D01*
G01*
X4895146Y27375223D01*
G75*
G02*
X4983534Y27375223I44194J-44194D01*
G01*
X5513864Y26844893D01*
G75*
G02*
X5513864Y26756505I-44194J-44194D01*
G01*
G37*
G36*
G01*
X5867417Y27110058D02*
X5779029Y27021670D01*
G75*
G02*
X5690641Y27021670I-44194J44194D01*
G01*
X5160311Y27552000D01*
G75*
G02*
X5160311Y27640388I44194J44194D01*
G01*
X5248699Y27728776D01*
G75*
G02*
X5337087Y27728776I44194J-44194D01*
G01*
X5867417Y27198446D01*
G75*
G02*
X5867417Y27110058I-44194J-44194D01*
G01*
G37*
G36*
G01*
X6839689Y27552000D02*
X6309359Y27021670D01*
G75*
G02*
X6220971Y27021670I-44194J44194D01*
G01*
X6132583Y27110058D01*
G75*
G02*
X6132583Y27198446I44194J44194D01*
G01*
X6662913Y27728776D01*
G75*
G02*
X6751301Y27728776I44194J-44194D01*
G01*
X6839689Y27640388D01*
G75*
G02*
X6839689Y27552000I-44194J-44194D01*
G01*
G37*
G36*
G01*
X7193242Y27198447D02*
X6662912Y26668117D01*
G75*
G02*
X6574524Y26668117I-44194J44194D01*
G01*
X6486136Y26756505D01*
G75*
G02*
X6486136Y26844893I44194J44194D01*
G01*
X7016466Y27375223D01*
G75*
G02*
X7104854Y27375223I44194J-44194D01*
G01*
X7193242Y27286835D01*
G75*
G02*
X7193242Y27198447I-44194J-44194D01*
G01*
G37*
G36*
G01*
X7546796Y26844893D02*
X7016466Y26314563D01*
G75*
G02*
X6928078Y26314563I-44194J44194D01*
G01*
X6839690Y26402951D01*
G75*
G02*
X6839690Y26491339I44194J44194D01*
G01*
X7370020Y27021669D01*
G75*
G02*
X7458408Y27021669I44194J-44194D01*
G01*
X7546796Y26933281D01*
G75*
G02*
X7546796Y26844893I-44194J-44194D01*
G01*
G37*
G36*
G01*
X7900349Y26491340D02*
X7370019Y25961010D01*
G75*
G02*
X7281631Y25961010I-44194J44194D01*
G01*
X7193243Y26049398D01*
G75*
G02*
X7193243Y26137786I44194J44194D01*
G01*
X7723573Y26668116D01*
G75*
G02*
X7811961Y26668116I44194J-44194D01*
G01*
X7900349Y26579728D01*
G75*
G02*
X7900349Y26491340I-44194J-44194D01*
G01*
G37*
G36*
G01*
X8253902Y26137787D02*
X7723572Y25607457D01*
G75*
G02*
X7635184Y25607457I-44194J44194D01*
G01*
X7546796Y25695845D01*
G75*
G02*
X7546796Y25784233I44194J44194D01*
G01*
X8077126Y26314563D01*
G75*
G02*
X8165514Y26314563I44194J-44194D01*
G01*
X8253902Y26226175D01*
G75*
G02*
X8253902Y26137787I-44194J-44194D01*
G01*
G37*
G36*
G01*
X8607456Y25784233D02*
X8077126Y25253903D01*
G75*
G02*
X7988738Y25253903I-44194J44194D01*
G01*
X7900350Y25342291D01*
G75*
G02*
X7900350Y25430679I44194J44194D01*
G01*
X8430680Y25961009D01*
G75*
G02*
X8519068Y25961009I44194J-44194D01*
G01*
X8607456Y25872621D01*
G75*
G02*
X8607456Y25784233I-44194J-44194D01*
G01*
G37*
G36*
G01*
X8961009Y25430680D02*
X8430679Y24900350D01*
G75*
G02*
X8342291Y24900350I-44194J44194D01*
G01*
X8253903Y24988738D01*
G75*
G02*
X8253903Y25077126I44194J44194D01*
G01*
X8784233Y25607456D01*
G75*
G02*
X8872621Y25607456I44194J-44194D01*
G01*
X8961009Y25519068D01*
G75*
G02*
X8961009Y25430680I-44194J-44194D01*
G01*
G37*
G36*
G01*
X9314563Y25077126D02*
X8784233Y24546796D01*
G75*
G02*
X8695845Y24546796I-44194J44194D01*
G01*
X8607457Y24635184D01*
G75*
G02*
X8607457Y24723572I44194J44194D01*
G01*
X9137787Y25253902D01*
G75*
G02*
X9226175Y25253902I44194J-44194D01*
G01*
X9314563Y25165514D01*
G75*
G02*
X9314563Y25077126I-44194J-44194D01*
G01*
G37*
G36*
G01*
X9668116Y24723573D02*
X9137786Y24193243D01*
G75*
G02*
X9049398Y24193243I-44194J44194D01*
G01*
X8961010Y24281631D01*
G75*
G02*
X8961010Y24370019I44194J44194D01*
G01*
X9491340Y24900349D01*
G75*
G02*
X9579728Y24900349I44194J-44194D01*
G01*
X9668116Y24811961D01*
G75*
G02*
X9668116Y24723573I-44194J-44194D01*
G01*
G37*
G36*
G01*
X10021669Y24370020D02*
X9491339Y23839690D01*
G75*
G02*
X9402951Y23839690I-44194J44194D01*
G01*
X9314563Y23928078D01*
G75*
G02*
X9314563Y24016466I44194J44194D01*
G01*
X9844893Y24546796D01*
G75*
G02*
X9933281Y24546796I44194J-44194D01*
G01*
X10021669Y24458408D01*
G75*
G02*
X10021669Y24370020I-44194J-44194D01*
G01*
G37*
G36*
G01*
X10375223Y24016466D02*
X9844893Y23486136D01*
G75*
G02*
X9756505Y23486136I-44194J44194D01*
G01*
X9668117Y23574524D01*
G75*
G02*
X9668117Y23662912I44194J44194D01*
G01*
X10198447Y24193242D01*
G75*
G02*
X10286835Y24193242I44194J-44194D01*
G01*
X10375223Y24104854D01*
G75*
G02*
X10375223Y24016466I-44194J-44194D01*
G01*
G37*
G36*
G01*
X10728776Y23662913D02*
X10198446Y23132583D01*
G75*
G02*
X10110058Y23132583I-44194J44194D01*
G01*
X10021670Y23220971D01*
G75*
G02*
X10021670Y23309359I44194J44194D01*
G01*
X10552000Y23839689D01*
G75*
G02*
X10640388Y23839689I44194J-44194D01*
G01*
X10728776Y23751301D01*
G75*
G02*
X10728776Y23662913I-44194J-44194D01*
G01*
G37*
G36*
G01*
X10728776Y22248699D02*
X10640388Y22160311D01*
G75*
G02*
X10552000Y22160311I-44194J44194D01*
G01*
X10021670Y22690641D01*
G75*
G02*
X10021670Y22779029I44194J44194D01*
G01*
X10110058Y22867417D01*
G75*
G02*
X10198446Y22867417I44194J-44194D01*
G01*
X10728776Y22337087D01*
G75*
G02*
X10728776Y22248699I-44194J-44194D01*
G01*
G37*
G36*
G01*
X10375223Y21895146D02*
X10286835Y21806758D01*
G75*
G02*
X10198447Y21806758I-44194J44194D01*
G01*
X9668117Y22337088D01*
G75*
G02*
X9668117Y22425476I44194J44194D01*
G01*
X9756505Y22513864D01*
G75*
G02*
X9844893Y22513864I44194J-44194D01*
G01*
X10375223Y21983534D01*
G75*
G02*
X10375223Y21895146I-44194J-44194D01*
G01*
G37*
G36*
G01*
X10021669Y21541592D02*
X9933281Y21453204D01*
G75*
G02*
X9844893Y21453204I-44194J44194D01*
G01*
X9314563Y21983534D01*
G75*
G02*
X9314563Y22071922I44194J44194D01*
G01*
X9402951Y22160310D01*
G75*
G02*
X9491339Y22160310I44194J-44194D01*
G01*
X10021669Y21629980D01*
G75*
G02*
X10021669Y21541592I-44194J-44194D01*
G01*
G37*
G36*
G01*
X9668116Y21188039D02*
X9579728Y21099651D01*
G75*
G02*
X9491340Y21099651I-44194J44194D01*
G01*
X8961010Y21629981D01*
G75*
G02*
X8961010Y21718369I44194J44194D01*
G01*
X9049398Y21806757D01*
G75*
G02*
X9137786Y21806757I44194J-44194D01*
G01*
X9668116Y21276427D01*
G75*
G02*
X9668116Y21188039I-44194J-44194D01*
G01*
G37*
G36*
G01*
X9314563Y20834486D02*
X9226175Y20746098D01*
G75*
G02*
X9137787Y20746098I-44194J44194D01*
G01*
X8607457Y21276428D01*
G75*
G02*
X8607457Y21364816I44194J44194D01*
G01*
X8695845Y21453204D01*
G75*
G02*
X8784233Y21453204I44194J-44194D01*
G01*
X9314563Y20922874D01*
G75*
G02*
X9314563Y20834486I-44194J-44194D01*
G01*
G37*
G36*
G01*
X8961009Y20480932D02*
X8872621Y20392544D01*
G75*
G02*
X8784233Y20392544I-44194J44194D01*
G01*
X8253903Y20922874D01*
G75*
G02*
X8253903Y21011262I44194J44194D01*
G01*
X8342291Y21099650D01*
G75*
G02*
X8430679Y21099650I44194J-44194D01*
G01*
X8961009Y20569320D01*
G75*
G02*
X8961009Y20480932I-44194J-44194D01*
G01*
G37*
G36*
G01*
X8607456Y20127379D02*
X8519068Y20038991D01*
G75*
G02*
X8430680Y20038991I-44194J44194D01*
G01*
X7900350Y20569321D01*
G75*
G02*
X7900350Y20657709I44194J44194D01*
G01*
X7988738Y20746097D01*
G75*
G02*
X8077126Y20746097I44194J-44194D01*
G01*
X8607456Y20215767D01*
G75*
G02*
X8607456Y20127379I-44194J-44194D01*
G01*
G37*
G36*
G01*
X8253902Y19773825D02*
X8165514Y19685437D01*
G75*
G02*
X8077126Y19685437I-44194J44194D01*
G01*
X7546796Y20215767D01*
G75*
G02*
X7546796Y20304155I44194J44194D01*
G01*
X7635184Y20392543D01*
G75*
G02*
X7723572Y20392543I44194J-44194D01*
G01*
X8253902Y19862213D01*
G75*
G02*
X8253902Y19773825I-44194J-44194D01*
G01*
G37*
G36*
G01*
X7900349Y19420272D02*
X7811961Y19331884D01*
G75*
G02*
X7723573Y19331884I-44194J44194D01*
G01*
X7193243Y19862214D01*
G75*
G02*
X7193243Y19950602I44194J44194D01*
G01*
X7281631Y20038990D01*
G75*
G02*
X7370019Y20038990I44194J-44194D01*
G01*
X7900349Y19508660D01*
G75*
G02*
X7900349Y19420272I-44194J-44194D01*
G01*
G37*
G36*
G01*
X7546796Y19066719D02*
X7458408Y18978331D01*
G75*
G02*
X7370020Y18978331I-44194J44194D01*
G01*
X6839690Y19508661D01*
G75*
G02*
X6839690Y19597049I44194J44194D01*
G01*
X6928078Y19685437D01*
G75*
G02*
X7016466Y19685437I44194J-44194D01*
G01*
X7546796Y19155107D01*
G75*
G02*
X7546796Y19066719I-44194J-44194D01*
G01*
G37*
G36*
G01*
X7193242Y18713165D02*
X7104854Y18624777D01*
G75*
G02*
X7016466Y18624777I-44194J44194D01*
G01*
X6486136Y19155107D01*
G75*
G02*
X6486136Y19243495I44194J44194D01*
G01*
X6574524Y19331883D01*
G75*
G02*
X6662912Y19331883I44194J-44194D01*
G01*
X7193242Y18801553D01*
G75*
G02*
X7193242Y18713165I-44194J-44194D01*
G01*
G37*
G36*
G01*
X6839689Y18359612D02*
X6751301Y18271224D01*
G75*
G02*
X6662913Y18271224I-44194J44194D01*
G01*
X6132583Y18801554D01*
G75*
G02*
X6132583Y18889942I44194J44194D01*
G01*
X6220971Y18978330D01*
G75*
G02*
X6309359Y18978330I44194J-44194D01*
G01*
X6839689Y18448000D01*
G75*
G02*
X6839689Y18359612I-44194J-44194D01*
G01*
G37*
%TD*%
D19*
%TO.C,U3*%
X21550000Y16600000D03*
X23450000Y16600000D03*
X23450000Y14400000D03*
X22500000Y14400000D03*
X21550000Y14400000D03*
%TD*%
%TO.C,U2*%
G36*
G01*
X22100000Y31162500D02*
X22100000Y31037500D01*
G75*
G02*
X22037500Y30975000I-62500J0D01*
G01*
X21387500Y30975000D01*
G75*
G02*
X21325000Y31037500I0J62500D01*
G01*
X21325000Y31162500D01*
G75*
G02*
X21387500Y31225000I62500J0D01*
G01*
X22037500Y31225000D01*
G75*
G02*
X22100000Y31162500I0J-62500D01*
G01*
G37*
G36*
G01*
X22100000Y31662500D02*
X22100000Y31537500D01*
G75*
G02*
X22037500Y31475000I-62500J0D01*
G01*
X21387500Y31475000D01*
G75*
G02*
X21325000Y31537500I0J62500D01*
G01*
X21325000Y31662500D01*
G75*
G02*
X21387500Y31725000I62500J0D01*
G01*
X22037500Y31725000D01*
G75*
G02*
X22100000Y31662500I0J-62500D01*
G01*
G37*
G36*
G01*
X22100000Y32162500D02*
X22100000Y32037500D01*
G75*
G02*
X22037500Y31975000I-62500J0D01*
G01*
X21387500Y31975000D01*
G75*
G02*
X21325000Y32037500I0J62500D01*
G01*
X21325000Y32162500D01*
G75*
G02*
X21387500Y32225000I62500J0D01*
G01*
X22037500Y32225000D01*
G75*
G02*
X22100000Y32162500I0J-62500D01*
G01*
G37*
G36*
G01*
X22100000Y32662500D02*
X22100000Y32537500D01*
G75*
G02*
X22037500Y32475000I-62500J0D01*
G01*
X21387500Y32475000D01*
G75*
G02*
X21325000Y32537500I0J62500D01*
G01*
X21325000Y32662500D01*
G75*
G02*
X21387500Y32725000I62500J0D01*
G01*
X22037500Y32725000D01*
G75*
G02*
X22100000Y32662500I0J-62500D01*
G01*
G37*
G36*
G01*
X20175000Y32662500D02*
X20175000Y32537500D01*
G75*
G02*
X20112500Y32475000I-62500J0D01*
G01*
X19462500Y32475000D01*
G75*
G02*
X19400000Y32537500I0J62500D01*
G01*
X19400000Y32662500D01*
G75*
G02*
X19462500Y32725000I62500J0D01*
G01*
X20112500Y32725000D01*
G75*
G02*
X20175000Y32662500I0J-62500D01*
G01*
G37*
G36*
G01*
X20175000Y32162500D02*
X20175000Y32037500D01*
G75*
G02*
X20112500Y31975000I-62500J0D01*
G01*
X19462500Y31975000D01*
G75*
G02*
X19400000Y32037500I0J62500D01*
G01*
X19400000Y32162500D01*
G75*
G02*
X19462500Y32225000I62500J0D01*
G01*
X20112500Y32225000D01*
G75*
G02*
X20175000Y32162500I0J-62500D01*
G01*
G37*
G36*
G01*
X20175000Y31662500D02*
X20175000Y31537500D01*
G75*
G02*
X20112500Y31475000I-62500J0D01*
G01*
X19462500Y31475000D01*
G75*
G02*
X19400000Y31537500I0J62500D01*
G01*
X19400000Y31662500D01*
G75*
G02*
X19462500Y31725000I62500J0D01*
G01*
X20112500Y31725000D01*
G75*
G02*
X20175000Y31662500I0J-62500D01*
G01*
G37*
G36*
G01*
X20175000Y31162500D02*
X20175000Y31037500D01*
G75*
G02*
X20112500Y30975000I-62500J0D01*
G01*
X19462500Y30975000D01*
G75*
G02*
X19400000Y31037500I0J62500D01*
G01*
X19400000Y31162500D01*
G75*
G02*
X19462500Y31225000I62500J0D01*
G01*
X20112500Y31225000D01*
G75*
G02*
X20175000Y31162500I0J-62500D01*
G01*
G37*
G36*
G01*
X21015000Y31702500D02*
X21015000Y31347500D01*
G75*
G02*
X20957500Y31290000I-57500J0D01*
G01*
X20842500Y31290000D01*
G75*
G02*
X20785000Y31347500I0J57500D01*
G01*
X20785000Y31702500D01*
G75*
G02*
X20842500Y31760000I57500J0D01*
G01*
X20957500Y31760000D01*
G75*
G02*
X21015000Y31702500I0J-57500D01*
G01*
G37*
G36*
G01*
X21015000Y32352500D02*
X21015000Y31997500D01*
G75*
G02*
X20957500Y31940000I-57500J0D01*
G01*
X20842500Y31940000D01*
G75*
G02*
X20785000Y31997500I0J57500D01*
G01*
X20785000Y32352500D01*
G75*
G02*
X20842500Y32410000I57500J0D01*
G01*
X20957500Y32410000D01*
G75*
G02*
X21015000Y32352500I0J-57500D01*
G01*
G37*
G36*
G01*
X20715000Y31702500D02*
X20715000Y31347500D01*
G75*
G02*
X20657500Y31290000I-57500J0D01*
G01*
X20542500Y31290000D01*
G75*
G02*
X20485000Y31347500I0J57500D01*
G01*
X20485000Y31702500D01*
G75*
G02*
X20542500Y31760000I57500J0D01*
G01*
X20657500Y31760000D01*
G75*
G02*
X20715000Y31702500I0J-57500D01*
G01*
G37*
G36*
G01*
X20715000Y32352500D02*
X20715000Y31997500D01*
G75*
G02*
X20657500Y31940000I-57500J0D01*
G01*
X20542500Y31940000D01*
G75*
G02*
X20485000Y31997500I0J57500D01*
G01*
X20485000Y32352500D01*
G75*
G02*
X20542500Y32410000I57500J0D01*
G01*
X20657500Y32410000D01*
G75*
G02*
X20715000Y32352500I0J-57500D01*
G01*
G37*
%TD*%
%TO.C,U1*%
G36*
G01*
X18765686Y24142463D02*
X18376776Y23753553D01*
G75*
G02*
X18023224Y23753553I-176776J176776D01*
G01*
X17634314Y24142463D01*
G75*
G02*
X17634314Y24496015I176776J176776D01*
G01*
X18023224Y24884925D01*
G75*
G02*
X18376776Y24884925I176776J-176776D01*
G01*
X18765686Y24496015D01*
G75*
G02*
X18765686Y24142463I-176776J-176776D01*
G01*
G37*
G36*
G01*
X17846447Y23223224D02*
X17457537Y22834314D01*
G75*
G02*
X17103985Y22834314I-176776J176776D01*
G01*
X16715075Y23223224D01*
G75*
G02*
X16715075Y23576776I176776J176776D01*
G01*
X17103985Y23965686D01*
G75*
G02*
X17457537Y23965686I176776J-176776D01*
G01*
X17846447Y23576776D01*
G75*
G02*
X17846447Y23223224I-176776J-176776D01*
G01*
G37*
G36*
G01*
X19684925Y23223224D02*
X19296015Y22834314D01*
G75*
G02*
X18942463Y22834314I-176776J176776D01*
G01*
X18553553Y23223224D01*
G75*
G02*
X18553553Y23576776I176776J176776D01*
G01*
X18942463Y23965686D01*
G75*
G02*
X19296015Y23965686I176776J-176776D01*
G01*
X19684925Y23576776D01*
G75*
G02*
X19684925Y23223224I-176776J-176776D01*
G01*
G37*
G36*
G01*
X18765686Y22303985D02*
X18376776Y21915075D01*
G75*
G02*
X18023224Y21915075I-176776J176776D01*
G01*
X17634314Y22303985D01*
G75*
G02*
X17634314Y22657537I176776J176776D01*
G01*
X18023224Y23046447D01*
G75*
G02*
X18376776Y23046447I176776J-176776D01*
G01*
X18765686Y22657537D01*
G75*
G02*
X18765686Y22303985I-176776J-176776D01*
G01*
G37*
G36*
G01*
X18049740Y21305196D02*
X17554765Y20810221D01*
G75*
G02*
X17466377Y20810221I-44194J44194D01*
G01*
X17377988Y20898610D01*
G75*
G02*
X17377988Y20986998I44194J44194D01*
G01*
X17872963Y21481973D01*
G75*
G02*
X17961351Y21481973I44194J-44194D01*
G01*
X18049740Y21393584D01*
G75*
G02*
X18049740Y21305196I-44194J-44194D01*
G01*
G37*
G36*
G01*
X17696187Y21658750D02*
X17201212Y21163775D01*
G75*
G02*
X17112824Y21163775I-44194J44194D01*
G01*
X17024435Y21252164D01*
G75*
G02*
X17024435Y21340552I44194J44194D01*
G01*
X17519410Y21835527D01*
G75*
G02*
X17607798Y21835527I44194J-44194D01*
G01*
X17696187Y21747138D01*
G75*
G02*
X17696187Y21658750I-44194J-44194D01*
G01*
G37*
G36*
G01*
X17342633Y22012303D02*
X16847658Y21517328D01*
G75*
G02*
X16759270Y21517328I-44194J44194D01*
G01*
X16670881Y21605717D01*
G75*
G02*
X16670881Y21694105I44194J44194D01*
G01*
X17165856Y22189080D01*
G75*
G02*
X17254244Y22189080I44194J-44194D01*
G01*
X17342633Y22100691D01*
G75*
G02*
X17342633Y22012303I-44194J-44194D01*
G01*
G37*
G36*
G01*
X16989080Y22365856D02*
X16494105Y21870881D01*
G75*
G02*
X16405717Y21870881I-44194J44194D01*
G01*
X16317328Y21959270D01*
G75*
G02*
X16317328Y22047658I44194J44194D01*
G01*
X16812303Y22542633D01*
G75*
G02*
X16900691Y22542633I44194J-44194D01*
G01*
X16989080Y22454244D01*
G75*
G02*
X16989080Y22365856I-44194J-44194D01*
G01*
G37*
G36*
G01*
X16635527Y22719410D02*
X16140552Y22224435D01*
G75*
G02*
X16052164Y22224435I-44194J44194D01*
G01*
X15963775Y22312824D01*
G75*
G02*
X15963775Y22401212I44194J44194D01*
G01*
X16458750Y22896187D01*
G75*
G02*
X16547138Y22896187I44194J-44194D01*
G01*
X16635527Y22807798D01*
G75*
G02*
X16635527Y22719410I-44194J-44194D01*
G01*
G37*
G36*
G01*
X16281973Y23072963D02*
X15786998Y22577988D01*
G75*
G02*
X15698610Y22577988I-44194J44194D01*
G01*
X15610221Y22666377D01*
G75*
G02*
X15610221Y22754765I44194J44194D01*
G01*
X16105196Y23249740D01*
G75*
G02*
X16193584Y23249740I44194J-44194D01*
G01*
X16281973Y23161351D01*
G75*
G02*
X16281973Y23072963I-44194J-44194D01*
G01*
G37*
G36*
G01*
X16281973Y23638649D02*
X16193584Y23550260D01*
G75*
G02*
X16105196Y23550260I-44194J44194D01*
G01*
X15610221Y24045235D01*
G75*
G02*
X15610221Y24133623I44194J44194D01*
G01*
X15698610Y24222012D01*
G75*
G02*
X15786998Y24222012I44194J-44194D01*
G01*
X16281973Y23727037D01*
G75*
G02*
X16281973Y23638649I-44194J-44194D01*
G01*
G37*
G36*
G01*
X16635527Y23992202D02*
X16547138Y23903813D01*
G75*
G02*
X16458750Y23903813I-44194J44194D01*
G01*
X15963775Y24398788D01*
G75*
G02*
X15963775Y24487176I44194J44194D01*
G01*
X16052164Y24575565D01*
G75*
G02*
X16140552Y24575565I44194J-44194D01*
G01*
X16635527Y24080590D01*
G75*
G02*
X16635527Y23992202I-44194J-44194D01*
G01*
G37*
G36*
G01*
X16989080Y24345756D02*
X16900691Y24257367D01*
G75*
G02*
X16812303Y24257367I-44194J44194D01*
G01*
X16317328Y24752342D01*
G75*
G02*
X16317328Y24840730I44194J44194D01*
G01*
X16405717Y24929119D01*
G75*
G02*
X16494105Y24929119I44194J-44194D01*
G01*
X16989080Y24434144D01*
G75*
G02*
X16989080Y24345756I-44194J-44194D01*
G01*
G37*
G36*
G01*
X17342633Y24699309D02*
X17254244Y24610920D01*
G75*
G02*
X17165856Y24610920I-44194J44194D01*
G01*
X16670881Y25105895D01*
G75*
G02*
X16670881Y25194283I44194J44194D01*
G01*
X16759270Y25282672D01*
G75*
G02*
X16847658Y25282672I44194J-44194D01*
G01*
X17342633Y24787697D01*
G75*
G02*
X17342633Y24699309I-44194J-44194D01*
G01*
G37*
G36*
G01*
X17696187Y25052862D02*
X17607798Y24964473D01*
G75*
G02*
X17519410Y24964473I-44194J44194D01*
G01*
X17024435Y25459448D01*
G75*
G02*
X17024435Y25547836I44194J44194D01*
G01*
X17112824Y25636225D01*
G75*
G02*
X17201212Y25636225I44194J-44194D01*
G01*
X17696187Y25141250D01*
G75*
G02*
X17696187Y25052862I-44194J-44194D01*
G01*
G37*
G36*
G01*
X18049740Y25406416D02*
X17961351Y25318027D01*
G75*
G02*
X17872963Y25318027I-44194J44194D01*
G01*
X17377988Y25813002D01*
G75*
G02*
X17377988Y25901390I44194J44194D01*
G01*
X17466377Y25989779D01*
G75*
G02*
X17554765Y25989779I44194J-44194D01*
G01*
X18049740Y25494804D01*
G75*
G02*
X18049740Y25406416I-44194J-44194D01*
G01*
G37*
G36*
G01*
X19022012Y25813002D02*
X18527037Y25318027D01*
G75*
G02*
X18438649Y25318027I-44194J44194D01*
G01*
X18350260Y25406416D01*
G75*
G02*
X18350260Y25494804I44194J44194D01*
G01*
X18845235Y25989779D01*
G75*
G02*
X18933623Y25989779I44194J-44194D01*
G01*
X19022012Y25901390D01*
G75*
G02*
X19022012Y25813002I-44194J-44194D01*
G01*
G37*
G36*
G01*
X19375565Y25459448D02*
X18880590Y24964473D01*
G75*
G02*
X18792202Y24964473I-44194J44194D01*
G01*
X18703813Y25052862D01*
G75*
G02*
X18703813Y25141250I44194J44194D01*
G01*
X19198788Y25636225D01*
G75*
G02*
X19287176Y25636225I44194J-44194D01*
G01*
X19375565Y25547836D01*
G75*
G02*
X19375565Y25459448I-44194J-44194D01*
G01*
G37*
G36*
G01*
X19729119Y25105895D02*
X19234144Y24610920D01*
G75*
G02*
X19145756Y24610920I-44194J44194D01*
G01*
X19057367Y24699309D01*
G75*
G02*
X19057367Y24787697I44194J44194D01*
G01*
X19552342Y25282672D01*
G75*
G02*
X19640730Y25282672I44194J-44194D01*
G01*
X19729119Y25194283D01*
G75*
G02*
X19729119Y25105895I-44194J-44194D01*
G01*
G37*
G36*
G01*
X20082672Y24752342D02*
X19587697Y24257367D01*
G75*
G02*
X19499309Y24257367I-44194J44194D01*
G01*
X19410920Y24345756D01*
G75*
G02*
X19410920Y24434144I44194J44194D01*
G01*
X19905895Y24929119D01*
G75*
G02*
X19994283Y24929119I44194J-44194D01*
G01*
X20082672Y24840730D01*
G75*
G02*
X20082672Y24752342I-44194J-44194D01*
G01*
G37*
G36*
G01*
X20436225Y24398788D02*
X19941250Y23903813D01*
G75*
G02*
X19852862Y23903813I-44194J44194D01*
G01*
X19764473Y23992202D01*
G75*
G02*
X19764473Y24080590I44194J44194D01*
G01*
X20259448Y24575565D01*
G75*
G02*
X20347836Y24575565I44194J-44194D01*
G01*
X20436225Y24487176D01*
G75*
G02*
X20436225Y24398788I-44194J-44194D01*
G01*
G37*
G36*
G01*
X20789779Y24045235D02*
X20294804Y23550260D01*
G75*
G02*
X20206416Y23550260I-44194J44194D01*
G01*
X20118027Y23638649D01*
G75*
G02*
X20118027Y23727037I44194J44194D01*
G01*
X20613002Y24222012D01*
G75*
G02*
X20701390Y24222012I44194J-44194D01*
G01*
X20789779Y24133623D01*
G75*
G02*
X20789779Y24045235I-44194J-44194D01*
G01*
G37*
G36*
G01*
X20789779Y22666377D02*
X20701390Y22577988D01*
G75*
G02*
X20613002Y22577988I-44194J44194D01*
G01*
X20118027Y23072963D01*
G75*
G02*
X20118027Y23161351I44194J44194D01*
G01*
X20206416Y23249740D01*
G75*
G02*
X20294804Y23249740I44194J-44194D01*
G01*
X20789779Y22754765D01*
G75*
G02*
X20789779Y22666377I-44194J-44194D01*
G01*
G37*
G36*
G01*
X20436225Y22312824D02*
X20347836Y22224435D01*
G75*
G02*
X20259448Y22224435I-44194J44194D01*
G01*
X19764473Y22719410D01*
G75*
G02*
X19764473Y22807798I44194J44194D01*
G01*
X19852862Y22896187D01*
G75*
G02*
X19941250Y22896187I44194J-44194D01*
G01*
X20436225Y22401212D01*
G75*
G02*
X20436225Y22312824I-44194J-44194D01*
G01*
G37*
G36*
G01*
X20082672Y21959270D02*
X19994283Y21870881D01*
G75*
G02*
X19905895Y21870881I-44194J44194D01*
G01*
X19410920Y22365856D01*
G75*
G02*
X19410920Y22454244I44194J44194D01*
G01*
X19499309Y22542633D01*
G75*
G02*
X19587697Y22542633I44194J-44194D01*
G01*
X20082672Y22047658D01*
G75*
G02*
X20082672Y21959270I-44194J-44194D01*
G01*
G37*
G36*
G01*
X19729119Y21605717D02*
X19640730Y21517328D01*
G75*
G02*
X19552342Y21517328I-44194J44194D01*
G01*
X19057367Y22012303D01*
G75*
G02*
X19057367Y22100691I44194J44194D01*
G01*
X19145756Y22189080D01*
G75*
G02*
X19234144Y22189080I44194J-44194D01*
G01*
X19729119Y21694105D01*
G75*
G02*
X19729119Y21605717I-44194J-44194D01*
G01*
G37*
G36*
G01*
X19375565Y21252164D02*
X19287176Y21163775D01*
G75*
G02*
X19198788Y21163775I-44194J44194D01*
G01*
X18703813Y21658750D01*
G75*
G02*
X18703813Y21747138I44194J44194D01*
G01*
X18792202Y21835527D01*
G75*
G02*
X18880590Y21835527I44194J-44194D01*
G01*
X19375565Y21340552D01*
G75*
G02*
X19375565Y21252164I-44194J-44194D01*
G01*
G37*
G36*
G01*
X19022012Y20898610D02*
X18933623Y20810221D01*
G75*
G02*
X18845235Y20810221I-44194J44194D01*
G01*
X18350260Y21305196D01*
G75*
G02*
X18350260Y21393584I44194J44194D01*
G01*
X18438649Y21481973D01*
G75*
G02*
X18527037Y21481973I44194J-44194D01*
G01*
X19022012Y20986998D01*
G75*
G02*
X19022012Y20898610I-44194J-44194D01*
G01*
G37*
%TD*%
%TO.C,R12*%
G36*
G01*
X10225520Y20413891D02*
X9963891Y20675520D01*
G75*
G02*
X9963891Y20866438I95459J95459D01*
G01*
X10154810Y21057357D01*
G75*
G02*
X10345728Y21057357I95459J-95459D01*
G01*
X10607357Y20795728D01*
G75*
G02*
X10607357Y20604810I-95459J-95459D01*
G01*
X10416438Y20413891D01*
G75*
G02*
X10225520Y20413891I-95459J95459D01*
G01*
G37*
G36*
G01*
X9504272Y19692643D02*
X9242643Y19954272D01*
G75*
G02*
X9242643Y20145190I95459J95459D01*
G01*
X9433562Y20336109D01*
G75*
G02*
X9624480Y20336109I95459J-95459D01*
G01*
X9886109Y20074480D01*
G75*
G02*
X9886109Y19883562I-95459J-95459D01*
G01*
X9695190Y19692643D01*
G75*
G02*
X9504272Y19692643I-95459J95459D01*
G01*
G37*
%TD*%
%TO.C,R10*%
G36*
G01*
X8274480Y18986109D02*
X8536109Y18724480D01*
G75*
G02*
X8536109Y18533562I-95459J-95459D01*
G01*
X8345190Y18342643D01*
G75*
G02*
X8154272Y18342643I-95459J95459D01*
G01*
X7892643Y18604272D01*
G75*
G02*
X7892643Y18795190I95459J95459D01*
G01*
X8083562Y18986109D01*
G75*
G02*
X8274480Y18986109I95459J-95459D01*
G01*
G37*
G36*
G01*
X8995728Y19707357D02*
X9257357Y19445728D01*
G75*
G02*
X9257357Y19254810I-95459J-95459D01*
G01*
X9066438Y19063891D01*
G75*
G02*
X8875520Y19063891I-95459J95459D01*
G01*
X8613891Y19325520D01*
G75*
G02*
X8613891Y19516438I95459J95459D01*
G01*
X8804810Y19707357D01*
G75*
G02*
X8995728Y19707357I95459J-95459D01*
G01*
G37*
%TD*%
%TO.C,R8*%
G36*
G01*
X15400520Y21238891D02*
X15138891Y21500520D01*
G75*
G02*
X15138891Y21691438I95459J95459D01*
G01*
X15329810Y21882357D01*
G75*
G02*
X15520728Y21882357I95459J-95459D01*
G01*
X15782357Y21620728D01*
G75*
G02*
X15782357Y21429810I-95459J-95459D01*
G01*
X15591438Y21238891D01*
G75*
G02*
X15400520Y21238891I-95459J95459D01*
G01*
G37*
G36*
G01*
X14679272Y20517643D02*
X14417643Y20779272D01*
G75*
G02*
X14417643Y20970190I95459J95459D01*
G01*
X14608562Y21161109D01*
G75*
G02*
X14799480Y21161109I95459J-95459D01*
G01*
X15061109Y20899480D01*
G75*
G02*
X15061109Y20708562I-95459J-95459D01*
G01*
X14870190Y20517643D01*
G75*
G02*
X14679272Y20517643I-95459J95459D01*
G01*
G37*
%TD*%
%TO.C,R7*%
G36*
G01*
X14700520Y21938891D02*
X14438891Y22200520D01*
G75*
G02*
X14438891Y22391438I95459J95459D01*
G01*
X14629810Y22582357D01*
G75*
G02*
X14820728Y22582357I95459J-95459D01*
G01*
X15082357Y22320728D01*
G75*
G02*
X15082357Y22129810I-95459J-95459D01*
G01*
X14891438Y21938891D01*
G75*
G02*
X14700520Y21938891I-95459J95459D01*
G01*
G37*
G36*
G01*
X13979272Y21217643D02*
X13717643Y21479272D01*
G75*
G02*
X13717643Y21670190I95459J95459D01*
G01*
X13908562Y21861109D01*
G75*
G02*
X14099480Y21861109I95459J-95459D01*
G01*
X14361109Y21599480D01*
G75*
G02*
X14361109Y21408562I-95459J-95459D01*
G01*
X14170190Y21217643D01*
G75*
G02*
X13979272Y21217643I-95459J95459D01*
G01*
G37*
%TD*%
%TO.C,R5*%
G36*
G01*
X20675520Y26288891D02*
X20413891Y26550520D01*
G75*
G02*
X20413891Y26741438I95459J95459D01*
G01*
X20604810Y26932357D01*
G75*
G02*
X20795728Y26932357I95459J-95459D01*
G01*
X21057357Y26670728D01*
G75*
G02*
X21057357Y26479810I-95459J-95459D01*
G01*
X20866438Y26288891D01*
G75*
G02*
X20675520Y26288891I-95459J95459D01*
G01*
G37*
G36*
G01*
X19954272Y25567643D02*
X19692643Y25829272D01*
G75*
G02*
X19692643Y26020190I95459J95459D01*
G01*
X19883562Y26211109D01*
G75*
G02*
X20074480Y26211109I95459J-95459D01*
G01*
X20336109Y25949480D01*
G75*
G02*
X20336109Y25758562I-95459J-95459D01*
G01*
X20145190Y25567643D01*
G75*
G02*
X19954272Y25567643I-95459J95459D01*
G01*
G37*
%TD*%
%TO.C,R4*%
G36*
G01*
X16840000Y16135000D02*
X17210000Y16135000D01*
G75*
G02*
X17345000Y16000000I0J-135000D01*
G01*
X17345000Y15730000D01*
G75*
G02*
X17210000Y15595000I-135000J0D01*
G01*
X16840000Y15595000D01*
G75*
G02*
X16705000Y15730000I0J135000D01*
G01*
X16705000Y16000000D01*
G75*
G02*
X16840000Y16135000I135000J0D01*
G01*
G37*
G36*
G01*
X16840000Y17155000D02*
X17210000Y17155000D01*
G75*
G02*
X17345000Y17020000I0J-135000D01*
G01*
X17345000Y16750000D01*
G75*
G02*
X17210000Y16615000I-135000J0D01*
G01*
X16840000Y16615000D01*
G75*
G02*
X16705000Y16750000I0J135000D01*
G01*
X16705000Y17020000D01*
G75*
G02*
X16840000Y17155000I135000J0D01*
G01*
G37*
%TD*%
%TO.C,R3*%
G36*
G01*
X12790000Y16135000D02*
X13160000Y16135000D01*
G75*
G02*
X13295000Y16000000I0J-135000D01*
G01*
X13295000Y15730000D01*
G75*
G02*
X13160000Y15595000I-135000J0D01*
G01*
X12790000Y15595000D01*
G75*
G02*
X12655000Y15730000I0J135000D01*
G01*
X12655000Y16000000D01*
G75*
G02*
X12790000Y16135000I135000J0D01*
G01*
G37*
G36*
G01*
X12790000Y17155000D02*
X13160000Y17155000D01*
G75*
G02*
X13295000Y17020000I0J-135000D01*
G01*
X13295000Y16750000D01*
G75*
G02*
X13160000Y16615000I-135000J0D01*
G01*
X12790000Y16615000D01*
G75*
G02*
X12655000Y16750000I0J135000D01*
G01*
X12655000Y17020000D01*
G75*
G02*
X12790000Y17155000I135000J0D01*
G01*
G37*
%TD*%
%TO.C,R2*%
G36*
G01*
X22025520Y24938891D02*
X21763891Y25200520D01*
G75*
G02*
X21763891Y25391438I95459J95459D01*
G01*
X21954810Y25582357D01*
G75*
G02*
X22145728Y25582357I95459J-95459D01*
G01*
X22407357Y25320728D01*
G75*
G02*
X22407357Y25129810I-95459J-95459D01*
G01*
X22216438Y24938891D01*
G75*
G02*
X22025520Y24938891I-95459J95459D01*
G01*
G37*
G36*
G01*
X21304272Y24217643D02*
X21042643Y24479272D01*
G75*
G02*
X21042643Y24670190I95459J95459D01*
G01*
X21233562Y24861109D01*
G75*
G02*
X21424480Y24861109I95459J-95459D01*
G01*
X21686109Y24599480D01*
G75*
G02*
X21686109Y24408562I-95459J-95459D01*
G01*
X21495190Y24217643D01*
G75*
G02*
X21304272Y24217643I-95459J95459D01*
G01*
G37*
%TD*%
%TO.C,R1*%
G36*
G01*
X21350520Y25613891D02*
X21088891Y25875520D01*
G75*
G02*
X21088891Y26066438I95459J95459D01*
G01*
X21279810Y26257357D01*
G75*
G02*
X21470728Y26257357I95459J-95459D01*
G01*
X21732357Y25995728D01*
G75*
G02*
X21732357Y25804810I-95459J-95459D01*
G01*
X21541438Y25613891D01*
G75*
G02*
X21350520Y25613891I-95459J95459D01*
G01*
G37*
G36*
G01*
X20629272Y24892643D02*
X20367643Y25154272D01*
G75*
G02*
X20367643Y25345190I95459J95459D01*
G01*
X20558562Y25536109D01*
G75*
G02*
X20749480Y25536109I95459J-95459D01*
G01*
X21011109Y25274480D01*
G75*
G02*
X21011109Y25083562I-95459J-95459D01*
G01*
X20820190Y24892643D01*
G75*
G02*
X20629272Y24892643I-95459J95459D01*
G01*
G37*
%TD*%
D20*
%TO.C,J1*%
X14750000Y14045000D03*
X16750000Y14045000D03*
X16250000Y14045000D03*
X15750000Y14045000D03*
X15250000Y14045000D03*
X14250000Y14045000D03*
X13750000Y14045000D03*
X13250000Y14045000D03*
D21*
X18200000Y14045000D03*
X17400000Y14045000D03*
X12600000Y14045000D03*
X11800000Y14045000D03*
X11800000Y14045000D03*
X12600000Y14045000D03*
X17400000Y14045000D03*
X18200000Y14045000D03*
%TD*%
D22*
%TO.C,D3*%
X18300000Y15900000D03*
X18300000Y17300000D03*
%TD*%
%TO.C,D2*%
X14250000Y15900000D03*
X14250000Y17300000D03*
%TD*%
%TO.C,D1*%
X15750000Y15900000D03*
X15750000Y17300000D03*
%TD*%
%TO.C,C13*%
G36*
G01*
X8988371Y18328787D02*
X9228787Y18088371D01*
G75*
G02*
X9228787Y17890381I-98995J-98995D01*
G01*
X9030797Y17692391D01*
G75*
G02*
X8832807Y17692391I-98995J98995D01*
G01*
X8592391Y17932807D01*
G75*
G02*
X8592391Y18130797I98995J98995D01*
G01*
X8790381Y18328787D01*
G75*
G02*
X8988371Y18328787I98995J-98995D01*
G01*
G37*
G36*
G01*
X9667193Y19007609D02*
X9907609Y18767193D01*
G75*
G02*
X9907609Y18569203I-98995J-98995D01*
G01*
X9709619Y18371213D01*
G75*
G02*
X9511629Y18371213I-98995J98995D01*
G01*
X9271213Y18611629D01*
G75*
G02*
X9271213Y18809619I98995J98995D01*
G01*
X9469203Y19007609D01*
G75*
G02*
X9667193Y19007609I98995J-98995D01*
G01*
G37*
%TD*%
%TO.C,C11*%
G36*
G01*
X10338371Y19678787D02*
X10578787Y19438371D01*
G75*
G02*
X10578787Y19240381I-98995J-98995D01*
G01*
X10380797Y19042391D01*
G75*
G02*
X10182807Y19042391I-98995J98995D01*
G01*
X9942391Y19282807D01*
G75*
G02*
X9942391Y19480797I98995J98995D01*
G01*
X10140381Y19678787D01*
G75*
G02*
X10338371Y19678787I98995J-98995D01*
G01*
G37*
G36*
G01*
X11017193Y20357609D02*
X11257609Y20117193D01*
G75*
G02*
X11257609Y19919203I-98995J-98995D01*
G01*
X11059619Y19721213D01*
G75*
G02*
X10861629Y19721213I-98995J98995D01*
G01*
X10621213Y19961629D01*
G75*
G02*
X10621213Y20159619I98995J98995D01*
G01*
X10819203Y20357609D01*
G75*
G02*
X11017193Y20357609I98995J-98995D01*
G01*
G37*
%TD*%
%TO.C,C8*%
G36*
G01*
X23500000Y31930000D02*
X23500000Y32270000D01*
G75*
G02*
X23640000Y32410000I140000J0D01*
G01*
X23920000Y32410000D01*
G75*
G02*
X24060000Y32270000I0J-140000D01*
G01*
X24060000Y31930000D01*
G75*
G02*
X23920000Y31790000I-140000J0D01*
G01*
X23640000Y31790000D01*
G75*
G02*
X23500000Y31930000I0J140000D01*
G01*
G37*
G36*
G01*
X22540000Y31930000D02*
X22540000Y32270000D01*
G75*
G02*
X22680000Y32410000I140000J0D01*
G01*
X22960000Y32410000D01*
G75*
G02*
X23100000Y32270000I0J-140000D01*
G01*
X23100000Y31930000D01*
G75*
G02*
X22960000Y31790000I-140000J0D01*
G01*
X22680000Y31790000D01*
G75*
G02*
X22540000Y31930000I0J140000D01*
G01*
G37*
%TD*%
%TO.C,C4*%
G36*
G01*
X23436629Y18421213D02*
X23196213Y18661629D01*
G75*
G02*
X23196213Y18859619I98995J98995D01*
G01*
X23394203Y19057609D01*
G75*
G02*
X23592193Y19057609I98995J-98995D01*
G01*
X23832609Y18817193D01*
G75*
G02*
X23832609Y18619203I-98995J-98995D01*
G01*
X23634619Y18421213D01*
G75*
G02*
X23436629Y18421213I-98995J98995D01*
G01*
G37*
G36*
G01*
X22757807Y17742391D02*
X22517391Y17982807D01*
G75*
G02*
X22517391Y18180797I98995J98995D01*
G01*
X22715381Y18378787D01*
G75*
G02*
X22913371Y18378787I98995J-98995D01*
G01*
X23153787Y18138371D01*
G75*
G02*
X23153787Y17940381I-98995J-98995D01*
G01*
X22955797Y17742391D01*
G75*
G02*
X22757807Y17742391I-98995J98995D01*
G01*
G37*
%TD*%
%TO.C,C3*%
G36*
G01*
X17450000Y31930000D02*
X17450000Y32270000D01*
G75*
G02*
X17590000Y32410000I140000J0D01*
G01*
X17870000Y32410000D01*
G75*
G02*
X18010000Y32270000I0J-140000D01*
G01*
X18010000Y31930000D01*
G75*
G02*
X17870000Y31790000I-140000J0D01*
G01*
X17590000Y31790000D01*
G75*
G02*
X17450000Y31930000I0J140000D01*
G01*
G37*
G36*
G01*
X16490000Y31930000D02*
X16490000Y32270000D01*
G75*
G02*
X16630000Y32410000I140000J0D01*
G01*
X16910000Y32410000D01*
G75*
G02*
X17050000Y32270000I0J-140000D01*
G01*
X17050000Y31930000D01*
G75*
G02*
X16910000Y31790000I-140000J0D01*
G01*
X16630000Y31790000D01*
G75*
G02*
X16490000Y31930000I0J140000D01*
G01*
G37*
%TD*%
%TO.C,C2*%
G36*
G01*
X21571213Y21488371D02*
X21811629Y21728787D01*
G75*
G02*
X22009619Y21728787I98995J-98995D01*
G01*
X22207609Y21530797D01*
G75*
G02*
X22207609Y21332807I-98995J-98995D01*
G01*
X21967193Y21092391D01*
G75*
G02*
X21769203Y21092391I-98995J98995D01*
G01*
X21571213Y21290381D01*
G75*
G02*
X21571213Y21488371I98995J98995D01*
G01*
G37*
G36*
G01*
X20892391Y22167193D02*
X21132807Y22407609D01*
G75*
G02*
X21330797Y22407609I98995J-98995D01*
G01*
X21528787Y22209619D01*
G75*
G02*
X21528787Y22011629I-98995J-98995D01*
G01*
X21288371Y21771213D01*
G75*
G02*
X21090381Y21771213I-98995J98995D01*
G01*
X20892391Y21969203D01*
G75*
G02*
X20892391Y22167193I98995J98995D01*
G01*
G37*
%TD*%
%TO.C,C1*%
G36*
G01*
X22246213Y22163371D02*
X22486629Y22403787D01*
G75*
G02*
X22684619Y22403787I98995J-98995D01*
G01*
X22882609Y22205797D01*
G75*
G02*
X22882609Y22007807I-98995J-98995D01*
G01*
X22642193Y21767391D01*
G75*
G02*
X22444203Y21767391I-98995J98995D01*
G01*
X22246213Y21965381D01*
G75*
G02*
X22246213Y22163371I98995J98995D01*
G01*
G37*
G36*
G01*
X21567391Y22842193D02*
X21807807Y23082609D01*
G75*
G02*
X22005797Y23082609I98995J-98995D01*
G01*
X22203787Y22884619D01*
G75*
G02*
X22203787Y22686629I-98995J-98995D01*
G01*
X21963371Y22446213D01*
G75*
G02*
X21765381Y22446213I-98995J98995D01*
G01*
X21567391Y22644203D01*
G75*
G02*
X21567391Y22842193I98995J98995D01*
G01*
G37*
%TD*%
M02*
