%TF.GenerationSoftware,KiCad,Pcbnew,(5.1.12-1-10_14)*%
%TF.CreationDate,2022-04-30T16:01:42+08:00*%
%TF.ProjectId,DeerMon,44656572-4d6f-46e2-9e6b-696361645f70,V1.2*%
%TF.SameCoordinates,Original*%
%TF.FileFunction,Legend,Bot*%
%TF.FilePolarity,Positive*%
%FSLAX46Y46*%
G04 Gerber Fmt 4.6, Leading zero omitted, Abs format (unit mm)*
G04 Created by KiCad (PCBNEW (5.1.12-1-10_14)) date 2022-04-30 16:01:42*
%MOMM*%
%LPD*%
G01*
G04 APERTURE LIST*
%ADD10C,0.120000*%
%ADD11C,0.150000*%
G04 APERTURE END LIST*
D10*
X1942857Y35285715D02*
X1980952Y35171429D01*
X2019047Y35133334D01*
X2095238Y35095239D01*
X2209523Y35095239D01*
X2285714Y35133334D01*
X2323809Y35171429D01*
X2361904Y35247620D01*
X2361904Y35552381D01*
X1561904Y35552381D01*
X1561904Y35285715D01*
X1600000Y35209524D01*
X1638095Y35171429D01*
X1714285Y35133334D01*
X1790476Y35133334D01*
X1866666Y35171429D01*
X1904761Y35209524D01*
X1942857Y35285715D01*
X1942857Y35552381D01*
X1561904Y34600000D02*
X1561904Y34447620D01*
X1600000Y34371429D01*
X1676190Y34295239D01*
X1828571Y34257143D01*
X2095238Y34257143D01*
X2247619Y34295239D01*
X2323809Y34371429D01*
X2361904Y34447620D01*
X2361904Y34600000D01*
X2323809Y34676191D01*
X2247619Y34752381D01*
X2095238Y34790477D01*
X1828571Y34790477D01*
X1676190Y34752381D01*
X1600000Y34676191D01*
X1561904Y34600000D01*
X1561904Y33761905D02*
X1561904Y33609524D01*
X1600000Y33533334D01*
X1676190Y33457143D01*
X1828571Y33419048D01*
X2095238Y33419048D01*
X2247619Y33457143D01*
X2323809Y33533334D01*
X2361904Y33609524D01*
X2361904Y33761905D01*
X2323809Y33838096D01*
X2247619Y33914286D01*
X2095238Y33952381D01*
X1828571Y33952381D01*
X1676190Y33914286D01*
X1600000Y33838096D01*
X1561904Y33761905D01*
X1561904Y33190477D02*
X1561904Y32733334D01*
X2361904Y32961905D02*
X1561904Y32961905D01*
X28057142Y33659524D02*
X28057142Y33926191D01*
X27638095Y34040477D02*
X27638095Y33659524D01*
X28438095Y33659524D01*
X28438095Y34040477D01*
X27638095Y34383334D02*
X28438095Y34383334D01*
X27638095Y34840477D01*
X28438095Y34840477D01*
X21850571Y13098096D02*
X22231523Y13098096D01*
X22269619Y12717143D01*
X22231523Y12755239D01*
X22155333Y12793334D01*
X21964857Y12793334D01*
X21888666Y12755239D01*
X21850571Y12717143D01*
X21812476Y12640953D01*
X21812476Y12450477D01*
X21850571Y12374286D01*
X21888666Y12336191D01*
X21964857Y12298096D01*
X22155333Y12298096D01*
X22231523Y12336191D01*
X22269619Y12374286D01*
X21583904Y13098096D02*
X21317238Y12298096D01*
X21050571Y13098096D01*
X22307714Y11778096D02*
X21812476Y11778096D01*
X22079142Y11473334D01*
X21964857Y11473334D01*
X21888666Y11435239D01*
X21850571Y11397143D01*
X21812476Y11320953D01*
X21812476Y11130477D01*
X21850571Y11054286D01*
X21888666Y11016191D01*
X21964857Y10978096D01*
X22193428Y10978096D01*
X22269619Y11016191D01*
X22307714Y11054286D01*
X21583904Y11778096D02*
X21317238Y10978096D01*
X21050571Y11778096D01*
X20860095Y11778096D02*
X20364857Y11778096D01*
X20631523Y11473334D01*
X20517238Y11473334D01*
X20441047Y11435239D01*
X20402952Y11397143D01*
X20364857Y11320953D01*
X20364857Y11130477D01*
X20402952Y11054286D01*
X20441047Y11016191D01*
X20517238Y10978096D01*
X20745809Y10978096D01*
X20822000Y11016191D01*
X20860095Y11054286D01*
X22022000Y29705000D02*
X21922000Y29668334D01*
X21888666Y29631667D01*
X21855333Y29558334D01*
X21855333Y29448334D01*
X21888666Y29375000D01*
X21922000Y29338334D01*
X21988666Y29301667D01*
X22255333Y29301667D01*
X22255333Y30071667D01*
X22022000Y30071667D01*
X21955333Y30035000D01*
X21922000Y29998334D01*
X21888666Y29925000D01*
X21888666Y29851667D01*
X21922000Y29778334D01*
X21955333Y29741667D01*
X22022000Y29705000D01*
X22255333Y29705000D01*
X21422000Y30071667D02*
X21288666Y30071667D01*
X21222000Y30035000D01*
X21155333Y29961667D01*
X21122000Y29815000D01*
X21122000Y29558334D01*
X21155333Y29411667D01*
X21222000Y29338334D01*
X21288666Y29301667D01*
X21422000Y29301667D01*
X21488666Y29338334D01*
X21555333Y29411667D01*
X21588666Y29558334D01*
X21588666Y29815000D01*
X21555333Y29961667D01*
X21488666Y30035000D01*
X21422000Y30071667D01*
X20688666Y30071667D02*
X20555333Y30071667D01*
X20488666Y30035000D01*
X20422000Y29961667D01*
X20388666Y29815000D01*
X20388666Y29558334D01*
X20422000Y29411667D01*
X20488666Y29338334D01*
X20555333Y29301667D01*
X20688666Y29301667D01*
X20755333Y29338334D01*
X20822000Y29411667D01*
X20855333Y29558334D01*
X20855333Y29815000D01*
X20822000Y29961667D01*
X20755333Y30035000D01*
X20688666Y30071667D01*
X20188666Y30071667D02*
X19788666Y30071667D01*
X19988666Y29301667D02*
X19988666Y30071667D01*
X21222000Y27448334D02*
X21188666Y27485000D01*
X21122000Y27521667D01*
X20955333Y27521667D01*
X20888666Y27485000D01*
X20855333Y27448334D01*
X20822000Y27375000D01*
X20822000Y27301667D01*
X20855333Y27191667D01*
X21255333Y26751667D01*
X20822000Y26751667D01*
X20222000Y27521667D02*
X20355333Y27521667D01*
X20422000Y27485000D01*
X20455333Y27448334D01*
X20522000Y27338334D01*
X20555333Y27191667D01*
X20555333Y26898334D01*
X20522000Y26825000D01*
X20488666Y26788334D01*
X20422000Y26751667D01*
X20288666Y26751667D01*
X20222000Y26788334D01*
X20188666Y26825000D01*
X20155333Y26898334D01*
X20155333Y27081667D01*
X20188666Y27155000D01*
X20222000Y27191667D01*
X20288666Y27228334D01*
X20422000Y27228334D01*
X20488666Y27191667D01*
X20522000Y27155000D01*
X20555333Y27081667D01*
X22322000Y24971667D02*
X21888666Y24971667D01*
X22122000Y24678334D01*
X22022000Y24678334D01*
X21955333Y24641667D01*
X21922000Y24605000D01*
X21888666Y24531667D01*
X21888666Y24348334D01*
X21922000Y24275000D01*
X21955333Y24238334D01*
X22022000Y24201667D01*
X22222000Y24201667D01*
X22288666Y24238334D01*
X22322000Y24275000D01*
X21655333Y24971667D02*
X21222000Y24971667D01*
X21455333Y24678334D01*
X21355333Y24678334D01*
X21288666Y24641667D01*
X21255333Y24605000D01*
X21222000Y24531667D01*
X21222000Y24348334D01*
X21255333Y24275000D01*
X21288666Y24238334D01*
X21355333Y24201667D01*
X21555333Y24201667D01*
X21622000Y24238334D01*
X21655333Y24275000D01*
X22322000Y22421667D02*
X21888666Y22421667D01*
X22122000Y22128334D01*
X22022000Y22128334D01*
X21955333Y22091667D01*
X21922000Y22055000D01*
X21888666Y21981667D01*
X21888666Y21798334D01*
X21922000Y21725000D01*
X21955333Y21688334D01*
X22022000Y21651667D01*
X22222000Y21651667D01*
X22288666Y21688334D01*
X22322000Y21725000D01*
X21255333Y22421667D02*
X21588666Y22421667D01*
X21622000Y22055000D01*
X21588666Y22091667D01*
X21522000Y22128334D01*
X21355333Y22128334D01*
X21288666Y22091667D01*
X21255333Y22055000D01*
X21222000Y21981667D01*
X21222000Y21798334D01*
X21255333Y21725000D01*
X21288666Y21688334D01*
X21355333Y21651667D01*
X21522000Y21651667D01*
X21588666Y21688334D01*
X21622000Y21725000D01*
X21922000Y19871667D02*
X22255333Y19871667D01*
X22288666Y19505000D01*
X22255333Y19541667D01*
X22188666Y19578334D01*
X22022000Y19578334D01*
X21955333Y19541667D01*
X21922000Y19505000D01*
X21888666Y19431667D01*
X21888666Y19248334D01*
X21922000Y19175000D01*
X21955333Y19138334D01*
X22022000Y19101667D01*
X22188666Y19101667D01*
X22255333Y19138334D01*
X22288666Y19175000D01*
X21888666Y17285000D02*
X21955333Y17321667D01*
X22055333Y17321667D01*
X22155333Y17285000D01*
X22222000Y17211667D01*
X22255333Y17138334D01*
X22288666Y16991667D01*
X22288666Y16881667D01*
X22255333Y16735000D01*
X22222000Y16661667D01*
X22155333Y16588334D01*
X22055333Y16551667D01*
X21988666Y16551667D01*
X21888666Y16588334D01*
X21855333Y16625000D01*
X21855333Y16881667D01*
X21988666Y16881667D01*
X22355333Y14771667D02*
X21955333Y14771667D01*
X22155333Y14001667D02*
X22155333Y14771667D01*
X21788666Y14771667D02*
X21322000Y14001667D01*
X21322000Y14771667D02*
X21788666Y14001667D01*
X23955333Y29705000D02*
X23722000Y29705000D01*
X23622000Y29301667D02*
X23955333Y29301667D01*
X23955333Y30071667D01*
X23622000Y30071667D01*
X23322000Y29301667D02*
X23322000Y30071667D01*
X22922000Y29301667D01*
X22922000Y30071667D01*
X23988666Y27448334D02*
X23955333Y27485000D01*
X23888666Y27521667D01*
X23722000Y27521667D01*
X23655333Y27485000D01*
X23622000Y27448334D01*
X23588666Y27375000D01*
X23588666Y27301667D01*
X23622000Y27191667D01*
X24022000Y26751667D01*
X23588666Y26751667D01*
X23355333Y27521667D02*
X22888666Y27521667D01*
X23188666Y26751667D01*
X23988666Y24898334D02*
X23955333Y24935000D01*
X23888666Y24971667D01*
X23722000Y24971667D01*
X23655333Y24935000D01*
X23622000Y24898334D01*
X23588666Y24825000D01*
X23588666Y24751667D01*
X23622000Y24641667D01*
X24022000Y24201667D01*
X23588666Y24201667D01*
X22955333Y24971667D02*
X23288666Y24971667D01*
X23322000Y24605000D01*
X23288666Y24641667D01*
X23222000Y24678334D01*
X23055333Y24678334D01*
X22988666Y24641667D01*
X22955333Y24605000D01*
X22922000Y24531667D01*
X22922000Y24348334D01*
X22955333Y24275000D01*
X22988666Y24238334D01*
X23055333Y24201667D01*
X23222000Y24201667D01*
X23288666Y24238334D01*
X23322000Y24275000D01*
X24022000Y22421667D02*
X23588666Y22421667D01*
X23822000Y22128334D01*
X23722000Y22128334D01*
X23655333Y22091667D01*
X23622000Y22055000D01*
X23588666Y21981667D01*
X23588666Y21798334D01*
X23622000Y21725000D01*
X23655333Y21688334D01*
X23722000Y21651667D01*
X23922000Y21651667D01*
X23988666Y21688334D01*
X24022000Y21725000D01*
X23322000Y22348334D02*
X23288666Y22385000D01*
X23222000Y22421667D01*
X23055333Y22421667D01*
X22988666Y22385000D01*
X22955333Y22348334D01*
X22922000Y22275000D01*
X22922000Y22201667D01*
X22955333Y22091667D01*
X23355333Y21651667D01*
X22922000Y21651667D01*
X24022000Y19871667D02*
X23588666Y19871667D01*
X23822000Y19578334D01*
X23722000Y19578334D01*
X23655333Y19541667D01*
X23622000Y19505000D01*
X23588666Y19431667D01*
X23588666Y19248334D01*
X23622000Y19175000D01*
X23655333Y19138334D01*
X23722000Y19101667D01*
X23922000Y19101667D01*
X23988666Y19138334D01*
X24022000Y19175000D01*
X22988666Y19615000D02*
X22988666Y19101667D01*
X23155333Y19908334D02*
X23322000Y19358334D01*
X22888666Y19358334D01*
X23588666Y17285000D02*
X23655333Y17321667D01*
X23755333Y17321667D01*
X23855333Y17285000D01*
X23922000Y17211667D01*
X23955333Y17138334D01*
X23988666Y16991667D01*
X23988666Y16881667D01*
X23955333Y16735000D01*
X23922000Y16661667D01*
X23855333Y16588334D01*
X23755333Y16551667D01*
X23688666Y16551667D01*
X23588666Y16588334D01*
X23555333Y16625000D01*
X23555333Y16881667D01*
X23688666Y16881667D01*
X23555333Y14001667D02*
X23788666Y14368334D01*
X23955333Y14001667D02*
X23955333Y14771667D01*
X23688666Y14771667D01*
X23622000Y14735000D01*
X23588666Y14698334D01*
X23555333Y14625000D01*
X23555333Y14515000D01*
X23588666Y14441667D01*
X23622000Y14405000D01*
X23688666Y14368334D01*
X23955333Y14368334D01*
X23322000Y14771667D02*
X22855333Y14001667D01*
X22855333Y14771667D02*
X23322000Y14001667D01*
X23588666Y12185000D02*
X23655333Y12221667D01*
X23755333Y12221667D01*
X23855333Y12185000D01*
X23922000Y12111667D01*
X23955333Y12038334D01*
X23988666Y11891667D01*
X23988666Y11781667D01*
X23955333Y11635000D01*
X23922000Y11561667D01*
X23855333Y11488334D01*
X23755333Y11451667D01*
X23688666Y11451667D01*
X23588666Y11488334D01*
X23555333Y11525000D01*
X23555333Y11781667D01*
X23688666Y11781667D01*
X23588666Y9635000D02*
X23655333Y9671667D01*
X23755333Y9671667D01*
X23855333Y9635000D01*
X23922000Y9561667D01*
X23955333Y9488334D01*
X23988666Y9341667D01*
X23988666Y9231667D01*
X23955333Y9085000D01*
X23922000Y9011667D01*
X23855333Y8938334D01*
X23755333Y8901667D01*
X23688666Y8901667D01*
X23588666Y8938334D01*
X23555333Y8975000D01*
X23555333Y9231667D01*
X23688666Y9231667D01*
%TO.C,BZ1*%
X18212993Y28287006D02*
G75*
G03*
X18212993Y28287006I-6099999J0D01*
G01*
%TO.C,J3*%
X28250000Y7970000D02*
X29580000Y7970000D01*
X29580000Y7970000D02*
X29580000Y9300000D01*
X26980000Y7970000D02*
X26980000Y10570000D01*
X26980000Y10570000D02*
X29580000Y10570000D01*
X29580000Y10570000D02*
X29580000Y30950000D01*
X24380000Y30950000D02*
X29580000Y30950000D01*
X24380000Y7970000D02*
X24380000Y30950000D01*
X24380000Y7970000D02*
X26980000Y7970000D01*
%TO.C,BZ1*%
D11*
X16821988Y27069099D02*
X16283240Y27607847D01*
X16283240Y27069099D02*
X16821988Y27607847D01*
%TD*%
M02*
