M48
; DRILL file {KiCad (5.1.12-1-10_14)} date Thursday, 24 March 2022 at 13:22:14
; FORMAT={-:-/ absolute / metric / decimal}
; #@! TF.CreationDate,2022-03-24T13:22:14+08:00
; #@! TF.GenerationSoftware,Kicad,Pcbnew,(5.1.12-1-10_14)
; #@! TF.FileFunction,NonPlated,1,4,NPTH
FMAT,2
METRIC
T1C0.500
T2C0.650
T3C1.200
T4C2.000
%
G90
G05
T1
X5.0Y7.5
X5.5Y37.5
X6.0Y7.5
X6.5Y37.5
X7.0Y7.5
X7.5Y37.5
X8.0Y7.5
X8.5Y37.5
X9.0Y7.5
X9.5Y37.5
X20.5Y37.5
X21.0Y7.5
X21.5Y37.5
X22.0Y7.5
X22.5Y37.5
X23.0Y7.5
X23.5Y37.5
X24.0Y7.5
X24.5Y37.5
X25.0Y7.5
T2
X12.1Y12.6
X17.9Y12.6
T3
X6.5Y35.0
X8.25Y9.5
X21.75Y9.5
X23.5Y35.0
T4
X2.5Y42.5
X2.5Y2.5
X12.5Y42.5
X27.5Y42.5
X27.5Y2.5
T0
M30
