%TF.GenerationSoftware,KiCad,Pcbnew,(5.1.12-1-10_14)*%
%TF.CreationDate,2022-03-11T17:20:58+08:00*%
%TF.ProjectId,DeerMon,44656572-4d6f-46e2-9e6b-696361645f70,rev?*%
%TF.SameCoordinates,Original*%
%TF.FileFunction,Copper,L3,Inr*%
%TF.FilePolarity,Positive*%
%FSLAX46Y46*%
G04 Gerber Fmt 4.6, Leading zero omitted, Abs format (unit mm)*
G04 Created by KiCad (PCBNEW (5.1.12-1-10_14)) date 2022-03-11 17:20:58*
%MOMM*%
%LPD*%
G01*
G04 APERTURE LIST*
%TA.AperFunction,ComponentPad*%
%ADD10C,2.000000*%
%TD*%
%TA.AperFunction,ComponentPad*%
%ADD11O,1.700000X1.700000*%
%TD*%
%TA.AperFunction,ComponentPad*%
%ADD12R,1.700000X1.700000*%
%TD*%
%TA.AperFunction,ComponentPad*%
%ADD13C,1.100000*%
%TD*%
%TA.AperFunction,ComponentPad*%
%ADD14C,0.500000*%
%TD*%
%TA.AperFunction,ViaPad*%
%ADD15C,0.500000*%
%TD*%
%TA.AperFunction,ViaPad*%
%ADD16C,0.800000*%
%TD*%
%TA.AperFunction,ViaPad*%
%ADD17C,0.700000*%
%TD*%
%TA.AperFunction,Conductor*%
%ADD18C,0.500000*%
%TD*%
%TA.AperFunction,Conductor*%
%ADD19C,0.600000*%
%TD*%
%TA.AperFunction,Conductor*%
%ADD20C,0.350000*%
%TD*%
%TA.AperFunction,Conductor*%
%ADD21C,0.200000*%
%TD*%
%TA.AperFunction,Conductor*%
%ADD22C,0.254000*%
%TD*%
%ADD23C,0.300000*%
%ADD24C,0.350000*%
%ADD25C,0.250000*%
%ADD26O,0.600000X1.200000*%
%ADD27O,0.600000X1.700000*%
G04 APERTURE END LIST*
D10*
%TO.N,Net-(BZ1-Pad2)*%
%TO.C,BZ1*%
X9425988Y23474012D03*
%TO.N,+5V*%
X14800000Y18100000D03*
%TD*%
D11*
%TO.N,/BOOT*%
%TO.C,J3*%
X25710000Y22120000D03*
%TO.N,/EN*%
X28250000Y22120000D03*
%TO.N,/IO26*%
X25710000Y19580000D03*
%TO.N,/IO27*%
X28250000Y19580000D03*
%TO.N,/IO33*%
X25710000Y17040000D03*
%TO.N,/IO25*%
X28250000Y17040000D03*
%TO.N,/IO35*%
X25710000Y14500000D03*
%TO.N,/IO32*%
X28250000Y14500000D03*
%TO.N,/IO5*%
X25710000Y11960000D03*
%TO.N,/IO34*%
X28250000Y11960000D03*
%TO.N,/IO22*%
X25710000Y9420000D03*
%TO.N,/IO19*%
X28250000Y9420000D03*
%TO.N,/ESP_TX*%
X25710000Y6880000D03*
%TO.N,/ESP_RX*%
X28250000Y6880000D03*
%TO.N,+5V*%
X25710000Y4340000D03*
%TO.N,GND*%
X28250000Y4340000D03*
%TO.N,+3V3*%
X25710000Y1800000D03*
D12*
%TO.N,GND*%
X28250000Y1800000D03*
%TD*%
D13*
%TO.N,*%
%TO.C,SW1*%
X2600000Y24600000D03*
X2600000Y28900000D03*
%TD*%
%TO.N,*%
%TO.C,SW2*%
X27400000Y28900000D03*
X27400000Y24600000D03*
%TD*%
D14*
%TO.N,GND*%
%TO.C,U4*%
X8156676Y16171751D03*
X7414214Y16914214D03*
X6671751Y17656676D03*
X7484924Y15500000D03*
X6742462Y16242462D03*
X6000000Y16984924D03*
X6742462Y14757538D03*
X6000000Y15500000D03*
X5257538Y16242462D03*
X6000000Y14015076D03*
X5257538Y14757538D03*
X4515076Y15500000D03*
X5328249Y17656676D03*
X8156676Y14828249D03*
X4585786Y16914214D03*
X7414214Y14085786D03*
X3843324Y16171751D03*
X6671751Y13343324D03*
X3843324Y14828249D03*
X4585786Y14085786D03*
X5328249Y13343324D03*
%TD*%
%TO.N,Net-(J1-PadS1)*%
%TO.C,J1*%
%TA.AperFunction,ComponentPad*%
G36*
G01*
X18825000Y1000000D02*
X18825000Y2300000D01*
G75*
G02*
X19175000Y2650000I350000J0D01*
G01*
X19875000Y2650000D01*
G75*
G02*
X20225000Y2300000I0J-350000D01*
G01*
X20225000Y1000000D01*
G75*
G02*
X19875000Y650000I-350000J0D01*
G01*
X19175000Y650000D01*
G75*
G02*
X18825000Y1000000I0J350000D01*
G01*
G37*
%TD.AperFunction*%
%TA.AperFunction,ComponentPad*%
G36*
G01*
X9775000Y1000000D02*
X9775000Y2300000D01*
G75*
G02*
X10125000Y2650000I350000J0D01*
G01*
X10825000Y2650000D01*
G75*
G02*
X11175000Y2300000I0J-350000D01*
G01*
X11175000Y1000000D01*
G75*
G02*
X10825000Y650000I-350000J0D01*
G01*
X10125000Y650000D01*
G75*
G02*
X9775000Y1000000I0J350000D01*
G01*
G37*
%TD.AperFunction*%
%TA.AperFunction,ComponentPad*%
G36*
G01*
X9775000Y4930000D02*
X9775000Y6330000D01*
G75*
G02*
X10125000Y6680000I350000J0D01*
G01*
X10825000Y6680000D01*
G75*
G02*
X11175000Y6330000I0J-350000D01*
G01*
X11175000Y4930000D01*
G75*
G02*
X10825000Y4580000I-350000J0D01*
G01*
X10125000Y4580000D01*
G75*
G02*
X9775000Y4930000I0J350000D01*
G01*
G37*
%TD.AperFunction*%
%TA.AperFunction,ComponentPad*%
G36*
G01*
X18825000Y4930000D02*
X18825000Y6330000D01*
G75*
G02*
X19175000Y6680000I350000J0D01*
G01*
X19875000Y6680000D01*
G75*
G02*
X20225000Y6330000I0J-350000D01*
G01*
X20225000Y4930000D01*
G75*
G02*
X19875000Y4580000I-350000J0D01*
G01*
X19175000Y4580000D01*
G75*
G02*
X18825000Y4930000I0J350000D01*
G01*
G37*
%TD.AperFunction*%
%TD*%
D15*
%TO.N,GND*%
X7100000Y10200000D03*
X12000000Y3500000D03*
X17000000Y2500000D03*
X14500000Y2500000D03*
X6000000Y29250000D03*
X2000000Y23000000D03*
X22600000Y18275000D03*
X22650000Y16100000D03*
X16100000Y19450000D03*
X18250000Y19150000D03*
X10350000Y20550000D03*
X10850000Y11250000D03*
X2750000Y9750000D03*
X1000000Y19500000D03*
X13100000Y15300000D03*
X13100000Y14450000D03*
X22425000Y13375000D03*
X23100000Y14050000D03*
X19650000Y13100000D03*
X14250000Y10750000D03*
X13200000Y10350000D03*
X11650000Y13850000D03*
X11650000Y13050000D03*
X11550000Y10600000D03*
X9750000Y8650000D03*
X9250000Y9150000D03*
X16700000Y18850000D03*
X18500000Y24600000D03*
X18500000Y26100000D03*
X22000000Y28000000D03*
X24750000Y28500000D03*
X11500000Y28000000D03*
X12000000Y23750000D03*
X11250000Y23750000D03*
X11250000Y23000000D03*
X8250000Y22350000D03*
X7750000Y25800000D03*
X6050000Y21500000D03*
X5150000Y21500000D03*
X5850000Y23500000D03*
X6600000Y23500000D03*
X22050000Y19750000D03*
X15000000Y23250000D03*
X15750000Y24000000D03*
X15900000Y4750000D03*
X8700000Y3500000D03*
X3000000Y8500000D03*
X4000000Y8500000D03*
X1000000Y8500000D03*
X2000000Y8500000D03*
X6350000Y8700000D03*
X7000000Y6000000D03*
X7000000Y5000000D03*
X7000000Y4000000D03*
X7000000Y3000000D03*
X7000000Y2000000D03*
X7000000Y1000000D03*
X6900000Y9350000D03*
X8000000Y750000D03*
X750000Y10000000D03*
X750000Y12000000D03*
X800000Y23000000D03*
X750000Y21000000D03*
X8000000Y29250000D03*
X10000000Y29250000D03*
X12000000Y29250000D03*
X14000000Y29250000D03*
X16000000Y29250000D03*
X18000000Y29250000D03*
X20000000Y29250000D03*
X22000000Y29250000D03*
X24000000Y29250000D03*
X12000000Y750000D03*
X14000000Y750000D03*
X16000000Y750000D03*
X18000000Y750000D03*
X3400000Y9050000D03*
X3750000Y20250000D03*
X7000000Y21250000D03*
X8150000Y9350000D03*
X8200000Y10200000D03*
X7000000Y7000000D03*
X7150000Y7800000D03*
X7750000Y8500000D03*
X5500000Y8500000D03*
X23200000Y8000000D03*
X21550000Y8000000D03*
X22000000Y750000D03*
X23750000Y2750000D03*
X2750000Y26750000D03*
X5250000Y28500000D03*
X21700000Y23050000D03*
X20750000Y23050000D03*
X17450000Y23050000D03*
X8000000Y28000000D03*
X27250000Y26750000D03*
X24550000Y24600000D03*
X29250000Y20850000D03*
X29250000Y18300000D03*
X29250000Y15750000D03*
X29250000Y13250000D03*
X29250000Y10700000D03*
X29250000Y8150000D03*
X25250000Y23750000D03*
X29250000Y23000000D03*
X22850000Y2750000D03*
X24000000Y750000D03*
X15750000Y10750000D03*
X17050000Y10350000D03*
X20750000Y10400000D03*
X23250000Y13000000D03*
X22000000Y12950000D03*
X24150000Y11850000D03*
D16*
%TO.N,+3V3*%
X5900000Y10475000D03*
D17*
X21150000Y15850000D03*
D16*
X16750000Y23600000D03*
D17*
X13250000Y29000000D03*
X9150000Y18525000D03*
D16*
X11500000Y8650000D03*
X22500000Y9100000D03*
D17*
X21275000Y19650000D03*
X7800000Y7400000D03*
X1000000Y16850000D03*
X23250000Y25600000D03*
%TO.N,+5V*%
X17375000Y3625000D03*
X21950000Y18975000D03*
%TO.N,/EN*%
X19350000Y19500000D03*
%TO.N,/D+*%
X14925000Y4875000D03*
D16*
X19614124Y7664124D03*
D17*
%TO.N,/D-*%
X14075000Y4875000D03*
D16*
X20285876Y8335876D03*
D17*
%TO.N,/LEDK*%
X12250000Y24500000D03*
X18750000Y23600000D03*
%TO.N,/BOOT*%
X8650000Y21150000D03*
X18200000Y13000000D03*
X4300000Y24000000D03*
%TO.N,/ESP_TX*%
X2300000Y12300000D03*
X14100000Y13200000D03*
%TO.N,/ESP_RX*%
X14775000Y12525000D03*
X1650000Y11650000D03*
%TO.N,/BLK*%
X3600000Y23500000D03*
X23500000Y23600000D03*
%TO.N,/IO22*%
X950000Y13400000D03*
%TO.N,/IO5*%
X1900000Y18000000D03*
%TO.N,/IO19*%
X950000Y14250000D03*
%TO.N,/RMT_RGB*%
X8700000Y8250000D03*
X2950000Y11400000D03*
%TD*%
D18*
%TO.N,+3V3*%
X9650000Y10500000D02*
X9650000Y18025000D01*
X11500000Y8650000D02*
X9650000Y10500000D01*
X9650000Y18025000D02*
X9150000Y18525000D01*
D19*
X12450000Y9600000D02*
X11500000Y8650000D01*
D18*
X12450000Y9600000D02*
X12450000Y19300000D01*
X12450000Y19300000D02*
X16750000Y23600000D01*
X22500000Y5010000D02*
X25710000Y1800000D01*
D20*
X10250000Y7400000D02*
X11500000Y8650000D01*
X7800000Y7400000D02*
X10250000Y7400000D01*
D18*
X8525000Y19150000D02*
X9150000Y18525000D01*
X5200000Y19150000D02*
X8525000Y19150000D01*
X2900000Y16850000D02*
X5200000Y19150000D01*
X1000000Y16850000D02*
X2900000Y16850000D01*
X1000000Y15375000D02*
X1000000Y16850000D01*
X5900000Y10475000D02*
X1000000Y15375000D01*
D20*
X23250000Y25600000D02*
X23000000Y25350000D01*
X23000000Y25350000D02*
X16750000Y25350000D01*
D18*
X16750000Y23600000D02*
X16750000Y25350000D01*
D20*
X16750000Y25350000D02*
X15800000Y25350000D01*
X13250000Y27900000D02*
X13250000Y29000000D01*
X15800000Y25350000D02*
X13250000Y27900000D01*
D19*
X22000000Y9600000D02*
X22500000Y9100000D01*
D18*
X22500000Y9100000D02*
X22500000Y5010000D01*
D19*
X12450000Y9600000D02*
X22000000Y9600000D01*
D20*
X21150000Y12475000D02*
X22000000Y11625000D01*
X22000000Y11625000D02*
X22000000Y9600000D01*
X21150000Y15850000D02*
X21150000Y12475000D01*
%TO.N,+5V*%
X14800000Y18100000D02*
X21000000Y18100000D01*
X21000000Y18100000D02*
X21850000Y18100000D01*
D21*
X21950000Y18200000D02*
X21850000Y18100000D01*
X21950000Y18975000D02*
X21950000Y18200000D01*
D20*
X23100000Y11850000D02*
X23100000Y10300000D01*
X25710000Y4340000D02*
X23850000Y6200000D01*
X21850000Y18100000D02*
X23850000Y16100000D01*
X23850000Y12600000D02*
X23100000Y11850000D01*
X23100000Y10300000D02*
X23850000Y9550000D01*
X23850000Y16100000D02*
X23850000Y12600000D01*
X23850000Y6200000D02*
X23850000Y9550000D01*
%TD*%
D22*
%TO.N,GND*%
X2358773Y29695218D02*
X2208269Y29632877D01*
X2072819Y29542372D01*
X1957628Y29427181D01*
X1867123Y29291731D01*
X1804782Y29141227D01*
X1773000Y28981452D01*
X1773000Y28818548D01*
X1804782Y28658773D01*
X1867123Y28508269D01*
X1957628Y28372819D01*
X2072819Y28257628D01*
X2208269Y28167123D01*
X2358773Y28104782D01*
X2518548Y28073000D01*
X2681452Y28073000D01*
X2841227Y28104782D01*
X2991731Y28167123D01*
X3127181Y28257628D01*
X3242372Y28372819D01*
X3332877Y28508269D01*
X3395218Y28658773D01*
X3427000Y28818548D01*
X3427000Y28981452D01*
X3395218Y29141227D01*
X3332877Y29291731D01*
X3242372Y29427181D01*
X3127181Y29542372D01*
X2991731Y29632877D01*
X2841227Y29695218D01*
X2827241Y29698000D01*
X27172759Y29698000D01*
X27158773Y29695218D01*
X27008269Y29632877D01*
X26872819Y29542372D01*
X26757628Y29427181D01*
X26667123Y29291731D01*
X26604782Y29141227D01*
X26573000Y28981452D01*
X26573000Y28818548D01*
X26604782Y28658773D01*
X26667123Y28508269D01*
X26757628Y28372819D01*
X26872819Y28257628D01*
X27008269Y28167123D01*
X27158773Y28104782D01*
X27318548Y28073000D01*
X27481452Y28073000D01*
X27641227Y28104782D01*
X27791731Y28167123D01*
X27927181Y28257628D01*
X28042372Y28372819D01*
X28132877Y28508269D01*
X28195218Y28658773D01*
X28227000Y28818548D01*
X28227000Y28981452D01*
X28195218Y29141227D01*
X28132877Y29291731D01*
X28042372Y29427181D01*
X27927181Y29542372D01*
X27791731Y29632877D01*
X27641227Y29695218D01*
X27627241Y29698000D01*
X28385228Y29698000D01*
X28438178Y29692809D01*
X28474899Y29681721D01*
X28508768Y29663713D01*
X28538496Y29639468D01*
X28562951Y29609907D01*
X28581194Y29576168D01*
X28592537Y29539524D01*
X28598000Y29487546D01*
X28598001Y23985167D01*
X28599259Y23972399D01*
X28599248Y23970885D01*
X28599660Y23966688D01*
X28602220Y23942327D01*
X28602371Y23940798D01*
X28602386Y23940747D01*
X28604760Y23918164D01*
X28610253Y23891407D01*
X28615392Y23864465D01*
X28616612Y23860428D01*
X28631040Y23813818D01*
X28641627Y23788632D01*
X28651902Y23763202D01*
X28653882Y23759479D01*
X28677089Y23716560D01*
X28692365Y23693914D01*
X28707376Y23670972D01*
X28710042Y23667705D01*
X28741142Y23630110D01*
X28760544Y23610843D01*
X28779722Y23591259D01*
X28782971Y23588571D01*
X28820782Y23557734D01*
X28843538Y23542616D01*
X28866157Y23527128D01*
X28869867Y23525122D01*
X28912947Y23502215D01*
X28938235Y23491792D01*
X28963417Y23480999D01*
X28967446Y23479752D01*
X29014155Y23465650D01*
X29040944Y23460346D01*
X29067778Y23454643D01*
X29071973Y23454202D01*
X29120532Y23449441D01*
X29120536Y23449441D01*
X29135167Y23448000D01*
X29485228Y23448000D01*
X29538178Y23442809D01*
X29574899Y23431721D01*
X29608768Y23413713D01*
X29638496Y23389468D01*
X29662951Y23359907D01*
X29681194Y23326168D01*
X29692537Y23289524D01*
X29698001Y23237536D01*
X29698000Y514772D01*
X29694349Y477539D01*
X29616870Y383130D01*
X29522488Y305672D01*
X29487547Y302000D01*
X6981987Y302000D01*
X6883130Y383130D01*
X6774638Y515328D01*
X6694022Y666150D01*
X6644376Y829811D01*
X6627000Y1006234D01*
X6627000Y2090372D01*
X7332440Y2090372D01*
X7332440Y1909628D01*
X7367701Y1732358D01*
X7436869Y1565372D01*
X7537284Y1415089D01*
X7665089Y1287284D01*
X7815372Y1186869D01*
X7982358Y1117701D01*
X8159628Y1082440D01*
X8340372Y1082440D01*
X8517642Y1117701D01*
X8684628Y1186869D01*
X8834911Y1287284D01*
X8962716Y1415089D01*
X9063131Y1565372D01*
X9132299Y1732358D01*
X9167560Y1909628D01*
X9167560Y2090372D01*
X9132299Y2267642D01*
X9118896Y2300000D01*
X9496660Y2300000D01*
X9496660Y1000000D01*
X9508733Y877417D01*
X9544490Y759545D01*
X9602554Y650913D01*
X9680697Y555697D01*
X9775913Y477554D01*
X9884545Y419490D01*
X10002417Y383733D01*
X10125000Y371660D01*
X10825000Y371660D01*
X10947583Y383733D01*
X11065455Y419490D01*
X11174087Y477554D01*
X11269303Y555697D01*
X11347446Y650913D01*
X11405510Y759545D01*
X11441267Y877417D01*
X11453340Y1000000D01*
X11453340Y2300000D01*
X18546660Y2300000D01*
X18546660Y1000000D01*
X18558733Y877417D01*
X18594490Y759545D01*
X18652554Y650913D01*
X18730697Y555697D01*
X18825913Y477554D01*
X18934545Y419490D01*
X19052417Y383733D01*
X19175000Y371660D01*
X19875000Y371660D01*
X19997583Y383733D01*
X20115455Y419490D01*
X20224087Y477554D01*
X20319303Y555697D01*
X20397446Y650913D01*
X20455510Y759545D01*
X20491267Y877417D01*
X20503340Y1000000D01*
X20503340Y2090372D01*
X20832440Y2090372D01*
X20832440Y1909628D01*
X20867701Y1732358D01*
X20936869Y1565372D01*
X21037284Y1415089D01*
X21165089Y1287284D01*
X21315372Y1186869D01*
X21482358Y1117701D01*
X21659628Y1082440D01*
X21840372Y1082440D01*
X22017642Y1117701D01*
X22184628Y1186869D01*
X22334911Y1287284D01*
X22462716Y1415089D01*
X22563131Y1565372D01*
X22632299Y1732358D01*
X22667560Y1909628D01*
X22667560Y2090372D01*
X22632299Y2267642D01*
X22563131Y2434628D01*
X22462716Y2584911D01*
X22334911Y2712716D01*
X22184628Y2813131D01*
X22017642Y2882299D01*
X21840372Y2917560D01*
X21659628Y2917560D01*
X21482358Y2882299D01*
X21315372Y2813131D01*
X21165089Y2712716D01*
X21037284Y2584911D01*
X20936869Y2434628D01*
X20867701Y2267642D01*
X20832440Y2090372D01*
X20503340Y2090372D01*
X20503340Y2300000D01*
X20491267Y2422583D01*
X20455510Y2540455D01*
X20397446Y2649087D01*
X20319303Y2744303D01*
X20224087Y2822446D01*
X20115455Y2880510D01*
X19997583Y2916267D01*
X19875000Y2928340D01*
X19175000Y2928340D01*
X19052417Y2916267D01*
X18934545Y2880510D01*
X18825913Y2822446D01*
X18730697Y2744303D01*
X18652554Y2649087D01*
X18594490Y2540455D01*
X18558733Y2422583D01*
X18546660Y2300000D01*
X11453340Y2300000D01*
X11441267Y2422583D01*
X11405510Y2540455D01*
X11347446Y2649087D01*
X11269303Y2744303D01*
X11174087Y2822446D01*
X11065455Y2880510D01*
X10947583Y2916267D01*
X10825000Y2928340D01*
X10125000Y2928340D01*
X10002417Y2916267D01*
X9884545Y2880510D01*
X9775913Y2822446D01*
X9680697Y2744303D01*
X9602554Y2649087D01*
X9544490Y2540455D01*
X9508733Y2422583D01*
X9496660Y2300000D01*
X9118896Y2300000D01*
X9063131Y2434628D01*
X8962716Y2584911D01*
X8834911Y2712716D01*
X8684628Y2813131D01*
X8517642Y2882299D01*
X8340372Y2917560D01*
X8159628Y2917560D01*
X7982358Y2882299D01*
X7815372Y2813131D01*
X7665089Y2712716D01*
X7537284Y2584911D01*
X7436869Y2434628D01*
X7367701Y2267642D01*
X7332440Y2090372D01*
X6627000Y2090372D01*
X6627000Y3686754D01*
X16748000Y3686754D01*
X16748000Y3563246D01*
X16772095Y3442111D01*
X16819360Y3328004D01*
X16887977Y3225311D01*
X16975311Y3137977D01*
X17078004Y3069360D01*
X17192111Y3022095D01*
X17313246Y2998000D01*
X17436754Y2998000D01*
X17557889Y3022095D01*
X17671996Y3069360D01*
X17774689Y3137977D01*
X17862023Y3225311D01*
X17930640Y3328004D01*
X17977905Y3442111D01*
X18002000Y3563246D01*
X18002000Y3686754D01*
X17977905Y3807889D01*
X17930640Y3921996D01*
X17862023Y4024689D01*
X17774689Y4112023D01*
X17671996Y4180640D01*
X17557889Y4227905D01*
X17436754Y4252000D01*
X17313246Y4252000D01*
X17192111Y4227905D01*
X17078004Y4180640D01*
X16975311Y4112023D01*
X16887977Y4024689D01*
X16819360Y3921996D01*
X16772095Y3807889D01*
X16748000Y3686754D01*
X6627000Y3686754D01*
X6627000Y7000000D01*
X6626388Y7012448D01*
X6607173Y7207538D01*
X6602317Y7231956D01*
X6545412Y7419549D01*
X6535884Y7442550D01*
X6443474Y7615437D01*
X6429642Y7636138D01*
X6305279Y7787675D01*
X6287675Y7805279D01*
X6136138Y7929642D01*
X6115437Y7943474D01*
X5942550Y8035884D01*
X5919549Y8045412D01*
X5731956Y8102317D01*
X5707538Y8107173D01*
X5512448Y8126388D01*
X5500000Y8127000D01*
X1006234Y8127000D01*
X829811Y8144376D01*
X666150Y8194022D01*
X515328Y8274638D01*
X383130Y8383130D01*
X302000Y8481987D01*
X302000Y11711754D01*
X1023000Y11711754D01*
X1023000Y11588246D01*
X1047095Y11467111D01*
X1094360Y11353004D01*
X1162977Y11250311D01*
X1250311Y11162977D01*
X1353004Y11094360D01*
X1467111Y11047095D01*
X1588246Y11023000D01*
X1711754Y11023000D01*
X1832889Y11047095D01*
X1946996Y11094360D01*
X2049689Y11162977D01*
X2137023Y11250311D01*
X2205640Y11353004D01*
X2252905Y11467111D01*
X2277000Y11588246D01*
X2277000Y11673000D01*
X2361754Y11673000D01*
X2386456Y11677913D01*
X2347095Y11582889D01*
X2323000Y11461754D01*
X2323000Y11338246D01*
X2347095Y11217111D01*
X2394360Y11103004D01*
X2462977Y11000311D01*
X2550311Y10912977D01*
X2653004Y10844360D01*
X2767111Y10797095D01*
X2888246Y10773000D01*
X3011754Y10773000D01*
X3132889Y10797095D01*
X3246996Y10844360D01*
X3349689Y10912977D01*
X3437023Y11000311D01*
X3505640Y11103004D01*
X3552905Y11217111D01*
X3577000Y11338246D01*
X3577000Y11461754D01*
X3552905Y11582889D01*
X3505640Y11696996D01*
X3437023Y11799689D01*
X3349689Y11887023D01*
X3246996Y11955640D01*
X3132889Y12002905D01*
X3011754Y12027000D01*
X2888246Y12027000D01*
X2863544Y12022087D01*
X2902905Y12117111D01*
X2927000Y12238246D01*
X2927000Y12361754D01*
X2902905Y12482889D01*
X2855640Y12596996D01*
X2787023Y12699689D01*
X2699689Y12787023D01*
X2596996Y12855640D01*
X2482889Y12902905D01*
X2361754Y12927000D01*
X2238246Y12927000D01*
X2117111Y12902905D01*
X2003004Y12855640D01*
X1900311Y12787023D01*
X1812977Y12699689D01*
X1744360Y12596996D01*
X1697095Y12482889D01*
X1673000Y12361754D01*
X1673000Y12277000D01*
X1588246Y12277000D01*
X1467111Y12252905D01*
X1353004Y12205640D01*
X1250311Y12137023D01*
X1162977Y12049689D01*
X1094360Y11946996D01*
X1047095Y11832889D01*
X1023000Y11711754D01*
X302000Y11711754D01*
X302000Y14311754D01*
X323000Y14311754D01*
X323000Y14188246D01*
X347095Y14067111D01*
X394360Y13953004D01*
X462977Y13850311D01*
X488288Y13825000D01*
X462977Y13799689D01*
X394360Y13696996D01*
X347095Y13582889D01*
X323000Y13461754D01*
X323000Y13338246D01*
X347095Y13217111D01*
X394360Y13103004D01*
X462977Y13000311D01*
X550311Y12912977D01*
X653004Y12844360D01*
X767111Y12797095D01*
X888246Y12773000D01*
X1011754Y12773000D01*
X1132889Y12797095D01*
X1246996Y12844360D01*
X1349689Y12912977D01*
X1437023Y13000311D01*
X1505640Y13103004D01*
X1552905Y13217111D01*
X1577000Y13338246D01*
X1577000Y13461754D01*
X1552905Y13582889D01*
X1505640Y13696996D01*
X1437023Y13799689D01*
X1411712Y13825000D01*
X1437023Y13850311D01*
X1505640Y13953004D01*
X1552905Y14067111D01*
X1554513Y14075197D01*
X5223400Y10406310D01*
X5249016Y10277526D01*
X5300050Y10154320D01*
X5374140Y10043437D01*
X5468437Y9949140D01*
X5579320Y9875050D01*
X5702526Y9824016D01*
X5833321Y9798000D01*
X5966679Y9798000D01*
X6097474Y9824016D01*
X6220680Y9875050D01*
X6331563Y9949140D01*
X6425860Y10043437D01*
X6499950Y10154320D01*
X6550984Y10277526D01*
X6577000Y10408321D01*
X6577000Y10541679D01*
X6550984Y10672474D01*
X6499950Y10795680D01*
X6425860Y10906563D01*
X6331563Y11000860D01*
X6220680Y11074950D01*
X6097474Y11125984D01*
X5968690Y11151600D01*
X3979026Y13141264D01*
X4838765Y13141264D01*
X4876249Y13070932D01*
X4864431Y13059114D01*
X4949431Y12974114D01*
X4953350Y12969327D01*
X4958246Y12965299D01*
X5044039Y12879506D01*
X5055905Y12891372D01*
X5125010Y12854328D01*
X5126189Y12853840D01*
X5205249Y12899762D01*
X5205249Y13040716D01*
X5314108Y13149575D01*
X5342390Y13149575D01*
X5451249Y13040716D01*
X5451249Y12899762D01*
X5530309Y12853840D01*
X5600641Y12891324D01*
X5612459Y12879506D01*
X5697459Y12964506D01*
X5702246Y12968425D01*
X5706274Y12973321D01*
X5792067Y13059114D01*
X5780201Y13070980D01*
X5817245Y13140085D01*
X5817733Y13141264D01*
X6182267Y13141264D01*
X6219751Y13070932D01*
X6207933Y13059114D01*
X6292933Y12974114D01*
X6296852Y12969327D01*
X6301748Y12965299D01*
X6387541Y12879506D01*
X6399407Y12891372D01*
X6468512Y12854328D01*
X6469691Y12853840D01*
X6548751Y12899762D01*
X6548751Y13040716D01*
X6657610Y13149575D01*
X6685892Y13149575D01*
X6794751Y13040716D01*
X6794751Y12899762D01*
X6873811Y12853840D01*
X6944143Y12891324D01*
X6955961Y12879506D01*
X7040961Y12964506D01*
X7045748Y12968425D01*
X7049776Y12973321D01*
X7135569Y13059114D01*
X7123703Y13070980D01*
X7160747Y13140085D01*
X7161235Y13141264D01*
X7115313Y13220324D01*
X6974359Y13220324D01*
X6865500Y13329183D01*
X6685892Y13149575D01*
X6657610Y13149575D01*
X6478002Y13329183D01*
X6369143Y13220324D01*
X6228189Y13220324D01*
X6182267Y13141264D01*
X5817733Y13141264D01*
X5771811Y13220324D01*
X5630857Y13220324D01*
X5521998Y13329183D01*
X5342390Y13149575D01*
X5314108Y13149575D01*
X5134500Y13329183D01*
X5025641Y13220324D01*
X4884687Y13220324D01*
X4838765Y13141264D01*
X3979026Y13141264D01*
X3236564Y13883726D01*
X4096302Y13883726D01*
X4133786Y13813394D01*
X4121968Y13801576D01*
X4206968Y13716576D01*
X4210887Y13711789D01*
X4215783Y13707761D01*
X4301576Y13621968D01*
X4313442Y13633834D01*
X4382547Y13596790D01*
X4383726Y13596302D01*
X4462786Y13642224D01*
X4462786Y13783178D01*
X4571645Y13892037D01*
X4599927Y13892037D01*
X4708786Y13783178D01*
X4708786Y13642224D01*
X4787846Y13596302D01*
X4858178Y13633786D01*
X4869996Y13621968D01*
X4869997Y13621968D01*
X4876297Y13615668D01*
X4839253Y13546563D01*
X4838765Y13545384D01*
X4884687Y13466324D01*
X5025641Y13466324D01*
X5134500Y13357465D01*
X5314108Y13537073D01*
X5342390Y13537073D01*
X5521998Y13357465D01*
X5630857Y13466324D01*
X5771811Y13466324D01*
X5810461Y13532865D01*
X5877000Y13571514D01*
X5877000Y13712467D01*
X5985859Y13821327D01*
X6014141Y13821327D01*
X6123000Y13712468D01*
X6123000Y13571514D01*
X6189539Y13532865D01*
X6228189Y13466324D01*
X6369143Y13466324D01*
X6478002Y13357465D01*
X6657610Y13537073D01*
X6685892Y13537073D01*
X6865500Y13357465D01*
X6974359Y13466324D01*
X7115313Y13466324D01*
X7161235Y13545384D01*
X7123751Y13615715D01*
X7141870Y13633834D01*
X7210975Y13596790D01*
X7212154Y13596302D01*
X7291214Y13642224D01*
X7291214Y13783178D01*
X7400073Y13892037D01*
X7428355Y13892037D01*
X7537214Y13783178D01*
X7537214Y13642224D01*
X7616274Y13596302D01*
X7686606Y13633786D01*
X7698424Y13621968D01*
X7783424Y13706968D01*
X7788211Y13710887D01*
X7792239Y13715783D01*
X7878032Y13801576D01*
X7866166Y13813442D01*
X7903210Y13882547D01*
X7903698Y13883726D01*
X7857776Y13962786D01*
X7716822Y13962786D01*
X7607963Y14071645D01*
X7428355Y13892037D01*
X7400073Y13892037D01*
X7220465Y14071645D01*
X7111606Y13962786D01*
X6970652Y13962786D01*
X6924730Y13883726D01*
X6962214Y13813393D01*
X6955962Y13807141D01*
X6955961Y13807142D01*
X6944095Y13795276D01*
X6874990Y13832320D01*
X6873811Y13832808D01*
X6794751Y13786886D01*
X6794751Y13645932D01*
X6685892Y13537073D01*
X6657610Y13537073D01*
X6548751Y13645932D01*
X6548751Y13786886D01*
X6482212Y13825535D01*
X6443562Y13892076D01*
X6302608Y13892076D01*
X6193749Y14000935D01*
X6014141Y13821327D01*
X5985859Y13821327D01*
X5806251Y14000935D01*
X5697392Y13892076D01*
X5556438Y13892076D01*
X5517788Y13825535D01*
X5451249Y13786886D01*
X5451249Y13645931D01*
X5342390Y13537073D01*
X5314108Y13537073D01*
X5205249Y13645932D01*
X5205249Y13786886D01*
X5126189Y13832808D01*
X5055857Y13795324D01*
X5044039Y13807142D01*
X5044039Y13807141D01*
X5037738Y13813442D01*
X5074782Y13882547D01*
X5075270Y13883726D01*
X5029348Y13962786D01*
X4888394Y13962786D01*
X4779535Y14071645D01*
X4599927Y13892037D01*
X4571645Y13892037D01*
X4392037Y14071645D01*
X4283178Y13962786D01*
X4142224Y13962786D01*
X4096302Y13883726D01*
X3236564Y13883726D01*
X2494101Y14626189D01*
X3353840Y14626189D01*
X3391324Y14555857D01*
X3379506Y14544039D01*
X3464506Y14459039D01*
X3468425Y14454252D01*
X3473321Y14450224D01*
X3559114Y14364431D01*
X3570980Y14376297D01*
X3640085Y14339253D01*
X3641264Y14338765D01*
X3720324Y14384687D01*
X3720324Y14525641D01*
X3829183Y14634500D01*
X3857465Y14634500D01*
X3966324Y14525641D01*
X3966324Y14384687D01*
X4045384Y14338765D01*
X4115716Y14376249D01*
X4121969Y14369996D01*
X4121968Y14369996D01*
X4133834Y14358130D01*
X4096790Y14289025D01*
X4096302Y14287846D01*
X4142224Y14208786D01*
X4283178Y14208786D01*
X4392037Y14099927D01*
X4571645Y14279535D01*
X4599927Y14279535D01*
X4779535Y14099927D01*
X4888394Y14208786D01*
X5029348Y14208786D01*
X5067998Y14275326D01*
X5134538Y14313976D01*
X5134538Y14454930D01*
X5243397Y14563789D01*
X5271679Y14563789D01*
X5380538Y14454930D01*
X5380538Y14313976D01*
X5459598Y14268054D01*
X5529930Y14305538D01*
X5548048Y14287420D01*
X5511004Y14218315D01*
X5510516Y14217136D01*
X5556438Y14138076D01*
X5697392Y14138076D01*
X5806251Y14029217D01*
X5985859Y14208825D01*
X6014141Y14208825D01*
X6193749Y14029217D01*
X6302608Y14138076D01*
X6443562Y14138076D01*
X6489484Y14217136D01*
X6452000Y14287468D01*
X6470118Y14305586D01*
X6539223Y14268542D01*
X6540402Y14268054D01*
X6619462Y14313976D01*
X6619462Y14454930D01*
X6728321Y14563789D01*
X6756603Y14563789D01*
X6865462Y14454930D01*
X6865462Y14313976D01*
X6932002Y14275326D01*
X6970652Y14208786D01*
X7111606Y14208786D01*
X7220465Y14099927D01*
X7400073Y14279535D01*
X7428355Y14279535D01*
X7607963Y14099927D01*
X7716822Y14208786D01*
X7857776Y14208786D01*
X7903698Y14287846D01*
X7866214Y14358178D01*
X7884333Y14376297D01*
X7953437Y14339253D01*
X7954616Y14338765D01*
X8033676Y14384687D01*
X8033676Y14525641D01*
X8142535Y14634500D01*
X8170817Y14634500D01*
X8279676Y14525641D01*
X8279676Y14384687D01*
X8358736Y14338765D01*
X8429068Y14376249D01*
X8440886Y14364431D01*
X8525886Y14449431D01*
X8530673Y14453350D01*
X8534701Y14458246D01*
X8620494Y14544039D01*
X8608628Y14555905D01*
X8645672Y14625010D01*
X8646160Y14626189D01*
X8600238Y14705249D01*
X8459284Y14705249D01*
X8350425Y14814108D01*
X8170817Y14634500D01*
X8142535Y14634500D01*
X7962927Y14814108D01*
X7854068Y14705249D01*
X7713114Y14705249D01*
X7667192Y14626189D01*
X7704676Y14555857D01*
X7692858Y14544039D01*
X7692859Y14544038D01*
X7686558Y14537737D01*
X7617453Y14574782D01*
X7616274Y14575270D01*
X7537214Y14529348D01*
X7537214Y14388394D01*
X7428355Y14279535D01*
X7400073Y14279535D01*
X7291214Y14388394D01*
X7291214Y14529348D01*
X7224674Y14567998D01*
X7186024Y14634538D01*
X7045070Y14634538D01*
X6936211Y14743397D01*
X6756603Y14563789D01*
X6728321Y14563789D01*
X6548713Y14743397D01*
X6439854Y14634538D01*
X6298900Y14634538D01*
X6252978Y14555478D01*
X6290462Y14485146D01*
X6272344Y14467028D01*
X6203239Y14504072D01*
X6202060Y14504560D01*
X6123000Y14458638D01*
X6123000Y14317684D01*
X6014141Y14208825D01*
X5985859Y14208825D01*
X5877000Y14317684D01*
X5877000Y14458638D01*
X5797940Y14504560D01*
X5727608Y14467076D01*
X5709490Y14485194D01*
X5746534Y14554299D01*
X5747022Y14555478D01*
X5701100Y14634538D01*
X5560146Y14634538D01*
X5451287Y14743397D01*
X5271679Y14563789D01*
X5243397Y14563789D01*
X5063789Y14743397D01*
X4954930Y14634538D01*
X4813976Y14634538D01*
X4775326Y14567998D01*
X4708786Y14529348D01*
X4708786Y14388394D01*
X4599927Y14279535D01*
X4571645Y14279535D01*
X4462786Y14388394D01*
X4462786Y14529348D01*
X4383726Y14575270D01*
X4313394Y14537786D01*
X4307142Y14544038D01*
X4307142Y14544039D01*
X4295276Y14555905D01*
X4332320Y14625010D01*
X4332808Y14626189D01*
X4286886Y14705249D01*
X4145932Y14705249D01*
X4037073Y14814108D01*
X3857465Y14634500D01*
X3829183Y14634500D01*
X3649575Y14814108D01*
X3540716Y14705249D01*
X3399762Y14705249D01*
X3353840Y14626189D01*
X2494101Y14626189D01*
X2089981Y15030309D01*
X3353840Y15030309D01*
X3399762Y14951249D01*
X3540716Y14951249D01*
X3649575Y14842390D01*
X3829183Y15021998D01*
X3857465Y15021998D01*
X4037073Y14842390D01*
X4145933Y14951249D01*
X4286886Y14951249D01*
X4325535Y15017788D01*
X4392076Y15056438D01*
X4392076Y15197392D01*
X4500935Y15306251D01*
X4529217Y15306251D01*
X4638076Y15197392D01*
X4638076Y15056438D01*
X4717136Y15010516D01*
X4787468Y15048000D01*
X4805586Y15029882D01*
X4768542Y14960777D01*
X4768054Y14959598D01*
X4813976Y14880538D01*
X4954930Y14880538D01*
X5063789Y14771679D01*
X5243397Y14951287D01*
X5271679Y14951287D01*
X5451287Y14771679D01*
X5560146Y14880538D01*
X5701100Y14880538D01*
X5747022Y14959598D01*
X5709538Y15029930D01*
X5727656Y15048048D01*
X5796761Y15011004D01*
X5797940Y15010516D01*
X5877000Y15056438D01*
X5877000Y15197392D01*
X5985859Y15306251D01*
X6014141Y15306251D01*
X6123000Y15197392D01*
X6123000Y15056438D01*
X6202060Y15010516D01*
X6272392Y15048000D01*
X6290510Y15029882D01*
X6253466Y14960777D01*
X6252978Y14959598D01*
X6298900Y14880538D01*
X6439854Y14880538D01*
X6548713Y14771679D01*
X6728321Y14951287D01*
X6756603Y14951287D01*
X6936211Y14771679D01*
X7045070Y14880538D01*
X7186024Y14880538D01*
X7231946Y14959598D01*
X7194462Y15029930D01*
X7212580Y15048048D01*
X7281685Y15011004D01*
X7282864Y15010516D01*
X7361924Y15056438D01*
X7361924Y15197392D01*
X7470783Y15306251D01*
X7499065Y15306251D01*
X7607924Y15197392D01*
X7607924Y15056438D01*
X7674465Y15017788D01*
X7713114Y14951249D01*
X7854068Y14951249D01*
X7962927Y14842390D01*
X8142535Y15021998D01*
X8170817Y15021998D01*
X8350425Y14842390D01*
X8459284Y14951249D01*
X8600238Y14951249D01*
X8646160Y15030309D01*
X8608676Y15100641D01*
X8620494Y15112459D01*
X8535494Y15197459D01*
X8531575Y15202246D01*
X8526679Y15206274D01*
X8440886Y15292067D01*
X8429020Y15280201D01*
X8359915Y15317245D01*
X8358736Y15317733D01*
X8279676Y15271811D01*
X8279676Y15130857D01*
X8170817Y15021998D01*
X8142535Y15021998D01*
X8033676Y15130857D01*
X8033676Y15271811D01*
X7967135Y15310461D01*
X7928486Y15377000D01*
X7787532Y15377000D01*
X7678673Y15485859D01*
X7499065Y15306251D01*
X7470783Y15306251D01*
X7291175Y15485859D01*
X7182316Y15377000D01*
X7041362Y15377000D01*
X6995440Y15297940D01*
X7032924Y15227608D01*
X7014806Y15209490D01*
X6945701Y15246534D01*
X6944522Y15247022D01*
X6865462Y15201100D01*
X6865462Y15060146D01*
X6756603Y14951287D01*
X6728321Y14951287D01*
X6619462Y15060146D01*
X6619462Y15201100D01*
X6540402Y15247022D01*
X6470070Y15209538D01*
X6451952Y15227656D01*
X6488996Y15296761D01*
X6489484Y15297940D01*
X6443562Y15377000D01*
X6302608Y15377000D01*
X6193749Y15485859D01*
X6014141Y15306251D01*
X5985859Y15306251D01*
X5806251Y15485859D01*
X5697392Y15377000D01*
X5556438Y15377000D01*
X5510516Y15297940D01*
X5548000Y15227608D01*
X5529882Y15209490D01*
X5460777Y15246534D01*
X5459598Y15247022D01*
X5380538Y15201100D01*
X5380538Y15060146D01*
X5271679Y14951287D01*
X5243397Y14951287D01*
X5134538Y15060146D01*
X5134538Y15201100D01*
X5055478Y15247022D01*
X4985146Y15209538D01*
X4967028Y15227656D01*
X5004072Y15296761D01*
X5004560Y15297940D01*
X4958638Y15377000D01*
X4817684Y15377000D01*
X4708825Y15485859D01*
X4529217Y15306251D01*
X4500935Y15306251D01*
X4321327Y15485859D01*
X4212469Y15377000D01*
X4071514Y15377000D01*
X4032865Y15310461D01*
X3966324Y15271811D01*
X3966324Y15130857D01*
X3857465Y15021998D01*
X3829183Y15021998D01*
X3720324Y15130857D01*
X3720324Y15271811D01*
X3641264Y15317733D01*
X3570932Y15280249D01*
X3559114Y15292067D01*
X3474114Y15207067D01*
X3469327Y15203148D01*
X3465299Y15198252D01*
X3379506Y15112459D01*
X3391372Y15100593D01*
X3354328Y15031488D01*
X3353840Y15030309D01*
X2089981Y15030309D01*
X1527000Y15593289D01*
X1527000Y15969691D01*
X3353840Y15969691D01*
X3391324Y15899359D01*
X3379506Y15887541D01*
X3464506Y15802541D01*
X3468425Y15797754D01*
X3473321Y15793726D01*
X3559114Y15707933D01*
X3570980Y15719799D01*
X3640085Y15682755D01*
X3641264Y15682267D01*
X3720324Y15728189D01*
X3720324Y15869143D01*
X3829183Y15978002D01*
X3857465Y15978002D01*
X3966324Y15869143D01*
X3966324Y15728189D01*
X4032865Y15689539D01*
X4071514Y15623000D01*
X4212468Y15623000D01*
X4321327Y15514141D01*
X4500935Y15693749D01*
X4529217Y15693749D01*
X4708825Y15514141D01*
X4817684Y15623000D01*
X4958638Y15623000D01*
X5004560Y15702060D01*
X4967076Y15772392D01*
X4985194Y15790510D01*
X5054299Y15753466D01*
X5055478Y15752978D01*
X5134538Y15798900D01*
X5134538Y15939854D01*
X5243397Y16048713D01*
X5271679Y16048713D01*
X5380538Y15939854D01*
X5380538Y15798900D01*
X5459598Y15752978D01*
X5529930Y15790462D01*
X5548048Y15772344D01*
X5511004Y15703239D01*
X5510516Y15702060D01*
X5556438Y15623000D01*
X5697392Y15623000D01*
X5806251Y15514141D01*
X5985859Y15693749D01*
X6014141Y15693749D01*
X6193749Y15514141D01*
X6302608Y15623000D01*
X6443562Y15623000D01*
X6489484Y15702060D01*
X6452000Y15772392D01*
X6470118Y15790510D01*
X6539223Y15753466D01*
X6540402Y15752978D01*
X6619462Y15798900D01*
X6619462Y15939854D01*
X6728321Y16048713D01*
X6756603Y16048713D01*
X6865462Y15939854D01*
X6865462Y15798900D01*
X6944522Y15752978D01*
X7014854Y15790462D01*
X7032972Y15772344D01*
X6995928Y15703239D01*
X6995440Y15702060D01*
X7041362Y15623000D01*
X7182316Y15623000D01*
X7291175Y15514141D01*
X7470783Y15693749D01*
X7499065Y15693749D01*
X7678673Y15514141D01*
X7787533Y15623000D01*
X7928486Y15623000D01*
X7967135Y15689539D01*
X8033676Y15728189D01*
X8033676Y15869143D01*
X8142535Y15978002D01*
X8170817Y15978002D01*
X8279676Y15869143D01*
X8279676Y15728189D01*
X8358736Y15682267D01*
X8429068Y15719751D01*
X8440886Y15707933D01*
X8525886Y15792933D01*
X8530673Y15796852D01*
X8534701Y15801748D01*
X8620494Y15887541D01*
X8608628Y15899407D01*
X8645672Y15968512D01*
X8646160Y15969691D01*
X8600238Y16048751D01*
X8459284Y16048751D01*
X8350425Y16157610D01*
X8170817Y15978002D01*
X8142535Y15978002D01*
X7962927Y16157610D01*
X7854069Y16048751D01*
X7713114Y16048751D01*
X7674465Y15982212D01*
X7607924Y15943562D01*
X7607924Y15802608D01*
X7499065Y15693749D01*
X7470783Y15693749D01*
X7361924Y15802608D01*
X7361924Y15943562D01*
X7282864Y15989484D01*
X7212532Y15952000D01*
X7194414Y15970118D01*
X7231458Y16039223D01*
X7231946Y16040402D01*
X7186024Y16119462D01*
X7045070Y16119462D01*
X6936211Y16228321D01*
X6756603Y16048713D01*
X6728321Y16048713D01*
X6548713Y16228321D01*
X6439854Y16119462D01*
X6298900Y16119462D01*
X6252978Y16040402D01*
X6290462Y15970070D01*
X6272344Y15951952D01*
X6203239Y15988996D01*
X6202060Y15989484D01*
X6123000Y15943562D01*
X6123000Y15802608D01*
X6014141Y15693749D01*
X5985859Y15693749D01*
X5877000Y15802608D01*
X5877000Y15943562D01*
X5797940Y15989484D01*
X5727608Y15952000D01*
X5709490Y15970118D01*
X5746534Y16039223D01*
X5747022Y16040402D01*
X5701100Y16119462D01*
X5560146Y16119462D01*
X5451287Y16228321D01*
X5271679Y16048713D01*
X5243397Y16048713D01*
X5063789Y16228321D01*
X4954930Y16119462D01*
X4813976Y16119462D01*
X4768054Y16040402D01*
X4805538Y15970070D01*
X4787420Y15951952D01*
X4718315Y15988996D01*
X4717136Y15989484D01*
X4638076Y15943562D01*
X4638076Y15802608D01*
X4529217Y15693749D01*
X4500935Y15693749D01*
X4392076Y15802608D01*
X4392076Y15943562D01*
X4325535Y15982212D01*
X4286886Y16048751D01*
X4145932Y16048751D01*
X4037073Y16157610D01*
X3857465Y15978002D01*
X3829183Y15978002D01*
X3649575Y16157610D01*
X3540716Y16048751D01*
X3399762Y16048751D01*
X3353840Y15969691D01*
X1527000Y15969691D01*
X1527000Y16323000D01*
X2874119Y16323000D01*
X2900000Y16320451D01*
X2925881Y16323000D01*
X3003310Y16330626D01*
X3102650Y16360761D01*
X3127065Y16373811D01*
X3353840Y16373811D01*
X3399762Y16294751D01*
X3540716Y16294751D01*
X3649575Y16185892D01*
X3829183Y16365500D01*
X3857465Y16365500D01*
X4037073Y16185892D01*
X4145932Y16294751D01*
X4286886Y16294751D01*
X4332808Y16373811D01*
X4295324Y16444143D01*
X4313443Y16462262D01*
X4382547Y16425218D01*
X4383726Y16424730D01*
X4462786Y16470652D01*
X4462786Y16611606D01*
X4571645Y16720465D01*
X4599927Y16720465D01*
X4708786Y16611606D01*
X4708786Y16470652D01*
X4775326Y16432002D01*
X4813976Y16365462D01*
X4954930Y16365462D01*
X5063789Y16256603D01*
X5243397Y16436211D01*
X5271679Y16436211D01*
X5451287Y16256603D01*
X5560146Y16365462D01*
X5701100Y16365462D01*
X5747022Y16444522D01*
X5709538Y16514854D01*
X5727656Y16532972D01*
X5796761Y16495928D01*
X5797940Y16495440D01*
X5877000Y16541362D01*
X5877000Y16682316D01*
X5985859Y16791175D01*
X6014141Y16791175D01*
X6123000Y16682316D01*
X6123000Y16541362D01*
X6202060Y16495440D01*
X6272392Y16532924D01*
X6290510Y16514806D01*
X6253466Y16445701D01*
X6252978Y16444522D01*
X6298900Y16365462D01*
X6439854Y16365462D01*
X6548713Y16256603D01*
X6728321Y16436211D01*
X6756603Y16436211D01*
X6936211Y16256603D01*
X7045070Y16365462D01*
X7186024Y16365462D01*
X7224674Y16432002D01*
X7291214Y16470652D01*
X7291214Y16611606D01*
X7400073Y16720465D01*
X7428355Y16720465D01*
X7537214Y16611606D01*
X7537214Y16470652D01*
X7616274Y16424730D01*
X7686606Y16462214D01*
X7692859Y16455961D01*
X7692858Y16455961D01*
X7704724Y16444095D01*
X7667680Y16374990D01*
X7667192Y16373811D01*
X7713114Y16294751D01*
X7854068Y16294751D01*
X7962927Y16185892D01*
X8142535Y16365500D01*
X8170817Y16365500D01*
X8350425Y16185892D01*
X8459284Y16294751D01*
X8600238Y16294751D01*
X8646160Y16373811D01*
X8608676Y16444143D01*
X8620494Y16455961D01*
X8535494Y16540961D01*
X8531575Y16545748D01*
X8526679Y16549776D01*
X8440886Y16635569D01*
X8429020Y16623703D01*
X8359915Y16660747D01*
X8358736Y16661235D01*
X8279676Y16615313D01*
X8279676Y16474359D01*
X8170817Y16365500D01*
X8142535Y16365500D01*
X8033676Y16474359D01*
X8033676Y16615313D01*
X7954616Y16661235D01*
X7884284Y16623751D01*
X7878032Y16630003D01*
X7878032Y16630004D01*
X7866166Y16641870D01*
X7903210Y16710975D01*
X7903698Y16712154D01*
X7857776Y16791214D01*
X7716822Y16791214D01*
X7607963Y16900073D01*
X7428355Y16720465D01*
X7400073Y16720465D01*
X7220465Y16900073D01*
X7111606Y16791214D01*
X6970652Y16791214D01*
X6932002Y16724674D01*
X6865462Y16686024D01*
X6865462Y16545070D01*
X6756603Y16436211D01*
X6728321Y16436211D01*
X6619462Y16545070D01*
X6619462Y16686024D01*
X6540402Y16731946D01*
X6470070Y16694462D01*
X6451952Y16712580D01*
X6488996Y16781685D01*
X6489484Y16782864D01*
X6443562Y16861924D01*
X6302608Y16861924D01*
X6193749Y16970783D01*
X6014141Y16791175D01*
X5985859Y16791175D01*
X5806251Y16970783D01*
X5697392Y16861924D01*
X5556438Y16861924D01*
X5510516Y16782864D01*
X5548000Y16712532D01*
X5529882Y16694414D01*
X5460777Y16731458D01*
X5459598Y16731946D01*
X5380538Y16686024D01*
X5380538Y16545070D01*
X5271679Y16436211D01*
X5243397Y16436211D01*
X5134538Y16545070D01*
X5134538Y16686024D01*
X5067998Y16724674D01*
X5029348Y16791214D01*
X4888394Y16791214D01*
X4779535Y16900073D01*
X4599927Y16720465D01*
X4571645Y16720465D01*
X4392037Y16900073D01*
X4283178Y16791214D01*
X4142224Y16791214D01*
X4096302Y16712154D01*
X4133786Y16641822D01*
X4121968Y16630004D01*
X4121969Y16630003D01*
X4115668Y16623702D01*
X4046563Y16660747D01*
X4045384Y16661235D01*
X3966324Y16615313D01*
X3966324Y16474359D01*
X3857465Y16365500D01*
X3829183Y16365500D01*
X3720324Y16474359D01*
X3720324Y16615313D01*
X3641264Y16661235D01*
X3570932Y16623751D01*
X3559114Y16635569D01*
X3474114Y16550569D01*
X3469327Y16546650D01*
X3465299Y16541754D01*
X3379506Y16455961D01*
X3391372Y16444095D01*
X3354328Y16374990D01*
X3353840Y16373811D01*
X3127065Y16373811D01*
X3194202Y16409696D01*
X3274448Y16475552D01*
X3290955Y16495666D01*
X3911563Y17116274D01*
X4096302Y17116274D01*
X4142224Y17037214D01*
X4283178Y17037214D01*
X4392037Y16928355D01*
X4571645Y17107963D01*
X4599927Y17107963D01*
X4779535Y16928355D01*
X4888394Y17037214D01*
X5029348Y17037214D01*
X5075270Y17116274D01*
X5037786Y17186605D01*
X5055905Y17204724D01*
X5125010Y17167680D01*
X5126189Y17167192D01*
X5205249Y17213114D01*
X5205249Y17354068D01*
X5314108Y17462927D01*
X5342390Y17462927D01*
X5451249Y17354068D01*
X5451249Y17213114D01*
X5517788Y17174465D01*
X5556438Y17107924D01*
X5697392Y17107924D01*
X5806251Y16999065D01*
X5985859Y17178673D01*
X6014141Y17178673D01*
X6193749Y16999065D01*
X6302608Y17107924D01*
X6443562Y17107924D01*
X6482212Y17174465D01*
X6548751Y17213114D01*
X6548751Y17354067D01*
X6657610Y17462927D01*
X6685892Y17462927D01*
X6794751Y17354068D01*
X6794751Y17213114D01*
X6873811Y17167192D01*
X6944143Y17204676D01*
X6955961Y17192858D01*
X6955962Y17192858D01*
X6962262Y17186558D01*
X6925218Y17117453D01*
X6924730Y17116274D01*
X6970652Y17037214D01*
X7111606Y17037214D01*
X7220465Y16928355D01*
X7400073Y17107963D01*
X7428355Y17107963D01*
X7607963Y16928355D01*
X7716822Y17037214D01*
X7857776Y17037214D01*
X7903698Y17116274D01*
X7866214Y17186606D01*
X7878032Y17198424D01*
X7793032Y17283424D01*
X7789113Y17288211D01*
X7784217Y17292239D01*
X7698424Y17378032D01*
X7686558Y17366166D01*
X7617453Y17403210D01*
X7616274Y17403698D01*
X7537214Y17357776D01*
X7537214Y17216822D01*
X7428355Y17107963D01*
X7400073Y17107963D01*
X7291214Y17216822D01*
X7291214Y17357776D01*
X7212154Y17403698D01*
X7141822Y17366214D01*
X7130004Y17378032D01*
X7130004Y17378031D01*
X7123703Y17384332D01*
X7160747Y17453437D01*
X7161235Y17454616D01*
X7115313Y17533676D01*
X6974359Y17533676D01*
X6865500Y17642535D01*
X6685892Y17462927D01*
X6657610Y17462927D01*
X6478002Y17642535D01*
X6369143Y17533676D01*
X6228189Y17533676D01*
X6189539Y17467135D01*
X6123000Y17428486D01*
X6123000Y17287531D01*
X6014141Y17178673D01*
X5985859Y17178673D01*
X5877000Y17287532D01*
X5877000Y17428486D01*
X5810461Y17467135D01*
X5771811Y17533676D01*
X5630857Y17533676D01*
X5521998Y17642535D01*
X5342390Y17462927D01*
X5314108Y17462927D01*
X5134500Y17642535D01*
X5025641Y17533676D01*
X4884687Y17533676D01*
X4838765Y17454616D01*
X4876249Y17384283D01*
X4869997Y17378031D01*
X4869996Y17378032D01*
X4858130Y17366166D01*
X4789025Y17403210D01*
X4787846Y17403698D01*
X4708786Y17357776D01*
X4708786Y17216822D01*
X4599927Y17107963D01*
X4571645Y17107963D01*
X4462786Y17216822D01*
X4462786Y17357776D01*
X4383726Y17403698D01*
X4313394Y17366214D01*
X4301576Y17378032D01*
X4216576Y17293032D01*
X4211789Y17289113D01*
X4207761Y17284217D01*
X4121968Y17198424D01*
X4133834Y17186558D01*
X4096790Y17117453D01*
X4096302Y17116274D01*
X3911563Y17116274D01*
X4654025Y17858736D01*
X4838765Y17858736D01*
X4884687Y17779676D01*
X5025641Y17779676D01*
X5134500Y17670817D01*
X5314108Y17850425D01*
X5342390Y17850425D01*
X5521998Y17670817D01*
X5630857Y17779676D01*
X5771811Y17779676D01*
X5817733Y17858736D01*
X6182267Y17858736D01*
X6228189Y17779676D01*
X6369143Y17779676D01*
X6478002Y17670817D01*
X6657610Y17850425D01*
X6685892Y17850425D01*
X6865500Y17670817D01*
X6974359Y17779676D01*
X7115313Y17779676D01*
X7161235Y17858736D01*
X7123751Y17929068D01*
X7135569Y17940886D01*
X7050569Y18025886D01*
X7046650Y18030673D01*
X7041754Y18034701D01*
X6955961Y18120494D01*
X6944095Y18108628D01*
X6874990Y18145672D01*
X6873811Y18146160D01*
X6794751Y18100238D01*
X6794751Y17959284D01*
X6685892Y17850425D01*
X6657610Y17850425D01*
X6548751Y17959284D01*
X6548751Y18100238D01*
X6469691Y18146160D01*
X6399359Y18108676D01*
X6387541Y18120494D01*
X6302541Y18035494D01*
X6297754Y18031575D01*
X6293726Y18026679D01*
X6207933Y17940886D01*
X6219799Y17929020D01*
X6182755Y17859915D01*
X6182267Y17858736D01*
X5817733Y17858736D01*
X5780249Y17929068D01*
X5792067Y17940886D01*
X5707067Y18025886D01*
X5703148Y18030673D01*
X5698252Y18034701D01*
X5612459Y18120494D01*
X5600593Y18108628D01*
X5531488Y18145672D01*
X5530309Y18146160D01*
X5451249Y18100238D01*
X5451249Y17959284D01*
X5342390Y17850425D01*
X5314108Y17850425D01*
X5205249Y17959284D01*
X5205249Y18100238D01*
X5126189Y18146160D01*
X5055857Y18108676D01*
X5044039Y18120494D01*
X4959039Y18035494D01*
X4954252Y18031575D01*
X4950224Y18026679D01*
X4864431Y17940886D01*
X4876297Y17929020D01*
X4839253Y17859915D01*
X4838765Y17858736D01*
X4654025Y17858736D01*
X5418290Y18623000D01*
X8306711Y18623000D01*
X8537038Y18392673D01*
X8547095Y18342111D01*
X8594360Y18228004D01*
X8662977Y18125311D01*
X8750311Y18037977D01*
X8853004Y17969360D01*
X8967111Y17922095D01*
X9017672Y17912038D01*
X9123001Y17806709D01*
X9123000Y10525881D01*
X9120451Y10500000D01*
X9123000Y10474120D01*
X9130626Y10396691D01*
X9160761Y10297351D01*
X9209696Y10205798D01*
X9275552Y10125552D01*
X9295666Y10109045D01*
X10807743Y8596967D01*
X10062777Y7852000D01*
X9188152Y7852000D01*
X9255640Y7953004D01*
X9302905Y8067111D01*
X9327000Y8188246D01*
X9327000Y8311754D01*
X9302905Y8432889D01*
X9255640Y8546996D01*
X9187023Y8649689D01*
X9099689Y8737023D01*
X8996996Y8805640D01*
X8882889Y8852905D01*
X8761754Y8877000D01*
X8638246Y8877000D01*
X8517111Y8852905D01*
X8403004Y8805640D01*
X8300311Y8737023D01*
X8212977Y8649689D01*
X8144360Y8546996D01*
X8097095Y8432889D01*
X8073000Y8311754D01*
X8073000Y8188246D01*
X8097095Y8067111D01*
X8144360Y7953004D01*
X8179380Y7900593D01*
X8096996Y7955640D01*
X7982889Y8002905D01*
X7861754Y8027000D01*
X7738246Y8027000D01*
X7617111Y8002905D01*
X7503004Y7955640D01*
X7400311Y7887023D01*
X7312977Y7799689D01*
X7244360Y7696996D01*
X7197095Y7582889D01*
X7173000Y7461754D01*
X7173000Y7338246D01*
X7197095Y7217111D01*
X7244360Y7103004D01*
X7312977Y7000311D01*
X7400311Y6912977D01*
X7503004Y6844360D01*
X7617111Y6797095D01*
X7738246Y6773000D01*
X7861754Y6773000D01*
X7982889Y6797095D01*
X8096996Y6844360D01*
X8199689Y6912977D01*
X8234712Y6948000D01*
X10020013Y6948000D01*
X10002417Y6946267D01*
X9884545Y6910510D01*
X9775913Y6852446D01*
X9680697Y6774303D01*
X9602554Y6679087D01*
X9544490Y6570455D01*
X9508733Y6452583D01*
X9496660Y6330000D01*
X9496660Y4930000D01*
X9508733Y4807417D01*
X9544490Y4689545D01*
X9602554Y4580913D01*
X9680697Y4485697D01*
X9775913Y4407554D01*
X9884545Y4349490D01*
X10002417Y4313733D01*
X10125000Y4301660D01*
X10825000Y4301660D01*
X10947583Y4313733D01*
X11065455Y4349490D01*
X11174087Y4407554D01*
X11269303Y4485697D01*
X11347446Y4580913D01*
X11405510Y4689545D01*
X11441267Y4807417D01*
X11453340Y4930000D01*
X11453340Y5159292D01*
X11498000Y5159292D01*
X11498000Y5040708D01*
X11521134Y4924403D01*
X11566514Y4814846D01*
X11632396Y4716247D01*
X11716247Y4632396D01*
X11814846Y4566514D01*
X11924403Y4521134D01*
X12040708Y4498000D01*
X12159292Y4498000D01*
X12275597Y4521134D01*
X12385154Y4566514D01*
X12483753Y4632396D01*
X12567604Y4716247D01*
X12633486Y4814846D01*
X12678866Y4924403D01*
X12681322Y4936754D01*
X13448000Y4936754D01*
X13448000Y4813246D01*
X13472095Y4692111D01*
X13519360Y4578004D01*
X13587977Y4475311D01*
X13675311Y4387977D01*
X13778004Y4319360D01*
X13892111Y4272095D01*
X14013246Y4248000D01*
X14136754Y4248000D01*
X14257889Y4272095D01*
X14371996Y4319360D01*
X14474689Y4387977D01*
X14500000Y4413288D01*
X14525311Y4387977D01*
X14628004Y4319360D01*
X14742111Y4272095D01*
X14863246Y4248000D01*
X14986754Y4248000D01*
X15107889Y4272095D01*
X15221996Y4319360D01*
X15324689Y4387977D01*
X15412023Y4475311D01*
X15480640Y4578004D01*
X15527905Y4692111D01*
X15552000Y4813246D01*
X15552000Y4936754D01*
X15527905Y5057889D01*
X15485903Y5159292D01*
X17298000Y5159292D01*
X17298000Y5040708D01*
X17321134Y4924403D01*
X17366514Y4814846D01*
X17432396Y4716247D01*
X17516247Y4632396D01*
X17614846Y4566514D01*
X17724403Y4521134D01*
X17840708Y4498000D01*
X17959292Y4498000D01*
X18075597Y4521134D01*
X18185154Y4566514D01*
X18283753Y4632396D01*
X18367604Y4716247D01*
X18433486Y4814846D01*
X18478866Y4924403D01*
X18502000Y5040708D01*
X18502000Y5159292D01*
X18478866Y5275597D01*
X18433486Y5385154D01*
X18367604Y5483753D01*
X18283753Y5567604D01*
X18185154Y5633486D01*
X18075597Y5678866D01*
X17959292Y5702000D01*
X17840708Y5702000D01*
X17724403Y5678866D01*
X17614846Y5633486D01*
X17516247Y5567604D01*
X17432396Y5483753D01*
X17366514Y5385154D01*
X17321134Y5275597D01*
X17298000Y5159292D01*
X15485903Y5159292D01*
X15480640Y5171996D01*
X15412023Y5274689D01*
X15324689Y5362023D01*
X15221996Y5430640D01*
X15107889Y5477905D01*
X14986754Y5502000D01*
X14863246Y5502000D01*
X14742111Y5477905D01*
X14628004Y5430640D01*
X14525311Y5362023D01*
X14500000Y5336712D01*
X14474689Y5362023D01*
X14371996Y5430640D01*
X14257889Y5477905D01*
X14136754Y5502000D01*
X14013246Y5502000D01*
X13892111Y5477905D01*
X13778004Y5430640D01*
X13675311Y5362023D01*
X13587977Y5274689D01*
X13519360Y5171996D01*
X13472095Y5057889D01*
X13448000Y4936754D01*
X12681322Y4936754D01*
X12702000Y5040708D01*
X12702000Y5159292D01*
X12678866Y5275597D01*
X12633486Y5385154D01*
X12567604Y5483753D01*
X12483753Y5567604D01*
X12385154Y5633486D01*
X12275597Y5678866D01*
X12159292Y5702000D01*
X12040708Y5702000D01*
X11924403Y5678866D01*
X11814846Y5633486D01*
X11716247Y5567604D01*
X11632396Y5483753D01*
X11566514Y5385154D01*
X11521134Y5275597D01*
X11498000Y5159292D01*
X11453340Y5159292D01*
X11453340Y6330000D01*
X18546660Y6330000D01*
X18546660Y4930000D01*
X18558733Y4807417D01*
X18594490Y4689545D01*
X18652554Y4580913D01*
X18730697Y4485697D01*
X18825913Y4407554D01*
X18934545Y4349490D01*
X19052417Y4313733D01*
X19175000Y4301660D01*
X19875000Y4301660D01*
X19997583Y4313733D01*
X20115455Y4349490D01*
X20224087Y4407554D01*
X20319303Y4485697D01*
X20397446Y4580913D01*
X20455510Y4689545D01*
X20491267Y4807417D01*
X20503340Y4930000D01*
X20503340Y6330000D01*
X20491267Y6452583D01*
X20455510Y6570455D01*
X20397446Y6679087D01*
X20319303Y6774303D01*
X20224087Y6852446D01*
X20115455Y6910510D01*
X19997583Y6946267D01*
X19875000Y6958340D01*
X19175000Y6958340D01*
X19052417Y6946267D01*
X18934545Y6910510D01*
X18825913Y6852446D01*
X18730697Y6774303D01*
X18652554Y6679087D01*
X18594490Y6570455D01*
X18558733Y6452583D01*
X18546660Y6330000D01*
X11453340Y6330000D01*
X11441267Y6452583D01*
X11405510Y6570455D01*
X11347446Y6679087D01*
X11269303Y6774303D01*
X11174087Y6852446D01*
X11065455Y6910510D01*
X10947583Y6946267D01*
X10825000Y6958340D01*
X10351134Y6958340D01*
X10423810Y6980386D01*
X10502333Y7022357D01*
X10571159Y7078841D01*
X10585323Y7096100D01*
X11220026Y7730803D01*
X18937124Y7730803D01*
X18937124Y7597445D01*
X18963140Y7466650D01*
X19014174Y7343444D01*
X19088264Y7232561D01*
X19182561Y7138264D01*
X19293444Y7064174D01*
X19416650Y7013140D01*
X19547445Y6987124D01*
X19680803Y6987124D01*
X19811598Y7013140D01*
X19934804Y7064174D01*
X20045687Y7138264D01*
X20139984Y7232561D01*
X20214074Y7343444D01*
X20265108Y7466650D01*
X20291124Y7597445D01*
X20291124Y7658876D01*
X20352555Y7658876D01*
X20483350Y7684892D01*
X20606556Y7735926D01*
X20717439Y7810016D01*
X20811736Y7904313D01*
X20885826Y8015196D01*
X20936860Y8138402D01*
X20962876Y8269197D01*
X20962876Y8402555D01*
X20936860Y8533350D01*
X20885826Y8656556D01*
X20811736Y8767439D01*
X20717439Y8861736D01*
X20606556Y8935826D01*
X20483350Y8986860D01*
X20352555Y9012876D01*
X20219197Y9012876D01*
X20088402Y8986860D01*
X19965196Y8935826D01*
X19854313Y8861736D01*
X19760016Y8767439D01*
X19685926Y8656556D01*
X19634892Y8533350D01*
X19608876Y8402555D01*
X19608876Y8341124D01*
X19547445Y8341124D01*
X19416650Y8315108D01*
X19293444Y8264074D01*
X19182561Y8189984D01*
X19088264Y8095687D01*
X19014174Y7984804D01*
X18963140Y7861598D01*
X18937124Y7730803D01*
X11220026Y7730803D01*
X11462224Y7973000D01*
X11566679Y7973000D01*
X11697474Y7999016D01*
X11820680Y8050050D01*
X11931563Y8124140D01*
X12025860Y8218437D01*
X12099950Y8329320D01*
X12150984Y8452526D01*
X12159043Y8493042D01*
X12689001Y9023000D01*
X21760999Y9023000D01*
X21840957Y8943042D01*
X21849016Y8902526D01*
X21900050Y8779320D01*
X21973000Y8670143D01*
X21973001Y5035891D01*
X21970451Y5010000D01*
X21980626Y4906691D01*
X22010761Y4807351D01*
X22010762Y4807350D01*
X22059697Y4715798D01*
X22125553Y4635552D01*
X22145662Y4619049D01*
X24629141Y2135568D01*
X24626310Y2128734D01*
X24583000Y1911000D01*
X24583000Y1689000D01*
X24626310Y1471266D01*
X24711266Y1266165D01*
X24834602Y1081579D01*
X24991579Y924602D01*
X25176165Y801266D01*
X25381266Y716310D01*
X25599000Y673000D01*
X25821000Y673000D01*
X26038734Y716310D01*
X26243835Y801266D01*
X26428421Y924602D01*
X26453819Y950000D01*
X27121660Y950000D01*
X27127008Y895699D01*
X27142847Y843484D01*
X27168569Y795363D01*
X27203184Y753184D01*
X27245363Y718569D01*
X27293484Y692847D01*
X27345699Y677008D01*
X27400000Y671660D01*
X28053750Y673000D01*
X28123000Y742250D01*
X28123000Y1673000D01*
X28377000Y1673000D01*
X28377000Y742250D01*
X28446250Y673000D01*
X29100000Y671660D01*
X29154301Y677008D01*
X29206516Y692847D01*
X29254637Y718569D01*
X29296816Y753184D01*
X29331431Y795363D01*
X29357153Y843484D01*
X29372992Y895699D01*
X29378340Y950000D01*
X29377000Y1603750D01*
X29307750Y1673000D01*
X28377000Y1673000D01*
X28123000Y1673000D01*
X27192250Y1673000D01*
X27123000Y1603750D01*
X27121660Y950000D01*
X26453819Y950000D01*
X26585398Y1081579D01*
X26708734Y1266165D01*
X26793690Y1471266D01*
X26837000Y1689000D01*
X26837000Y1911000D01*
X26793690Y2128734D01*
X26708734Y2333835D01*
X26585398Y2518421D01*
X26453819Y2650000D01*
X27121660Y2650000D01*
X27123000Y1996250D01*
X27192250Y1927000D01*
X28123000Y1927000D01*
X28123000Y2857750D01*
X28377000Y2857750D01*
X28377000Y1927000D01*
X29307750Y1927000D01*
X29377000Y1996250D01*
X29378340Y2650000D01*
X29372992Y2704301D01*
X29357153Y2756516D01*
X29331431Y2804637D01*
X29296816Y2846816D01*
X29254637Y2881431D01*
X29206516Y2907153D01*
X29154301Y2922992D01*
X29100000Y2928340D01*
X28446250Y2927000D01*
X28377000Y2857750D01*
X28123000Y2857750D01*
X28053750Y2927000D01*
X27400000Y2928340D01*
X27345699Y2922992D01*
X27293484Y2907153D01*
X27245363Y2881431D01*
X27203184Y2846816D01*
X27168569Y2804637D01*
X27142847Y2756516D01*
X27127008Y2704301D01*
X27121660Y2650000D01*
X26453819Y2650000D01*
X26428421Y2675398D01*
X26243835Y2798734D01*
X26038734Y2883690D01*
X25821000Y2927000D01*
X25599000Y2927000D01*
X25381266Y2883690D01*
X25374432Y2880859D01*
X23027000Y5228289D01*
X23027000Y8670143D01*
X23099950Y8779320D01*
X23150984Y8902526D01*
X23177000Y9033321D01*
X23177000Y9166679D01*
X23150984Y9297474D01*
X23099950Y9420680D01*
X23025860Y9531563D01*
X22931563Y9625860D01*
X22820680Y9699950D01*
X22697474Y9750984D01*
X22656958Y9759043D01*
X22452000Y9964001D01*
X22452000Y11602795D01*
X22454187Y11625000D01*
X22445460Y11713608D01*
X22419614Y11798810D01*
X22419144Y11799689D01*
X22377643Y11877333D01*
X22321159Y11946159D01*
X22303906Y11960318D01*
X21602000Y12662223D01*
X21602000Y15415288D01*
X21637023Y15450311D01*
X21705640Y15553004D01*
X21752905Y15667111D01*
X21777000Y15788246D01*
X21777000Y15911754D01*
X21752905Y16032889D01*
X21705640Y16146996D01*
X21637023Y16249689D01*
X21549689Y16337023D01*
X21446996Y16405640D01*
X21332889Y16452905D01*
X21211754Y16477000D01*
X21088246Y16477000D01*
X20967111Y16452905D01*
X20853004Y16405640D01*
X20750311Y16337023D01*
X20662977Y16249689D01*
X20594360Y16146996D01*
X20547095Y16032889D01*
X20523000Y15911754D01*
X20523000Y15788246D01*
X20547095Y15667111D01*
X20594360Y15553004D01*
X20662977Y15450311D01*
X20698000Y15415288D01*
X20698001Y12497215D01*
X20695813Y12475000D01*
X20704540Y12386393D01*
X20730386Y12301191D01*
X20764031Y12238246D01*
X20772358Y12222667D01*
X20828842Y12153841D01*
X20846096Y12139681D01*
X21548000Y11437776D01*
X21548001Y10177000D01*
X12977000Y10177000D01*
X12977000Y13261754D01*
X13473000Y13261754D01*
X13473000Y13138246D01*
X13497095Y13017111D01*
X13544360Y12903004D01*
X13612977Y12800311D01*
X13700311Y12712977D01*
X13803004Y12644360D01*
X13917111Y12597095D01*
X14038246Y12573000D01*
X14148000Y12573000D01*
X14148000Y12463246D01*
X14172095Y12342111D01*
X14219360Y12228004D01*
X14287977Y12125311D01*
X14375311Y12037977D01*
X14478004Y11969360D01*
X14592111Y11922095D01*
X14713246Y11898000D01*
X14836754Y11898000D01*
X14957889Y11922095D01*
X15071996Y11969360D01*
X15174689Y12037977D01*
X15262023Y12125311D01*
X15330640Y12228004D01*
X15377905Y12342111D01*
X15402000Y12463246D01*
X15402000Y12586754D01*
X15377905Y12707889D01*
X15330640Y12821996D01*
X15262023Y12924689D01*
X15174689Y13012023D01*
X15100262Y13061754D01*
X17573000Y13061754D01*
X17573000Y12938246D01*
X17597095Y12817111D01*
X17644360Y12703004D01*
X17712977Y12600311D01*
X17800311Y12512977D01*
X17903004Y12444360D01*
X18017111Y12397095D01*
X18138246Y12373000D01*
X18261754Y12373000D01*
X18382889Y12397095D01*
X18496996Y12444360D01*
X18599689Y12512977D01*
X18687023Y12600311D01*
X18755640Y12703004D01*
X18802905Y12817111D01*
X18827000Y12938246D01*
X18827000Y13061754D01*
X18802905Y13182889D01*
X18755640Y13296996D01*
X18687023Y13399689D01*
X18599689Y13487023D01*
X18496996Y13555640D01*
X18382889Y13602905D01*
X18261754Y13627000D01*
X18138246Y13627000D01*
X18017111Y13602905D01*
X17903004Y13555640D01*
X17800311Y13487023D01*
X17712977Y13399689D01*
X17644360Y13296996D01*
X17597095Y13182889D01*
X17573000Y13061754D01*
X15100262Y13061754D01*
X15071996Y13080640D01*
X14957889Y13127905D01*
X14836754Y13152000D01*
X14727000Y13152000D01*
X14727000Y13261754D01*
X14702905Y13382889D01*
X14655640Y13496996D01*
X14587023Y13599689D01*
X14499689Y13687023D01*
X14396996Y13755640D01*
X14282889Y13802905D01*
X14161754Y13827000D01*
X14038246Y13827000D01*
X13917111Y13802905D01*
X13803004Y13755640D01*
X13700311Y13687023D01*
X13612977Y13599689D01*
X13544360Y13496996D01*
X13497095Y13382889D01*
X13473000Y13261754D01*
X12977000Y13261754D01*
X12977000Y18225774D01*
X13523000Y18225774D01*
X13523000Y17974226D01*
X13572074Y17727513D01*
X13668337Y17495114D01*
X13808089Y17285960D01*
X13985960Y17108089D01*
X14195114Y16968337D01*
X14427513Y16872074D01*
X14674226Y16823000D01*
X14925774Y16823000D01*
X15172487Y16872074D01*
X15404886Y16968337D01*
X15614040Y17108089D01*
X15791911Y17285960D01*
X15931663Y17495114D01*
X15994991Y17648000D01*
X21662777Y17648000D01*
X23398000Y15912775D01*
X23398001Y12787226D01*
X22796100Y12185323D01*
X22778841Y12171159D01*
X22722357Y12102332D01*
X22687959Y12037977D01*
X22680386Y12023809D01*
X22654540Y11938607D01*
X22645813Y11850000D01*
X22648000Y11827795D01*
X22648001Y10322215D01*
X22645813Y10300000D01*
X22654540Y10211393D01*
X22680386Y10126191D01*
X22703965Y10082078D01*
X22722358Y10047667D01*
X22778842Y9978841D01*
X22796095Y9964681D01*
X23398001Y9362774D01*
X23398000Y6222205D01*
X23395813Y6200000D01*
X23398000Y6177796D01*
X23404540Y6111394D01*
X23430386Y6026191D01*
X23472357Y5947668D01*
X23528841Y5878841D01*
X23546100Y5864677D01*
X24660207Y4750569D01*
X24626310Y4668734D01*
X24583000Y4451000D01*
X24583000Y4229000D01*
X24626310Y4011266D01*
X24711266Y3806165D01*
X24834602Y3621579D01*
X24991579Y3464602D01*
X25176165Y3341266D01*
X25381266Y3256310D01*
X25599000Y3213000D01*
X25821000Y3213000D01*
X26038734Y3256310D01*
X26243835Y3341266D01*
X26428421Y3464602D01*
X26585398Y3621579D01*
X26708734Y3806165D01*
X26793690Y4011266D01*
X26799283Y4039385D01*
X27163833Y4039385D01*
X27179866Y3986508D01*
X27269391Y3784527D01*
X27396601Y3603893D01*
X27556606Y3451547D01*
X27743258Y3333344D01*
X27949384Y3253826D01*
X28123000Y3289422D01*
X28123000Y4213000D01*
X28377000Y4213000D01*
X28377000Y3289422D01*
X28550616Y3253826D01*
X28756742Y3333344D01*
X28943394Y3451547D01*
X29103399Y3603893D01*
X29230609Y3784527D01*
X29320134Y3986508D01*
X29336167Y4039385D01*
X29300098Y4213000D01*
X28377000Y4213000D01*
X28123000Y4213000D01*
X27199902Y4213000D01*
X27163833Y4039385D01*
X26799283Y4039385D01*
X26837000Y4229000D01*
X26837000Y4451000D01*
X26799284Y4640615D01*
X27163833Y4640615D01*
X27199902Y4467000D01*
X28123000Y4467000D01*
X28123000Y5390578D01*
X28377000Y5390578D01*
X28377000Y4467000D01*
X29300098Y4467000D01*
X29336167Y4640615D01*
X29320134Y4693492D01*
X29230609Y4895473D01*
X29103399Y5076107D01*
X28943394Y5228453D01*
X28756742Y5346656D01*
X28550616Y5426174D01*
X28377000Y5390578D01*
X28123000Y5390578D01*
X27949384Y5426174D01*
X27743258Y5346656D01*
X27556606Y5228453D01*
X27396601Y5076107D01*
X27269391Y4895473D01*
X27179866Y4693492D01*
X27163833Y4640615D01*
X26799284Y4640615D01*
X26793690Y4668734D01*
X26708734Y4873835D01*
X26585398Y5058421D01*
X26428421Y5215398D01*
X26243835Y5338734D01*
X26038734Y5423690D01*
X25821000Y5467000D01*
X25599000Y5467000D01*
X25381266Y5423690D01*
X25299431Y5389793D01*
X24302000Y6387223D01*
X24302000Y6991000D01*
X24583000Y6991000D01*
X24583000Y6769000D01*
X24626310Y6551266D01*
X24711266Y6346165D01*
X24834602Y6161579D01*
X24991579Y6004602D01*
X25176165Y5881266D01*
X25381266Y5796310D01*
X25599000Y5753000D01*
X25821000Y5753000D01*
X26038734Y5796310D01*
X26243835Y5881266D01*
X26428421Y6004602D01*
X26585398Y6161579D01*
X26708734Y6346165D01*
X26793690Y6551266D01*
X26837000Y6769000D01*
X26837000Y6991000D01*
X27123000Y6991000D01*
X27123000Y6769000D01*
X27166310Y6551266D01*
X27251266Y6346165D01*
X27374602Y6161579D01*
X27531579Y6004602D01*
X27716165Y5881266D01*
X27921266Y5796310D01*
X28139000Y5753000D01*
X28361000Y5753000D01*
X28578734Y5796310D01*
X28783835Y5881266D01*
X28968421Y6004602D01*
X29125398Y6161579D01*
X29248734Y6346165D01*
X29333690Y6551266D01*
X29377000Y6769000D01*
X29377000Y6991000D01*
X29333690Y7208734D01*
X29248734Y7413835D01*
X29125398Y7598421D01*
X28968421Y7755398D01*
X28783835Y7878734D01*
X28578734Y7963690D01*
X28361000Y8007000D01*
X28139000Y8007000D01*
X27921266Y7963690D01*
X27716165Y7878734D01*
X27531579Y7755398D01*
X27374602Y7598421D01*
X27251266Y7413835D01*
X27166310Y7208734D01*
X27123000Y6991000D01*
X26837000Y6991000D01*
X26793690Y7208734D01*
X26708734Y7413835D01*
X26585398Y7598421D01*
X26428421Y7755398D01*
X26243835Y7878734D01*
X26038734Y7963690D01*
X25821000Y8007000D01*
X25599000Y8007000D01*
X25381266Y7963690D01*
X25176165Y7878734D01*
X24991579Y7755398D01*
X24834602Y7598421D01*
X24711266Y7413835D01*
X24626310Y7208734D01*
X24583000Y6991000D01*
X24302000Y6991000D01*
X24302000Y9527796D01*
X24302315Y9531000D01*
X24583000Y9531000D01*
X24583000Y9309000D01*
X24626310Y9091266D01*
X24711266Y8886165D01*
X24834602Y8701579D01*
X24991579Y8544602D01*
X25176165Y8421266D01*
X25381266Y8336310D01*
X25599000Y8293000D01*
X25821000Y8293000D01*
X26038734Y8336310D01*
X26243835Y8421266D01*
X26428421Y8544602D01*
X26585398Y8701579D01*
X26708734Y8886165D01*
X26793690Y9091266D01*
X26837000Y9309000D01*
X26837000Y9531000D01*
X27123000Y9531000D01*
X27123000Y9309000D01*
X27166310Y9091266D01*
X27251266Y8886165D01*
X27374602Y8701579D01*
X27531579Y8544602D01*
X27716165Y8421266D01*
X27921266Y8336310D01*
X28139000Y8293000D01*
X28361000Y8293000D01*
X28578734Y8336310D01*
X28783835Y8421266D01*
X28968421Y8544602D01*
X29125398Y8701579D01*
X29248734Y8886165D01*
X29333690Y9091266D01*
X29377000Y9309000D01*
X29377000Y9531000D01*
X29333690Y9748734D01*
X29248734Y9953835D01*
X29125398Y10138421D01*
X28968421Y10295398D01*
X28783835Y10418734D01*
X28578734Y10503690D01*
X28361000Y10547000D01*
X28139000Y10547000D01*
X27921266Y10503690D01*
X27716165Y10418734D01*
X27531579Y10295398D01*
X27374602Y10138421D01*
X27251266Y9953835D01*
X27166310Y9748734D01*
X27123000Y9531000D01*
X26837000Y9531000D01*
X26793690Y9748734D01*
X26708734Y9953835D01*
X26585398Y10138421D01*
X26428421Y10295398D01*
X26243835Y10418734D01*
X26038734Y10503690D01*
X25821000Y10547000D01*
X25599000Y10547000D01*
X25381266Y10503690D01*
X25176165Y10418734D01*
X24991579Y10295398D01*
X24834602Y10138421D01*
X24711266Y9953835D01*
X24626310Y9748734D01*
X24583000Y9531000D01*
X24302315Y9531000D01*
X24304187Y9550001D01*
X24295460Y9638608D01*
X24269614Y9723810D01*
X24255089Y9750984D01*
X24227643Y9802333D01*
X24171159Y9871159D01*
X24153910Y9885315D01*
X23552000Y10487223D01*
X23552000Y11662777D01*
X23960224Y12071000D01*
X24583000Y12071000D01*
X24583000Y11849000D01*
X24626310Y11631266D01*
X24711266Y11426165D01*
X24834602Y11241579D01*
X24991579Y11084602D01*
X25176165Y10961266D01*
X25381266Y10876310D01*
X25599000Y10833000D01*
X25821000Y10833000D01*
X26038734Y10876310D01*
X26243835Y10961266D01*
X26428421Y11084602D01*
X26585398Y11241579D01*
X26708734Y11426165D01*
X26793690Y11631266D01*
X26837000Y11849000D01*
X26837000Y12071000D01*
X27123000Y12071000D01*
X27123000Y11849000D01*
X27166310Y11631266D01*
X27251266Y11426165D01*
X27374602Y11241579D01*
X27531579Y11084602D01*
X27716165Y10961266D01*
X27921266Y10876310D01*
X28139000Y10833000D01*
X28361000Y10833000D01*
X28578734Y10876310D01*
X28783835Y10961266D01*
X28968421Y11084602D01*
X29125398Y11241579D01*
X29248734Y11426165D01*
X29333690Y11631266D01*
X29377000Y11849000D01*
X29377000Y12071000D01*
X29333690Y12288734D01*
X29248734Y12493835D01*
X29125398Y12678421D01*
X28968421Y12835398D01*
X28783835Y12958734D01*
X28578734Y13043690D01*
X28361000Y13087000D01*
X28139000Y13087000D01*
X27921266Y13043690D01*
X27716165Y12958734D01*
X27531579Y12835398D01*
X27374602Y12678421D01*
X27251266Y12493835D01*
X27166310Y12288734D01*
X27123000Y12071000D01*
X26837000Y12071000D01*
X26793690Y12288734D01*
X26708734Y12493835D01*
X26585398Y12678421D01*
X26428421Y12835398D01*
X26243835Y12958734D01*
X26038734Y13043690D01*
X25821000Y13087000D01*
X25599000Y13087000D01*
X25381266Y13043690D01*
X25176165Y12958734D01*
X24991579Y12835398D01*
X24834602Y12678421D01*
X24711266Y12493835D01*
X24626310Y12288734D01*
X24583000Y12071000D01*
X23960224Y12071000D01*
X24153910Y12264685D01*
X24171159Y12278841D01*
X24227643Y12347667D01*
X24269614Y12426190D01*
X24284420Y12475000D01*
X24295460Y12511392D01*
X24304187Y12599999D01*
X24302000Y12622204D01*
X24302000Y14611000D01*
X24583000Y14611000D01*
X24583000Y14389000D01*
X24626310Y14171266D01*
X24711266Y13966165D01*
X24834602Y13781579D01*
X24991579Y13624602D01*
X25176165Y13501266D01*
X25381266Y13416310D01*
X25599000Y13373000D01*
X25821000Y13373000D01*
X26038734Y13416310D01*
X26243835Y13501266D01*
X26428421Y13624602D01*
X26585398Y13781579D01*
X26708734Y13966165D01*
X26793690Y14171266D01*
X26837000Y14389000D01*
X26837000Y14611000D01*
X27123000Y14611000D01*
X27123000Y14389000D01*
X27166310Y14171266D01*
X27251266Y13966165D01*
X27374602Y13781579D01*
X27531579Y13624602D01*
X27716165Y13501266D01*
X27921266Y13416310D01*
X28139000Y13373000D01*
X28361000Y13373000D01*
X28578734Y13416310D01*
X28783835Y13501266D01*
X28968421Y13624602D01*
X29125398Y13781579D01*
X29248734Y13966165D01*
X29333690Y14171266D01*
X29377000Y14389000D01*
X29377000Y14611000D01*
X29333690Y14828734D01*
X29248734Y15033835D01*
X29125398Y15218421D01*
X28968421Y15375398D01*
X28783835Y15498734D01*
X28578734Y15583690D01*
X28361000Y15627000D01*
X28139000Y15627000D01*
X27921266Y15583690D01*
X27716165Y15498734D01*
X27531579Y15375398D01*
X27374602Y15218421D01*
X27251266Y15033835D01*
X27166310Y14828734D01*
X27123000Y14611000D01*
X26837000Y14611000D01*
X26793690Y14828734D01*
X26708734Y15033835D01*
X26585398Y15218421D01*
X26428421Y15375398D01*
X26243835Y15498734D01*
X26038734Y15583690D01*
X25821000Y15627000D01*
X25599000Y15627000D01*
X25381266Y15583690D01*
X25176165Y15498734D01*
X24991579Y15375398D01*
X24834602Y15218421D01*
X24711266Y15033835D01*
X24626310Y14828734D01*
X24583000Y14611000D01*
X24302000Y14611000D01*
X24302000Y16077796D01*
X24304187Y16100001D01*
X24295460Y16188608D01*
X24269614Y16273810D01*
X24244081Y16321579D01*
X24227643Y16352333D01*
X24171159Y16421159D01*
X24153912Y16435313D01*
X23438225Y17151000D01*
X24583000Y17151000D01*
X24583000Y16929000D01*
X24626310Y16711266D01*
X24711266Y16506165D01*
X24834602Y16321579D01*
X24991579Y16164602D01*
X25176165Y16041266D01*
X25381266Y15956310D01*
X25599000Y15913000D01*
X25821000Y15913000D01*
X26038734Y15956310D01*
X26243835Y16041266D01*
X26428421Y16164602D01*
X26585398Y16321579D01*
X26708734Y16506165D01*
X26793690Y16711266D01*
X26837000Y16929000D01*
X26837000Y17151000D01*
X27123000Y17151000D01*
X27123000Y16929000D01*
X27166310Y16711266D01*
X27251266Y16506165D01*
X27374602Y16321579D01*
X27531579Y16164602D01*
X27716165Y16041266D01*
X27921266Y15956310D01*
X28139000Y15913000D01*
X28361000Y15913000D01*
X28578734Y15956310D01*
X28783835Y16041266D01*
X28968421Y16164602D01*
X29125398Y16321579D01*
X29248734Y16506165D01*
X29333690Y16711266D01*
X29377000Y16929000D01*
X29377000Y17151000D01*
X29333690Y17368734D01*
X29248734Y17573835D01*
X29125398Y17758421D01*
X28968421Y17915398D01*
X28783835Y18038734D01*
X28578734Y18123690D01*
X28361000Y18167000D01*
X28139000Y18167000D01*
X27921266Y18123690D01*
X27716165Y18038734D01*
X27531579Y17915398D01*
X27374602Y17758421D01*
X27251266Y17573835D01*
X27166310Y17368734D01*
X27123000Y17151000D01*
X26837000Y17151000D01*
X26793690Y17368734D01*
X26708734Y17573835D01*
X26585398Y17758421D01*
X26428421Y17915398D01*
X26243835Y18038734D01*
X26038734Y18123690D01*
X25821000Y18167000D01*
X25599000Y18167000D01*
X25381266Y18123690D01*
X25176165Y18038734D01*
X24991579Y17915398D01*
X24834602Y17758421D01*
X24711266Y17573835D01*
X24626310Y17368734D01*
X24583000Y17151000D01*
X23438225Y17151000D01*
X22327000Y18262223D01*
X22327000Y18472817D01*
X22349689Y18487977D01*
X22437023Y18575311D01*
X22505640Y18678004D01*
X22552905Y18792111D01*
X22577000Y18913246D01*
X22577000Y19036754D01*
X22552905Y19157889D01*
X22505640Y19271996D01*
X22437023Y19374689D01*
X22349689Y19462023D01*
X22246996Y19530640D01*
X22132889Y19577905D01*
X22011754Y19602000D01*
X21902000Y19602000D01*
X21902000Y19691000D01*
X24583000Y19691000D01*
X24583000Y19469000D01*
X24626310Y19251266D01*
X24711266Y19046165D01*
X24834602Y18861579D01*
X24991579Y18704602D01*
X25176165Y18581266D01*
X25381266Y18496310D01*
X25599000Y18453000D01*
X25821000Y18453000D01*
X26038734Y18496310D01*
X26243835Y18581266D01*
X26428421Y18704602D01*
X26585398Y18861579D01*
X26708734Y19046165D01*
X26793690Y19251266D01*
X26837000Y19469000D01*
X26837000Y19691000D01*
X27123000Y19691000D01*
X27123000Y19469000D01*
X27166310Y19251266D01*
X27251266Y19046165D01*
X27374602Y18861579D01*
X27531579Y18704602D01*
X27716165Y18581266D01*
X27921266Y18496310D01*
X28139000Y18453000D01*
X28361000Y18453000D01*
X28578734Y18496310D01*
X28783835Y18581266D01*
X28968421Y18704602D01*
X29125398Y18861579D01*
X29248734Y19046165D01*
X29333690Y19251266D01*
X29377000Y19469000D01*
X29377000Y19691000D01*
X29333690Y19908734D01*
X29248734Y20113835D01*
X29125398Y20298421D01*
X28968421Y20455398D01*
X28783835Y20578734D01*
X28578734Y20663690D01*
X28361000Y20707000D01*
X28139000Y20707000D01*
X27921266Y20663690D01*
X27716165Y20578734D01*
X27531579Y20455398D01*
X27374602Y20298421D01*
X27251266Y20113835D01*
X27166310Y19908734D01*
X27123000Y19691000D01*
X26837000Y19691000D01*
X26793690Y19908734D01*
X26708734Y20113835D01*
X26585398Y20298421D01*
X26428421Y20455398D01*
X26243835Y20578734D01*
X26038734Y20663690D01*
X25821000Y20707000D01*
X25599000Y20707000D01*
X25381266Y20663690D01*
X25176165Y20578734D01*
X24991579Y20455398D01*
X24834602Y20298421D01*
X24711266Y20113835D01*
X24626310Y19908734D01*
X24583000Y19691000D01*
X21902000Y19691000D01*
X21902000Y19711754D01*
X21877905Y19832889D01*
X21830640Y19946996D01*
X21762023Y20049689D01*
X21674689Y20137023D01*
X21571996Y20205640D01*
X21457889Y20252905D01*
X21336754Y20277000D01*
X21213246Y20277000D01*
X21092111Y20252905D01*
X20978004Y20205640D01*
X20875311Y20137023D01*
X20787977Y20049689D01*
X20719360Y19946996D01*
X20672095Y19832889D01*
X20648000Y19711754D01*
X20648000Y19588246D01*
X20672095Y19467111D01*
X20719360Y19353004D01*
X20787977Y19250311D01*
X20875311Y19162977D01*
X20978004Y19094360D01*
X21092111Y19047095D01*
X21213246Y19023000D01*
X21323000Y19023000D01*
X21323000Y18913246D01*
X21347095Y18792111D01*
X21394360Y18678004D01*
X21462977Y18575311D01*
X21486288Y18552000D01*
X15994991Y18552000D01*
X15931663Y18704886D01*
X15791911Y18914040D01*
X15614040Y19091911D01*
X15404886Y19231663D01*
X15172487Y19327926D01*
X14925774Y19377000D01*
X14674226Y19377000D01*
X14427513Y19327926D01*
X14195114Y19231663D01*
X13985960Y19091911D01*
X13808089Y18914040D01*
X13668337Y18704886D01*
X13572074Y18472487D01*
X13523000Y18225774D01*
X12977000Y18225774D01*
X12977000Y19081711D01*
X13457043Y19561754D01*
X18723000Y19561754D01*
X18723000Y19438246D01*
X18747095Y19317111D01*
X18794360Y19203004D01*
X18862977Y19100311D01*
X18950311Y19012977D01*
X19053004Y18944360D01*
X19167111Y18897095D01*
X19288246Y18873000D01*
X19411754Y18873000D01*
X19532889Y18897095D01*
X19646996Y18944360D01*
X19749689Y19012977D01*
X19837023Y19100311D01*
X19905640Y19203004D01*
X19952905Y19317111D01*
X19977000Y19438246D01*
X19977000Y19561754D01*
X19952905Y19682889D01*
X19905640Y19796996D01*
X19837023Y19899689D01*
X19749689Y19987023D01*
X19646996Y20055640D01*
X19532889Y20102905D01*
X19411754Y20127000D01*
X19288246Y20127000D01*
X19167111Y20102905D01*
X19053004Y20055640D01*
X18950311Y19987023D01*
X18862977Y19899689D01*
X18794360Y19796996D01*
X18747095Y19682889D01*
X18723000Y19561754D01*
X13457043Y19561754D01*
X16126289Y22231000D01*
X24583000Y22231000D01*
X24583000Y22009000D01*
X24626310Y21791266D01*
X24711266Y21586165D01*
X24834602Y21401579D01*
X24991579Y21244602D01*
X25176165Y21121266D01*
X25381266Y21036310D01*
X25599000Y20993000D01*
X25821000Y20993000D01*
X26038734Y21036310D01*
X26243835Y21121266D01*
X26428421Y21244602D01*
X26585398Y21401579D01*
X26708734Y21586165D01*
X26793690Y21791266D01*
X26837000Y22009000D01*
X26837000Y22231000D01*
X27123000Y22231000D01*
X27123000Y22009000D01*
X27166310Y21791266D01*
X27251266Y21586165D01*
X27374602Y21401579D01*
X27531579Y21244602D01*
X27716165Y21121266D01*
X27921266Y21036310D01*
X28139000Y20993000D01*
X28361000Y20993000D01*
X28578734Y21036310D01*
X28783835Y21121266D01*
X28968421Y21244602D01*
X29125398Y21401579D01*
X29248734Y21586165D01*
X29333690Y21791266D01*
X29377000Y22009000D01*
X29377000Y22231000D01*
X29333690Y22448734D01*
X29248734Y22653835D01*
X29125398Y22838421D01*
X28968421Y22995398D01*
X28783835Y23118734D01*
X28578734Y23203690D01*
X28361000Y23247000D01*
X28139000Y23247000D01*
X27921266Y23203690D01*
X27716165Y23118734D01*
X27531579Y22995398D01*
X27374602Y22838421D01*
X27251266Y22653835D01*
X27166310Y22448734D01*
X27123000Y22231000D01*
X26837000Y22231000D01*
X26793690Y22448734D01*
X26708734Y22653835D01*
X26585398Y22838421D01*
X26428421Y22995398D01*
X26243835Y23118734D01*
X26038734Y23203690D01*
X25821000Y23247000D01*
X25599000Y23247000D01*
X25381266Y23203690D01*
X25176165Y23118734D01*
X24991579Y22995398D01*
X24834602Y22838421D01*
X24711266Y22653835D01*
X24626310Y22448734D01*
X24583000Y22231000D01*
X16126289Y22231000D01*
X16818690Y22923400D01*
X16947474Y22949016D01*
X17070680Y23000050D01*
X17181563Y23074140D01*
X17275860Y23168437D01*
X17349950Y23279320D01*
X17400984Y23402526D01*
X17427000Y23533321D01*
X17427000Y23661754D01*
X18123000Y23661754D01*
X18123000Y23538246D01*
X18147095Y23417111D01*
X18194360Y23303004D01*
X18262977Y23200311D01*
X18350311Y23112977D01*
X18453004Y23044360D01*
X18567111Y22997095D01*
X18688246Y22973000D01*
X18811754Y22973000D01*
X18932889Y22997095D01*
X19046996Y23044360D01*
X19149689Y23112977D01*
X19237023Y23200311D01*
X19305640Y23303004D01*
X19352905Y23417111D01*
X19377000Y23538246D01*
X19377000Y23661754D01*
X22873000Y23661754D01*
X22873000Y23538246D01*
X22897095Y23417111D01*
X22944360Y23303004D01*
X23012977Y23200311D01*
X23100311Y23112977D01*
X23203004Y23044360D01*
X23317111Y22997095D01*
X23438246Y22973000D01*
X23561754Y22973000D01*
X23682889Y22997095D01*
X23796996Y23044360D01*
X23899689Y23112977D01*
X23987023Y23200311D01*
X24055640Y23303004D01*
X24102905Y23417111D01*
X24127000Y23538246D01*
X24127000Y23661754D01*
X24102905Y23782889D01*
X24055640Y23896996D01*
X23987023Y23999689D01*
X23899689Y24087023D01*
X23796996Y24155640D01*
X23682889Y24202905D01*
X23561754Y24227000D01*
X23438246Y24227000D01*
X23317111Y24202905D01*
X23203004Y24155640D01*
X23100311Y24087023D01*
X23012977Y23999689D01*
X22944360Y23896996D01*
X22897095Y23782889D01*
X22873000Y23661754D01*
X19377000Y23661754D01*
X19352905Y23782889D01*
X19305640Y23896996D01*
X19237023Y23999689D01*
X19149689Y24087023D01*
X19046996Y24155640D01*
X18932889Y24202905D01*
X18811754Y24227000D01*
X18688246Y24227000D01*
X18567111Y24202905D01*
X18453004Y24155640D01*
X18350311Y24087023D01*
X18262977Y23999689D01*
X18194360Y23896996D01*
X18147095Y23782889D01*
X18123000Y23661754D01*
X17427000Y23661754D01*
X17427000Y23666679D01*
X17400984Y23797474D01*
X17349950Y23920680D01*
X17277000Y24029857D01*
X17277000Y24681452D01*
X26573000Y24681452D01*
X26573000Y24518548D01*
X26604782Y24358773D01*
X26667123Y24208269D01*
X26757628Y24072819D01*
X26872819Y23957628D01*
X27008269Y23867123D01*
X27158773Y23804782D01*
X27318548Y23773000D01*
X27481452Y23773000D01*
X27641227Y23804782D01*
X27791731Y23867123D01*
X27927181Y23957628D01*
X28042372Y24072819D01*
X28132877Y24208269D01*
X28195218Y24358773D01*
X28227000Y24518548D01*
X28227000Y24681452D01*
X28195218Y24841227D01*
X28132877Y24991731D01*
X28042372Y25127181D01*
X27927181Y25242372D01*
X27791731Y25332877D01*
X27641227Y25395218D01*
X27481452Y25427000D01*
X27318548Y25427000D01*
X27158773Y25395218D01*
X27008269Y25332877D01*
X26872819Y25242372D01*
X26757628Y25127181D01*
X26667123Y24991731D01*
X26604782Y24841227D01*
X26573000Y24681452D01*
X17277000Y24681452D01*
X17277000Y24898000D01*
X22977795Y24898000D01*
X23000000Y24895813D01*
X23022205Y24898000D01*
X23088607Y24904540D01*
X23173810Y24930386D01*
X23252333Y24972357D01*
X23253116Y24973000D01*
X23311754Y24973000D01*
X23432889Y24997095D01*
X23546996Y25044360D01*
X23649689Y25112977D01*
X23737023Y25200311D01*
X23805640Y25303004D01*
X23852905Y25417111D01*
X23877000Y25538246D01*
X23877000Y25661754D01*
X23852905Y25782889D01*
X23805640Y25896996D01*
X23737023Y25999689D01*
X23649689Y26087023D01*
X23546996Y26155640D01*
X23432889Y26202905D01*
X23311754Y26227000D01*
X23188246Y26227000D01*
X23067111Y26202905D01*
X22953004Y26155640D01*
X22850311Y26087023D01*
X22762977Y25999689D01*
X22694360Y25896996D01*
X22655011Y25802000D01*
X17022320Y25802000D01*
X16952650Y25839239D01*
X16853310Y25869374D01*
X16750000Y25879549D01*
X16646691Y25869374D01*
X16547351Y25839239D01*
X16477681Y25802000D01*
X15987224Y25802000D01*
X14198852Y27590372D01*
X22582440Y27590372D01*
X22582440Y27409628D01*
X22617701Y27232358D01*
X22686869Y27065372D01*
X22787284Y26915089D01*
X22915089Y26787284D01*
X23065372Y26686869D01*
X23232358Y26617701D01*
X23409628Y26582440D01*
X23590372Y26582440D01*
X23767642Y26617701D01*
X23934628Y26686869D01*
X24084911Y26787284D01*
X24212716Y26915089D01*
X24313131Y27065372D01*
X24382299Y27232358D01*
X24417560Y27409628D01*
X24417560Y27590372D01*
X24382299Y27767642D01*
X24313131Y27934628D01*
X24212716Y28084911D01*
X24084911Y28212716D01*
X23934628Y28313131D01*
X23767642Y28382299D01*
X23590372Y28417560D01*
X23409628Y28417560D01*
X23232358Y28382299D01*
X23065372Y28313131D01*
X22915089Y28212716D01*
X22787284Y28084911D01*
X22686869Y27934628D01*
X22617701Y27767642D01*
X22582440Y27590372D01*
X14198852Y27590372D01*
X13702000Y28087223D01*
X13702000Y28565288D01*
X13737023Y28600311D01*
X13805640Y28703004D01*
X13852905Y28817111D01*
X13877000Y28938246D01*
X13877000Y29061754D01*
X13852905Y29182889D01*
X13805640Y29296996D01*
X13737023Y29399689D01*
X13649689Y29487023D01*
X13546996Y29555640D01*
X13432889Y29602905D01*
X13311754Y29627000D01*
X13188246Y29627000D01*
X13067111Y29602905D01*
X12953004Y29555640D01*
X12850311Y29487023D01*
X12762977Y29399689D01*
X12694360Y29296996D01*
X12647095Y29182889D01*
X12623000Y29061754D01*
X12623000Y28938246D01*
X12647095Y28817111D01*
X12694360Y28703004D01*
X12762977Y28600311D01*
X12798001Y28565287D01*
X12798000Y27922205D01*
X12795813Y27900000D01*
X12804540Y27811393D01*
X12817812Y27767642D01*
X12830386Y27726191D01*
X12872357Y27647668D01*
X12928841Y27578841D01*
X12946100Y27564677D01*
X15464681Y25046095D01*
X15478841Y25028841D01*
X15547667Y24972357D01*
X15626190Y24930386D01*
X15711392Y24904540D01*
X15800000Y24895813D01*
X15822205Y24898000D01*
X16223001Y24898000D01*
X16223000Y24029857D01*
X16150050Y23920680D01*
X16099016Y23797474D01*
X16073400Y23668690D01*
X12095662Y19690951D01*
X12075553Y19674448D01*
X12046658Y19639239D01*
X12009696Y19594201D01*
X11960761Y19502649D01*
X11930626Y19403309D01*
X11920451Y19300000D01*
X11923001Y19274109D01*
X11923000Y9889001D01*
X11464644Y9430645D01*
X10177000Y10718289D01*
X10177000Y17999119D01*
X10179549Y18025000D01*
X10169374Y18128310D01*
X10163959Y18146160D01*
X10139239Y18227650D01*
X10090304Y18319202D01*
X10024448Y18399448D01*
X10004344Y18415947D01*
X9762962Y18657328D01*
X9752905Y18707889D01*
X9705640Y18821996D01*
X9637023Y18924689D01*
X9549689Y19012023D01*
X9446996Y19080640D01*
X9332889Y19127905D01*
X9282327Y19137962D01*
X8915955Y19504334D01*
X8899448Y19524448D01*
X8819202Y19590304D01*
X8727650Y19639239D01*
X8628310Y19669374D01*
X8550881Y19677000D01*
X8525000Y19679549D01*
X8499119Y19677000D01*
X5225880Y19677000D01*
X5199999Y19679549D01*
X5096690Y19669374D01*
X4997350Y19639239D01*
X4905798Y19590304D01*
X4825552Y19524448D01*
X4809049Y19504339D01*
X2681711Y17377000D01*
X1981864Y17377000D01*
X2082889Y17397095D01*
X2196996Y17444360D01*
X2299689Y17512977D01*
X2387023Y17600311D01*
X2455640Y17703004D01*
X2502905Y17817111D01*
X2527000Y17938246D01*
X2527000Y18061754D01*
X2502905Y18182889D01*
X2455640Y18296996D01*
X2387023Y18399689D01*
X2299689Y18487023D01*
X2196996Y18555640D01*
X2082889Y18602905D01*
X1961754Y18627000D01*
X1838246Y18627000D01*
X1717111Y18602905D01*
X1603004Y18555640D01*
X1500311Y18487023D01*
X1412977Y18399689D01*
X1344360Y18296996D01*
X1297095Y18182889D01*
X1273000Y18061754D01*
X1273000Y17938246D01*
X1297095Y17817111D01*
X1344360Y17703004D01*
X1412977Y17600311D01*
X1500311Y17512977D01*
X1603004Y17444360D01*
X1717111Y17397095D01*
X1818136Y17377000D01*
X1339859Y17377000D01*
X1296996Y17405640D01*
X1182889Y17452905D01*
X1061754Y17477000D01*
X938246Y17477000D01*
X817111Y17452905D01*
X703004Y17405640D01*
X600311Y17337023D01*
X512977Y17249689D01*
X444360Y17146996D01*
X397095Y17032889D01*
X373000Y16911754D01*
X373000Y16788246D01*
X397095Y16667111D01*
X444360Y16553004D01*
X473001Y16510140D01*
X473000Y15400881D01*
X470451Y15375000D01*
X473000Y15349120D01*
X480626Y15271691D01*
X510761Y15172351D01*
X559696Y15080798D01*
X625552Y15000552D01*
X645666Y14984045D01*
X775197Y14854513D01*
X767111Y14852905D01*
X653004Y14805640D01*
X550311Y14737023D01*
X462977Y14649689D01*
X394360Y14546996D01*
X347095Y14432889D01*
X323000Y14311754D01*
X302000Y14311754D01*
X302000Y21211754D01*
X8023000Y21211754D01*
X8023000Y21088246D01*
X8047095Y20967111D01*
X8094360Y20853004D01*
X8162977Y20750311D01*
X8250311Y20662977D01*
X8353004Y20594360D01*
X8467111Y20547095D01*
X8588246Y20523000D01*
X8711754Y20523000D01*
X8832889Y20547095D01*
X8946996Y20594360D01*
X9049689Y20662977D01*
X9137023Y20750311D01*
X9205640Y20853004D01*
X9252905Y20967111D01*
X9277000Y21088246D01*
X9277000Y21211754D01*
X9252905Y21332889D01*
X9205640Y21446996D01*
X9137023Y21549689D01*
X9049689Y21637023D01*
X8946996Y21705640D01*
X8832889Y21752905D01*
X8711754Y21777000D01*
X8588246Y21777000D01*
X8467111Y21752905D01*
X8353004Y21705640D01*
X8250311Y21637023D01*
X8162977Y21549689D01*
X8094360Y21446996D01*
X8047095Y21332889D01*
X8023000Y21211754D01*
X302000Y21211754D01*
X302000Y23235228D01*
X307191Y23288178D01*
X318279Y23324899D01*
X336287Y23358768D01*
X360532Y23388496D01*
X390093Y23412951D01*
X423832Y23431194D01*
X460476Y23442537D01*
X512454Y23448000D01*
X864833Y23448000D01*
X877611Y23449259D01*
X879115Y23449248D01*
X883312Y23449660D01*
X907522Y23452205D01*
X909202Y23452370D01*
X909258Y23452387D01*
X931836Y23454760D01*
X958593Y23460253D01*
X985535Y23465392D01*
X989572Y23466612D01*
X1036182Y23481040D01*
X1061368Y23491627D01*
X1086798Y23501902D01*
X1090521Y23503882D01*
X1133440Y23527089D01*
X1156086Y23542365D01*
X1179028Y23557376D01*
X1182295Y23560042D01*
X1184364Y23561754D01*
X2973000Y23561754D01*
X2973000Y23438246D01*
X2997095Y23317111D01*
X3044360Y23203004D01*
X3112977Y23100311D01*
X3200311Y23012977D01*
X3303004Y22944360D01*
X3417111Y22897095D01*
X3538246Y22873000D01*
X3661754Y22873000D01*
X3782889Y22897095D01*
X3896996Y22944360D01*
X3999689Y23012977D01*
X4087023Y23100311D01*
X4155640Y23203004D01*
X4202905Y23317111D01*
X4214944Y23377635D01*
X4238246Y23373000D01*
X4361754Y23373000D01*
X4482889Y23397095D01*
X4596996Y23444360D01*
X4699689Y23512977D01*
X4786498Y23599786D01*
X8148988Y23599786D01*
X8148988Y23348238D01*
X8198062Y23101525D01*
X8294325Y22869126D01*
X8434077Y22659972D01*
X8611948Y22482101D01*
X8821102Y22342349D01*
X9053501Y22246086D01*
X9300214Y22197012D01*
X9551762Y22197012D01*
X9798475Y22246086D01*
X10030874Y22342349D01*
X10240028Y22482101D01*
X10417899Y22659972D01*
X10557651Y22869126D01*
X10653914Y23101525D01*
X10702988Y23348238D01*
X10702988Y23599786D01*
X10653914Y23846499D01*
X10557651Y24078898D01*
X10417899Y24288052D01*
X10240028Y24465923D01*
X10096607Y24561754D01*
X11623000Y24561754D01*
X11623000Y24438246D01*
X11647095Y24317111D01*
X11694360Y24203004D01*
X11762977Y24100311D01*
X11850311Y24012977D01*
X11953004Y23944360D01*
X12067111Y23897095D01*
X12188246Y23873000D01*
X12311754Y23873000D01*
X12432889Y23897095D01*
X12546996Y23944360D01*
X12649689Y24012977D01*
X12737023Y24100311D01*
X12805640Y24203004D01*
X12852905Y24317111D01*
X12877000Y24438246D01*
X12877000Y24561754D01*
X12852905Y24682889D01*
X12805640Y24796996D01*
X12737023Y24899689D01*
X12649689Y24987023D01*
X12546996Y25055640D01*
X12432889Y25102905D01*
X12311754Y25127000D01*
X12188246Y25127000D01*
X12067111Y25102905D01*
X11953004Y25055640D01*
X11850311Y24987023D01*
X11762977Y24899689D01*
X11694360Y24796996D01*
X11647095Y24682889D01*
X11623000Y24561754D01*
X10096607Y24561754D01*
X10030874Y24605675D01*
X9798475Y24701938D01*
X9551762Y24751012D01*
X9300214Y24751012D01*
X9053501Y24701938D01*
X8821102Y24605675D01*
X8611948Y24465923D01*
X8434077Y24288052D01*
X8294325Y24078898D01*
X8198062Y23846499D01*
X8148988Y23599786D01*
X4786498Y23599786D01*
X4787023Y23600311D01*
X4855640Y23703004D01*
X4902905Y23817111D01*
X4927000Y23938246D01*
X4927000Y24061754D01*
X4902905Y24182889D01*
X4855640Y24296996D01*
X4787023Y24399689D01*
X4699689Y24487023D01*
X4596996Y24555640D01*
X4482889Y24602905D01*
X4361754Y24627000D01*
X4238246Y24627000D01*
X4117111Y24602905D01*
X4003004Y24555640D01*
X3900311Y24487023D01*
X3812977Y24399689D01*
X3744360Y24296996D01*
X3697095Y24182889D01*
X3685056Y24122365D01*
X3661754Y24127000D01*
X3538246Y24127000D01*
X3417111Y24102905D01*
X3303004Y24055640D01*
X3200311Y23987023D01*
X3112977Y23899689D01*
X3044360Y23796996D01*
X2997095Y23682889D01*
X2973000Y23561754D01*
X1184364Y23561754D01*
X1219890Y23591142D01*
X1239157Y23610544D01*
X1258741Y23629722D01*
X1261429Y23632971D01*
X1292266Y23670782D01*
X1307384Y23693538D01*
X1322872Y23716157D01*
X1324878Y23719867D01*
X1347785Y23762947D01*
X1358208Y23788235D01*
X1369001Y23813417D01*
X1370248Y23817446D01*
X1384350Y23864155D01*
X1389654Y23890944D01*
X1395357Y23917778D01*
X1395798Y23921973D01*
X1400559Y23970532D01*
X1400559Y23970536D01*
X1402000Y23985167D01*
X1402000Y24681452D01*
X1773000Y24681452D01*
X1773000Y24518548D01*
X1804782Y24358773D01*
X1867123Y24208269D01*
X1957628Y24072819D01*
X2072819Y23957628D01*
X2208269Y23867123D01*
X2358773Y23804782D01*
X2518548Y23773000D01*
X2681452Y23773000D01*
X2841227Y23804782D01*
X2991731Y23867123D01*
X3127181Y23957628D01*
X3242372Y24072819D01*
X3332877Y24208269D01*
X3395218Y24358773D01*
X3427000Y24518548D01*
X3427000Y24681452D01*
X3395218Y24841227D01*
X3332877Y24991731D01*
X3242372Y25127181D01*
X3127181Y25242372D01*
X2991731Y25332877D01*
X2841227Y25395218D01*
X2681452Y25427000D01*
X2518548Y25427000D01*
X2358773Y25395218D01*
X2208269Y25332877D01*
X2072819Y25242372D01*
X1957628Y25127181D01*
X1867123Y24991731D01*
X1804782Y24841227D01*
X1773000Y24681452D01*
X1402000Y24681452D01*
X1402000Y27590372D01*
X5582440Y27590372D01*
X5582440Y27409628D01*
X5617701Y27232358D01*
X5686869Y27065372D01*
X5787284Y26915089D01*
X5915089Y26787284D01*
X6065372Y26686869D01*
X6232358Y26617701D01*
X6409628Y26582440D01*
X6590372Y26582440D01*
X6767642Y26617701D01*
X6934628Y26686869D01*
X7084911Y26787284D01*
X7212716Y26915089D01*
X7313131Y27065372D01*
X7382299Y27232358D01*
X7417560Y27409628D01*
X7417560Y27590372D01*
X7382299Y27767642D01*
X7313131Y27934628D01*
X7212716Y28084911D01*
X7084911Y28212716D01*
X6934628Y28313131D01*
X6767642Y28382299D01*
X6590372Y28417560D01*
X6409628Y28417560D01*
X6232358Y28382299D01*
X6065372Y28313131D01*
X5915089Y28212716D01*
X5787284Y28084911D01*
X5686869Y27934628D01*
X5617701Y27767642D01*
X5582440Y27590372D01*
X1402000Y27590372D01*
X1402000Y29485228D01*
X1407191Y29538178D01*
X1418279Y29574899D01*
X1436287Y29608768D01*
X1460532Y29638496D01*
X1490093Y29662951D01*
X1523832Y29681194D01*
X1560476Y29692537D01*
X1612454Y29698000D01*
X2372759Y29698000D01*
X2358773Y29695218D01*
%TA.AperFunction,Conductor*%
D20*
G36*
X2358773Y29695218D02*
G01*
X2208269Y29632877D01*
X2072819Y29542372D01*
X1957628Y29427181D01*
X1867123Y29291731D01*
X1804782Y29141227D01*
X1773000Y28981452D01*
X1773000Y28818548D01*
X1804782Y28658773D01*
X1867123Y28508269D01*
X1957628Y28372819D01*
X2072819Y28257628D01*
X2208269Y28167123D01*
X2358773Y28104782D01*
X2518548Y28073000D01*
X2681452Y28073000D01*
X2841227Y28104782D01*
X2991731Y28167123D01*
X3127181Y28257628D01*
X3242372Y28372819D01*
X3332877Y28508269D01*
X3395218Y28658773D01*
X3427000Y28818548D01*
X3427000Y28981452D01*
X3395218Y29141227D01*
X3332877Y29291731D01*
X3242372Y29427181D01*
X3127181Y29542372D01*
X2991731Y29632877D01*
X2841227Y29695218D01*
X2827241Y29698000D01*
X27172759Y29698000D01*
X27158773Y29695218D01*
X27008269Y29632877D01*
X26872819Y29542372D01*
X26757628Y29427181D01*
X26667123Y29291731D01*
X26604782Y29141227D01*
X26573000Y28981452D01*
X26573000Y28818548D01*
X26604782Y28658773D01*
X26667123Y28508269D01*
X26757628Y28372819D01*
X26872819Y28257628D01*
X27008269Y28167123D01*
X27158773Y28104782D01*
X27318548Y28073000D01*
X27481452Y28073000D01*
X27641227Y28104782D01*
X27791731Y28167123D01*
X27927181Y28257628D01*
X28042372Y28372819D01*
X28132877Y28508269D01*
X28195218Y28658773D01*
X28227000Y28818548D01*
X28227000Y28981452D01*
X28195218Y29141227D01*
X28132877Y29291731D01*
X28042372Y29427181D01*
X27927181Y29542372D01*
X27791731Y29632877D01*
X27641227Y29695218D01*
X27627241Y29698000D01*
X28385228Y29698000D01*
X28438178Y29692809D01*
X28474899Y29681721D01*
X28508768Y29663713D01*
X28538496Y29639468D01*
X28562951Y29609907D01*
X28581194Y29576168D01*
X28592537Y29539524D01*
X28598000Y29487546D01*
X28598001Y23985167D01*
X28599259Y23972399D01*
X28599248Y23970885D01*
X28599660Y23966688D01*
X28602220Y23942327D01*
X28602371Y23940798D01*
X28602386Y23940747D01*
X28604760Y23918164D01*
X28610253Y23891407D01*
X28615392Y23864465D01*
X28616612Y23860428D01*
X28631040Y23813818D01*
X28641627Y23788632D01*
X28651902Y23763202D01*
X28653882Y23759479D01*
X28677089Y23716560D01*
X28692365Y23693914D01*
X28707376Y23670972D01*
X28710042Y23667705D01*
X28741142Y23630110D01*
X28760544Y23610843D01*
X28779722Y23591259D01*
X28782971Y23588571D01*
X28820782Y23557734D01*
X28843538Y23542616D01*
X28866157Y23527128D01*
X28869867Y23525122D01*
X28912947Y23502215D01*
X28938235Y23491792D01*
X28963417Y23480999D01*
X28967446Y23479752D01*
X29014155Y23465650D01*
X29040944Y23460346D01*
X29067778Y23454643D01*
X29071973Y23454202D01*
X29120532Y23449441D01*
X29120536Y23449441D01*
X29135167Y23448000D01*
X29485228Y23448000D01*
X29538178Y23442809D01*
X29574899Y23431721D01*
X29608768Y23413713D01*
X29638496Y23389468D01*
X29662951Y23359907D01*
X29681194Y23326168D01*
X29692537Y23289524D01*
X29698001Y23237536D01*
X29698000Y514772D01*
X29694349Y477539D01*
X29616870Y383130D01*
X29522488Y305672D01*
X29487547Y302000D01*
X6981987Y302000D01*
X6883130Y383130D01*
X6774638Y515328D01*
X6694022Y666150D01*
X6644376Y829811D01*
X6627000Y1006234D01*
X6627000Y2090372D01*
X7332440Y2090372D01*
X7332440Y1909628D01*
X7367701Y1732358D01*
X7436869Y1565372D01*
X7537284Y1415089D01*
X7665089Y1287284D01*
X7815372Y1186869D01*
X7982358Y1117701D01*
X8159628Y1082440D01*
X8340372Y1082440D01*
X8517642Y1117701D01*
X8684628Y1186869D01*
X8834911Y1287284D01*
X8962716Y1415089D01*
X9063131Y1565372D01*
X9132299Y1732358D01*
X9167560Y1909628D01*
X9167560Y2090372D01*
X9132299Y2267642D01*
X9118896Y2300000D01*
X9496660Y2300000D01*
X9496660Y1000000D01*
X9508733Y877417D01*
X9544490Y759545D01*
X9602554Y650913D01*
X9680697Y555697D01*
X9775913Y477554D01*
X9884545Y419490D01*
X10002417Y383733D01*
X10125000Y371660D01*
X10825000Y371660D01*
X10947583Y383733D01*
X11065455Y419490D01*
X11174087Y477554D01*
X11269303Y555697D01*
X11347446Y650913D01*
X11405510Y759545D01*
X11441267Y877417D01*
X11453340Y1000000D01*
X11453340Y2300000D01*
X18546660Y2300000D01*
X18546660Y1000000D01*
X18558733Y877417D01*
X18594490Y759545D01*
X18652554Y650913D01*
X18730697Y555697D01*
X18825913Y477554D01*
X18934545Y419490D01*
X19052417Y383733D01*
X19175000Y371660D01*
X19875000Y371660D01*
X19997583Y383733D01*
X20115455Y419490D01*
X20224087Y477554D01*
X20319303Y555697D01*
X20397446Y650913D01*
X20455510Y759545D01*
X20491267Y877417D01*
X20503340Y1000000D01*
X20503340Y2090372D01*
X20832440Y2090372D01*
X20832440Y1909628D01*
X20867701Y1732358D01*
X20936869Y1565372D01*
X21037284Y1415089D01*
X21165089Y1287284D01*
X21315372Y1186869D01*
X21482358Y1117701D01*
X21659628Y1082440D01*
X21840372Y1082440D01*
X22017642Y1117701D01*
X22184628Y1186869D01*
X22334911Y1287284D01*
X22462716Y1415089D01*
X22563131Y1565372D01*
X22632299Y1732358D01*
X22667560Y1909628D01*
X22667560Y2090372D01*
X22632299Y2267642D01*
X22563131Y2434628D01*
X22462716Y2584911D01*
X22334911Y2712716D01*
X22184628Y2813131D01*
X22017642Y2882299D01*
X21840372Y2917560D01*
X21659628Y2917560D01*
X21482358Y2882299D01*
X21315372Y2813131D01*
X21165089Y2712716D01*
X21037284Y2584911D01*
X20936869Y2434628D01*
X20867701Y2267642D01*
X20832440Y2090372D01*
X20503340Y2090372D01*
X20503340Y2300000D01*
X20491267Y2422583D01*
X20455510Y2540455D01*
X20397446Y2649087D01*
X20319303Y2744303D01*
X20224087Y2822446D01*
X20115455Y2880510D01*
X19997583Y2916267D01*
X19875000Y2928340D01*
X19175000Y2928340D01*
X19052417Y2916267D01*
X18934545Y2880510D01*
X18825913Y2822446D01*
X18730697Y2744303D01*
X18652554Y2649087D01*
X18594490Y2540455D01*
X18558733Y2422583D01*
X18546660Y2300000D01*
X11453340Y2300000D01*
X11441267Y2422583D01*
X11405510Y2540455D01*
X11347446Y2649087D01*
X11269303Y2744303D01*
X11174087Y2822446D01*
X11065455Y2880510D01*
X10947583Y2916267D01*
X10825000Y2928340D01*
X10125000Y2928340D01*
X10002417Y2916267D01*
X9884545Y2880510D01*
X9775913Y2822446D01*
X9680697Y2744303D01*
X9602554Y2649087D01*
X9544490Y2540455D01*
X9508733Y2422583D01*
X9496660Y2300000D01*
X9118896Y2300000D01*
X9063131Y2434628D01*
X8962716Y2584911D01*
X8834911Y2712716D01*
X8684628Y2813131D01*
X8517642Y2882299D01*
X8340372Y2917560D01*
X8159628Y2917560D01*
X7982358Y2882299D01*
X7815372Y2813131D01*
X7665089Y2712716D01*
X7537284Y2584911D01*
X7436869Y2434628D01*
X7367701Y2267642D01*
X7332440Y2090372D01*
X6627000Y2090372D01*
X6627000Y3686754D01*
X16748000Y3686754D01*
X16748000Y3563246D01*
X16772095Y3442111D01*
X16819360Y3328004D01*
X16887977Y3225311D01*
X16975311Y3137977D01*
X17078004Y3069360D01*
X17192111Y3022095D01*
X17313246Y2998000D01*
X17436754Y2998000D01*
X17557889Y3022095D01*
X17671996Y3069360D01*
X17774689Y3137977D01*
X17862023Y3225311D01*
X17930640Y3328004D01*
X17977905Y3442111D01*
X18002000Y3563246D01*
X18002000Y3686754D01*
X17977905Y3807889D01*
X17930640Y3921996D01*
X17862023Y4024689D01*
X17774689Y4112023D01*
X17671996Y4180640D01*
X17557889Y4227905D01*
X17436754Y4252000D01*
X17313246Y4252000D01*
X17192111Y4227905D01*
X17078004Y4180640D01*
X16975311Y4112023D01*
X16887977Y4024689D01*
X16819360Y3921996D01*
X16772095Y3807889D01*
X16748000Y3686754D01*
X6627000Y3686754D01*
X6627000Y7000000D01*
X6626388Y7012448D01*
X6607173Y7207538D01*
X6602317Y7231956D01*
X6545412Y7419549D01*
X6535884Y7442550D01*
X6443474Y7615437D01*
X6429642Y7636138D01*
X6305279Y7787675D01*
X6287675Y7805279D01*
X6136138Y7929642D01*
X6115437Y7943474D01*
X5942550Y8035884D01*
X5919549Y8045412D01*
X5731956Y8102317D01*
X5707538Y8107173D01*
X5512448Y8126388D01*
X5500000Y8127000D01*
X1006234Y8127000D01*
X829811Y8144376D01*
X666150Y8194022D01*
X515328Y8274638D01*
X383130Y8383130D01*
X302000Y8481987D01*
X302000Y11711754D01*
X1023000Y11711754D01*
X1023000Y11588246D01*
X1047095Y11467111D01*
X1094360Y11353004D01*
X1162977Y11250311D01*
X1250311Y11162977D01*
X1353004Y11094360D01*
X1467111Y11047095D01*
X1588246Y11023000D01*
X1711754Y11023000D01*
X1832889Y11047095D01*
X1946996Y11094360D01*
X2049689Y11162977D01*
X2137023Y11250311D01*
X2205640Y11353004D01*
X2252905Y11467111D01*
X2277000Y11588246D01*
X2277000Y11673000D01*
X2361754Y11673000D01*
X2386456Y11677913D01*
X2347095Y11582889D01*
X2323000Y11461754D01*
X2323000Y11338246D01*
X2347095Y11217111D01*
X2394360Y11103004D01*
X2462977Y11000311D01*
X2550311Y10912977D01*
X2653004Y10844360D01*
X2767111Y10797095D01*
X2888246Y10773000D01*
X3011754Y10773000D01*
X3132889Y10797095D01*
X3246996Y10844360D01*
X3349689Y10912977D01*
X3437023Y11000311D01*
X3505640Y11103004D01*
X3552905Y11217111D01*
X3577000Y11338246D01*
X3577000Y11461754D01*
X3552905Y11582889D01*
X3505640Y11696996D01*
X3437023Y11799689D01*
X3349689Y11887023D01*
X3246996Y11955640D01*
X3132889Y12002905D01*
X3011754Y12027000D01*
X2888246Y12027000D01*
X2863544Y12022087D01*
X2902905Y12117111D01*
X2927000Y12238246D01*
X2927000Y12361754D01*
X2902905Y12482889D01*
X2855640Y12596996D01*
X2787023Y12699689D01*
X2699689Y12787023D01*
X2596996Y12855640D01*
X2482889Y12902905D01*
X2361754Y12927000D01*
X2238246Y12927000D01*
X2117111Y12902905D01*
X2003004Y12855640D01*
X1900311Y12787023D01*
X1812977Y12699689D01*
X1744360Y12596996D01*
X1697095Y12482889D01*
X1673000Y12361754D01*
X1673000Y12277000D01*
X1588246Y12277000D01*
X1467111Y12252905D01*
X1353004Y12205640D01*
X1250311Y12137023D01*
X1162977Y12049689D01*
X1094360Y11946996D01*
X1047095Y11832889D01*
X1023000Y11711754D01*
X302000Y11711754D01*
X302000Y14311754D01*
X323000Y14311754D01*
X323000Y14188246D01*
X347095Y14067111D01*
X394360Y13953004D01*
X462977Y13850311D01*
X488288Y13825000D01*
X462977Y13799689D01*
X394360Y13696996D01*
X347095Y13582889D01*
X323000Y13461754D01*
X323000Y13338246D01*
X347095Y13217111D01*
X394360Y13103004D01*
X462977Y13000311D01*
X550311Y12912977D01*
X653004Y12844360D01*
X767111Y12797095D01*
X888246Y12773000D01*
X1011754Y12773000D01*
X1132889Y12797095D01*
X1246996Y12844360D01*
X1349689Y12912977D01*
X1437023Y13000311D01*
X1505640Y13103004D01*
X1552905Y13217111D01*
X1577000Y13338246D01*
X1577000Y13461754D01*
X1552905Y13582889D01*
X1505640Y13696996D01*
X1437023Y13799689D01*
X1411712Y13825000D01*
X1437023Y13850311D01*
X1505640Y13953004D01*
X1552905Y14067111D01*
X1554513Y14075197D01*
X5223400Y10406310D01*
X5249016Y10277526D01*
X5300050Y10154320D01*
X5374140Y10043437D01*
X5468437Y9949140D01*
X5579320Y9875050D01*
X5702526Y9824016D01*
X5833321Y9798000D01*
X5966679Y9798000D01*
X6097474Y9824016D01*
X6220680Y9875050D01*
X6331563Y9949140D01*
X6425860Y10043437D01*
X6499950Y10154320D01*
X6550984Y10277526D01*
X6577000Y10408321D01*
X6577000Y10541679D01*
X6550984Y10672474D01*
X6499950Y10795680D01*
X6425860Y10906563D01*
X6331563Y11000860D01*
X6220680Y11074950D01*
X6097474Y11125984D01*
X5968690Y11151600D01*
X3979026Y13141264D01*
X4838765Y13141264D01*
X4876249Y13070932D01*
X4864431Y13059114D01*
X4949431Y12974114D01*
X4953350Y12969327D01*
X4958246Y12965299D01*
X5044039Y12879506D01*
X5055905Y12891372D01*
X5125010Y12854328D01*
X5126189Y12853840D01*
X5205249Y12899762D01*
X5205249Y13040716D01*
X5314108Y13149575D01*
X5342390Y13149575D01*
X5451249Y13040716D01*
X5451249Y12899762D01*
X5530309Y12853840D01*
X5600641Y12891324D01*
X5612459Y12879506D01*
X5697459Y12964506D01*
X5702246Y12968425D01*
X5706274Y12973321D01*
X5792067Y13059114D01*
X5780201Y13070980D01*
X5817245Y13140085D01*
X5817733Y13141264D01*
X6182267Y13141264D01*
X6219751Y13070932D01*
X6207933Y13059114D01*
X6292933Y12974114D01*
X6296852Y12969327D01*
X6301748Y12965299D01*
X6387541Y12879506D01*
X6399407Y12891372D01*
X6468512Y12854328D01*
X6469691Y12853840D01*
X6548751Y12899762D01*
X6548751Y13040716D01*
X6657610Y13149575D01*
X6685892Y13149575D01*
X6794751Y13040716D01*
X6794751Y12899762D01*
X6873811Y12853840D01*
X6944143Y12891324D01*
X6955961Y12879506D01*
X7040961Y12964506D01*
X7045748Y12968425D01*
X7049776Y12973321D01*
X7135569Y13059114D01*
X7123703Y13070980D01*
X7160747Y13140085D01*
X7161235Y13141264D01*
X7115313Y13220324D01*
X6974359Y13220324D01*
X6865500Y13329183D01*
X6685892Y13149575D01*
X6657610Y13149575D01*
X6478002Y13329183D01*
X6369143Y13220324D01*
X6228189Y13220324D01*
X6182267Y13141264D01*
X5817733Y13141264D01*
X5771811Y13220324D01*
X5630857Y13220324D01*
X5521998Y13329183D01*
X5342390Y13149575D01*
X5314108Y13149575D01*
X5134500Y13329183D01*
X5025641Y13220324D01*
X4884687Y13220324D01*
X4838765Y13141264D01*
X3979026Y13141264D01*
X3236564Y13883726D01*
X4096302Y13883726D01*
X4133786Y13813394D01*
X4121968Y13801576D01*
X4206968Y13716576D01*
X4210887Y13711789D01*
X4215783Y13707761D01*
X4301576Y13621968D01*
X4313442Y13633834D01*
X4382547Y13596790D01*
X4383726Y13596302D01*
X4462786Y13642224D01*
X4462786Y13783178D01*
X4571645Y13892037D01*
X4599927Y13892037D01*
X4708786Y13783178D01*
X4708786Y13642224D01*
X4787846Y13596302D01*
X4858178Y13633786D01*
X4869996Y13621968D01*
X4869997Y13621968D01*
X4876297Y13615668D01*
X4839253Y13546563D01*
X4838765Y13545384D01*
X4884687Y13466324D01*
X5025641Y13466324D01*
X5134500Y13357465D01*
X5314108Y13537073D01*
X5342390Y13537073D01*
X5521998Y13357465D01*
X5630857Y13466324D01*
X5771811Y13466324D01*
X5810461Y13532865D01*
X5877000Y13571514D01*
X5877000Y13712467D01*
X5985859Y13821327D01*
X6014141Y13821327D01*
X6123000Y13712468D01*
X6123000Y13571514D01*
X6189539Y13532865D01*
X6228189Y13466324D01*
X6369143Y13466324D01*
X6478002Y13357465D01*
X6657610Y13537073D01*
X6685892Y13537073D01*
X6865500Y13357465D01*
X6974359Y13466324D01*
X7115313Y13466324D01*
X7161235Y13545384D01*
X7123751Y13615715D01*
X7141870Y13633834D01*
X7210975Y13596790D01*
X7212154Y13596302D01*
X7291214Y13642224D01*
X7291214Y13783178D01*
X7400073Y13892037D01*
X7428355Y13892037D01*
X7537214Y13783178D01*
X7537214Y13642224D01*
X7616274Y13596302D01*
X7686606Y13633786D01*
X7698424Y13621968D01*
X7783424Y13706968D01*
X7788211Y13710887D01*
X7792239Y13715783D01*
X7878032Y13801576D01*
X7866166Y13813442D01*
X7903210Y13882547D01*
X7903698Y13883726D01*
X7857776Y13962786D01*
X7716822Y13962786D01*
X7607963Y14071645D01*
X7428355Y13892037D01*
X7400073Y13892037D01*
X7220465Y14071645D01*
X7111606Y13962786D01*
X6970652Y13962786D01*
X6924730Y13883726D01*
X6962214Y13813393D01*
X6955962Y13807141D01*
X6955961Y13807142D01*
X6944095Y13795276D01*
X6874990Y13832320D01*
X6873811Y13832808D01*
X6794751Y13786886D01*
X6794751Y13645932D01*
X6685892Y13537073D01*
X6657610Y13537073D01*
X6548751Y13645932D01*
X6548751Y13786886D01*
X6482212Y13825535D01*
X6443562Y13892076D01*
X6302608Y13892076D01*
X6193749Y14000935D01*
X6014141Y13821327D01*
X5985859Y13821327D01*
X5806251Y14000935D01*
X5697392Y13892076D01*
X5556438Y13892076D01*
X5517788Y13825535D01*
X5451249Y13786886D01*
X5451249Y13645931D01*
X5342390Y13537073D01*
X5314108Y13537073D01*
X5205249Y13645932D01*
X5205249Y13786886D01*
X5126189Y13832808D01*
X5055857Y13795324D01*
X5044039Y13807142D01*
X5044039Y13807141D01*
X5037738Y13813442D01*
X5074782Y13882547D01*
X5075270Y13883726D01*
X5029348Y13962786D01*
X4888394Y13962786D01*
X4779535Y14071645D01*
X4599927Y13892037D01*
X4571645Y13892037D01*
X4392037Y14071645D01*
X4283178Y13962786D01*
X4142224Y13962786D01*
X4096302Y13883726D01*
X3236564Y13883726D01*
X2494101Y14626189D01*
X3353840Y14626189D01*
X3391324Y14555857D01*
X3379506Y14544039D01*
X3464506Y14459039D01*
X3468425Y14454252D01*
X3473321Y14450224D01*
X3559114Y14364431D01*
X3570980Y14376297D01*
X3640085Y14339253D01*
X3641264Y14338765D01*
X3720324Y14384687D01*
X3720324Y14525641D01*
X3829183Y14634500D01*
X3857465Y14634500D01*
X3966324Y14525641D01*
X3966324Y14384687D01*
X4045384Y14338765D01*
X4115716Y14376249D01*
X4121969Y14369996D01*
X4121968Y14369996D01*
X4133834Y14358130D01*
X4096790Y14289025D01*
X4096302Y14287846D01*
X4142224Y14208786D01*
X4283178Y14208786D01*
X4392037Y14099927D01*
X4571645Y14279535D01*
X4599927Y14279535D01*
X4779535Y14099927D01*
X4888394Y14208786D01*
X5029348Y14208786D01*
X5067998Y14275326D01*
X5134538Y14313976D01*
X5134538Y14454930D01*
X5243397Y14563789D01*
X5271679Y14563789D01*
X5380538Y14454930D01*
X5380538Y14313976D01*
X5459598Y14268054D01*
X5529930Y14305538D01*
X5548048Y14287420D01*
X5511004Y14218315D01*
X5510516Y14217136D01*
X5556438Y14138076D01*
X5697392Y14138076D01*
X5806251Y14029217D01*
X5985859Y14208825D01*
X6014141Y14208825D01*
X6193749Y14029217D01*
X6302608Y14138076D01*
X6443562Y14138076D01*
X6489484Y14217136D01*
X6452000Y14287468D01*
X6470118Y14305586D01*
X6539223Y14268542D01*
X6540402Y14268054D01*
X6619462Y14313976D01*
X6619462Y14454930D01*
X6728321Y14563789D01*
X6756603Y14563789D01*
X6865462Y14454930D01*
X6865462Y14313976D01*
X6932002Y14275326D01*
X6970652Y14208786D01*
X7111606Y14208786D01*
X7220465Y14099927D01*
X7400073Y14279535D01*
X7428355Y14279535D01*
X7607963Y14099927D01*
X7716822Y14208786D01*
X7857776Y14208786D01*
X7903698Y14287846D01*
X7866214Y14358178D01*
X7884333Y14376297D01*
X7953437Y14339253D01*
X7954616Y14338765D01*
X8033676Y14384687D01*
X8033676Y14525641D01*
X8142535Y14634500D01*
X8170817Y14634500D01*
X8279676Y14525641D01*
X8279676Y14384687D01*
X8358736Y14338765D01*
X8429068Y14376249D01*
X8440886Y14364431D01*
X8525886Y14449431D01*
X8530673Y14453350D01*
X8534701Y14458246D01*
X8620494Y14544039D01*
X8608628Y14555905D01*
X8645672Y14625010D01*
X8646160Y14626189D01*
X8600238Y14705249D01*
X8459284Y14705249D01*
X8350425Y14814108D01*
X8170817Y14634500D01*
X8142535Y14634500D01*
X7962927Y14814108D01*
X7854068Y14705249D01*
X7713114Y14705249D01*
X7667192Y14626189D01*
X7704676Y14555857D01*
X7692858Y14544039D01*
X7692859Y14544038D01*
X7686558Y14537737D01*
X7617453Y14574782D01*
X7616274Y14575270D01*
X7537214Y14529348D01*
X7537214Y14388394D01*
X7428355Y14279535D01*
X7400073Y14279535D01*
X7291214Y14388394D01*
X7291214Y14529348D01*
X7224674Y14567998D01*
X7186024Y14634538D01*
X7045070Y14634538D01*
X6936211Y14743397D01*
X6756603Y14563789D01*
X6728321Y14563789D01*
X6548713Y14743397D01*
X6439854Y14634538D01*
X6298900Y14634538D01*
X6252978Y14555478D01*
X6290462Y14485146D01*
X6272344Y14467028D01*
X6203239Y14504072D01*
X6202060Y14504560D01*
X6123000Y14458638D01*
X6123000Y14317684D01*
X6014141Y14208825D01*
X5985859Y14208825D01*
X5877000Y14317684D01*
X5877000Y14458638D01*
X5797940Y14504560D01*
X5727608Y14467076D01*
X5709490Y14485194D01*
X5746534Y14554299D01*
X5747022Y14555478D01*
X5701100Y14634538D01*
X5560146Y14634538D01*
X5451287Y14743397D01*
X5271679Y14563789D01*
X5243397Y14563789D01*
X5063789Y14743397D01*
X4954930Y14634538D01*
X4813976Y14634538D01*
X4775326Y14567998D01*
X4708786Y14529348D01*
X4708786Y14388394D01*
X4599927Y14279535D01*
X4571645Y14279535D01*
X4462786Y14388394D01*
X4462786Y14529348D01*
X4383726Y14575270D01*
X4313394Y14537786D01*
X4307142Y14544038D01*
X4307142Y14544039D01*
X4295276Y14555905D01*
X4332320Y14625010D01*
X4332808Y14626189D01*
X4286886Y14705249D01*
X4145932Y14705249D01*
X4037073Y14814108D01*
X3857465Y14634500D01*
X3829183Y14634500D01*
X3649575Y14814108D01*
X3540716Y14705249D01*
X3399762Y14705249D01*
X3353840Y14626189D01*
X2494101Y14626189D01*
X2089981Y15030309D01*
X3353840Y15030309D01*
X3399762Y14951249D01*
X3540716Y14951249D01*
X3649575Y14842390D01*
X3829183Y15021998D01*
X3857465Y15021998D01*
X4037073Y14842390D01*
X4145933Y14951249D01*
X4286886Y14951249D01*
X4325535Y15017788D01*
X4392076Y15056438D01*
X4392076Y15197392D01*
X4500935Y15306251D01*
X4529217Y15306251D01*
X4638076Y15197392D01*
X4638076Y15056438D01*
X4717136Y15010516D01*
X4787468Y15048000D01*
X4805586Y15029882D01*
X4768542Y14960777D01*
X4768054Y14959598D01*
X4813976Y14880538D01*
X4954930Y14880538D01*
X5063789Y14771679D01*
X5243397Y14951287D01*
X5271679Y14951287D01*
X5451287Y14771679D01*
X5560146Y14880538D01*
X5701100Y14880538D01*
X5747022Y14959598D01*
X5709538Y15029930D01*
X5727656Y15048048D01*
X5796761Y15011004D01*
X5797940Y15010516D01*
X5877000Y15056438D01*
X5877000Y15197392D01*
X5985859Y15306251D01*
X6014141Y15306251D01*
X6123000Y15197392D01*
X6123000Y15056438D01*
X6202060Y15010516D01*
X6272392Y15048000D01*
X6290510Y15029882D01*
X6253466Y14960777D01*
X6252978Y14959598D01*
X6298900Y14880538D01*
X6439854Y14880538D01*
X6548713Y14771679D01*
X6728321Y14951287D01*
X6756603Y14951287D01*
X6936211Y14771679D01*
X7045070Y14880538D01*
X7186024Y14880538D01*
X7231946Y14959598D01*
X7194462Y15029930D01*
X7212580Y15048048D01*
X7281685Y15011004D01*
X7282864Y15010516D01*
X7361924Y15056438D01*
X7361924Y15197392D01*
X7470783Y15306251D01*
X7499065Y15306251D01*
X7607924Y15197392D01*
X7607924Y15056438D01*
X7674465Y15017788D01*
X7713114Y14951249D01*
X7854068Y14951249D01*
X7962927Y14842390D01*
X8142535Y15021998D01*
X8170817Y15021998D01*
X8350425Y14842390D01*
X8459284Y14951249D01*
X8600238Y14951249D01*
X8646160Y15030309D01*
X8608676Y15100641D01*
X8620494Y15112459D01*
X8535494Y15197459D01*
X8531575Y15202246D01*
X8526679Y15206274D01*
X8440886Y15292067D01*
X8429020Y15280201D01*
X8359915Y15317245D01*
X8358736Y15317733D01*
X8279676Y15271811D01*
X8279676Y15130857D01*
X8170817Y15021998D01*
X8142535Y15021998D01*
X8033676Y15130857D01*
X8033676Y15271811D01*
X7967135Y15310461D01*
X7928486Y15377000D01*
X7787532Y15377000D01*
X7678673Y15485859D01*
X7499065Y15306251D01*
X7470783Y15306251D01*
X7291175Y15485859D01*
X7182316Y15377000D01*
X7041362Y15377000D01*
X6995440Y15297940D01*
X7032924Y15227608D01*
X7014806Y15209490D01*
X6945701Y15246534D01*
X6944522Y15247022D01*
X6865462Y15201100D01*
X6865462Y15060146D01*
X6756603Y14951287D01*
X6728321Y14951287D01*
X6619462Y15060146D01*
X6619462Y15201100D01*
X6540402Y15247022D01*
X6470070Y15209538D01*
X6451952Y15227656D01*
X6488996Y15296761D01*
X6489484Y15297940D01*
X6443562Y15377000D01*
X6302608Y15377000D01*
X6193749Y15485859D01*
X6014141Y15306251D01*
X5985859Y15306251D01*
X5806251Y15485859D01*
X5697392Y15377000D01*
X5556438Y15377000D01*
X5510516Y15297940D01*
X5548000Y15227608D01*
X5529882Y15209490D01*
X5460777Y15246534D01*
X5459598Y15247022D01*
X5380538Y15201100D01*
X5380538Y15060146D01*
X5271679Y14951287D01*
X5243397Y14951287D01*
X5134538Y15060146D01*
X5134538Y15201100D01*
X5055478Y15247022D01*
X4985146Y15209538D01*
X4967028Y15227656D01*
X5004072Y15296761D01*
X5004560Y15297940D01*
X4958638Y15377000D01*
X4817684Y15377000D01*
X4708825Y15485859D01*
X4529217Y15306251D01*
X4500935Y15306251D01*
X4321327Y15485859D01*
X4212469Y15377000D01*
X4071514Y15377000D01*
X4032865Y15310461D01*
X3966324Y15271811D01*
X3966324Y15130857D01*
X3857465Y15021998D01*
X3829183Y15021998D01*
X3720324Y15130857D01*
X3720324Y15271811D01*
X3641264Y15317733D01*
X3570932Y15280249D01*
X3559114Y15292067D01*
X3474114Y15207067D01*
X3469327Y15203148D01*
X3465299Y15198252D01*
X3379506Y15112459D01*
X3391372Y15100593D01*
X3354328Y15031488D01*
X3353840Y15030309D01*
X2089981Y15030309D01*
X1527000Y15593289D01*
X1527000Y15969691D01*
X3353840Y15969691D01*
X3391324Y15899359D01*
X3379506Y15887541D01*
X3464506Y15802541D01*
X3468425Y15797754D01*
X3473321Y15793726D01*
X3559114Y15707933D01*
X3570980Y15719799D01*
X3640085Y15682755D01*
X3641264Y15682267D01*
X3720324Y15728189D01*
X3720324Y15869143D01*
X3829183Y15978002D01*
X3857465Y15978002D01*
X3966324Y15869143D01*
X3966324Y15728189D01*
X4032865Y15689539D01*
X4071514Y15623000D01*
X4212468Y15623000D01*
X4321327Y15514141D01*
X4500935Y15693749D01*
X4529217Y15693749D01*
X4708825Y15514141D01*
X4817684Y15623000D01*
X4958638Y15623000D01*
X5004560Y15702060D01*
X4967076Y15772392D01*
X4985194Y15790510D01*
X5054299Y15753466D01*
X5055478Y15752978D01*
X5134538Y15798900D01*
X5134538Y15939854D01*
X5243397Y16048713D01*
X5271679Y16048713D01*
X5380538Y15939854D01*
X5380538Y15798900D01*
X5459598Y15752978D01*
X5529930Y15790462D01*
X5548048Y15772344D01*
X5511004Y15703239D01*
X5510516Y15702060D01*
X5556438Y15623000D01*
X5697392Y15623000D01*
X5806251Y15514141D01*
X5985859Y15693749D01*
X6014141Y15693749D01*
X6193749Y15514141D01*
X6302608Y15623000D01*
X6443562Y15623000D01*
X6489484Y15702060D01*
X6452000Y15772392D01*
X6470118Y15790510D01*
X6539223Y15753466D01*
X6540402Y15752978D01*
X6619462Y15798900D01*
X6619462Y15939854D01*
X6728321Y16048713D01*
X6756603Y16048713D01*
X6865462Y15939854D01*
X6865462Y15798900D01*
X6944522Y15752978D01*
X7014854Y15790462D01*
X7032972Y15772344D01*
X6995928Y15703239D01*
X6995440Y15702060D01*
X7041362Y15623000D01*
X7182316Y15623000D01*
X7291175Y15514141D01*
X7470783Y15693749D01*
X7499065Y15693749D01*
X7678673Y15514141D01*
X7787533Y15623000D01*
X7928486Y15623000D01*
X7967135Y15689539D01*
X8033676Y15728189D01*
X8033676Y15869143D01*
X8142535Y15978002D01*
X8170817Y15978002D01*
X8279676Y15869143D01*
X8279676Y15728189D01*
X8358736Y15682267D01*
X8429068Y15719751D01*
X8440886Y15707933D01*
X8525886Y15792933D01*
X8530673Y15796852D01*
X8534701Y15801748D01*
X8620494Y15887541D01*
X8608628Y15899407D01*
X8645672Y15968512D01*
X8646160Y15969691D01*
X8600238Y16048751D01*
X8459284Y16048751D01*
X8350425Y16157610D01*
X8170817Y15978002D01*
X8142535Y15978002D01*
X7962927Y16157610D01*
X7854069Y16048751D01*
X7713114Y16048751D01*
X7674465Y15982212D01*
X7607924Y15943562D01*
X7607924Y15802608D01*
X7499065Y15693749D01*
X7470783Y15693749D01*
X7361924Y15802608D01*
X7361924Y15943562D01*
X7282864Y15989484D01*
X7212532Y15952000D01*
X7194414Y15970118D01*
X7231458Y16039223D01*
X7231946Y16040402D01*
X7186024Y16119462D01*
X7045070Y16119462D01*
X6936211Y16228321D01*
X6756603Y16048713D01*
X6728321Y16048713D01*
X6548713Y16228321D01*
X6439854Y16119462D01*
X6298900Y16119462D01*
X6252978Y16040402D01*
X6290462Y15970070D01*
X6272344Y15951952D01*
X6203239Y15988996D01*
X6202060Y15989484D01*
X6123000Y15943562D01*
X6123000Y15802608D01*
X6014141Y15693749D01*
X5985859Y15693749D01*
X5877000Y15802608D01*
X5877000Y15943562D01*
X5797940Y15989484D01*
X5727608Y15952000D01*
X5709490Y15970118D01*
X5746534Y16039223D01*
X5747022Y16040402D01*
X5701100Y16119462D01*
X5560146Y16119462D01*
X5451287Y16228321D01*
X5271679Y16048713D01*
X5243397Y16048713D01*
X5063789Y16228321D01*
X4954930Y16119462D01*
X4813976Y16119462D01*
X4768054Y16040402D01*
X4805538Y15970070D01*
X4787420Y15951952D01*
X4718315Y15988996D01*
X4717136Y15989484D01*
X4638076Y15943562D01*
X4638076Y15802608D01*
X4529217Y15693749D01*
X4500935Y15693749D01*
X4392076Y15802608D01*
X4392076Y15943562D01*
X4325535Y15982212D01*
X4286886Y16048751D01*
X4145932Y16048751D01*
X4037073Y16157610D01*
X3857465Y15978002D01*
X3829183Y15978002D01*
X3649575Y16157610D01*
X3540716Y16048751D01*
X3399762Y16048751D01*
X3353840Y15969691D01*
X1527000Y15969691D01*
X1527000Y16323000D01*
X2874119Y16323000D01*
X2900000Y16320451D01*
X2925881Y16323000D01*
X3003310Y16330626D01*
X3102650Y16360761D01*
X3127065Y16373811D01*
X3353840Y16373811D01*
X3399762Y16294751D01*
X3540716Y16294751D01*
X3649575Y16185892D01*
X3829183Y16365500D01*
X3857465Y16365500D01*
X4037073Y16185892D01*
X4145932Y16294751D01*
X4286886Y16294751D01*
X4332808Y16373811D01*
X4295324Y16444143D01*
X4313443Y16462262D01*
X4382547Y16425218D01*
X4383726Y16424730D01*
X4462786Y16470652D01*
X4462786Y16611606D01*
X4571645Y16720465D01*
X4599927Y16720465D01*
X4708786Y16611606D01*
X4708786Y16470652D01*
X4775326Y16432002D01*
X4813976Y16365462D01*
X4954930Y16365462D01*
X5063789Y16256603D01*
X5243397Y16436211D01*
X5271679Y16436211D01*
X5451287Y16256603D01*
X5560146Y16365462D01*
X5701100Y16365462D01*
X5747022Y16444522D01*
X5709538Y16514854D01*
X5727656Y16532972D01*
X5796761Y16495928D01*
X5797940Y16495440D01*
X5877000Y16541362D01*
X5877000Y16682316D01*
X5985859Y16791175D01*
X6014141Y16791175D01*
X6123000Y16682316D01*
X6123000Y16541362D01*
X6202060Y16495440D01*
X6272392Y16532924D01*
X6290510Y16514806D01*
X6253466Y16445701D01*
X6252978Y16444522D01*
X6298900Y16365462D01*
X6439854Y16365462D01*
X6548713Y16256603D01*
X6728321Y16436211D01*
X6756603Y16436211D01*
X6936211Y16256603D01*
X7045070Y16365462D01*
X7186024Y16365462D01*
X7224674Y16432002D01*
X7291214Y16470652D01*
X7291214Y16611606D01*
X7400073Y16720465D01*
X7428355Y16720465D01*
X7537214Y16611606D01*
X7537214Y16470652D01*
X7616274Y16424730D01*
X7686606Y16462214D01*
X7692859Y16455961D01*
X7692858Y16455961D01*
X7704724Y16444095D01*
X7667680Y16374990D01*
X7667192Y16373811D01*
X7713114Y16294751D01*
X7854068Y16294751D01*
X7962927Y16185892D01*
X8142535Y16365500D01*
X8170817Y16365500D01*
X8350425Y16185892D01*
X8459284Y16294751D01*
X8600238Y16294751D01*
X8646160Y16373811D01*
X8608676Y16444143D01*
X8620494Y16455961D01*
X8535494Y16540961D01*
X8531575Y16545748D01*
X8526679Y16549776D01*
X8440886Y16635569D01*
X8429020Y16623703D01*
X8359915Y16660747D01*
X8358736Y16661235D01*
X8279676Y16615313D01*
X8279676Y16474359D01*
X8170817Y16365500D01*
X8142535Y16365500D01*
X8033676Y16474359D01*
X8033676Y16615313D01*
X7954616Y16661235D01*
X7884284Y16623751D01*
X7878032Y16630003D01*
X7878032Y16630004D01*
X7866166Y16641870D01*
X7903210Y16710975D01*
X7903698Y16712154D01*
X7857776Y16791214D01*
X7716822Y16791214D01*
X7607963Y16900073D01*
X7428355Y16720465D01*
X7400073Y16720465D01*
X7220465Y16900073D01*
X7111606Y16791214D01*
X6970652Y16791214D01*
X6932002Y16724674D01*
X6865462Y16686024D01*
X6865462Y16545070D01*
X6756603Y16436211D01*
X6728321Y16436211D01*
X6619462Y16545070D01*
X6619462Y16686024D01*
X6540402Y16731946D01*
X6470070Y16694462D01*
X6451952Y16712580D01*
X6488996Y16781685D01*
X6489484Y16782864D01*
X6443562Y16861924D01*
X6302608Y16861924D01*
X6193749Y16970783D01*
X6014141Y16791175D01*
X5985859Y16791175D01*
X5806251Y16970783D01*
X5697392Y16861924D01*
X5556438Y16861924D01*
X5510516Y16782864D01*
X5548000Y16712532D01*
X5529882Y16694414D01*
X5460777Y16731458D01*
X5459598Y16731946D01*
X5380538Y16686024D01*
X5380538Y16545070D01*
X5271679Y16436211D01*
X5243397Y16436211D01*
X5134538Y16545070D01*
X5134538Y16686024D01*
X5067998Y16724674D01*
X5029348Y16791214D01*
X4888394Y16791214D01*
X4779535Y16900073D01*
X4599927Y16720465D01*
X4571645Y16720465D01*
X4392037Y16900073D01*
X4283178Y16791214D01*
X4142224Y16791214D01*
X4096302Y16712154D01*
X4133786Y16641822D01*
X4121968Y16630004D01*
X4121969Y16630003D01*
X4115668Y16623702D01*
X4046563Y16660747D01*
X4045384Y16661235D01*
X3966324Y16615313D01*
X3966324Y16474359D01*
X3857465Y16365500D01*
X3829183Y16365500D01*
X3720324Y16474359D01*
X3720324Y16615313D01*
X3641264Y16661235D01*
X3570932Y16623751D01*
X3559114Y16635569D01*
X3474114Y16550569D01*
X3469327Y16546650D01*
X3465299Y16541754D01*
X3379506Y16455961D01*
X3391372Y16444095D01*
X3354328Y16374990D01*
X3353840Y16373811D01*
X3127065Y16373811D01*
X3194202Y16409696D01*
X3274448Y16475552D01*
X3290955Y16495666D01*
X3911563Y17116274D01*
X4096302Y17116274D01*
X4142224Y17037214D01*
X4283178Y17037214D01*
X4392037Y16928355D01*
X4571645Y17107963D01*
X4599927Y17107963D01*
X4779535Y16928355D01*
X4888394Y17037214D01*
X5029348Y17037214D01*
X5075270Y17116274D01*
X5037786Y17186605D01*
X5055905Y17204724D01*
X5125010Y17167680D01*
X5126189Y17167192D01*
X5205249Y17213114D01*
X5205249Y17354068D01*
X5314108Y17462927D01*
X5342390Y17462927D01*
X5451249Y17354068D01*
X5451249Y17213114D01*
X5517788Y17174465D01*
X5556438Y17107924D01*
X5697392Y17107924D01*
X5806251Y16999065D01*
X5985859Y17178673D01*
X6014141Y17178673D01*
X6193749Y16999065D01*
X6302608Y17107924D01*
X6443562Y17107924D01*
X6482212Y17174465D01*
X6548751Y17213114D01*
X6548751Y17354067D01*
X6657610Y17462927D01*
X6685892Y17462927D01*
X6794751Y17354068D01*
X6794751Y17213114D01*
X6873811Y17167192D01*
X6944143Y17204676D01*
X6955961Y17192858D01*
X6955962Y17192858D01*
X6962262Y17186558D01*
X6925218Y17117453D01*
X6924730Y17116274D01*
X6970652Y17037214D01*
X7111606Y17037214D01*
X7220465Y16928355D01*
X7400073Y17107963D01*
X7428355Y17107963D01*
X7607963Y16928355D01*
X7716822Y17037214D01*
X7857776Y17037214D01*
X7903698Y17116274D01*
X7866214Y17186606D01*
X7878032Y17198424D01*
X7793032Y17283424D01*
X7789113Y17288211D01*
X7784217Y17292239D01*
X7698424Y17378032D01*
X7686558Y17366166D01*
X7617453Y17403210D01*
X7616274Y17403698D01*
X7537214Y17357776D01*
X7537214Y17216822D01*
X7428355Y17107963D01*
X7400073Y17107963D01*
X7291214Y17216822D01*
X7291214Y17357776D01*
X7212154Y17403698D01*
X7141822Y17366214D01*
X7130004Y17378032D01*
X7130004Y17378031D01*
X7123703Y17384332D01*
X7160747Y17453437D01*
X7161235Y17454616D01*
X7115313Y17533676D01*
X6974359Y17533676D01*
X6865500Y17642535D01*
X6685892Y17462927D01*
X6657610Y17462927D01*
X6478002Y17642535D01*
X6369143Y17533676D01*
X6228189Y17533676D01*
X6189539Y17467135D01*
X6123000Y17428486D01*
X6123000Y17287531D01*
X6014141Y17178673D01*
X5985859Y17178673D01*
X5877000Y17287532D01*
X5877000Y17428486D01*
X5810461Y17467135D01*
X5771811Y17533676D01*
X5630857Y17533676D01*
X5521998Y17642535D01*
X5342390Y17462927D01*
X5314108Y17462927D01*
X5134500Y17642535D01*
X5025641Y17533676D01*
X4884687Y17533676D01*
X4838765Y17454616D01*
X4876249Y17384283D01*
X4869997Y17378031D01*
X4869996Y17378032D01*
X4858130Y17366166D01*
X4789025Y17403210D01*
X4787846Y17403698D01*
X4708786Y17357776D01*
X4708786Y17216822D01*
X4599927Y17107963D01*
X4571645Y17107963D01*
X4462786Y17216822D01*
X4462786Y17357776D01*
X4383726Y17403698D01*
X4313394Y17366214D01*
X4301576Y17378032D01*
X4216576Y17293032D01*
X4211789Y17289113D01*
X4207761Y17284217D01*
X4121968Y17198424D01*
X4133834Y17186558D01*
X4096790Y17117453D01*
X4096302Y17116274D01*
X3911563Y17116274D01*
X4654025Y17858736D01*
X4838765Y17858736D01*
X4884687Y17779676D01*
X5025641Y17779676D01*
X5134500Y17670817D01*
X5314108Y17850425D01*
X5342390Y17850425D01*
X5521998Y17670817D01*
X5630857Y17779676D01*
X5771811Y17779676D01*
X5817733Y17858736D01*
X6182267Y17858736D01*
X6228189Y17779676D01*
X6369143Y17779676D01*
X6478002Y17670817D01*
X6657610Y17850425D01*
X6685892Y17850425D01*
X6865500Y17670817D01*
X6974359Y17779676D01*
X7115313Y17779676D01*
X7161235Y17858736D01*
X7123751Y17929068D01*
X7135569Y17940886D01*
X7050569Y18025886D01*
X7046650Y18030673D01*
X7041754Y18034701D01*
X6955961Y18120494D01*
X6944095Y18108628D01*
X6874990Y18145672D01*
X6873811Y18146160D01*
X6794751Y18100238D01*
X6794751Y17959284D01*
X6685892Y17850425D01*
X6657610Y17850425D01*
X6548751Y17959284D01*
X6548751Y18100238D01*
X6469691Y18146160D01*
X6399359Y18108676D01*
X6387541Y18120494D01*
X6302541Y18035494D01*
X6297754Y18031575D01*
X6293726Y18026679D01*
X6207933Y17940886D01*
X6219799Y17929020D01*
X6182755Y17859915D01*
X6182267Y17858736D01*
X5817733Y17858736D01*
X5780249Y17929068D01*
X5792067Y17940886D01*
X5707067Y18025886D01*
X5703148Y18030673D01*
X5698252Y18034701D01*
X5612459Y18120494D01*
X5600593Y18108628D01*
X5531488Y18145672D01*
X5530309Y18146160D01*
X5451249Y18100238D01*
X5451249Y17959284D01*
X5342390Y17850425D01*
X5314108Y17850425D01*
X5205249Y17959284D01*
X5205249Y18100238D01*
X5126189Y18146160D01*
X5055857Y18108676D01*
X5044039Y18120494D01*
X4959039Y18035494D01*
X4954252Y18031575D01*
X4950224Y18026679D01*
X4864431Y17940886D01*
X4876297Y17929020D01*
X4839253Y17859915D01*
X4838765Y17858736D01*
X4654025Y17858736D01*
X5418290Y18623000D01*
X8306711Y18623000D01*
X8537038Y18392673D01*
X8547095Y18342111D01*
X8594360Y18228004D01*
X8662977Y18125311D01*
X8750311Y18037977D01*
X8853004Y17969360D01*
X8967111Y17922095D01*
X9017672Y17912038D01*
X9123001Y17806709D01*
X9123000Y10525881D01*
X9120451Y10500000D01*
X9123000Y10474120D01*
X9130626Y10396691D01*
X9160761Y10297351D01*
X9209696Y10205798D01*
X9275552Y10125552D01*
X9295666Y10109045D01*
X10807743Y8596967D01*
X10062777Y7852000D01*
X9188152Y7852000D01*
X9255640Y7953004D01*
X9302905Y8067111D01*
X9327000Y8188246D01*
X9327000Y8311754D01*
X9302905Y8432889D01*
X9255640Y8546996D01*
X9187023Y8649689D01*
X9099689Y8737023D01*
X8996996Y8805640D01*
X8882889Y8852905D01*
X8761754Y8877000D01*
X8638246Y8877000D01*
X8517111Y8852905D01*
X8403004Y8805640D01*
X8300311Y8737023D01*
X8212977Y8649689D01*
X8144360Y8546996D01*
X8097095Y8432889D01*
X8073000Y8311754D01*
X8073000Y8188246D01*
X8097095Y8067111D01*
X8144360Y7953004D01*
X8179380Y7900593D01*
X8096996Y7955640D01*
X7982889Y8002905D01*
X7861754Y8027000D01*
X7738246Y8027000D01*
X7617111Y8002905D01*
X7503004Y7955640D01*
X7400311Y7887023D01*
X7312977Y7799689D01*
X7244360Y7696996D01*
X7197095Y7582889D01*
X7173000Y7461754D01*
X7173000Y7338246D01*
X7197095Y7217111D01*
X7244360Y7103004D01*
X7312977Y7000311D01*
X7400311Y6912977D01*
X7503004Y6844360D01*
X7617111Y6797095D01*
X7738246Y6773000D01*
X7861754Y6773000D01*
X7982889Y6797095D01*
X8096996Y6844360D01*
X8199689Y6912977D01*
X8234712Y6948000D01*
X10020013Y6948000D01*
X10002417Y6946267D01*
X9884545Y6910510D01*
X9775913Y6852446D01*
X9680697Y6774303D01*
X9602554Y6679087D01*
X9544490Y6570455D01*
X9508733Y6452583D01*
X9496660Y6330000D01*
X9496660Y4930000D01*
X9508733Y4807417D01*
X9544490Y4689545D01*
X9602554Y4580913D01*
X9680697Y4485697D01*
X9775913Y4407554D01*
X9884545Y4349490D01*
X10002417Y4313733D01*
X10125000Y4301660D01*
X10825000Y4301660D01*
X10947583Y4313733D01*
X11065455Y4349490D01*
X11174087Y4407554D01*
X11269303Y4485697D01*
X11347446Y4580913D01*
X11405510Y4689545D01*
X11441267Y4807417D01*
X11453340Y4930000D01*
X11453340Y5159292D01*
X11498000Y5159292D01*
X11498000Y5040708D01*
X11521134Y4924403D01*
X11566514Y4814846D01*
X11632396Y4716247D01*
X11716247Y4632396D01*
X11814846Y4566514D01*
X11924403Y4521134D01*
X12040708Y4498000D01*
X12159292Y4498000D01*
X12275597Y4521134D01*
X12385154Y4566514D01*
X12483753Y4632396D01*
X12567604Y4716247D01*
X12633486Y4814846D01*
X12678866Y4924403D01*
X12681322Y4936754D01*
X13448000Y4936754D01*
X13448000Y4813246D01*
X13472095Y4692111D01*
X13519360Y4578004D01*
X13587977Y4475311D01*
X13675311Y4387977D01*
X13778004Y4319360D01*
X13892111Y4272095D01*
X14013246Y4248000D01*
X14136754Y4248000D01*
X14257889Y4272095D01*
X14371996Y4319360D01*
X14474689Y4387977D01*
X14500000Y4413288D01*
X14525311Y4387977D01*
X14628004Y4319360D01*
X14742111Y4272095D01*
X14863246Y4248000D01*
X14986754Y4248000D01*
X15107889Y4272095D01*
X15221996Y4319360D01*
X15324689Y4387977D01*
X15412023Y4475311D01*
X15480640Y4578004D01*
X15527905Y4692111D01*
X15552000Y4813246D01*
X15552000Y4936754D01*
X15527905Y5057889D01*
X15485903Y5159292D01*
X17298000Y5159292D01*
X17298000Y5040708D01*
X17321134Y4924403D01*
X17366514Y4814846D01*
X17432396Y4716247D01*
X17516247Y4632396D01*
X17614846Y4566514D01*
X17724403Y4521134D01*
X17840708Y4498000D01*
X17959292Y4498000D01*
X18075597Y4521134D01*
X18185154Y4566514D01*
X18283753Y4632396D01*
X18367604Y4716247D01*
X18433486Y4814846D01*
X18478866Y4924403D01*
X18502000Y5040708D01*
X18502000Y5159292D01*
X18478866Y5275597D01*
X18433486Y5385154D01*
X18367604Y5483753D01*
X18283753Y5567604D01*
X18185154Y5633486D01*
X18075597Y5678866D01*
X17959292Y5702000D01*
X17840708Y5702000D01*
X17724403Y5678866D01*
X17614846Y5633486D01*
X17516247Y5567604D01*
X17432396Y5483753D01*
X17366514Y5385154D01*
X17321134Y5275597D01*
X17298000Y5159292D01*
X15485903Y5159292D01*
X15480640Y5171996D01*
X15412023Y5274689D01*
X15324689Y5362023D01*
X15221996Y5430640D01*
X15107889Y5477905D01*
X14986754Y5502000D01*
X14863246Y5502000D01*
X14742111Y5477905D01*
X14628004Y5430640D01*
X14525311Y5362023D01*
X14500000Y5336712D01*
X14474689Y5362023D01*
X14371996Y5430640D01*
X14257889Y5477905D01*
X14136754Y5502000D01*
X14013246Y5502000D01*
X13892111Y5477905D01*
X13778004Y5430640D01*
X13675311Y5362023D01*
X13587977Y5274689D01*
X13519360Y5171996D01*
X13472095Y5057889D01*
X13448000Y4936754D01*
X12681322Y4936754D01*
X12702000Y5040708D01*
X12702000Y5159292D01*
X12678866Y5275597D01*
X12633486Y5385154D01*
X12567604Y5483753D01*
X12483753Y5567604D01*
X12385154Y5633486D01*
X12275597Y5678866D01*
X12159292Y5702000D01*
X12040708Y5702000D01*
X11924403Y5678866D01*
X11814846Y5633486D01*
X11716247Y5567604D01*
X11632396Y5483753D01*
X11566514Y5385154D01*
X11521134Y5275597D01*
X11498000Y5159292D01*
X11453340Y5159292D01*
X11453340Y6330000D01*
X18546660Y6330000D01*
X18546660Y4930000D01*
X18558733Y4807417D01*
X18594490Y4689545D01*
X18652554Y4580913D01*
X18730697Y4485697D01*
X18825913Y4407554D01*
X18934545Y4349490D01*
X19052417Y4313733D01*
X19175000Y4301660D01*
X19875000Y4301660D01*
X19997583Y4313733D01*
X20115455Y4349490D01*
X20224087Y4407554D01*
X20319303Y4485697D01*
X20397446Y4580913D01*
X20455510Y4689545D01*
X20491267Y4807417D01*
X20503340Y4930000D01*
X20503340Y6330000D01*
X20491267Y6452583D01*
X20455510Y6570455D01*
X20397446Y6679087D01*
X20319303Y6774303D01*
X20224087Y6852446D01*
X20115455Y6910510D01*
X19997583Y6946267D01*
X19875000Y6958340D01*
X19175000Y6958340D01*
X19052417Y6946267D01*
X18934545Y6910510D01*
X18825913Y6852446D01*
X18730697Y6774303D01*
X18652554Y6679087D01*
X18594490Y6570455D01*
X18558733Y6452583D01*
X18546660Y6330000D01*
X11453340Y6330000D01*
X11441267Y6452583D01*
X11405510Y6570455D01*
X11347446Y6679087D01*
X11269303Y6774303D01*
X11174087Y6852446D01*
X11065455Y6910510D01*
X10947583Y6946267D01*
X10825000Y6958340D01*
X10351134Y6958340D01*
X10423810Y6980386D01*
X10502333Y7022357D01*
X10571159Y7078841D01*
X10585323Y7096100D01*
X11220026Y7730803D01*
X18937124Y7730803D01*
X18937124Y7597445D01*
X18963140Y7466650D01*
X19014174Y7343444D01*
X19088264Y7232561D01*
X19182561Y7138264D01*
X19293444Y7064174D01*
X19416650Y7013140D01*
X19547445Y6987124D01*
X19680803Y6987124D01*
X19811598Y7013140D01*
X19934804Y7064174D01*
X20045687Y7138264D01*
X20139984Y7232561D01*
X20214074Y7343444D01*
X20265108Y7466650D01*
X20291124Y7597445D01*
X20291124Y7658876D01*
X20352555Y7658876D01*
X20483350Y7684892D01*
X20606556Y7735926D01*
X20717439Y7810016D01*
X20811736Y7904313D01*
X20885826Y8015196D01*
X20936860Y8138402D01*
X20962876Y8269197D01*
X20962876Y8402555D01*
X20936860Y8533350D01*
X20885826Y8656556D01*
X20811736Y8767439D01*
X20717439Y8861736D01*
X20606556Y8935826D01*
X20483350Y8986860D01*
X20352555Y9012876D01*
X20219197Y9012876D01*
X20088402Y8986860D01*
X19965196Y8935826D01*
X19854313Y8861736D01*
X19760016Y8767439D01*
X19685926Y8656556D01*
X19634892Y8533350D01*
X19608876Y8402555D01*
X19608876Y8341124D01*
X19547445Y8341124D01*
X19416650Y8315108D01*
X19293444Y8264074D01*
X19182561Y8189984D01*
X19088264Y8095687D01*
X19014174Y7984804D01*
X18963140Y7861598D01*
X18937124Y7730803D01*
X11220026Y7730803D01*
X11462224Y7973000D01*
X11566679Y7973000D01*
X11697474Y7999016D01*
X11820680Y8050050D01*
X11931563Y8124140D01*
X12025860Y8218437D01*
X12099950Y8329320D01*
X12150984Y8452526D01*
X12159043Y8493042D01*
X12689001Y9023000D01*
X21760999Y9023000D01*
X21840957Y8943042D01*
X21849016Y8902526D01*
X21900050Y8779320D01*
X21973000Y8670143D01*
X21973001Y5035891D01*
X21970451Y5010000D01*
X21980626Y4906691D01*
X22010761Y4807351D01*
X22010762Y4807350D01*
X22059697Y4715798D01*
X22125553Y4635552D01*
X22145662Y4619049D01*
X24629141Y2135568D01*
X24626310Y2128734D01*
X24583000Y1911000D01*
X24583000Y1689000D01*
X24626310Y1471266D01*
X24711266Y1266165D01*
X24834602Y1081579D01*
X24991579Y924602D01*
X25176165Y801266D01*
X25381266Y716310D01*
X25599000Y673000D01*
X25821000Y673000D01*
X26038734Y716310D01*
X26243835Y801266D01*
X26428421Y924602D01*
X26453819Y950000D01*
X27121660Y950000D01*
X27127008Y895699D01*
X27142847Y843484D01*
X27168569Y795363D01*
X27203184Y753184D01*
X27245363Y718569D01*
X27293484Y692847D01*
X27345699Y677008D01*
X27400000Y671660D01*
X28053750Y673000D01*
X28123000Y742250D01*
X28123000Y1673000D01*
X28377000Y1673000D01*
X28377000Y742250D01*
X28446250Y673000D01*
X29100000Y671660D01*
X29154301Y677008D01*
X29206516Y692847D01*
X29254637Y718569D01*
X29296816Y753184D01*
X29331431Y795363D01*
X29357153Y843484D01*
X29372992Y895699D01*
X29378340Y950000D01*
X29377000Y1603750D01*
X29307750Y1673000D01*
X28377000Y1673000D01*
X28123000Y1673000D01*
X27192250Y1673000D01*
X27123000Y1603750D01*
X27121660Y950000D01*
X26453819Y950000D01*
X26585398Y1081579D01*
X26708734Y1266165D01*
X26793690Y1471266D01*
X26837000Y1689000D01*
X26837000Y1911000D01*
X26793690Y2128734D01*
X26708734Y2333835D01*
X26585398Y2518421D01*
X26453819Y2650000D01*
X27121660Y2650000D01*
X27123000Y1996250D01*
X27192250Y1927000D01*
X28123000Y1927000D01*
X28123000Y2857750D01*
X28377000Y2857750D01*
X28377000Y1927000D01*
X29307750Y1927000D01*
X29377000Y1996250D01*
X29378340Y2650000D01*
X29372992Y2704301D01*
X29357153Y2756516D01*
X29331431Y2804637D01*
X29296816Y2846816D01*
X29254637Y2881431D01*
X29206516Y2907153D01*
X29154301Y2922992D01*
X29100000Y2928340D01*
X28446250Y2927000D01*
X28377000Y2857750D01*
X28123000Y2857750D01*
X28053750Y2927000D01*
X27400000Y2928340D01*
X27345699Y2922992D01*
X27293484Y2907153D01*
X27245363Y2881431D01*
X27203184Y2846816D01*
X27168569Y2804637D01*
X27142847Y2756516D01*
X27127008Y2704301D01*
X27121660Y2650000D01*
X26453819Y2650000D01*
X26428421Y2675398D01*
X26243835Y2798734D01*
X26038734Y2883690D01*
X25821000Y2927000D01*
X25599000Y2927000D01*
X25381266Y2883690D01*
X25374432Y2880859D01*
X23027000Y5228289D01*
X23027000Y8670143D01*
X23099950Y8779320D01*
X23150984Y8902526D01*
X23177000Y9033321D01*
X23177000Y9166679D01*
X23150984Y9297474D01*
X23099950Y9420680D01*
X23025860Y9531563D01*
X22931563Y9625860D01*
X22820680Y9699950D01*
X22697474Y9750984D01*
X22656958Y9759043D01*
X22452000Y9964001D01*
X22452000Y11602795D01*
X22454187Y11625000D01*
X22445460Y11713608D01*
X22419614Y11798810D01*
X22419144Y11799689D01*
X22377643Y11877333D01*
X22321159Y11946159D01*
X22303906Y11960318D01*
X21602000Y12662223D01*
X21602000Y15415288D01*
X21637023Y15450311D01*
X21705640Y15553004D01*
X21752905Y15667111D01*
X21777000Y15788246D01*
X21777000Y15911754D01*
X21752905Y16032889D01*
X21705640Y16146996D01*
X21637023Y16249689D01*
X21549689Y16337023D01*
X21446996Y16405640D01*
X21332889Y16452905D01*
X21211754Y16477000D01*
X21088246Y16477000D01*
X20967111Y16452905D01*
X20853004Y16405640D01*
X20750311Y16337023D01*
X20662977Y16249689D01*
X20594360Y16146996D01*
X20547095Y16032889D01*
X20523000Y15911754D01*
X20523000Y15788246D01*
X20547095Y15667111D01*
X20594360Y15553004D01*
X20662977Y15450311D01*
X20698000Y15415288D01*
X20698001Y12497215D01*
X20695813Y12475000D01*
X20704540Y12386393D01*
X20730386Y12301191D01*
X20764031Y12238246D01*
X20772358Y12222667D01*
X20828842Y12153841D01*
X20846096Y12139681D01*
X21548000Y11437776D01*
X21548001Y10177000D01*
X12977000Y10177000D01*
X12977000Y13261754D01*
X13473000Y13261754D01*
X13473000Y13138246D01*
X13497095Y13017111D01*
X13544360Y12903004D01*
X13612977Y12800311D01*
X13700311Y12712977D01*
X13803004Y12644360D01*
X13917111Y12597095D01*
X14038246Y12573000D01*
X14148000Y12573000D01*
X14148000Y12463246D01*
X14172095Y12342111D01*
X14219360Y12228004D01*
X14287977Y12125311D01*
X14375311Y12037977D01*
X14478004Y11969360D01*
X14592111Y11922095D01*
X14713246Y11898000D01*
X14836754Y11898000D01*
X14957889Y11922095D01*
X15071996Y11969360D01*
X15174689Y12037977D01*
X15262023Y12125311D01*
X15330640Y12228004D01*
X15377905Y12342111D01*
X15402000Y12463246D01*
X15402000Y12586754D01*
X15377905Y12707889D01*
X15330640Y12821996D01*
X15262023Y12924689D01*
X15174689Y13012023D01*
X15100262Y13061754D01*
X17573000Y13061754D01*
X17573000Y12938246D01*
X17597095Y12817111D01*
X17644360Y12703004D01*
X17712977Y12600311D01*
X17800311Y12512977D01*
X17903004Y12444360D01*
X18017111Y12397095D01*
X18138246Y12373000D01*
X18261754Y12373000D01*
X18382889Y12397095D01*
X18496996Y12444360D01*
X18599689Y12512977D01*
X18687023Y12600311D01*
X18755640Y12703004D01*
X18802905Y12817111D01*
X18827000Y12938246D01*
X18827000Y13061754D01*
X18802905Y13182889D01*
X18755640Y13296996D01*
X18687023Y13399689D01*
X18599689Y13487023D01*
X18496996Y13555640D01*
X18382889Y13602905D01*
X18261754Y13627000D01*
X18138246Y13627000D01*
X18017111Y13602905D01*
X17903004Y13555640D01*
X17800311Y13487023D01*
X17712977Y13399689D01*
X17644360Y13296996D01*
X17597095Y13182889D01*
X17573000Y13061754D01*
X15100262Y13061754D01*
X15071996Y13080640D01*
X14957889Y13127905D01*
X14836754Y13152000D01*
X14727000Y13152000D01*
X14727000Y13261754D01*
X14702905Y13382889D01*
X14655640Y13496996D01*
X14587023Y13599689D01*
X14499689Y13687023D01*
X14396996Y13755640D01*
X14282889Y13802905D01*
X14161754Y13827000D01*
X14038246Y13827000D01*
X13917111Y13802905D01*
X13803004Y13755640D01*
X13700311Y13687023D01*
X13612977Y13599689D01*
X13544360Y13496996D01*
X13497095Y13382889D01*
X13473000Y13261754D01*
X12977000Y13261754D01*
X12977000Y18225774D01*
X13523000Y18225774D01*
X13523000Y17974226D01*
X13572074Y17727513D01*
X13668337Y17495114D01*
X13808089Y17285960D01*
X13985960Y17108089D01*
X14195114Y16968337D01*
X14427513Y16872074D01*
X14674226Y16823000D01*
X14925774Y16823000D01*
X15172487Y16872074D01*
X15404886Y16968337D01*
X15614040Y17108089D01*
X15791911Y17285960D01*
X15931663Y17495114D01*
X15994991Y17648000D01*
X21662777Y17648000D01*
X23398000Y15912775D01*
X23398001Y12787226D01*
X22796100Y12185323D01*
X22778841Y12171159D01*
X22722357Y12102332D01*
X22687959Y12037977D01*
X22680386Y12023809D01*
X22654540Y11938607D01*
X22645813Y11850000D01*
X22648000Y11827795D01*
X22648001Y10322215D01*
X22645813Y10300000D01*
X22654540Y10211393D01*
X22680386Y10126191D01*
X22703965Y10082078D01*
X22722358Y10047667D01*
X22778842Y9978841D01*
X22796095Y9964681D01*
X23398001Y9362774D01*
X23398000Y6222205D01*
X23395813Y6200000D01*
X23398000Y6177796D01*
X23404540Y6111394D01*
X23430386Y6026191D01*
X23472357Y5947668D01*
X23528841Y5878841D01*
X23546100Y5864677D01*
X24660207Y4750569D01*
X24626310Y4668734D01*
X24583000Y4451000D01*
X24583000Y4229000D01*
X24626310Y4011266D01*
X24711266Y3806165D01*
X24834602Y3621579D01*
X24991579Y3464602D01*
X25176165Y3341266D01*
X25381266Y3256310D01*
X25599000Y3213000D01*
X25821000Y3213000D01*
X26038734Y3256310D01*
X26243835Y3341266D01*
X26428421Y3464602D01*
X26585398Y3621579D01*
X26708734Y3806165D01*
X26793690Y4011266D01*
X26799283Y4039385D01*
X27163833Y4039385D01*
X27179866Y3986508D01*
X27269391Y3784527D01*
X27396601Y3603893D01*
X27556606Y3451547D01*
X27743258Y3333344D01*
X27949384Y3253826D01*
X28123000Y3289422D01*
X28123000Y4213000D01*
X28377000Y4213000D01*
X28377000Y3289422D01*
X28550616Y3253826D01*
X28756742Y3333344D01*
X28943394Y3451547D01*
X29103399Y3603893D01*
X29230609Y3784527D01*
X29320134Y3986508D01*
X29336167Y4039385D01*
X29300098Y4213000D01*
X28377000Y4213000D01*
X28123000Y4213000D01*
X27199902Y4213000D01*
X27163833Y4039385D01*
X26799283Y4039385D01*
X26837000Y4229000D01*
X26837000Y4451000D01*
X26799284Y4640615D01*
X27163833Y4640615D01*
X27199902Y4467000D01*
X28123000Y4467000D01*
X28123000Y5390578D01*
X28377000Y5390578D01*
X28377000Y4467000D01*
X29300098Y4467000D01*
X29336167Y4640615D01*
X29320134Y4693492D01*
X29230609Y4895473D01*
X29103399Y5076107D01*
X28943394Y5228453D01*
X28756742Y5346656D01*
X28550616Y5426174D01*
X28377000Y5390578D01*
X28123000Y5390578D01*
X27949384Y5426174D01*
X27743258Y5346656D01*
X27556606Y5228453D01*
X27396601Y5076107D01*
X27269391Y4895473D01*
X27179866Y4693492D01*
X27163833Y4640615D01*
X26799284Y4640615D01*
X26793690Y4668734D01*
X26708734Y4873835D01*
X26585398Y5058421D01*
X26428421Y5215398D01*
X26243835Y5338734D01*
X26038734Y5423690D01*
X25821000Y5467000D01*
X25599000Y5467000D01*
X25381266Y5423690D01*
X25299431Y5389793D01*
X24302000Y6387223D01*
X24302000Y6991000D01*
X24583000Y6991000D01*
X24583000Y6769000D01*
X24626310Y6551266D01*
X24711266Y6346165D01*
X24834602Y6161579D01*
X24991579Y6004602D01*
X25176165Y5881266D01*
X25381266Y5796310D01*
X25599000Y5753000D01*
X25821000Y5753000D01*
X26038734Y5796310D01*
X26243835Y5881266D01*
X26428421Y6004602D01*
X26585398Y6161579D01*
X26708734Y6346165D01*
X26793690Y6551266D01*
X26837000Y6769000D01*
X26837000Y6991000D01*
X27123000Y6991000D01*
X27123000Y6769000D01*
X27166310Y6551266D01*
X27251266Y6346165D01*
X27374602Y6161579D01*
X27531579Y6004602D01*
X27716165Y5881266D01*
X27921266Y5796310D01*
X28139000Y5753000D01*
X28361000Y5753000D01*
X28578734Y5796310D01*
X28783835Y5881266D01*
X28968421Y6004602D01*
X29125398Y6161579D01*
X29248734Y6346165D01*
X29333690Y6551266D01*
X29377000Y6769000D01*
X29377000Y6991000D01*
X29333690Y7208734D01*
X29248734Y7413835D01*
X29125398Y7598421D01*
X28968421Y7755398D01*
X28783835Y7878734D01*
X28578734Y7963690D01*
X28361000Y8007000D01*
X28139000Y8007000D01*
X27921266Y7963690D01*
X27716165Y7878734D01*
X27531579Y7755398D01*
X27374602Y7598421D01*
X27251266Y7413835D01*
X27166310Y7208734D01*
X27123000Y6991000D01*
X26837000Y6991000D01*
X26793690Y7208734D01*
X26708734Y7413835D01*
X26585398Y7598421D01*
X26428421Y7755398D01*
X26243835Y7878734D01*
X26038734Y7963690D01*
X25821000Y8007000D01*
X25599000Y8007000D01*
X25381266Y7963690D01*
X25176165Y7878734D01*
X24991579Y7755398D01*
X24834602Y7598421D01*
X24711266Y7413835D01*
X24626310Y7208734D01*
X24583000Y6991000D01*
X24302000Y6991000D01*
X24302000Y9527796D01*
X24302315Y9531000D01*
X24583000Y9531000D01*
X24583000Y9309000D01*
X24626310Y9091266D01*
X24711266Y8886165D01*
X24834602Y8701579D01*
X24991579Y8544602D01*
X25176165Y8421266D01*
X25381266Y8336310D01*
X25599000Y8293000D01*
X25821000Y8293000D01*
X26038734Y8336310D01*
X26243835Y8421266D01*
X26428421Y8544602D01*
X26585398Y8701579D01*
X26708734Y8886165D01*
X26793690Y9091266D01*
X26837000Y9309000D01*
X26837000Y9531000D01*
X27123000Y9531000D01*
X27123000Y9309000D01*
X27166310Y9091266D01*
X27251266Y8886165D01*
X27374602Y8701579D01*
X27531579Y8544602D01*
X27716165Y8421266D01*
X27921266Y8336310D01*
X28139000Y8293000D01*
X28361000Y8293000D01*
X28578734Y8336310D01*
X28783835Y8421266D01*
X28968421Y8544602D01*
X29125398Y8701579D01*
X29248734Y8886165D01*
X29333690Y9091266D01*
X29377000Y9309000D01*
X29377000Y9531000D01*
X29333690Y9748734D01*
X29248734Y9953835D01*
X29125398Y10138421D01*
X28968421Y10295398D01*
X28783835Y10418734D01*
X28578734Y10503690D01*
X28361000Y10547000D01*
X28139000Y10547000D01*
X27921266Y10503690D01*
X27716165Y10418734D01*
X27531579Y10295398D01*
X27374602Y10138421D01*
X27251266Y9953835D01*
X27166310Y9748734D01*
X27123000Y9531000D01*
X26837000Y9531000D01*
X26793690Y9748734D01*
X26708734Y9953835D01*
X26585398Y10138421D01*
X26428421Y10295398D01*
X26243835Y10418734D01*
X26038734Y10503690D01*
X25821000Y10547000D01*
X25599000Y10547000D01*
X25381266Y10503690D01*
X25176165Y10418734D01*
X24991579Y10295398D01*
X24834602Y10138421D01*
X24711266Y9953835D01*
X24626310Y9748734D01*
X24583000Y9531000D01*
X24302315Y9531000D01*
X24304187Y9550001D01*
X24295460Y9638608D01*
X24269614Y9723810D01*
X24255089Y9750984D01*
X24227643Y9802333D01*
X24171159Y9871159D01*
X24153910Y9885315D01*
X23552000Y10487223D01*
X23552000Y11662777D01*
X23960224Y12071000D01*
X24583000Y12071000D01*
X24583000Y11849000D01*
X24626310Y11631266D01*
X24711266Y11426165D01*
X24834602Y11241579D01*
X24991579Y11084602D01*
X25176165Y10961266D01*
X25381266Y10876310D01*
X25599000Y10833000D01*
X25821000Y10833000D01*
X26038734Y10876310D01*
X26243835Y10961266D01*
X26428421Y11084602D01*
X26585398Y11241579D01*
X26708734Y11426165D01*
X26793690Y11631266D01*
X26837000Y11849000D01*
X26837000Y12071000D01*
X27123000Y12071000D01*
X27123000Y11849000D01*
X27166310Y11631266D01*
X27251266Y11426165D01*
X27374602Y11241579D01*
X27531579Y11084602D01*
X27716165Y10961266D01*
X27921266Y10876310D01*
X28139000Y10833000D01*
X28361000Y10833000D01*
X28578734Y10876310D01*
X28783835Y10961266D01*
X28968421Y11084602D01*
X29125398Y11241579D01*
X29248734Y11426165D01*
X29333690Y11631266D01*
X29377000Y11849000D01*
X29377000Y12071000D01*
X29333690Y12288734D01*
X29248734Y12493835D01*
X29125398Y12678421D01*
X28968421Y12835398D01*
X28783835Y12958734D01*
X28578734Y13043690D01*
X28361000Y13087000D01*
X28139000Y13087000D01*
X27921266Y13043690D01*
X27716165Y12958734D01*
X27531579Y12835398D01*
X27374602Y12678421D01*
X27251266Y12493835D01*
X27166310Y12288734D01*
X27123000Y12071000D01*
X26837000Y12071000D01*
X26793690Y12288734D01*
X26708734Y12493835D01*
X26585398Y12678421D01*
X26428421Y12835398D01*
X26243835Y12958734D01*
X26038734Y13043690D01*
X25821000Y13087000D01*
X25599000Y13087000D01*
X25381266Y13043690D01*
X25176165Y12958734D01*
X24991579Y12835398D01*
X24834602Y12678421D01*
X24711266Y12493835D01*
X24626310Y12288734D01*
X24583000Y12071000D01*
X23960224Y12071000D01*
X24153910Y12264685D01*
X24171159Y12278841D01*
X24227643Y12347667D01*
X24269614Y12426190D01*
X24284420Y12475000D01*
X24295460Y12511392D01*
X24304187Y12599999D01*
X24302000Y12622204D01*
X24302000Y14611000D01*
X24583000Y14611000D01*
X24583000Y14389000D01*
X24626310Y14171266D01*
X24711266Y13966165D01*
X24834602Y13781579D01*
X24991579Y13624602D01*
X25176165Y13501266D01*
X25381266Y13416310D01*
X25599000Y13373000D01*
X25821000Y13373000D01*
X26038734Y13416310D01*
X26243835Y13501266D01*
X26428421Y13624602D01*
X26585398Y13781579D01*
X26708734Y13966165D01*
X26793690Y14171266D01*
X26837000Y14389000D01*
X26837000Y14611000D01*
X27123000Y14611000D01*
X27123000Y14389000D01*
X27166310Y14171266D01*
X27251266Y13966165D01*
X27374602Y13781579D01*
X27531579Y13624602D01*
X27716165Y13501266D01*
X27921266Y13416310D01*
X28139000Y13373000D01*
X28361000Y13373000D01*
X28578734Y13416310D01*
X28783835Y13501266D01*
X28968421Y13624602D01*
X29125398Y13781579D01*
X29248734Y13966165D01*
X29333690Y14171266D01*
X29377000Y14389000D01*
X29377000Y14611000D01*
X29333690Y14828734D01*
X29248734Y15033835D01*
X29125398Y15218421D01*
X28968421Y15375398D01*
X28783835Y15498734D01*
X28578734Y15583690D01*
X28361000Y15627000D01*
X28139000Y15627000D01*
X27921266Y15583690D01*
X27716165Y15498734D01*
X27531579Y15375398D01*
X27374602Y15218421D01*
X27251266Y15033835D01*
X27166310Y14828734D01*
X27123000Y14611000D01*
X26837000Y14611000D01*
X26793690Y14828734D01*
X26708734Y15033835D01*
X26585398Y15218421D01*
X26428421Y15375398D01*
X26243835Y15498734D01*
X26038734Y15583690D01*
X25821000Y15627000D01*
X25599000Y15627000D01*
X25381266Y15583690D01*
X25176165Y15498734D01*
X24991579Y15375398D01*
X24834602Y15218421D01*
X24711266Y15033835D01*
X24626310Y14828734D01*
X24583000Y14611000D01*
X24302000Y14611000D01*
X24302000Y16077796D01*
X24304187Y16100001D01*
X24295460Y16188608D01*
X24269614Y16273810D01*
X24244081Y16321579D01*
X24227643Y16352333D01*
X24171159Y16421159D01*
X24153912Y16435313D01*
X23438225Y17151000D01*
X24583000Y17151000D01*
X24583000Y16929000D01*
X24626310Y16711266D01*
X24711266Y16506165D01*
X24834602Y16321579D01*
X24991579Y16164602D01*
X25176165Y16041266D01*
X25381266Y15956310D01*
X25599000Y15913000D01*
X25821000Y15913000D01*
X26038734Y15956310D01*
X26243835Y16041266D01*
X26428421Y16164602D01*
X26585398Y16321579D01*
X26708734Y16506165D01*
X26793690Y16711266D01*
X26837000Y16929000D01*
X26837000Y17151000D01*
X27123000Y17151000D01*
X27123000Y16929000D01*
X27166310Y16711266D01*
X27251266Y16506165D01*
X27374602Y16321579D01*
X27531579Y16164602D01*
X27716165Y16041266D01*
X27921266Y15956310D01*
X28139000Y15913000D01*
X28361000Y15913000D01*
X28578734Y15956310D01*
X28783835Y16041266D01*
X28968421Y16164602D01*
X29125398Y16321579D01*
X29248734Y16506165D01*
X29333690Y16711266D01*
X29377000Y16929000D01*
X29377000Y17151000D01*
X29333690Y17368734D01*
X29248734Y17573835D01*
X29125398Y17758421D01*
X28968421Y17915398D01*
X28783835Y18038734D01*
X28578734Y18123690D01*
X28361000Y18167000D01*
X28139000Y18167000D01*
X27921266Y18123690D01*
X27716165Y18038734D01*
X27531579Y17915398D01*
X27374602Y17758421D01*
X27251266Y17573835D01*
X27166310Y17368734D01*
X27123000Y17151000D01*
X26837000Y17151000D01*
X26793690Y17368734D01*
X26708734Y17573835D01*
X26585398Y17758421D01*
X26428421Y17915398D01*
X26243835Y18038734D01*
X26038734Y18123690D01*
X25821000Y18167000D01*
X25599000Y18167000D01*
X25381266Y18123690D01*
X25176165Y18038734D01*
X24991579Y17915398D01*
X24834602Y17758421D01*
X24711266Y17573835D01*
X24626310Y17368734D01*
X24583000Y17151000D01*
X23438225Y17151000D01*
X22327000Y18262223D01*
X22327000Y18472817D01*
X22349689Y18487977D01*
X22437023Y18575311D01*
X22505640Y18678004D01*
X22552905Y18792111D01*
X22577000Y18913246D01*
X22577000Y19036754D01*
X22552905Y19157889D01*
X22505640Y19271996D01*
X22437023Y19374689D01*
X22349689Y19462023D01*
X22246996Y19530640D01*
X22132889Y19577905D01*
X22011754Y19602000D01*
X21902000Y19602000D01*
X21902000Y19691000D01*
X24583000Y19691000D01*
X24583000Y19469000D01*
X24626310Y19251266D01*
X24711266Y19046165D01*
X24834602Y18861579D01*
X24991579Y18704602D01*
X25176165Y18581266D01*
X25381266Y18496310D01*
X25599000Y18453000D01*
X25821000Y18453000D01*
X26038734Y18496310D01*
X26243835Y18581266D01*
X26428421Y18704602D01*
X26585398Y18861579D01*
X26708734Y19046165D01*
X26793690Y19251266D01*
X26837000Y19469000D01*
X26837000Y19691000D01*
X27123000Y19691000D01*
X27123000Y19469000D01*
X27166310Y19251266D01*
X27251266Y19046165D01*
X27374602Y18861579D01*
X27531579Y18704602D01*
X27716165Y18581266D01*
X27921266Y18496310D01*
X28139000Y18453000D01*
X28361000Y18453000D01*
X28578734Y18496310D01*
X28783835Y18581266D01*
X28968421Y18704602D01*
X29125398Y18861579D01*
X29248734Y19046165D01*
X29333690Y19251266D01*
X29377000Y19469000D01*
X29377000Y19691000D01*
X29333690Y19908734D01*
X29248734Y20113835D01*
X29125398Y20298421D01*
X28968421Y20455398D01*
X28783835Y20578734D01*
X28578734Y20663690D01*
X28361000Y20707000D01*
X28139000Y20707000D01*
X27921266Y20663690D01*
X27716165Y20578734D01*
X27531579Y20455398D01*
X27374602Y20298421D01*
X27251266Y20113835D01*
X27166310Y19908734D01*
X27123000Y19691000D01*
X26837000Y19691000D01*
X26793690Y19908734D01*
X26708734Y20113835D01*
X26585398Y20298421D01*
X26428421Y20455398D01*
X26243835Y20578734D01*
X26038734Y20663690D01*
X25821000Y20707000D01*
X25599000Y20707000D01*
X25381266Y20663690D01*
X25176165Y20578734D01*
X24991579Y20455398D01*
X24834602Y20298421D01*
X24711266Y20113835D01*
X24626310Y19908734D01*
X24583000Y19691000D01*
X21902000Y19691000D01*
X21902000Y19711754D01*
X21877905Y19832889D01*
X21830640Y19946996D01*
X21762023Y20049689D01*
X21674689Y20137023D01*
X21571996Y20205640D01*
X21457889Y20252905D01*
X21336754Y20277000D01*
X21213246Y20277000D01*
X21092111Y20252905D01*
X20978004Y20205640D01*
X20875311Y20137023D01*
X20787977Y20049689D01*
X20719360Y19946996D01*
X20672095Y19832889D01*
X20648000Y19711754D01*
X20648000Y19588246D01*
X20672095Y19467111D01*
X20719360Y19353004D01*
X20787977Y19250311D01*
X20875311Y19162977D01*
X20978004Y19094360D01*
X21092111Y19047095D01*
X21213246Y19023000D01*
X21323000Y19023000D01*
X21323000Y18913246D01*
X21347095Y18792111D01*
X21394360Y18678004D01*
X21462977Y18575311D01*
X21486288Y18552000D01*
X15994991Y18552000D01*
X15931663Y18704886D01*
X15791911Y18914040D01*
X15614040Y19091911D01*
X15404886Y19231663D01*
X15172487Y19327926D01*
X14925774Y19377000D01*
X14674226Y19377000D01*
X14427513Y19327926D01*
X14195114Y19231663D01*
X13985960Y19091911D01*
X13808089Y18914040D01*
X13668337Y18704886D01*
X13572074Y18472487D01*
X13523000Y18225774D01*
X12977000Y18225774D01*
X12977000Y19081711D01*
X13457043Y19561754D01*
X18723000Y19561754D01*
X18723000Y19438246D01*
X18747095Y19317111D01*
X18794360Y19203004D01*
X18862977Y19100311D01*
X18950311Y19012977D01*
X19053004Y18944360D01*
X19167111Y18897095D01*
X19288246Y18873000D01*
X19411754Y18873000D01*
X19532889Y18897095D01*
X19646996Y18944360D01*
X19749689Y19012977D01*
X19837023Y19100311D01*
X19905640Y19203004D01*
X19952905Y19317111D01*
X19977000Y19438246D01*
X19977000Y19561754D01*
X19952905Y19682889D01*
X19905640Y19796996D01*
X19837023Y19899689D01*
X19749689Y19987023D01*
X19646996Y20055640D01*
X19532889Y20102905D01*
X19411754Y20127000D01*
X19288246Y20127000D01*
X19167111Y20102905D01*
X19053004Y20055640D01*
X18950311Y19987023D01*
X18862977Y19899689D01*
X18794360Y19796996D01*
X18747095Y19682889D01*
X18723000Y19561754D01*
X13457043Y19561754D01*
X16126289Y22231000D01*
X24583000Y22231000D01*
X24583000Y22009000D01*
X24626310Y21791266D01*
X24711266Y21586165D01*
X24834602Y21401579D01*
X24991579Y21244602D01*
X25176165Y21121266D01*
X25381266Y21036310D01*
X25599000Y20993000D01*
X25821000Y20993000D01*
X26038734Y21036310D01*
X26243835Y21121266D01*
X26428421Y21244602D01*
X26585398Y21401579D01*
X26708734Y21586165D01*
X26793690Y21791266D01*
X26837000Y22009000D01*
X26837000Y22231000D01*
X27123000Y22231000D01*
X27123000Y22009000D01*
X27166310Y21791266D01*
X27251266Y21586165D01*
X27374602Y21401579D01*
X27531579Y21244602D01*
X27716165Y21121266D01*
X27921266Y21036310D01*
X28139000Y20993000D01*
X28361000Y20993000D01*
X28578734Y21036310D01*
X28783835Y21121266D01*
X28968421Y21244602D01*
X29125398Y21401579D01*
X29248734Y21586165D01*
X29333690Y21791266D01*
X29377000Y22009000D01*
X29377000Y22231000D01*
X29333690Y22448734D01*
X29248734Y22653835D01*
X29125398Y22838421D01*
X28968421Y22995398D01*
X28783835Y23118734D01*
X28578734Y23203690D01*
X28361000Y23247000D01*
X28139000Y23247000D01*
X27921266Y23203690D01*
X27716165Y23118734D01*
X27531579Y22995398D01*
X27374602Y22838421D01*
X27251266Y22653835D01*
X27166310Y22448734D01*
X27123000Y22231000D01*
X26837000Y22231000D01*
X26793690Y22448734D01*
X26708734Y22653835D01*
X26585398Y22838421D01*
X26428421Y22995398D01*
X26243835Y23118734D01*
X26038734Y23203690D01*
X25821000Y23247000D01*
X25599000Y23247000D01*
X25381266Y23203690D01*
X25176165Y23118734D01*
X24991579Y22995398D01*
X24834602Y22838421D01*
X24711266Y22653835D01*
X24626310Y22448734D01*
X24583000Y22231000D01*
X16126289Y22231000D01*
X16818690Y22923400D01*
X16947474Y22949016D01*
X17070680Y23000050D01*
X17181563Y23074140D01*
X17275860Y23168437D01*
X17349950Y23279320D01*
X17400984Y23402526D01*
X17427000Y23533321D01*
X17427000Y23661754D01*
X18123000Y23661754D01*
X18123000Y23538246D01*
X18147095Y23417111D01*
X18194360Y23303004D01*
X18262977Y23200311D01*
X18350311Y23112977D01*
X18453004Y23044360D01*
X18567111Y22997095D01*
X18688246Y22973000D01*
X18811754Y22973000D01*
X18932889Y22997095D01*
X19046996Y23044360D01*
X19149689Y23112977D01*
X19237023Y23200311D01*
X19305640Y23303004D01*
X19352905Y23417111D01*
X19377000Y23538246D01*
X19377000Y23661754D01*
X22873000Y23661754D01*
X22873000Y23538246D01*
X22897095Y23417111D01*
X22944360Y23303004D01*
X23012977Y23200311D01*
X23100311Y23112977D01*
X23203004Y23044360D01*
X23317111Y22997095D01*
X23438246Y22973000D01*
X23561754Y22973000D01*
X23682889Y22997095D01*
X23796996Y23044360D01*
X23899689Y23112977D01*
X23987023Y23200311D01*
X24055640Y23303004D01*
X24102905Y23417111D01*
X24127000Y23538246D01*
X24127000Y23661754D01*
X24102905Y23782889D01*
X24055640Y23896996D01*
X23987023Y23999689D01*
X23899689Y24087023D01*
X23796996Y24155640D01*
X23682889Y24202905D01*
X23561754Y24227000D01*
X23438246Y24227000D01*
X23317111Y24202905D01*
X23203004Y24155640D01*
X23100311Y24087023D01*
X23012977Y23999689D01*
X22944360Y23896996D01*
X22897095Y23782889D01*
X22873000Y23661754D01*
X19377000Y23661754D01*
X19352905Y23782889D01*
X19305640Y23896996D01*
X19237023Y23999689D01*
X19149689Y24087023D01*
X19046996Y24155640D01*
X18932889Y24202905D01*
X18811754Y24227000D01*
X18688246Y24227000D01*
X18567111Y24202905D01*
X18453004Y24155640D01*
X18350311Y24087023D01*
X18262977Y23999689D01*
X18194360Y23896996D01*
X18147095Y23782889D01*
X18123000Y23661754D01*
X17427000Y23661754D01*
X17427000Y23666679D01*
X17400984Y23797474D01*
X17349950Y23920680D01*
X17277000Y24029857D01*
X17277000Y24681452D01*
X26573000Y24681452D01*
X26573000Y24518548D01*
X26604782Y24358773D01*
X26667123Y24208269D01*
X26757628Y24072819D01*
X26872819Y23957628D01*
X27008269Y23867123D01*
X27158773Y23804782D01*
X27318548Y23773000D01*
X27481452Y23773000D01*
X27641227Y23804782D01*
X27791731Y23867123D01*
X27927181Y23957628D01*
X28042372Y24072819D01*
X28132877Y24208269D01*
X28195218Y24358773D01*
X28227000Y24518548D01*
X28227000Y24681452D01*
X28195218Y24841227D01*
X28132877Y24991731D01*
X28042372Y25127181D01*
X27927181Y25242372D01*
X27791731Y25332877D01*
X27641227Y25395218D01*
X27481452Y25427000D01*
X27318548Y25427000D01*
X27158773Y25395218D01*
X27008269Y25332877D01*
X26872819Y25242372D01*
X26757628Y25127181D01*
X26667123Y24991731D01*
X26604782Y24841227D01*
X26573000Y24681452D01*
X17277000Y24681452D01*
X17277000Y24898000D01*
X22977795Y24898000D01*
X23000000Y24895813D01*
X23022205Y24898000D01*
X23088607Y24904540D01*
X23173810Y24930386D01*
X23252333Y24972357D01*
X23253116Y24973000D01*
X23311754Y24973000D01*
X23432889Y24997095D01*
X23546996Y25044360D01*
X23649689Y25112977D01*
X23737023Y25200311D01*
X23805640Y25303004D01*
X23852905Y25417111D01*
X23877000Y25538246D01*
X23877000Y25661754D01*
X23852905Y25782889D01*
X23805640Y25896996D01*
X23737023Y25999689D01*
X23649689Y26087023D01*
X23546996Y26155640D01*
X23432889Y26202905D01*
X23311754Y26227000D01*
X23188246Y26227000D01*
X23067111Y26202905D01*
X22953004Y26155640D01*
X22850311Y26087023D01*
X22762977Y25999689D01*
X22694360Y25896996D01*
X22655011Y25802000D01*
X17022320Y25802000D01*
X16952650Y25839239D01*
X16853310Y25869374D01*
X16750000Y25879549D01*
X16646691Y25869374D01*
X16547351Y25839239D01*
X16477681Y25802000D01*
X15987224Y25802000D01*
X14198852Y27590372D01*
X22582440Y27590372D01*
X22582440Y27409628D01*
X22617701Y27232358D01*
X22686869Y27065372D01*
X22787284Y26915089D01*
X22915089Y26787284D01*
X23065372Y26686869D01*
X23232358Y26617701D01*
X23409628Y26582440D01*
X23590372Y26582440D01*
X23767642Y26617701D01*
X23934628Y26686869D01*
X24084911Y26787284D01*
X24212716Y26915089D01*
X24313131Y27065372D01*
X24382299Y27232358D01*
X24417560Y27409628D01*
X24417560Y27590372D01*
X24382299Y27767642D01*
X24313131Y27934628D01*
X24212716Y28084911D01*
X24084911Y28212716D01*
X23934628Y28313131D01*
X23767642Y28382299D01*
X23590372Y28417560D01*
X23409628Y28417560D01*
X23232358Y28382299D01*
X23065372Y28313131D01*
X22915089Y28212716D01*
X22787284Y28084911D01*
X22686869Y27934628D01*
X22617701Y27767642D01*
X22582440Y27590372D01*
X14198852Y27590372D01*
X13702000Y28087223D01*
X13702000Y28565288D01*
X13737023Y28600311D01*
X13805640Y28703004D01*
X13852905Y28817111D01*
X13877000Y28938246D01*
X13877000Y29061754D01*
X13852905Y29182889D01*
X13805640Y29296996D01*
X13737023Y29399689D01*
X13649689Y29487023D01*
X13546996Y29555640D01*
X13432889Y29602905D01*
X13311754Y29627000D01*
X13188246Y29627000D01*
X13067111Y29602905D01*
X12953004Y29555640D01*
X12850311Y29487023D01*
X12762977Y29399689D01*
X12694360Y29296996D01*
X12647095Y29182889D01*
X12623000Y29061754D01*
X12623000Y28938246D01*
X12647095Y28817111D01*
X12694360Y28703004D01*
X12762977Y28600311D01*
X12798001Y28565287D01*
X12798000Y27922205D01*
X12795813Y27900000D01*
X12804540Y27811393D01*
X12817812Y27767642D01*
X12830386Y27726191D01*
X12872357Y27647668D01*
X12928841Y27578841D01*
X12946100Y27564677D01*
X15464681Y25046095D01*
X15478841Y25028841D01*
X15547667Y24972357D01*
X15626190Y24930386D01*
X15711392Y24904540D01*
X15800000Y24895813D01*
X15822205Y24898000D01*
X16223001Y24898000D01*
X16223000Y24029857D01*
X16150050Y23920680D01*
X16099016Y23797474D01*
X16073400Y23668690D01*
X12095662Y19690951D01*
X12075553Y19674448D01*
X12046658Y19639239D01*
X12009696Y19594201D01*
X11960761Y19502649D01*
X11930626Y19403309D01*
X11920451Y19300000D01*
X11923001Y19274109D01*
X11923000Y9889001D01*
X11464644Y9430645D01*
X10177000Y10718289D01*
X10177000Y17999119D01*
X10179549Y18025000D01*
X10169374Y18128310D01*
X10163959Y18146160D01*
X10139239Y18227650D01*
X10090304Y18319202D01*
X10024448Y18399448D01*
X10004344Y18415947D01*
X9762962Y18657328D01*
X9752905Y18707889D01*
X9705640Y18821996D01*
X9637023Y18924689D01*
X9549689Y19012023D01*
X9446996Y19080640D01*
X9332889Y19127905D01*
X9282327Y19137962D01*
X8915955Y19504334D01*
X8899448Y19524448D01*
X8819202Y19590304D01*
X8727650Y19639239D01*
X8628310Y19669374D01*
X8550881Y19677000D01*
X8525000Y19679549D01*
X8499119Y19677000D01*
X5225880Y19677000D01*
X5199999Y19679549D01*
X5096690Y19669374D01*
X4997350Y19639239D01*
X4905798Y19590304D01*
X4825552Y19524448D01*
X4809049Y19504339D01*
X2681711Y17377000D01*
X1981864Y17377000D01*
X2082889Y17397095D01*
X2196996Y17444360D01*
X2299689Y17512977D01*
X2387023Y17600311D01*
X2455640Y17703004D01*
X2502905Y17817111D01*
X2527000Y17938246D01*
X2527000Y18061754D01*
X2502905Y18182889D01*
X2455640Y18296996D01*
X2387023Y18399689D01*
X2299689Y18487023D01*
X2196996Y18555640D01*
X2082889Y18602905D01*
X1961754Y18627000D01*
X1838246Y18627000D01*
X1717111Y18602905D01*
X1603004Y18555640D01*
X1500311Y18487023D01*
X1412977Y18399689D01*
X1344360Y18296996D01*
X1297095Y18182889D01*
X1273000Y18061754D01*
X1273000Y17938246D01*
X1297095Y17817111D01*
X1344360Y17703004D01*
X1412977Y17600311D01*
X1500311Y17512977D01*
X1603004Y17444360D01*
X1717111Y17397095D01*
X1818136Y17377000D01*
X1339859Y17377000D01*
X1296996Y17405640D01*
X1182889Y17452905D01*
X1061754Y17477000D01*
X938246Y17477000D01*
X817111Y17452905D01*
X703004Y17405640D01*
X600311Y17337023D01*
X512977Y17249689D01*
X444360Y17146996D01*
X397095Y17032889D01*
X373000Y16911754D01*
X373000Y16788246D01*
X397095Y16667111D01*
X444360Y16553004D01*
X473001Y16510140D01*
X473000Y15400881D01*
X470451Y15375000D01*
X473000Y15349120D01*
X480626Y15271691D01*
X510761Y15172351D01*
X559696Y15080798D01*
X625552Y15000552D01*
X645666Y14984045D01*
X775197Y14854513D01*
X767111Y14852905D01*
X653004Y14805640D01*
X550311Y14737023D01*
X462977Y14649689D01*
X394360Y14546996D01*
X347095Y14432889D01*
X323000Y14311754D01*
X302000Y14311754D01*
X302000Y21211754D01*
X8023000Y21211754D01*
X8023000Y21088246D01*
X8047095Y20967111D01*
X8094360Y20853004D01*
X8162977Y20750311D01*
X8250311Y20662977D01*
X8353004Y20594360D01*
X8467111Y20547095D01*
X8588246Y20523000D01*
X8711754Y20523000D01*
X8832889Y20547095D01*
X8946996Y20594360D01*
X9049689Y20662977D01*
X9137023Y20750311D01*
X9205640Y20853004D01*
X9252905Y20967111D01*
X9277000Y21088246D01*
X9277000Y21211754D01*
X9252905Y21332889D01*
X9205640Y21446996D01*
X9137023Y21549689D01*
X9049689Y21637023D01*
X8946996Y21705640D01*
X8832889Y21752905D01*
X8711754Y21777000D01*
X8588246Y21777000D01*
X8467111Y21752905D01*
X8353004Y21705640D01*
X8250311Y21637023D01*
X8162977Y21549689D01*
X8094360Y21446996D01*
X8047095Y21332889D01*
X8023000Y21211754D01*
X302000Y21211754D01*
X302000Y23235228D01*
X307191Y23288178D01*
X318279Y23324899D01*
X336287Y23358768D01*
X360532Y23388496D01*
X390093Y23412951D01*
X423832Y23431194D01*
X460476Y23442537D01*
X512454Y23448000D01*
X864833Y23448000D01*
X877611Y23449259D01*
X879115Y23449248D01*
X883312Y23449660D01*
X907522Y23452205D01*
X909202Y23452370D01*
X909258Y23452387D01*
X931836Y23454760D01*
X958593Y23460253D01*
X985535Y23465392D01*
X989572Y23466612D01*
X1036182Y23481040D01*
X1061368Y23491627D01*
X1086798Y23501902D01*
X1090521Y23503882D01*
X1133440Y23527089D01*
X1156086Y23542365D01*
X1179028Y23557376D01*
X1182295Y23560042D01*
X1184364Y23561754D01*
X2973000Y23561754D01*
X2973000Y23438246D01*
X2997095Y23317111D01*
X3044360Y23203004D01*
X3112977Y23100311D01*
X3200311Y23012977D01*
X3303004Y22944360D01*
X3417111Y22897095D01*
X3538246Y22873000D01*
X3661754Y22873000D01*
X3782889Y22897095D01*
X3896996Y22944360D01*
X3999689Y23012977D01*
X4087023Y23100311D01*
X4155640Y23203004D01*
X4202905Y23317111D01*
X4214944Y23377635D01*
X4238246Y23373000D01*
X4361754Y23373000D01*
X4482889Y23397095D01*
X4596996Y23444360D01*
X4699689Y23512977D01*
X4786498Y23599786D01*
X8148988Y23599786D01*
X8148988Y23348238D01*
X8198062Y23101525D01*
X8294325Y22869126D01*
X8434077Y22659972D01*
X8611948Y22482101D01*
X8821102Y22342349D01*
X9053501Y22246086D01*
X9300214Y22197012D01*
X9551762Y22197012D01*
X9798475Y22246086D01*
X10030874Y22342349D01*
X10240028Y22482101D01*
X10417899Y22659972D01*
X10557651Y22869126D01*
X10653914Y23101525D01*
X10702988Y23348238D01*
X10702988Y23599786D01*
X10653914Y23846499D01*
X10557651Y24078898D01*
X10417899Y24288052D01*
X10240028Y24465923D01*
X10096607Y24561754D01*
X11623000Y24561754D01*
X11623000Y24438246D01*
X11647095Y24317111D01*
X11694360Y24203004D01*
X11762977Y24100311D01*
X11850311Y24012977D01*
X11953004Y23944360D01*
X12067111Y23897095D01*
X12188246Y23873000D01*
X12311754Y23873000D01*
X12432889Y23897095D01*
X12546996Y23944360D01*
X12649689Y24012977D01*
X12737023Y24100311D01*
X12805640Y24203004D01*
X12852905Y24317111D01*
X12877000Y24438246D01*
X12877000Y24561754D01*
X12852905Y24682889D01*
X12805640Y24796996D01*
X12737023Y24899689D01*
X12649689Y24987023D01*
X12546996Y25055640D01*
X12432889Y25102905D01*
X12311754Y25127000D01*
X12188246Y25127000D01*
X12067111Y25102905D01*
X11953004Y25055640D01*
X11850311Y24987023D01*
X11762977Y24899689D01*
X11694360Y24796996D01*
X11647095Y24682889D01*
X11623000Y24561754D01*
X10096607Y24561754D01*
X10030874Y24605675D01*
X9798475Y24701938D01*
X9551762Y24751012D01*
X9300214Y24751012D01*
X9053501Y24701938D01*
X8821102Y24605675D01*
X8611948Y24465923D01*
X8434077Y24288052D01*
X8294325Y24078898D01*
X8198062Y23846499D01*
X8148988Y23599786D01*
X4786498Y23599786D01*
X4787023Y23600311D01*
X4855640Y23703004D01*
X4902905Y23817111D01*
X4927000Y23938246D01*
X4927000Y24061754D01*
X4902905Y24182889D01*
X4855640Y24296996D01*
X4787023Y24399689D01*
X4699689Y24487023D01*
X4596996Y24555640D01*
X4482889Y24602905D01*
X4361754Y24627000D01*
X4238246Y24627000D01*
X4117111Y24602905D01*
X4003004Y24555640D01*
X3900311Y24487023D01*
X3812977Y24399689D01*
X3744360Y24296996D01*
X3697095Y24182889D01*
X3685056Y24122365D01*
X3661754Y24127000D01*
X3538246Y24127000D01*
X3417111Y24102905D01*
X3303004Y24055640D01*
X3200311Y23987023D01*
X3112977Y23899689D01*
X3044360Y23796996D01*
X2997095Y23682889D01*
X2973000Y23561754D01*
X1184364Y23561754D01*
X1219890Y23591142D01*
X1239157Y23610544D01*
X1258741Y23629722D01*
X1261429Y23632971D01*
X1292266Y23670782D01*
X1307384Y23693538D01*
X1322872Y23716157D01*
X1324878Y23719867D01*
X1347785Y23762947D01*
X1358208Y23788235D01*
X1369001Y23813417D01*
X1370248Y23817446D01*
X1384350Y23864155D01*
X1389654Y23890944D01*
X1395357Y23917778D01*
X1395798Y23921973D01*
X1400559Y23970532D01*
X1400559Y23970536D01*
X1402000Y23985167D01*
X1402000Y24681452D01*
X1773000Y24681452D01*
X1773000Y24518548D01*
X1804782Y24358773D01*
X1867123Y24208269D01*
X1957628Y24072819D01*
X2072819Y23957628D01*
X2208269Y23867123D01*
X2358773Y23804782D01*
X2518548Y23773000D01*
X2681452Y23773000D01*
X2841227Y23804782D01*
X2991731Y23867123D01*
X3127181Y23957628D01*
X3242372Y24072819D01*
X3332877Y24208269D01*
X3395218Y24358773D01*
X3427000Y24518548D01*
X3427000Y24681452D01*
X3395218Y24841227D01*
X3332877Y24991731D01*
X3242372Y25127181D01*
X3127181Y25242372D01*
X2991731Y25332877D01*
X2841227Y25395218D01*
X2681452Y25427000D01*
X2518548Y25427000D01*
X2358773Y25395218D01*
X2208269Y25332877D01*
X2072819Y25242372D01*
X1957628Y25127181D01*
X1867123Y24991731D01*
X1804782Y24841227D01*
X1773000Y24681452D01*
X1402000Y24681452D01*
X1402000Y27590372D01*
X5582440Y27590372D01*
X5582440Y27409628D01*
X5617701Y27232358D01*
X5686869Y27065372D01*
X5787284Y26915089D01*
X5915089Y26787284D01*
X6065372Y26686869D01*
X6232358Y26617701D01*
X6409628Y26582440D01*
X6590372Y26582440D01*
X6767642Y26617701D01*
X6934628Y26686869D01*
X7084911Y26787284D01*
X7212716Y26915089D01*
X7313131Y27065372D01*
X7382299Y27232358D01*
X7417560Y27409628D01*
X7417560Y27590372D01*
X7382299Y27767642D01*
X7313131Y27934628D01*
X7212716Y28084911D01*
X7084911Y28212716D01*
X6934628Y28313131D01*
X6767642Y28382299D01*
X6590372Y28417560D01*
X6409628Y28417560D01*
X6232358Y28382299D01*
X6065372Y28313131D01*
X5915089Y28212716D01*
X5787284Y28084911D01*
X5686869Y27934628D01*
X5617701Y27767642D01*
X5582440Y27590372D01*
X1402000Y27590372D01*
X1402000Y29485228D01*
X1407191Y29538178D01*
X1418279Y29574899D01*
X1436287Y29608768D01*
X1460532Y29638496D01*
X1490093Y29662951D01*
X1523832Y29681194D01*
X1560476Y29692537D01*
X1612454Y29698000D01*
X2372759Y29698000D01*
X2358773Y29695218D01*
G37*
%TD.AperFunction*%
%TD*%
D23*
X7100000Y10200000D03*
X12000000Y3500000D03*
X17000000Y2500000D03*
X14500000Y2500000D03*
X6000000Y29250000D03*
X2000000Y23000000D03*
X22600000Y18275000D03*
X22650000Y16100000D03*
X16100000Y19450000D03*
X18250000Y19150000D03*
X10350000Y20550000D03*
X10850000Y11250000D03*
X2750000Y9750000D03*
X1000000Y19500000D03*
X13100000Y15300000D03*
X13100000Y14450000D03*
X22425000Y13375000D03*
X23100000Y14050000D03*
X19650000Y13100000D03*
X14250000Y10750000D03*
X13200000Y10350000D03*
X11650000Y13850000D03*
X11650000Y13050000D03*
X11550000Y10600000D03*
X9750000Y8650000D03*
X9250000Y9150000D03*
X16700000Y18850000D03*
X18500000Y24600000D03*
X18500000Y26100000D03*
X22000000Y28000000D03*
X24750000Y28500000D03*
X11500000Y28000000D03*
X12000000Y23750000D03*
X11250000Y23750000D03*
X11250000Y23000000D03*
X8250000Y22350000D03*
X7750000Y25800000D03*
X6050000Y21500000D03*
X5150000Y21500000D03*
X5850000Y23500000D03*
X6600000Y23500000D03*
X22050000Y19750000D03*
X15000000Y23250000D03*
X15750000Y24000000D03*
X15900000Y4750000D03*
X8700000Y3500000D03*
X3000000Y8500000D03*
X4000000Y8500000D03*
X1000000Y8500000D03*
X2000000Y8500000D03*
X6350000Y8700000D03*
X7000000Y6000000D03*
X7000000Y5000000D03*
X7000000Y4000000D03*
X7000000Y3000000D03*
X7000000Y2000000D03*
X7000000Y1000000D03*
X6900000Y9350000D03*
X8000000Y750000D03*
X750000Y10000000D03*
X750000Y12000000D03*
X800000Y23000000D03*
X750000Y21000000D03*
X8000000Y29250000D03*
X10000000Y29250000D03*
X12000000Y29250000D03*
X14000000Y29250000D03*
X16000000Y29250000D03*
X18000000Y29250000D03*
X20000000Y29250000D03*
X22000000Y29250000D03*
X24000000Y29250000D03*
X12000000Y750000D03*
X14000000Y750000D03*
X16000000Y750000D03*
X18000000Y750000D03*
X3400000Y9050000D03*
X3750000Y20250000D03*
X7000000Y21250000D03*
X8150000Y9350000D03*
X8200000Y10200000D03*
X7000000Y7000000D03*
X7150000Y7800000D03*
X7750000Y8500000D03*
X5500000Y8500000D03*
X23200000Y8000000D03*
X21550000Y8000000D03*
X22000000Y750000D03*
X23750000Y2750000D03*
X2750000Y26750000D03*
X5250000Y28500000D03*
X21700000Y23050000D03*
X20750000Y23050000D03*
X17450000Y23050000D03*
X8000000Y28000000D03*
X27250000Y26750000D03*
X24550000Y24600000D03*
X29250000Y20850000D03*
X29250000Y18300000D03*
X29250000Y15750000D03*
X29250000Y13250000D03*
X29250000Y10700000D03*
X29250000Y8150000D03*
X25250000Y23750000D03*
X29250000Y23000000D03*
X22850000Y2750000D03*
X24000000Y750000D03*
X15750000Y10750000D03*
X17050000Y10350000D03*
X20750000Y10400000D03*
X23250000Y13000000D03*
X22000000Y12950000D03*
X24150000Y11850000D03*
D24*
X5900000Y10475000D03*
X21150000Y15850000D03*
X16750000Y23600000D03*
X13250000Y29000000D03*
X9150000Y18525000D03*
X11500000Y8650000D03*
X22500000Y9100000D03*
X21275000Y19650000D03*
X7800000Y7400000D03*
X1000000Y16850000D03*
X23250000Y25600000D03*
X17375000Y3625000D03*
X21950000Y18975000D03*
X19350000Y19500000D03*
X14925000Y4875000D03*
X19614124Y7664124D03*
X14075000Y4875000D03*
X20285876Y8335876D03*
X12250000Y24500000D03*
X18750000Y23600000D03*
X8650000Y21150000D03*
X18200000Y13000000D03*
X4300000Y24000000D03*
X2300000Y12300000D03*
X14100000Y13200000D03*
X14775000Y12525000D03*
X1650000Y11650000D03*
X3600000Y23500000D03*
X23500000Y23600000D03*
X950000Y13400000D03*
X1900000Y18000000D03*
X950000Y14250000D03*
X8700000Y8250000D03*
X2950000Y11400000D03*
X9425988Y23474012D03*
X14800000Y18100000D03*
X25710000Y22120000D03*
X28250000Y22120000D03*
X25710000Y19580000D03*
X28250000Y19580000D03*
X25710000Y17040000D03*
X28250000Y17040000D03*
X25710000Y14500000D03*
X28250000Y14500000D03*
X25710000Y11960000D03*
X28250000Y11960000D03*
X25710000Y9420000D03*
X28250000Y9420000D03*
X25710000Y6880000D03*
X28250000Y6880000D03*
X25710000Y4340000D03*
X28250000Y4340000D03*
X25710000Y1800000D03*
X28250000Y1800000D03*
X2600000Y24600000D03*
X2600000Y28900000D03*
X27400000Y28900000D03*
X27400000Y24600000D03*
D25*
X8156676Y16171751D03*
X7414214Y16914214D03*
X6671751Y17656676D03*
X7484924Y15500000D03*
X6742462Y16242462D03*
X6000000Y16984924D03*
X6742462Y14757538D03*
X6000000Y15500000D03*
X5257538Y16242462D03*
X6000000Y14015076D03*
X5257538Y14757538D03*
X4515076Y15500000D03*
X5328249Y17656676D03*
X8156676Y14828249D03*
X4585786Y16914214D03*
X7414214Y14085786D03*
X3843324Y16171751D03*
X6671751Y13343324D03*
X3843324Y14828249D03*
X4585786Y14085786D03*
X5328249Y13343324D03*
D26*
X19325000Y1450000D03*
D24*
X17900000Y5100000D03*
D26*
X10675000Y1450000D03*
D24*
X12100000Y5100000D03*
D27*
X10675000Y5630000D03*
X19325000Y5630000D03*
M02*
