%TF.GenerationSoftware,KiCad,Pcbnew,(5.1.12-1-10_14)*%
%TF.CreationDate,2022-04-04T20:25:46+08:00*%
%TF.ProjectId,DeerMon,44656572-4d6f-46e2-9e6b-696361645f70,rev?*%
%TF.SameCoordinates,Original*%
%TF.FileFunction,Legend,Top*%
%TF.FilePolarity,Positive*%
%FSLAX46Y46*%
G04 Gerber Fmt 4.6, Leading zero omitted, Abs format (unit mm)*
G04 Created by KiCad (PCBNEW (5.1.12-1-10_14)) date 2022-04-04 20:25:46*
%MOMM*%
%LPD*%
G01*
G04 APERTURE LIST*
%ADD10C,0.120000*%
%ADD11C,0.150000*%
%ADD12C,0.200000*%
%ADD13C,0.100000*%
%ADD14C,0.075000*%
G04 APERTURE END LIST*
D10*
X5307142Y35335715D02*
X5269047Y35221429D01*
X5230952Y35183334D01*
X5154761Y35145239D01*
X5040476Y35145239D01*
X4964285Y35183334D01*
X4926190Y35221429D01*
X4888095Y35297620D01*
X4888095Y35602381D01*
X5688095Y35602381D01*
X5688095Y35335715D01*
X5650000Y35259524D01*
X5611904Y35221429D01*
X5535714Y35183334D01*
X5459523Y35183334D01*
X5383333Y35221429D01*
X5345238Y35259524D01*
X5307142Y35335715D01*
X5307142Y35602381D01*
X5688095Y34650000D02*
X5688095Y34497620D01*
X5650000Y34421429D01*
X5573809Y34345239D01*
X5421428Y34307143D01*
X5154761Y34307143D01*
X5002380Y34345239D01*
X4926190Y34421429D01*
X4888095Y34497620D01*
X4888095Y34650000D01*
X4926190Y34726191D01*
X5002380Y34802381D01*
X5154761Y34840477D01*
X5421428Y34840477D01*
X5573809Y34802381D01*
X5650000Y34726191D01*
X5688095Y34650000D01*
X5688095Y33811905D02*
X5688095Y33659524D01*
X5650000Y33583334D01*
X5573809Y33507143D01*
X5421428Y33469048D01*
X5154761Y33469048D01*
X5002380Y33507143D01*
X4926190Y33583334D01*
X4888095Y33659524D01*
X4888095Y33811905D01*
X4926190Y33888096D01*
X5002380Y33964286D01*
X5154761Y34002381D01*
X5421428Y34002381D01*
X5573809Y33964286D01*
X5650000Y33888096D01*
X5688095Y33811905D01*
X5688095Y33240477D02*
X5688095Y32783334D01*
X4888095Y33011905D02*
X5688095Y33011905D01*
X24692857Y33659524D02*
X24692857Y33926191D01*
X25111904Y34040477D02*
X25111904Y33659524D01*
X24311904Y33659524D01*
X24311904Y34040477D01*
X25111904Y34383334D02*
X24311904Y34383334D01*
X25111904Y34840477D01*
X24311904Y34840477D01*
D11*
X10380952Y3047620D02*
X10380952Y2333334D01*
X10333333Y2190477D01*
X10238095Y2095239D01*
X10095238Y2047620D01*
X10000000Y2047620D01*
X11333333Y2047620D02*
X10857142Y2047620D01*
X10857142Y3047620D01*
X12238095Y2142858D02*
X12190476Y2095239D01*
X12047619Y2047620D01*
X11952380Y2047620D01*
X11809523Y2095239D01*
X11714285Y2190477D01*
X11666666Y2285715D01*
X11619047Y2476191D01*
X11619047Y2619048D01*
X11666666Y2809524D01*
X11714285Y2904762D01*
X11809523Y3000000D01*
X11952380Y3047620D01*
X12047619Y3047620D01*
X12190476Y3000000D01*
X12238095Y2952381D01*
X12952380Y3047620D02*
X12952380Y2333334D01*
X12904761Y2190477D01*
X12809523Y2095239D01*
X12666666Y2047620D01*
X12571428Y2047620D01*
X13904761Y2047620D02*
X13428571Y2047620D01*
X13428571Y3047620D01*
X14809523Y2142858D02*
X14761904Y2095239D01*
X14619047Y2047620D01*
X14523809Y2047620D01*
X14380952Y2095239D01*
X14285714Y2190477D01*
X14238095Y2285715D01*
X14190476Y2476191D01*
X14190476Y2619048D01*
X14238095Y2809524D01*
X14285714Y2904762D01*
X14380952Y3000000D01*
X14523809Y3047620D01*
X14619047Y3047620D01*
X14761904Y3000000D01*
X14809523Y2952381D01*
X15523809Y3047620D02*
X15523809Y2333334D01*
X15476190Y2190477D01*
X15380952Y2095239D01*
X15238095Y2047620D01*
X15142857Y2047620D01*
X16476190Y2047620D02*
X16000000Y2047620D01*
X16000000Y3047620D01*
X17380952Y2142858D02*
X17333333Y2095239D01*
X17190476Y2047620D01*
X17095238Y2047620D01*
X16952380Y2095239D01*
X16857142Y2190477D01*
X16809523Y2285715D01*
X16761904Y2476191D01*
X16761904Y2619048D01*
X16809523Y2809524D01*
X16857142Y2904762D01*
X16952380Y3000000D01*
X17095238Y3047620D01*
X17190476Y3047620D01*
X17333333Y3000000D01*
X17380952Y2952381D01*
X18095238Y3047620D02*
X18095238Y2333334D01*
X18047619Y2190477D01*
X17952380Y2095239D01*
X17809523Y2047620D01*
X17714285Y2047620D01*
X19047619Y2047620D02*
X18571428Y2047620D01*
X18571428Y3047620D01*
X19952380Y2142858D02*
X19904761Y2095239D01*
X19761904Y2047620D01*
X19666666Y2047620D01*
X19523809Y2095239D01*
X19428571Y2190477D01*
X19380952Y2285715D01*
X19333333Y2476191D01*
X19333333Y2619048D01*
X19380952Y2809524D01*
X19428571Y2904762D01*
X19523809Y3000000D01*
X19666666Y3047620D01*
X19761904Y3047620D01*
X19904761Y3000000D01*
X19952380Y2952381D01*
D10*
X22625000Y9500000D02*
G75*
G03*
X22625000Y9500000I-875000J0D01*
G01*
X7375000Y35000000D02*
G75*
G03*
X7375000Y35000000I-875000J0D01*
G01*
X9125000Y9500000D02*
G75*
G03*
X9125000Y9500000I-875000J0D01*
G01*
X24375000Y35000000D02*
G75*
G03*
X24375000Y35000000I-875000J0D01*
G01*
X11904190Y28438096D02*
X12170857Y27638096D01*
X12437523Y28438096D01*
X13123238Y27638096D02*
X12666095Y27638096D01*
X12894666Y27638096D02*
X12894666Y28438096D01*
X12818476Y28323810D01*
X12742285Y28247620D01*
X12666095Y28209524D01*
X13466095Y27714286D02*
X13504190Y27676191D01*
X13466095Y27638096D01*
X13428000Y27676191D01*
X13466095Y27714286D01*
X13466095Y27638096D01*
X14266095Y27638096D02*
X13808952Y27638096D01*
X14037523Y27638096D02*
X14037523Y28438096D01*
X13961333Y28323810D01*
X13885142Y28247620D01*
X13808952Y28209524D01*
X15218476Y27638096D02*
X15218476Y28438096D01*
X15218476Y28133334D02*
X15294666Y28171429D01*
X15447047Y28171429D01*
X15523238Y28133334D01*
X15561333Y28095239D01*
X15599428Y28019048D01*
X15599428Y27790477D01*
X15561333Y27714286D01*
X15523238Y27676191D01*
X15447047Y27638096D01*
X15294666Y27638096D01*
X15218476Y27676191D01*
X15866095Y28171429D02*
X16056571Y27638096D01*
X16247047Y28171429D02*
X16056571Y27638096D01*
X15980380Y27447620D01*
X15942285Y27409524D01*
X15866095Y27371429D01*
X17085142Y28438096D02*
X17618476Y27638096D01*
X17618476Y28438096D02*
X17085142Y27638096D01*
X17923238Y27638096D02*
X17923238Y28171429D01*
X17923238Y28438096D02*
X17885142Y28400000D01*
X17923238Y28361905D01*
X17961333Y28400000D01*
X17923238Y28438096D01*
X17923238Y28361905D01*
X18304190Y27638096D02*
X18304190Y28438096D01*
X18761333Y27638096D01*
X18761333Y28438096D01*
X19561333Y28400000D02*
X19485142Y28438096D01*
X19370857Y28438096D01*
X19256571Y28400000D01*
X19180380Y28323810D01*
X19142285Y28247620D01*
X19104190Y28095239D01*
X19104190Y27980953D01*
X19142285Y27828572D01*
X19180380Y27752381D01*
X19256571Y27676191D01*
X19370857Y27638096D01*
X19447047Y27638096D01*
X19561333Y27676191D01*
X19599428Y27714286D01*
X19599428Y27980953D01*
X19447047Y27980953D01*
X20399428Y27638096D02*
X20132761Y28019048D01*
X19942285Y27638096D02*
X19942285Y28438096D01*
X20247047Y28438096D01*
X20323238Y28400000D01*
X20361333Y28361905D01*
X20399428Y28285715D01*
X20399428Y28171429D01*
X20361333Y28095239D01*
X20323238Y28057143D01*
X20247047Y28019048D01*
X19942285Y28019048D01*
X20666095Y28438096D02*
X21199428Y28438096D01*
X20666095Y27638096D01*
X21199428Y27638096D01*
D12*
X11915714Y29207143D02*
X11915714Y30407143D01*
X12201428Y30407143D01*
X12372857Y30350000D01*
X12487142Y30235715D01*
X12544285Y30121429D01*
X12601428Y29892858D01*
X12601428Y29721429D01*
X12544285Y29492858D01*
X12487142Y29378572D01*
X12372857Y29264286D01*
X12201428Y29207143D01*
X11915714Y29207143D01*
X13572857Y29264286D02*
X13458571Y29207143D01*
X13230000Y29207143D01*
X13115714Y29264286D01*
X13058571Y29378572D01*
X13058571Y29835715D01*
X13115714Y29950000D01*
X13230000Y30007143D01*
X13458571Y30007143D01*
X13572857Y29950000D01*
X13630000Y29835715D01*
X13630000Y29721429D01*
X13058571Y29607143D01*
X14601428Y29264286D02*
X14487142Y29207143D01*
X14258571Y29207143D01*
X14144285Y29264286D01*
X14087142Y29378572D01*
X14087142Y29835715D01*
X14144285Y29950000D01*
X14258571Y30007143D01*
X14487142Y30007143D01*
X14601428Y29950000D01*
X14658571Y29835715D01*
X14658571Y29721429D01*
X14087142Y29607143D01*
X15172857Y29207143D02*
X15172857Y30007143D01*
X15172857Y29778572D02*
X15230000Y29892858D01*
X15287142Y29950000D01*
X15401428Y30007143D01*
X15515714Y30007143D01*
X15915714Y29207143D02*
X15915714Y30407143D01*
X16315714Y29550000D01*
X16715714Y30407143D01*
X16715714Y29207143D01*
X17458571Y29207143D02*
X17344285Y29264286D01*
X17287142Y29321429D01*
X17230000Y29435715D01*
X17230000Y29778572D01*
X17287142Y29892858D01*
X17344285Y29950000D01*
X17458571Y30007143D01*
X17630000Y30007143D01*
X17744285Y29950000D01*
X17801428Y29892858D01*
X17858571Y29778572D01*
X17858571Y29435715D01*
X17801428Y29321429D01*
X17744285Y29264286D01*
X17630000Y29207143D01*
X17458571Y29207143D01*
X18372857Y30007143D02*
X18372857Y29207143D01*
X18372857Y29892858D02*
X18430000Y29950000D01*
X18544285Y30007143D01*
X18715714Y30007143D01*
X18830000Y29950000D01*
X18887142Y29835715D01*
X18887142Y29207143D01*
D10*
%TO.C,C14*%
X9746693Y18005810D02*
X9594190Y17853307D01*
X10255810Y17496693D02*
X10103307Y17344190D01*
%TO.C,Q1*%
X16400000Y21172792D02*
X17496016Y20076777D01*
X16223223Y18803984D02*
X15303984Y19723223D01*
%TO.C,R11*%
X8096359Y13620000D02*
X8403641Y13620000D01*
X8096359Y14380000D02*
X8403641Y14380000D01*
D13*
%TO.C,D4*%
X7400000Y13350000D02*
X7400000Y12700000D01*
X8050000Y13350000D02*
X7400000Y13350000D01*
D10*
%TO.C,C16*%
X4846693Y17155810D02*
X4694190Y17003307D01*
X5355810Y16646693D02*
X5203307Y16494190D01*
%TO.C,C15*%
X4171693Y17830810D02*
X4019190Y17678307D01*
X4680810Y17321693D02*
X4528307Y17169190D01*
%TO.C,C12*%
X9678307Y26869190D02*
X9830810Y27021693D01*
X9169190Y27378307D02*
X9321693Y27530810D01*
%TO.C,C7*%
X3496693Y18505810D02*
X3344190Y18353307D01*
X4005810Y17996693D02*
X3853307Y17844190D01*
%TO.C,C6*%
X10421693Y17330810D02*
X10269190Y17178307D01*
X10930810Y16821693D02*
X10778307Y16669190D01*
%TO.C,C5*%
X1360000Y25492164D02*
X1360000Y25707836D01*
X640000Y25492164D02*
X640000Y25707836D01*
%TO.C,R14*%
X22737258Y13372500D02*
X22262742Y13372500D01*
X22737258Y12327500D02*
X22262742Y12327500D01*
%TO.C,R13*%
X6446359Y32920000D02*
X6753641Y32920000D01*
X6446359Y33680000D02*
X6753641Y33680000D01*
%TO.C,SW1*%
X1850000Y35650000D02*
X1850000Y32850000D01*
X3250000Y36450000D02*
X4050000Y36450000D01*
X3250000Y32050000D02*
X4050000Y32050000D01*
%TO.C,Q2*%
X7360000Y29395000D02*
X5900000Y29395000D01*
X7360000Y32555000D02*
X5200000Y32555000D01*
X7360000Y32555000D02*
X7360000Y31625000D01*
X7360000Y29395000D02*
X7360000Y30325000D01*
%TO.C,C10*%
X22359227Y18589970D02*
X22558038Y18788781D01*
X21637978Y19311219D02*
X21836789Y19510030D01*
%TO.C,C9*%
X22359420Y10840000D02*
X22640580Y10840000D01*
X22359420Y11860000D02*
X22640580Y11860000D01*
%TO.C,AE1*%
X3250000Y15050000D02*
X3250000Y7900000D01*
X3250000Y7900000D02*
X750000Y7900000D01*
X750000Y7900000D02*
X750000Y15050000D01*
%TO.C,SW2*%
X28150000Y32850000D02*
X28150000Y35650000D01*
X26750000Y32050000D02*
X25950000Y32050000D01*
X26750000Y36450000D02*
X25950000Y36450000D01*
%TO.C,U4*%
X5664124Y18230565D02*
X6000000Y17894689D01*
X6000000Y28105311D02*
X5664124Y27769435D01*
X6335876Y27769435D02*
X6000000Y28105311D01*
X11105311Y23000000D02*
X10769435Y22664124D01*
X10769435Y23335876D02*
X11105311Y23000000D01*
X894689Y23000000D02*
X1230565Y23335876D01*
X1230565Y22664124D02*
X894689Y23000000D01*
%TO.C,U3*%
X20890000Y16400000D02*
X20890000Y13950000D01*
X24110000Y14600000D02*
X24110000Y16400000D01*
%TO.C,U2*%
X20750000Y30740000D02*
X19750000Y30740000D01*
X21750000Y32960000D02*
X19750000Y32960000D01*
%TO.C,U1*%
X17864124Y20751885D02*
X18200000Y20416009D01*
X18200000Y26383991D02*
X17864124Y26048115D01*
X18535876Y26048115D02*
X18200000Y26383991D01*
X21183991Y23400000D02*
X20848115Y23064124D01*
X20848115Y23735876D02*
X21183991Y23400000D01*
X15216009Y23400000D02*
X15551885Y23735876D01*
X15551885Y23064124D02*
X15216009Y23400000D01*
%TO.C,R12*%
X10085060Y19997659D02*
X10302341Y20214940D01*
X9547659Y20535060D02*
X9764940Y20752341D01*
%TO.C,R10*%
X8414940Y19402341D02*
X8197659Y19185060D01*
X8952341Y18864940D02*
X8735060Y18647659D01*
%TO.C,R8*%
X15260060Y20822659D02*
X15477341Y21039940D01*
X14722659Y21360060D02*
X14939940Y21577341D01*
%TO.C,R7*%
X14560060Y21522659D02*
X14777341Y21739940D01*
X14022659Y22060060D02*
X14239940Y22277341D01*
%TO.C,R5*%
X20535060Y25872659D02*
X20752341Y26089940D01*
X19997659Y26410060D02*
X20214940Y26627341D01*
%TO.C,R4*%
X16645000Y16528641D02*
X16645000Y16221359D01*
X17405000Y16528641D02*
X17405000Y16221359D01*
%TO.C,R3*%
X12595000Y16528641D02*
X12595000Y16221359D01*
X13355000Y16528641D02*
X13355000Y16221359D01*
%TO.C,R2*%
X21885060Y24522659D02*
X22102341Y24739940D01*
X21347659Y25060060D02*
X21564940Y25277341D01*
%TO.C,R1*%
X21210060Y25197659D02*
X21427341Y25414940D01*
X20672659Y25735060D02*
X20889940Y25952341D01*
%TO.C,J1*%
X10300000Y11900000D02*
X10300000Y10300000D01*
X19700000Y11900000D02*
X19700000Y10300000D01*
%TO.C,D3*%
X18900000Y17300000D02*
X18900000Y15450000D01*
X17700000Y17300000D02*
X17700000Y15450000D01*
X17700000Y15450000D02*
X18900000Y15450000D01*
%TO.C,D2*%
X14850000Y17300000D02*
X14850000Y15450000D01*
X13650000Y17300000D02*
X13650000Y15450000D01*
X13650000Y15450000D02*
X14850000Y15450000D01*
%TO.C,D1*%
X16350000Y17300000D02*
X16350000Y15450000D01*
X15150000Y17300000D02*
X15150000Y15450000D01*
X15150000Y15450000D02*
X16350000Y15450000D01*
%TO.C,C13*%
X9071693Y18680810D02*
X8919190Y18528307D01*
X9580810Y18171693D02*
X9428307Y18019190D01*
%TO.C,C11*%
X10421693Y20030810D02*
X10269190Y19878307D01*
X10930810Y19521693D02*
X10778307Y19369190D01*
%TO.C,C8*%
X23192164Y31740000D02*
X23407836Y31740000D01*
X23192164Y32460000D02*
X23407836Y32460000D01*
%TO.C,C4*%
X23353307Y18069190D02*
X23505810Y18221693D01*
X22844190Y18578307D02*
X22996693Y18730810D01*
%TO.C,C3*%
X17142164Y31740000D02*
X17357836Y31740000D01*
X17142164Y32460000D02*
X17357836Y32460000D01*
%TO.C,C2*%
X21219190Y21571693D02*
X21371693Y21419190D01*
X21728307Y22080810D02*
X21880810Y21928307D01*
%TO.C,C1*%
X21894190Y22246693D02*
X22046693Y22094190D01*
X22403307Y22755810D02*
X22555810Y22603307D01*
%TO.C,D4*%
D14*
X7935714Y11660715D02*
X7935714Y11489286D01*
X7935714Y11575000D02*
X7635714Y11575000D01*
X7678571Y11546429D01*
X7707142Y11517858D01*
X7721428Y11489286D01*
%TD*%
M02*
