%TF.GenerationSoftware,KiCad,Pcbnew,(5.1.12-1-10_14)*%
%TF.CreationDate,2022-04-30T16:01:42+08:00*%
%TF.ProjectId,DeerMon,44656572-4d6f-46e2-9e6b-696361645f70,V1.2*%
%TF.SameCoordinates,Original*%
%TF.FileFunction,Soldermask,Top*%
%TF.FilePolarity,Negative*%
%FSLAX46Y46*%
G04 Gerber Fmt 4.6, Leading zero omitted, Abs format (unit mm)*
G04 Created by KiCad (PCBNEW (5.1.12-1-10_14)) date 2022-04-30 16:01:42*
%MOMM*%
%LPD*%
G01*
G04 APERTURE LIST*
%ADD10C,0.600000*%
%ADD11C,1.300000*%
%ADD12C,2.100000*%
%ADD13O,1.800000X1.800000*%
%ADD14C,1.200000*%
%ADD15C,0.750000*%
G04 APERTURE END LIST*
D10*
%TO.C,CE4*%
X23000000Y7500000D03*
X25000000Y7500000D03*
X24000000Y7500000D03*
%TD*%
%TO.C,CE3*%
X22500000Y37500000D03*
X20500000Y37500000D03*
X21500000Y37500000D03*
%TD*%
%TO.C,CE2*%
X5000000Y7500000D03*
X7000000Y7500000D03*
X6000000Y7500000D03*
%TD*%
%TO.C,CE1*%
X9500000Y37500000D03*
X7500000Y37500000D03*
X8500000Y37500000D03*
%TD*%
%TO.C,U1*%
G36*
G01*
X17464645Y21977208D02*
X16227208Y23214645D01*
G75*
G02*
X16227208Y23285355I35355J35355D01*
G01*
X17464645Y24522792D01*
G75*
G02*
X17535355Y24522792I35355J-35355D01*
G01*
X18772792Y23285355D01*
G75*
G02*
X18772792Y23214645I-35355J-35355D01*
G01*
X17535355Y21977208D01*
G75*
G02*
X17464645Y21977208I-35355J35355D01*
G01*
G37*
G36*
G01*
X16041592Y23400260D02*
X15564295Y23877557D01*
G75*
G02*
X15564295Y24001301I61872J61872D01*
G01*
X15688038Y24125044D01*
G75*
G02*
X15811782Y24125044I61872J-61872D01*
G01*
X16289079Y23647747D01*
G75*
G02*
X16289079Y23524003I-61872J-61872D01*
G01*
X16165336Y23400260D01*
G75*
G02*
X16041592Y23400260I-61872J61872D01*
G01*
G37*
G36*
G01*
X16395146Y23753814D02*
X15917849Y24231111D01*
G75*
G02*
X15917849Y24354855I61872J61872D01*
G01*
X16041592Y24478598D01*
G75*
G02*
X16165336Y24478598I61872J-61872D01*
G01*
X16642633Y24001301D01*
G75*
G02*
X16642633Y23877557I-61872J-61872D01*
G01*
X16518890Y23753814D01*
G75*
G02*
X16395146Y23753814I-61872J61872D01*
G01*
G37*
G36*
G01*
X16748699Y24107367D02*
X16271402Y24584664D01*
G75*
G02*
X16271402Y24708408I61872J61872D01*
G01*
X16395145Y24832151D01*
G75*
G02*
X16518889Y24832151I61872J-61872D01*
G01*
X16996186Y24354854D01*
G75*
G02*
X16996186Y24231110I-61872J-61872D01*
G01*
X16872443Y24107367D01*
G75*
G02*
X16748699Y24107367I-61872J61872D01*
G01*
G37*
G36*
G01*
X17102253Y24460921D02*
X16624956Y24938218D01*
G75*
G02*
X16624956Y25061962I61872J61872D01*
G01*
X16748699Y25185705D01*
G75*
G02*
X16872443Y25185705I61872J-61872D01*
G01*
X17349740Y24708408D01*
G75*
G02*
X17349740Y24584664I-61872J-61872D01*
G01*
X17225997Y24460921D01*
G75*
G02*
X17102253Y24460921I-61872J61872D01*
G01*
G37*
G36*
G01*
X17774003Y24460921D02*
X17650260Y24584664D01*
G75*
G02*
X17650260Y24708408I61872J61872D01*
G01*
X18127557Y25185705D01*
G75*
G02*
X18251301Y25185705I61872J-61872D01*
G01*
X18375044Y25061962D01*
G75*
G02*
X18375044Y24938218I-61872J-61872D01*
G01*
X17897747Y24460921D01*
G75*
G02*
X17774003Y24460921I-61872J61872D01*
G01*
G37*
G36*
G01*
X18127557Y24107367D02*
X18003814Y24231110D01*
G75*
G02*
X18003814Y24354854I61872J61872D01*
G01*
X18481111Y24832151D01*
G75*
G02*
X18604855Y24832151I61872J-61872D01*
G01*
X18728598Y24708408D01*
G75*
G02*
X18728598Y24584664I-61872J-61872D01*
G01*
X18251301Y24107367D01*
G75*
G02*
X18127557Y24107367I-61872J61872D01*
G01*
G37*
G36*
G01*
X18481110Y23753814D02*
X18357367Y23877557D01*
G75*
G02*
X18357367Y24001301I61872J61872D01*
G01*
X18834664Y24478598D01*
G75*
G02*
X18958408Y24478598I61872J-61872D01*
G01*
X19082151Y24354855D01*
G75*
G02*
X19082151Y24231111I-61872J-61872D01*
G01*
X18604854Y23753814D01*
G75*
G02*
X18481110Y23753814I-61872J61872D01*
G01*
G37*
G36*
G01*
X18834664Y23400260D02*
X18710921Y23524003D01*
G75*
G02*
X18710921Y23647747I61872J61872D01*
G01*
X19188218Y24125044D01*
G75*
G02*
X19311962Y24125044I61872J-61872D01*
G01*
X19435705Y24001301D01*
G75*
G02*
X19435705Y23877557I-61872J-61872D01*
G01*
X18958408Y23400260D01*
G75*
G02*
X18834664Y23400260I-61872J61872D01*
G01*
G37*
G36*
G01*
X19188218Y22374956D02*
X18710921Y22852253D01*
G75*
G02*
X18710921Y22975997I61872J61872D01*
G01*
X18834664Y23099740D01*
G75*
G02*
X18958408Y23099740I61872J-61872D01*
G01*
X19435705Y22622443D01*
G75*
G02*
X19435705Y22498699I-61872J-61872D01*
G01*
X19311962Y22374956D01*
G75*
G02*
X19188218Y22374956I-61872J61872D01*
G01*
G37*
G36*
G01*
X18834664Y22021402D02*
X18357367Y22498699D01*
G75*
G02*
X18357367Y22622443I61872J61872D01*
G01*
X18481110Y22746186D01*
G75*
G02*
X18604854Y22746186I61872J-61872D01*
G01*
X19082151Y22268889D01*
G75*
G02*
X19082151Y22145145I-61872J-61872D01*
G01*
X18958408Y22021402D01*
G75*
G02*
X18834664Y22021402I-61872J61872D01*
G01*
G37*
G36*
G01*
X18481111Y21667849D02*
X18003814Y22145146D01*
G75*
G02*
X18003814Y22268890I61872J61872D01*
G01*
X18127557Y22392633D01*
G75*
G02*
X18251301Y22392633I61872J-61872D01*
G01*
X18728598Y21915336D01*
G75*
G02*
X18728598Y21791592I-61872J-61872D01*
G01*
X18604855Y21667849D01*
G75*
G02*
X18481111Y21667849I-61872J61872D01*
G01*
G37*
G36*
G01*
X18127557Y21314295D02*
X17650260Y21791592D01*
G75*
G02*
X17650260Y21915336I61872J61872D01*
G01*
X17774003Y22039079D01*
G75*
G02*
X17897747Y22039079I61872J-61872D01*
G01*
X18375044Y21561782D01*
G75*
G02*
X18375044Y21438038I-61872J-61872D01*
G01*
X18251301Y21314295D01*
G75*
G02*
X18127557Y21314295I-61872J61872D01*
G01*
G37*
G36*
G01*
X16748699Y21314295D02*
X16624956Y21438038D01*
G75*
G02*
X16624956Y21561782I61872J61872D01*
G01*
X17102253Y22039079D01*
G75*
G02*
X17225997Y22039079I61872J-61872D01*
G01*
X17349740Y21915336D01*
G75*
G02*
X17349740Y21791592I-61872J-61872D01*
G01*
X16872443Y21314295D01*
G75*
G02*
X16748699Y21314295I-61872J61872D01*
G01*
G37*
G36*
G01*
X16395145Y21667849D02*
X16271402Y21791592D01*
G75*
G02*
X16271402Y21915336I61872J61872D01*
G01*
X16748699Y22392633D01*
G75*
G02*
X16872443Y22392633I61872J-61872D01*
G01*
X16996186Y22268890D01*
G75*
G02*
X16996186Y22145146I-61872J-61872D01*
G01*
X16518889Y21667849D01*
G75*
G02*
X16395145Y21667849I-61872J61872D01*
G01*
G37*
G36*
G01*
X16041592Y22021402D02*
X15917849Y22145145D01*
G75*
G02*
X15917849Y22268889I61872J61872D01*
G01*
X16395146Y22746186D01*
G75*
G02*
X16518890Y22746186I61872J-61872D01*
G01*
X16642633Y22622443D01*
G75*
G02*
X16642633Y22498699I-61872J-61872D01*
G01*
X16165336Y22021402D01*
G75*
G02*
X16041592Y22021402I-61872J61872D01*
G01*
G37*
G36*
G01*
X15688038Y22374956D02*
X15564295Y22498699D01*
G75*
G02*
X15564295Y22622443I61872J61872D01*
G01*
X16041592Y23099740D01*
G75*
G02*
X16165336Y23099740I61872J-61872D01*
G01*
X16289079Y22975997D01*
G75*
G02*
X16289079Y22852253I-61872J-61872D01*
G01*
X15811782Y22374956D01*
G75*
G02*
X15688038Y22374956I-61872J61872D01*
G01*
G37*
%TD*%
%TO.C,C2*%
G36*
G01*
X15256049Y20931820D02*
X15531820Y20656049D01*
G75*
G02*
X15531820Y20422703I-116673J-116673D01*
G01*
X15298475Y20189358D01*
G75*
G02*
X15065129Y20189358I-116673J116673D01*
G01*
X14789358Y20465129D01*
G75*
G02*
X14789358Y20698475I116673J116673D01*
G01*
X15022703Y20931820D01*
G75*
G02*
X15256049Y20931820I116673J-116673D01*
G01*
G37*
G36*
G01*
X15934871Y21610642D02*
X16210642Y21334871D01*
G75*
G02*
X16210642Y21101525I-116673J-116673D01*
G01*
X15977297Y20868180D01*
G75*
G02*
X15743951Y20868180I-116673J116673D01*
G01*
X15468180Y21143951D01*
G75*
G02*
X15468180Y21377297I116673J116673D01*
G01*
X15701525Y21610642D01*
G75*
G02*
X15934871Y21610642I116673J-116673D01*
G01*
G37*
%TD*%
%TO.C,C17*%
G36*
G01*
X18506049Y20831820D02*
X18781820Y20556049D01*
G75*
G02*
X18781820Y20322703I-116673J-116673D01*
G01*
X18548475Y20089358D01*
G75*
G02*
X18315129Y20089358I-116673J116673D01*
G01*
X18039358Y20365129D01*
G75*
G02*
X18039358Y20598475I116673J116673D01*
G01*
X18272703Y20831820D01*
G75*
G02*
X18506049Y20831820I116673J-116673D01*
G01*
G37*
G36*
G01*
X19184871Y21510642D02*
X19460642Y21234871D01*
G75*
G02*
X19460642Y21001525I-116673J-116673D01*
G01*
X19227297Y20768180D01*
G75*
G02*
X18993951Y20768180I-116673J116673D01*
G01*
X18718180Y21043951D01*
G75*
G02*
X18718180Y21277297I116673J116673D01*
G01*
X18951525Y21510642D01*
G75*
G02*
X19184871Y21510642I116673J-116673D01*
G01*
G37*
%TD*%
%TO.C,C1*%
G36*
G01*
X13956049Y22231820D02*
X14231820Y21956049D01*
G75*
G02*
X14231820Y21722703I-116673J-116673D01*
G01*
X13998475Y21489358D01*
G75*
G02*
X13765129Y21489358I-116673J116673D01*
G01*
X13489358Y21765129D01*
G75*
G02*
X13489358Y21998475I116673J116673D01*
G01*
X13722703Y22231820D01*
G75*
G02*
X13956049Y22231820I116673J-116673D01*
G01*
G37*
G36*
G01*
X14634871Y22910642D02*
X14910642Y22634871D01*
G75*
G02*
X14910642Y22401525I-116673J-116673D01*
G01*
X14677297Y22168180D01*
G75*
G02*
X14443951Y22168180I-116673J116673D01*
G01*
X14168180Y22443951D01*
G75*
G02*
X14168180Y22677297I116673J116673D01*
G01*
X14401525Y22910642D01*
G75*
G02*
X14634871Y22910642I116673J-116673D01*
G01*
G37*
%TD*%
%TO.C,U2*%
G36*
G01*
X20350000Y31000000D02*
X20350000Y32300000D01*
G75*
G02*
X20400000Y32350000I50000J0D01*
G01*
X21100000Y32350000D01*
G75*
G02*
X21150000Y32300000I0J-50000D01*
G01*
X21150000Y31000000D01*
G75*
G02*
X21100000Y30950000I-50000J0D01*
G01*
X20400000Y30950000D01*
G75*
G02*
X20350000Y31000000I0J50000D01*
G01*
G37*
G36*
G01*
X21275000Y32312500D02*
X21275000Y32487500D01*
G75*
G02*
X21362500Y32575000I87500J0D01*
G01*
X22062500Y32575000D01*
G75*
G02*
X22150000Y32487500I0J-87500D01*
G01*
X22150000Y32312500D01*
G75*
G02*
X22062500Y32225000I-87500J0D01*
G01*
X21362500Y32225000D01*
G75*
G02*
X21275000Y32312500I0J87500D01*
G01*
G37*
G36*
G01*
X21275000Y31812500D02*
X21275000Y31987500D01*
G75*
G02*
X21362500Y32075000I87500J0D01*
G01*
X22062500Y32075000D01*
G75*
G02*
X22150000Y31987500I0J-87500D01*
G01*
X22150000Y31812500D01*
G75*
G02*
X22062500Y31725000I-87500J0D01*
G01*
X21362500Y31725000D01*
G75*
G02*
X21275000Y31812500I0J87500D01*
G01*
G37*
G36*
G01*
X21275000Y31312500D02*
X21275000Y31487500D01*
G75*
G02*
X21362500Y31575000I87500J0D01*
G01*
X22062500Y31575000D01*
G75*
G02*
X22150000Y31487500I0J-87500D01*
G01*
X22150000Y31312500D01*
G75*
G02*
X22062500Y31225000I-87500J0D01*
G01*
X21362500Y31225000D01*
G75*
G02*
X21275000Y31312500I0J87500D01*
G01*
G37*
G36*
G01*
X21275000Y30812500D02*
X21275000Y30987500D01*
G75*
G02*
X21362500Y31075000I87500J0D01*
G01*
X22062500Y31075000D01*
G75*
G02*
X22150000Y30987500I0J-87500D01*
G01*
X22150000Y30812500D01*
G75*
G02*
X22062500Y30725000I-87500J0D01*
G01*
X21362500Y30725000D01*
G75*
G02*
X21275000Y30812500I0J87500D01*
G01*
G37*
G36*
G01*
X19350000Y30812500D02*
X19350000Y30987500D01*
G75*
G02*
X19437500Y31075000I87500J0D01*
G01*
X20137500Y31075000D01*
G75*
G02*
X20225000Y30987500I0J-87500D01*
G01*
X20225000Y30812500D01*
G75*
G02*
X20137500Y30725000I-87500J0D01*
G01*
X19437500Y30725000D01*
G75*
G02*
X19350000Y30812500I0J87500D01*
G01*
G37*
G36*
G01*
X19350000Y31312500D02*
X19350000Y31487500D01*
G75*
G02*
X19437500Y31575000I87500J0D01*
G01*
X20137500Y31575000D01*
G75*
G02*
X20225000Y31487500I0J-87500D01*
G01*
X20225000Y31312500D01*
G75*
G02*
X20137500Y31225000I-87500J0D01*
G01*
X19437500Y31225000D01*
G75*
G02*
X19350000Y31312500I0J87500D01*
G01*
G37*
G36*
G01*
X19350000Y31812500D02*
X19350000Y31987500D01*
G75*
G02*
X19437500Y32075000I87500J0D01*
G01*
X20137500Y32075000D01*
G75*
G02*
X20225000Y31987500I0J-87500D01*
G01*
X20225000Y31812500D01*
G75*
G02*
X20137500Y31725000I-87500J0D01*
G01*
X19437500Y31725000D01*
G75*
G02*
X19350000Y31812500I0J87500D01*
G01*
G37*
G36*
G01*
X19350000Y32312500D02*
X19350000Y32487500D01*
G75*
G02*
X19437500Y32575000I87500J0D01*
G01*
X20137500Y32575000D01*
G75*
G02*
X20225000Y32487500I0J-87500D01*
G01*
X20225000Y32312500D01*
G75*
G02*
X20137500Y32225000I-87500J0D01*
G01*
X19437500Y32225000D01*
G75*
G02*
X19350000Y32312500I0J87500D01*
G01*
G37*
%TD*%
%TO.C,Q1*%
G36*
G01*
X19911611Y25275215D02*
X20194454Y24992372D01*
G75*
G02*
X20194454Y24921662I-35355J-35355D01*
G01*
X19734835Y24462043D01*
G75*
G02*
X19664125Y24462043I-35355J35355D01*
G01*
X19381282Y24744886D01*
G75*
G02*
X19381282Y24815596I35355J35355D01*
G01*
X19840901Y25275215D01*
G75*
G02*
X19911611Y25275215I35355J-35355D01*
G01*
G37*
G36*
G01*
X18992372Y26194454D02*
X19275215Y25911611D01*
G75*
G02*
X19275215Y25840901I-35355J-35355D01*
G01*
X18815596Y25381282D01*
G75*
G02*
X18744886Y25381282I-35355J35355D01*
G01*
X18462043Y25664125D01*
G75*
G02*
X18462043Y25734835I35355J35355D01*
G01*
X18921662Y26194454D01*
G75*
G02*
X18992372Y26194454I35355J-35355D01*
G01*
G37*
G36*
G01*
X20795494Y27078337D02*
X21078337Y26795494D01*
G75*
G02*
X21078337Y26724784I-35355J-35355D01*
G01*
X20618718Y26265165D01*
G75*
G02*
X20548008Y26265165I-35355J35355D01*
G01*
X20265165Y26548008D01*
G75*
G02*
X20265165Y26618718I35355J35355D01*
G01*
X20724784Y27078337D01*
G75*
G02*
X20795494Y27078337I35355J-35355D01*
G01*
G37*
G36*
G01*
X19451992Y25734835D02*
X19734835Y25451992D01*
G75*
G02*
X19734835Y25381282I-35355J-35355D01*
G01*
X19275216Y24921663D01*
G75*
G02*
X19204506Y24921663I-35355J35355D01*
G01*
X18921663Y25204506D01*
G75*
G02*
X18921663Y25275216I35355J35355D01*
G01*
X19381282Y25734835D01*
G75*
G02*
X19451992Y25734835I35355J-35355D01*
G01*
G37*
G36*
G01*
X20335875Y27537957D02*
X20618718Y27255114D01*
G75*
G02*
X20618718Y27184404I-35355J-35355D01*
G01*
X20159099Y26724785D01*
G75*
G02*
X20088389Y26724785I-35355J35355D01*
G01*
X19805546Y27007628D01*
G75*
G02*
X19805546Y27078338I35355J35355D01*
G01*
X20265165Y27537957D01*
G75*
G02*
X20335875Y27537957I35355J-35355D01*
G01*
G37*
G36*
G01*
X21255114Y26618718D02*
X21537957Y26335875D01*
G75*
G02*
X21537957Y26265165I-35355J-35355D01*
G01*
X21078338Y25805546D01*
G75*
G02*
X21007628Y25805546I-35355J35355D01*
G01*
X20724785Y26088389D01*
G75*
G02*
X20724785Y26159099I35355J35355D01*
G01*
X21184404Y26618718D01*
G75*
G02*
X21255114Y26618718I35355J-35355D01*
G01*
G37*
%TD*%
D11*
%TO.C,H1*%
X6500000Y35000000D03*
%TD*%
%TO.C,H4*%
X21750000Y9500000D03*
%TD*%
%TO.C,H3*%
X8250000Y9500000D03*
%TD*%
%TO.C,H2*%
X23500000Y35000000D03*
%TD*%
D12*
%TO.C,BZ1*%
X9425988Y30974012D03*
X14800000Y25600000D03*
%TD*%
%TO.C,C14*%
G36*
G01*
X9681049Y17706820D02*
X9956820Y17431049D01*
G75*
G02*
X9956820Y17197703I-116673J-116673D01*
G01*
X9723475Y16964358D01*
G75*
G02*
X9490129Y16964358I-116673J116673D01*
G01*
X9214358Y17240129D01*
G75*
G02*
X9214358Y17473475I116673J116673D01*
G01*
X9447703Y17706820D01*
G75*
G02*
X9681049Y17706820I116673J-116673D01*
G01*
G37*
G36*
G01*
X10359871Y18385642D02*
X10635642Y18109871D01*
G75*
G02*
X10635642Y17876525I-116673J-116673D01*
G01*
X10402297Y17643180D01*
G75*
G02*
X10168951Y17643180I-116673J116673D01*
G01*
X9893180Y17918951D01*
G75*
G02*
X9893180Y18152297I116673J116673D01*
G01*
X10126525Y18385642D01*
G75*
G02*
X10359871Y18385642I116673J-116673D01*
G01*
G37*
%TD*%
%TO.C,R11*%
G36*
G01*
X8440000Y13790000D02*
X8440000Y14210000D01*
G75*
G02*
X8600000Y14370000I160000J0D01*
G01*
X8920000Y14370000D01*
G75*
G02*
X9080000Y14210000I0J-160000D01*
G01*
X9080000Y13790000D01*
G75*
G02*
X8920000Y13630000I-160000J0D01*
G01*
X8600000Y13630000D01*
G75*
G02*
X8440000Y13790000I0J160000D01*
G01*
G37*
G36*
G01*
X7420000Y13790000D02*
X7420000Y14210000D01*
G75*
G02*
X7580000Y14370000I160000J0D01*
G01*
X7900000Y14370000D01*
G75*
G02*
X8060000Y14210000I0J-160000D01*
G01*
X8060000Y13790000D01*
G75*
G02*
X7900000Y13630000I-160000J0D01*
G01*
X7580000Y13630000D01*
G75*
G02*
X7420000Y13790000I0J160000D01*
G01*
G37*
%TD*%
%TO.C,D4*%
G36*
G01*
X8050000Y11750000D02*
X7550000Y11750000D01*
G75*
G02*
X7500000Y11800000I0J50000D01*
G01*
X7500000Y12300000D01*
G75*
G02*
X7550000Y12350000I50000J0D01*
G01*
X8050000Y12350000D01*
G75*
G02*
X8100000Y12300000I0J-50000D01*
G01*
X8100000Y11800000D01*
G75*
G02*
X8050000Y11750000I-50000J0D01*
G01*
G37*
G36*
G01*
X8950000Y11750000D02*
X8450000Y11750000D01*
G75*
G02*
X8400000Y11800000I0J50000D01*
G01*
X8400000Y12300000D01*
G75*
G02*
X8450000Y12350000I50000J0D01*
G01*
X8950000Y12350000D01*
G75*
G02*
X9000000Y12300000I0J-50000D01*
G01*
X9000000Y11800000D01*
G75*
G02*
X8950000Y11750000I-50000J0D01*
G01*
G37*
G36*
G01*
X8950000Y12650000D02*
X8450000Y12650000D01*
G75*
G02*
X8400000Y12700000I0J50000D01*
G01*
X8400000Y13200000D01*
G75*
G02*
X8450000Y13250000I50000J0D01*
G01*
X8950000Y13250000D01*
G75*
G02*
X9000000Y13200000I0J-50000D01*
G01*
X9000000Y12700000D01*
G75*
G02*
X8950000Y12650000I-50000J0D01*
G01*
G37*
G36*
G01*
X8050000Y12650000D02*
X7550000Y12650000D01*
G75*
G02*
X7500000Y12700000I0J50000D01*
G01*
X7500000Y13200000D01*
G75*
G02*
X7550000Y13250000I50000J0D01*
G01*
X8050000Y13250000D01*
G75*
G02*
X8100000Y13200000I0J-50000D01*
G01*
X8100000Y12700000D01*
G75*
G02*
X8050000Y12650000I-50000J0D01*
G01*
G37*
%TD*%
%TO.C,C16*%
G36*
G01*
X4781049Y16856820D02*
X5056820Y16581049D01*
G75*
G02*
X5056820Y16347703I-116673J-116673D01*
G01*
X4823475Y16114358D01*
G75*
G02*
X4590129Y16114358I-116673J116673D01*
G01*
X4314358Y16390129D01*
G75*
G02*
X4314358Y16623475I116673J116673D01*
G01*
X4547703Y16856820D01*
G75*
G02*
X4781049Y16856820I116673J-116673D01*
G01*
G37*
G36*
G01*
X5459871Y17535642D02*
X5735642Y17259871D01*
G75*
G02*
X5735642Y17026525I-116673J-116673D01*
G01*
X5502297Y16793180D01*
G75*
G02*
X5268951Y16793180I-116673J116673D01*
G01*
X4993180Y17068951D01*
G75*
G02*
X4993180Y17302297I116673J116673D01*
G01*
X5226525Y17535642D01*
G75*
G02*
X5459871Y17535642I116673J-116673D01*
G01*
G37*
%TD*%
%TO.C,C15*%
G36*
G01*
X4106049Y17531820D02*
X4381820Y17256049D01*
G75*
G02*
X4381820Y17022703I-116673J-116673D01*
G01*
X4148475Y16789358D01*
G75*
G02*
X3915129Y16789358I-116673J116673D01*
G01*
X3639358Y17065129D01*
G75*
G02*
X3639358Y17298475I116673J116673D01*
G01*
X3872703Y17531820D01*
G75*
G02*
X4106049Y17531820I116673J-116673D01*
G01*
G37*
G36*
G01*
X4784871Y18210642D02*
X5060642Y17934871D01*
G75*
G02*
X5060642Y17701525I-116673J-116673D01*
G01*
X4827297Y17468180D01*
G75*
G02*
X4593951Y17468180I-116673J116673D01*
G01*
X4318180Y17743951D01*
G75*
G02*
X4318180Y17977297I116673J116673D01*
G01*
X4551525Y18210642D01*
G75*
G02*
X4784871Y18210642I116673J-116673D01*
G01*
G37*
%TD*%
%TO.C,C12*%
G36*
G01*
X9743951Y27168180D02*
X9468180Y27443951D01*
G75*
G02*
X9468180Y27677297I116673J116673D01*
G01*
X9701525Y27910642D01*
G75*
G02*
X9934871Y27910642I116673J-116673D01*
G01*
X10210642Y27634871D01*
G75*
G02*
X10210642Y27401525I-116673J-116673D01*
G01*
X9977297Y27168180D01*
G75*
G02*
X9743951Y27168180I-116673J116673D01*
G01*
G37*
G36*
G01*
X9065129Y26489358D02*
X8789358Y26765129D01*
G75*
G02*
X8789358Y26998475I116673J116673D01*
G01*
X9022703Y27231820D01*
G75*
G02*
X9256049Y27231820I116673J-116673D01*
G01*
X9531820Y26956049D01*
G75*
G02*
X9531820Y26722703I-116673J-116673D01*
G01*
X9298475Y26489358D01*
G75*
G02*
X9065129Y26489358I-116673J116673D01*
G01*
G37*
%TD*%
%TO.C,C7*%
G36*
G01*
X3431049Y18206820D02*
X3706820Y17931049D01*
G75*
G02*
X3706820Y17697703I-116673J-116673D01*
G01*
X3473475Y17464358D01*
G75*
G02*
X3240129Y17464358I-116673J116673D01*
G01*
X2964358Y17740129D01*
G75*
G02*
X2964358Y17973475I116673J116673D01*
G01*
X3197703Y18206820D01*
G75*
G02*
X3431049Y18206820I116673J-116673D01*
G01*
G37*
G36*
G01*
X4109871Y18885642D02*
X4385642Y18609871D01*
G75*
G02*
X4385642Y18376525I-116673J-116673D01*
G01*
X4152297Y18143180D01*
G75*
G02*
X3918951Y18143180I-116673J116673D01*
G01*
X3643180Y18418951D01*
G75*
G02*
X3643180Y18652297I116673J116673D01*
G01*
X3876525Y18885642D01*
G75*
G02*
X4109871Y18885642I116673J-116673D01*
G01*
G37*
%TD*%
%TO.C,C6*%
G36*
G01*
X10356049Y17031820D02*
X10631820Y16756049D01*
G75*
G02*
X10631820Y16522703I-116673J-116673D01*
G01*
X10398475Y16289358D01*
G75*
G02*
X10165129Y16289358I-116673J116673D01*
G01*
X9889358Y16565129D01*
G75*
G02*
X9889358Y16798475I116673J116673D01*
G01*
X10122703Y17031820D01*
G75*
G02*
X10356049Y17031820I116673J-116673D01*
G01*
G37*
G36*
G01*
X11034871Y17710642D02*
X11310642Y17434871D01*
G75*
G02*
X11310642Y17201525I-116673J-116673D01*
G01*
X11077297Y16968180D01*
G75*
G02*
X10843951Y16968180I-116673J116673D01*
G01*
X10568180Y17243951D01*
G75*
G02*
X10568180Y17477297I116673J116673D01*
G01*
X10801525Y17710642D01*
G75*
G02*
X11034871Y17710642I116673J-116673D01*
G01*
G37*
%TD*%
%TO.C,C5*%
G36*
G01*
X1195000Y25750000D02*
X805000Y25750000D01*
G75*
G02*
X640000Y25915000I0J165000D01*
G01*
X640000Y26245000D01*
G75*
G02*
X805000Y26410000I165000J0D01*
G01*
X1195000Y26410000D01*
G75*
G02*
X1360000Y26245000I0J-165000D01*
G01*
X1360000Y25915000D01*
G75*
G02*
X1195000Y25750000I-165000J0D01*
G01*
G37*
G36*
G01*
X1195000Y24790000D02*
X805000Y24790000D01*
G75*
G02*
X640000Y24955000I0J165000D01*
G01*
X640000Y25285000D01*
G75*
G02*
X805000Y25450000I165000J0D01*
G01*
X1195000Y25450000D01*
G75*
G02*
X1360000Y25285000I0J-165000D01*
G01*
X1360000Y24955000D01*
G75*
G02*
X1195000Y24790000I-165000J0D01*
G01*
G37*
%TD*%
%TO.C,R14*%
G36*
G01*
X22125000Y13150000D02*
X22125000Y12550000D01*
G75*
G02*
X21900000Y12325000I-225000J0D01*
G01*
X21450000Y12325000D01*
G75*
G02*
X21225000Y12550000I0J225000D01*
G01*
X21225000Y13150000D01*
G75*
G02*
X21450000Y13375000I225000J0D01*
G01*
X21900000Y13375000D01*
G75*
G02*
X22125000Y13150000I0J-225000D01*
G01*
G37*
G36*
G01*
X23775000Y13150000D02*
X23775000Y12550000D01*
G75*
G02*
X23550000Y12325000I-225000J0D01*
G01*
X23100000Y12325000D01*
G75*
G02*
X22875000Y12550000I0J225000D01*
G01*
X22875000Y13150000D01*
G75*
G02*
X23100000Y13375000I225000J0D01*
G01*
X23550000Y13375000D01*
G75*
G02*
X23775000Y13150000I0J-225000D01*
G01*
G37*
%TD*%
%TO.C,R13*%
G36*
G01*
X6790000Y33090000D02*
X6790000Y33510000D01*
G75*
G02*
X6950000Y33670000I160000J0D01*
G01*
X7270000Y33670000D01*
G75*
G02*
X7430000Y33510000I0J-160000D01*
G01*
X7430000Y33090000D01*
G75*
G02*
X7270000Y32930000I-160000J0D01*
G01*
X6950000Y32930000D01*
G75*
G02*
X6790000Y33090000I0J160000D01*
G01*
G37*
G36*
G01*
X5770000Y33090000D02*
X5770000Y33510000D01*
G75*
G02*
X5930000Y33670000I160000J0D01*
G01*
X6250000Y33670000D01*
G75*
G02*
X6410000Y33510000I0J-160000D01*
G01*
X6410000Y33090000D01*
G75*
G02*
X6250000Y32930000I-160000J0D01*
G01*
X5930000Y32930000D01*
G75*
G02*
X5770000Y33090000I0J160000D01*
G01*
G37*
%TD*%
D13*
%TO.C,J3*%
X25710000Y29620000D03*
X28250000Y29620000D03*
X25710000Y27080000D03*
X28250000Y27080000D03*
X25710000Y24540000D03*
X28250000Y24540000D03*
X25710000Y22000000D03*
X28250000Y22000000D03*
X25710000Y19460000D03*
X28250000Y19460000D03*
X25710000Y16920000D03*
X28250000Y16920000D03*
X25710000Y14380000D03*
X28250000Y14380000D03*
X25710000Y11840000D03*
X28250000Y11840000D03*
X25710000Y9300000D03*
G36*
G01*
X27350000Y8450000D02*
X27350000Y10150000D01*
G75*
G02*
X27400000Y10200000I50000J0D01*
G01*
X29100000Y10200000D01*
G75*
G02*
X29150000Y10150000I0J-50000D01*
G01*
X29150000Y8450000D01*
G75*
G02*
X29100000Y8400000I-50000J0D01*
G01*
X27400000Y8400000D01*
G75*
G02*
X27350000Y8450000I0J50000D01*
G01*
G37*
%TD*%
D14*
%TO.C,SW1*%
X2600000Y32100000D03*
G36*
G01*
X3700000Y35050000D02*
X4700000Y35050000D01*
G75*
G02*
X4750000Y35000000I0J-50000D01*
G01*
X4750000Y33500000D01*
G75*
G02*
X4700000Y33450000I-50000J0D01*
G01*
X3700000Y33450000D01*
G75*
G02*
X3650000Y33500000I0J50000D01*
G01*
X3650000Y35000000D01*
G75*
G02*
X3700000Y35050000I50000J0D01*
G01*
G37*
G36*
G01*
X3300000Y32950000D02*
X4500000Y32950000D01*
G75*
G02*
X4550000Y32900000I0J-50000D01*
G01*
X4550000Y32200000D01*
G75*
G02*
X4500000Y32150000I-50000J0D01*
G01*
X3300000Y32150000D01*
G75*
G02*
X3250000Y32200000I0J50000D01*
G01*
X3250000Y32900000D01*
G75*
G02*
X3300000Y32950000I50000J0D01*
G01*
G37*
G36*
G01*
X3300000Y36350000D02*
X4500000Y36350000D01*
G75*
G02*
X4550000Y36300000I0J-50000D01*
G01*
X4550000Y35600000D01*
G75*
G02*
X4500000Y35550000I-50000J0D01*
G01*
X3300000Y35550000D01*
G75*
G02*
X3250000Y35600000I0J50000D01*
G01*
X3250000Y36300000D01*
G75*
G02*
X3300000Y36350000I50000J0D01*
G01*
G37*
G36*
G01*
X1300000Y32750000D02*
X2000000Y32750000D01*
G75*
G02*
X2050000Y32700000I0J-50000D01*
G01*
X2050000Y31600000D01*
G75*
G02*
X2000000Y31550000I-50000J0D01*
G01*
X1300000Y31550000D01*
G75*
G02*
X1250000Y31600000I0J50000D01*
G01*
X1250000Y32700000D01*
G75*
G02*
X1300000Y32750000I50000J0D01*
G01*
G37*
G36*
G01*
X1300000Y36950000D02*
X2000000Y36950000D01*
G75*
G02*
X2050000Y36900000I0J-50000D01*
G01*
X2050000Y35800000D01*
G75*
G02*
X2000000Y35750000I-50000J0D01*
G01*
X1300000Y35750000D01*
G75*
G02*
X1250000Y35800000I0J50000D01*
G01*
X1250000Y36900000D01*
G75*
G02*
X1300000Y36950000I50000J0D01*
G01*
G37*
X2600000Y36400000D03*
%TD*%
%TO.C,Q2*%
G36*
G01*
X7100000Y30575000D02*
X7100000Y31375000D01*
G75*
G02*
X7150000Y31425000I50000J0D01*
G01*
X8050000Y31425000D01*
G75*
G02*
X8100000Y31375000I0J-50000D01*
G01*
X8100000Y30575000D01*
G75*
G02*
X8050000Y30525000I-50000J0D01*
G01*
X7150000Y30525000D01*
G75*
G02*
X7100000Y30575000I0J50000D01*
G01*
G37*
G36*
G01*
X5100000Y29625000D02*
X5100000Y30425000D01*
G75*
G02*
X5150000Y30475000I50000J0D01*
G01*
X6050000Y30475000D01*
G75*
G02*
X6100000Y30425000I0J-50000D01*
G01*
X6100000Y29625000D01*
G75*
G02*
X6050000Y29575000I-50000J0D01*
G01*
X5150000Y29575000D01*
G75*
G02*
X5100000Y29625000I0J50000D01*
G01*
G37*
G36*
G01*
X5100000Y31525000D02*
X5100000Y32325000D01*
G75*
G02*
X5150000Y32375000I50000J0D01*
G01*
X6050000Y32375000D01*
G75*
G02*
X6100000Y32325000I0J-50000D01*
G01*
X6100000Y31525000D01*
G75*
G02*
X6050000Y31475000I-50000J0D01*
G01*
X5150000Y31475000D01*
G75*
G02*
X5100000Y31525000I0J50000D01*
G01*
G37*
%TD*%
%TO.C,C10*%
G36*
G01*
X22486917Y19050000D02*
X22098008Y19438909D01*
G75*
G02*
X22098008Y19792463I176777J176777D01*
G01*
X22451561Y20146016D01*
G75*
G02*
X22805115Y20146016I176777J-176777D01*
G01*
X23194024Y19757107D01*
G75*
G02*
X23194024Y19403553I-176777J-176777D01*
G01*
X22840471Y19050000D01*
G75*
G02*
X22486917Y19050000I-176777J176777D01*
G01*
G37*
G36*
G01*
X21390901Y17953984D02*
X21001992Y18342893D01*
G75*
G02*
X21001992Y18696447I176777J176777D01*
G01*
X21355545Y19050000D01*
G75*
G02*
X21709099Y19050000I176777J-176777D01*
G01*
X22098008Y18661091D01*
G75*
G02*
X22098008Y18307537I-176777J-176777D01*
G01*
X21744455Y17953984D01*
G75*
G02*
X21390901Y17953984I-176777J176777D01*
G01*
G37*
%TD*%
%TO.C,C9*%
G36*
G01*
X22775000Y11075000D02*
X22775000Y11625000D01*
G75*
G02*
X23025000Y11875000I250000J0D01*
G01*
X23525000Y11875000D01*
G75*
G02*
X23775000Y11625000I0J-250000D01*
G01*
X23775000Y11075000D01*
G75*
G02*
X23525000Y10825000I-250000J0D01*
G01*
X23025000Y10825000D01*
G75*
G02*
X22775000Y11075000I0J250000D01*
G01*
G37*
G36*
G01*
X21225000Y11075000D02*
X21225000Y11625000D01*
G75*
G02*
X21475000Y11875000I250000J0D01*
G01*
X21975000Y11875000D01*
G75*
G02*
X22225000Y11625000I0J-250000D01*
G01*
X22225000Y11075000D01*
G75*
G02*
X21975000Y10825000I-250000J0D01*
G01*
X21475000Y10825000D01*
G75*
G02*
X21225000Y11075000I0J250000D01*
G01*
G37*
%TD*%
%TO.C,J2*%
G36*
G01*
X19000000Y33300000D02*
X19000000Y35700000D01*
G75*
G02*
X19050000Y35750000I50000J0D01*
G01*
X21050000Y35750000D01*
G75*
G02*
X21100000Y35700000I0J-50000D01*
G01*
X21100000Y33300000D01*
G75*
G02*
X21050000Y33250000I-50000J0D01*
G01*
X19050000Y33250000D01*
G75*
G02*
X19000000Y33300000I0J50000D01*
G01*
G37*
G36*
G01*
X8900000Y33300000D02*
X8900000Y35700000D01*
G75*
G02*
X8950000Y35750000I50000J0D01*
G01*
X10950000Y35750000D01*
G75*
G02*
X11000000Y35700000I0J-50000D01*
G01*
X11000000Y33300000D01*
G75*
G02*
X10950000Y33250000I-50000J0D01*
G01*
X8950000Y33250000D01*
G75*
G02*
X8900000Y33300000I0J50000D01*
G01*
G37*
G36*
G01*
X12000000Y34900000D02*
X12000000Y36050000D01*
G75*
G02*
X12050000Y36100000I50000J0D01*
G01*
X12450000Y36100000D01*
G75*
G02*
X12500000Y36050000I0J-50000D01*
G01*
X12500000Y34900000D01*
G75*
G02*
X12450000Y34850000I-50000J0D01*
G01*
X12050000Y34850000D01*
G75*
G02*
X12000000Y34900000I0J50000D01*
G01*
G37*
G36*
G01*
X16000000Y34900000D02*
X16000000Y36050000D01*
G75*
G02*
X16050000Y36100000I50000J0D01*
G01*
X16450000Y36100000D01*
G75*
G02*
X16500000Y36050000I0J-50000D01*
G01*
X16500000Y34900000D01*
G75*
G02*
X16450000Y34850000I-50000J0D01*
G01*
X16050000Y34850000D01*
G75*
G02*
X16000000Y34900000I0J50000D01*
G01*
G37*
G36*
G01*
X17000000Y34900000D02*
X17000000Y36050000D01*
G75*
G02*
X17050000Y36100000I50000J0D01*
G01*
X17450000Y36100000D01*
G75*
G02*
X17500000Y36050000I0J-50000D01*
G01*
X17500000Y34900000D01*
G75*
G02*
X17450000Y34850000I-50000J0D01*
G01*
X17050000Y34850000D01*
G75*
G02*
X17000000Y34900000I0J50000D01*
G01*
G37*
G36*
G01*
X18000000Y34900000D02*
X18000000Y36050000D01*
G75*
G02*
X18050000Y36100000I50000J0D01*
G01*
X18450000Y36100000D01*
G75*
G02*
X18500000Y36050000I0J-50000D01*
G01*
X18500000Y34900000D01*
G75*
G02*
X18450000Y34850000I-50000J0D01*
G01*
X18050000Y34850000D01*
G75*
G02*
X18000000Y34900000I0J50000D01*
G01*
G37*
G36*
G01*
X15000000Y34900000D02*
X15000000Y36050000D01*
G75*
G02*
X15050000Y36100000I50000J0D01*
G01*
X15450000Y36100000D01*
G75*
G02*
X15500000Y36050000I0J-50000D01*
G01*
X15500000Y34900000D01*
G75*
G02*
X15450000Y34850000I-50000J0D01*
G01*
X15050000Y34850000D01*
G75*
G02*
X15000000Y34900000I0J50000D01*
G01*
G37*
G36*
G01*
X13000000Y34900000D02*
X13000000Y36050000D01*
G75*
G02*
X13050000Y36100000I50000J0D01*
G01*
X13450000Y36100000D01*
G75*
G02*
X13500000Y36050000I0J-50000D01*
G01*
X13500000Y34900000D01*
G75*
G02*
X13450000Y34850000I-50000J0D01*
G01*
X13050000Y34850000D01*
G75*
G02*
X13000000Y34900000I0J50000D01*
G01*
G37*
G36*
G01*
X14000000Y34900000D02*
X14000000Y36050000D01*
G75*
G02*
X14050000Y36100000I50000J0D01*
G01*
X14450000Y36100000D01*
G75*
G02*
X14500000Y36050000I0J-50000D01*
G01*
X14500000Y34900000D01*
G75*
G02*
X14450000Y34850000I-50000J0D01*
G01*
X14050000Y34850000D01*
G75*
G02*
X14000000Y34900000I0J50000D01*
G01*
G37*
G36*
G01*
X17500000Y32950000D02*
X17500000Y34100000D01*
G75*
G02*
X17550000Y34150000I50000J0D01*
G01*
X17950000Y34150000D01*
G75*
G02*
X18000000Y34100000I0J-50000D01*
G01*
X18000000Y32950000D01*
G75*
G02*
X17950000Y32900000I-50000J0D01*
G01*
X17550000Y32900000D01*
G75*
G02*
X17500000Y32950000I0J50000D01*
G01*
G37*
G36*
G01*
X16500000Y32950000D02*
X16500000Y34100000D01*
G75*
G02*
X16550000Y34150000I50000J0D01*
G01*
X16950000Y34150000D01*
G75*
G02*
X17000000Y34100000I0J-50000D01*
G01*
X17000000Y32950000D01*
G75*
G02*
X16950000Y32900000I-50000J0D01*
G01*
X16550000Y32900000D01*
G75*
G02*
X16500000Y32950000I0J50000D01*
G01*
G37*
G36*
G01*
X15500000Y32950000D02*
X15500000Y34100000D01*
G75*
G02*
X15550000Y34150000I50000J0D01*
G01*
X15950000Y34150000D01*
G75*
G02*
X16000000Y34100000I0J-50000D01*
G01*
X16000000Y32950000D01*
G75*
G02*
X15950000Y32900000I-50000J0D01*
G01*
X15550000Y32900000D01*
G75*
G02*
X15500000Y32950000I0J50000D01*
G01*
G37*
G36*
G01*
X14500000Y32950000D02*
X14500000Y34100000D01*
G75*
G02*
X14550000Y34150000I50000J0D01*
G01*
X14950000Y34150000D01*
G75*
G02*
X15000000Y34100000I0J-50000D01*
G01*
X15000000Y32950000D01*
G75*
G02*
X14950000Y32900000I-50000J0D01*
G01*
X14550000Y32900000D01*
G75*
G02*
X14500000Y32950000I0J50000D01*
G01*
G37*
G36*
G01*
X13500000Y32950000D02*
X13500000Y34100000D01*
G75*
G02*
X13550000Y34150000I50000J0D01*
G01*
X13950000Y34150000D01*
G75*
G02*
X14000000Y34100000I0J-50000D01*
G01*
X14000000Y32950000D01*
G75*
G02*
X13950000Y32900000I-50000J0D01*
G01*
X13550000Y32900000D01*
G75*
G02*
X13500000Y32950000I0J50000D01*
G01*
G37*
G36*
G01*
X12500000Y32950000D02*
X12500000Y34100000D01*
G75*
G02*
X12550000Y34150000I50000J0D01*
G01*
X12950000Y34150000D01*
G75*
G02*
X13000000Y34100000I0J-50000D01*
G01*
X13000000Y32950000D01*
G75*
G02*
X12950000Y32900000I-50000J0D01*
G01*
X12550000Y32900000D01*
G75*
G02*
X12500000Y32950000I0J50000D01*
G01*
G37*
G36*
G01*
X11500000Y32950000D02*
X11500000Y34100000D01*
G75*
G02*
X11550000Y34150000I50000J0D01*
G01*
X11950000Y34150000D01*
G75*
G02*
X12000000Y34100000I0J-50000D01*
G01*
X12000000Y32950000D01*
G75*
G02*
X11950000Y32900000I-50000J0D01*
G01*
X11550000Y32900000D01*
G75*
G02*
X11500000Y32950000I0J50000D01*
G01*
G37*
%TD*%
%TO.C,AE1*%
G36*
G01*
X1000000Y9400000D02*
X3000000Y9400000D01*
G75*
G02*
X3050000Y9350000I0J-50000D01*
G01*
X3050000Y8150000D01*
G75*
G02*
X3000000Y8100000I-50000J0D01*
G01*
X1000000Y8100000D01*
G75*
G02*
X950000Y8150000I0J50000D01*
G01*
X950000Y9350000D01*
G75*
G02*
X1000000Y9400000I50000J0D01*
G01*
G37*
G36*
G01*
X1000000Y14900000D02*
X3000000Y14900000D01*
G75*
G02*
X3050000Y14850000I0J-50000D01*
G01*
X3050000Y13650000D01*
G75*
G02*
X3000000Y13600000I-50000J0D01*
G01*
X1000000Y13600000D01*
G75*
G02*
X950000Y13650000I0J50000D01*
G01*
X950000Y14850000D01*
G75*
G02*
X1000000Y14900000I50000J0D01*
G01*
G37*
%TD*%
%TO.C,SW2*%
X27400000Y36400000D03*
G36*
G01*
X26300000Y33450000D02*
X25300000Y33450000D01*
G75*
G02*
X25250000Y33500000I0J50000D01*
G01*
X25250000Y35000000D01*
G75*
G02*
X25300000Y35050000I50000J0D01*
G01*
X26300000Y35050000D01*
G75*
G02*
X26350000Y35000000I0J-50000D01*
G01*
X26350000Y33500000D01*
G75*
G02*
X26300000Y33450000I-50000J0D01*
G01*
G37*
G36*
G01*
X26700000Y35550000D02*
X25500000Y35550000D01*
G75*
G02*
X25450000Y35600000I0J50000D01*
G01*
X25450000Y36300000D01*
G75*
G02*
X25500000Y36350000I50000J0D01*
G01*
X26700000Y36350000D01*
G75*
G02*
X26750000Y36300000I0J-50000D01*
G01*
X26750000Y35600000D01*
G75*
G02*
X26700000Y35550000I-50000J0D01*
G01*
G37*
G36*
G01*
X26700000Y32150000D02*
X25500000Y32150000D01*
G75*
G02*
X25450000Y32200000I0J50000D01*
G01*
X25450000Y32900000D01*
G75*
G02*
X25500000Y32950000I50000J0D01*
G01*
X26700000Y32950000D01*
G75*
G02*
X26750000Y32900000I0J-50000D01*
G01*
X26750000Y32200000D01*
G75*
G02*
X26700000Y32150000I-50000J0D01*
G01*
G37*
G36*
G01*
X28700000Y35750000D02*
X28000000Y35750000D01*
G75*
G02*
X27950000Y35800000I0J50000D01*
G01*
X27950000Y36900000D01*
G75*
G02*
X28000000Y36950000I50000J0D01*
G01*
X28700000Y36950000D01*
G75*
G02*
X28750000Y36900000I0J-50000D01*
G01*
X28750000Y35800000D01*
G75*
G02*
X28700000Y35750000I-50000J0D01*
G01*
G37*
G36*
G01*
X28700000Y31550000D02*
X28000000Y31550000D01*
G75*
G02*
X27950000Y31600000I0J50000D01*
G01*
X27950000Y32700000D01*
G75*
G02*
X28000000Y32750000I50000J0D01*
G01*
X28700000Y32750000D01*
G75*
G02*
X28750000Y32700000I0J-50000D01*
G01*
X28750000Y31600000D01*
G75*
G02*
X28700000Y31550000I-50000J0D01*
G01*
G37*
X27400000Y32100000D03*
%TD*%
%TO.C,U4*%
G36*
G01*
X9217336Y22964645D02*
X6035355Y19782664D01*
G75*
G02*
X5964645Y19782664I-35355J35355D01*
G01*
X2782664Y22964645D01*
G75*
G02*
X2782664Y23035355I35355J35355D01*
G01*
X5964645Y26217336D01*
G75*
G02*
X6035355Y26217336I35355J-35355D01*
G01*
X9217336Y23035355D01*
G75*
G02*
X9217336Y22964645I-35355J-35355D01*
G01*
G37*
G36*
G01*
X5920451Y18783876D02*
X5354765Y18218190D01*
G75*
G02*
X5231021Y18218190I-61872J61872D01*
G01*
X5107277Y18341934D01*
G75*
G02*
X5107277Y18465678I61872J61872D01*
G01*
X5672963Y19031364D01*
G75*
G02*
X5796707Y19031364I61872J-61872D01*
G01*
X5920451Y18907620D01*
G75*
G02*
X5920451Y18783876I-61872J-61872D01*
G01*
G37*
G36*
G01*
X5566898Y19137429D02*
X5001212Y18571743D01*
G75*
G02*
X4877468Y18571743I-61872J61872D01*
G01*
X4753724Y18695487D01*
G75*
G02*
X4753724Y18819231I61872J61872D01*
G01*
X5319410Y19384917D01*
G75*
G02*
X5443154Y19384917I61872J-61872D01*
G01*
X5566898Y19261173D01*
G75*
G02*
X5566898Y19137429I-61872J-61872D01*
G01*
G37*
G36*
G01*
X5213344Y19490983D02*
X4647658Y18925297D01*
G75*
G02*
X4523914Y18925297I-61872J61872D01*
G01*
X4400170Y19049041D01*
G75*
G02*
X4400170Y19172785I61872J61872D01*
G01*
X4965856Y19738471D01*
G75*
G02*
X5089600Y19738471I61872J-61872D01*
G01*
X5213344Y19614727D01*
G75*
G02*
X5213344Y19490983I-61872J-61872D01*
G01*
G37*
G36*
G01*
X4859791Y19844536D02*
X4294105Y19278850D01*
G75*
G02*
X4170361Y19278850I-61872J61872D01*
G01*
X4046617Y19402594D01*
G75*
G02*
X4046617Y19526338I61872J61872D01*
G01*
X4612303Y20092024D01*
G75*
G02*
X4736047Y20092024I61872J-61872D01*
G01*
X4859791Y19968280D01*
G75*
G02*
X4859791Y19844536I-61872J-61872D01*
G01*
G37*
G36*
G01*
X4506238Y20198089D02*
X3940552Y19632403D01*
G75*
G02*
X3816808Y19632403I-61872J61872D01*
G01*
X3693064Y19756147D01*
G75*
G02*
X3693064Y19879891I61872J61872D01*
G01*
X4258750Y20445577D01*
G75*
G02*
X4382494Y20445577I61872J-61872D01*
G01*
X4506238Y20321833D01*
G75*
G02*
X4506238Y20198089I-61872J-61872D01*
G01*
G37*
G36*
G01*
X4152684Y20551643D02*
X3586998Y19985957D01*
G75*
G02*
X3463254Y19985957I-61872J61872D01*
G01*
X3339510Y20109701D01*
G75*
G02*
X3339510Y20233445I61872J61872D01*
G01*
X3905196Y20799131D01*
G75*
G02*
X4028940Y20799131I61872J-61872D01*
G01*
X4152684Y20675387D01*
G75*
G02*
X4152684Y20551643I-61872J-61872D01*
G01*
G37*
G36*
G01*
X3799131Y20905196D02*
X3233445Y20339510D01*
G75*
G02*
X3109701Y20339510I-61872J61872D01*
G01*
X2985957Y20463254D01*
G75*
G02*
X2985957Y20586998I61872J61872D01*
G01*
X3551643Y21152684D01*
G75*
G02*
X3675387Y21152684I61872J-61872D01*
G01*
X3799131Y21028940D01*
G75*
G02*
X3799131Y20905196I-61872J-61872D01*
G01*
G37*
G36*
G01*
X3445577Y21258750D02*
X2879891Y20693064D01*
G75*
G02*
X2756147Y20693064I-61872J61872D01*
G01*
X2632403Y20816808D01*
G75*
G02*
X2632403Y20940552I61872J61872D01*
G01*
X3198089Y21506238D01*
G75*
G02*
X3321833Y21506238I61872J-61872D01*
G01*
X3445577Y21382494D01*
G75*
G02*
X3445577Y21258750I-61872J-61872D01*
G01*
G37*
G36*
G01*
X3092024Y21612303D02*
X2526338Y21046617D01*
G75*
G02*
X2402594Y21046617I-61872J61872D01*
G01*
X2278850Y21170361D01*
G75*
G02*
X2278850Y21294105I61872J61872D01*
G01*
X2844536Y21859791D01*
G75*
G02*
X2968280Y21859791I61872J-61872D01*
G01*
X3092024Y21736047D01*
G75*
G02*
X3092024Y21612303I-61872J-61872D01*
G01*
G37*
G36*
G01*
X2738471Y21965856D02*
X2172785Y21400170D01*
G75*
G02*
X2049041Y21400170I-61872J61872D01*
G01*
X1925297Y21523914D01*
G75*
G02*
X1925297Y21647658I61872J61872D01*
G01*
X2490983Y22213344D01*
G75*
G02*
X2614727Y22213344I61872J-61872D01*
G01*
X2738471Y22089600D01*
G75*
G02*
X2738471Y21965856I-61872J-61872D01*
G01*
G37*
G36*
G01*
X2384917Y22319410D02*
X1819231Y21753724D01*
G75*
G02*
X1695487Y21753724I-61872J61872D01*
G01*
X1571743Y21877468D01*
G75*
G02*
X1571743Y22001212I61872J61872D01*
G01*
X2137429Y22566898D01*
G75*
G02*
X2261173Y22566898I61872J-61872D01*
G01*
X2384917Y22443154D01*
G75*
G02*
X2384917Y22319410I-61872J-61872D01*
G01*
G37*
G36*
G01*
X2031364Y22672963D02*
X1465678Y22107277D01*
G75*
G02*
X1341934Y22107277I-61872J61872D01*
G01*
X1218190Y22231021D01*
G75*
G02*
X1218190Y22354765I61872J61872D01*
G01*
X1783876Y22920451D01*
G75*
G02*
X1907620Y22920451I61872J-61872D01*
G01*
X2031364Y22796707D01*
G75*
G02*
X2031364Y22672963I-61872J-61872D01*
G01*
G37*
G36*
G01*
X2031364Y23203293D02*
X1907620Y23079549D01*
G75*
G02*
X1783876Y23079549I-61872J61872D01*
G01*
X1218190Y23645235D01*
G75*
G02*
X1218190Y23768979I61872J61872D01*
G01*
X1341934Y23892723D01*
G75*
G02*
X1465678Y23892723I61872J-61872D01*
G01*
X2031364Y23327037D01*
G75*
G02*
X2031364Y23203293I-61872J-61872D01*
G01*
G37*
G36*
G01*
X2384917Y23556846D02*
X2261173Y23433102D01*
G75*
G02*
X2137429Y23433102I-61872J61872D01*
G01*
X1571743Y23998788D01*
G75*
G02*
X1571743Y24122532I61872J61872D01*
G01*
X1695487Y24246276D01*
G75*
G02*
X1819231Y24246276I61872J-61872D01*
G01*
X2384917Y23680590D01*
G75*
G02*
X2384917Y23556846I-61872J-61872D01*
G01*
G37*
G36*
G01*
X2738471Y23910400D02*
X2614727Y23786656D01*
G75*
G02*
X2490983Y23786656I-61872J61872D01*
G01*
X1925297Y24352342D01*
G75*
G02*
X1925297Y24476086I61872J61872D01*
G01*
X2049041Y24599830D01*
G75*
G02*
X2172785Y24599830I61872J-61872D01*
G01*
X2738471Y24034144D01*
G75*
G02*
X2738471Y23910400I-61872J-61872D01*
G01*
G37*
G36*
G01*
X3092024Y24263953D02*
X2968280Y24140209D01*
G75*
G02*
X2844536Y24140209I-61872J61872D01*
G01*
X2278850Y24705895D01*
G75*
G02*
X2278850Y24829639I61872J61872D01*
G01*
X2402594Y24953383D01*
G75*
G02*
X2526338Y24953383I61872J-61872D01*
G01*
X3092024Y24387697D01*
G75*
G02*
X3092024Y24263953I-61872J-61872D01*
G01*
G37*
G36*
G01*
X3445577Y24617506D02*
X3321833Y24493762D01*
G75*
G02*
X3198089Y24493762I-61872J61872D01*
G01*
X2632403Y25059448D01*
G75*
G02*
X2632403Y25183192I61872J61872D01*
G01*
X2756147Y25306936D01*
G75*
G02*
X2879891Y25306936I61872J-61872D01*
G01*
X3445577Y24741250D01*
G75*
G02*
X3445577Y24617506I-61872J-61872D01*
G01*
G37*
G36*
G01*
X3799131Y24971060D02*
X3675387Y24847316D01*
G75*
G02*
X3551643Y24847316I-61872J61872D01*
G01*
X2985957Y25413002D01*
G75*
G02*
X2985957Y25536746I61872J61872D01*
G01*
X3109701Y25660490D01*
G75*
G02*
X3233445Y25660490I61872J-61872D01*
G01*
X3799131Y25094804D01*
G75*
G02*
X3799131Y24971060I-61872J-61872D01*
G01*
G37*
G36*
G01*
X4152684Y25324613D02*
X4028940Y25200869D01*
G75*
G02*
X3905196Y25200869I-61872J61872D01*
G01*
X3339510Y25766555D01*
G75*
G02*
X3339510Y25890299I61872J61872D01*
G01*
X3463254Y26014043D01*
G75*
G02*
X3586998Y26014043I61872J-61872D01*
G01*
X4152684Y25448357D01*
G75*
G02*
X4152684Y25324613I-61872J-61872D01*
G01*
G37*
G36*
G01*
X4506238Y25678167D02*
X4382494Y25554423D01*
G75*
G02*
X4258750Y25554423I-61872J61872D01*
G01*
X3693064Y26120109D01*
G75*
G02*
X3693064Y26243853I61872J61872D01*
G01*
X3816808Y26367597D01*
G75*
G02*
X3940552Y26367597I61872J-61872D01*
G01*
X4506238Y25801911D01*
G75*
G02*
X4506238Y25678167I-61872J-61872D01*
G01*
G37*
G36*
G01*
X4859791Y26031720D02*
X4736047Y25907976D01*
G75*
G02*
X4612303Y25907976I-61872J61872D01*
G01*
X4046617Y26473662D01*
G75*
G02*
X4046617Y26597406I61872J61872D01*
G01*
X4170361Y26721150D01*
G75*
G02*
X4294105Y26721150I61872J-61872D01*
G01*
X4859791Y26155464D01*
G75*
G02*
X4859791Y26031720I-61872J-61872D01*
G01*
G37*
G36*
G01*
X5213344Y26385273D02*
X5089600Y26261529D01*
G75*
G02*
X4965856Y26261529I-61872J61872D01*
G01*
X4400170Y26827215D01*
G75*
G02*
X4400170Y26950959I61872J61872D01*
G01*
X4523914Y27074703D01*
G75*
G02*
X4647658Y27074703I61872J-61872D01*
G01*
X5213344Y26509017D01*
G75*
G02*
X5213344Y26385273I-61872J-61872D01*
G01*
G37*
G36*
G01*
X5566898Y26738827D02*
X5443154Y26615083D01*
G75*
G02*
X5319410Y26615083I-61872J61872D01*
G01*
X4753724Y27180769D01*
G75*
G02*
X4753724Y27304513I61872J61872D01*
G01*
X4877468Y27428257D01*
G75*
G02*
X5001212Y27428257I61872J-61872D01*
G01*
X5566898Y26862571D01*
G75*
G02*
X5566898Y26738827I-61872J-61872D01*
G01*
G37*
G36*
G01*
X5920451Y27092380D02*
X5796707Y26968636D01*
G75*
G02*
X5672963Y26968636I-61872J61872D01*
G01*
X5107277Y27534322D01*
G75*
G02*
X5107277Y27658066I61872J61872D01*
G01*
X5231021Y27781810D01*
G75*
G02*
X5354765Y27781810I61872J-61872D01*
G01*
X5920451Y27216124D01*
G75*
G02*
X5920451Y27092380I-61872J-61872D01*
G01*
G37*
G36*
G01*
X6892723Y27534322D02*
X6327037Y26968636D01*
G75*
G02*
X6203293Y26968636I-61872J61872D01*
G01*
X6079549Y27092380D01*
G75*
G02*
X6079549Y27216124I61872J61872D01*
G01*
X6645235Y27781810D01*
G75*
G02*
X6768979Y27781810I61872J-61872D01*
G01*
X6892723Y27658066D01*
G75*
G02*
X6892723Y27534322I-61872J-61872D01*
G01*
G37*
G36*
G01*
X7246276Y27180769D02*
X6680590Y26615083D01*
G75*
G02*
X6556846Y26615083I-61872J61872D01*
G01*
X6433102Y26738827D01*
G75*
G02*
X6433102Y26862571I61872J61872D01*
G01*
X6998788Y27428257D01*
G75*
G02*
X7122532Y27428257I61872J-61872D01*
G01*
X7246276Y27304513D01*
G75*
G02*
X7246276Y27180769I-61872J-61872D01*
G01*
G37*
G36*
G01*
X7599830Y26827215D02*
X7034144Y26261529D01*
G75*
G02*
X6910400Y26261529I-61872J61872D01*
G01*
X6786656Y26385273D01*
G75*
G02*
X6786656Y26509017I61872J61872D01*
G01*
X7352342Y27074703D01*
G75*
G02*
X7476086Y27074703I61872J-61872D01*
G01*
X7599830Y26950959D01*
G75*
G02*
X7599830Y26827215I-61872J-61872D01*
G01*
G37*
G36*
G01*
X7953383Y26473662D02*
X7387697Y25907976D01*
G75*
G02*
X7263953Y25907976I-61872J61872D01*
G01*
X7140209Y26031720D01*
G75*
G02*
X7140209Y26155464I61872J61872D01*
G01*
X7705895Y26721150D01*
G75*
G02*
X7829639Y26721150I61872J-61872D01*
G01*
X7953383Y26597406D01*
G75*
G02*
X7953383Y26473662I-61872J-61872D01*
G01*
G37*
G36*
G01*
X8306936Y26120109D02*
X7741250Y25554423D01*
G75*
G02*
X7617506Y25554423I-61872J61872D01*
G01*
X7493762Y25678167D01*
G75*
G02*
X7493762Y25801911I61872J61872D01*
G01*
X8059448Y26367597D01*
G75*
G02*
X8183192Y26367597I61872J-61872D01*
G01*
X8306936Y26243853D01*
G75*
G02*
X8306936Y26120109I-61872J-61872D01*
G01*
G37*
G36*
G01*
X8660490Y25766555D02*
X8094804Y25200869D01*
G75*
G02*
X7971060Y25200869I-61872J61872D01*
G01*
X7847316Y25324613D01*
G75*
G02*
X7847316Y25448357I61872J61872D01*
G01*
X8413002Y26014043D01*
G75*
G02*
X8536746Y26014043I61872J-61872D01*
G01*
X8660490Y25890299D01*
G75*
G02*
X8660490Y25766555I-61872J-61872D01*
G01*
G37*
G36*
G01*
X9014043Y25413002D02*
X8448357Y24847316D01*
G75*
G02*
X8324613Y24847316I-61872J61872D01*
G01*
X8200869Y24971060D01*
G75*
G02*
X8200869Y25094804I61872J61872D01*
G01*
X8766555Y25660490D01*
G75*
G02*
X8890299Y25660490I61872J-61872D01*
G01*
X9014043Y25536746D01*
G75*
G02*
X9014043Y25413002I-61872J-61872D01*
G01*
G37*
G36*
G01*
X9367597Y25059448D02*
X8801911Y24493762D01*
G75*
G02*
X8678167Y24493762I-61872J61872D01*
G01*
X8554423Y24617506D01*
G75*
G02*
X8554423Y24741250I61872J61872D01*
G01*
X9120109Y25306936D01*
G75*
G02*
X9243853Y25306936I61872J-61872D01*
G01*
X9367597Y25183192D01*
G75*
G02*
X9367597Y25059448I-61872J-61872D01*
G01*
G37*
G36*
G01*
X9721150Y24705895D02*
X9155464Y24140209D01*
G75*
G02*
X9031720Y24140209I-61872J61872D01*
G01*
X8907976Y24263953D01*
G75*
G02*
X8907976Y24387697I61872J61872D01*
G01*
X9473662Y24953383D01*
G75*
G02*
X9597406Y24953383I61872J-61872D01*
G01*
X9721150Y24829639D01*
G75*
G02*
X9721150Y24705895I-61872J-61872D01*
G01*
G37*
G36*
G01*
X10074703Y24352342D02*
X9509017Y23786656D01*
G75*
G02*
X9385273Y23786656I-61872J61872D01*
G01*
X9261529Y23910400D01*
G75*
G02*
X9261529Y24034144I61872J61872D01*
G01*
X9827215Y24599830D01*
G75*
G02*
X9950959Y24599830I61872J-61872D01*
G01*
X10074703Y24476086D01*
G75*
G02*
X10074703Y24352342I-61872J-61872D01*
G01*
G37*
G36*
G01*
X10428257Y23998788D02*
X9862571Y23433102D01*
G75*
G02*
X9738827Y23433102I-61872J61872D01*
G01*
X9615083Y23556846D01*
G75*
G02*
X9615083Y23680590I61872J61872D01*
G01*
X10180769Y24246276D01*
G75*
G02*
X10304513Y24246276I61872J-61872D01*
G01*
X10428257Y24122532D01*
G75*
G02*
X10428257Y23998788I-61872J-61872D01*
G01*
G37*
G36*
G01*
X10781810Y23645235D02*
X10216124Y23079549D01*
G75*
G02*
X10092380Y23079549I-61872J61872D01*
G01*
X9968636Y23203293D01*
G75*
G02*
X9968636Y23327037I61872J61872D01*
G01*
X10534322Y23892723D01*
G75*
G02*
X10658066Y23892723I61872J-61872D01*
G01*
X10781810Y23768979D01*
G75*
G02*
X10781810Y23645235I-61872J-61872D01*
G01*
G37*
G36*
G01*
X10781810Y22231021D02*
X10658066Y22107277D01*
G75*
G02*
X10534322Y22107277I-61872J61872D01*
G01*
X9968636Y22672963D01*
G75*
G02*
X9968636Y22796707I61872J61872D01*
G01*
X10092380Y22920451D01*
G75*
G02*
X10216124Y22920451I61872J-61872D01*
G01*
X10781810Y22354765D01*
G75*
G02*
X10781810Y22231021I-61872J-61872D01*
G01*
G37*
G36*
G01*
X10428257Y21877468D02*
X10304513Y21753724D01*
G75*
G02*
X10180769Y21753724I-61872J61872D01*
G01*
X9615083Y22319410D01*
G75*
G02*
X9615083Y22443154I61872J61872D01*
G01*
X9738827Y22566898D01*
G75*
G02*
X9862571Y22566898I61872J-61872D01*
G01*
X10428257Y22001212D01*
G75*
G02*
X10428257Y21877468I-61872J-61872D01*
G01*
G37*
G36*
G01*
X10074703Y21523914D02*
X9950959Y21400170D01*
G75*
G02*
X9827215Y21400170I-61872J61872D01*
G01*
X9261529Y21965856D01*
G75*
G02*
X9261529Y22089600I61872J61872D01*
G01*
X9385273Y22213344D01*
G75*
G02*
X9509017Y22213344I61872J-61872D01*
G01*
X10074703Y21647658D01*
G75*
G02*
X10074703Y21523914I-61872J-61872D01*
G01*
G37*
G36*
G01*
X9721150Y21170361D02*
X9597406Y21046617D01*
G75*
G02*
X9473662Y21046617I-61872J61872D01*
G01*
X8907976Y21612303D01*
G75*
G02*
X8907976Y21736047I61872J61872D01*
G01*
X9031720Y21859791D01*
G75*
G02*
X9155464Y21859791I61872J-61872D01*
G01*
X9721150Y21294105D01*
G75*
G02*
X9721150Y21170361I-61872J-61872D01*
G01*
G37*
G36*
G01*
X9367597Y20816808D02*
X9243853Y20693064D01*
G75*
G02*
X9120109Y20693064I-61872J61872D01*
G01*
X8554423Y21258750D01*
G75*
G02*
X8554423Y21382494I61872J61872D01*
G01*
X8678167Y21506238D01*
G75*
G02*
X8801911Y21506238I61872J-61872D01*
G01*
X9367597Y20940552D01*
G75*
G02*
X9367597Y20816808I-61872J-61872D01*
G01*
G37*
G36*
G01*
X9014043Y20463254D02*
X8890299Y20339510D01*
G75*
G02*
X8766555Y20339510I-61872J61872D01*
G01*
X8200869Y20905196D01*
G75*
G02*
X8200869Y21028940I61872J61872D01*
G01*
X8324613Y21152684D01*
G75*
G02*
X8448357Y21152684I61872J-61872D01*
G01*
X9014043Y20586998D01*
G75*
G02*
X9014043Y20463254I-61872J-61872D01*
G01*
G37*
G36*
G01*
X8660490Y20109701D02*
X8536746Y19985957D01*
G75*
G02*
X8413002Y19985957I-61872J61872D01*
G01*
X7847316Y20551643D01*
G75*
G02*
X7847316Y20675387I61872J61872D01*
G01*
X7971060Y20799131D01*
G75*
G02*
X8094804Y20799131I61872J-61872D01*
G01*
X8660490Y20233445D01*
G75*
G02*
X8660490Y20109701I-61872J-61872D01*
G01*
G37*
G36*
G01*
X8306936Y19756147D02*
X8183192Y19632403D01*
G75*
G02*
X8059448Y19632403I-61872J61872D01*
G01*
X7493762Y20198089D01*
G75*
G02*
X7493762Y20321833I61872J61872D01*
G01*
X7617506Y20445577D01*
G75*
G02*
X7741250Y20445577I61872J-61872D01*
G01*
X8306936Y19879891D01*
G75*
G02*
X8306936Y19756147I-61872J-61872D01*
G01*
G37*
G36*
G01*
X7953383Y19402594D02*
X7829639Y19278850D01*
G75*
G02*
X7705895Y19278850I-61872J61872D01*
G01*
X7140209Y19844536D01*
G75*
G02*
X7140209Y19968280I61872J61872D01*
G01*
X7263953Y20092024D01*
G75*
G02*
X7387697Y20092024I61872J-61872D01*
G01*
X7953383Y19526338D01*
G75*
G02*
X7953383Y19402594I-61872J-61872D01*
G01*
G37*
G36*
G01*
X7599830Y19049041D02*
X7476086Y18925297D01*
G75*
G02*
X7352342Y18925297I-61872J61872D01*
G01*
X6786656Y19490983D01*
G75*
G02*
X6786656Y19614727I61872J61872D01*
G01*
X6910400Y19738471D01*
G75*
G02*
X7034144Y19738471I61872J-61872D01*
G01*
X7599830Y19172785D01*
G75*
G02*
X7599830Y19049041I-61872J-61872D01*
G01*
G37*
G36*
G01*
X7246276Y18695487D02*
X7122532Y18571743D01*
G75*
G02*
X6998788Y18571743I-61872J61872D01*
G01*
X6433102Y19137429D01*
G75*
G02*
X6433102Y19261173I61872J61872D01*
G01*
X6556846Y19384917D01*
G75*
G02*
X6680590Y19384917I61872J-61872D01*
G01*
X7246276Y18819231D01*
G75*
G02*
X7246276Y18695487I-61872J-61872D01*
G01*
G37*
G36*
G01*
X6892723Y18341934D02*
X6768979Y18218190D01*
G75*
G02*
X6645235Y18218190I-61872J61872D01*
G01*
X6079549Y18783876D01*
G75*
G02*
X6079549Y18907620I61872J61872D01*
G01*
X6203293Y19031364D01*
G75*
G02*
X6327037Y19031364I61872J-61872D01*
G01*
X6892723Y18465678D01*
G75*
G02*
X6892723Y18341934I-61872J-61872D01*
G01*
G37*
%TD*%
%TO.C,U3*%
G36*
G01*
X21875000Y16020000D02*
X21225000Y16020000D01*
G75*
G02*
X21175000Y16070000I0J50000D01*
G01*
X21175000Y17130000D01*
G75*
G02*
X21225000Y17180000I50000J0D01*
G01*
X21875000Y17180000D01*
G75*
G02*
X21925000Y17130000I0J-50000D01*
G01*
X21925000Y16070000D01*
G75*
G02*
X21875000Y16020000I-50000J0D01*
G01*
G37*
G36*
G01*
X23775000Y16020000D02*
X23125000Y16020000D01*
G75*
G02*
X23075000Y16070000I0J50000D01*
G01*
X23075000Y17130000D01*
G75*
G02*
X23125000Y17180000I50000J0D01*
G01*
X23775000Y17180000D01*
G75*
G02*
X23825000Y17130000I0J-50000D01*
G01*
X23825000Y16070000D01*
G75*
G02*
X23775000Y16020000I-50000J0D01*
G01*
G37*
G36*
G01*
X23775000Y13820000D02*
X23125000Y13820000D01*
G75*
G02*
X23075000Y13870000I0J50000D01*
G01*
X23075000Y14930000D01*
G75*
G02*
X23125000Y14980000I50000J0D01*
G01*
X23775000Y14980000D01*
G75*
G02*
X23825000Y14930000I0J-50000D01*
G01*
X23825000Y13870000D01*
G75*
G02*
X23775000Y13820000I-50000J0D01*
G01*
G37*
G36*
G01*
X22825000Y13820000D02*
X22175000Y13820000D01*
G75*
G02*
X22125000Y13870000I0J50000D01*
G01*
X22125000Y14930000D01*
G75*
G02*
X22175000Y14980000I50000J0D01*
G01*
X22825000Y14980000D01*
G75*
G02*
X22875000Y14930000I0J-50000D01*
G01*
X22875000Y13870000D01*
G75*
G02*
X22825000Y13820000I-50000J0D01*
G01*
G37*
G36*
G01*
X21875000Y13820000D02*
X21225000Y13820000D01*
G75*
G02*
X21175000Y13870000I0J50000D01*
G01*
X21175000Y14930000D01*
G75*
G02*
X21225000Y14980000I50000J0D01*
G01*
X21875000Y14980000D01*
G75*
G02*
X21925000Y14930000I0J-50000D01*
G01*
X21925000Y13870000D01*
G75*
G02*
X21875000Y13820000I-50000J0D01*
G01*
G37*
%TD*%
%TO.C,R12*%
G36*
G01*
X10207842Y20360857D02*
X9910857Y20657842D01*
G75*
G02*
X9910857Y20884116I113137J113137D01*
G01*
X10137132Y21110391D01*
G75*
G02*
X10363406Y21110391I113137J-113137D01*
G01*
X10660391Y20813406D01*
G75*
G02*
X10660391Y20587132I-113137J-113137D01*
G01*
X10434116Y20360857D01*
G75*
G02*
X10207842Y20360857I-113137J113137D01*
G01*
G37*
G36*
G01*
X9486594Y19639609D02*
X9189609Y19936594D01*
G75*
G02*
X9189609Y20162868I113137J113137D01*
G01*
X9415884Y20389143D01*
G75*
G02*
X9642158Y20389143I113137J-113137D01*
G01*
X9939143Y20092158D01*
G75*
G02*
X9939143Y19865884I-113137J-113137D01*
G01*
X9712868Y19639609D01*
G75*
G02*
X9486594Y19639609I-113137J113137D01*
G01*
G37*
%TD*%
%TO.C,R10*%
G36*
G01*
X8292158Y19039143D02*
X8589143Y18742158D01*
G75*
G02*
X8589143Y18515884I-113137J-113137D01*
G01*
X8362868Y18289609D01*
G75*
G02*
X8136594Y18289609I-113137J113137D01*
G01*
X7839609Y18586594D01*
G75*
G02*
X7839609Y18812868I113137J113137D01*
G01*
X8065884Y19039143D01*
G75*
G02*
X8292158Y19039143I113137J-113137D01*
G01*
G37*
G36*
G01*
X9013406Y19760391D02*
X9310391Y19463406D01*
G75*
G02*
X9310391Y19237132I-113137J-113137D01*
G01*
X9084116Y19010857D01*
G75*
G02*
X8857842Y19010857I-113137J113137D01*
G01*
X8560857Y19307842D01*
G75*
G02*
X8560857Y19534116I113137J113137D01*
G01*
X8787132Y19760391D01*
G75*
G02*
X9013406Y19760391I113137J-113137D01*
G01*
G37*
%TD*%
%TO.C,R8*%
G36*
G01*
X16482842Y20185857D02*
X16185857Y20482842D01*
G75*
G02*
X16185857Y20709116I113137J113137D01*
G01*
X16412132Y20935391D01*
G75*
G02*
X16638406Y20935391I113137J-113137D01*
G01*
X16935391Y20638406D01*
G75*
G02*
X16935391Y20412132I-113137J-113137D01*
G01*
X16709116Y20185857D01*
G75*
G02*
X16482842Y20185857I-113137J113137D01*
G01*
G37*
G36*
G01*
X15761594Y19464609D02*
X15464609Y19761594D01*
G75*
G02*
X15464609Y19987868I113137J113137D01*
G01*
X15690884Y20214143D01*
G75*
G02*
X15917158Y20214143I113137J-113137D01*
G01*
X16214143Y19917158D01*
G75*
G02*
X16214143Y19690884I-113137J-113137D01*
G01*
X15987868Y19464609D01*
G75*
G02*
X15761594Y19464609I-113137J113137D01*
G01*
G37*
%TD*%
%TO.C,R7*%
G36*
G01*
X17182842Y19485857D02*
X16885857Y19782842D01*
G75*
G02*
X16885857Y20009116I113137J113137D01*
G01*
X17112132Y20235391D01*
G75*
G02*
X17338406Y20235391I113137J-113137D01*
G01*
X17635391Y19938406D01*
G75*
G02*
X17635391Y19712132I-113137J-113137D01*
G01*
X17409116Y19485857D01*
G75*
G02*
X17182842Y19485857I-113137J113137D01*
G01*
G37*
G36*
G01*
X16461594Y18764609D02*
X16164609Y19061594D01*
G75*
G02*
X16164609Y19287868I113137J113137D01*
G01*
X16390884Y19514143D01*
G75*
G02*
X16617158Y19514143I113137J-113137D01*
G01*
X16914143Y19217158D01*
G75*
G02*
X16914143Y18990884I-113137J-113137D01*
G01*
X16687868Y18764609D01*
G75*
G02*
X16461594Y18764609I-113137J113137D01*
G01*
G37*
%TD*%
%TO.C,R4*%
G36*
G01*
X16815000Y16185000D02*
X17235000Y16185000D01*
G75*
G02*
X17395000Y16025000I0J-160000D01*
G01*
X17395000Y15705000D01*
G75*
G02*
X17235000Y15545000I-160000J0D01*
G01*
X16815000Y15545000D01*
G75*
G02*
X16655000Y15705000I0J160000D01*
G01*
X16655000Y16025000D01*
G75*
G02*
X16815000Y16185000I160000J0D01*
G01*
G37*
G36*
G01*
X16815000Y17205000D02*
X17235000Y17205000D01*
G75*
G02*
X17395000Y17045000I0J-160000D01*
G01*
X17395000Y16725000D01*
G75*
G02*
X17235000Y16565000I-160000J0D01*
G01*
X16815000Y16565000D01*
G75*
G02*
X16655000Y16725000I0J160000D01*
G01*
X16655000Y17045000D01*
G75*
G02*
X16815000Y17205000I160000J0D01*
G01*
G37*
%TD*%
%TO.C,R3*%
G36*
G01*
X12765000Y16185000D02*
X13185000Y16185000D01*
G75*
G02*
X13345000Y16025000I0J-160000D01*
G01*
X13345000Y15705000D01*
G75*
G02*
X13185000Y15545000I-160000J0D01*
G01*
X12765000Y15545000D01*
G75*
G02*
X12605000Y15705000I0J160000D01*
G01*
X12605000Y16025000D01*
G75*
G02*
X12765000Y16185000I160000J0D01*
G01*
G37*
G36*
G01*
X12765000Y17205000D02*
X13185000Y17205000D01*
G75*
G02*
X13345000Y17045000I0J-160000D01*
G01*
X13345000Y16725000D01*
G75*
G02*
X13185000Y16565000I-160000J0D01*
G01*
X12765000Y16565000D01*
G75*
G02*
X12605000Y16725000I0J160000D01*
G01*
X12605000Y17045000D01*
G75*
G02*
X12765000Y17205000I160000J0D01*
G01*
G37*
%TD*%
%TO.C,J1*%
G36*
G01*
X18775000Y8475000D02*
X18775000Y9825000D01*
G75*
G02*
X19150000Y10200000I375000J0D01*
G01*
X19900000Y10200000D01*
G75*
G02*
X20275000Y9825000I0J-375000D01*
G01*
X20275000Y8475000D01*
G75*
G02*
X19900000Y8100000I-375000J0D01*
G01*
X19150000Y8100000D01*
G75*
G02*
X18775000Y8475000I0J375000D01*
G01*
G37*
D15*
X17900000Y12600000D03*
G36*
G01*
X9725000Y8475000D02*
X9725000Y9825000D01*
G75*
G02*
X10100000Y10200000I375000J0D01*
G01*
X10850000Y10200000D01*
G75*
G02*
X11225000Y9825000I0J-375000D01*
G01*
X11225000Y8475000D01*
G75*
G02*
X10850000Y8100000I-375000J0D01*
G01*
X10100000Y8100000D01*
G75*
G02*
X9725000Y8475000I0J375000D01*
G01*
G37*
X12100000Y12600000D03*
G36*
G01*
X9725000Y12405000D02*
X9725000Y13855000D01*
G75*
G02*
X10100000Y14230000I375000J0D01*
G01*
X10850000Y14230000D01*
G75*
G02*
X11225000Y13855000I0J-375000D01*
G01*
X11225000Y12405000D01*
G75*
G02*
X10850000Y12030000I-375000J0D01*
G01*
X10100000Y12030000D01*
G75*
G02*
X9725000Y12405000I0J375000D01*
G01*
G37*
G36*
G01*
X18775000Y12405000D02*
X18775000Y13855000D01*
G75*
G02*
X19150000Y14230000I375000J0D01*
G01*
X19900000Y14230000D01*
G75*
G02*
X20275000Y13855000I0J-375000D01*
G01*
X20275000Y12405000D01*
G75*
G02*
X19900000Y12030000I-375000J0D01*
G01*
X19150000Y12030000D01*
G75*
G02*
X18775000Y12405000I0J375000D01*
G01*
G37*
G36*
G01*
X14550000Y13320000D02*
X14550000Y14770000D01*
G75*
G02*
X14600000Y14820000I50000J0D01*
G01*
X14900000Y14820000D01*
G75*
G02*
X14950000Y14770000I0J-50000D01*
G01*
X14950000Y13320000D01*
G75*
G02*
X14900000Y13270000I-50000J0D01*
G01*
X14600000Y13270000D01*
G75*
G02*
X14550000Y13320000I0J50000D01*
G01*
G37*
G36*
G01*
X16550000Y13320000D02*
X16550000Y14770000D01*
G75*
G02*
X16600000Y14820000I50000J0D01*
G01*
X16900000Y14820000D01*
G75*
G02*
X16950000Y14770000I0J-50000D01*
G01*
X16950000Y13320000D01*
G75*
G02*
X16900000Y13270000I-50000J0D01*
G01*
X16600000Y13270000D01*
G75*
G02*
X16550000Y13320000I0J50000D01*
G01*
G37*
G36*
G01*
X16050000Y13320000D02*
X16050000Y14770000D01*
G75*
G02*
X16100000Y14820000I50000J0D01*
G01*
X16400000Y14820000D01*
G75*
G02*
X16450000Y14770000I0J-50000D01*
G01*
X16450000Y13320000D01*
G75*
G02*
X16400000Y13270000I-50000J0D01*
G01*
X16100000Y13270000D01*
G75*
G02*
X16050000Y13320000I0J50000D01*
G01*
G37*
G36*
G01*
X15550000Y13320000D02*
X15550000Y14770000D01*
G75*
G02*
X15600000Y14820000I50000J0D01*
G01*
X15900000Y14820000D01*
G75*
G02*
X15950000Y14770000I0J-50000D01*
G01*
X15950000Y13320000D01*
G75*
G02*
X15900000Y13270000I-50000J0D01*
G01*
X15600000Y13270000D01*
G75*
G02*
X15550000Y13320000I0J50000D01*
G01*
G37*
G36*
G01*
X15050000Y13320000D02*
X15050000Y14770000D01*
G75*
G02*
X15100000Y14820000I50000J0D01*
G01*
X15400000Y14820000D01*
G75*
G02*
X15450000Y14770000I0J-50000D01*
G01*
X15450000Y13320000D01*
G75*
G02*
X15400000Y13270000I-50000J0D01*
G01*
X15100000Y13270000D01*
G75*
G02*
X15050000Y13320000I0J50000D01*
G01*
G37*
G36*
G01*
X14050000Y13320000D02*
X14050000Y14770000D01*
G75*
G02*
X14100000Y14820000I50000J0D01*
G01*
X14400000Y14820000D01*
G75*
G02*
X14450000Y14770000I0J-50000D01*
G01*
X14450000Y13320000D01*
G75*
G02*
X14400000Y13270000I-50000J0D01*
G01*
X14100000Y13270000D01*
G75*
G02*
X14050000Y13320000I0J50000D01*
G01*
G37*
G36*
G01*
X13550000Y13320000D02*
X13550000Y14770000D01*
G75*
G02*
X13600000Y14820000I50000J0D01*
G01*
X13900000Y14820000D01*
G75*
G02*
X13950000Y14770000I0J-50000D01*
G01*
X13950000Y13320000D01*
G75*
G02*
X13900000Y13270000I-50000J0D01*
G01*
X13600000Y13270000D01*
G75*
G02*
X13550000Y13320000I0J50000D01*
G01*
G37*
G36*
G01*
X13050000Y13320000D02*
X13050000Y14770000D01*
G75*
G02*
X13100000Y14820000I50000J0D01*
G01*
X13400000Y14820000D01*
G75*
G02*
X13450000Y14770000I0J-50000D01*
G01*
X13450000Y13320000D01*
G75*
G02*
X13400000Y13270000I-50000J0D01*
G01*
X13100000Y13270000D01*
G75*
G02*
X13050000Y13320000I0J50000D01*
G01*
G37*
G36*
G01*
X17850000Y13320000D02*
X17850000Y14770000D01*
G75*
G02*
X17900000Y14820000I50000J0D01*
G01*
X18500000Y14820000D01*
G75*
G02*
X18550000Y14770000I0J-50000D01*
G01*
X18550000Y13320000D01*
G75*
G02*
X18500000Y13270000I-50000J0D01*
G01*
X17900000Y13270000D01*
G75*
G02*
X17850000Y13320000I0J50000D01*
G01*
G37*
G36*
G01*
X17050000Y13320000D02*
X17050000Y14770000D01*
G75*
G02*
X17100000Y14820000I50000J0D01*
G01*
X17700000Y14820000D01*
G75*
G02*
X17750000Y14770000I0J-50000D01*
G01*
X17750000Y13320000D01*
G75*
G02*
X17700000Y13270000I-50000J0D01*
G01*
X17100000Y13270000D01*
G75*
G02*
X17050000Y13320000I0J50000D01*
G01*
G37*
G36*
G01*
X12250000Y13320000D02*
X12250000Y14770000D01*
G75*
G02*
X12300000Y14820000I50000J0D01*
G01*
X12900000Y14820000D01*
G75*
G02*
X12950000Y14770000I0J-50000D01*
G01*
X12950000Y13320000D01*
G75*
G02*
X12900000Y13270000I-50000J0D01*
G01*
X12300000Y13270000D01*
G75*
G02*
X12250000Y13320000I0J50000D01*
G01*
G37*
G36*
G01*
X11450000Y13320000D02*
X11450000Y14770000D01*
G75*
G02*
X11500000Y14820000I50000J0D01*
G01*
X12100000Y14820000D01*
G75*
G02*
X12150000Y14770000I0J-50000D01*
G01*
X12150000Y13320000D01*
G75*
G02*
X12100000Y13270000I-50000J0D01*
G01*
X11500000Y13270000D01*
G75*
G02*
X11450000Y13320000I0J50000D01*
G01*
G37*
G36*
G01*
X11450000Y13320000D02*
X11450000Y14770000D01*
G75*
G02*
X11500000Y14820000I50000J0D01*
G01*
X12100000Y14820000D01*
G75*
G02*
X12150000Y14770000I0J-50000D01*
G01*
X12150000Y13320000D01*
G75*
G02*
X12100000Y13270000I-50000J0D01*
G01*
X11500000Y13270000D01*
G75*
G02*
X11450000Y13320000I0J50000D01*
G01*
G37*
G36*
G01*
X12250000Y13320000D02*
X12250000Y14770000D01*
G75*
G02*
X12300000Y14820000I50000J0D01*
G01*
X12900000Y14820000D01*
G75*
G02*
X12950000Y14770000I0J-50000D01*
G01*
X12950000Y13320000D01*
G75*
G02*
X12900000Y13270000I-50000J0D01*
G01*
X12300000Y13270000D01*
G75*
G02*
X12250000Y13320000I0J50000D01*
G01*
G37*
G36*
G01*
X17050000Y13320000D02*
X17050000Y14770000D01*
G75*
G02*
X17100000Y14820000I50000J0D01*
G01*
X17700000Y14820000D01*
G75*
G02*
X17750000Y14770000I0J-50000D01*
G01*
X17750000Y13320000D01*
G75*
G02*
X17700000Y13270000I-50000J0D01*
G01*
X17100000Y13270000D01*
G75*
G02*
X17050000Y13320000I0J50000D01*
G01*
G37*
G36*
G01*
X17850000Y13320000D02*
X17850000Y14770000D01*
G75*
G02*
X17900000Y14820000I50000J0D01*
G01*
X18500000Y14820000D01*
G75*
G02*
X18550000Y14770000I0J-50000D01*
G01*
X18550000Y13320000D01*
G75*
G02*
X18500000Y13270000I-50000J0D01*
G01*
X17900000Y13270000D01*
G75*
G02*
X17850000Y13320000I0J50000D01*
G01*
G37*
%TD*%
%TO.C,D3*%
G36*
G01*
X17950000Y16250000D02*
X18650000Y16250000D01*
G75*
G02*
X18700000Y16200000I0J-50000D01*
G01*
X18700000Y15600000D01*
G75*
G02*
X18650000Y15550000I-50000J0D01*
G01*
X17950000Y15550000D01*
G75*
G02*
X17900000Y15600000I0J50000D01*
G01*
X17900000Y16200000D01*
G75*
G02*
X17950000Y16250000I50000J0D01*
G01*
G37*
G36*
G01*
X17950000Y17650000D02*
X18650000Y17650000D01*
G75*
G02*
X18700000Y17600000I0J-50000D01*
G01*
X18700000Y17000000D01*
G75*
G02*
X18650000Y16950000I-50000J0D01*
G01*
X17950000Y16950000D01*
G75*
G02*
X17900000Y17000000I0J50000D01*
G01*
X17900000Y17600000D01*
G75*
G02*
X17950000Y17650000I50000J0D01*
G01*
G37*
%TD*%
%TO.C,D2*%
G36*
G01*
X13900000Y16250000D02*
X14600000Y16250000D01*
G75*
G02*
X14650000Y16200000I0J-50000D01*
G01*
X14650000Y15600000D01*
G75*
G02*
X14600000Y15550000I-50000J0D01*
G01*
X13900000Y15550000D01*
G75*
G02*
X13850000Y15600000I0J50000D01*
G01*
X13850000Y16200000D01*
G75*
G02*
X13900000Y16250000I50000J0D01*
G01*
G37*
G36*
G01*
X13900000Y17650000D02*
X14600000Y17650000D01*
G75*
G02*
X14650000Y17600000I0J-50000D01*
G01*
X14650000Y17000000D01*
G75*
G02*
X14600000Y16950000I-50000J0D01*
G01*
X13900000Y16950000D01*
G75*
G02*
X13850000Y17000000I0J50000D01*
G01*
X13850000Y17600000D01*
G75*
G02*
X13900000Y17650000I50000J0D01*
G01*
G37*
%TD*%
%TO.C,D1*%
G36*
G01*
X15400000Y16250000D02*
X16100000Y16250000D01*
G75*
G02*
X16150000Y16200000I0J-50000D01*
G01*
X16150000Y15600000D01*
G75*
G02*
X16100000Y15550000I-50000J0D01*
G01*
X15400000Y15550000D01*
G75*
G02*
X15350000Y15600000I0J50000D01*
G01*
X15350000Y16200000D01*
G75*
G02*
X15400000Y16250000I50000J0D01*
G01*
G37*
G36*
G01*
X15400000Y17650000D02*
X16100000Y17650000D01*
G75*
G02*
X16150000Y17600000I0J-50000D01*
G01*
X16150000Y17000000D01*
G75*
G02*
X16100000Y16950000I-50000J0D01*
G01*
X15400000Y16950000D01*
G75*
G02*
X15350000Y17000000I0J50000D01*
G01*
X15350000Y17600000D01*
G75*
G02*
X15400000Y17650000I50000J0D01*
G01*
G37*
%TD*%
%TO.C,C13*%
G36*
G01*
X9006049Y18381820D02*
X9281820Y18106049D01*
G75*
G02*
X9281820Y17872703I-116673J-116673D01*
G01*
X9048475Y17639358D01*
G75*
G02*
X8815129Y17639358I-116673J116673D01*
G01*
X8539358Y17915129D01*
G75*
G02*
X8539358Y18148475I116673J116673D01*
G01*
X8772703Y18381820D01*
G75*
G02*
X9006049Y18381820I116673J-116673D01*
G01*
G37*
G36*
G01*
X9684871Y19060642D02*
X9960642Y18784871D01*
G75*
G02*
X9960642Y18551525I-116673J-116673D01*
G01*
X9727297Y18318180D01*
G75*
G02*
X9493951Y18318180I-116673J116673D01*
G01*
X9218180Y18593951D01*
G75*
G02*
X9218180Y18827297I116673J116673D01*
G01*
X9451525Y19060642D01*
G75*
G02*
X9684871Y19060642I116673J-116673D01*
G01*
G37*
%TD*%
%TO.C,C11*%
G36*
G01*
X10356049Y19731820D02*
X10631820Y19456049D01*
G75*
G02*
X10631820Y19222703I-116673J-116673D01*
G01*
X10398475Y18989358D01*
G75*
G02*
X10165129Y18989358I-116673J116673D01*
G01*
X9889358Y19265129D01*
G75*
G02*
X9889358Y19498475I116673J116673D01*
G01*
X10122703Y19731820D01*
G75*
G02*
X10356049Y19731820I116673J-116673D01*
G01*
G37*
G36*
G01*
X11034871Y20410642D02*
X11310642Y20134871D01*
G75*
G02*
X11310642Y19901525I-116673J-116673D01*
G01*
X11077297Y19668180D01*
G75*
G02*
X10843951Y19668180I-116673J116673D01*
G01*
X10568180Y19943951D01*
G75*
G02*
X10568180Y20177297I116673J116673D01*
G01*
X10801525Y20410642D01*
G75*
G02*
X11034871Y20410642I116673J-116673D01*
G01*
G37*
%TD*%
%TO.C,C8*%
G36*
G01*
X23450000Y32205000D02*
X23450000Y32595000D01*
G75*
G02*
X23615000Y32760000I165000J0D01*
G01*
X23945000Y32760000D01*
G75*
G02*
X24110000Y32595000I0J-165000D01*
G01*
X24110000Y32205000D01*
G75*
G02*
X23945000Y32040000I-165000J0D01*
G01*
X23615000Y32040000D01*
G75*
G02*
X23450000Y32205000I0J165000D01*
G01*
G37*
G36*
G01*
X22490000Y32205000D02*
X22490000Y32595000D01*
G75*
G02*
X22655000Y32760000I165000J0D01*
G01*
X22985000Y32760000D01*
G75*
G02*
X23150000Y32595000I0J-165000D01*
G01*
X23150000Y32205000D01*
G75*
G02*
X22985000Y32040000I-165000J0D01*
G01*
X22655000Y32040000D01*
G75*
G02*
X22490000Y32205000I0J165000D01*
G01*
G37*
%TD*%
%TO.C,C4*%
G36*
G01*
X23418951Y18368180D02*
X23143180Y18643951D01*
G75*
G02*
X23143180Y18877297I116673J116673D01*
G01*
X23376525Y19110642D01*
G75*
G02*
X23609871Y19110642I116673J-116673D01*
G01*
X23885642Y18834871D01*
G75*
G02*
X23885642Y18601525I-116673J-116673D01*
G01*
X23652297Y18368180D01*
G75*
G02*
X23418951Y18368180I-116673J116673D01*
G01*
G37*
G36*
G01*
X22740129Y17689358D02*
X22464358Y17965129D01*
G75*
G02*
X22464358Y18198475I116673J116673D01*
G01*
X22697703Y18431820D01*
G75*
G02*
X22931049Y18431820I116673J-116673D01*
G01*
X23206820Y18156049D01*
G75*
G02*
X23206820Y17922703I-116673J-116673D01*
G01*
X22973475Y17689358D01*
G75*
G02*
X22740129Y17689358I-116673J116673D01*
G01*
G37*
%TD*%
%TO.C,C3*%
G36*
G01*
X17400000Y31905000D02*
X17400000Y32295000D01*
G75*
G02*
X17565000Y32460000I165000J0D01*
G01*
X17895000Y32460000D01*
G75*
G02*
X18060000Y32295000I0J-165000D01*
G01*
X18060000Y31905000D01*
G75*
G02*
X17895000Y31740000I-165000J0D01*
G01*
X17565000Y31740000D01*
G75*
G02*
X17400000Y31905000I0J165000D01*
G01*
G37*
G36*
G01*
X16440000Y31905000D02*
X16440000Y32295000D01*
G75*
G02*
X16605000Y32460000I165000J0D01*
G01*
X16935000Y32460000D01*
G75*
G02*
X17100000Y32295000I0J-165000D01*
G01*
X17100000Y31905000D01*
G75*
G02*
X16935000Y31740000I-165000J0D01*
G01*
X16605000Y31740000D01*
G75*
G02*
X16440000Y31905000I0J165000D01*
G01*
G37*
%TD*%
M02*
