%TF.GenerationSoftware,KiCad,Pcbnew,(5.1.12-1-10_14)*%
%TF.CreationDate,2022-03-03T15:00:23+08:00*%
%TF.ProjectId,DeerMon,44656572-4d6f-46e2-9e6b-696361645f70,rev?*%
%TF.SameCoordinates,Original*%
%TF.FileFunction,Soldermask,Bot*%
%TF.FilePolarity,Negative*%
%FSLAX46Y46*%
G04 Gerber Fmt 4.6, Leading zero omitted, Abs format (unit mm)*
G04 Created by KiCad (PCBNEW (5.1.12-1-10_14)) date 2022-03-03 15:00:23*
%MOMM*%
%LPD*%
G01*
G04 APERTURE LIST*
%ADD10C,2.100000*%
%ADD11O,1.800000X1.800000*%
%ADD12C,1.200000*%
%ADD13C,0.750000*%
G04 APERTURE END LIST*
D10*
%TO.C,BZ1*%
X9425988Y23474012D03*
X14800000Y18100000D03*
%TD*%
D11*
%TO.C,J3*%
X25710000Y22120000D03*
X28250000Y22120000D03*
X25710000Y19580000D03*
X28250000Y19580000D03*
X25710000Y17040000D03*
X28250000Y17040000D03*
X25710000Y14500000D03*
X28250000Y14500000D03*
X25710000Y11960000D03*
X28250000Y11960000D03*
X25710000Y9420000D03*
X28250000Y9420000D03*
X25710000Y6880000D03*
X28250000Y6880000D03*
X25710000Y4340000D03*
X28250000Y4340000D03*
X25710000Y1800000D03*
G36*
G01*
X27350000Y950000D02*
X27350000Y2650000D01*
G75*
G02*
X27400000Y2700000I50000J0D01*
G01*
X29100000Y2700000D01*
G75*
G02*
X29150000Y2650000I0J-50000D01*
G01*
X29150000Y950000D01*
G75*
G02*
X29100000Y900000I-50000J0D01*
G01*
X27400000Y900000D01*
G75*
G02*
X27350000Y950000I0J50000D01*
G01*
G37*
%TD*%
D12*
%TO.C,SW1*%
X2600000Y24600000D03*
X2600000Y28900000D03*
%TD*%
%TO.C,SW2*%
X27400000Y28900000D03*
X27400000Y24600000D03*
%TD*%
%TO.C,J1*%
G36*
G01*
X18775000Y975000D02*
X18775000Y2325000D01*
G75*
G02*
X19150000Y2700000I375000J0D01*
G01*
X19900000Y2700000D01*
G75*
G02*
X20275000Y2325000I0J-375000D01*
G01*
X20275000Y975000D01*
G75*
G02*
X19900000Y600000I-375000J0D01*
G01*
X19150000Y600000D01*
G75*
G02*
X18775000Y975000I0J375000D01*
G01*
G37*
D13*
X17900000Y5100000D03*
G36*
G01*
X9725000Y975000D02*
X9725000Y2325000D01*
G75*
G02*
X10100000Y2700000I375000J0D01*
G01*
X10850000Y2700000D01*
G75*
G02*
X11225000Y2325000I0J-375000D01*
G01*
X11225000Y975000D01*
G75*
G02*
X10850000Y600000I-375000J0D01*
G01*
X10100000Y600000D01*
G75*
G02*
X9725000Y975000I0J375000D01*
G01*
G37*
X12100000Y5100000D03*
G36*
G01*
X9725000Y4905000D02*
X9725000Y6355000D01*
G75*
G02*
X10100000Y6730000I375000J0D01*
G01*
X10850000Y6730000D01*
G75*
G02*
X11225000Y6355000I0J-375000D01*
G01*
X11225000Y4905000D01*
G75*
G02*
X10850000Y4530000I-375000J0D01*
G01*
X10100000Y4530000D01*
G75*
G02*
X9725000Y4905000I0J375000D01*
G01*
G37*
G36*
G01*
X18775000Y4905000D02*
X18775000Y6355000D01*
G75*
G02*
X19150000Y6730000I375000J0D01*
G01*
X19900000Y6730000D01*
G75*
G02*
X20275000Y6355000I0J-375000D01*
G01*
X20275000Y4905000D01*
G75*
G02*
X19900000Y4530000I-375000J0D01*
G01*
X19150000Y4530000D01*
G75*
G02*
X18775000Y4905000I0J375000D01*
G01*
G37*
%TD*%
M02*
