%TF.GenerationSoftware,KiCad,Pcbnew,(5.1.12-1-10_14)*%
%TF.CreationDate,2022-04-04T20:25:46+08:00*%
%TF.ProjectId,DeerMon,44656572-4d6f-46e2-9e6b-696361645f70,rev?*%
%TF.SameCoordinates,Original*%
%TF.FileFunction,Copper,L3,Inr*%
%TF.FilePolarity,Positive*%
%FSLAX46Y46*%
G04 Gerber Fmt 4.6, Leading zero omitted, Abs format (unit mm)*
G04 Created by KiCad (PCBNEW (5.1.12-1-10_14)) date 2022-04-04 20:25:46*
%MOMM*%
%LPD*%
G01*
G04 APERTURE LIST*
%TA.AperFunction,ComponentPad*%
%ADD10C,2.000000*%
%TD*%
%TA.AperFunction,ComponentPad*%
%ADD11O,1.700000X1.700000*%
%TD*%
%TA.AperFunction,ComponentPad*%
%ADD12R,1.700000X1.700000*%
%TD*%
%TA.AperFunction,ComponentPad*%
%ADD13C,1.100000*%
%TD*%
%TA.AperFunction,ComponentPad*%
%ADD14C,0.500000*%
%TD*%
%TA.AperFunction,ViaPad*%
%ADD15C,0.500000*%
%TD*%
%TA.AperFunction,ViaPad*%
%ADD16C,0.800000*%
%TD*%
%TA.AperFunction,ViaPad*%
%ADD17C,0.700000*%
%TD*%
%TA.AperFunction,Conductor*%
%ADD18C,0.500000*%
%TD*%
%TA.AperFunction,Conductor*%
%ADD19C,0.600000*%
%TD*%
%TA.AperFunction,Conductor*%
%ADD20C,0.350000*%
%TD*%
%TA.AperFunction,Conductor*%
%ADD21C,0.200000*%
%TD*%
%TA.AperFunction,Conductor*%
%ADD22C,0.254000*%
%TD*%
%ADD23C,0.300000*%
%ADD24C,0.350000*%
%ADD25C,0.250000*%
%ADD26O,0.600000X1.200000*%
%ADD27O,0.600000X1.700000*%
G04 APERTURE END LIST*
D10*
%TO.N,Net-(BZ1-Pad2)*%
%TO.C,BZ1*%
X9425988Y30974012D03*
%TO.N,+5V*%
X14800000Y25600000D03*
%TD*%
D11*
%TO.N,/BOOT*%
%TO.C,J3*%
X25710000Y29620000D03*
%TO.N,/EN*%
X28250000Y29620000D03*
%TO.N,/IO26*%
X25710000Y27080000D03*
%TO.N,/IO27*%
X28250000Y27080000D03*
%TO.N,/IO33*%
X25710000Y24540000D03*
%TO.N,/IO25*%
X28250000Y24540000D03*
%TO.N,/IO35*%
X25710000Y22000000D03*
%TO.N,/IO32*%
X28250000Y22000000D03*
%TO.N,/IO5*%
X25710000Y19460000D03*
%TO.N,/IO34*%
X28250000Y19460000D03*
%TO.N,GND*%
X25710000Y16920000D03*
X28250000Y16920000D03*
%TO.N,/ESP_TX*%
X25710000Y14380000D03*
%TO.N,/ESP_RX*%
X28250000Y14380000D03*
%TO.N,+5V*%
X25710000Y11840000D03*
%TO.N,GND*%
X28250000Y11840000D03*
%TO.N,+3V3*%
X25710000Y9300000D03*
D12*
%TO.N,GND*%
X28250000Y9300000D03*
%TD*%
D13*
%TO.N,*%
%TO.C,SW1*%
X2600000Y32100000D03*
X2600000Y36400000D03*
%TD*%
%TO.N,*%
%TO.C,SW2*%
X27400000Y36400000D03*
X27400000Y32100000D03*
%TD*%
D14*
%TO.N,GND*%
%TO.C,U4*%
X8156676Y23671751D03*
X7414214Y24414214D03*
X6671751Y25156676D03*
X7484924Y23000000D03*
X6742462Y23742462D03*
X6000000Y24484924D03*
X6742462Y22257538D03*
X6000000Y23000000D03*
X5257538Y23742462D03*
X6000000Y21515076D03*
X5257538Y22257538D03*
X4515076Y23000000D03*
X5328249Y25156676D03*
X8156676Y22328249D03*
X4585786Y24414214D03*
X7414214Y21585786D03*
X3843324Y23671751D03*
X6671751Y20843324D03*
X3843324Y22328249D03*
X4585786Y21585786D03*
X5328249Y20843324D03*
%TD*%
%TO.N,Net-(J1-PadS1)*%
%TO.C,J1*%
%TA.AperFunction,ComponentPad*%
G36*
G01*
X18825000Y8500000D02*
X18825000Y9800000D01*
G75*
G02*
X19175000Y10150000I350000J0D01*
G01*
X19875000Y10150000D01*
G75*
G02*
X20225000Y9800000I0J-350000D01*
G01*
X20225000Y8500000D01*
G75*
G02*
X19875000Y8150000I-350000J0D01*
G01*
X19175000Y8150000D01*
G75*
G02*
X18825000Y8500000I0J350000D01*
G01*
G37*
%TD.AperFunction*%
%TA.AperFunction,ComponentPad*%
G36*
G01*
X9775000Y8500000D02*
X9775000Y9800000D01*
G75*
G02*
X10125000Y10150000I350000J0D01*
G01*
X10825000Y10150000D01*
G75*
G02*
X11175000Y9800000I0J-350000D01*
G01*
X11175000Y8500000D01*
G75*
G02*
X10825000Y8150000I-350000J0D01*
G01*
X10125000Y8150000D01*
G75*
G02*
X9775000Y8500000I0J350000D01*
G01*
G37*
%TD.AperFunction*%
%TA.AperFunction,ComponentPad*%
G36*
G01*
X9775000Y12430000D02*
X9775000Y13830000D01*
G75*
G02*
X10125000Y14180000I350000J0D01*
G01*
X10825000Y14180000D01*
G75*
G02*
X11175000Y13830000I0J-350000D01*
G01*
X11175000Y12430000D01*
G75*
G02*
X10825000Y12080000I-350000J0D01*
G01*
X10125000Y12080000D01*
G75*
G02*
X9775000Y12430000I0J350000D01*
G01*
G37*
%TD.AperFunction*%
%TA.AperFunction,ComponentPad*%
G36*
G01*
X18825000Y12430000D02*
X18825000Y13830000D01*
G75*
G02*
X19175000Y14180000I350000J0D01*
G01*
X19875000Y14180000D01*
G75*
G02*
X20225000Y13830000I0J-350000D01*
G01*
X20225000Y12430000D01*
G75*
G02*
X19875000Y12080000I-350000J0D01*
G01*
X19175000Y12080000D01*
G75*
G02*
X18825000Y12430000I0J350000D01*
G01*
G37*
%TD.AperFunction*%
%TD*%
D15*
%TO.N,GND*%
X7000000Y17500000D03*
X12000000Y11000000D03*
X17000000Y10000000D03*
X14500000Y10000000D03*
X6000000Y36750000D03*
X22600000Y25775000D03*
X22650000Y23600000D03*
X16100000Y26950000D03*
X18250000Y26650000D03*
X10350000Y28050000D03*
X10850000Y18750000D03*
X2800000Y17300000D03*
X1000000Y27000000D03*
X22425000Y20875000D03*
X23100000Y21550000D03*
X19750000Y20700000D03*
X14250000Y18250000D03*
X13200000Y17850000D03*
X9750000Y16150000D03*
X9250000Y16650000D03*
X18500000Y32100000D03*
X18500000Y33600000D03*
X22000000Y35500000D03*
X24750000Y36000000D03*
X11500000Y35500000D03*
X12000000Y31250000D03*
X10500000Y32500000D03*
X10750000Y29850000D03*
X8250000Y29850000D03*
X7750000Y33300000D03*
X5000000Y28750000D03*
X5850000Y31000000D03*
X6600000Y31000000D03*
X22050000Y27250000D03*
X15000000Y30750000D03*
X15750000Y31500000D03*
X15900000Y12250000D03*
X8700000Y11000000D03*
X4150000Y15950000D03*
X1750000Y17500000D03*
X7000000Y12250000D03*
X7000000Y11000000D03*
X6500000Y16500000D03*
X8000000Y8250000D03*
X750000Y17500000D03*
X750000Y19500000D03*
X800000Y30500000D03*
X750000Y28500000D03*
X8000000Y36750000D03*
X10000000Y36750000D03*
X12000000Y36750000D03*
X14000000Y36750000D03*
X16000000Y36750000D03*
X18000000Y36750000D03*
X20000000Y36750000D03*
X22000000Y36750000D03*
X24000000Y36750000D03*
X12000000Y8250000D03*
X14000000Y8250000D03*
X16000000Y8250000D03*
X18000000Y8250000D03*
X3475000Y16625000D03*
X7000000Y28750000D03*
X8200000Y17500000D03*
X7600000Y15750000D03*
X8050000Y16550000D03*
X5500000Y16000000D03*
X23200000Y15500000D03*
X21550000Y15500000D03*
X22000000Y8250000D03*
X23500000Y10250000D03*
X2750000Y34250000D03*
X5250000Y36000000D03*
X20750000Y30550000D03*
X17450000Y30550000D03*
X8000000Y35500000D03*
X27250000Y34250000D03*
X24550000Y32100000D03*
X29250000Y28350000D03*
X29250000Y25800000D03*
X29250000Y23250000D03*
X29250000Y20750000D03*
X25250000Y31250000D03*
X29250000Y30500000D03*
X23500000Y9500000D03*
X24000000Y8250000D03*
X15750000Y18250000D03*
X17050000Y17850000D03*
X20750000Y17900000D03*
X23250000Y20500000D03*
X24150000Y19350000D03*
X29250000Y18200000D03*
X29250000Y15650000D03*
X3950000Y27300000D03*
X3600000Y30800000D03*
X2500000Y28500000D03*
X2550000Y25850000D03*
X18300000Y18250000D03*
X13200000Y23050000D03*
X13700000Y22550000D03*
X11750000Y20750000D03*
X13250000Y25200000D03*
X13150000Y19600000D03*
X19750000Y20050000D03*
X7000000Y13500000D03*
X7000000Y9750000D03*
X7000000Y8500000D03*
X7000000Y14750000D03*
D16*
%TO.N,+3V3*%
X5900000Y17975000D03*
D17*
X21150000Y23350000D03*
D16*
X16750000Y31100000D03*
D17*
X13250000Y36500000D03*
X9150000Y26025000D03*
D16*
X11500000Y16150000D03*
X22500000Y16600000D03*
D17*
X21275000Y27150000D03*
X7800000Y14900000D03*
X1000000Y24350000D03*
X23250000Y33100000D03*
%TO.N,+5V*%
X17375000Y11125000D03*
X21950000Y26475000D03*
%TO.N,/EN*%
X19350000Y27000000D03*
%TO.N,/D+*%
X14925000Y12375000D03*
D16*
X19614124Y15164124D03*
D17*
%TO.N,/D-*%
X14075000Y12375000D03*
D16*
X20285876Y15835876D03*
D17*
%TO.N,/LEDK*%
X12250000Y32000000D03*
X18750000Y31100000D03*
%TO.N,/BOOT*%
X4300000Y31500000D03*
X8550000Y28550000D03*
X18100000Y20050000D03*
%TO.N,/RTS*%
X18950000Y20050000D03*
X14850000Y23550000D03*
%TO.N,/ESP_TX*%
X2300000Y19800000D03*
X13500000Y21000000D03*
%TO.N,/ESP_RX*%
X1650000Y19150000D03*
X14200000Y20300000D03*
%TO.N,/BLK*%
X23500000Y31100000D03*
X950000Y21750000D03*
%TO.N,/BZ_EN*%
X950000Y20900000D03*
X3000000Y30000000D03*
%TO.N,/IO5*%
X2550000Y26750000D03*
%TO.N,/RGB*%
X8700000Y15750000D03*
X2950000Y18900000D03*
%TD*%
D18*
%TO.N,+3V3*%
X9650000Y18000000D02*
X9650000Y25525000D01*
X11500000Y16150000D02*
X9650000Y18000000D01*
X9650000Y25525000D02*
X9150000Y26025000D01*
D19*
X12450000Y17100000D02*
X11500000Y16150000D01*
D18*
X12450000Y17100000D02*
X12450000Y26800000D01*
X12450000Y26800000D02*
X16750000Y31100000D01*
X22500000Y12510000D02*
X25710000Y9300000D01*
D20*
X10250000Y14900000D02*
X11500000Y16150000D01*
X7800000Y14900000D02*
X10250000Y14900000D01*
D18*
X8525000Y26650000D02*
X9150000Y26025000D01*
X5200000Y26650000D02*
X8525000Y26650000D01*
X2900000Y24350000D02*
X5200000Y26650000D01*
X1000000Y24350000D02*
X2900000Y24350000D01*
X1000000Y22875000D02*
X1000000Y24350000D01*
X5900000Y17975000D02*
X1000000Y22875000D01*
D20*
X23250000Y33100000D02*
X23000000Y32850000D01*
X23000000Y32850000D02*
X16750000Y32850000D01*
D18*
X16750000Y31100000D02*
X16750000Y32850000D01*
D20*
X16750000Y32850000D02*
X15800000Y32850000D01*
X13250000Y35400000D02*
X13250000Y36500000D01*
X15800000Y32850000D02*
X13250000Y35400000D01*
D19*
X22000000Y17100000D02*
X22500000Y16600000D01*
D18*
X22500000Y16600000D02*
X22500000Y12510000D01*
D19*
X12450000Y17100000D02*
X22000000Y17100000D01*
D20*
X21150000Y19975000D02*
X22000000Y19125000D01*
X22000000Y19125000D02*
X22000000Y17100000D01*
X21150000Y23350000D02*
X21150000Y19975000D01*
%TO.N,+5V*%
X14800000Y25600000D02*
X21000000Y25600000D01*
X21000000Y25600000D02*
X21850000Y25600000D01*
D21*
X21950000Y25700000D02*
X21850000Y25600000D01*
X21950000Y26475000D02*
X21950000Y25700000D01*
D20*
X23100000Y19350000D02*
X23100000Y17800000D01*
X25710000Y11840000D02*
X23850000Y13700000D01*
X21850000Y25600000D02*
X23850000Y23600000D01*
X23850000Y20100000D02*
X23100000Y19350000D01*
X23100000Y17800000D02*
X23850000Y17050000D01*
X23850000Y23600000D02*
X23850000Y20100000D01*
X23850000Y13700000D02*
X23850000Y17050000D01*
%TD*%
D22*
%TO.N,GND*%
X19910197Y36910197D02*
X19929443Y36894403D01*
X19951399Y36882667D01*
X19975224Y36875440D01*
X20000000Y36873000D01*
X25000000Y36873000D01*
X25024776Y36875440D01*
X25048601Y36882667D01*
X25070557Y36894403D01*
X25089803Y36910197D01*
X25430812Y37251206D01*
X25517038Y37225173D01*
X25543830Y37219869D01*
X25570659Y37214166D01*
X25574853Y37213725D01*
X25720530Y37199441D01*
X25720536Y37199441D01*
X25735167Y37198000D01*
X27172759Y37198000D01*
X27158773Y37195218D01*
X27008269Y37132877D01*
X26872819Y37042372D01*
X26757628Y36927181D01*
X26667123Y36791731D01*
X26604782Y36641227D01*
X26573000Y36481452D01*
X26573000Y36318548D01*
X26604782Y36158773D01*
X26667123Y36008269D01*
X26757628Y35872819D01*
X26872819Y35757628D01*
X27008269Y35667123D01*
X27158773Y35604782D01*
X27318548Y35573000D01*
X27481452Y35573000D01*
X27641227Y35604782D01*
X27791731Y35667123D01*
X27927181Y35757628D01*
X28042372Y35872819D01*
X28132877Y36008269D01*
X28195218Y36158773D01*
X28227000Y36318548D01*
X28227000Y36481452D01*
X28195218Y36641227D01*
X28132877Y36791731D01*
X28042372Y36927181D01*
X27927181Y37042372D01*
X27791731Y37132877D01*
X27641227Y37195218D01*
X27627241Y37198000D01*
X28385228Y37198000D01*
X28438178Y37192809D01*
X28474899Y37181721D01*
X28508768Y37163713D01*
X28538496Y37139468D01*
X28562951Y37109907D01*
X28581194Y37076168D01*
X28592537Y37039524D01*
X28598000Y36987546D01*
X28598001Y31485167D01*
X28599259Y31472399D01*
X28599248Y31470885D01*
X28599660Y31466688D01*
X28602220Y31442327D01*
X28602371Y31440798D01*
X28602386Y31440747D01*
X28604760Y31418164D01*
X28610253Y31391407D01*
X28615392Y31364465D01*
X28616612Y31360428D01*
X28631040Y31313818D01*
X28641627Y31288632D01*
X28651902Y31263202D01*
X28653882Y31259479D01*
X28677089Y31216560D01*
X28692365Y31193914D01*
X28707376Y31170972D01*
X28710042Y31167705D01*
X28741142Y31130110D01*
X28760544Y31110843D01*
X28779722Y31091259D01*
X28782971Y31088571D01*
X28820782Y31057734D01*
X28843538Y31042616D01*
X28866157Y31027128D01*
X28869867Y31025122D01*
X28912947Y31002215D01*
X28938235Y30991792D01*
X28963417Y30980999D01*
X28967446Y30979752D01*
X29014155Y30965650D01*
X29040944Y30960346D01*
X29067778Y30954643D01*
X29071973Y30954202D01*
X29120532Y30949441D01*
X29120536Y30949441D01*
X29135167Y30948000D01*
X29485228Y30948000D01*
X29538178Y30942809D01*
X29574899Y30931721D01*
X29608768Y30913713D01*
X29638496Y30889468D01*
X29662951Y30859907D01*
X29681194Y30826168D01*
X29692537Y30789524D01*
X29698001Y30737536D01*
X29698000Y8014772D01*
X29694349Y7977539D01*
X29616870Y7883130D01*
X29522488Y7805672D01*
X29487547Y7802000D01*
X26235167Y7802000D01*
X26222035Y7800707D01*
X26217392Y7800739D01*
X26213195Y7800327D01*
X26067623Y7785026D01*
X26040876Y7779536D01*
X26013926Y7774395D01*
X26009889Y7773175D01*
X25930886Y7748720D01*
X25589803Y8089803D01*
X25570557Y8105597D01*
X25548601Y8117333D01*
X25524776Y8124560D01*
X25500000Y8127000D01*
X20500000Y8127000D01*
X20475224Y8124560D01*
X20451399Y8117333D01*
X20429443Y8105597D01*
X20410197Y8089803D01*
X20069188Y7748794D01*
X19982962Y7774827D01*
X19956170Y7780131D01*
X19929341Y7785834D01*
X19925147Y7786275D01*
X19779471Y7800559D01*
X19779464Y7800559D01*
X19764833Y7802000D01*
X10235167Y7802000D01*
X10222035Y7800707D01*
X10217392Y7800739D01*
X10213195Y7800327D01*
X10067623Y7785026D01*
X10040876Y7779536D01*
X10013926Y7774395D01*
X10009889Y7773175D01*
X9930886Y7748720D01*
X9589803Y8089803D01*
X9570557Y8105597D01*
X9548601Y8117333D01*
X9524776Y8124560D01*
X9500000Y8127000D01*
X6714948Y8127000D01*
X6694022Y8166150D01*
X6644376Y8329811D01*
X6627000Y8506234D01*
X6627000Y9586377D01*
X7373000Y9586377D01*
X7373000Y9413623D01*
X7406703Y9244189D01*
X7472813Y9084585D01*
X7568790Y8940945D01*
X7690945Y8818790D01*
X7834585Y8722813D01*
X7994189Y8656703D01*
X8163623Y8623000D01*
X8336377Y8623000D01*
X8505811Y8656703D01*
X8665415Y8722813D01*
X8809055Y8818790D01*
X8931210Y8940945D01*
X9027187Y9084585D01*
X9093297Y9244189D01*
X9127000Y9413623D01*
X9127000Y9586377D01*
X9093297Y9755811D01*
X9074994Y9800000D01*
X9496660Y9800000D01*
X9496660Y8500000D01*
X9508733Y8377417D01*
X9544490Y8259545D01*
X9602554Y8150913D01*
X9680697Y8055697D01*
X9775913Y7977554D01*
X9884545Y7919490D01*
X10002417Y7883733D01*
X10125000Y7871660D01*
X10825000Y7871660D01*
X10947583Y7883733D01*
X11065455Y7919490D01*
X11174087Y7977554D01*
X11269303Y8055697D01*
X11347446Y8150913D01*
X11405510Y8259545D01*
X11441267Y8377417D01*
X11453340Y8500000D01*
X11453340Y9800000D01*
X18546660Y9800000D01*
X18546660Y8500000D01*
X18558733Y8377417D01*
X18594490Y8259545D01*
X18652554Y8150913D01*
X18730697Y8055697D01*
X18825913Y7977554D01*
X18934545Y7919490D01*
X19052417Y7883733D01*
X19175000Y7871660D01*
X19875000Y7871660D01*
X19997583Y7883733D01*
X20115455Y7919490D01*
X20224087Y7977554D01*
X20319303Y8055697D01*
X20397446Y8150913D01*
X20455510Y8259545D01*
X20491267Y8377417D01*
X20503340Y8500000D01*
X20503340Y9586377D01*
X20873000Y9586377D01*
X20873000Y9413623D01*
X20906703Y9244189D01*
X20972813Y9084585D01*
X21068790Y8940945D01*
X21190945Y8818790D01*
X21334585Y8722813D01*
X21494189Y8656703D01*
X21663623Y8623000D01*
X21836377Y8623000D01*
X22005811Y8656703D01*
X22165415Y8722813D01*
X22309055Y8818790D01*
X22431210Y8940945D01*
X22527187Y9084585D01*
X22593297Y9244189D01*
X22627000Y9413623D01*
X22627000Y9586377D01*
X22593297Y9755811D01*
X22527187Y9915415D01*
X22431210Y10059055D01*
X22309055Y10181210D01*
X22165415Y10277187D01*
X22005811Y10343297D01*
X21836377Y10377000D01*
X21663623Y10377000D01*
X21494189Y10343297D01*
X21334585Y10277187D01*
X21190945Y10181210D01*
X21068790Y10059055D01*
X20972813Y9915415D01*
X20906703Y9755811D01*
X20873000Y9586377D01*
X20503340Y9586377D01*
X20503340Y9800000D01*
X20491267Y9922583D01*
X20455510Y10040455D01*
X20397446Y10149087D01*
X20319303Y10244303D01*
X20224087Y10322446D01*
X20115455Y10380510D01*
X19997583Y10416267D01*
X19875000Y10428340D01*
X19175000Y10428340D01*
X19052417Y10416267D01*
X18934545Y10380510D01*
X18825913Y10322446D01*
X18730697Y10244303D01*
X18652554Y10149087D01*
X18594490Y10040455D01*
X18558733Y9922583D01*
X18546660Y9800000D01*
X11453340Y9800000D01*
X11441267Y9922583D01*
X11405510Y10040455D01*
X11347446Y10149087D01*
X11269303Y10244303D01*
X11174087Y10322446D01*
X11065455Y10380510D01*
X10947583Y10416267D01*
X10825000Y10428340D01*
X10125000Y10428340D01*
X10002417Y10416267D01*
X9884545Y10380510D01*
X9775913Y10322446D01*
X9680697Y10244303D01*
X9602554Y10149087D01*
X9544490Y10040455D01*
X9508733Y9922583D01*
X9496660Y9800000D01*
X9074994Y9800000D01*
X9027187Y9915415D01*
X8931210Y10059055D01*
X8809055Y10181210D01*
X8665415Y10277187D01*
X8505811Y10343297D01*
X8336377Y10377000D01*
X8163623Y10377000D01*
X7994189Y10343297D01*
X7834585Y10277187D01*
X7690945Y10181210D01*
X7568790Y10059055D01*
X7472813Y9915415D01*
X7406703Y9755811D01*
X7373000Y9586377D01*
X6627000Y9586377D01*
X6627000Y11186754D01*
X16748000Y11186754D01*
X16748000Y11063246D01*
X16772095Y10942111D01*
X16819360Y10828004D01*
X16887977Y10725311D01*
X16975311Y10637977D01*
X17078004Y10569360D01*
X17192111Y10522095D01*
X17313246Y10498000D01*
X17436754Y10498000D01*
X17557889Y10522095D01*
X17671996Y10569360D01*
X17774689Y10637977D01*
X17862023Y10725311D01*
X17930640Y10828004D01*
X17977905Y10942111D01*
X18002000Y11063246D01*
X18002000Y11186754D01*
X17977905Y11307889D01*
X17930640Y11421996D01*
X17862023Y11524689D01*
X17774689Y11612023D01*
X17671996Y11680640D01*
X17557889Y11727905D01*
X17436754Y11752000D01*
X17313246Y11752000D01*
X17192111Y11727905D01*
X17078004Y11680640D01*
X16975311Y11612023D01*
X16887977Y11524689D01*
X16819360Y11421996D01*
X16772095Y11307889D01*
X16748000Y11186754D01*
X6627000Y11186754D01*
X6627000Y14500000D01*
X6626388Y14512448D01*
X6607173Y14707538D01*
X6602317Y14731956D01*
X6545412Y14919549D01*
X6535884Y14942550D01*
X6443474Y15115437D01*
X6429642Y15136138D01*
X6305279Y15287675D01*
X6287675Y15305279D01*
X6136138Y15429642D01*
X6115437Y15443474D01*
X5942550Y15535884D01*
X5919549Y15545412D01*
X5731956Y15602317D01*
X5707538Y15607173D01*
X5512448Y15626388D01*
X5500000Y15627000D01*
X4420448Y15627000D01*
X4244024Y15644376D01*
X4080363Y15694022D01*
X3929542Y15774637D01*
X3792504Y15887102D01*
X2882696Y16796910D01*
X2873461Y16805279D01*
X2721925Y16929642D01*
X2701224Y16943474D01*
X2528337Y17035884D01*
X2505336Y17045412D01*
X2317743Y17102317D01*
X2293325Y17107173D01*
X2098234Y17126388D01*
X2085786Y17127000D01*
X1006234Y17127000D01*
X829811Y17144376D01*
X666150Y17194022D01*
X515328Y17274638D01*
X383130Y17383130D01*
X302000Y17481987D01*
X302000Y19211754D01*
X1023000Y19211754D01*
X1023000Y19088246D01*
X1047095Y18967111D01*
X1094360Y18853004D01*
X1162977Y18750311D01*
X1250311Y18662977D01*
X1353004Y18594360D01*
X1467111Y18547095D01*
X1588246Y18523000D01*
X1711754Y18523000D01*
X1832889Y18547095D01*
X1946996Y18594360D01*
X2049689Y18662977D01*
X2137023Y18750311D01*
X2205640Y18853004D01*
X2252905Y18967111D01*
X2277000Y19088246D01*
X2277000Y19173000D01*
X2361754Y19173000D01*
X2386456Y19177913D01*
X2347095Y19082889D01*
X2323000Y18961754D01*
X2323000Y18838246D01*
X2347095Y18717111D01*
X2394360Y18603004D01*
X2462977Y18500311D01*
X2550311Y18412977D01*
X2653004Y18344360D01*
X2767111Y18297095D01*
X2888246Y18273000D01*
X3011754Y18273000D01*
X3132889Y18297095D01*
X3246996Y18344360D01*
X3349689Y18412977D01*
X3437023Y18500311D01*
X3505640Y18603004D01*
X3552905Y18717111D01*
X3577000Y18838246D01*
X3577000Y18961754D01*
X3552905Y19082889D01*
X3505640Y19196996D01*
X3437023Y19299689D01*
X3349689Y19387023D01*
X3246996Y19455640D01*
X3132889Y19502905D01*
X3011754Y19527000D01*
X2888246Y19527000D01*
X2863544Y19522087D01*
X2902905Y19617111D01*
X2927000Y19738246D01*
X2927000Y19861754D01*
X2902905Y19982889D01*
X2855640Y20096996D01*
X2787023Y20199689D01*
X2699689Y20287023D01*
X2596996Y20355640D01*
X2482889Y20402905D01*
X2361754Y20427000D01*
X2238246Y20427000D01*
X2117111Y20402905D01*
X2003004Y20355640D01*
X1900311Y20287023D01*
X1812977Y20199689D01*
X1744360Y20096996D01*
X1697095Y19982889D01*
X1673000Y19861754D01*
X1673000Y19777000D01*
X1588246Y19777000D01*
X1467111Y19752905D01*
X1353004Y19705640D01*
X1250311Y19637023D01*
X1162977Y19549689D01*
X1094360Y19446996D01*
X1047095Y19332889D01*
X1023000Y19211754D01*
X302000Y19211754D01*
X302000Y21811754D01*
X323000Y21811754D01*
X323000Y21688246D01*
X347095Y21567111D01*
X394360Y21453004D01*
X462977Y21350311D01*
X488288Y21325000D01*
X462977Y21299689D01*
X394360Y21196996D01*
X347095Y21082889D01*
X323000Y20961754D01*
X323000Y20838246D01*
X347095Y20717111D01*
X394360Y20603004D01*
X462977Y20500311D01*
X550311Y20412977D01*
X653004Y20344360D01*
X767111Y20297095D01*
X888246Y20273000D01*
X1011754Y20273000D01*
X1132889Y20297095D01*
X1246996Y20344360D01*
X1349689Y20412977D01*
X1437023Y20500311D01*
X1505640Y20603004D01*
X1552905Y20717111D01*
X1577000Y20838246D01*
X1577000Y20961754D01*
X1552905Y21082889D01*
X1505640Y21196996D01*
X1437023Y21299689D01*
X1411712Y21325000D01*
X1437023Y21350311D01*
X1505640Y21453004D01*
X1552905Y21567111D01*
X1554513Y21575197D01*
X5223400Y17906310D01*
X5249016Y17777526D01*
X5300050Y17654320D01*
X5374140Y17543437D01*
X5468437Y17449140D01*
X5579320Y17375050D01*
X5702526Y17324016D01*
X5833321Y17298000D01*
X5966679Y17298000D01*
X6097474Y17324016D01*
X6220680Y17375050D01*
X6331563Y17449140D01*
X6425860Y17543437D01*
X6499950Y17654320D01*
X6550984Y17777526D01*
X6577000Y17908321D01*
X6577000Y18041679D01*
X6550984Y18172474D01*
X6499950Y18295680D01*
X6425860Y18406563D01*
X6331563Y18500860D01*
X6220680Y18574950D01*
X6097474Y18625984D01*
X5968690Y18651600D01*
X3979026Y20641264D01*
X4838765Y20641264D01*
X4876249Y20570932D01*
X4864431Y20559114D01*
X4949431Y20474114D01*
X4953350Y20469327D01*
X4958246Y20465299D01*
X5044039Y20379506D01*
X5055905Y20391372D01*
X5125010Y20354328D01*
X5126189Y20353840D01*
X5205249Y20399762D01*
X5205249Y20540716D01*
X5314108Y20649575D01*
X5342390Y20649575D01*
X5451249Y20540716D01*
X5451249Y20399762D01*
X5530309Y20353840D01*
X5600641Y20391324D01*
X5612459Y20379506D01*
X5697459Y20464506D01*
X5702246Y20468425D01*
X5706274Y20473321D01*
X5792067Y20559114D01*
X5780201Y20570980D01*
X5817245Y20640085D01*
X5817733Y20641264D01*
X6182267Y20641264D01*
X6219751Y20570932D01*
X6207933Y20559114D01*
X6292933Y20474114D01*
X6296852Y20469327D01*
X6301748Y20465299D01*
X6387541Y20379506D01*
X6399407Y20391372D01*
X6468512Y20354328D01*
X6469691Y20353840D01*
X6548751Y20399762D01*
X6548751Y20540716D01*
X6657610Y20649575D01*
X6685892Y20649575D01*
X6794751Y20540716D01*
X6794751Y20399762D01*
X6873811Y20353840D01*
X6944143Y20391324D01*
X6955961Y20379506D01*
X7040961Y20464506D01*
X7045748Y20468425D01*
X7049776Y20473321D01*
X7135569Y20559114D01*
X7123703Y20570980D01*
X7160747Y20640085D01*
X7161235Y20641264D01*
X7115313Y20720324D01*
X6974359Y20720324D01*
X6865500Y20829183D01*
X6685892Y20649575D01*
X6657610Y20649575D01*
X6478002Y20829183D01*
X6369143Y20720324D01*
X6228189Y20720324D01*
X6182267Y20641264D01*
X5817733Y20641264D01*
X5771811Y20720324D01*
X5630857Y20720324D01*
X5521998Y20829183D01*
X5342390Y20649575D01*
X5314108Y20649575D01*
X5134500Y20829183D01*
X5025641Y20720324D01*
X4884687Y20720324D01*
X4838765Y20641264D01*
X3979026Y20641264D01*
X3236564Y21383726D01*
X4096302Y21383726D01*
X4133786Y21313394D01*
X4121968Y21301576D01*
X4206968Y21216576D01*
X4210887Y21211789D01*
X4215783Y21207761D01*
X4301576Y21121968D01*
X4313442Y21133834D01*
X4382547Y21096790D01*
X4383726Y21096302D01*
X4462786Y21142224D01*
X4462786Y21283178D01*
X4571645Y21392037D01*
X4599927Y21392037D01*
X4708786Y21283178D01*
X4708786Y21142224D01*
X4787846Y21096302D01*
X4858178Y21133786D01*
X4869996Y21121968D01*
X4869997Y21121968D01*
X4876297Y21115668D01*
X4839253Y21046563D01*
X4838765Y21045384D01*
X4884687Y20966324D01*
X5025641Y20966324D01*
X5134500Y20857465D01*
X5314108Y21037073D01*
X5342390Y21037073D01*
X5521998Y20857465D01*
X5630857Y20966324D01*
X5771811Y20966324D01*
X5810461Y21032865D01*
X5877000Y21071514D01*
X5877000Y21212467D01*
X5985859Y21321327D01*
X6014141Y21321327D01*
X6123000Y21212468D01*
X6123000Y21071514D01*
X6189539Y21032865D01*
X6228189Y20966324D01*
X6369143Y20966324D01*
X6478002Y20857465D01*
X6657610Y21037073D01*
X6685892Y21037073D01*
X6865500Y20857465D01*
X6974359Y20966324D01*
X7115313Y20966324D01*
X7161235Y21045384D01*
X7123751Y21115715D01*
X7141870Y21133834D01*
X7210975Y21096790D01*
X7212154Y21096302D01*
X7291214Y21142224D01*
X7291214Y21283178D01*
X7400073Y21392037D01*
X7428355Y21392037D01*
X7537214Y21283178D01*
X7537214Y21142224D01*
X7616274Y21096302D01*
X7686606Y21133786D01*
X7698424Y21121968D01*
X7783424Y21206968D01*
X7788211Y21210887D01*
X7792239Y21215783D01*
X7878032Y21301576D01*
X7866166Y21313442D01*
X7903210Y21382547D01*
X7903698Y21383726D01*
X7857776Y21462786D01*
X7716822Y21462786D01*
X7607963Y21571645D01*
X7428355Y21392037D01*
X7400073Y21392037D01*
X7220465Y21571645D01*
X7111606Y21462786D01*
X6970652Y21462786D01*
X6924730Y21383726D01*
X6962214Y21313393D01*
X6955962Y21307141D01*
X6955961Y21307142D01*
X6944095Y21295276D01*
X6874990Y21332320D01*
X6873811Y21332808D01*
X6794751Y21286886D01*
X6794751Y21145932D01*
X6685892Y21037073D01*
X6657610Y21037073D01*
X6548751Y21145932D01*
X6548751Y21286886D01*
X6482212Y21325535D01*
X6443562Y21392076D01*
X6302608Y21392076D01*
X6193749Y21500935D01*
X6014141Y21321327D01*
X5985859Y21321327D01*
X5806251Y21500935D01*
X5697392Y21392076D01*
X5556438Y21392076D01*
X5517788Y21325535D01*
X5451249Y21286886D01*
X5451249Y21145931D01*
X5342390Y21037073D01*
X5314108Y21037073D01*
X5205249Y21145932D01*
X5205249Y21286886D01*
X5126189Y21332808D01*
X5055857Y21295324D01*
X5044039Y21307142D01*
X5044039Y21307141D01*
X5037738Y21313442D01*
X5074782Y21382547D01*
X5075270Y21383726D01*
X5029348Y21462786D01*
X4888394Y21462786D01*
X4779535Y21571645D01*
X4599927Y21392037D01*
X4571645Y21392037D01*
X4392037Y21571645D01*
X4283178Y21462786D01*
X4142224Y21462786D01*
X4096302Y21383726D01*
X3236564Y21383726D01*
X2494101Y22126189D01*
X3353840Y22126189D01*
X3391324Y22055857D01*
X3379506Y22044039D01*
X3464506Y21959039D01*
X3468425Y21954252D01*
X3473321Y21950224D01*
X3559114Y21864431D01*
X3570980Y21876297D01*
X3640085Y21839253D01*
X3641264Y21838765D01*
X3720324Y21884687D01*
X3720324Y22025641D01*
X3829183Y22134500D01*
X3857465Y22134500D01*
X3966324Y22025641D01*
X3966324Y21884687D01*
X4045384Y21838765D01*
X4115716Y21876249D01*
X4121969Y21869996D01*
X4121968Y21869996D01*
X4133834Y21858130D01*
X4096790Y21789025D01*
X4096302Y21787846D01*
X4142224Y21708786D01*
X4283178Y21708786D01*
X4392037Y21599927D01*
X4571645Y21779535D01*
X4599927Y21779535D01*
X4779535Y21599927D01*
X4888394Y21708786D01*
X5029348Y21708786D01*
X5067998Y21775326D01*
X5134538Y21813976D01*
X5134538Y21954930D01*
X5243397Y22063789D01*
X5271679Y22063789D01*
X5380538Y21954930D01*
X5380538Y21813976D01*
X5459598Y21768054D01*
X5529930Y21805538D01*
X5548048Y21787420D01*
X5511004Y21718315D01*
X5510516Y21717136D01*
X5556438Y21638076D01*
X5697392Y21638076D01*
X5806251Y21529217D01*
X5985859Y21708825D01*
X6014141Y21708825D01*
X6193749Y21529217D01*
X6302608Y21638076D01*
X6443562Y21638076D01*
X6489484Y21717136D01*
X6452000Y21787468D01*
X6470118Y21805586D01*
X6539223Y21768542D01*
X6540402Y21768054D01*
X6619462Y21813976D01*
X6619462Y21954930D01*
X6728321Y22063789D01*
X6756603Y22063789D01*
X6865462Y21954930D01*
X6865462Y21813976D01*
X6932002Y21775326D01*
X6970652Y21708786D01*
X7111606Y21708786D01*
X7220465Y21599927D01*
X7400073Y21779535D01*
X7428355Y21779535D01*
X7607963Y21599927D01*
X7716822Y21708786D01*
X7857776Y21708786D01*
X7903698Y21787846D01*
X7866214Y21858178D01*
X7884333Y21876297D01*
X7953437Y21839253D01*
X7954616Y21838765D01*
X8033676Y21884687D01*
X8033676Y22025641D01*
X8142535Y22134500D01*
X8170817Y22134500D01*
X8279676Y22025641D01*
X8279676Y21884687D01*
X8358736Y21838765D01*
X8429068Y21876249D01*
X8440886Y21864431D01*
X8525886Y21949431D01*
X8530673Y21953350D01*
X8534701Y21958246D01*
X8620494Y22044039D01*
X8608628Y22055905D01*
X8645672Y22125010D01*
X8646160Y22126189D01*
X8600238Y22205249D01*
X8459284Y22205249D01*
X8350425Y22314108D01*
X8170817Y22134500D01*
X8142535Y22134500D01*
X7962927Y22314108D01*
X7854068Y22205249D01*
X7713114Y22205249D01*
X7667192Y22126189D01*
X7704676Y22055857D01*
X7692858Y22044039D01*
X7692859Y22044038D01*
X7686558Y22037737D01*
X7617453Y22074782D01*
X7616274Y22075270D01*
X7537214Y22029348D01*
X7537214Y21888394D01*
X7428355Y21779535D01*
X7400073Y21779535D01*
X7291214Y21888394D01*
X7291214Y22029348D01*
X7224674Y22067998D01*
X7186024Y22134538D01*
X7045070Y22134538D01*
X6936211Y22243397D01*
X6756603Y22063789D01*
X6728321Y22063789D01*
X6548713Y22243397D01*
X6439854Y22134538D01*
X6298900Y22134538D01*
X6252978Y22055478D01*
X6290462Y21985146D01*
X6272344Y21967028D01*
X6203239Y22004072D01*
X6202060Y22004560D01*
X6123000Y21958638D01*
X6123000Y21817684D01*
X6014141Y21708825D01*
X5985859Y21708825D01*
X5877000Y21817684D01*
X5877000Y21958638D01*
X5797940Y22004560D01*
X5727608Y21967076D01*
X5709490Y21985194D01*
X5746534Y22054299D01*
X5747022Y22055478D01*
X5701100Y22134538D01*
X5560146Y22134538D01*
X5451287Y22243397D01*
X5271679Y22063789D01*
X5243397Y22063789D01*
X5063789Y22243397D01*
X4954930Y22134538D01*
X4813976Y22134538D01*
X4775326Y22067998D01*
X4708786Y22029348D01*
X4708786Y21888394D01*
X4599927Y21779535D01*
X4571645Y21779535D01*
X4462786Y21888394D01*
X4462786Y22029348D01*
X4383726Y22075270D01*
X4313394Y22037786D01*
X4307142Y22044038D01*
X4307142Y22044039D01*
X4295276Y22055905D01*
X4332320Y22125010D01*
X4332808Y22126189D01*
X4286886Y22205249D01*
X4145932Y22205249D01*
X4037073Y22314108D01*
X3857465Y22134500D01*
X3829183Y22134500D01*
X3649575Y22314108D01*
X3540716Y22205249D01*
X3399762Y22205249D01*
X3353840Y22126189D01*
X2494101Y22126189D01*
X2089981Y22530309D01*
X3353840Y22530309D01*
X3399762Y22451249D01*
X3540716Y22451249D01*
X3649575Y22342390D01*
X3829183Y22521998D01*
X3857465Y22521998D01*
X4037073Y22342390D01*
X4145933Y22451249D01*
X4286886Y22451249D01*
X4325535Y22517788D01*
X4392076Y22556438D01*
X4392076Y22697392D01*
X4500935Y22806251D01*
X4529217Y22806251D01*
X4638076Y22697392D01*
X4638076Y22556438D01*
X4717136Y22510516D01*
X4787468Y22548000D01*
X4805586Y22529882D01*
X4768542Y22460777D01*
X4768054Y22459598D01*
X4813976Y22380538D01*
X4954930Y22380538D01*
X5063789Y22271679D01*
X5243397Y22451287D01*
X5271679Y22451287D01*
X5451287Y22271679D01*
X5560146Y22380538D01*
X5701100Y22380538D01*
X5747022Y22459598D01*
X5709538Y22529930D01*
X5727656Y22548048D01*
X5796761Y22511004D01*
X5797940Y22510516D01*
X5877000Y22556438D01*
X5877000Y22697392D01*
X5985859Y22806251D01*
X6014141Y22806251D01*
X6123000Y22697392D01*
X6123000Y22556438D01*
X6202060Y22510516D01*
X6272392Y22548000D01*
X6290510Y22529882D01*
X6253466Y22460777D01*
X6252978Y22459598D01*
X6298900Y22380538D01*
X6439854Y22380538D01*
X6548713Y22271679D01*
X6728321Y22451287D01*
X6756603Y22451287D01*
X6936211Y22271679D01*
X7045070Y22380538D01*
X7186024Y22380538D01*
X7231946Y22459598D01*
X7194462Y22529930D01*
X7212580Y22548048D01*
X7281685Y22511004D01*
X7282864Y22510516D01*
X7361924Y22556438D01*
X7361924Y22697392D01*
X7470783Y22806251D01*
X7499065Y22806251D01*
X7607924Y22697392D01*
X7607924Y22556438D01*
X7674465Y22517788D01*
X7713114Y22451249D01*
X7854068Y22451249D01*
X7962927Y22342390D01*
X8142535Y22521998D01*
X8170817Y22521998D01*
X8350425Y22342390D01*
X8459284Y22451249D01*
X8600238Y22451249D01*
X8646160Y22530309D01*
X8608676Y22600641D01*
X8620494Y22612459D01*
X8535494Y22697459D01*
X8531575Y22702246D01*
X8526679Y22706274D01*
X8440886Y22792067D01*
X8429020Y22780201D01*
X8359915Y22817245D01*
X8358736Y22817733D01*
X8279676Y22771811D01*
X8279676Y22630857D01*
X8170817Y22521998D01*
X8142535Y22521998D01*
X8033676Y22630857D01*
X8033676Y22771811D01*
X7967135Y22810461D01*
X7928486Y22877000D01*
X7787532Y22877000D01*
X7678673Y22985859D01*
X7499065Y22806251D01*
X7470783Y22806251D01*
X7291175Y22985859D01*
X7182316Y22877000D01*
X7041362Y22877000D01*
X6995440Y22797940D01*
X7032924Y22727608D01*
X7014806Y22709490D01*
X6945701Y22746534D01*
X6944522Y22747022D01*
X6865462Y22701100D01*
X6865462Y22560146D01*
X6756603Y22451287D01*
X6728321Y22451287D01*
X6619462Y22560146D01*
X6619462Y22701100D01*
X6540402Y22747022D01*
X6470070Y22709538D01*
X6451952Y22727656D01*
X6488996Y22796761D01*
X6489484Y22797940D01*
X6443562Y22877000D01*
X6302608Y22877000D01*
X6193749Y22985859D01*
X6014141Y22806251D01*
X5985859Y22806251D01*
X5806251Y22985859D01*
X5697392Y22877000D01*
X5556438Y22877000D01*
X5510516Y22797940D01*
X5548000Y22727608D01*
X5529882Y22709490D01*
X5460777Y22746534D01*
X5459598Y22747022D01*
X5380538Y22701100D01*
X5380538Y22560146D01*
X5271679Y22451287D01*
X5243397Y22451287D01*
X5134538Y22560146D01*
X5134538Y22701100D01*
X5055478Y22747022D01*
X4985146Y22709538D01*
X4967028Y22727656D01*
X5004072Y22796761D01*
X5004560Y22797940D01*
X4958638Y22877000D01*
X4817684Y22877000D01*
X4708825Y22985859D01*
X4529217Y22806251D01*
X4500935Y22806251D01*
X4321327Y22985859D01*
X4212469Y22877000D01*
X4071514Y22877000D01*
X4032865Y22810461D01*
X3966324Y22771811D01*
X3966324Y22630857D01*
X3857465Y22521998D01*
X3829183Y22521998D01*
X3720324Y22630857D01*
X3720324Y22771811D01*
X3641264Y22817733D01*
X3570932Y22780249D01*
X3559114Y22792067D01*
X3474114Y22707067D01*
X3469327Y22703148D01*
X3465299Y22698252D01*
X3379506Y22612459D01*
X3391372Y22600593D01*
X3354328Y22531488D01*
X3353840Y22530309D01*
X2089981Y22530309D01*
X1527000Y23093289D01*
X1527000Y23469691D01*
X3353840Y23469691D01*
X3391324Y23399359D01*
X3379506Y23387541D01*
X3464506Y23302541D01*
X3468425Y23297754D01*
X3473321Y23293726D01*
X3559114Y23207933D01*
X3570980Y23219799D01*
X3640085Y23182755D01*
X3641264Y23182267D01*
X3720324Y23228189D01*
X3720324Y23369143D01*
X3829183Y23478002D01*
X3857465Y23478002D01*
X3966324Y23369143D01*
X3966324Y23228189D01*
X4032865Y23189539D01*
X4071514Y23123000D01*
X4212468Y23123000D01*
X4321327Y23014141D01*
X4500935Y23193749D01*
X4529217Y23193749D01*
X4708825Y23014141D01*
X4817684Y23123000D01*
X4958638Y23123000D01*
X5004560Y23202060D01*
X4967076Y23272392D01*
X4985194Y23290510D01*
X5054299Y23253466D01*
X5055478Y23252978D01*
X5134538Y23298900D01*
X5134538Y23439854D01*
X5243397Y23548713D01*
X5271679Y23548713D01*
X5380538Y23439854D01*
X5380538Y23298900D01*
X5459598Y23252978D01*
X5529930Y23290462D01*
X5548048Y23272344D01*
X5511004Y23203239D01*
X5510516Y23202060D01*
X5556438Y23123000D01*
X5697392Y23123000D01*
X5806251Y23014141D01*
X5985859Y23193749D01*
X6014141Y23193749D01*
X6193749Y23014141D01*
X6302608Y23123000D01*
X6443562Y23123000D01*
X6489484Y23202060D01*
X6452000Y23272392D01*
X6470118Y23290510D01*
X6539223Y23253466D01*
X6540402Y23252978D01*
X6619462Y23298900D01*
X6619462Y23439854D01*
X6728321Y23548713D01*
X6756603Y23548713D01*
X6865462Y23439854D01*
X6865462Y23298900D01*
X6944522Y23252978D01*
X7014854Y23290462D01*
X7032972Y23272344D01*
X6995928Y23203239D01*
X6995440Y23202060D01*
X7041362Y23123000D01*
X7182316Y23123000D01*
X7291175Y23014141D01*
X7470783Y23193749D01*
X7499065Y23193749D01*
X7678673Y23014141D01*
X7787533Y23123000D01*
X7928486Y23123000D01*
X7967135Y23189539D01*
X8033676Y23228189D01*
X8033676Y23369143D01*
X8142535Y23478002D01*
X8170817Y23478002D01*
X8279676Y23369143D01*
X8279676Y23228189D01*
X8358736Y23182267D01*
X8429068Y23219751D01*
X8440886Y23207933D01*
X8525886Y23292933D01*
X8530673Y23296852D01*
X8534701Y23301748D01*
X8620494Y23387541D01*
X8608628Y23399407D01*
X8645672Y23468512D01*
X8646160Y23469691D01*
X8600238Y23548751D01*
X8459284Y23548751D01*
X8350425Y23657610D01*
X8170817Y23478002D01*
X8142535Y23478002D01*
X7962927Y23657610D01*
X7854069Y23548751D01*
X7713114Y23548751D01*
X7674465Y23482212D01*
X7607924Y23443562D01*
X7607924Y23302608D01*
X7499065Y23193749D01*
X7470783Y23193749D01*
X7361924Y23302608D01*
X7361924Y23443562D01*
X7282864Y23489484D01*
X7212532Y23452000D01*
X7194414Y23470118D01*
X7231458Y23539223D01*
X7231946Y23540402D01*
X7186024Y23619462D01*
X7045070Y23619462D01*
X6936211Y23728321D01*
X6756603Y23548713D01*
X6728321Y23548713D01*
X6548713Y23728321D01*
X6439854Y23619462D01*
X6298900Y23619462D01*
X6252978Y23540402D01*
X6290462Y23470070D01*
X6272344Y23451952D01*
X6203239Y23488996D01*
X6202060Y23489484D01*
X6123000Y23443562D01*
X6123000Y23302608D01*
X6014141Y23193749D01*
X5985859Y23193749D01*
X5877000Y23302608D01*
X5877000Y23443562D01*
X5797940Y23489484D01*
X5727608Y23452000D01*
X5709490Y23470118D01*
X5746534Y23539223D01*
X5747022Y23540402D01*
X5701100Y23619462D01*
X5560146Y23619462D01*
X5451287Y23728321D01*
X5271679Y23548713D01*
X5243397Y23548713D01*
X5063789Y23728321D01*
X4954930Y23619462D01*
X4813976Y23619462D01*
X4768054Y23540402D01*
X4805538Y23470070D01*
X4787420Y23451952D01*
X4718315Y23488996D01*
X4717136Y23489484D01*
X4638076Y23443562D01*
X4638076Y23302608D01*
X4529217Y23193749D01*
X4500935Y23193749D01*
X4392076Y23302608D01*
X4392076Y23443562D01*
X4325535Y23482212D01*
X4286886Y23548751D01*
X4145932Y23548751D01*
X4037073Y23657610D01*
X3857465Y23478002D01*
X3829183Y23478002D01*
X3649575Y23657610D01*
X3540716Y23548751D01*
X3399762Y23548751D01*
X3353840Y23469691D01*
X1527000Y23469691D01*
X1527000Y23823000D01*
X2874119Y23823000D01*
X2900000Y23820451D01*
X2925881Y23823000D01*
X3003310Y23830626D01*
X3102650Y23860761D01*
X3127065Y23873811D01*
X3353840Y23873811D01*
X3399762Y23794751D01*
X3540716Y23794751D01*
X3649575Y23685892D01*
X3829183Y23865500D01*
X3857465Y23865500D01*
X4037073Y23685892D01*
X4145932Y23794751D01*
X4286886Y23794751D01*
X4332808Y23873811D01*
X4295324Y23944143D01*
X4313443Y23962262D01*
X4382547Y23925218D01*
X4383726Y23924730D01*
X4462786Y23970652D01*
X4462786Y24111606D01*
X4571645Y24220465D01*
X4599927Y24220465D01*
X4708786Y24111606D01*
X4708786Y23970652D01*
X4775326Y23932002D01*
X4813976Y23865462D01*
X4954930Y23865462D01*
X5063789Y23756603D01*
X5243397Y23936211D01*
X5271679Y23936211D01*
X5451287Y23756603D01*
X5560146Y23865462D01*
X5701100Y23865462D01*
X5747022Y23944522D01*
X5709538Y24014854D01*
X5727656Y24032972D01*
X5796761Y23995928D01*
X5797940Y23995440D01*
X5877000Y24041362D01*
X5877000Y24182316D01*
X5985859Y24291175D01*
X6014141Y24291175D01*
X6123000Y24182316D01*
X6123000Y24041362D01*
X6202060Y23995440D01*
X6272392Y24032924D01*
X6290510Y24014806D01*
X6253466Y23945701D01*
X6252978Y23944522D01*
X6298900Y23865462D01*
X6439854Y23865462D01*
X6548713Y23756603D01*
X6728321Y23936211D01*
X6756603Y23936211D01*
X6936211Y23756603D01*
X7045070Y23865462D01*
X7186024Y23865462D01*
X7224674Y23932002D01*
X7291214Y23970652D01*
X7291214Y24111606D01*
X7400073Y24220465D01*
X7428355Y24220465D01*
X7537214Y24111606D01*
X7537214Y23970652D01*
X7616274Y23924730D01*
X7686606Y23962214D01*
X7692859Y23955961D01*
X7692858Y23955961D01*
X7704724Y23944095D01*
X7667680Y23874990D01*
X7667192Y23873811D01*
X7713114Y23794751D01*
X7854068Y23794751D01*
X7962927Y23685892D01*
X8142535Y23865500D01*
X8170817Y23865500D01*
X8350425Y23685892D01*
X8459284Y23794751D01*
X8600238Y23794751D01*
X8646160Y23873811D01*
X8608676Y23944143D01*
X8620494Y23955961D01*
X8535494Y24040961D01*
X8531575Y24045748D01*
X8526679Y24049776D01*
X8440886Y24135569D01*
X8429020Y24123703D01*
X8359915Y24160747D01*
X8358736Y24161235D01*
X8279676Y24115313D01*
X8279676Y23974359D01*
X8170817Y23865500D01*
X8142535Y23865500D01*
X8033676Y23974359D01*
X8033676Y24115313D01*
X7954616Y24161235D01*
X7884284Y24123751D01*
X7878032Y24130003D01*
X7878032Y24130004D01*
X7866166Y24141870D01*
X7903210Y24210975D01*
X7903698Y24212154D01*
X7857776Y24291214D01*
X7716822Y24291214D01*
X7607963Y24400073D01*
X7428355Y24220465D01*
X7400073Y24220465D01*
X7220465Y24400073D01*
X7111606Y24291214D01*
X6970652Y24291214D01*
X6932002Y24224674D01*
X6865462Y24186024D01*
X6865462Y24045070D01*
X6756603Y23936211D01*
X6728321Y23936211D01*
X6619462Y24045070D01*
X6619462Y24186024D01*
X6540402Y24231946D01*
X6470070Y24194462D01*
X6451952Y24212580D01*
X6488996Y24281685D01*
X6489484Y24282864D01*
X6443562Y24361924D01*
X6302608Y24361924D01*
X6193749Y24470783D01*
X6014141Y24291175D01*
X5985859Y24291175D01*
X5806251Y24470783D01*
X5697392Y24361924D01*
X5556438Y24361924D01*
X5510516Y24282864D01*
X5548000Y24212532D01*
X5529882Y24194414D01*
X5460777Y24231458D01*
X5459598Y24231946D01*
X5380538Y24186024D01*
X5380538Y24045070D01*
X5271679Y23936211D01*
X5243397Y23936211D01*
X5134538Y24045070D01*
X5134538Y24186024D01*
X5067998Y24224674D01*
X5029348Y24291214D01*
X4888394Y24291214D01*
X4779535Y24400073D01*
X4599927Y24220465D01*
X4571645Y24220465D01*
X4392037Y24400073D01*
X4283178Y24291214D01*
X4142224Y24291214D01*
X4096302Y24212154D01*
X4133786Y24141822D01*
X4121968Y24130004D01*
X4121969Y24130003D01*
X4115668Y24123702D01*
X4046563Y24160747D01*
X4045384Y24161235D01*
X3966324Y24115313D01*
X3966324Y23974359D01*
X3857465Y23865500D01*
X3829183Y23865500D01*
X3720324Y23974359D01*
X3720324Y24115313D01*
X3641264Y24161235D01*
X3570932Y24123751D01*
X3559114Y24135569D01*
X3474114Y24050569D01*
X3469327Y24046650D01*
X3465299Y24041754D01*
X3379506Y23955961D01*
X3391372Y23944095D01*
X3354328Y23874990D01*
X3353840Y23873811D01*
X3127065Y23873811D01*
X3194202Y23909696D01*
X3274448Y23975552D01*
X3290955Y23995666D01*
X3911563Y24616274D01*
X4096302Y24616274D01*
X4142224Y24537214D01*
X4283178Y24537214D01*
X4392037Y24428355D01*
X4571645Y24607963D01*
X4599927Y24607963D01*
X4779535Y24428355D01*
X4888394Y24537214D01*
X5029348Y24537214D01*
X5075270Y24616274D01*
X5037786Y24686605D01*
X5055905Y24704724D01*
X5125010Y24667680D01*
X5126189Y24667192D01*
X5205249Y24713114D01*
X5205249Y24854068D01*
X5314108Y24962927D01*
X5342390Y24962927D01*
X5451249Y24854068D01*
X5451249Y24713114D01*
X5517788Y24674465D01*
X5556438Y24607924D01*
X5697392Y24607924D01*
X5806251Y24499065D01*
X5985859Y24678673D01*
X6014141Y24678673D01*
X6193749Y24499065D01*
X6302608Y24607924D01*
X6443562Y24607924D01*
X6482212Y24674465D01*
X6548751Y24713114D01*
X6548751Y24854067D01*
X6657610Y24962927D01*
X6685892Y24962927D01*
X6794751Y24854068D01*
X6794751Y24713114D01*
X6873811Y24667192D01*
X6944143Y24704676D01*
X6955961Y24692858D01*
X6955962Y24692858D01*
X6962262Y24686558D01*
X6925218Y24617453D01*
X6924730Y24616274D01*
X6970652Y24537214D01*
X7111606Y24537214D01*
X7220465Y24428355D01*
X7400073Y24607963D01*
X7428355Y24607963D01*
X7607963Y24428355D01*
X7716822Y24537214D01*
X7857776Y24537214D01*
X7903698Y24616274D01*
X7866214Y24686606D01*
X7878032Y24698424D01*
X7793032Y24783424D01*
X7789113Y24788211D01*
X7784217Y24792239D01*
X7698424Y24878032D01*
X7686558Y24866166D01*
X7617453Y24903210D01*
X7616274Y24903698D01*
X7537214Y24857776D01*
X7537214Y24716822D01*
X7428355Y24607963D01*
X7400073Y24607963D01*
X7291214Y24716822D01*
X7291214Y24857776D01*
X7212154Y24903698D01*
X7141822Y24866214D01*
X7130004Y24878032D01*
X7130004Y24878031D01*
X7123703Y24884332D01*
X7160747Y24953437D01*
X7161235Y24954616D01*
X7115313Y25033676D01*
X6974359Y25033676D01*
X6865500Y25142535D01*
X6685892Y24962927D01*
X6657610Y24962927D01*
X6478002Y25142535D01*
X6369143Y25033676D01*
X6228189Y25033676D01*
X6189539Y24967135D01*
X6123000Y24928486D01*
X6123000Y24787531D01*
X6014141Y24678673D01*
X5985859Y24678673D01*
X5877000Y24787532D01*
X5877000Y24928486D01*
X5810461Y24967135D01*
X5771811Y25033676D01*
X5630857Y25033676D01*
X5521998Y25142535D01*
X5342390Y24962927D01*
X5314108Y24962927D01*
X5134500Y25142535D01*
X5025641Y25033676D01*
X4884687Y25033676D01*
X4838765Y24954616D01*
X4876249Y24884283D01*
X4869997Y24878031D01*
X4869996Y24878032D01*
X4858130Y24866166D01*
X4789025Y24903210D01*
X4787846Y24903698D01*
X4708786Y24857776D01*
X4708786Y24716822D01*
X4599927Y24607963D01*
X4571645Y24607963D01*
X4462786Y24716822D01*
X4462786Y24857776D01*
X4383726Y24903698D01*
X4313394Y24866214D01*
X4301576Y24878032D01*
X4216576Y24793032D01*
X4211789Y24789113D01*
X4207761Y24784217D01*
X4121968Y24698424D01*
X4133834Y24686558D01*
X4096790Y24617453D01*
X4096302Y24616274D01*
X3911563Y24616274D01*
X4654025Y25358736D01*
X4838765Y25358736D01*
X4884687Y25279676D01*
X5025641Y25279676D01*
X5134500Y25170817D01*
X5314108Y25350425D01*
X5342390Y25350425D01*
X5521998Y25170817D01*
X5630857Y25279676D01*
X5771811Y25279676D01*
X5817733Y25358736D01*
X6182267Y25358736D01*
X6228189Y25279676D01*
X6369143Y25279676D01*
X6478002Y25170817D01*
X6657610Y25350425D01*
X6685892Y25350425D01*
X6865500Y25170817D01*
X6974359Y25279676D01*
X7115313Y25279676D01*
X7161235Y25358736D01*
X7123751Y25429068D01*
X7135569Y25440886D01*
X7050569Y25525886D01*
X7046650Y25530673D01*
X7041754Y25534701D01*
X6955961Y25620494D01*
X6944095Y25608628D01*
X6874990Y25645672D01*
X6873811Y25646160D01*
X6794751Y25600238D01*
X6794751Y25459284D01*
X6685892Y25350425D01*
X6657610Y25350425D01*
X6548751Y25459284D01*
X6548751Y25600238D01*
X6469691Y25646160D01*
X6399359Y25608676D01*
X6387541Y25620494D01*
X6302541Y25535494D01*
X6297754Y25531575D01*
X6293726Y25526679D01*
X6207933Y25440886D01*
X6219799Y25429020D01*
X6182755Y25359915D01*
X6182267Y25358736D01*
X5817733Y25358736D01*
X5780249Y25429068D01*
X5792067Y25440886D01*
X5707067Y25525886D01*
X5703148Y25530673D01*
X5698252Y25534701D01*
X5612459Y25620494D01*
X5600593Y25608628D01*
X5531488Y25645672D01*
X5530309Y25646160D01*
X5451249Y25600238D01*
X5451249Y25459284D01*
X5342390Y25350425D01*
X5314108Y25350425D01*
X5205249Y25459284D01*
X5205249Y25600238D01*
X5126189Y25646160D01*
X5055857Y25608676D01*
X5044039Y25620494D01*
X4959039Y25535494D01*
X4954252Y25531575D01*
X4950224Y25526679D01*
X4864431Y25440886D01*
X4876297Y25429020D01*
X4839253Y25359915D01*
X4838765Y25358736D01*
X4654025Y25358736D01*
X5418290Y26123000D01*
X8306711Y26123000D01*
X8537038Y25892673D01*
X8547095Y25842111D01*
X8594360Y25728004D01*
X8662977Y25625311D01*
X8750311Y25537977D01*
X8853004Y25469360D01*
X8967111Y25422095D01*
X9017672Y25412038D01*
X9123001Y25306709D01*
X9123000Y18025881D01*
X9120451Y18000000D01*
X9123000Y17974120D01*
X9130626Y17896691D01*
X9160761Y17797351D01*
X9209696Y17705798D01*
X9275552Y17625552D01*
X9295666Y17609045D01*
X10807743Y16096967D01*
X10062777Y15352000D01*
X9188152Y15352000D01*
X9255640Y15453004D01*
X9302905Y15567111D01*
X9327000Y15688246D01*
X9327000Y15811754D01*
X9302905Y15932889D01*
X9255640Y16046996D01*
X9187023Y16149689D01*
X9099689Y16237023D01*
X8996996Y16305640D01*
X8882889Y16352905D01*
X8761754Y16377000D01*
X8638246Y16377000D01*
X8517111Y16352905D01*
X8403004Y16305640D01*
X8300311Y16237023D01*
X8212977Y16149689D01*
X8144360Y16046996D01*
X8097095Y15932889D01*
X8073000Y15811754D01*
X8073000Y15688246D01*
X8097095Y15567111D01*
X8144360Y15453004D01*
X8179380Y15400593D01*
X8096996Y15455640D01*
X7982889Y15502905D01*
X7861754Y15527000D01*
X7738246Y15527000D01*
X7617111Y15502905D01*
X7503004Y15455640D01*
X7400311Y15387023D01*
X7312977Y15299689D01*
X7244360Y15196996D01*
X7197095Y15082889D01*
X7173000Y14961754D01*
X7173000Y14838246D01*
X7197095Y14717111D01*
X7244360Y14603004D01*
X7312977Y14500311D01*
X7400311Y14412977D01*
X7503004Y14344360D01*
X7617111Y14297095D01*
X7738246Y14273000D01*
X7861754Y14273000D01*
X7982889Y14297095D01*
X8096996Y14344360D01*
X8199689Y14412977D01*
X8234712Y14448000D01*
X10020013Y14448000D01*
X10002417Y14446267D01*
X9884545Y14410510D01*
X9775913Y14352446D01*
X9680697Y14274303D01*
X9602554Y14179087D01*
X9544490Y14070455D01*
X9508733Y13952583D01*
X9496660Y13830000D01*
X9496660Y12430000D01*
X9508733Y12307417D01*
X9544490Y12189545D01*
X9602554Y12080913D01*
X9680697Y11985697D01*
X9775913Y11907554D01*
X9884545Y11849490D01*
X10002417Y11813733D01*
X10125000Y11801660D01*
X10825000Y11801660D01*
X10947583Y11813733D01*
X11065455Y11849490D01*
X11174087Y11907554D01*
X11269303Y11985697D01*
X11347446Y12080913D01*
X11405510Y12189545D01*
X11441267Y12307417D01*
X11453340Y12430000D01*
X11453340Y12659292D01*
X11498000Y12659292D01*
X11498000Y12540708D01*
X11521134Y12424403D01*
X11566514Y12314846D01*
X11632396Y12216247D01*
X11716247Y12132396D01*
X11814846Y12066514D01*
X11924403Y12021134D01*
X12040708Y11998000D01*
X12159292Y11998000D01*
X12275597Y12021134D01*
X12385154Y12066514D01*
X12483753Y12132396D01*
X12567604Y12216247D01*
X12633486Y12314846D01*
X12678866Y12424403D01*
X12681322Y12436754D01*
X13448000Y12436754D01*
X13448000Y12313246D01*
X13472095Y12192111D01*
X13519360Y12078004D01*
X13587977Y11975311D01*
X13675311Y11887977D01*
X13778004Y11819360D01*
X13892111Y11772095D01*
X14013246Y11748000D01*
X14136754Y11748000D01*
X14257889Y11772095D01*
X14371996Y11819360D01*
X14474689Y11887977D01*
X14500000Y11913288D01*
X14525311Y11887977D01*
X14628004Y11819360D01*
X14742111Y11772095D01*
X14863246Y11748000D01*
X14986754Y11748000D01*
X15107889Y11772095D01*
X15221996Y11819360D01*
X15324689Y11887977D01*
X15412023Y11975311D01*
X15480640Y12078004D01*
X15527905Y12192111D01*
X15552000Y12313246D01*
X15552000Y12436754D01*
X15527905Y12557889D01*
X15485903Y12659292D01*
X17298000Y12659292D01*
X17298000Y12540708D01*
X17321134Y12424403D01*
X17366514Y12314846D01*
X17432396Y12216247D01*
X17516247Y12132396D01*
X17614846Y12066514D01*
X17724403Y12021134D01*
X17840708Y11998000D01*
X17959292Y11998000D01*
X18075597Y12021134D01*
X18185154Y12066514D01*
X18283753Y12132396D01*
X18367604Y12216247D01*
X18433486Y12314846D01*
X18478866Y12424403D01*
X18502000Y12540708D01*
X18502000Y12659292D01*
X18478866Y12775597D01*
X18433486Y12885154D01*
X18367604Y12983753D01*
X18283753Y13067604D01*
X18185154Y13133486D01*
X18075597Y13178866D01*
X17959292Y13202000D01*
X17840708Y13202000D01*
X17724403Y13178866D01*
X17614846Y13133486D01*
X17516247Y13067604D01*
X17432396Y12983753D01*
X17366514Y12885154D01*
X17321134Y12775597D01*
X17298000Y12659292D01*
X15485903Y12659292D01*
X15480640Y12671996D01*
X15412023Y12774689D01*
X15324689Y12862023D01*
X15221996Y12930640D01*
X15107889Y12977905D01*
X14986754Y13002000D01*
X14863246Y13002000D01*
X14742111Y12977905D01*
X14628004Y12930640D01*
X14525311Y12862023D01*
X14500000Y12836712D01*
X14474689Y12862023D01*
X14371996Y12930640D01*
X14257889Y12977905D01*
X14136754Y13002000D01*
X14013246Y13002000D01*
X13892111Y12977905D01*
X13778004Y12930640D01*
X13675311Y12862023D01*
X13587977Y12774689D01*
X13519360Y12671996D01*
X13472095Y12557889D01*
X13448000Y12436754D01*
X12681322Y12436754D01*
X12702000Y12540708D01*
X12702000Y12659292D01*
X12678866Y12775597D01*
X12633486Y12885154D01*
X12567604Y12983753D01*
X12483753Y13067604D01*
X12385154Y13133486D01*
X12275597Y13178866D01*
X12159292Y13202000D01*
X12040708Y13202000D01*
X11924403Y13178866D01*
X11814846Y13133486D01*
X11716247Y13067604D01*
X11632396Y12983753D01*
X11566514Y12885154D01*
X11521134Y12775597D01*
X11498000Y12659292D01*
X11453340Y12659292D01*
X11453340Y13830000D01*
X18546660Y13830000D01*
X18546660Y12430000D01*
X18558733Y12307417D01*
X18594490Y12189545D01*
X18652554Y12080913D01*
X18730697Y11985697D01*
X18825913Y11907554D01*
X18934545Y11849490D01*
X19052417Y11813733D01*
X19175000Y11801660D01*
X19875000Y11801660D01*
X19997583Y11813733D01*
X20115455Y11849490D01*
X20224087Y11907554D01*
X20319303Y11985697D01*
X20397446Y12080913D01*
X20455510Y12189545D01*
X20491267Y12307417D01*
X20503340Y12430000D01*
X20503340Y13830000D01*
X20491267Y13952583D01*
X20455510Y14070455D01*
X20397446Y14179087D01*
X20319303Y14274303D01*
X20224087Y14352446D01*
X20115455Y14410510D01*
X19997583Y14446267D01*
X19875000Y14458340D01*
X19175000Y14458340D01*
X19052417Y14446267D01*
X18934545Y14410510D01*
X18825913Y14352446D01*
X18730697Y14274303D01*
X18652554Y14179087D01*
X18594490Y14070455D01*
X18558733Y13952583D01*
X18546660Y13830000D01*
X11453340Y13830000D01*
X11441267Y13952583D01*
X11405510Y14070455D01*
X11347446Y14179087D01*
X11269303Y14274303D01*
X11174087Y14352446D01*
X11065455Y14410510D01*
X10947583Y14446267D01*
X10825000Y14458340D01*
X10351134Y14458340D01*
X10423810Y14480386D01*
X10502333Y14522357D01*
X10571159Y14578841D01*
X10585323Y14596100D01*
X11220026Y15230803D01*
X18937124Y15230803D01*
X18937124Y15097445D01*
X18963140Y14966650D01*
X19014174Y14843444D01*
X19088264Y14732561D01*
X19182561Y14638264D01*
X19293444Y14564174D01*
X19416650Y14513140D01*
X19547445Y14487124D01*
X19680803Y14487124D01*
X19811598Y14513140D01*
X19934804Y14564174D01*
X20045687Y14638264D01*
X20139984Y14732561D01*
X20214074Y14843444D01*
X20265108Y14966650D01*
X20291124Y15097445D01*
X20291124Y15158876D01*
X20352555Y15158876D01*
X20483350Y15184892D01*
X20606556Y15235926D01*
X20717439Y15310016D01*
X20811736Y15404313D01*
X20885826Y15515196D01*
X20936860Y15638402D01*
X20962876Y15769197D01*
X20962876Y15902555D01*
X20936860Y16033350D01*
X20885826Y16156556D01*
X20811736Y16267439D01*
X20717439Y16361736D01*
X20606556Y16435826D01*
X20483350Y16486860D01*
X20352555Y16512876D01*
X20219197Y16512876D01*
X20088402Y16486860D01*
X19965196Y16435826D01*
X19854313Y16361736D01*
X19760016Y16267439D01*
X19685926Y16156556D01*
X19634892Y16033350D01*
X19608876Y15902555D01*
X19608876Y15841124D01*
X19547445Y15841124D01*
X19416650Y15815108D01*
X19293444Y15764074D01*
X19182561Y15689984D01*
X19088264Y15595687D01*
X19014174Y15484804D01*
X18963140Y15361598D01*
X18937124Y15230803D01*
X11220026Y15230803D01*
X11462224Y15473000D01*
X11566679Y15473000D01*
X11697474Y15499016D01*
X11820680Y15550050D01*
X11931563Y15624140D01*
X12025860Y15718437D01*
X12099950Y15829320D01*
X12150984Y15952526D01*
X12159043Y15993042D01*
X12689001Y16523000D01*
X21760999Y16523000D01*
X21840957Y16443042D01*
X21849016Y16402526D01*
X21900050Y16279320D01*
X21973000Y16170143D01*
X21973001Y12535891D01*
X21970451Y12510000D01*
X21980626Y12406691D01*
X22010761Y12307351D01*
X22010762Y12307350D01*
X22059697Y12215798D01*
X22125553Y12135552D01*
X22145662Y12119049D01*
X24629141Y9635568D01*
X24626310Y9628734D01*
X24583000Y9411000D01*
X24583000Y9189000D01*
X24626310Y8971266D01*
X24711266Y8766165D01*
X24834602Y8581579D01*
X24991579Y8424602D01*
X25176165Y8301266D01*
X25381266Y8216310D01*
X25599000Y8173000D01*
X25821000Y8173000D01*
X26038734Y8216310D01*
X26243835Y8301266D01*
X26428421Y8424602D01*
X26453819Y8450000D01*
X27121660Y8450000D01*
X27127008Y8395699D01*
X27142847Y8343484D01*
X27168569Y8295363D01*
X27203184Y8253184D01*
X27245363Y8218569D01*
X27293484Y8192847D01*
X27345699Y8177008D01*
X27400000Y8171660D01*
X28053750Y8173000D01*
X28123000Y8242250D01*
X28123000Y9173000D01*
X28377000Y9173000D01*
X28377000Y8242250D01*
X28446250Y8173000D01*
X29100000Y8171660D01*
X29154301Y8177008D01*
X29206516Y8192847D01*
X29254637Y8218569D01*
X29296816Y8253184D01*
X29331431Y8295363D01*
X29357153Y8343484D01*
X29372992Y8395699D01*
X29378340Y8450000D01*
X29377000Y9103750D01*
X29307750Y9173000D01*
X28377000Y9173000D01*
X28123000Y9173000D01*
X27192250Y9173000D01*
X27123000Y9103750D01*
X27121660Y8450000D01*
X26453819Y8450000D01*
X26585398Y8581579D01*
X26708734Y8766165D01*
X26793690Y8971266D01*
X26837000Y9189000D01*
X26837000Y9411000D01*
X26793690Y9628734D01*
X26708734Y9833835D01*
X26585398Y10018421D01*
X26453819Y10150000D01*
X27121660Y10150000D01*
X27123000Y9496250D01*
X27192250Y9427000D01*
X28123000Y9427000D01*
X28123000Y10357750D01*
X28377000Y10357750D01*
X28377000Y9427000D01*
X29307750Y9427000D01*
X29377000Y9496250D01*
X29378340Y10150000D01*
X29372992Y10204301D01*
X29357153Y10256516D01*
X29331431Y10304637D01*
X29296816Y10346816D01*
X29254637Y10381431D01*
X29206516Y10407153D01*
X29154301Y10422992D01*
X29100000Y10428340D01*
X28446250Y10427000D01*
X28377000Y10357750D01*
X28123000Y10357750D01*
X28053750Y10427000D01*
X27400000Y10428340D01*
X27345699Y10422992D01*
X27293484Y10407153D01*
X27245363Y10381431D01*
X27203184Y10346816D01*
X27168569Y10304637D01*
X27142847Y10256516D01*
X27127008Y10204301D01*
X27121660Y10150000D01*
X26453819Y10150000D01*
X26428421Y10175398D01*
X26243835Y10298734D01*
X26038734Y10383690D01*
X25821000Y10427000D01*
X25599000Y10427000D01*
X25381266Y10383690D01*
X25374432Y10380859D01*
X23027000Y12728289D01*
X23027000Y16170143D01*
X23099950Y16279320D01*
X23150984Y16402526D01*
X23177000Y16533321D01*
X23177000Y16666679D01*
X23150984Y16797474D01*
X23099950Y16920680D01*
X23025860Y17031563D01*
X22931563Y17125860D01*
X22820680Y17199950D01*
X22697474Y17250984D01*
X22656958Y17259043D01*
X22452000Y17464001D01*
X22452000Y19102795D01*
X22454187Y19125000D01*
X22445460Y19213608D01*
X22419614Y19298810D01*
X22419144Y19299689D01*
X22377643Y19377333D01*
X22321159Y19446159D01*
X22303906Y19460318D01*
X21602000Y20162223D01*
X21602000Y22915288D01*
X21637023Y22950311D01*
X21705640Y23053004D01*
X21752905Y23167111D01*
X21777000Y23288246D01*
X21777000Y23411754D01*
X21752905Y23532889D01*
X21705640Y23646996D01*
X21637023Y23749689D01*
X21549689Y23837023D01*
X21446996Y23905640D01*
X21332889Y23952905D01*
X21211754Y23977000D01*
X21088246Y23977000D01*
X20967111Y23952905D01*
X20853004Y23905640D01*
X20750311Y23837023D01*
X20662977Y23749689D01*
X20594360Y23646996D01*
X20547095Y23532889D01*
X20523000Y23411754D01*
X20523000Y23288246D01*
X20547095Y23167111D01*
X20594360Y23053004D01*
X20662977Y22950311D01*
X20698000Y22915288D01*
X20698001Y19997215D01*
X20695813Y19975000D01*
X20704540Y19886393D01*
X20730386Y19801191D01*
X20760763Y19744360D01*
X20772358Y19722667D01*
X20828842Y19653841D01*
X20846096Y19639681D01*
X21548000Y18937776D01*
X21548001Y17677000D01*
X12977000Y17677000D01*
X12977000Y20654155D01*
X13012977Y20600311D01*
X13100311Y20512977D01*
X13203004Y20444360D01*
X13317111Y20397095D01*
X13438246Y20373000D01*
X13561754Y20373000D01*
X13575792Y20375792D01*
X13573000Y20361754D01*
X13573000Y20238246D01*
X13597095Y20117111D01*
X13644360Y20003004D01*
X13712977Y19900311D01*
X13800311Y19812977D01*
X13903004Y19744360D01*
X14017111Y19697095D01*
X14138246Y19673000D01*
X14261754Y19673000D01*
X14382889Y19697095D01*
X14496996Y19744360D01*
X14599689Y19812977D01*
X14687023Y19900311D01*
X14755640Y20003004D01*
X14800686Y20111754D01*
X17473000Y20111754D01*
X17473000Y19988246D01*
X17497095Y19867111D01*
X17544360Y19753004D01*
X17612977Y19650311D01*
X17700311Y19562977D01*
X17803004Y19494360D01*
X17917111Y19447095D01*
X18038246Y19423000D01*
X18161754Y19423000D01*
X18282889Y19447095D01*
X18396996Y19494360D01*
X18499689Y19562977D01*
X18525000Y19588288D01*
X18550311Y19562977D01*
X18653004Y19494360D01*
X18767111Y19447095D01*
X18888246Y19423000D01*
X19011754Y19423000D01*
X19132889Y19447095D01*
X19246996Y19494360D01*
X19349689Y19562977D01*
X19437023Y19650311D01*
X19505640Y19753004D01*
X19552905Y19867111D01*
X19577000Y19988246D01*
X19577000Y20111754D01*
X19552905Y20232889D01*
X19505640Y20346996D01*
X19437023Y20449689D01*
X19349689Y20537023D01*
X19246996Y20605640D01*
X19132889Y20652905D01*
X19011754Y20677000D01*
X18888246Y20677000D01*
X18767111Y20652905D01*
X18653004Y20605640D01*
X18550311Y20537023D01*
X18525000Y20511712D01*
X18499689Y20537023D01*
X18396996Y20605640D01*
X18282889Y20652905D01*
X18161754Y20677000D01*
X18038246Y20677000D01*
X17917111Y20652905D01*
X17803004Y20605640D01*
X17700311Y20537023D01*
X17612977Y20449689D01*
X17544360Y20346996D01*
X17497095Y20232889D01*
X17473000Y20111754D01*
X14800686Y20111754D01*
X14802905Y20117111D01*
X14827000Y20238246D01*
X14827000Y20361754D01*
X14802905Y20482889D01*
X14755640Y20596996D01*
X14687023Y20699689D01*
X14599689Y20787023D01*
X14496996Y20855640D01*
X14382889Y20902905D01*
X14261754Y20927000D01*
X14138246Y20927000D01*
X14124208Y20924208D01*
X14127000Y20938246D01*
X14127000Y21061754D01*
X14102905Y21182889D01*
X14055640Y21296996D01*
X13987023Y21399689D01*
X13899689Y21487023D01*
X13796996Y21555640D01*
X13682889Y21602905D01*
X13561754Y21627000D01*
X13438246Y21627000D01*
X13317111Y21602905D01*
X13203004Y21555640D01*
X13100311Y21487023D01*
X13012977Y21399689D01*
X12977000Y21345845D01*
X12977000Y23611754D01*
X14223000Y23611754D01*
X14223000Y23488246D01*
X14247095Y23367111D01*
X14294360Y23253004D01*
X14362977Y23150311D01*
X14450311Y23062977D01*
X14553004Y22994360D01*
X14667111Y22947095D01*
X14788246Y22923000D01*
X14911754Y22923000D01*
X15032889Y22947095D01*
X15146996Y22994360D01*
X15249689Y23062977D01*
X15337023Y23150311D01*
X15405640Y23253004D01*
X15452905Y23367111D01*
X15477000Y23488246D01*
X15477000Y23611754D01*
X15452905Y23732889D01*
X15405640Y23846996D01*
X15337023Y23949689D01*
X15249689Y24037023D01*
X15146996Y24105640D01*
X15032889Y24152905D01*
X14911754Y24177000D01*
X14788246Y24177000D01*
X14667111Y24152905D01*
X14553004Y24105640D01*
X14450311Y24037023D01*
X14362977Y23949689D01*
X14294360Y23846996D01*
X14247095Y23732889D01*
X14223000Y23611754D01*
X12977000Y23611754D01*
X12977000Y25725774D01*
X13523000Y25725774D01*
X13523000Y25474226D01*
X13572074Y25227513D01*
X13668337Y24995114D01*
X13808089Y24785960D01*
X13985960Y24608089D01*
X14195114Y24468337D01*
X14427513Y24372074D01*
X14674226Y24323000D01*
X14925774Y24323000D01*
X15172487Y24372074D01*
X15404886Y24468337D01*
X15614040Y24608089D01*
X15791911Y24785960D01*
X15931663Y24995114D01*
X15994991Y25148000D01*
X21662777Y25148000D01*
X23398000Y23412775D01*
X23398001Y20287226D01*
X22796100Y19685323D01*
X22778841Y19671159D01*
X22722357Y19602332D01*
X22683449Y19529540D01*
X22680386Y19523809D01*
X22654540Y19438607D01*
X22645813Y19350000D01*
X22648000Y19327795D01*
X22648001Y17822215D01*
X22645813Y17800000D01*
X22654540Y17711393D01*
X22680386Y17626191D01*
X22703965Y17582078D01*
X22722358Y17547667D01*
X22778842Y17478841D01*
X22796095Y17464681D01*
X23398001Y16862774D01*
X23398000Y13722205D01*
X23395813Y13700000D01*
X23398000Y13677796D01*
X23404540Y13611394D01*
X23430386Y13526191D01*
X23472357Y13447668D01*
X23528841Y13378841D01*
X23546100Y13364677D01*
X24660207Y12250569D01*
X24626310Y12168734D01*
X24583000Y11951000D01*
X24583000Y11729000D01*
X24626310Y11511266D01*
X24711266Y11306165D01*
X24834602Y11121579D01*
X24991579Y10964602D01*
X25176165Y10841266D01*
X25381266Y10756310D01*
X25599000Y10713000D01*
X25821000Y10713000D01*
X26038734Y10756310D01*
X26243835Y10841266D01*
X26428421Y10964602D01*
X26585398Y11121579D01*
X26708734Y11306165D01*
X26793690Y11511266D01*
X26799283Y11539385D01*
X27163833Y11539385D01*
X27179866Y11486508D01*
X27269391Y11284527D01*
X27396601Y11103893D01*
X27556606Y10951547D01*
X27743258Y10833344D01*
X27949384Y10753826D01*
X28123000Y10789422D01*
X28123000Y11713000D01*
X28377000Y11713000D01*
X28377000Y10789422D01*
X28550616Y10753826D01*
X28756742Y10833344D01*
X28943394Y10951547D01*
X29103399Y11103893D01*
X29230609Y11284527D01*
X29320134Y11486508D01*
X29336167Y11539385D01*
X29300098Y11713000D01*
X28377000Y11713000D01*
X28123000Y11713000D01*
X27199902Y11713000D01*
X27163833Y11539385D01*
X26799283Y11539385D01*
X26837000Y11729000D01*
X26837000Y11951000D01*
X26799284Y12140615D01*
X27163833Y12140615D01*
X27199902Y11967000D01*
X28123000Y11967000D01*
X28123000Y12890578D01*
X28377000Y12890578D01*
X28377000Y11967000D01*
X29300098Y11967000D01*
X29336167Y12140615D01*
X29320134Y12193492D01*
X29230609Y12395473D01*
X29103399Y12576107D01*
X28943394Y12728453D01*
X28756742Y12846656D01*
X28550616Y12926174D01*
X28377000Y12890578D01*
X28123000Y12890578D01*
X27949384Y12926174D01*
X27743258Y12846656D01*
X27556606Y12728453D01*
X27396601Y12576107D01*
X27269391Y12395473D01*
X27179866Y12193492D01*
X27163833Y12140615D01*
X26799284Y12140615D01*
X26793690Y12168734D01*
X26708734Y12373835D01*
X26585398Y12558421D01*
X26428421Y12715398D01*
X26243835Y12838734D01*
X26038734Y12923690D01*
X25821000Y12967000D01*
X25599000Y12967000D01*
X25381266Y12923690D01*
X25299431Y12889793D01*
X24302000Y13887223D01*
X24302000Y14491000D01*
X24583000Y14491000D01*
X24583000Y14269000D01*
X24626310Y14051266D01*
X24711266Y13846165D01*
X24834602Y13661579D01*
X24991579Y13504602D01*
X25176165Y13381266D01*
X25381266Y13296310D01*
X25599000Y13253000D01*
X25821000Y13253000D01*
X26038734Y13296310D01*
X26243835Y13381266D01*
X26428421Y13504602D01*
X26585398Y13661579D01*
X26708734Y13846165D01*
X26793690Y14051266D01*
X26837000Y14269000D01*
X26837000Y14491000D01*
X27123000Y14491000D01*
X27123000Y14269000D01*
X27166310Y14051266D01*
X27251266Y13846165D01*
X27374602Y13661579D01*
X27531579Y13504602D01*
X27716165Y13381266D01*
X27921266Y13296310D01*
X28139000Y13253000D01*
X28361000Y13253000D01*
X28578734Y13296310D01*
X28783835Y13381266D01*
X28968421Y13504602D01*
X29125398Y13661579D01*
X29248734Y13846165D01*
X29333690Y14051266D01*
X29377000Y14269000D01*
X29377000Y14491000D01*
X29333690Y14708734D01*
X29248734Y14913835D01*
X29125398Y15098421D01*
X28968421Y15255398D01*
X28783835Y15378734D01*
X28578734Y15463690D01*
X28361000Y15507000D01*
X28139000Y15507000D01*
X27921266Y15463690D01*
X27716165Y15378734D01*
X27531579Y15255398D01*
X27374602Y15098421D01*
X27251266Y14913835D01*
X27166310Y14708734D01*
X27123000Y14491000D01*
X26837000Y14491000D01*
X26793690Y14708734D01*
X26708734Y14913835D01*
X26585398Y15098421D01*
X26428421Y15255398D01*
X26243835Y15378734D01*
X26038734Y15463690D01*
X25821000Y15507000D01*
X25599000Y15507000D01*
X25381266Y15463690D01*
X25176165Y15378734D01*
X24991579Y15255398D01*
X24834602Y15098421D01*
X24711266Y14913835D01*
X24626310Y14708734D01*
X24583000Y14491000D01*
X24302000Y14491000D01*
X24302000Y16619385D01*
X24623833Y16619385D01*
X24639866Y16566508D01*
X24729391Y16364527D01*
X24856601Y16183893D01*
X25016606Y16031547D01*
X25203258Y15913344D01*
X25409384Y15833826D01*
X25583000Y15869422D01*
X25583000Y16793000D01*
X25837000Y16793000D01*
X25837000Y15869422D01*
X26010616Y15833826D01*
X26216742Y15913344D01*
X26403394Y16031547D01*
X26563399Y16183893D01*
X26690609Y16364527D01*
X26780134Y16566508D01*
X26796167Y16619385D01*
X27163833Y16619385D01*
X27179866Y16566508D01*
X27269391Y16364527D01*
X27396601Y16183893D01*
X27556606Y16031547D01*
X27743258Y15913344D01*
X27949384Y15833826D01*
X28123000Y15869422D01*
X28123000Y16793000D01*
X28377000Y16793000D01*
X28377000Y15869422D01*
X28550616Y15833826D01*
X28756742Y15913344D01*
X28943394Y16031547D01*
X29103399Y16183893D01*
X29230609Y16364527D01*
X29320134Y16566508D01*
X29336167Y16619385D01*
X29300098Y16793000D01*
X28377000Y16793000D01*
X28123000Y16793000D01*
X27199902Y16793000D01*
X27163833Y16619385D01*
X26796167Y16619385D01*
X26760098Y16793000D01*
X25837000Y16793000D01*
X25583000Y16793000D01*
X24659902Y16793000D01*
X24623833Y16619385D01*
X24302000Y16619385D01*
X24302000Y17027796D01*
X24304187Y17050001D01*
X24295460Y17138608D01*
X24270584Y17220615D01*
X24623833Y17220615D01*
X24659902Y17047000D01*
X25583000Y17047000D01*
X25583000Y17970578D01*
X25837000Y17970578D01*
X25837000Y17047000D01*
X26760098Y17047000D01*
X26796167Y17220615D01*
X27163833Y17220615D01*
X27199902Y17047000D01*
X28123000Y17047000D01*
X28123000Y17970578D01*
X28377000Y17970578D01*
X28377000Y17047000D01*
X29300098Y17047000D01*
X29336167Y17220615D01*
X29320134Y17273492D01*
X29230609Y17475473D01*
X29103399Y17656107D01*
X28943394Y17808453D01*
X28756742Y17926656D01*
X28550616Y18006174D01*
X28377000Y17970578D01*
X28123000Y17970578D01*
X27949384Y18006174D01*
X27743258Y17926656D01*
X27556606Y17808453D01*
X27396601Y17656107D01*
X27269391Y17475473D01*
X27179866Y17273492D01*
X27163833Y17220615D01*
X26796167Y17220615D01*
X26780134Y17273492D01*
X26690609Y17475473D01*
X26563399Y17656107D01*
X26403394Y17808453D01*
X26216742Y17926656D01*
X26010616Y18006174D01*
X25837000Y17970578D01*
X25583000Y17970578D01*
X25409384Y18006174D01*
X25203258Y17926656D01*
X25016606Y17808453D01*
X24856601Y17656107D01*
X24729391Y17475473D01*
X24639866Y17273492D01*
X24623833Y17220615D01*
X24270584Y17220615D01*
X24269614Y17223810D01*
X24255089Y17250984D01*
X24227643Y17302333D01*
X24171159Y17371159D01*
X24153910Y17385315D01*
X23552000Y17987223D01*
X23552000Y19162777D01*
X23960224Y19571000D01*
X24583000Y19571000D01*
X24583000Y19349000D01*
X24626310Y19131266D01*
X24711266Y18926165D01*
X24834602Y18741579D01*
X24991579Y18584602D01*
X25176165Y18461266D01*
X25381266Y18376310D01*
X25599000Y18333000D01*
X25821000Y18333000D01*
X26038734Y18376310D01*
X26243835Y18461266D01*
X26428421Y18584602D01*
X26585398Y18741579D01*
X26708734Y18926165D01*
X26793690Y19131266D01*
X26837000Y19349000D01*
X26837000Y19571000D01*
X27123000Y19571000D01*
X27123000Y19349000D01*
X27166310Y19131266D01*
X27251266Y18926165D01*
X27374602Y18741579D01*
X27531579Y18584602D01*
X27716165Y18461266D01*
X27921266Y18376310D01*
X28139000Y18333000D01*
X28361000Y18333000D01*
X28578734Y18376310D01*
X28783835Y18461266D01*
X28968421Y18584602D01*
X29125398Y18741579D01*
X29248734Y18926165D01*
X29333690Y19131266D01*
X29377000Y19349000D01*
X29377000Y19571000D01*
X29333690Y19788734D01*
X29248734Y19993835D01*
X29125398Y20178421D01*
X28968421Y20335398D01*
X28783835Y20458734D01*
X28578734Y20543690D01*
X28361000Y20587000D01*
X28139000Y20587000D01*
X27921266Y20543690D01*
X27716165Y20458734D01*
X27531579Y20335398D01*
X27374602Y20178421D01*
X27251266Y19993835D01*
X27166310Y19788734D01*
X27123000Y19571000D01*
X26837000Y19571000D01*
X26793690Y19788734D01*
X26708734Y19993835D01*
X26585398Y20178421D01*
X26428421Y20335398D01*
X26243835Y20458734D01*
X26038734Y20543690D01*
X25821000Y20587000D01*
X25599000Y20587000D01*
X25381266Y20543690D01*
X25176165Y20458734D01*
X24991579Y20335398D01*
X24834602Y20178421D01*
X24711266Y19993835D01*
X24626310Y19788734D01*
X24583000Y19571000D01*
X23960224Y19571000D01*
X24153910Y19764685D01*
X24171159Y19778841D01*
X24227643Y19847667D01*
X24269614Y19926190D01*
X24284420Y19975000D01*
X24295460Y20011392D01*
X24304187Y20099999D01*
X24302000Y20122204D01*
X24302000Y22111000D01*
X24583000Y22111000D01*
X24583000Y21889000D01*
X24626310Y21671266D01*
X24711266Y21466165D01*
X24834602Y21281579D01*
X24991579Y21124602D01*
X25176165Y21001266D01*
X25381266Y20916310D01*
X25599000Y20873000D01*
X25821000Y20873000D01*
X26038734Y20916310D01*
X26243835Y21001266D01*
X26428421Y21124602D01*
X26585398Y21281579D01*
X26708734Y21466165D01*
X26793690Y21671266D01*
X26837000Y21889000D01*
X26837000Y22111000D01*
X27123000Y22111000D01*
X27123000Y21889000D01*
X27166310Y21671266D01*
X27251266Y21466165D01*
X27374602Y21281579D01*
X27531579Y21124602D01*
X27716165Y21001266D01*
X27921266Y20916310D01*
X28139000Y20873000D01*
X28361000Y20873000D01*
X28578734Y20916310D01*
X28783835Y21001266D01*
X28968421Y21124602D01*
X29125398Y21281579D01*
X29248734Y21466165D01*
X29333690Y21671266D01*
X29377000Y21889000D01*
X29377000Y22111000D01*
X29333690Y22328734D01*
X29248734Y22533835D01*
X29125398Y22718421D01*
X28968421Y22875398D01*
X28783835Y22998734D01*
X28578734Y23083690D01*
X28361000Y23127000D01*
X28139000Y23127000D01*
X27921266Y23083690D01*
X27716165Y22998734D01*
X27531579Y22875398D01*
X27374602Y22718421D01*
X27251266Y22533835D01*
X27166310Y22328734D01*
X27123000Y22111000D01*
X26837000Y22111000D01*
X26793690Y22328734D01*
X26708734Y22533835D01*
X26585398Y22718421D01*
X26428421Y22875398D01*
X26243835Y22998734D01*
X26038734Y23083690D01*
X25821000Y23127000D01*
X25599000Y23127000D01*
X25381266Y23083690D01*
X25176165Y22998734D01*
X24991579Y22875398D01*
X24834602Y22718421D01*
X24711266Y22533835D01*
X24626310Y22328734D01*
X24583000Y22111000D01*
X24302000Y22111000D01*
X24302000Y23577796D01*
X24304187Y23600001D01*
X24295460Y23688608D01*
X24269614Y23773810D01*
X24244081Y23821579D01*
X24227643Y23852333D01*
X24171159Y23921159D01*
X24153912Y23935313D01*
X23438225Y24651000D01*
X24583000Y24651000D01*
X24583000Y24429000D01*
X24626310Y24211266D01*
X24711266Y24006165D01*
X24834602Y23821579D01*
X24991579Y23664602D01*
X25176165Y23541266D01*
X25381266Y23456310D01*
X25599000Y23413000D01*
X25821000Y23413000D01*
X26038734Y23456310D01*
X26243835Y23541266D01*
X26428421Y23664602D01*
X26585398Y23821579D01*
X26708734Y24006165D01*
X26793690Y24211266D01*
X26837000Y24429000D01*
X26837000Y24651000D01*
X27123000Y24651000D01*
X27123000Y24429000D01*
X27166310Y24211266D01*
X27251266Y24006165D01*
X27374602Y23821579D01*
X27531579Y23664602D01*
X27716165Y23541266D01*
X27921266Y23456310D01*
X28139000Y23413000D01*
X28361000Y23413000D01*
X28578734Y23456310D01*
X28783835Y23541266D01*
X28968421Y23664602D01*
X29125398Y23821579D01*
X29248734Y24006165D01*
X29333690Y24211266D01*
X29377000Y24429000D01*
X29377000Y24651000D01*
X29333690Y24868734D01*
X29248734Y25073835D01*
X29125398Y25258421D01*
X28968421Y25415398D01*
X28783835Y25538734D01*
X28578734Y25623690D01*
X28361000Y25667000D01*
X28139000Y25667000D01*
X27921266Y25623690D01*
X27716165Y25538734D01*
X27531579Y25415398D01*
X27374602Y25258421D01*
X27251266Y25073835D01*
X27166310Y24868734D01*
X27123000Y24651000D01*
X26837000Y24651000D01*
X26793690Y24868734D01*
X26708734Y25073835D01*
X26585398Y25258421D01*
X26428421Y25415398D01*
X26243835Y25538734D01*
X26038734Y25623690D01*
X25821000Y25667000D01*
X25599000Y25667000D01*
X25381266Y25623690D01*
X25176165Y25538734D01*
X24991579Y25415398D01*
X24834602Y25258421D01*
X24711266Y25073835D01*
X24626310Y24868734D01*
X24583000Y24651000D01*
X23438225Y24651000D01*
X22327000Y25762223D01*
X22327000Y25972817D01*
X22349689Y25987977D01*
X22437023Y26075311D01*
X22505640Y26178004D01*
X22552905Y26292111D01*
X22577000Y26413246D01*
X22577000Y26536754D01*
X22552905Y26657889D01*
X22505640Y26771996D01*
X22437023Y26874689D01*
X22349689Y26962023D01*
X22246996Y27030640D01*
X22132889Y27077905D01*
X22011754Y27102000D01*
X21902000Y27102000D01*
X21902000Y27191000D01*
X24583000Y27191000D01*
X24583000Y26969000D01*
X24626310Y26751266D01*
X24711266Y26546165D01*
X24834602Y26361579D01*
X24991579Y26204602D01*
X25176165Y26081266D01*
X25381266Y25996310D01*
X25599000Y25953000D01*
X25821000Y25953000D01*
X26038734Y25996310D01*
X26243835Y26081266D01*
X26428421Y26204602D01*
X26585398Y26361579D01*
X26708734Y26546165D01*
X26793690Y26751266D01*
X26837000Y26969000D01*
X26837000Y27191000D01*
X27123000Y27191000D01*
X27123000Y26969000D01*
X27166310Y26751266D01*
X27251266Y26546165D01*
X27374602Y26361579D01*
X27531579Y26204602D01*
X27716165Y26081266D01*
X27921266Y25996310D01*
X28139000Y25953000D01*
X28361000Y25953000D01*
X28578734Y25996310D01*
X28783835Y26081266D01*
X28968421Y26204602D01*
X29125398Y26361579D01*
X29248734Y26546165D01*
X29333690Y26751266D01*
X29377000Y26969000D01*
X29377000Y27191000D01*
X29333690Y27408734D01*
X29248734Y27613835D01*
X29125398Y27798421D01*
X28968421Y27955398D01*
X28783835Y28078734D01*
X28578734Y28163690D01*
X28361000Y28207000D01*
X28139000Y28207000D01*
X27921266Y28163690D01*
X27716165Y28078734D01*
X27531579Y27955398D01*
X27374602Y27798421D01*
X27251266Y27613835D01*
X27166310Y27408734D01*
X27123000Y27191000D01*
X26837000Y27191000D01*
X26793690Y27408734D01*
X26708734Y27613835D01*
X26585398Y27798421D01*
X26428421Y27955398D01*
X26243835Y28078734D01*
X26038734Y28163690D01*
X25821000Y28207000D01*
X25599000Y28207000D01*
X25381266Y28163690D01*
X25176165Y28078734D01*
X24991579Y27955398D01*
X24834602Y27798421D01*
X24711266Y27613835D01*
X24626310Y27408734D01*
X24583000Y27191000D01*
X21902000Y27191000D01*
X21902000Y27211754D01*
X21877905Y27332889D01*
X21830640Y27446996D01*
X21762023Y27549689D01*
X21674689Y27637023D01*
X21571996Y27705640D01*
X21457889Y27752905D01*
X21336754Y27777000D01*
X21213246Y27777000D01*
X21092111Y27752905D01*
X20978004Y27705640D01*
X20875311Y27637023D01*
X20787977Y27549689D01*
X20719360Y27446996D01*
X20672095Y27332889D01*
X20648000Y27211754D01*
X20648000Y27088246D01*
X20672095Y26967111D01*
X20719360Y26853004D01*
X20787977Y26750311D01*
X20875311Y26662977D01*
X20978004Y26594360D01*
X21092111Y26547095D01*
X21213246Y26523000D01*
X21323000Y26523000D01*
X21323000Y26413246D01*
X21347095Y26292111D01*
X21394360Y26178004D01*
X21462977Y26075311D01*
X21486288Y26052000D01*
X15994991Y26052000D01*
X15931663Y26204886D01*
X15791911Y26414040D01*
X15614040Y26591911D01*
X15404886Y26731663D01*
X15172487Y26827926D01*
X14925774Y26877000D01*
X14674226Y26877000D01*
X14427513Y26827926D01*
X14195114Y26731663D01*
X13985960Y26591911D01*
X13808089Y26414040D01*
X13668337Y26204886D01*
X13572074Y25972487D01*
X13523000Y25725774D01*
X12977000Y25725774D01*
X12977000Y26581711D01*
X13457043Y27061754D01*
X18723000Y27061754D01*
X18723000Y26938246D01*
X18747095Y26817111D01*
X18794360Y26703004D01*
X18862977Y26600311D01*
X18950311Y26512977D01*
X19053004Y26444360D01*
X19167111Y26397095D01*
X19288246Y26373000D01*
X19411754Y26373000D01*
X19532889Y26397095D01*
X19646996Y26444360D01*
X19749689Y26512977D01*
X19837023Y26600311D01*
X19905640Y26703004D01*
X19952905Y26817111D01*
X19977000Y26938246D01*
X19977000Y27061754D01*
X19952905Y27182889D01*
X19905640Y27296996D01*
X19837023Y27399689D01*
X19749689Y27487023D01*
X19646996Y27555640D01*
X19532889Y27602905D01*
X19411754Y27627000D01*
X19288246Y27627000D01*
X19167111Y27602905D01*
X19053004Y27555640D01*
X18950311Y27487023D01*
X18862977Y27399689D01*
X18794360Y27296996D01*
X18747095Y27182889D01*
X18723000Y27061754D01*
X13457043Y27061754D01*
X16126289Y29731000D01*
X24583000Y29731000D01*
X24583000Y29509000D01*
X24626310Y29291266D01*
X24711266Y29086165D01*
X24834602Y28901579D01*
X24991579Y28744602D01*
X25176165Y28621266D01*
X25381266Y28536310D01*
X25599000Y28493000D01*
X25821000Y28493000D01*
X26038734Y28536310D01*
X26243835Y28621266D01*
X26428421Y28744602D01*
X26585398Y28901579D01*
X26708734Y29086165D01*
X26793690Y29291266D01*
X26837000Y29509000D01*
X26837000Y29731000D01*
X27123000Y29731000D01*
X27123000Y29509000D01*
X27166310Y29291266D01*
X27251266Y29086165D01*
X27374602Y28901579D01*
X27531579Y28744602D01*
X27716165Y28621266D01*
X27921266Y28536310D01*
X28139000Y28493000D01*
X28361000Y28493000D01*
X28578734Y28536310D01*
X28783835Y28621266D01*
X28968421Y28744602D01*
X29125398Y28901579D01*
X29248734Y29086165D01*
X29333690Y29291266D01*
X29377000Y29509000D01*
X29377000Y29731000D01*
X29333690Y29948734D01*
X29248734Y30153835D01*
X29125398Y30338421D01*
X28968421Y30495398D01*
X28783835Y30618734D01*
X28578734Y30703690D01*
X28361000Y30747000D01*
X28139000Y30747000D01*
X27921266Y30703690D01*
X27716165Y30618734D01*
X27531579Y30495398D01*
X27374602Y30338421D01*
X27251266Y30153835D01*
X27166310Y29948734D01*
X27123000Y29731000D01*
X26837000Y29731000D01*
X26793690Y29948734D01*
X26708734Y30153835D01*
X26585398Y30338421D01*
X26428421Y30495398D01*
X26243835Y30618734D01*
X26038734Y30703690D01*
X25821000Y30747000D01*
X25599000Y30747000D01*
X25381266Y30703690D01*
X25176165Y30618734D01*
X24991579Y30495398D01*
X24834602Y30338421D01*
X24711266Y30153835D01*
X24626310Y29948734D01*
X24583000Y29731000D01*
X16126289Y29731000D01*
X16818690Y30423400D01*
X16947474Y30449016D01*
X17070680Y30500050D01*
X17181563Y30574140D01*
X17275860Y30668437D01*
X17349950Y30779320D01*
X17400984Y30902526D01*
X17427000Y31033321D01*
X17427000Y31161754D01*
X18123000Y31161754D01*
X18123000Y31038246D01*
X18147095Y30917111D01*
X18194360Y30803004D01*
X18262977Y30700311D01*
X18350311Y30612977D01*
X18453004Y30544360D01*
X18567111Y30497095D01*
X18688246Y30473000D01*
X18811754Y30473000D01*
X18932889Y30497095D01*
X19046996Y30544360D01*
X19149689Y30612977D01*
X19237023Y30700311D01*
X19305640Y30803004D01*
X19352905Y30917111D01*
X19377000Y31038246D01*
X19377000Y31161754D01*
X22873000Y31161754D01*
X22873000Y31038246D01*
X22897095Y30917111D01*
X22944360Y30803004D01*
X23012977Y30700311D01*
X23100311Y30612977D01*
X23203004Y30544360D01*
X23317111Y30497095D01*
X23438246Y30473000D01*
X23561754Y30473000D01*
X23682889Y30497095D01*
X23796996Y30544360D01*
X23899689Y30612977D01*
X23987023Y30700311D01*
X24055640Y30803004D01*
X24102905Y30917111D01*
X24127000Y31038246D01*
X24127000Y31161754D01*
X24102905Y31282889D01*
X24055640Y31396996D01*
X23987023Y31499689D01*
X23899689Y31587023D01*
X23796996Y31655640D01*
X23682889Y31702905D01*
X23561754Y31727000D01*
X23438246Y31727000D01*
X23317111Y31702905D01*
X23203004Y31655640D01*
X23100311Y31587023D01*
X23012977Y31499689D01*
X22944360Y31396996D01*
X22897095Y31282889D01*
X22873000Y31161754D01*
X19377000Y31161754D01*
X19352905Y31282889D01*
X19305640Y31396996D01*
X19237023Y31499689D01*
X19149689Y31587023D01*
X19046996Y31655640D01*
X18932889Y31702905D01*
X18811754Y31727000D01*
X18688246Y31727000D01*
X18567111Y31702905D01*
X18453004Y31655640D01*
X18350311Y31587023D01*
X18262977Y31499689D01*
X18194360Y31396996D01*
X18147095Y31282889D01*
X18123000Y31161754D01*
X17427000Y31161754D01*
X17427000Y31166679D01*
X17400984Y31297474D01*
X17349950Y31420680D01*
X17277000Y31529857D01*
X17277000Y32181452D01*
X26573000Y32181452D01*
X26573000Y32018548D01*
X26604782Y31858773D01*
X26667123Y31708269D01*
X26757628Y31572819D01*
X26872819Y31457628D01*
X27008269Y31367123D01*
X27158773Y31304782D01*
X27318548Y31273000D01*
X27481452Y31273000D01*
X27641227Y31304782D01*
X27791731Y31367123D01*
X27927181Y31457628D01*
X28042372Y31572819D01*
X28132877Y31708269D01*
X28195218Y31858773D01*
X28227000Y32018548D01*
X28227000Y32181452D01*
X28195218Y32341227D01*
X28132877Y32491731D01*
X28042372Y32627181D01*
X27927181Y32742372D01*
X27791731Y32832877D01*
X27641227Y32895218D01*
X27481452Y32927000D01*
X27318548Y32927000D01*
X27158773Y32895218D01*
X27008269Y32832877D01*
X26872819Y32742372D01*
X26757628Y32627181D01*
X26667123Y32491731D01*
X26604782Y32341227D01*
X26573000Y32181452D01*
X17277000Y32181452D01*
X17277000Y32398000D01*
X22977795Y32398000D01*
X23000000Y32395813D01*
X23022205Y32398000D01*
X23088607Y32404540D01*
X23173810Y32430386D01*
X23252333Y32472357D01*
X23253116Y32473000D01*
X23311754Y32473000D01*
X23432889Y32497095D01*
X23546996Y32544360D01*
X23649689Y32612977D01*
X23737023Y32700311D01*
X23805640Y32803004D01*
X23852905Y32917111D01*
X23877000Y33038246D01*
X23877000Y33161754D01*
X23852905Y33282889D01*
X23805640Y33396996D01*
X23737023Y33499689D01*
X23649689Y33587023D01*
X23546996Y33655640D01*
X23432889Y33702905D01*
X23311754Y33727000D01*
X23188246Y33727000D01*
X23067111Y33702905D01*
X22953004Y33655640D01*
X22850311Y33587023D01*
X22762977Y33499689D01*
X22694360Y33396996D01*
X22655011Y33302000D01*
X17022320Y33302000D01*
X16952650Y33339239D01*
X16853310Y33369374D01*
X16750000Y33379549D01*
X16646691Y33369374D01*
X16547351Y33339239D01*
X16477681Y33302000D01*
X15987224Y33302000D01*
X14202847Y35086377D01*
X22623000Y35086377D01*
X22623000Y34913623D01*
X22656703Y34744189D01*
X22722813Y34584585D01*
X22818790Y34440945D01*
X22940945Y34318790D01*
X23084585Y34222813D01*
X23244189Y34156703D01*
X23413623Y34123000D01*
X23586377Y34123000D01*
X23755811Y34156703D01*
X23915415Y34222813D01*
X24059055Y34318790D01*
X24181210Y34440945D01*
X24277187Y34584585D01*
X24343297Y34744189D01*
X24377000Y34913623D01*
X24377000Y35086377D01*
X24343297Y35255811D01*
X24277187Y35415415D01*
X24181210Y35559055D01*
X24059055Y35681210D01*
X23915415Y35777187D01*
X23755811Y35843297D01*
X23586377Y35877000D01*
X23413623Y35877000D01*
X23244189Y35843297D01*
X23084585Y35777187D01*
X22940945Y35681210D01*
X22818790Y35559055D01*
X22722813Y35415415D01*
X22656703Y35255811D01*
X22623000Y35086377D01*
X14202847Y35086377D01*
X13702000Y35587223D01*
X13702000Y36065288D01*
X13737023Y36100311D01*
X13805640Y36203004D01*
X13852905Y36317111D01*
X13877000Y36438246D01*
X13877000Y36561754D01*
X13852905Y36682889D01*
X13805640Y36796996D01*
X13737023Y36899689D01*
X13649689Y36987023D01*
X13546996Y37055640D01*
X13432889Y37102905D01*
X13311754Y37127000D01*
X13188246Y37127000D01*
X13067111Y37102905D01*
X12953004Y37055640D01*
X12850311Y36987023D01*
X12762977Y36899689D01*
X12694360Y36796996D01*
X12647095Y36682889D01*
X12623000Y36561754D01*
X12623000Y36438246D01*
X12647095Y36317111D01*
X12694360Y36203004D01*
X12762977Y36100311D01*
X12798001Y36065287D01*
X12798000Y35422205D01*
X12795813Y35400000D01*
X12798000Y35377796D01*
X12804540Y35311394D01*
X12830386Y35226191D01*
X12872357Y35147668D01*
X12928841Y35078841D01*
X12946100Y35064677D01*
X15464681Y32546095D01*
X15478841Y32528841D01*
X15547667Y32472357D01*
X15626190Y32430386D01*
X15711392Y32404540D01*
X15800000Y32395813D01*
X15822205Y32398000D01*
X16223001Y32398000D01*
X16223000Y31529857D01*
X16150050Y31420680D01*
X16099016Y31297474D01*
X16073400Y31168690D01*
X12095662Y27190951D01*
X12075553Y27174448D01*
X12046658Y27139239D01*
X12009696Y27094201D01*
X11960761Y27002649D01*
X11930626Y26903309D01*
X11920451Y26800000D01*
X11923001Y26774109D01*
X11923000Y17389001D01*
X11464644Y16930645D01*
X10177000Y18218289D01*
X10177000Y25499119D01*
X10179549Y25525000D01*
X10169374Y25628310D01*
X10163959Y25646160D01*
X10139239Y25727650D01*
X10090304Y25819202D01*
X10024448Y25899448D01*
X10004344Y25915947D01*
X9762962Y26157328D01*
X9752905Y26207889D01*
X9705640Y26321996D01*
X9637023Y26424689D01*
X9549689Y26512023D01*
X9446996Y26580640D01*
X9332889Y26627905D01*
X9282327Y26637962D01*
X8915955Y27004334D01*
X8899448Y27024448D01*
X8819202Y27090304D01*
X8727650Y27139239D01*
X8628310Y27169374D01*
X8550881Y27177000D01*
X8525000Y27179549D01*
X8499119Y27177000D01*
X5225880Y27177000D01*
X5199999Y27179549D01*
X5096690Y27169374D01*
X4997350Y27139239D01*
X4905798Y27090304D01*
X4825552Y27024448D01*
X4809049Y27004339D01*
X2681711Y24877000D01*
X1339859Y24877000D01*
X1296996Y24905640D01*
X1182889Y24952905D01*
X1061754Y24977000D01*
X938246Y24977000D01*
X817111Y24952905D01*
X703004Y24905640D01*
X600311Y24837023D01*
X512977Y24749689D01*
X444360Y24646996D01*
X397095Y24532889D01*
X373000Y24411754D01*
X373000Y24288246D01*
X397095Y24167111D01*
X444360Y24053004D01*
X473001Y24010140D01*
X473000Y22900881D01*
X470451Y22875000D01*
X473000Y22849120D01*
X480626Y22771691D01*
X510761Y22672351D01*
X559696Y22580798D01*
X625552Y22500552D01*
X645666Y22484045D01*
X775197Y22354513D01*
X767111Y22352905D01*
X653004Y22305640D01*
X550311Y22237023D01*
X462977Y22149689D01*
X394360Y22046996D01*
X347095Y21932889D01*
X323000Y21811754D01*
X302000Y21811754D01*
X302000Y26811754D01*
X1923000Y26811754D01*
X1923000Y26688246D01*
X1947095Y26567111D01*
X1994360Y26453004D01*
X2062977Y26350311D01*
X2150311Y26262977D01*
X2253004Y26194360D01*
X2367111Y26147095D01*
X2488246Y26123000D01*
X2611754Y26123000D01*
X2732889Y26147095D01*
X2846996Y26194360D01*
X2949689Y26262977D01*
X3037023Y26350311D01*
X3105640Y26453004D01*
X3152905Y26567111D01*
X3177000Y26688246D01*
X3177000Y26811754D01*
X3152905Y26932889D01*
X3105640Y27046996D01*
X3037023Y27149689D01*
X2949689Y27237023D01*
X2846996Y27305640D01*
X2732889Y27352905D01*
X2611754Y27377000D01*
X2488246Y27377000D01*
X2367111Y27352905D01*
X2253004Y27305640D01*
X2150311Y27237023D01*
X2062977Y27149689D01*
X1994360Y27046996D01*
X1947095Y26932889D01*
X1923000Y26811754D01*
X302000Y26811754D01*
X302000Y28611754D01*
X7923000Y28611754D01*
X7923000Y28488246D01*
X7947095Y28367111D01*
X7994360Y28253004D01*
X8062977Y28150311D01*
X8150311Y28062977D01*
X8253004Y27994360D01*
X8367111Y27947095D01*
X8488246Y27923000D01*
X8611754Y27923000D01*
X8732889Y27947095D01*
X8846996Y27994360D01*
X8949689Y28062977D01*
X9037023Y28150311D01*
X9105640Y28253004D01*
X9152905Y28367111D01*
X9177000Y28488246D01*
X9177000Y28611754D01*
X9152905Y28732889D01*
X9105640Y28846996D01*
X9037023Y28949689D01*
X8949689Y29037023D01*
X8846996Y29105640D01*
X8732889Y29152905D01*
X8611754Y29177000D01*
X8488246Y29177000D01*
X8367111Y29152905D01*
X8253004Y29105640D01*
X8150311Y29037023D01*
X8062977Y28949689D01*
X7994360Y28846996D01*
X7947095Y28732889D01*
X7923000Y28611754D01*
X302000Y28611754D01*
X302000Y30061754D01*
X2373000Y30061754D01*
X2373000Y29938246D01*
X2397095Y29817111D01*
X2444360Y29703004D01*
X2512977Y29600311D01*
X2600311Y29512977D01*
X2703004Y29444360D01*
X2817111Y29397095D01*
X2938246Y29373000D01*
X3061754Y29373000D01*
X3182889Y29397095D01*
X3296996Y29444360D01*
X3399689Y29512977D01*
X3487023Y29600311D01*
X3555640Y29703004D01*
X3602905Y29817111D01*
X3627000Y29938246D01*
X3627000Y30061754D01*
X3602905Y30182889D01*
X3555640Y30296996D01*
X3487023Y30399689D01*
X3399689Y30487023D01*
X3296996Y30555640D01*
X3182889Y30602905D01*
X3061754Y30627000D01*
X2938246Y30627000D01*
X2817111Y30602905D01*
X2703004Y30555640D01*
X2600311Y30487023D01*
X2512977Y30399689D01*
X2444360Y30296996D01*
X2397095Y30182889D01*
X2373000Y30061754D01*
X302000Y30061754D01*
X302000Y30735228D01*
X307191Y30788178D01*
X318279Y30824899D01*
X336287Y30858768D01*
X360532Y30888496D01*
X390093Y30912951D01*
X423832Y30931194D01*
X460476Y30942537D01*
X512454Y30948000D01*
X864833Y30948000D01*
X877611Y30949259D01*
X879115Y30949248D01*
X883312Y30949660D01*
X907522Y30952205D01*
X909202Y30952370D01*
X909258Y30952387D01*
X931836Y30954760D01*
X958593Y30960253D01*
X985535Y30965392D01*
X989572Y30966612D01*
X1036182Y30981040D01*
X1061368Y30991627D01*
X1086798Y31001902D01*
X1090521Y31003882D01*
X1133440Y31027089D01*
X1156086Y31042365D01*
X1179028Y31057376D01*
X1182295Y31060042D01*
X1219890Y31091142D01*
X1239157Y31110544D01*
X1258741Y31129722D01*
X1261429Y31132971D01*
X1292266Y31170782D01*
X1307384Y31193538D01*
X1322872Y31216157D01*
X1324878Y31219867D01*
X1347785Y31262947D01*
X1358208Y31288235D01*
X1369001Y31313417D01*
X1370248Y31317446D01*
X1384350Y31364155D01*
X1389654Y31390944D01*
X1395357Y31417778D01*
X1395798Y31421973D01*
X1400559Y31470532D01*
X1400559Y31470536D01*
X1402000Y31485167D01*
X1402000Y32181452D01*
X1773000Y32181452D01*
X1773000Y32018548D01*
X1804782Y31858773D01*
X1867123Y31708269D01*
X1957628Y31572819D01*
X2072819Y31457628D01*
X2208269Y31367123D01*
X2358773Y31304782D01*
X2518548Y31273000D01*
X2681452Y31273000D01*
X2841227Y31304782D01*
X2991731Y31367123D01*
X3127181Y31457628D01*
X3231307Y31561754D01*
X3673000Y31561754D01*
X3673000Y31438246D01*
X3697095Y31317111D01*
X3744360Y31203004D01*
X3812977Y31100311D01*
X3900311Y31012977D01*
X4003004Y30944360D01*
X4117111Y30897095D01*
X4238246Y30873000D01*
X4361754Y30873000D01*
X4482889Y30897095D01*
X4596996Y30944360D01*
X4699689Y31012977D01*
X4786498Y31099786D01*
X8148988Y31099786D01*
X8148988Y30848238D01*
X8198062Y30601525D01*
X8294325Y30369126D01*
X8434077Y30159972D01*
X8611948Y29982101D01*
X8821102Y29842349D01*
X9053501Y29746086D01*
X9300214Y29697012D01*
X9551762Y29697012D01*
X9798475Y29746086D01*
X10030874Y29842349D01*
X10240028Y29982101D01*
X10417899Y30159972D01*
X10557651Y30369126D01*
X10653914Y30601525D01*
X10702988Y30848238D01*
X10702988Y31099786D01*
X10653914Y31346499D01*
X10557651Y31578898D01*
X10417899Y31788052D01*
X10240028Y31965923D01*
X10096607Y32061754D01*
X11623000Y32061754D01*
X11623000Y31938246D01*
X11647095Y31817111D01*
X11694360Y31703004D01*
X11762977Y31600311D01*
X11850311Y31512977D01*
X11953004Y31444360D01*
X12067111Y31397095D01*
X12188246Y31373000D01*
X12311754Y31373000D01*
X12432889Y31397095D01*
X12546996Y31444360D01*
X12649689Y31512977D01*
X12737023Y31600311D01*
X12805640Y31703004D01*
X12852905Y31817111D01*
X12877000Y31938246D01*
X12877000Y32061754D01*
X12852905Y32182889D01*
X12805640Y32296996D01*
X12737023Y32399689D01*
X12649689Y32487023D01*
X12546996Y32555640D01*
X12432889Y32602905D01*
X12311754Y32627000D01*
X12188246Y32627000D01*
X12067111Y32602905D01*
X11953004Y32555640D01*
X11850311Y32487023D01*
X11762977Y32399689D01*
X11694360Y32296996D01*
X11647095Y32182889D01*
X11623000Y32061754D01*
X10096607Y32061754D01*
X10030874Y32105675D01*
X9798475Y32201938D01*
X9551762Y32251012D01*
X9300214Y32251012D01*
X9053501Y32201938D01*
X8821102Y32105675D01*
X8611948Y31965923D01*
X8434077Y31788052D01*
X8294325Y31578898D01*
X8198062Y31346499D01*
X8148988Y31099786D01*
X4786498Y31099786D01*
X4787023Y31100311D01*
X4855640Y31203004D01*
X4902905Y31317111D01*
X4927000Y31438246D01*
X4927000Y31561754D01*
X4902905Y31682889D01*
X4855640Y31796996D01*
X4787023Y31899689D01*
X4699689Y31987023D01*
X4596996Y32055640D01*
X4482889Y32102905D01*
X4361754Y32127000D01*
X4238246Y32127000D01*
X4117111Y32102905D01*
X4003004Y32055640D01*
X3900311Y31987023D01*
X3812977Y31899689D01*
X3744360Y31796996D01*
X3697095Y31682889D01*
X3673000Y31561754D01*
X3231307Y31561754D01*
X3242372Y31572819D01*
X3332877Y31708269D01*
X3395218Y31858773D01*
X3427000Y32018548D01*
X3427000Y32181452D01*
X3395218Y32341227D01*
X3332877Y32491731D01*
X3242372Y32627181D01*
X3127181Y32742372D01*
X2991731Y32832877D01*
X2841227Y32895218D01*
X2681452Y32927000D01*
X2518548Y32927000D01*
X2358773Y32895218D01*
X2208269Y32832877D01*
X2072819Y32742372D01*
X1957628Y32627181D01*
X1867123Y32491731D01*
X1804782Y32341227D01*
X1773000Y32181452D01*
X1402000Y32181452D01*
X1402000Y35086377D01*
X5623000Y35086377D01*
X5623000Y34913623D01*
X5656703Y34744189D01*
X5722813Y34584585D01*
X5818790Y34440945D01*
X5940945Y34318790D01*
X6084585Y34222813D01*
X6244189Y34156703D01*
X6413623Y34123000D01*
X6586377Y34123000D01*
X6755811Y34156703D01*
X6915415Y34222813D01*
X7059055Y34318790D01*
X7181210Y34440945D01*
X7277187Y34584585D01*
X7343297Y34744189D01*
X7377000Y34913623D01*
X7377000Y35086377D01*
X7343297Y35255811D01*
X7277187Y35415415D01*
X7181210Y35559055D01*
X7059055Y35681210D01*
X6915415Y35777187D01*
X6755811Y35843297D01*
X6586377Y35877000D01*
X6413623Y35877000D01*
X6244189Y35843297D01*
X6084585Y35777187D01*
X5940945Y35681210D01*
X5818790Y35559055D01*
X5722813Y35415415D01*
X5656703Y35255811D01*
X5623000Y35086377D01*
X1402000Y35086377D01*
X1402000Y36985228D01*
X1407191Y37038178D01*
X1418279Y37074899D01*
X1436287Y37108768D01*
X1460532Y37138496D01*
X1490093Y37162951D01*
X1523832Y37181194D01*
X1560476Y37192537D01*
X1612454Y37198000D01*
X2372759Y37198000D01*
X2358773Y37195218D01*
X2208269Y37132877D01*
X2072819Y37042372D01*
X1957628Y36927181D01*
X1867123Y36791731D01*
X1804782Y36641227D01*
X1773000Y36481452D01*
X1773000Y36318548D01*
X1804782Y36158773D01*
X1867123Y36008269D01*
X1957628Y35872819D01*
X2072819Y35757628D01*
X2208269Y35667123D01*
X2358773Y35604782D01*
X2518548Y35573000D01*
X2681452Y35573000D01*
X2841227Y35604782D01*
X2991731Y35667123D01*
X3127181Y35757628D01*
X3242372Y35872819D01*
X3332877Y36008269D01*
X3395218Y36158773D01*
X3427000Y36318548D01*
X3427000Y36481452D01*
X3395218Y36641227D01*
X3332877Y36791731D01*
X3242372Y36927181D01*
X3127181Y37042372D01*
X2991731Y37132877D01*
X2841227Y37195218D01*
X2827241Y37198000D01*
X4264833Y37198000D01*
X4277965Y37199293D01*
X4282608Y37199261D01*
X4286805Y37199673D01*
X4432377Y37214974D01*
X4459124Y37220464D01*
X4486074Y37225605D01*
X4490111Y37226825D01*
X4569114Y37251280D01*
X4910197Y36910197D01*
X4929443Y36894403D01*
X4951399Y36882667D01*
X4975224Y36875440D01*
X5000000Y36873000D01*
X10000000Y36873000D01*
X10024776Y36875440D01*
X10048601Y36882667D01*
X10070557Y36894403D01*
X10089803Y36910197D01*
X10430812Y37251206D01*
X10517038Y37225173D01*
X10543830Y37219869D01*
X10570659Y37214166D01*
X10574853Y37213725D01*
X10720530Y37199441D01*
X10720536Y37199441D01*
X10735167Y37198000D01*
X19264833Y37198000D01*
X19277965Y37199293D01*
X19282608Y37199261D01*
X19286805Y37199673D01*
X19432377Y37214974D01*
X19459124Y37220464D01*
X19486074Y37225605D01*
X19490111Y37226825D01*
X19569114Y37251280D01*
X19910197Y36910197D01*
%TA.AperFunction,Conductor*%
D20*
G36*
X19910197Y36910197D02*
G01*
X19929443Y36894403D01*
X19951399Y36882667D01*
X19975224Y36875440D01*
X20000000Y36873000D01*
X25000000Y36873000D01*
X25024776Y36875440D01*
X25048601Y36882667D01*
X25070557Y36894403D01*
X25089803Y36910197D01*
X25430812Y37251206D01*
X25517038Y37225173D01*
X25543830Y37219869D01*
X25570659Y37214166D01*
X25574853Y37213725D01*
X25720530Y37199441D01*
X25720536Y37199441D01*
X25735167Y37198000D01*
X27172759Y37198000D01*
X27158773Y37195218D01*
X27008269Y37132877D01*
X26872819Y37042372D01*
X26757628Y36927181D01*
X26667123Y36791731D01*
X26604782Y36641227D01*
X26573000Y36481452D01*
X26573000Y36318548D01*
X26604782Y36158773D01*
X26667123Y36008269D01*
X26757628Y35872819D01*
X26872819Y35757628D01*
X27008269Y35667123D01*
X27158773Y35604782D01*
X27318548Y35573000D01*
X27481452Y35573000D01*
X27641227Y35604782D01*
X27791731Y35667123D01*
X27927181Y35757628D01*
X28042372Y35872819D01*
X28132877Y36008269D01*
X28195218Y36158773D01*
X28227000Y36318548D01*
X28227000Y36481452D01*
X28195218Y36641227D01*
X28132877Y36791731D01*
X28042372Y36927181D01*
X27927181Y37042372D01*
X27791731Y37132877D01*
X27641227Y37195218D01*
X27627241Y37198000D01*
X28385228Y37198000D01*
X28438178Y37192809D01*
X28474899Y37181721D01*
X28508768Y37163713D01*
X28538496Y37139468D01*
X28562951Y37109907D01*
X28581194Y37076168D01*
X28592537Y37039524D01*
X28598000Y36987546D01*
X28598001Y31485167D01*
X28599259Y31472399D01*
X28599248Y31470885D01*
X28599660Y31466688D01*
X28602220Y31442327D01*
X28602371Y31440798D01*
X28602386Y31440747D01*
X28604760Y31418164D01*
X28610253Y31391407D01*
X28615392Y31364465D01*
X28616612Y31360428D01*
X28631040Y31313818D01*
X28641627Y31288632D01*
X28651902Y31263202D01*
X28653882Y31259479D01*
X28677089Y31216560D01*
X28692365Y31193914D01*
X28707376Y31170972D01*
X28710042Y31167705D01*
X28741142Y31130110D01*
X28760544Y31110843D01*
X28779722Y31091259D01*
X28782971Y31088571D01*
X28820782Y31057734D01*
X28843538Y31042616D01*
X28866157Y31027128D01*
X28869867Y31025122D01*
X28912947Y31002215D01*
X28938235Y30991792D01*
X28963417Y30980999D01*
X28967446Y30979752D01*
X29014155Y30965650D01*
X29040944Y30960346D01*
X29067778Y30954643D01*
X29071973Y30954202D01*
X29120532Y30949441D01*
X29120536Y30949441D01*
X29135167Y30948000D01*
X29485228Y30948000D01*
X29538178Y30942809D01*
X29574899Y30931721D01*
X29608768Y30913713D01*
X29638496Y30889468D01*
X29662951Y30859907D01*
X29681194Y30826168D01*
X29692537Y30789524D01*
X29698001Y30737536D01*
X29698000Y8014772D01*
X29694349Y7977539D01*
X29616870Y7883130D01*
X29522488Y7805672D01*
X29487547Y7802000D01*
X26235167Y7802000D01*
X26222035Y7800707D01*
X26217392Y7800739D01*
X26213195Y7800327D01*
X26067623Y7785026D01*
X26040876Y7779536D01*
X26013926Y7774395D01*
X26009889Y7773175D01*
X25930886Y7748720D01*
X25589803Y8089803D01*
X25570557Y8105597D01*
X25548601Y8117333D01*
X25524776Y8124560D01*
X25500000Y8127000D01*
X20500000Y8127000D01*
X20475224Y8124560D01*
X20451399Y8117333D01*
X20429443Y8105597D01*
X20410197Y8089803D01*
X20069188Y7748794D01*
X19982962Y7774827D01*
X19956170Y7780131D01*
X19929341Y7785834D01*
X19925147Y7786275D01*
X19779471Y7800559D01*
X19779464Y7800559D01*
X19764833Y7802000D01*
X10235167Y7802000D01*
X10222035Y7800707D01*
X10217392Y7800739D01*
X10213195Y7800327D01*
X10067623Y7785026D01*
X10040876Y7779536D01*
X10013926Y7774395D01*
X10009889Y7773175D01*
X9930886Y7748720D01*
X9589803Y8089803D01*
X9570557Y8105597D01*
X9548601Y8117333D01*
X9524776Y8124560D01*
X9500000Y8127000D01*
X6714948Y8127000D01*
X6694022Y8166150D01*
X6644376Y8329811D01*
X6627000Y8506234D01*
X6627000Y9586377D01*
X7373000Y9586377D01*
X7373000Y9413623D01*
X7406703Y9244189D01*
X7472813Y9084585D01*
X7568790Y8940945D01*
X7690945Y8818790D01*
X7834585Y8722813D01*
X7994189Y8656703D01*
X8163623Y8623000D01*
X8336377Y8623000D01*
X8505811Y8656703D01*
X8665415Y8722813D01*
X8809055Y8818790D01*
X8931210Y8940945D01*
X9027187Y9084585D01*
X9093297Y9244189D01*
X9127000Y9413623D01*
X9127000Y9586377D01*
X9093297Y9755811D01*
X9074994Y9800000D01*
X9496660Y9800000D01*
X9496660Y8500000D01*
X9508733Y8377417D01*
X9544490Y8259545D01*
X9602554Y8150913D01*
X9680697Y8055697D01*
X9775913Y7977554D01*
X9884545Y7919490D01*
X10002417Y7883733D01*
X10125000Y7871660D01*
X10825000Y7871660D01*
X10947583Y7883733D01*
X11065455Y7919490D01*
X11174087Y7977554D01*
X11269303Y8055697D01*
X11347446Y8150913D01*
X11405510Y8259545D01*
X11441267Y8377417D01*
X11453340Y8500000D01*
X11453340Y9800000D01*
X18546660Y9800000D01*
X18546660Y8500000D01*
X18558733Y8377417D01*
X18594490Y8259545D01*
X18652554Y8150913D01*
X18730697Y8055697D01*
X18825913Y7977554D01*
X18934545Y7919490D01*
X19052417Y7883733D01*
X19175000Y7871660D01*
X19875000Y7871660D01*
X19997583Y7883733D01*
X20115455Y7919490D01*
X20224087Y7977554D01*
X20319303Y8055697D01*
X20397446Y8150913D01*
X20455510Y8259545D01*
X20491267Y8377417D01*
X20503340Y8500000D01*
X20503340Y9586377D01*
X20873000Y9586377D01*
X20873000Y9413623D01*
X20906703Y9244189D01*
X20972813Y9084585D01*
X21068790Y8940945D01*
X21190945Y8818790D01*
X21334585Y8722813D01*
X21494189Y8656703D01*
X21663623Y8623000D01*
X21836377Y8623000D01*
X22005811Y8656703D01*
X22165415Y8722813D01*
X22309055Y8818790D01*
X22431210Y8940945D01*
X22527187Y9084585D01*
X22593297Y9244189D01*
X22627000Y9413623D01*
X22627000Y9586377D01*
X22593297Y9755811D01*
X22527187Y9915415D01*
X22431210Y10059055D01*
X22309055Y10181210D01*
X22165415Y10277187D01*
X22005811Y10343297D01*
X21836377Y10377000D01*
X21663623Y10377000D01*
X21494189Y10343297D01*
X21334585Y10277187D01*
X21190945Y10181210D01*
X21068790Y10059055D01*
X20972813Y9915415D01*
X20906703Y9755811D01*
X20873000Y9586377D01*
X20503340Y9586377D01*
X20503340Y9800000D01*
X20491267Y9922583D01*
X20455510Y10040455D01*
X20397446Y10149087D01*
X20319303Y10244303D01*
X20224087Y10322446D01*
X20115455Y10380510D01*
X19997583Y10416267D01*
X19875000Y10428340D01*
X19175000Y10428340D01*
X19052417Y10416267D01*
X18934545Y10380510D01*
X18825913Y10322446D01*
X18730697Y10244303D01*
X18652554Y10149087D01*
X18594490Y10040455D01*
X18558733Y9922583D01*
X18546660Y9800000D01*
X11453340Y9800000D01*
X11441267Y9922583D01*
X11405510Y10040455D01*
X11347446Y10149087D01*
X11269303Y10244303D01*
X11174087Y10322446D01*
X11065455Y10380510D01*
X10947583Y10416267D01*
X10825000Y10428340D01*
X10125000Y10428340D01*
X10002417Y10416267D01*
X9884545Y10380510D01*
X9775913Y10322446D01*
X9680697Y10244303D01*
X9602554Y10149087D01*
X9544490Y10040455D01*
X9508733Y9922583D01*
X9496660Y9800000D01*
X9074994Y9800000D01*
X9027187Y9915415D01*
X8931210Y10059055D01*
X8809055Y10181210D01*
X8665415Y10277187D01*
X8505811Y10343297D01*
X8336377Y10377000D01*
X8163623Y10377000D01*
X7994189Y10343297D01*
X7834585Y10277187D01*
X7690945Y10181210D01*
X7568790Y10059055D01*
X7472813Y9915415D01*
X7406703Y9755811D01*
X7373000Y9586377D01*
X6627000Y9586377D01*
X6627000Y11186754D01*
X16748000Y11186754D01*
X16748000Y11063246D01*
X16772095Y10942111D01*
X16819360Y10828004D01*
X16887977Y10725311D01*
X16975311Y10637977D01*
X17078004Y10569360D01*
X17192111Y10522095D01*
X17313246Y10498000D01*
X17436754Y10498000D01*
X17557889Y10522095D01*
X17671996Y10569360D01*
X17774689Y10637977D01*
X17862023Y10725311D01*
X17930640Y10828004D01*
X17977905Y10942111D01*
X18002000Y11063246D01*
X18002000Y11186754D01*
X17977905Y11307889D01*
X17930640Y11421996D01*
X17862023Y11524689D01*
X17774689Y11612023D01*
X17671996Y11680640D01*
X17557889Y11727905D01*
X17436754Y11752000D01*
X17313246Y11752000D01*
X17192111Y11727905D01*
X17078004Y11680640D01*
X16975311Y11612023D01*
X16887977Y11524689D01*
X16819360Y11421996D01*
X16772095Y11307889D01*
X16748000Y11186754D01*
X6627000Y11186754D01*
X6627000Y14500000D01*
X6626388Y14512448D01*
X6607173Y14707538D01*
X6602317Y14731956D01*
X6545412Y14919549D01*
X6535884Y14942550D01*
X6443474Y15115437D01*
X6429642Y15136138D01*
X6305279Y15287675D01*
X6287675Y15305279D01*
X6136138Y15429642D01*
X6115437Y15443474D01*
X5942550Y15535884D01*
X5919549Y15545412D01*
X5731956Y15602317D01*
X5707538Y15607173D01*
X5512448Y15626388D01*
X5500000Y15627000D01*
X4420448Y15627000D01*
X4244024Y15644376D01*
X4080363Y15694022D01*
X3929542Y15774637D01*
X3792504Y15887102D01*
X2882696Y16796910D01*
X2873461Y16805279D01*
X2721925Y16929642D01*
X2701224Y16943474D01*
X2528337Y17035884D01*
X2505336Y17045412D01*
X2317743Y17102317D01*
X2293325Y17107173D01*
X2098234Y17126388D01*
X2085786Y17127000D01*
X1006234Y17127000D01*
X829811Y17144376D01*
X666150Y17194022D01*
X515328Y17274638D01*
X383130Y17383130D01*
X302000Y17481987D01*
X302000Y19211754D01*
X1023000Y19211754D01*
X1023000Y19088246D01*
X1047095Y18967111D01*
X1094360Y18853004D01*
X1162977Y18750311D01*
X1250311Y18662977D01*
X1353004Y18594360D01*
X1467111Y18547095D01*
X1588246Y18523000D01*
X1711754Y18523000D01*
X1832889Y18547095D01*
X1946996Y18594360D01*
X2049689Y18662977D01*
X2137023Y18750311D01*
X2205640Y18853004D01*
X2252905Y18967111D01*
X2277000Y19088246D01*
X2277000Y19173000D01*
X2361754Y19173000D01*
X2386456Y19177913D01*
X2347095Y19082889D01*
X2323000Y18961754D01*
X2323000Y18838246D01*
X2347095Y18717111D01*
X2394360Y18603004D01*
X2462977Y18500311D01*
X2550311Y18412977D01*
X2653004Y18344360D01*
X2767111Y18297095D01*
X2888246Y18273000D01*
X3011754Y18273000D01*
X3132889Y18297095D01*
X3246996Y18344360D01*
X3349689Y18412977D01*
X3437023Y18500311D01*
X3505640Y18603004D01*
X3552905Y18717111D01*
X3577000Y18838246D01*
X3577000Y18961754D01*
X3552905Y19082889D01*
X3505640Y19196996D01*
X3437023Y19299689D01*
X3349689Y19387023D01*
X3246996Y19455640D01*
X3132889Y19502905D01*
X3011754Y19527000D01*
X2888246Y19527000D01*
X2863544Y19522087D01*
X2902905Y19617111D01*
X2927000Y19738246D01*
X2927000Y19861754D01*
X2902905Y19982889D01*
X2855640Y20096996D01*
X2787023Y20199689D01*
X2699689Y20287023D01*
X2596996Y20355640D01*
X2482889Y20402905D01*
X2361754Y20427000D01*
X2238246Y20427000D01*
X2117111Y20402905D01*
X2003004Y20355640D01*
X1900311Y20287023D01*
X1812977Y20199689D01*
X1744360Y20096996D01*
X1697095Y19982889D01*
X1673000Y19861754D01*
X1673000Y19777000D01*
X1588246Y19777000D01*
X1467111Y19752905D01*
X1353004Y19705640D01*
X1250311Y19637023D01*
X1162977Y19549689D01*
X1094360Y19446996D01*
X1047095Y19332889D01*
X1023000Y19211754D01*
X302000Y19211754D01*
X302000Y21811754D01*
X323000Y21811754D01*
X323000Y21688246D01*
X347095Y21567111D01*
X394360Y21453004D01*
X462977Y21350311D01*
X488288Y21325000D01*
X462977Y21299689D01*
X394360Y21196996D01*
X347095Y21082889D01*
X323000Y20961754D01*
X323000Y20838246D01*
X347095Y20717111D01*
X394360Y20603004D01*
X462977Y20500311D01*
X550311Y20412977D01*
X653004Y20344360D01*
X767111Y20297095D01*
X888246Y20273000D01*
X1011754Y20273000D01*
X1132889Y20297095D01*
X1246996Y20344360D01*
X1349689Y20412977D01*
X1437023Y20500311D01*
X1505640Y20603004D01*
X1552905Y20717111D01*
X1577000Y20838246D01*
X1577000Y20961754D01*
X1552905Y21082889D01*
X1505640Y21196996D01*
X1437023Y21299689D01*
X1411712Y21325000D01*
X1437023Y21350311D01*
X1505640Y21453004D01*
X1552905Y21567111D01*
X1554513Y21575197D01*
X5223400Y17906310D01*
X5249016Y17777526D01*
X5300050Y17654320D01*
X5374140Y17543437D01*
X5468437Y17449140D01*
X5579320Y17375050D01*
X5702526Y17324016D01*
X5833321Y17298000D01*
X5966679Y17298000D01*
X6097474Y17324016D01*
X6220680Y17375050D01*
X6331563Y17449140D01*
X6425860Y17543437D01*
X6499950Y17654320D01*
X6550984Y17777526D01*
X6577000Y17908321D01*
X6577000Y18041679D01*
X6550984Y18172474D01*
X6499950Y18295680D01*
X6425860Y18406563D01*
X6331563Y18500860D01*
X6220680Y18574950D01*
X6097474Y18625984D01*
X5968690Y18651600D01*
X3979026Y20641264D01*
X4838765Y20641264D01*
X4876249Y20570932D01*
X4864431Y20559114D01*
X4949431Y20474114D01*
X4953350Y20469327D01*
X4958246Y20465299D01*
X5044039Y20379506D01*
X5055905Y20391372D01*
X5125010Y20354328D01*
X5126189Y20353840D01*
X5205249Y20399762D01*
X5205249Y20540716D01*
X5314108Y20649575D01*
X5342390Y20649575D01*
X5451249Y20540716D01*
X5451249Y20399762D01*
X5530309Y20353840D01*
X5600641Y20391324D01*
X5612459Y20379506D01*
X5697459Y20464506D01*
X5702246Y20468425D01*
X5706274Y20473321D01*
X5792067Y20559114D01*
X5780201Y20570980D01*
X5817245Y20640085D01*
X5817733Y20641264D01*
X6182267Y20641264D01*
X6219751Y20570932D01*
X6207933Y20559114D01*
X6292933Y20474114D01*
X6296852Y20469327D01*
X6301748Y20465299D01*
X6387541Y20379506D01*
X6399407Y20391372D01*
X6468512Y20354328D01*
X6469691Y20353840D01*
X6548751Y20399762D01*
X6548751Y20540716D01*
X6657610Y20649575D01*
X6685892Y20649575D01*
X6794751Y20540716D01*
X6794751Y20399762D01*
X6873811Y20353840D01*
X6944143Y20391324D01*
X6955961Y20379506D01*
X7040961Y20464506D01*
X7045748Y20468425D01*
X7049776Y20473321D01*
X7135569Y20559114D01*
X7123703Y20570980D01*
X7160747Y20640085D01*
X7161235Y20641264D01*
X7115313Y20720324D01*
X6974359Y20720324D01*
X6865500Y20829183D01*
X6685892Y20649575D01*
X6657610Y20649575D01*
X6478002Y20829183D01*
X6369143Y20720324D01*
X6228189Y20720324D01*
X6182267Y20641264D01*
X5817733Y20641264D01*
X5771811Y20720324D01*
X5630857Y20720324D01*
X5521998Y20829183D01*
X5342390Y20649575D01*
X5314108Y20649575D01*
X5134500Y20829183D01*
X5025641Y20720324D01*
X4884687Y20720324D01*
X4838765Y20641264D01*
X3979026Y20641264D01*
X3236564Y21383726D01*
X4096302Y21383726D01*
X4133786Y21313394D01*
X4121968Y21301576D01*
X4206968Y21216576D01*
X4210887Y21211789D01*
X4215783Y21207761D01*
X4301576Y21121968D01*
X4313442Y21133834D01*
X4382547Y21096790D01*
X4383726Y21096302D01*
X4462786Y21142224D01*
X4462786Y21283178D01*
X4571645Y21392037D01*
X4599927Y21392037D01*
X4708786Y21283178D01*
X4708786Y21142224D01*
X4787846Y21096302D01*
X4858178Y21133786D01*
X4869996Y21121968D01*
X4869997Y21121968D01*
X4876297Y21115668D01*
X4839253Y21046563D01*
X4838765Y21045384D01*
X4884687Y20966324D01*
X5025641Y20966324D01*
X5134500Y20857465D01*
X5314108Y21037073D01*
X5342390Y21037073D01*
X5521998Y20857465D01*
X5630857Y20966324D01*
X5771811Y20966324D01*
X5810461Y21032865D01*
X5877000Y21071514D01*
X5877000Y21212467D01*
X5985859Y21321327D01*
X6014141Y21321327D01*
X6123000Y21212468D01*
X6123000Y21071514D01*
X6189539Y21032865D01*
X6228189Y20966324D01*
X6369143Y20966324D01*
X6478002Y20857465D01*
X6657610Y21037073D01*
X6685892Y21037073D01*
X6865500Y20857465D01*
X6974359Y20966324D01*
X7115313Y20966324D01*
X7161235Y21045384D01*
X7123751Y21115715D01*
X7141870Y21133834D01*
X7210975Y21096790D01*
X7212154Y21096302D01*
X7291214Y21142224D01*
X7291214Y21283178D01*
X7400073Y21392037D01*
X7428355Y21392037D01*
X7537214Y21283178D01*
X7537214Y21142224D01*
X7616274Y21096302D01*
X7686606Y21133786D01*
X7698424Y21121968D01*
X7783424Y21206968D01*
X7788211Y21210887D01*
X7792239Y21215783D01*
X7878032Y21301576D01*
X7866166Y21313442D01*
X7903210Y21382547D01*
X7903698Y21383726D01*
X7857776Y21462786D01*
X7716822Y21462786D01*
X7607963Y21571645D01*
X7428355Y21392037D01*
X7400073Y21392037D01*
X7220465Y21571645D01*
X7111606Y21462786D01*
X6970652Y21462786D01*
X6924730Y21383726D01*
X6962214Y21313393D01*
X6955962Y21307141D01*
X6955961Y21307142D01*
X6944095Y21295276D01*
X6874990Y21332320D01*
X6873811Y21332808D01*
X6794751Y21286886D01*
X6794751Y21145932D01*
X6685892Y21037073D01*
X6657610Y21037073D01*
X6548751Y21145932D01*
X6548751Y21286886D01*
X6482212Y21325535D01*
X6443562Y21392076D01*
X6302608Y21392076D01*
X6193749Y21500935D01*
X6014141Y21321327D01*
X5985859Y21321327D01*
X5806251Y21500935D01*
X5697392Y21392076D01*
X5556438Y21392076D01*
X5517788Y21325535D01*
X5451249Y21286886D01*
X5451249Y21145931D01*
X5342390Y21037073D01*
X5314108Y21037073D01*
X5205249Y21145932D01*
X5205249Y21286886D01*
X5126189Y21332808D01*
X5055857Y21295324D01*
X5044039Y21307142D01*
X5044039Y21307141D01*
X5037738Y21313442D01*
X5074782Y21382547D01*
X5075270Y21383726D01*
X5029348Y21462786D01*
X4888394Y21462786D01*
X4779535Y21571645D01*
X4599927Y21392037D01*
X4571645Y21392037D01*
X4392037Y21571645D01*
X4283178Y21462786D01*
X4142224Y21462786D01*
X4096302Y21383726D01*
X3236564Y21383726D01*
X2494101Y22126189D01*
X3353840Y22126189D01*
X3391324Y22055857D01*
X3379506Y22044039D01*
X3464506Y21959039D01*
X3468425Y21954252D01*
X3473321Y21950224D01*
X3559114Y21864431D01*
X3570980Y21876297D01*
X3640085Y21839253D01*
X3641264Y21838765D01*
X3720324Y21884687D01*
X3720324Y22025641D01*
X3829183Y22134500D01*
X3857465Y22134500D01*
X3966324Y22025641D01*
X3966324Y21884687D01*
X4045384Y21838765D01*
X4115716Y21876249D01*
X4121969Y21869996D01*
X4121968Y21869996D01*
X4133834Y21858130D01*
X4096790Y21789025D01*
X4096302Y21787846D01*
X4142224Y21708786D01*
X4283178Y21708786D01*
X4392037Y21599927D01*
X4571645Y21779535D01*
X4599927Y21779535D01*
X4779535Y21599927D01*
X4888394Y21708786D01*
X5029348Y21708786D01*
X5067998Y21775326D01*
X5134538Y21813976D01*
X5134538Y21954930D01*
X5243397Y22063789D01*
X5271679Y22063789D01*
X5380538Y21954930D01*
X5380538Y21813976D01*
X5459598Y21768054D01*
X5529930Y21805538D01*
X5548048Y21787420D01*
X5511004Y21718315D01*
X5510516Y21717136D01*
X5556438Y21638076D01*
X5697392Y21638076D01*
X5806251Y21529217D01*
X5985859Y21708825D01*
X6014141Y21708825D01*
X6193749Y21529217D01*
X6302608Y21638076D01*
X6443562Y21638076D01*
X6489484Y21717136D01*
X6452000Y21787468D01*
X6470118Y21805586D01*
X6539223Y21768542D01*
X6540402Y21768054D01*
X6619462Y21813976D01*
X6619462Y21954930D01*
X6728321Y22063789D01*
X6756603Y22063789D01*
X6865462Y21954930D01*
X6865462Y21813976D01*
X6932002Y21775326D01*
X6970652Y21708786D01*
X7111606Y21708786D01*
X7220465Y21599927D01*
X7400073Y21779535D01*
X7428355Y21779535D01*
X7607963Y21599927D01*
X7716822Y21708786D01*
X7857776Y21708786D01*
X7903698Y21787846D01*
X7866214Y21858178D01*
X7884333Y21876297D01*
X7953437Y21839253D01*
X7954616Y21838765D01*
X8033676Y21884687D01*
X8033676Y22025641D01*
X8142535Y22134500D01*
X8170817Y22134500D01*
X8279676Y22025641D01*
X8279676Y21884687D01*
X8358736Y21838765D01*
X8429068Y21876249D01*
X8440886Y21864431D01*
X8525886Y21949431D01*
X8530673Y21953350D01*
X8534701Y21958246D01*
X8620494Y22044039D01*
X8608628Y22055905D01*
X8645672Y22125010D01*
X8646160Y22126189D01*
X8600238Y22205249D01*
X8459284Y22205249D01*
X8350425Y22314108D01*
X8170817Y22134500D01*
X8142535Y22134500D01*
X7962927Y22314108D01*
X7854068Y22205249D01*
X7713114Y22205249D01*
X7667192Y22126189D01*
X7704676Y22055857D01*
X7692858Y22044039D01*
X7692859Y22044038D01*
X7686558Y22037737D01*
X7617453Y22074782D01*
X7616274Y22075270D01*
X7537214Y22029348D01*
X7537214Y21888394D01*
X7428355Y21779535D01*
X7400073Y21779535D01*
X7291214Y21888394D01*
X7291214Y22029348D01*
X7224674Y22067998D01*
X7186024Y22134538D01*
X7045070Y22134538D01*
X6936211Y22243397D01*
X6756603Y22063789D01*
X6728321Y22063789D01*
X6548713Y22243397D01*
X6439854Y22134538D01*
X6298900Y22134538D01*
X6252978Y22055478D01*
X6290462Y21985146D01*
X6272344Y21967028D01*
X6203239Y22004072D01*
X6202060Y22004560D01*
X6123000Y21958638D01*
X6123000Y21817684D01*
X6014141Y21708825D01*
X5985859Y21708825D01*
X5877000Y21817684D01*
X5877000Y21958638D01*
X5797940Y22004560D01*
X5727608Y21967076D01*
X5709490Y21985194D01*
X5746534Y22054299D01*
X5747022Y22055478D01*
X5701100Y22134538D01*
X5560146Y22134538D01*
X5451287Y22243397D01*
X5271679Y22063789D01*
X5243397Y22063789D01*
X5063789Y22243397D01*
X4954930Y22134538D01*
X4813976Y22134538D01*
X4775326Y22067998D01*
X4708786Y22029348D01*
X4708786Y21888394D01*
X4599927Y21779535D01*
X4571645Y21779535D01*
X4462786Y21888394D01*
X4462786Y22029348D01*
X4383726Y22075270D01*
X4313394Y22037786D01*
X4307142Y22044038D01*
X4307142Y22044039D01*
X4295276Y22055905D01*
X4332320Y22125010D01*
X4332808Y22126189D01*
X4286886Y22205249D01*
X4145932Y22205249D01*
X4037073Y22314108D01*
X3857465Y22134500D01*
X3829183Y22134500D01*
X3649575Y22314108D01*
X3540716Y22205249D01*
X3399762Y22205249D01*
X3353840Y22126189D01*
X2494101Y22126189D01*
X2089981Y22530309D01*
X3353840Y22530309D01*
X3399762Y22451249D01*
X3540716Y22451249D01*
X3649575Y22342390D01*
X3829183Y22521998D01*
X3857465Y22521998D01*
X4037073Y22342390D01*
X4145933Y22451249D01*
X4286886Y22451249D01*
X4325535Y22517788D01*
X4392076Y22556438D01*
X4392076Y22697392D01*
X4500935Y22806251D01*
X4529217Y22806251D01*
X4638076Y22697392D01*
X4638076Y22556438D01*
X4717136Y22510516D01*
X4787468Y22548000D01*
X4805586Y22529882D01*
X4768542Y22460777D01*
X4768054Y22459598D01*
X4813976Y22380538D01*
X4954930Y22380538D01*
X5063789Y22271679D01*
X5243397Y22451287D01*
X5271679Y22451287D01*
X5451287Y22271679D01*
X5560146Y22380538D01*
X5701100Y22380538D01*
X5747022Y22459598D01*
X5709538Y22529930D01*
X5727656Y22548048D01*
X5796761Y22511004D01*
X5797940Y22510516D01*
X5877000Y22556438D01*
X5877000Y22697392D01*
X5985859Y22806251D01*
X6014141Y22806251D01*
X6123000Y22697392D01*
X6123000Y22556438D01*
X6202060Y22510516D01*
X6272392Y22548000D01*
X6290510Y22529882D01*
X6253466Y22460777D01*
X6252978Y22459598D01*
X6298900Y22380538D01*
X6439854Y22380538D01*
X6548713Y22271679D01*
X6728321Y22451287D01*
X6756603Y22451287D01*
X6936211Y22271679D01*
X7045070Y22380538D01*
X7186024Y22380538D01*
X7231946Y22459598D01*
X7194462Y22529930D01*
X7212580Y22548048D01*
X7281685Y22511004D01*
X7282864Y22510516D01*
X7361924Y22556438D01*
X7361924Y22697392D01*
X7470783Y22806251D01*
X7499065Y22806251D01*
X7607924Y22697392D01*
X7607924Y22556438D01*
X7674465Y22517788D01*
X7713114Y22451249D01*
X7854068Y22451249D01*
X7962927Y22342390D01*
X8142535Y22521998D01*
X8170817Y22521998D01*
X8350425Y22342390D01*
X8459284Y22451249D01*
X8600238Y22451249D01*
X8646160Y22530309D01*
X8608676Y22600641D01*
X8620494Y22612459D01*
X8535494Y22697459D01*
X8531575Y22702246D01*
X8526679Y22706274D01*
X8440886Y22792067D01*
X8429020Y22780201D01*
X8359915Y22817245D01*
X8358736Y22817733D01*
X8279676Y22771811D01*
X8279676Y22630857D01*
X8170817Y22521998D01*
X8142535Y22521998D01*
X8033676Y22630857D01*
X8033676Y22771811D01*
X7967135Y22810461D01*
X7928486Y22877000D01*
X7787532Y22877000D01*
X7678673Y22985859D01*
X7499065Y22806251D01*
X7470783Y22806251D01*
X7291175Y22985859D01*
X7182316Y22877000D01*
X7041362Y22877000D01*
X6995440Y22797940D01*
X7032924Y22727608D01*
X7014806Y22709490D01*
X6945701Y22746534D01*
X6944522Y22747022D01*
X6865462Y22701100D01*
X6865462Y22560146D01*
X6756603Y22451287D01*
X6728321Y22451287D01*
X6619462Y22560146D01*
X6619462Y22701100D01*
X6540402Y22747022D01*
X6470070Y22709538D01*
X6451952Y22727656D01*
X6488996Y22796761D01*
X6489484Y22797940D01*
X6443562Y22877000D01*
X6302608Y22877000D01*
X6193749Y22985859D01*
X6014141Y22806251D01*
X5985859Y22806251D01*
X5806251Y22985859D01*
X5697392Y22877000D01*
X5556438Y22877000D01*
X5510516Y22797940D01*
X5548000Y22727608D01*
X5529882Y22709490D01*
X5460777Y22746534D01*
X5459598Y22747022D01*
X5380538Y22701100D01*
X5380538Y22560146D01*
X5271679Y22451287D01*
X5243397Y22451287D01*
X5134538Y22560146D01*
X5134538Y22701100D01*
X5055478Y22747022D01*
X4985146Y22709538D01*
X4967028Y22727656D01*
X5004072Y22796761D01*
X5004560Y22797940D01*
X4958638Y22877000D01*
X4817684Y22877000D01*
X4708825Y22985859D01*
X4529217Y22806251D01*
X4500935Y22806251D01*
X4321327Y22985859D01*
X4212469Y22877000D01*
X4071514Y22877000D01*
X4032865Y22810461D01*
X3966324Y22771811D01*
X3966324Y22630857D01*
X3857465Y22521998D01*
X3829183Y22521998D01*
X3720324Y22630857D01*
X3720324Y22771811D01*
X3641264Y22817733D01*
X3570932Y22780249D01*
X3559114Y22792067D01*
X3474114Y22707067D01*
X3469327Y22703148D01*
X3465299Y22698252D01*
X3379506Y22612459D01*
X3391372Y22600593D01*
X3354328Y22531488D01*
X3353840Y22530309D01*
X2089981Y22530309D01*
X1527000Y23093289D01*
X1527000Y23469691D01*
X3353840Y23469691D01*
X3391324Y23399359D01*
X3379506Y23387541D01*
X3464506Y23302541D01*
X3468425Y23297754D01*
X3473321Y23293726D01*
X3559114Y23207933D01*
X3570980Y23219799D01*
X3640085Y23182755D01*
X3641264Y23182267D01*
X3720324Y23228189D01*
X3720324Y23369143D01*
X3829183Y23478002D01*
X3857465Y23478002D01*
X3966324Y23369143D01*
X3966324Y23228189D01*
X4032865Y23189539D01*
X4071514Y23123000D01*
X4212468Y23123000D01*
X4321327Y23014141D01*
X4500935Y23193749D01*
X4529217Y23193749D01*
X4708825Y23014141D01*
X4817684Y23123000D01*
X4958638Y23123000D01*
X5004560Y23202060D01*
X4967076Y23272392D01*
X4985194Y23290510D01*
X5054299Y23253466D01*
X5055478Y23252978D01*
X5134538Y23298900D01*
X5134538Y23439854D01*
X5243397Y23548713D01*
X5271679Y23548713D01*
X5380538Y23439854D01*
X5380538Y23298900D01*
X5459598Y23252978D01*
X5529930Y23290462D01*
X5548048Y23272344D01*
X5511004Y23203239D01*
X5510516Y23202060D01*
X5556438Y23123000D01*
X5697392Y23123000D01*
X5806251Y23014141D01*
X5985859Y23193749D01*
X6014141Y23193749D01*
X6193749Y23014141D01*
X6302608Y23123000D01*
X6443562Y23123000D01*
X6489484Y23202060D01*
X6452000Y23272392D01*
X6470118Y23290510D01*
X6539223Y23253466D01*
X6540402Y23252978D01*
X6619462Y23298900D01*
X6619462Y23439854D01*
X6728321Y23548713D01*
X6756603Y23548713D01*
X6865462Y23439854D01*
X6865462Y23298900D01*
X6944522Y23252978D01*
X7014854Y23290462D01*
X7032972Y23272344D01*
X6995928Y23203239D01*
X6995440Y23202060D01*
X7041362Y23123000D01*
X7182316Y23123000D01*
X7291175Y23014141D01*
X7470783Y23193749D01*
X7499065Y23193749D01*
X7678673Y23014141D01*
X7787533Y23123000D01*
X7928486Y23123000D01*
X7967135Y23189539D01*
X8033676Y23228189D01*
X8033676Y23369143D01*
X8142535Y23478002D01*
X8170817Y23478002D01*
X8279676Y23369143D01*
X8279676Y23228189D01*
X8358736Y23182267D01*
X8429068Y23219751D01*
X8440886Y23207933D01*
X8525886Y23292933D01*
X8530673Y23296852D01*
X8534701Y23301748D01*
X8620494Y23387541D01*
X8608628Y23399407D01*
X8645672Y23468512D01*
X8646160Y23469691D01*
X8600238Y23548751D01*
X8459284Y23548751D01*
X8350425Y23657610D01*
X8170817Y23478002D01*
X8142535Y23478002D01*
X7962927Y23657610D01*
X7854069Y23548751D01*
X7713114Y23548751D01*
X7674465Y23482212D01*
X7607924Y23443562D01*
X7607924Y23302608D01*
X7499065Y23193749D01*
X7470783Y23193749D01*
X7361924Y23302608D01*
X7361924Y23443562D01*
X7282864Y23489484D01*
X7212532Y23452000D01*
X7194414Y23470118D01*
X7231458Y23539223D01*
X7231946Y23540402D01*
X7186024Y23619462D01*
X7045070Y23619462D01*
X6936211Y23728321D01*
X6756603Y23548713D01*
X6728321Y23548713D01*
X6548713Y23728321D01*
X6439854Y23619462D01*
X6298900Y23619462D01*
X6252978Y23540402D01*
X6290462Y23470070D01*
X6272344Y23451952D01*
X6203239Y23488996D01*
X6202060Y23489484D01*
X6123000Y23443562D01*
X6123000Y23302608D01*
X6014141Y23193749D01*
X5985859Y23193749D01*
X5877000Y23302608D01*
X5877000Y23443562D01*
X5797940Y23489484D01*
X5727608Y23452000D01*
X5709490Y23470118D01*
X5746534Y23539223D01*
X5747022Y23540402D01*
X5701100Y23619462D01*
X5560146Y23619462D01*
X5451287Y23728321D01*
X5271679Y23548713D01*
X5243397Y23548713D01*
X5063789Y23728321D01*
X4954930Y23619462D01*
X4813976Y23619462D01*
X4768054Y23540402D01*
X4805538Y23470070D01*
X4787420Y23451952D01*
X4718315Y23488996D01*
X4717136Y23489484D01*
X4638076Y23443562D01*
X4638076Y23302608D01*
X4529217Y23193749D01*
X4500935Y23193749D01*
X4392076Y23302608D01*
X4392076Y23443562D01*
X4325535Y23482212D01*
X4286886Y23548751D01*
X4145932Y23548751D01*
X4037073Y23657610D01*
X3857465Y23478002D01*
X3829183Y23478002D01*
X3649575Y23657610D01*
X3540716Y23548751D01*
X3399762Y23548751D01*
X3353840Y23469691D01*
X1527000Y23469691D01*
X1527000Y23823000D01*
X2874119Y23823000D01*
X2900000Y23820451D01*
X2925881Y23823000D01*
X3003310Y23830626D01*
X3102650Y23860761D01*
X3127065Y23873811D01*
X3353840Y23873811D01*
X3399762Y23794751D01*
X3540716Y23794751D01*
X3649575Y23685892D01*
X3829183Y23865500D01*
X3857465Y23865500D01*
X4037073Y23685892D01*
X4145932Y23794751D01*
X4286886Y23794751D01*
X4332808Y23873811D01*
X4295324Y23944143D01*
X4313443Y23962262D01*
X4382547Y23925218D01*
X4383726Y23924730D01*
X4462786Y23970652D01*
X4462786Y24111606D01*
X4571645Y24220465D01*
X4599927Y24220465D01*
X4708786Y24111606D01*
X4708786Y23970652D01*
X4775326Y23932002D01*
X4813976Y23865462D01*
X4954930Y23865462D01*
X5063789Y23756603D01*
X5243397Y23936211D01*
X5271679Y23936211D01*
X5451287Y23756603D01*
X5560146Y23865462D01*
X5701100Y23865462D01*
X5747022Y23944522D01*
X5709538Y24014854D01*
X5727656Y24032972D01*
X5796761Y23995928D01*
X5797940Y23995440D01*
X5877000Y24041362D01*
X5877000Y24182316D01*
X5985859Y24291175D01*
X6014141Y24291175D01*
X6123000Y24182316D01*
X6123000Y24041362D01*
X6202060Y23995440D01*
X6272392Y24032924D01*
X6290510Y24014806D01*
X6253466Y23945701D01*
X6252978Y23944522D01*
X6298900Y23865462D01*
X6439854Y23865462D01*
X6548713Y23756603D01*
X6728321Y23936211D01*
X6756603Y23936211D01*
X6936211Y23756603D01*
X7045070Y23865462D01*
X7186024Y23865462D01*
X7224674Y23932002D01*
X7291214Y23970652D01*
X7291214Y24111606D01*
X7400073Y24220465D01*
X7428355Y24220465D01*
X7537214Y24111606D01*
X7537214Y23970652D01*
X7616274Y23924730D01*
X7686606Y23962214D01*
X7692859Y23955961D01*
X7692858Y23955961D01*
X7704724Y23944095D01*
X7667680Y23874990D01*
X7667192Y23873811D01*
X7713114Y23794751D01*
X7854068Y23794751D01*
X7962927Y23685892D01*
X8142535Y23865500D01*
X8170817Y23865500D01*
X8350425Y23685892D01*
X8459284Y23794751D01*
X8600238Y23794751D01*
X8646160Y23873811D01*
X8608676Y23944143D01*
X8620494Y23955961D01*
X8535494Y24040961D01*
X8531575Y24045748D01*
X8526679Y24049776D01*
X8440886Y24135569D01*
X8429020Y24123703D01*
X8359915Y24160747D01*
X8358736Y24161235D01*
X8279676Y24115313D01*
X8279676Y23974359D01*
X8170817Y23865500D01*
X8142535Y23865500D01*
X8033676Y23974359D01*
X8033676Y24115313D01*
X7954616Y24161235D01*
X7884284Y24123751D01*
X7878032Y24130003D01*
X7878032Y24130004D01*
X7866166Y24141870D01*
X7903210Y24210975D01*
X7903698Y24212154D01*
X7857776Y24291214D01*
X7716822Y24291214D01*
X7607963Y24400073D01*
X7428355Y24220465D01*
X7400073Y24220465D01*
X7220465Y24400073D01*
X7111606Y24291214D01*
X6970652Y24291214D01*
X6932002Y24224674D01*
X6865462Y24186024D01*
X6865462Y24045070D01*
X6756603Y23936211D01*
X6728321Y23936211D01*
X6619462Y24045070D01*
X6619462Y24186024D01*
X6540402Y24231946D01*
X6470070Y24194462D01*
X6451952Y24212580D01*
X6488996Y24281685D01*
X6489484Y24282864D01*
X6443562Y24361924D01*
X6302608Y24361924D01*
X6193749Y24470783D01*
X6014141Y24291175D01*
X5985859Y24291175D01*
X5806251Y24470783D01*
X5697392Y24361924D01*
X5556438Y24361924D01*
X5510516Y24282864D01*
X5548000Y24212532D01*
X5529882Y24194414D01*
X5460777Y24231458D01*
X5459598Y24231946D01*
X5380538Y24186024D01*
X5380538Y24045070D01*
X5271679Y23936211D01*
X5243397Y23936211D01*
X5134538Y24045070D01*
X5134538Y24186024D01*
X5067998Y24224674D01*
X5029348Y24291214D01*
X4888394Y24291214D01*
X4779535Y24400073D01*
X4599927Y24220465D01*
X4571645Y24220465D01*
X4392037Y24400073D01*
X4283178Y24291214D01*
X4142224Y24291214D01*
X4096302Y24212154D01*
X4133786Y24141822D01*
X4121968Y24130004D01*
X4121969Y24130003D01*
X4115668Y24123702D01*
X4046563Y24160747D01*
X4045384Y24161235D01*
X3966324Y24115313D01*
X3966324Y23974359D01*
X3857465Y23865500D01*
X3829183Y23865500D01*
X3720324Y23974359D01*
X3720324Y24115313D01*
X3641264Y24161235D01*
X3570932Y24123751D01*
X3559114Y24135569D01*
X3474114Y24050569D01*
X3469327Y24046650D01*
X3465299Y24041754D01*
X3379506Y23955961D01*
X3391372Y23944095D01*
X3354328Y23874990D01*
X3353840Y23873811D01*
X3127065Y23873811D01*
X3194202Y23909696D01*
X3274448Y23975552D01*
X3290955Y23995666D01*
X3911563Y24616274D01*
X4096302Y24616274D01*
X4142224Y24537214D01*
X4283178Y24537214D01*
X4392037Y24428355D01*
X4571645Y24607963D01*
X4599927Y24607963D01*
X4779535Y24428355D01*
X4888394Y24537214D01*
X5029348Y24537214D01*
X5075270Y24616274D01*
X5037786Y24686605D01*
X5055905Y24704724D01*
X5125010Y24667680D01*
X5126189Y24667192D01*
X5205249Y24713114D01*
X5205249Y24854068D01*
X5314108Y24962927D01*
X5342390Y24962927D01*
X5451249Y24854068D01*
X5451249Y24713114D01*
X5517788Y24674465D01*
X5556438Y24607924D01*
X5697392Y24607924D01*
X5806251Y24499065D01*
X5985859Y24678673D01*
X6014141Y24678673D01*
X6193749Y24499065D01*
X6302608Y24607924D01*
X6443562Y24607924D01*
X6482212Y24674465D01*
X6548751Y24713114D01*
X6548751Y24854067D01*
X6657610Y24962927D01*
X6685892Y24962927D01*
X6794751Y24854068D01*
X6794751Y24713114D01*
X6873811Y24667192D01*
X6944143Y24704676D01*
X6955961Y24692858D01*
X6955962Y24692858D01*
X6962262Y24686558D01*
X6925218Y24617453D01*
X6924730Y24616274D01*
X6970652Y24537214D01*
X7111606Y24537214D01*
X7220465Y24428355D01*
X7400073Y24607963D01*
X7428355Y24607963D01*
X7607963Y24428355D01*
X7716822Y24537214D01*
X7857776Y24537214D01*
X7903698Y24616274D01*
X7866214Y24686606D01*
X7878032Y24698424D01*
X7793032Y24783424D01*
X7789113Y24788211D01*
X7784217Y24792239D01*
X7698424Y24878032D01*
X7686558Y24866166D01*
X7617453Y24903210D01*
X7616274Y24903698D01*
X7537214Y24857776D01*
X7537214Y24716822D01*
X7428355Y24607963D01*
X7400073Y24607963D01*
X7291214Y24716822D01*
X7291214Y24857776D01*
X7212154Y24903698D01*
X7141822Y24866214D01*
X7130004Y24878032D01*
X7130004Y24878031D01*
X7123703Y24884332D01*
X7160747Y24953437D01*
X7161235Y24954616D01*
X7115313Y25033676D01*
X6974359Y25033676D01*
X6865500Y25142535D01*
X6685892Y24962927D01*
X6657610Y24962927D01*
X6478002Y25142535D01*
X6369143Y25033676D01*
X6228189Y25033676D01*
X6189539Y24967135D01*
X6123000Y24928486D01*
X6123000Y24787531D01*
X6014141Y24678673D01*
X5985859Y24678673D01*
X5877000Y24787532D01*
X5877000Y24928486D01*
X5810461Y24967135D01*
X5771811Y25033676D01*
X5630857Y25033676D01*
X5521998Y25142535D01*
X5342390Y24962927D01*
X5314108Y24962927D01*
X5134500Y25142535D01*
X5025641Y25033676D01*
X4884687Y25033676D01*
X4838765Y24954616D01*
X4876249Y24884283D01*
X4869997Y24878031D01*
X4869996Y24878032D01*
X4858130Y24866166D01*
X4789025Y24903210D01*
X4787846Y24903698D01*
X4708786Y24857776D01*
X4708786Y24716822D01*
X4599927Y24607963D01*
X4571645Y24607963D01*
X4462786Y24716822D01*
X4462786Y24857776D01*
X4383726Y24903698D01*
X4313394Y24866214D01*
X4301576Y24878032D01*
X4216576Y24793032D01*
X4211789Y24789113D01*
X4207761Y24784217D01*
X4121968Y24698424D01*
X4133834Y24686558D01*
X4096790Y24617453D01*
X4096302Y24616274D01*
X3911563Y24616274D01*
X4654025Y25358736D01*
X4838765Y25358736D01*
X4884687Y25279676D01*
X5025641Y25279676D01*
X5134500Y25170817D01*
X5314108Y25350425D01*
X5342390Y25350425D01*
X5521998Y25170817D01*
X5630857Y25279676D01*
X5771811Y25279676D01*
X5817733Y25358736D01*
X6182267Y25358736D01*
X6228189Y25279676D01*
X6369143Y25279676D01*
X6478002Y25170817D01*
X6657610Y25350425D01*
X6685892Y25350425D01*
X6865500Y25170817D01*
X6974359Y25279676D01*
X7115313Y25279676D01*
X7161235Y25358736D01*
X7123751Y25429068D01*
X7135569Y25440886D01*
X7050569Y25525886D01*
X7046650Y25530673D01*
X7041754Y25534701D01*
X6955961Y25620494D01*
X6944095Y25608628D01*
X6874990Y25645672D01*
X6873811Y25646160D01*
X6794751Y25600238D01*
X6794751Y25459284D01*
X6685892Y25350425D01*
X6657610Y25350425D01*
X6548751Y25459284D01*
X6548751Y25600238D01*
X6469691Y25646160D01*
X6399359Y25608676D01*
X6387541Y25620494D01*
X6302541Y25535494D01*
X6297754Y25531575D01*
X6293726Y25526679D01*
X6207933Y25440886D01*
X6219799Y25429020D01*
X6182755Y25359915D01*
X6182267Y25358736D01*
X5817733Y25358736D01*
X5780249Y25429068D01*
X5792067Y25440886D01*
X5707067Y25525886D01*
X5703148Y25530673D01*
X5698252Y25534701D01*
X5612459Y25620494D01*
X5600593Y25608628D01*
X5531488Y25645672D01*
X5530309Y25646160D01*
X5451249Y25600238D01*
X5451249Y25459284D01*
X5342390Y25350425D01*
X5314108Y25350425D01*
X5205249Y25459284D01*
X5205249Y25600238D01*
X5126189Y25646160D01*
X5055857Y25608676D01*
X5044039Y25620494D01*
X4959039Y25535494D01*
X4954252Y25531575D01*
X4950224Y25526679D01*
X4864431Y25440886D01*
X4876297Y25429020D01*
X4839253Y25359915D01*
X4838765Y25358736D01*
X4654025Y25358736D01*
X5418290Y26123000D01*
X8306711Y26123000D01*
X8537038Y25892673D01*
X8547095Y25842111D01*
X8594360Y25728004D01*
X8662977Y25625311D01*
X8750311Y25537977D01*
X8853004Y25469360D01*
X8967111Y25422095D01*
X9017672Y25412038D01*
X9123001Y25306709D01*
X9123000Y18025881D01*
X9120451Y18000000D01*
X9123000Y17974120D01*
X9130626Y17896691D01*
X9160761Y17797351D01*
X9209696Y17705798D01*
X9275552Y17625552D01*
X9295666Y17609045D01*
X10807743Y16096967D01*
X10062777Y15352000D01*
X9188152Y15352000D01*
X9255640Y15453004D01*
X9302905Y15567111D01*
X9327000Y15688246D01*
X9327000Y15811754D01*
X9302905Y15932889D01*
X9255640Y16046996D01*
X9187023Y16149689D01*
X9099689Y16237023D01*
X8996996Y16305640D01*
X8882889Y16352905D01*
X8761754Y16377000D01*
X8638246Y16377000D01*
X8517111Y16352905D01*
X8403004Y16305640D01*
X8300311Y16237023D01*
X8212977Y16149689D01*
X8144360Y16046996D01*
X8097095Y15932889D01*
X8073000Y15811754D01*
X8073000Y15688246D01*
X8097095Y15567111D01*
X8144360Y15453004D01*
X8179380Y15400593D01*
X8096996Y15455640D01*
X7982889Y15502905D01*
X7861754Y15527000D01*
X7738246Y15527000D01*
X7617111Y15502905D01*
X7503004Y15455640D01*
X7400311Y15387023D01*
X7312977Y15299689D01*
X7244360Y15196996D01*
X7197095Y15082889D01*
X7173000Y14961754D01*
X7173000Y14838246D01*
X7197095Y14717111D01*
X7244360Y14603004D01*
X7312977Y14500311D01*
X7400311Y14412977D01*
X7503004Y14344360D01*
X7617111Y14297095D01*
X7738246Y14273000D01*
X7861754Y14273000D01*
X7982889Y14297095D01*
X8096996Y14344360D01*
X8199689Y14412977D01*
X8234712Y14448000D01*
X10020013Y14448000D01*
X10002417Y14446267D01*
X9884545Y14410510D01*
X9775913Y14352446D01*
X9680697Y14274303D01*
X9602554Y14179087D01*
X9544490Y14070455D01*
X9508733Y13952583D01*
X9496660Y13830000D01*
X9496660Y12430000D01*
X9508733Y12307417D01*
X9544490Y12189545D01*
X9602554Y12080913D01*
X9680697Y11985697D01*
X9775913Y11907554D01*
X9884545Y11849490D01*
X10002417Y11813733D01*
X10125000Y11801660D01*
X10825000Y11801660D01*
X10947583Y11813733D01*
X11065455Y11849490D01*
X11174087Y11907554D01*
X11269303Y11985697D01*
X11347446Y12080913D01*
X11405510Y12189545D01*
X11441267Y12307417D01*
X11453340Y12430000D01*
X11453340Y12659292D01*
X11498000Y12659292D01*
X11498000Y12540708D01*
X11521134Y12424403D01*
X11566514Y12314846D01*
X11632396Y12216247D01*
X11716247Y12132396D01*
X11814846Y12066514D01*
X11924403Y12021134D01*
X12040708Y11998000D01*
X12159292Y11998000D01*
X12275597Y12021134D01*
X12385154Y12066514D01*
X12483753Y12132396D01*
X12567604Y12216247D01*
X12633486Y12314846D01*
X12678866Y12424403D01*
X12681322Y12436754D01*
X13448000Y12436754D01*
X13448000Y12313246D01*
X13472095Y12192111D01*
X13519360Y12078004D01*
X13587977Y11975311D01*
X13675311Y11887977D01*
X13778004Y11819360D01*
X13892111Y11772095D01*
X14013246Y11748000D01*
X14136754Y11748000D01*
X14257889Y11772095D01*
X14371996Y11819360D01*
X14474689Y11887977D01*
X14500000Y11913288D01*
X14525311Y11887977D01*
X14628004Y11819360D01*
X14742111Y11772095D01*
X14863246Y11748000D01*
X14986754Y11748000D01*
X15107889Y11772095D01*
X15221996Y11819360D01*
X15324689Y11887977D01*
X15412023Y11975311D01*
X15480640Y12078004D01*
X15527905Y12192111D01*
X15552000Y12313246D01*
X15552000Y12436754D01*
X15527905Y12557889D01*
X15485903Y12659292D01*
X17298000Y12659292D01*
X17298000Y12540708D01*
X17321134Y12424403D01*
X17366514Y12314846D01*
X17432396Y12216247D01*
X17516247Y12132396D01*
X17614846Y12066514D01*
X17724403Y12021134D01*
X17840708Y11998000D01*
X17959292Y11998000D01*
X18075597Y12021134D01*
X18185154Y12066514D01*
X18283753Y12132396D01*
X18367604Y12216247D01*
X18433486Y12314846D01*
X18478866Y12424403D01*
X18502000Y12540708D01*
X18502000Y12659292D01*
X18478866Y12775597D01*
X18433486Y12885154D01*
X18367604Y12983753D01*
X18283753Y13067604D01*
X18185154Y13133486D01*
X18075597Y13178866D01*
X17959292Y13202000D01*
X17840708Y13202000D01*
X17724403Y13178866D01*
X17614846Y13133486D01*
X17516247Y13067604D01*
X17432396Y12983753D01*
X17366514Y12885154D01*
X17321134Y12775597D01*
X17298000Y12659292D01*
X15485903Y12659292D01*
X15480640Y12671996D01*
X15412023Y12774689D01*
X15324689Y12862023D01*
X15221996Y12930640D01*
X15107889Y12977905D01*
X14986754Y13002000D01*
X14863246Y13002000D01*
X14742111Y12977905D01*
X14628004Y12930640D01*
X14525311Y12862023D01*
X14500000Y12836712D01*
X14474689Y12862023D01*
X14371996Y12930640D01*
X14257889Y12977905D01*
X14136754Y13002000D01*
X14013246Y13002000D01*
X13892111Y12977905D01*
X13778004Y12930640D01*
X13675311Y12862023D01*
X13587977Y12774689D01*
X13519360Y12671996D01*
X13472095Y12557889D01*
X13448000Y12436754D01*
X12681322Y12436754D01*
X12702000Y12540708D01*
X12702000Y12659292D01*
X12678866Y12775597D01*
X12633486Y12885154D01*
X12567604Y12983753D01*
X12483753Y13067604D01*
X12385154Y13133486D01*
X12275597Y13178866D01*
X12159292Y13202000D01*
X12040708Y13202000D01*
X11924403Y13178866D01*
X11814846Y13133486D01*
X11716247Y13067604D01*
X11632396Y12983753D01*
X11566514Y12885154D01*
X11521134Y12775597D01*
X11498000Y12659292D01*
X11453340Y12659292D01*
X11453340Y13830000D01*
X18546660Y13830000D01*
X18546660Y12430000D01*
X18558733Y12307417D01*
X18594490Y12189545D01*
X18652554Y12080913D01*
X18730697Y11985697D01*
X18825913Y11907554D01*
X18934545Y11849490D01*
X19052417Y11813733D01*
X19175000Y11801660D01*
X19875000Y11801660D01*
X19997583Y11813733D01*
X20115455Y11849490D01*
X20224087Y11907554D01*
X20319303Y11985697D01*
X20397446Y12080913D01*
X20455510Y12189545D01*
X20491267Y12307417D01*
X20503340Y12430000D01*
X20503340Y13830000D01*
X20491267Y13952583D01*
X20455510Y14070455D01*
X20397446Y14179087D01*
X20319303Y14274303D01*
X20224087Y14352446D01*
X20115455Y14410510D01*
X19997583Y14446267D01*
X19875000Y14458340D01*
X19175000Y14458340D01*
X19052417Y14446267D01*
X18934545Y14410510D01*
X18825913Y14352446D01*
X18730697Y14274303D01*
X18652554Y14179087D01*
X18594490Y14070455D01*
X18558733Y13952583D01*
X18546660Y13830000D01*
X11453340Y13830000D01*
X11441267Y13952583D01*
X11405510Y14070455D01*
X11347446Y14179087D01*
X11269303Y14274303D01*
X11174087Y14352446D01*
X11065455Y14410510D01*
X10947583Y14446267D01*
X10825000Y14458340D01*
X10351134Y14458340D01*
X10423810Y14480386D01*
X10502333Y14522357D01*
X10571159Y14578841D01*
X10585323Y14596100D01*
X11220026Y15230803D01*
X18937124Y15230803D01*
X18937124Y15097445D01*
X18963140Y14966650D01*
X19014174Y14843444D01*
X19088264Y14732561D01*
X19182561Y14638264D01*
X19293444Y14564174D01*
X19416650Y14513140D01*
X19547445Y14487124D01*
X19680803Y14487124D01*
X19811598Y14513140D01*
X19934804Y14564174D01*
X20045687Y14638264D01*
X20139984Y14732561D01*
X20214074Y14843444D01*
X20265108Y14966650D01*
X20291124Y15097445D01*
X20291124Y15158876D01*
X20352555Y15158876D01*
X20483350Y15184892D01*
X20606556Y15235926D01*
X20717439Y15310016D01*
X20811736Y15404313D01*
X20885826Y15515196D01*
X20936860Y15638402D01*
X20962876Y15769197D01*
X20962876Y15902555D01*
X20936860Y16033350D01*
X20885826Y16156556D01*
X20811736Y16267439D01*
X20717439Y16361736D01*
X20606556Y16435826D01*
X20483350Y16486860D01*
X20352555Y16512876D01*
X20219197Y16512876D01*
X20088402Y16486860D01*
X19965196Y16435826D01*
X19854313Y16361736D01*
X19760016Y16267439D01*
X19685926Y16156556D01*
X19634892Y16033350D01*
X19608876Y15902555D01*
X19608876Y15841124D01*
X19547445Y15841124D01*
X19416650Y15815108D01*
X19293444Y15764074D01*
X19182561Y15689984D01*
X19088264Y15595687D01*
X19014174Y15484804D01*
X18963140Y15361598D01*
X18937124Y15230803D01*
X11220026Y15230803D01*
X11462224Y15473000D01*
X11566679Y15473000D01*
X11697474Y15499016D01*
X11820680Y15550050D01*
X11931563Y15624140D01*
X12025860Y15718437D01*
X12099950Y15829320D01*
X12150984Y15952526D01*
X12159043Y15993042D01*
X12689001Y16523000D01*
X21760999Y16523000D01*
X21840957Y16443042D01*
X21849016Y16402526D01*
X21900050Y16279320D01*
X21973000Y16170143D01*
X21973001Y12535891D01*
X21970451Y12510000D01*
X21980626Y12406691D01*
X22010761Y12307351D01*
X22010762Y12307350D01*
X22059697Y12215798D01*
X22125553Y12135552D01*
X22145662Y12119049D01*
X24629141Y9635568D01*
X24626310Y9628734D01*
X24583000Y9411000D01*
X24583000Y9189000D01*
X24626310Y8971266D01*
X24711266Y8766165D01*
X24834602Y8581579D01*
X24991579Y8424602D01*
X25176165Y8301266D01*
X25381266Y8216310D01*
X25599000Y8173000D01*
X25821000Y8173000D01*
X26038734Y8216310D01*
X26243835Y8301266D01*
X26428421Y8424602D01*
X26453819Y8450000D01*
X27121660Y8450000D01*
X27127008Y8395699D01*
X27142847Y8343484D01*
X27168569Y8295363D01*
X27203184Y8253184D01*
X27245363Y8218569D01*
X27293484Y8192847D01*
X27345699Y8177008D01*
X27400000Y8171660D01*
X28053750Y8173000D01*
X28123000Y8242250D01*
X28123000Y9173000D01*
X28377000Y9173000D01*
X28377000Y8242250D01*
X28446250Y8173000D01*
X29100000Y8171660D01*
X29154301Y8177008D01*
X29206516Y8192847D01*
X29254637Y8218569D01*
X29296816Y8253184D01*
X29331431Y8295363D01*
X29357153Y8343484D01*
X29372992Y8395699D01*
X29378340Y8450000D01*
X29377000Y9103750D01*
X29307750Y9173000D01*
X28377000Y9173000D01*
X28123000Y9173000D01*
X27192250Y9173000D01*
X27123000Y9103750D01*
X27121660Y8450000D01*
X26453819Y8450000D01*
X26585398Y8581579D01*
X26708734Y8766165D01*
X26793690Y8971266D01*
X26837000Y9189000D01*
X26837000Y9411000D01*
X26793690Y9628734D01*
X26708734Y9833835D01*
X26585398Y10018421D01*
X26453819Y10150000D01*
X27121660Y10150000D01*
X27123000Y9496250D01*
X27192250Y9427000D01*
X28123000Y9427000D01*
X28123000Y10357750D01*
X28377000Y10357750D01*
X28377000Y9427000D01*
X29307750Y9427000D01*
X29377000Y9496250D01*
X29378340Y10150000D01*
X29372992Y10204301D01*
X29357153Y10256516D01*
X29331431Y10304637D01*
X29296816Y10346816D01*
X29254637Y10381431D01*
X29206516Y10407153D01*
X29154301Y10422992D01*
X29100000Y10428340D01*
X28446250Y10427000D01*
X28377000Y10357750D01*
X28123000Y10357750D01*
X28053750Y10427000D01*
X27400000Y10428340D01*
X27345699Y10422992D01*
X27293484Y10407153D01*
X27245363Y10381431D01*
X27203184Y10346816D01*
X27168569Y10304637D01*
X27142847Y10256516D01*
X27127008Y10204301D01*
X27121660Y10150000D01*
X26453819Y10150000D01*
X26428421Y10175398D01*
X26243835Y10298734D01*
X26038734Y10383690D01*
X25821000Y10427000D01*
X25599000Y10427000D01*
X25381266Y10383690D01*
X25374432Y10380859D01*
X23027000Y12728289D01*
X23027000Y16170143D01*
X23099950Y16279320D01*
X23150984Y16402526D01*
X23177000Y16533321D01*
X23177000Y16666679D01*
X23150984Y16797474D01*
X23099950Y16920680D01*
X23025860Y17031563D01*
X22931563Y17125860D01*
X22820680Y17199950D01*
X22697474Y17250984D01*
X22656958Y17259043D01*
X22452000Y17464001D01*
X22452000Y19102795D01*
X22454187Y19125000D01*
X22445460Y19213608D01*
X22419614Y19298810D01*
X22419144Y19299689D01*
X22377643Y19377333D01*
X22321159Y19446159D01*
X22303906Y19460318D01*
X21602000Y20162223D01*
X21602000Y22915288D01*
X21637023Y22950311D01*
X21705640Y23053004D01*
X21752905Y23167111D01*
X21777000Y23288246D01*
X21777000Y23411754D01*
X21752905Y23532889D01*
X21705640Y23646996D01*
X21637023Y23749689D01*
X21549689Y23837023D01*
X21446996Y23905640D01*
X21332889Y23952905D01*
X21211754Y23977000D01*
X21088246Y23977000D01*
X20967111Y23952905D01*
X20853004Y23905640D01*
X20750311Y23837023D01*
X20662977Y23749689D01*
X20594360Y23646996D01*
X20547095Y23532889D01*
X20523000Y23411754D01*
X20523000Y23288246D01*
X20547095Y23167111D01*
X20594360Y23053004D01*
X20662977Y22950311D01*
X20698000Y22915288D01*
X20698001Y19997215D01*
X20695813Y19975000D01*
X20704540Y19886393D01*
X20730386Y19801191D01*
X20760763Y19744360D01*
X20772358Y19722667D01*
X20828842Y19653841D01*
X20846096Y19639681D01*
X21548000Y18937776D01*
X21548001Y17677000D01*
X12977000Y17677000D01*
X12977000Y20654155D01*
X13012977Y20600311D01*
X13100311Y20512977D01*
X13203004Y20444360D01*
X13317111Y20397095D01*
X13438246Y20373000D01*
X13561754Y20373000D01*
X13575792Y20375792D01*
X13573000Y20361754D01*
X13573000Y20238246D01*
X13597095Y20117111D01*
X13644360Y20003004D01*
X13712977Y19900311D01*
X13800311Y19812977D01*
X13903004Y19744360D01*
X14017111Y19697095D01*
X14138246Y19673000D01*
X14261754Y19673000D01*
X14382889Y19697095D01*
X14496996Y19744360D01*
X14599689Y19812977D01*
X14687023Y19900311D01*
X14755640Y20003004D01*
X14800686Y20111754D01*
X17473000Y20111754D01*
X17473000Y19988246D01*
X17497095Y19867111D01*
X17544360Y19753004D01*
X17612977Y19650311D01*
X17700311Y19562977D01*
X17803004Y19494360D01*
X17917111Y19447095D01*
X18038246Y19423000D01*
X18161754Y19423000D01*
X18282889Y19447095D01*
X18396996Y19494360D01*
X18499689Y19562977D01*
X18525000Y19588288D01*
X18550311Y19562977D01*
X18653004Y19494360D01*
X18767111Y19447095D01*
X18888246Y19423000D01*
X19011754Y19423000D01*
X19132889Y19447095D01*
X19246996Y19494360D01*
X19349689Y19562977D01*
X19437023Y19650311D01*
X19505640Y19753004D01*
X19552905Y19867111D01*
X19577000Y19988246D01*
X19577000Y20111754D01*
X19552905Y20232889D01*
X19505640Y20346996D01*
X19437023Y20449689D01*
X19349689Y20537023D01*
X19246996Y20605640D01*
X19132889Y20652905D01*
X19011754Y20677000D01*
X18888246Y20677000D01*
X18767111Y20652905D01*
X18653004Y20605640D01*
X18550311Y20537023D01*
X18525000Y20511712D01*
X18499689Y20537023D01*
X18396996Y20605640D01*
X18282889Y20652905D01*
X18161754Y20677000D01*
X18038246Y20677000D01*
X17917111Y20652905D01*
X17803004Y20605640D01*
X17700311Y20537023D01*
X17612977Y20449689D01*
X17544360Y20346996D01*
X17497095Y20232889D01*
X17473000Y20111754D01*
X14800686Y20111754D01*
X14802905Y20117111D01*
X14827000Y20238246D01*
X14827000Y20361754D01*
X14802905Y20482889D01*
X14755640Y20596996D01*
X14687023Y20699689D01*
X14599689Y20787023D01*
X14496996Y20855640D01*
X14382889Y20902905D01*
X14261754Y20927000D01*
X14138246Y20927000D01*
X14124208Y20924208D01*
X14127000Y20938246D01*
X14127000Y21061754D01*
X14102905Y21182889D01*
X14055640Y21296996D01*
X13987023Y21399689D01*
X13899689Y21487023D01*
X13796996Y21555640D01*
X13682889Y21602905D01*
X13561754Y21627000D01*
X13438246Y21627000D01*
X13317111Y21602905D01*
X13203004Y21555640D01*
X13100311Y21487023D01*
X13012977Y21399689D01*
X12977000Y21345845D01*
X12977000Y23611754D01*
X14223000Y23611754D01*
X14223000Y23488246D01*
X14247095Y23367111D01*
X14294360Y23253004D01*
X14362977Y23150311D01*
X14450311Y23062977D01*
X14553004Y22994360D01*
X14667111Y22947095D01*
X14788246Y22923000D01*
X14911754Y22923000D01*
X15032889Y22947095D01*
X15146996Y22994360D01*
X15249689Y23062977D01*
X15337023Y23150311D01*
X15405640Y23253004D01*
X15452905Y23367111D01*
X15477000Y23488246D01*
X15477000Y23611754D01*
X15452905Y23732889D01*
X15405640Y23846996D01*
X15337023Y23949689D01*
X15249689Y24037023D01*
X15146996Y24105640D01*
X15032889Y24152905D01*
X14911754Y24177000D01*
X14788246Y24177000D01*
X14667111Y24152905D01*
X14553004Y24105640D01*
X14450311Y24037023D01*
X14362977Y23949689D01*
X14294360Y23846996D01*
X14247095Y23732889D01*
X14223000Y23611754D01*
X12977000Y23611754D01*
X12977000Y25725774D01*
X13523000Y25725774D01*
X13523000Y25474226D01*
X13572074Y25227513D01*
X13668337Y24995114D01*
X13808089Y24785960D01*
X13985960Y24608089D01*
X14195114Y24468337D01*
X14427513Y24372074D01*
X14674226Y24323000D01*
X14925774Y24323000D01*
X15172487Y24372074D01*
X15404886Y24468337D01*
X15614040Y24608089D01*
X15791911Y24785960D01*
X15931663Y24995114D01*
X15994991Y25148000D01*
X21662777Y25148000D01*
X23398000Y23412775D01*
X23398001Y20287226D01*
X22796100Y19685323D01*
X22778841Y19671159D01*
X22722357Y19602332D01*
X22683449Y19529540D01*
X22680386Y19523809D01*
X22654540Y19438607D01*
X22645813Y19350000D01*
X22648000Y19327795D01*
X22648001Y17822215D01*
X22645813Y17800000D01*
X22654540Y17711393D01*
X22680386Y17626191D01*
X22703965Y17582078D01*
X22722358Y17547667D01*
X22778842Y17478841D01*
X22796095Y17464681D01*
X23398001Y16862774D01*
X23398000Y13722205D01*
X23395813Y13700000D01*
X23398000Y13677796D01*
X23404540Y13611394D01*
X23430386Y13526191D01*
X23472357Y13447668D01*
X23528841Y13378841D01*
X23546100Y13364677D01*
X24660207Y12250569D01*
X24626310Y12168734D01*
X24583000Y11951000D01*
X24583000Y11729000D01*
X24626310Y11511266D01*
X24711266Y11306165D01*
X24834602Y11121579D01*
X24991579Y10964602D01*
X25176165Y10841266D01*
X25381266Y10756310D01*
X25599000Y10713000D01*
X25821000Y10713000D01*
X26038734Y10756310D01*
X26243835Y10841266D01*
X26428421Y10964602D01*
X26585398Y11121579D01*
X26708734Y11306165D01*
X26793690Y11511266D01*
X26799283Y11539385D01*
X27163833Y11539385D01*
X27179866Y11486508D01*
X27269391Y11284527D01*
X27396601Y11103893D01*
X27556606Y10951547D01*
X27743258Y10833344D01*
X27949384Y10753826D01*
X28123000Y10789422D01*
X28123000Y11713000D01*
X28377000Y11713000D01*
X28377000Y10789422D01*
X28550616Y10753826D01*
X28756742Y10833344D01*
X28943394Y10951547D01*
X29103399Y11103893D01*
X29230609Y11284527D01*
X29320134Y11486508D01*
X29336167Y11539385D01*
X29300098Y11713000D01*
X28377000Y11713000D01*
X28123000Y11713000D01*
X27199902Y11713000D01*
X27163833Y11539385D01*
X26799283Y11539385D01*
X26837000Y11729000D01*
X26837000Y11951000D01*
X26799284Y12140615D01*
X27163833Y12140615D01*
X27199902Y11967000D01*
X28123000Y11967000D01*
X28123000Y12890578D01*
X28377000Y12890578D01*
X28377000Y11967000D01*
X29300098Y11967000D01*
X29336167Y12140615D01*
X29320134Y12193492D01*
X29230609Y12395473D01*
X29103399Y12576107D01*
X28943394Y12728453D01*
X28756742Y12846656D01*
X28550616Y12926174D01*
X28377000Y12890578D01*
X28123000Y12890578D01*
X27949384Y12926174D01*
X27743258Y12846656D01*
X27556606Y12728453D01*
X27396601Y12576107D01*
X27269391Y12395473D01*
X27179866Y12193492D01*
X27163833Y12140615D01*
X26799284Y12140615D01*
X26793690Y12168734D01*
X26708734Y12373835D01*
X26585398Y12558421D01*
X26428421Y12715398D01*
X26243835Y12838734D01*
X26038734Y12923690D01*
X25821000Y12967000D01*
X25599000Y12967000D01*
X25381266Y12923690D01*
X25299431Y12889793D01*
X24302000Y13887223D01*
X24302000Y14491000D01*
X24583000Y14491000D01*
X24583000Y14269000D01*
X24626310Y14051266D01*
X24711266Y13846165D01*
X24834602Y13661579D01*
X24991579Y13504602D01*
X25176165Y13381266D01*
X25381266Y13296310D01*
X25599000Y13253000D01*
X25821000Y13253000D01*
X26038734Y13296310D01*
X26243835Y13381266D01*
X26428421Y13504602D01*
X26585398Y13661579D01*
X26708734Y13846165D01*
X26793690Y14051266D01*
X26837000Y14269000D01*
X26837000Y14491000D01*
X27123000Y14491000D01*
X27123000Y14269000D01*
X27166310Y14051266D01*
X27251266Y13846165D01*
X27374602Y13661579D01*
X27531579Y13504602D01*
X27716165Y13381266D01*
X27921266Y13296310D01*
X28139000Y13253000D01*
X28361000Y13253000D01*
X28578734Y13296310D01*
X28783835Y13381266D01*
X28968421Y13504602D01*
X29125398Y13661579D01*
X29248734Y13846165D01*
X29333690Y14051266D01*
X29377000Y14269000D01*
X29377000Y14491000D01*
X29333690Y14708734D01*
X29248734Y14913835D01*
X29125398Y15098421D01*
X28968421Y15255398D01*
X28783835Y15378734D01*
X28578734Y15463690D01*
X28361000Y15507000D01*
X28139000Y15507000D01*
X27921266Y15463690D01*
X27716165Y15378734D01*
X27531579Y15255398D01*
X27374602Y15098421D01*
X27251266Y14913835D01*
X27166310Y14708734D01*
X27123000Y14491000D01*
X26837000Y14491000D01*
X26793690Y14708734D01*
X26708734Y14913835D01*
X26585398Y15098421D01*
X26428421Y15255398D01*
X26243835Y15378734D01*
X26038734Y15463690D01*
X25821000Y15507000D01*
X25599000Y15507000D01*
X25381266Y15463690D01*
X25176165Y15378734D01*
X24991579Y15255398D01*
X24834602Y15098421D01*
X24711266Y14913835D01*
X24626310Y14708734D01*
X24583000Y14491000D01*
X24302000Y14491000D01*
X24302000Y16619385D01*
X24623833Y16619385D01*
X24639866Y16566508D01*
X24729391Y16364527D01*
X24856601Y16183893D01*
X25016606Y16031547D01*
X25203258Y15913344D01*
X25409384Y15833826D01*
X25583000Y15869422D01*
X25583000Y16793000D01*
X25837000Y16793000D01*
X25837000Y15869422D01*
X26010616Y15833826D01*
X26216742Y15913344D01*
X26403394Y16031547D01*
X26563399Y16183893D01*
X26690609Y16364527D01*
X26780134Y16566508D01*
X26796167Y16619385D01*
X27163833Y16619385D01*
X27179866Y16566508D01*
X27269391Y16364527D01*
X27396601Y16183893D01*
X27556606Y16031547D01*
X27743258Y15913344D01*
X27949384Y15833826D01*
X28123000Y15869422D01*
X28123000Y16793000D01*
X28377000Y16793000D01*
X28377000Y15869422D01*
X28550616Y15833826D01*
X28756742Y15913344D01*
X28943394Y16031547D01*
X29103399Y16183893D01*
X29230609Y16364527D01*
X29320134Y16566508D01*
X29336167Y16619385D01*
X29300098Y16793000D01*
X28377000Y16793000D01*
X28123000Y16793000D01*
X27199902Y16793000D01*
X27163833Y16619385D01*
X26796167Y16619385D01*
X26760098Y16793000D01*
X25837000Y16793000D01*
X25583000Y16793000D01*
X24659902Y16793000D01*
X24623833Y16619385D01*
X24302000Y16619385D01*
X24302000Y17027796D01*
X24304187Y17050001D01*
X24295460Y17138608D01*
X24270584Y17220615D01*
X24623833Y17220615D01*
X24659902Y17047000D01*
X25583000Y17047000D01*
X25583000Y17970578D01*
X25837000Y17970578D01*
X25837000Y17047000D01*
X26760098Y17047000D01*
X26796167Y17220615D01*
X27163833Y17220615D01*
X27199902Y17047000D01*
X28123000Y17047000D01*
X28123000Y17970578D01*
X28377000Y17970578D01*
X28377000Y17047000D01*
X29300098Y17047000D01*
X29336167Y17220615D01*
X29320134Y17273492D01*
X29230609Y17475473D01*
X29103399Y17656107D01*
X28943394Y17808453D01*
X28756742Y17926656D01*
X28550616Y18006174D01*
X28377000Y17970578D01*
X28123000Y17970578D01*
X27949384Y18006174D01*
X27743258Y17926656D01*
X27556606Y17808453D01*
X27396601Y17656107D01*
X27269391Y17475473D01*
X27179866Y17273492D01*
X27163833Y17220615D01*
X26796167Y17220615D01*
X26780134Y17273492D01*
X26690609Y17475473D01*
X26563399Y17656107D01*
X26403394Y17808453D01*
X26216742Y17926656D01*
X26010616Y18006174D01*
X25837000Y17970578D01*
X25583000Y17970578D01*
X25409384Y18006174D01*
X25203258Y17926656D01*
X25016606Y17808453D01*
X24856601Y17656107D01*
X24729391Y17475473D01*
X24639866Y17273492D01*
X24623833Y17220615D01*
X24270584Y17220615D01*
X24269614Y17223810D01*
X24255089Y17250984D01*
X24227643Y17302333D01*
X24171159Y17371159D01*
X24153910Y17385315D01*
X23552000Y17987223D01*
X23552000Y19162777D01*
X23960224Y19571000D01*
X24583000Y19571000D01*
X24583000Y19349000D01*
X24626310Y19131266D01*
X24711266Y18926165D01*
X24834602Y18741579D01*
X24991579Y18584602D01*
X25176165Y18461266D01*
X25381266Y18376310D01*
X25599000Y18333000D01*
X25821000Y18333000D01*
X26038734Y18376310D01*
X26243835Y18461266D01*
X26428421Y18584602D01*
X26585398Y18741579D01*
X26708734Y18926165D01*
X26793690Y19131266D01*
X26837000Y19349000D01*
X26837000Y19571000D01*
X27123000Y19571000D01*
X27123000Y19349000D01*
X27166310Y19131266D01*
X27251266Y18926165D01*
X27374602Y18741579D01*
X27531579Y18584602D01*
X27716165Y18461266D01*
X27921266Y18376310D01*
X28139000Y18333000D01*
X28361000Y18333000D01*
X28578734Y18376310D01*
X28783835Y18461266D01*
X28968421Y18584602D01*
X29125398Y18741579D01*
X29248734Y18926165D01*
X29333690Y19131266D01*
X29377000Y19349000D01*
X29377000Y19571000D01*
X29333690Y19788734D01*
X29248734Y19993835D01*
X29125398Y20178421D01*
X28968421Y20335398D01*
X28783835Y20458734D01*
X28578734Y20543690D01*
X28361000Y20587000D01*
X28139000Y20587000D01*
X27921266Y20543690D01*
X27716165Y20458734D01*
X27531579Y20335398D01*
X27374602Y20178421D01*
X27251266Y19993835D01*
X27166310Y19788734D01*
X27123000Y19571000D01*
X26837000Y19571000D01*
X26793690Y19788734D01*
X26708734Y19993835D01*
X26585398Y20178421D01*
X26428421Y20335398D01*
X26243835Y20458734D01*
X26038734Y20543690D01*
X25821000Y20587000D01*
X25599000Y20587000D01*
X25381266Y20543690D01*
X25176165Y20458734D01*
X24991579Y20335398D01*
X24834602Y20178421D01*
X24711266Y19993835D01*
X24626310Y19788734D01*
X24583000Y19571000D01*
X23960224Y19571000D01*
X24153910Y19764685D01*
X24171159Y19778841D01*
X24227643Y19847667D01*
X24269614Y19926190D01*
X24284420Y19975000D01*
X24295460Y20011392D01*
X24304187Y20099999D01*
X24302000Y20122204D01*
X24302000Y22111000D01*
X24583000Y22111000D01*
X24583000Y21889000D01*
X24626310Y21671266D01*
X24711266Y21466165D01*
X24834602Y21281579D01*
X24991579Y21124602D01*
X25176165Y21001266D01*
X25381266Y20916310D01*
X25599000Y20873000D01*
X25821000Y20873000D01*
X26038734Y20916310D01*
X26243835Y21001266D01*
X26428421Y21124602D01*
X26585398Y21281579D01*
X26708734Y21466165D01*
X26793690Y21671266D01*
X26837000Y21889000D01*
X26837000Y22111000D01*
X27123000Y22111000D01*
X27123000Y21889000D01*
X27166310Y21671266D01*
X27251266Y21466165D01*
X27374602Y21281579D01*
X27531579Y21124602D01*
X27716165Y21001266D01*
X27921266Y20916310D01*
X28139000Y20873000D01*
X28361000Y20873000D01*
X28578734Y20916310D01*
X28783835Y21001266D01*
X28968421Y21124602D01*
X29125398Y21281579D01*
X29248734Y21466165D01*
X29333690Y21671266D01*
X29377000Y21889000D01*
X29377000Y22111000D01*
X29333690Y22328734D01*
X29248734Y22533835D01*
X29125398Y22718421D01*
X28968421Y22875398D01*
X28783835Y22998734D01*
X28578734Y23083690D01*
X28361000Y23127000D01*
X28139000Y23127000D01*
X27921266Y23083690D01*
X27716165Y22998734D01*
X27531579Y22875398D01*
X27374602Y22718421D01*
X27251266Y22533835D01*
X27166310Y22328734D01*
X27123000Y22111000D01*
X26837000Y22111000D01*
X26793690Y22328734D01*
X26708734Y22533835D01*
X26585398Y22718421D01*
X26428421Y22875398D01*
X26243835Y22998734D01*
X26038734Y23083690D01*
X25821000Y23127000D01*
X25599000Y23127000D01*
X25381266Y23083690D01*
X25176165Y22998734D01*
X24991579Y22875398D01*
X24834602Y22718421D01*
X24711266Y22533835D01*
X24626310Y22328734D01*
X24583000Y22111000D01*
X24302000Y22111000D01*
X24302000Y23577796D01*
X24304187Y23600001D01*
X24295460Y23688608D01*
X24269614Y23773810D01*
X24244081Y23821579D01*
X24227643Y23852333D01*
X24171159Y23921159D01*
X24153912Y23935313D01*
X23438225Y24651000D01*
X24583000Y24651000D01*
X24583000Y24429000D01*
X24626310Y24211266D01*
X24711266Y24006165D01*
X24834602Y23821579D01*
X24991579Y23664602D01*
X25176165Y23541266D01*
X25381266Y23456310D01*
X25599000Y23413000D01*
X25821000Y23413000D01*
X26038734Y23456310D01*
X26243835Y23541266D01*
X26428421Y23664602D01*
X26585398Y23821579D01*
X26708734Y24006165D01*
X26793690Y24211266D01*
X26837000Y24429000D01*
X26837000Y24651000D01*
X27123000Y24651000D01*
X27123000Y24429000D01*
X27166310Y24211266D01*
X27251266Y24006165D01*
X27374602Y23821579D01*
X27531579Y23664602D01*
X27716165Y23541266D01*
X27921266Y23456310D01*
X28139000Y23413000D01*
X28361000Y23413000D01*
X28578734Y23456310D01*
X28783835Y23541266D01*
X28968421Y23664602D01*
X29125398Y23821579D01*
X29248734Y24006165D01*
X29333690Y24211266D01*
X29377000Y24429000D01*
X29377000Y24651000D01*
X29333690Y24868734D01*
X29248734Y25073835D01*
X29125398Y25258421D01*
X28968421Y25415398D01*
X28783835Y25538734D01*
X28578734Y25623690D01*
X28361000Y25667000D01*
X28139000Y25667000D01*
X27921266Y25623690D01*
X27716165Y25538734D01*
X27531579Y25415398D01*
X27374602Y25258421D01*
X27251266Y25073835D01*
X27166310Y24868734D01*
X27123000Y24651000D01*
X26837000Y24651000D01*
X26793690Y24868734D01*
X26708734Y25073835D01*
X26585398Y25258421D01*
X26428421Y25415398D01*
X26243835Y25538734D01*
X26038734Y25623690D01*
X25821000Y25667000D01*
X25599000Y25667000D01*
X25381266Y25623690D01*
X25176165Y25538734D01*
X24991579Y25415398D01*
X24834602Y25258421D01*
X24711266Y25073835D01*
X24626310Y24868734D01*
X24583000Y24651000D01*
X23438225Y24651000D01*
X22327000Y25762223D01*
X22327000Y25972817D01*
X22349689Y25987977D01*
X22437023Y26075311D01*
X22505640Y26178004D01*
X22552905Y26292111D01*
X22577000Y26413246D01*
X22577000Y26536754D01*
X22552905Y26657889D01*
X22505640Y26771996D01*
X22437023Y26874689D01*
X22349689Y26962023D01*
X22246996Y27030640D01*
X22132889Y27077905D01*
X22011754Y27102000D01*
X21902000Y27102000D01*
X21902000Y27191000D01*
X24583000Y27191000D01*
X24583000Y26969000D01*
X24626310Y26751266D01*
X24711266Y26546165D01*
X24834602Y26361579D01*
X24991579Y26204602D01*
X25176165Y26081266D01*
X25381266Y25996310D01*
X25599000Y25953000D01*
X25821000Y25953000D01*
X26038734Y25996310D01*
X26243835Y26081266D01*
X26428421Y26204602D01*
X26585398Y26361579D01*
X26708734Y26546165D01*
X26793690Y26751266D01*
X26837000Y26969000D01*
X26837000Y27191000D01*
X27123000Y27191000D01*
X27123000Y26969000D01*
X27166310Y26751266D01*
X27251266Y26546165D01*
X27374602Y26361579D01*
X27531579Y26204602D01*
X27716165Y26081266D01*
X27921266Y25996310D01*
X28139000Y25953000D01*
X28361000Y25953000D01*
X28578734Y25996310D01*
X28783835Y26081266D01*
X28968421Y26204602D01*
X29125398Y26361579D01*
X29248734Y26546165D01*
X29333690Y26751266D01*
X29377000Y26969000D01*
X29377000Y27191000D01*
X29333690Y27408734D01*
X29248734Y27613835D01*
X29125398Y27798421D01*
X28968421Y27955398D01*
X28783835Y28078734D01*
X28578734Y28163690D01*
X28361000Y28207000D01*
X28139000Y28207000D01*
X27921266Y28163690D01*
X27716165Y28078734D01*
X27531579Y27955398D01*
X27374602Y27798421D01*
X27251266Y27613835D01*
X27166310Y27408734D01*
X27123000Y27191000D01*
X26837000Y27191000D01*
X26793690Y27408734D01*
X26708734Y27613835D01*
X26585398Y27798421D01*
X26428421Y27955398D01*
X26243835Y28078734D01*
X26038734Y28163690D01*
X25821000Y28207000D01*
X25599000Y28207000D01*
X25381266Y28163690D01*
X25176165Y28078734D01*
X24991579Y27955398D01*
X24834602Y27798421D01*
X24711266Y27613835D01*
X24626310Y27408734D01*
X24583000Y27191000D01*
X21902000Y27191000D01*
X21902000Y27211754D01*
X21877905Y27332889D01*
X21830640Y27446996D01*
X21762023Y27549689D01*
X21674689Y27637023D01*
X21571996Y27705640D01*
X21457889Y27752905D01*
X21336754Y27777000D01*
X21213246Y27777000D01*
X21092111Y27752905D01*
X20978004Y27705640D01*
X20875311Y27637023D01*
X20787977Y27549689D01*
X20719360Y27446996D01*
X20672095Y27332889D01*
X20648000Y27211754D01*
X20648000Y27088246D01*
X20672095Y26967111D01*
X20719360Y26853004D01*
X20787977Y26750311D01*
X20875311Y26662977D01*
X20978004Y26594360D01*
X21092111Y26547095D01*
X21213246Y26523000D01*
X21323000Y26523000D01*
X21323000Y26413246D01*
X21347095Y26292111D01*
X21394360Y26178004D01*
X21462977Y26075311D01*
X21486288Y26052000D01*
X15994991Y26052000D01*
X15931663Y26204886D01*
X15791911Y26414040D01*
X15614040Y26591911D01*
X15404886Y26731663D01*
X15172487Y26827926D01*
X14925774Y26877000D01*
X14674226Y26877000D01*
X14427513Y26827926D01*
X14195114Y26731663D01*
X13985960Y26591911D01*
X13808089Y26414040D01*
X13668337Y26204886D01*
X13572074Y25972487D01*
X13523000Y25725774D01*
X12977000Y25725774D01*
X12977000Y26581711D01*
X13457043Y27061754D01*
X18723000Y27061754D01*
X18723000Y26938246D01*
X18747095Y26817111D01*
X18794360Y26703004D01*
X18862977Y26600311D01*
X18950311Y26512977D01*
X19053004Y26444360D01*
X19167111Y26397095D01*
X19288246Y26373000D01*
X19411754Y26373000D01*
X19532889Y26397095D01*
X19646996Y26444360D01*
X19749689Y26512977D01*
X19837023Y26600311D01*
X19905640Y26703004D01*
X19952905Y26817111D01*
X19977000Y26938246D01*
X19977000Y27061754D01*
X19952905Y27182889D01*
X19905640Y27296996D01*
X19837023Y27399689D01*
X19749689Y27487023D01*
X19646996Y27555640D01*
X19532889Y27602905D01*
X19411754Y27627000D01*
X19288246Y27627000D01*
X19167111Y27602905D01*
X19053004Y27555640D01*
X18950311Y27487023D01*
X18862977Y27399689D01*
X18794360Y27296996D01*
X18747095Y27182889D01*
X18723000Y27061754D01*
X13457043Y27061754D01*
X16126289Y29731000D01*
X24583000Y29731000D01*
X24583000Y29509000D01*
X24626310Y29291266D01*
X24711266Y29086165D01*
X24834602Y28901579D01*
X24991579Y28744602D01*
X25176165Y28621266D01*
X25381266Y28536310D01*
X25599000Y28493000D01*
X25821000Y28493000D01*
X26038734Y28536310D01*
X26243835Y28621266D01*
X26428421Y28744602D01*
X26585398Y28901579D01*
X26708734Y29086165D01*
X26793690Y29291266D01*
X26837000Y29509000D01*
X26837000Y29731000D01*
X27123000Y29731000D01*
X27123000Y29509000D01*
X27166310Y29291266D01*
X27251266Y29086165D01*
X27374602Y28901579D01*
X27531579Y28744602D01*
X27716165Y28621266D01*
X27921266Y28536310D01*
X28139000Y28493000D01*
X28361000Y28493000D01*
X28578734Y28536310D01*
X28783835Y28621266D01*
X28968421Y28744602D01*
X29125398Y28901579D01*
X29248734Y29086165D01*
X29333690Y29291266D01*
X29377000Y29509000D01*
X29377000Y29731000D01*
X29333690Y29948734D01*
X29248734Y30153835D01*
X29125398Y30338421D01*
X28968421Y30495398D01*
X28783835Y30618734D01*
X28578734Y30703690D01*
X28361000Y30747000D01*
X28139000Y30747000D01*
X27921266Y30703690D01*
X27716165Y30618734D01*
X27531579Y30495398D01*
X27374602Y30338421D01*
X27251266Y30153835D01*
X27166310Y29948734D01*
X27123000Y29731000D01*
X26837000Y29731000D01*
X26793690Y29948734D01*
X26708734Y30153835D01*
X26585398Y30338421D01*
X26428421Y30495398D01*
X26243835Y30618734D01*
X26038734Y30703690D01*
X25821000Y30747000D01*
X25599000Y30747000D01*
X25381266Y30703690D01*
X25176165Y30618734D01*
X24991579Y30495398D01*
X24834602Y30338421D01*
X24711266Y30153835D01*
X24626310Y29948734D01*
X24583000Y29731000D01*
X16126289Y29731000D01*
X16818690Y30423400D01*
X16947474Y30449016D01*
X17070680Y30500050D01*
X17181563Y30574140D01*
X17275860Y30668437D01*
X17349950Y30779320D01*
X17400984Y30902526D01*
X17427000Y31033321D01*
X17427000Y31161754D01*
X18123000Y31161754D01*
X18123000Y31038246D01*
X18147095Y30917111D01*
X18194360Y30803004D01*
X18262977Y30700311D01*
X18350311Y30612977D01*
X18453004Y30544360D01*
X18567111Y30497095D01*
X18688246Y30473000D01*
X18811754Y30473000D01*
X18932889Y30497095D01*
X19046996Y30544360D01*
X19149689Y30612977D01*
X19237023Y30700311D01*
X19305640Y30803004D01*
X19352905Y30917111D01*
X19377000Y31038246D01*
X19377000Y31161754D01*
X22873000Y31161754D01*
X22873000Y31038246D01*
X22897095Y30917111D01*
X22944360Y30803004D01*
X23012977Y30700311D01*
X23100311Y30612977D01*
X23203004Y30544360D01*
X23317111Y30497095D01*
X23438246Y30473000D01*
X23561754Y30473000D01*
X23682889Y30497095D01*
X23796996Y30544360D01*
X23899689Y30612977D01*
X23987023Y30700311D01*
X24055640Y30803004D01*
X24102905Y30917111D01*
X24127000Y31038246D01*
X24127000Y31161754D01*
X24102905Y31282889D01*
X24055640Y31396996D01*
X23987023Y31499689D01*
X23899689Y31587023D01*
X23796996Y31655640D01*
X23682889Y31702905D01*
X23561754Y31727000D01*
X23438246Y31727000D01*
X23317111Y31702905D01*
X23203004Y31655640D01*
X23100311Y31587023D01*
X23012977Y31499689D01*
X22944360Y31396996D01*
X22897095Y31282889D01*
X22873000Y31161754D01*
X19377000Y31161754D01*
X19352905Y31282889D01*
X19305640Y31396996D01*
X19237023Y31499689D01*
X19149689Y31587023D01*
X19046996Y31655640D01*
X18932889Y31702905D01*
X18811754Y31727000D01*
X18688246Y31727000D01*
X18567111Y31702905D01*
X18453004Y31655640D01*
X18350311Y31587023D01*
X18262977Y31499689D01*
X18194360Y31396996D01*
X18147095Y31282889D01*
X18123000Y31161754D01*
X17427000Y31161754D01*
X17427000Y31166679D01*
X17400984Y31297474D01*
X17349950Y31420680D01*
X17277000Y31529857D01*
X17277000Y32181452D01*
X26573000Y32181452D01*
X26573000Y32018548D01*
X26604782Y31858773D01*
X26667123Y31708269D01*
X26757628Y31572819D01*
X26872819Y31457628D01*
X27008269Y31367123D01*
X27158773Y31304782D01*
X27318548Y31273000D01*
X27481452Y31273000D01*
X27641227Y31304782D01*
X27791731Y31367123D01*
X27927181Y31457628D01*
X28042372Y31572819D01*
X28132877Y31708269D01*
X28195218Y31858773D01*
X28227000Y32018548D01*
X28227000Y32181452D01*
X28195218Y32341227D01*
X28132877Y32491731D01*
X28042372Y32627181D01*
X27927181Y32742372D01*
X27791731Y32832877D01*
X27641227Y32895218D01*
X27481452Y32927000D01*
X27318548Y32927000D01*
X27158773Y32895218D01*
X27008269Y32832877D01*
X26872819Y32742372D01*
X26757628Y32627181D01*
X26667123Y32491731D01*
X26604782Y32341227D01*
X26573000Y32181452D01*
X17277000Y32181452D01*
X17277000Y32398000D01*
X22977795Y32398000D01*
X23000000Y32395813D01*
X23022205Y32398000D01*
X23088607Y32404540D01*
X23173810Y32430386D01*
X23252333Y32472357D01*
X23253116Y32473000D01*
X23311754Y32473000D01*
X23432889Y32497095D01*
X23546996Y32544360D01*
X23649689Y32612977D01*
X23737023Y32700311D01*
X23805640Y32803004D01*
X23852905Y32917111D01*
X23877000Y33038246D01*
X23877000Y33161754D01*
X23852905Y33282889D01*
X23805640Y33396996D01*
X23737023Y33499689D01*
X23649689Y33587023D01*
X23546996Y33655640D01*
X23432889Y33702905D01*
X23311754Y33727000D01*
X23188246Y33727000D01*
X23067111Y33702905D01*
X22953004Y33655640D01*
X22850311Y33587023D01*
X22762977Y33499689D01*
X22694360Y33396996D01*
X22655011Y33302000D01*
X17022320Y33302000D01*
X16952650Y33339239D01*
X16853310Y33369374D01*
X16750000Y33379549D01*
X16646691Y33369374D01*
X16547351Y33339239D01*
X16477681Y33302000D01*
X15987224Y33302000D01*
X14202847Y35086377D01*
X22623000Y35086377D01*
X22623000Y34913623D01*
X22656703Y34744189D01*
X22722813Y34584585D01*
X22818790Y34440945D01*
X22940945Y34318790D01*
X23084585Y34222813D01*
X23244189Y34156703D01*
X23413623Y34123000D01*
X23586377Y34123000D01*
X23755811Y34156703D01*
X23915415Y34222813D01*
X24059055Y34318790D01*
X24181210Y34440945D01*
X24277187Y34584585D01*
X24343297Y34744189D01*
X24377000Y34913623D01*
X24377000Y35086377D01*
X24343297Y35255811D01*
X24277187Y35415415D01*
X24181210Y35559055D01*
X24059055Y35681210D01*
X23915415Y35777187D01*
X23755811Y35843297D01*
X23586377Y35877000D01*
X23413623Y35877000D01*
X23244189Y35843297D01*
X23084585Y35777187D01*
X22940945Y35681210D01*
X22818790Y35559055D01*
X22722813Y35415415D01*
X22656703Y35255811D01*
X22623000Y35086377D01*
X14202847Y35086377D01*
X13702000Y35587223D01*
X13702000Y36065288D01*
X13737023Y36100311D01*
X13805640Y36203004D01*
X13852905Y36317111D01*
X13877000Y36438246D01*
X13877000Y36561754D01*
X13852905Y36682889D01*
X13805640Y36796996D01*
X13737023Y36899689D01*
X13649689Y36987023D01*
X13546996Y37055640D01*
X13432889Y37102905D01*
X13311754Y37127000D01*
X13188246Y37127000D01*
X13067111Y37102905D01*
X12953004Y37055640D01*
X12850311Y36987023D01*
X12762977Y36899689D01*
X12694360Y36796996D01*
X12647095Y36682889D01*
X12623000Y36561754D01*
X12623000Y36438246D01*
X12647095Y36317111D01*
X12694360Y36203004D01*
X12762977Y36100311D01*
X12798001Y36065287D01*
X12798000Y35422205D01*
X12795813Y35400000D01*
X12798000Y35377796D01*
X12804540Y35311394D01*
X12830386Y35226191D01*
X12872357Y35147668D01*
X12928841Y35078841D01*
X12946100Y35064677D01*
X15464681Y32546095D01*
X15478841Y32528841D01*
X15547667Y32472357D01*
X15626190Y32430386D01*
X15711392Y32404540D01*
X15800000Y32395813D01*
X15822205Y32398000D01*
X16223001Y32398000D01*
X16223000Y31529857D01*
X16150050Y31420680D01*
X16099016Y31297474D01*
X16073400Y31168690D01*
X12095662Y27190951D01*
X12075553Y27174448D01*
X12046658Y27139239D01*
X12009696Y27094201D01*
X11960761Y27002649D01*
X11930626Y26903309D01*
X11920451Y26800000D01*
X11923001Y26774109D01*
X11923000Y17389001D01*
X11464644Y16930645D01*
X10177000Y18218289D01*
X10177000Y25499119D01*
X10179549Y25525000D01*
X10169374Y25628310D01*
X10163959Y25646160D01*
X10139239Y25727650D01*
X10090304Y25819202D01*
X10024448Y25899448D01*
X10004344Y25915947D01*
X9762962Y26157328D01*
X9752905Y26207889D01*
X9705640Y26321996D01*
X9637023Y26424689D01*
X9549689Y26512023D01*
X9446996Y26580640D01*
X9332889Y26627905D01*
X9282327Y26637962D01*
X8915955Y27004334D01*
X8899448Y27024448D01*
X8819202Y27090304D01*
X8727650Y27139239D01*
X8628310Y27169374D01*
X8550881Y27177000D01*
X8525000Y27179549D01*
X8499119Y27177000D01*
X5225880Y27177000D01*
X5199999Y27179549D01*
X5096690Y27169374D01*
X4997350Y27139239D01*
X4905798Y27090304D01*
X4825552Y27024448D01*
X4809049Y27004339D01*
X2681711Y24877000D01*
X1339859Y24877000D01*
X1296996Y24905640D01*
X1182889Y24952905D01*
X1061754Y24977000D01*
X938246Y24977000D01*
X817111Y24952905D01*
X703004Y24905640D01*
X600311Y24837023D01*
X512977Y24749689D01*
X444360Y24646996D01*
X397095Y24532889D01*
X373000Y24411754D01*
X373000Y24288246D01*
X397095Y24167111D01*
X444360Y24053004D01*
X473001Y24010140D01*
X473000Y22900881D01*
X470451Y22875000D01*
X473000Y22849120D01*
X480626Y22771691D01*
X510761Y22672351D01*
X559696Y22580798D01*
X625552Y22500552D01*
X645666Y22484045D01*
X775197Y22354513D01*
X767111Y22352905D01*
X653004Y22305640D01*
X550311Y22237023D01*
X462977Y22149689D01*
X394360Y22046996D01*
X347095Y21932889D01*
X323000Y21811754D01*
X302000Y21811754D01*
X302000Y26811754D01*
X1923000Y26811754D01*
X1923000Y26688246D01*
X1947095Y26567111D01*
X1994360Y26453004D01*
X2062977Y26350311D01*
X2150311Y26262977D01*
X2253004Y26194360D01*
X2367111Y26147095D01*
X2488246Y26123000D01*
X2611754Y26123000D01*
X2732889Y26147095D01*
X2846996Y26194360D01*
X2949689Y26262977D01*
X3037023Y26350311D01*
X3105640Y26453004D01*
X3152905Y26567111D01*
X3177000Y26688246D01*
X3177000Y26811754D01*
X3152905Y26932889D01*
X3105640Y27046996D01*
X3037023Y27149689D01*
X2949689Y27237023D01*
X2846996Y27305640D01*
X2732889Y27352905D01*
X2611754Y27377000D01*
X2488246Y27377000D01*
X2367111Y27352905D01*
X2253004Y27305640D01*
X2150311Y27237023D01*
X2062977Y27149689D01*
X1994360Y27046996D01*
X1947095Y26932889D01*
X1923000Y26811754D01*
X302000Y26811754D01*
X302000Y28611754D01*
X7923000Y28611754D01*
X7923000Y28488246D01*
X7947095Y28367111D01*
X7994360Y28253004D01*
X8062977Y28150311D01*
X8150311Y28062977D01*
X8253004Y27994360D01*
X8367111Y27947095D01*
X8488246Y27923000D01*
X8611754Y27923000D01*
X8732889Y27947095D01*
X8846996Y27994360D01*
X8949689Y28062977D01*
X9037023Y28150311D01*
X9105640Y28253004D01*
X9152905Y28367111D01*
X9177000Y28488246D01*
X9177000Y28611754D01*
X9152905Y28732889D01*
X9105640Y28846996D01*
X9037023Y28949689D01*
X8949689Y29037023D01*
X8846996Y29105640D01*
X8732889Y29152905D01*
X8611754Y29177000D01*
X8488246Y29177000D01*
X8367111Y29152905D01*
X8253004Y29105640D01*
X8150311Y29037023D01*
X8062977Y28949689D01*
X7994360Y28846996D01*
X7947095Y28732889D01*
X7923000Y28611754D01*
X302000Y28611754D01*
X302000Y30061754D01*
X2373000Y30061754D01*
X2373000Y29938246D01*
X2397095Y29817111D01*
X2444360Y29703004D01*
X2512977Y29600311D01*
X2600311Y29512977D01*
X2703004Y29444360D01*
X2817111Y29397095D01*
X2938246Y29373000D01*
X3061754Y29373000D01*
X3182889Y29397095D01*
X3296996Y29444360D01*
X3399689Y29512977D01*
X3487023Y29600311D01*
X3555640Y29703004D01*
X3602905Y29817111D01*
X3627000Y29938246D01*
X3627000Y30061754D01*
X3602905Y30182889D01*
X3555640Y30296996D01*
X3487023Y30399689D01*
X3399689Y30487023D01*
X3296996Y30555640D01*
X3182889Y30602905D01*
X3061754Y30627000D01*
X2938246Y30627000D01*
X2817111Y30602905D01*
X2703004Y30555640D01*
X2600311Y30487023D01*
X2512977Y30399689D01*
X2444360Y30296996D01*
X2397095Y30182889D01*
X2373000Y30061754D01*
X302000Y30061754D01*
X302000Y30735228D01*
X307191Y30788178D01*
X318279Y30824899D01*
X336287Y30858768D01*
X360532Y30888496D01*
X390093Y30912951D01*
X423832Y30931194D01*
X460476Y30942537D01*
X512454Y30948000D01*
X864833Y30948000D01*
X877611Y30949259D01*
X879115Y30949248D01*
X883312Y30949660D01*
X907522Y30952205D01*
X909202Y30952370D01*
X909258Y30952387D01*
X931836Y30954760D01*
X958593Y30960253D01*
X985535Y30965392D01*
X989572Y30966612D01*
X1036182Y30981040D01*
X1061368Y30991627D01*
X1086798Y31001902D01*
X1090521Y31003882D01*
X1133440Y31027089D01*
X1156086Y31042365D01*
X1179028Y31057376D01*
X1182295Y31060042D01*
X1219890Y31091142D01*
X1239157Y31110544D01*
X1258741Y31129722D01*
X1261429Y31132971D01*
X1292266Y31170782D01*
X1307384Y31193538D01*
X1322872Y31216157D01*
X1324878Y31219867D01*
X1347785Y31262947D01*
X1358208Y31288235D01*
X1369001Y31313417D01*
X1370248Y31317446D01*
X1384350Y31364155D01*
X1389654Y31390944D01*
X1395357Y31417778D01*
X1395798Y31421973D01*
X1400559Y31470532D01*
X1400559Y31470536D01*
X1402000Y31485167D01*
X1402000Y32181452D01*
X1773000Y32181452D01*
X1773000Y32018548D01*
X1804782Y31858773D01*
X1867123Y31708269D01*
X1957628Y31572819D01*
X2072819Y31457628D01*
X2208269Y31367123D01*
X2358773Y31304782D01*
X2518548Y31273000D01*
X2681452Y31273000D01*
X2841227Y31304782D01*
X2991731Y31367123D01*
X3127181Y31457628D01*
X3231307Y31561754D01*
X3673000Y31561754D01*
X3673000Y31438246D01*
X3697095Y31317111D01*
X3744360Y31203004D01*
X3812977Y31100311D01*
X3900311Y31012977D01*
X4003004Y30944360D01*
X4117111Y30897095D01*
X4238246Y30873000D01*
X4361754Y30873000D01*
X4482889Y30897095D01*
X4596996Y30944360D01*
X4699689Y31012977D01*
X4786498Y31099786D01*
X8148988Y31099786D01*
X8148988Y30848238D01*
X8198062Y30601525D01*
X8294325Y30369126D01*
X8434077Y30159972D01*
X8611948Y29982101D01*
X8821102Y29842349D01*
X9053501Y29746086D01*
X9300214Y29697012D01*
X9551762Y29697012D01*
X9798475Y29746086D01*
X10030874Y29842349D01*
X10240028Y29982101D01*
X10417899Y30159972D01*
X10557651Y30369126D01*
X10653914Y30601525D01*
X10702988Y30848238D01*
X10702988Y31099786D01*
X10653914Y31346499D01*
X10557651Y31578898D01*
X10417899Y31788052D01*
X10240028Y31965923D01*
X10096607Y32061754D01*
X11623000Y32061754D01*
X11623000Y31938246D01*
X11647095Y31817111D01*
X11694360Y31703004D01*
X11762977Y31600311D01*
X11850311Y31512977D01*
X11953004Y31444360D01*
X12067111Y31397095D01*
X12188246Y31373000D01*
X12311754Y31373000D01*
X12432889Y31397095D01*
X12546996Y31444360D01*
X12649689Y31512977D01*
X12737023Y31600311D01*
X12805640Y31703004D01*
X12852905Y31817111D01*
X12877000Y31938246D01*
X12877000Y32061754D01*
X12852905Y32182889D01*
X12805640Y32296996D01*
X12737023Y32399689D01*
X12649689Y32487023D01*
X12546996Y32555640D01*
X12432889Y32602905D01*
X12311754Y32627000D01*
X12188246Y32627000D01*
X12067111Y32602905D01*
X11953004Y32555640D01*
X11850311Y32487023D01*
X11762977Y32399689D01*
X11694360Y32296996D01*
X11647095Y32182889D01*
X11623000Y32061754D01*
X10096607Y32061754D01*
X10030874Y32105675D01*
X9798475Y32201938D01*
X9551762Y32251012D01*
X9300214Y32251012D01*
X9053501Y32201938D01*
X8821102Y32105675D01*
X8611948Y31965923D01*
X8434077Y31788052D01*
X8294325Y31578898D01*
X8198062Y31346499D01*
X8148988Y31099786D01*
X4786498Y31099786D01*
X4787023Y31100311D01*
X4855640Y31203004D01*
X4902905Y31317111D01*
X4927000Y31438246D01*
X4927000Y31561754D01*
X4902905Y31682889D01*
X4855640Y31796996D01*
X4787023Y31899689D01*
X4699689Y31987023D01*
X4596996Y32055640D01*
X4482889Y32102905D01*
X4361754Y32127000D01*
X4238246Y32127000D01*
X4117111Y32102905D01*
X4003004Y32055640D01*
X3900311Y31987023D01*
X3812977Y31899689D01*
X3744360Y31796996D01*
X3697095Y31682889D01*
X3673000Y31561754D01*
X3231307Y31561754D01*
X3242372Y31572819D01*
X3332877Y31708269D01*
X3395218Y31858773D01*
X3427000Y32018548D01*
X3427000Y32181452D01*
X3395218Y32341227D01*
X3332877Y32491731D01*
X3242372Y32627181D01*
X3127181Y32742372D01*
X2991731Y32832877D01*
X2841227Y32895218D01*
X2681452Y32927000D01*
X2518548Y32927000D01*
X2358773Y32895218D01*
X2208269Y32832877D01*
X2072819Y32742372D01*
X1957628Y32627181D01*
X1867123Y32491731D01*
X1804782Y32341227D01*
X1773000Y32181452D01*
X1402000Y32181452D01*
X1402000Y35086377D01*
X5623000Y35086377D01*
X5623000Y34913623D01*
X5656703Y34744189D01*
X5722813Y34584585D01*
X5818790Y34440945D01*
X5940945Y34318790D01*
X6084585Y34222813D01*
X6244189Y34156703D01*
X6413623Y34123000D01*
X6586377Y34123000D01*
X6755811Y34156703D01*
X6915415Y34222813D01*
X7059055Y34318790D01*
X7181210Y34440945D01*
X7277187Y34584585D01*
X7343297Y34744189D01*
X7377000Y34913623D01*
X7377000Y35086377D01*
X7343297Y35255811D01*
X7277187Y35415415D01*
X7181210Y35559055D01*
X7059055Y35681210D01*
X6915415Y35777187D01*
X6755811Y35843297D01*
X6586377Y35877000D01*
X6413623Y35877000D01*
X6244189Y35843297D01*
X6084585Y35777187D01*
X5940945Y35681210D01*
X5818790Y35559055D01*
X5722813Y35415415D01*
X5656703Y35255811D01*
X5623000Y35086377D01*
X1402000Y35086377D01*
X1402000Y36985228D01*
X1407191Y37038178D01*
X1418279Y37074899D01*
X1436287Y37108768D01*
X1460532Y37138496D01*
X1490093Y37162951D01*
X1523832Y37181194D01*
X1560476Y37192537D01*
X1612454Y37198000D01*
X2372759Y37198000D01*
X2358773Y37195218D01*
X2208269Y37132877D01*
X2072819Y37042372D01*
X1957628Y36927181D01*
X1867123Y36791731D01*
X1804782Y36641227D01*
X1773000Y36481452D01*
X1773000Y36318548D01*
X1804782Y36158773D01*
X1867123Y36008269D01*
X1957628Y35872819D01*
X2072819Y35757628D01*
X2208269Y35667123D01*
X2358773Y35604782D01*
X2518548Y35573000D01*
X2681452Y35573000D01*
X2841227Y35604782D01*
X2991731Y35667123D01*
X3127181Y35757628D01*
X3242372Y35872819D01*
X3332877Y36008269D01*
X3395218Y36158773D01*
X3427000Y36318548D01*
X3427000Y36481452D01*
X3395218Y36641227D01*
X3332877Y36791731D01*
X3242372Y36927181D01*
X3127181Y37042372D01*
X2991731Y37132877D01*
X2841227Y37195218D01*
X2827241Y37198000D01*
X4264833Y37198000D01*
X4277965Y37199293D01*
X4282608Y37199261D01*
X4286805Y37199673D01*
X4432377Y37214974D01*
X4459124Y37220464D01*
X4486074Y37225605D01*
X4490111Y37226825D01*
X4569114Y37251280D01*
X4910197Y36910197D01*
X4929443Y36894403D01*
X4951399Y36882667D01*
X4975224Y36875440D01*
X5000000Y36873000D01*
X10000000Y36873000D01*
X10024776Y36875440D01*
X10048601Y36882667D01*
X10070557Y36894403D01*
X10089803Y36910197D01*
X10430812Y37251206D01*
X10517038Y37225173D01*
X10543830Y37219869D01*
X10570659Y37214166D01*
X10574853Y37213725D01*
X10720530Y37199441D01*
X10720536Y37199441D01*
X10735167Y37198000D01*
X19264833Y37198000D01*
X19277965Y37199293D01*
X19282608Y37199261D01*
X19286805Y37199673D01*
X19432377Y37214974D01*
X19459124Y37220464D01*
X19486074Y37225605D01*
X19490111Y37226825D01*
X19569114Y37251280D01*
X19910197Y36910197D01*
G37*
%TD.AperFunction*%
%TD*%
D23*
X7000000Y17500000D03*
X12000000Y11000000D03*
X17000000Y10000000D03*
X14500000Y10000000D03*
X6000000Y36750000D03*
X22600000Y25775000D03*
X22650000Y23600000D03*
X16100000Y26950000D03*
X18250000Y26650000D03*
X10350000Y28050000D03*
X10850000Y18750000D03*
X2800000Y17300000D03*
X1000000Y27000000D03*
X22425000Y20875000D03*
X23100000Y21550000D03*
X19750000Y20700000D03*
X14250000Y18250000D03*
X13200000Y17850000D03*
X9750000Y16150000D03*
X9250000Y16650000D03*
X18500000Y32100000D03*
X18500000Y33600000D03*
X22000000Y35500000D03*
X24750000Y36000000D03*
X11500000Y35500000D03*
X12000000Y31250000D03*
X10500000Y32500000D03*
X10750000Y29850000D03*
X8250000Y29850000D03*
X7750000Y33300000D03*
X5000000Y28750000D03*
X5850000Y31000000D03*
X6600000Y31000000D03*
X22050000Y27250000D03*
X15000000Y30750000D03*
X15750000Y31500000D03*
X15900000Y12250000D03*
X8700000Y11000000D03*
X4150000Y15950000D03*
X1750000Y17500000D03*
X7000000Y12250000D03*
X7000000Y11000000D03*
X6500000Y16500000D03*
X8000000Y8250000D03*
X750000Y17500000D03*
X750000Y19500000D03*
X800000Y30500000D03*
X750000Y28500000D03*
X8000000Y36750000D03*
X10000000Y36750000D03*
X12000000Y36750000D03*
X14000000Y36750000D03*
X16000000Y36750000D03*
X18000000Y36750000D03*
X20000000Y36750000D03*
X22000000Y36750000D03*
X24000000Y36750000D03*
X12000000Y8250000D03*
X14000000Y8250000D03*
X16000000Y8250000D03*
X18000000Y8250000D03*
X3475000Y16625000D03*
X7000000Y28750000D03*
X8200000Y17500000D03*
X7600000Y15750000D03*
X8050000Y16550000D03*
X5500000Y16000000D03*
X23200000Y15500000D03*
X21550000Y15500000D03*
X22000000Y8250000D03*
X23500000Y10250000D03*
X2750000Y34250000D03*
X5250000Y36000000D03*
X20750000Y30550000D03*
X17450000Y30550000D03*
X8000000Y35500000D03*
X27250000Y34250000D03*
X24550000Y32100000D03*
X29250000Y28350000D03*
X29250000Y25800000D03*
X29250000Y23250000D03*
X29250000Y20750000D03*
X25250000Y31250000D03*
X29250000Y30500000D03*
X23500000Y9500000D03*
X24000000Y8250000D03*
X15750000Y18250000D03*
X17050000Y17850000D03*
X20750000Y17900000D03*
X23250000Y20500000D03*
X24150000Y19350000D03*
X29250000Y18200000D03*
X29250000Y15650000D03*
X3950000Y27300000D03*
X3600000Y30800000D03*
X2500000Y28500000D03*
X2550000Y25850000D03*
X18300000Y18250000D03*
X13200000Y23050000D03*
X13700000Y22550000D03*
X11750000Y20750000D03*
X13250000Y25200000D03*
X13150000Y19600000D03*
X19750000Y20050000D03*
X7000000Y13500000D03*
X7000000Y9750000D03*
X7000000Y8500000D03*
X7000000Y14750000D03*
D24*
X5900000Y17975000D03*
X21150000Y23350000D03*
X16750000Y31100000D03*
X13250000Y36500000D03*
X9150000Y26025000D03*
X11500000Y16150000D03*
X22500000Y16600000D03*
X21275000Y27150000D03*
X7800000Y14900000D03*
X1000000Y24350000D03*
X23250000Y33100000D03*
X17375000Y11125000D03*
X21950000Y26475000D03*
X19350000Y27000000D03*
X14925000Y12375000D03*
X19614124Y15164124D03*
X14075000Y12375000D03*
X20285876Y15835876D03*
X12250000Y32000000D03*
X18750000Y31100000D03*
X4300000Y31500000D03*
X8550000Y28550000D03*
X18100000Y20050000D03*
X18950000Y20050000D03*
X14850000Y23550000D03*
X2300000Y19800000D03*
X13500000Y21000000D03*
X1650000Y19150000D03*
X14200000Y20300000D03*
X23500000Y31100000D03*
X950000Y21750000D03*
X950000Y20900000D03*
X3000000Y30000000D03*
X2550000Y26750000D03*
X8700000Y15750000D03*
X2950000Y18900000D03*
X21000000Y7500000D03*
X22000000Y7500000D03*
X25000000Y7500000D03*
X24000000Y7500000D03*
X23000000Y7500000D03*
X24500000Y37500000D03*
X23500000Y37500000D03*
X20500000Y37500000D03*
X21500000Y37500000D03*
X22500000Y37500000D03*
X5000000Y7500000D03*
X6000000Y7500000D03*
X9000000Y7500000D03*
X8000000Y7500000D03*
X7000000Y7500000D03*
X9500000Y37500000D03*
X8500000Y37500000D03*
X5500000Y37500000D03*
X6500000Y37500000D03*
X7500000Y37500000D03*
X6500000Y35000000D03*
X21750000Y9500000D03*
X8250000Y9500000D03*
X23500000Y35000000D03*
X9425988Y30974012D03*
X14800000Y25600000D03*
X25710000Y29620000D03*
X28250000Y29620000D03*
X25710000Y27080000D03*
X28250000Y27080000D03*
X25710000Y24540000D03*
X28250000Y24540000D03*
X25710000Y22000000D03*
X28250000Y22000000D03*
X25710000Y19460000D03*
X28250000Y19460000D03*
X25710000Y16920000D03*
X28250000Y16920000D03*
X25710000Y14380000D03*
X28250000Y14380000D03*
X25710000Y11840000D03*
X28250000Y11840000D03*
X25710000Y9300000D03*
X28250000Y9300000D03*
X2600000Y32100000D03*
X2600000Y36400000D03*
X27400000Y36400000D03*
X27400000Y32100000D03*
D25*
X8156676Y23671751D03*
X7414214Y24414214D03*
X6671751Y25156676D03*
X7484924Y23000000D03*
X6742462Y23742462D03*
X6000000Y24484924D03*
X6742462Y22257538D03*
X6000000Y23000000D03*
X5257538Y23742462D03*
X6000000Y21515076D03*
X5257538Y22257538D03*
X4515076Y23000000D03*
X5328249Y25156676D03*
X8156676Y22328249D03*
X4585786Y24414214D03*
X7414214Y21585786D03*
X3843324Y23671751D03*
X6671751Y20843324D03*
X3843324Y22328249D03*
X4585786Y21585786D03*
X5328249Y20843324D03*
D26*
X19325000Y8950000D03*
D24*
X17900000Y12600000D03*
D26*
X10675000Y8950000D03*
D24*
X12100000Y12600000D03*
D27*
X10675000Y13130000D03*
X19325000Y13130000D03*
M02*
