%TF.GenerationSoftware,KiCad,Pcbnew,(5.1.12-1-10_14)*%
%TF.CreationDate,2022-04-30T16:01:42+08:00*%
%TF.ProjectId,DeerMon,44656572-4d6f-46e2-9e6b-696361645f70,V1.2*%
%TF.SameCoordinates,Original*%
%TF.FileFunction,Paste,Top*%
%TF.FilePolarity,Positive*%
%FSLAX46Y46*%
G04 Gerber Fmt 4.6, Leading zero omitted, Abs format (unit mm)*
G04 Created by KiCad (PCBNEW (5.1.12-1-10_14)) date 2022-04-30 16:01:42*
%MOMM*%
%LPD*%
G01*
G04 APERTURE LIST*
%ADD10C,0.350000*%
%ADD11R,0.500000X0.500000*%
%ADD12R,1.000000X1.500000*%
%ADD13R,1.200000X0.700000*%
%ADD14R,0.700000X1.100000*%
%ADD15R,0.900000X0.800000*%
%ADD16R,2.000000X2.400000*%
%ADD17R,0.400000X1.150000*%
%ADD18R,2.000000X1.200000*%
%ADD19R,0.650000X1.060000*%
%ADD20R,0.300000X1.450000*%
%ADD21R,0.600000X1.450000*%
%ADD22R,0.700000X0.600000*%
G04 APERTURE END LIST*
%TO.C,U1*%
G36*
G01*
X17996743Y22873466D02*
X17745720Y23124489D01*
G75*
G02*
X17745720Y23375511I125511J125511D01*
G01*
X17996743Y23626534D01*
G75*
G02*
X18247765Y23626534I125511J-125511D01*
G01*
X18498788Y23375511D01*
G75*
G02*
X18498788Y23124489I-125511J-125511D01*
G01*
X18247765Y22873466D01*
G75*
G02*
X17996743Y22873466I-125511J125511D01*
G01*
G37*
G36*
G01*
X17374489Y23495720D02*
X17123466Y23746743D01*
G75*
G02*
X17123466Y23997765I125511J125511D01*
G01*
X17374489Y24248788D01*
G75*
G02*
X17625511Y24248788I125511J-125511D01*
G01*
X17876534Y23997765D01*
G75*
G02*
X17876534Y23746743I-125511J-125511D01*
G01*
X17625511Y23495720D01*
G75*
G02*
X17374489Y23495720I-125511J125511D01*
G01*
G37*
G36*
G01*
X17374489Y22251212D02*
X17123466Y22502235D01*
G75*
G02*
X17123466Y22753257I125511J125511D01*
G01*
X17374489Y23004280D01*
G75*
G02*
X17625511Y23004280I125511J-125511D01*
G01*
X17876534Y22753257D01*
G75*
G02*
X17876534Y22502235I-125511J-125511D01*
G01*
X17625511Y22251212D01*
G75*
G02*
X17374489Y22251212I-125511J125511D01*
G01*
G37*
G36*
G01*
X16752235Y22873466D02*
X16501212Y23124489D01*
G75*
G02*
X16501212Y23375511I125511J125511D01*
G01*
X16752235Y23626534D01*
G75*
G02*
X17003257Y23626534I125511J-125511D01*
G01*
X17254280Y23375511D01*
G75*
G02*
X17254280Y23124489I-125511J-125511D01*
G01*
X17003257Y22873466D01*
G75*
G02*
X16752235Y22873466I-125511J125511D01*
G01*
G37*
G36*
G01*
X16059270Y23453293D02*
X15617328Y23895235D01*
G75*
G02*
X15617328Y23983623I44194J44194D01*
G01*
X15705716Y24072011D01*
G75*
G02*
X15794104Y24072011I44194J-44194D01*
G01*
X16236046Y23630069D01*
G75*
G02*
X16236046Y23541681I-44194J-44194D01*
G01*
X16147658Y23453293D01*
G75*
G02*
X16059270Y23453293I-44194J44194D01*
G01*
G37*
G36*
G01*
X16412824Y23806847D02*
X15970882Y24248789D01*
G75*
G02*
X15970882Y24337177I44194J44194D01*
G01*
X16059270Y24425565D01*
G75*
G02*
X16147658Y24425565I44194J-44194D01*
G01*
X16589600Y23983623D01*
G75*
G02*
X16589600Y23895235I-44194J-44194D01*
G01*
X16501212Y23806847D01*
G75*
G02*
X16412824Y23806847I-44194J44194D01*
G01*
G37*
G36*
G01*
X16766377Y24160400D02*
X16324435Y24602342D01*
G75*
G02*
X16324435Y24690730I44194J44194D01*
G01*
X16412823Y24779118D01*
G75*
G02*
X16501211Y24779118I44194J-44194D01*
G01*
X16943153Y24337176D01*
G75*
G02*
X16943153Y24248788I-44194J-44194D01*
G01*
X16854765Y24160400D01*
G75*
G02*
X16766377Y24160400I-44194J44194D01*
G01*
G37*
G36*
G01*
X17119931Y24513954D02*
X16677989Y24955896D01*
G75*
G02*
X16677989Y25044284I44194J44194D01*
G01*
X16766377Y25132672D01*
G75*
G02*
X16854765Y25132672I44194J-44194D01*
G01*
X17296707Y24690730D01*
G75*
G02*
X17296707Y24602342I-44194J-44194D01*
G01*
X17208319Y24513954D01*
G75*
G02*
X17119931Y24513954I-44194J44194D01*
G01*
G37*
G36*
G01*
X17791681Y24513954D02*
X17703293Y24602342D01*
G75*
G02*
X17703293Y24690730I44194J44194D01*
G01*
X18145235Y25132672D01*
G75*
G02*
X18233623Y25132672I44194J-44194D01*
G01*
X18322011Y25044284D01*
G75*
G02*
X18322011Y24955896I-44194J-44194D01*
G01*
X17880069Y24513954D01*
G75*
G02*
X17791681Y24513954I-44194J44194D01*
G01*
G37*
G36*
G01*
X18145235Y24160400D02*
X18056847Y24248788D01*
G75*
G02*
X18056847Y24337176I44194J44194D01*
G01*
X18498789Y24779118D01*
G75*
G02*
X18587177Y24779118I44194J-44194D01*
G01*
X18675565Y24690730D01*
G75*
G02*
X18675565Y24602342I-44194J-44194D01*
G01*
X18233623Y24160400D01*
G75*
G02*
X18145235Y24160400I-44194J44194D01*
G01*
G37*
G36*
G01*
X18498788Y23806847D02*
X18410400Y23895235D01*
G75*
G02*
X18410400Y23983623I44194J44194D01*
G01*
X18852342Y24425565D01*
G75*
G02*
X18940730Y24425565I44194J-44194D01*
G01*
X19029118Y24337177D01*
G75*
G02*
X19029118Y24248789I-44194J-44194D01*
G01*
X18587176Y23806847D01*
G75*
G02*
X18498788Y23806847I-44194J44194D01*
G01*
G37*
G36*
G01*
X18852342Y23453293D02*
X18763954Y23541681D01*
G75*
G02*
X18763954Y23630069I44194J44194D01*
G01*
X19205896Y24072011D01*
G75*
G02*
X19294284Y24072011I44194J-44194D01*
G01*
X19382672Y23983623D01*
G75*
G02*
X19382672Y23895235I-44194J-44194D01*
G01*
X18940730Y23453293D01*
G75*
G02*
X18852342Y23453293I-44194J44194D01*
G01*
G37*
G36*
G01*
X19205896Y22427989D02*
X18763954Y22869931D01*
G75*
G02*
X18763954Y22958319I44194J44194D01*
G01*
X18852342Y23046707D01*
G75*
G02*
X18940730Y23046707I44194J-44194D01*
G01*
X19382672Y22604765D01*
G75*
G02*
X19382672Y22516377I-44194J-44194D01*
G01*
X19294284Y22427989D01*
G75*
G02*
X19205896Y22427989I-44194J44194D01*
G01*
G37*
G36*
G01*
X18852342Y22074435D02*
X18410400Y22516377D01*
G75*
G02*
X18410400Y22604765I44194J44194D01*
G01*
X18498788Y22693153D01*
G75*
G02*
X18587176Y22693153I44194J-44194D01*
G01*
X19029118Y22251211D01*
G75*
G02*
X19029118Y22162823I-44194J-44194D01*
G01*
X18940730Y22074435D01*
G75*
G02*
X18852342Y22074435I-44194J44194D01*
G01*
G37*
G36*
G01*
X18498789Y21720882D02*
X18056847Y22162824D01*
G75*
G02*
X18056847Y22251212I44194J44194D01*
G01*
X18145235Y22339600D01*
G75*
G02*
X18233623Y22339600I44194J-44194D01*
G01*
X18675565Y21897658D01*
G75*
G02*
X18675565Y21809270I-44194J-44194D01*
G01*
X18587177Y21720882D01*
G75*
G02*
X18498789Y21720882I-44194J44194D01*
G01*
G37*
G36*
G01*
X18145235Y21367328D02*
X17703293Y21809270D01*
G75*
G02*
X17703293Y21897658I44194J44194D01*
G01*
X17791681Y21986046D01*
G75*
G02*
X17880069Y21986046I44194J-44194D01*
G01*
X18322011Y21544104D01*
G75*
G02*
X18322011Y21455716I-44194J-44194D01*
G01*
X18233623Y21367328D01*
G75*
G02*
X18145235Y21367328I-44194J44194D01*
G01*
G37*
G36*
G01*
X16766377Y21367328D02*
X16677989Y21455716D01*
G75*
G02*
X16677989Y21544104I44194J44194D01*
G01*
X17119931Y21986046D01*
G75*
G02*
X17208319Y21986046I44194J-44194D01*
G01*
X17296707Y21897658D01*
G75*
G02*
X17296707Y21809270I-44194J-44194D01*
G01*
X16854765Y21367328D01*
G75*
G02*
X16766377Y21367328I-44194J44194D01*
G01*
G37*
G36*
G01*
X16412823Y21720882D02*
X16324435Y21809270D01*
G75*
G02*
X16324435Y21897658I44194J44194D01*
G01*
X16766377Y22339600D01*
G75*
G02*
X16854765Y22339600I44194J-44194D01*
G01*
X16943153Y22251212D01*
G75*
G02*
X16943153Y22162824I-44194J-44194D01*
G01*
X16501211Y21720882D01*
G75*
G02*
X16412823Y21720882I-44194J44194D01*
G01*
G37*
G36*
G01*
X16059270Y22074435D02*
X15970882Y22162823D01*
G75*
G02*
X15970882Y22251211I44194J44194D01*
G01*
X16412824Y22693153D01*
G75*
G02*
X16501212Y22693153I44194J-44194D01*
G01*
X16589600Y22604765D01*
G75*
G02*
X16589600Y22516377I-44194J-44194D01*
G01*
X16147658Y22074435D01*
G75*
G02*
X16059270Y22074435I-44194J44194D01*
G01*
G37*
G36*
G01*
X15705716Y22427989D02*
X15617328Y22516377D01*
G75*
G02*
X15617328Y22604765I44194J44194D01*
G01*
X16059270Y23046707D01*
G75*
G02*
X16147658Y23046707I44194J-44194D01*
G01*
X16236046Y22958319D01*
G75*
G02*
X16236046Y22869931I-44194J-44194D01*
G01*
X15794104Y22427989D01*
G75*
G02*
X15705716Y22427989I-44194J44194D01*
G01*
G37*
%TD*%
%TO.C,C2*%
G36*
G01*
X15238371Y20878787D02*
X15478787Y20638371D01*
G75*
G02*
X15478787Y20440381I-98995J-98995D01*
G01*
X15280797Y20242391D01*
G75*
G02*
X15082807Y20242391I-98995J98995D01*
G01*
X14842391Y20482807D01*
G75*
G02*
X14842391Y20680797I98995J98995D01*
G01*
X15040381Y20878787D01*
G75*
G02*
X15238371Y20878787I98995J-98995D01*
G01*
G37*
G36*
G01*
X15917193Y21557609D02*
X16157609Y21317193D01*
G75*
G02*
X16157609Y21119203I-98995J-98995D01*
G01*
X15959619Y20921213D01*
G75*
G02*
X15761629Y20921213I-98995J98995D01*
G01*
X15521213Y21161629D01*
G75*
G02*
X15521213Y21359619I98995J98995D01*
G01*
X15719203Y21557609D01*
G75*
G02*
X15917193Y21557609I98995J-98995D01*
G01*
G37*
%TD*%
%TO.C,C17*%
G36*
G01*
X18488371Y20778787D02*
X18728787Y20538371D01*
G75*
G02*
X18728787Y20340381I-98995J-98995D01*
G01*
X18530797Y20142391D01*
G75*
G02*
X18332807Y20142391I-98995J98995D01*
G01*
X18092391Y20382807D01*
G75*
G02*
X18092391Y20580797I98995J98995D01*
G01*
X18290381Y20778787D01*
G75*
G02*
X18488371Y20778787I98995J-98995D01*
G01*
G37*
G36*
G01*
X19167193Y21457609D02*
X19407609Y21217193D01*
G75*
G02*
X19407609Y21019203I-98995J-98995D01*
G01*
X19209619Y20821213D01*
G75*
G02*
X19011629Y20821213I-98995J98995D01*
G01*
X18771213Y21061629D01*
G75*
G02*
X18771213Y21259619I98995J98995D01*
G01*
X18969203Y21457609D01*
G75*
G02*
X19167193Y21457609I98995J-98995D01*
G01*
G37*
%TD*%
%TO.C,C1*%
G36*
G01*
X13938371Y22178787D02*
X14178787Y21938371D01*
G75*
G02*
X14178787Y21740381I-98995J-98995D01*
G01*
X13980797Y21542391D01*
G75*
G02*
X13782807Y21542391I-98995J98995D01*
G01*
X13542391Y21782807D01*
G75*
G02*
X13542391Y21980797I98995J98995D01*
G01*
X13740381Y22178787D01*
G75*
G02*
X13938371Y22178787I98995J-98995D01*
G01*
G37*
G36*
G01*
X14617193Y22857609D02*
X14857609Y22617193D01*
G75*
G02*
X14857609Y22419203I-98995J-98995D01*
G01*
X14659619Y22221213D01*
G75*
G02*
X14461629Y22221213I-98995J98995D01*
G01*
X14221213Y22461629D01*
G75*
G02*
X14221213Y22659619I98995J98995D01*
G01*
X14419203Y22857609D01*
G75*
G02*
X14617193Y22857609I98995J-98995D01*
G01*
G37*
%TD*%
%TO.C,U2*%
G36*
G01*
X20785000Y31135000D02*
X20785000Y31515000D01*
G75*
G02*
X20855000Y31585000I70000J0D01*
G01*
X20995000Y31585000D01*
G75*
G02*
X21065000Y31515000I0J-70000D01*
G01*
X21065000Y31135000D01*
G75*
G02*
X20995000Y31065000I-70000J0D01*
G01*
X20855000Y31065000D01*
G75*
G02*
X20785000Y31135000I0J70000D01*
G01*
G37*
G36*
G01*
X20785000Y31785000D02*
X20785000Y32165000D01*
G75*
G02*
X20855000Y32235000I70000J0D01*
G01*
X20995000Y32235000D01*
G75*
G02*
X21065000Y32165000I0J-70000D01*
G01*
X21065000Y31785000D01*
G75*
G02*
X20995000Y31715000I-70000J0D01*
G01*
X20855000Y31715000D01*
G75*
G02*
X20785000Y31785000I0J70000D01*
G01*
G37*
G36*
G01*
X20435000Y31135000D02*
X20435000Y31515000D01*
G75*
G02*
X20505000Y31585000I70000J0D01*
G01*
X20645000Y31585000D01*
G75*
G02*
X20715000Y31515000I0J-70000D01*
G01*
X20715000Y31135000D01*
G75*
G02*
X20645000Y31065000I-70000J0D01*
G01*
X20505000Y31065000D01*
G75*
G02*
X20435000Y31135000I0J70000D01*
G01*
G37*
G36*
G01*
X20435000Y31785000D02*
X20435000Y32165000D01*
G75*
G02*
X20505000Y32235000I70000J0D01*
G01*
X20645000Y32235000D01*
G75*
G02*
X20715000Y32165000I0J-70000D01*
G01*
X20715000Y31785000D01*
G75*
G02*
X20645000Y31715000I-70000J0D01*
G01*
X20505000Y31715000D01*
G75*
G02*
X20435000Y31785000I0J70000D01*
G01*
G37*
G36*
G01*
X21325000Y32337500D02*
X21325000Y32462500D01*
G75*
G02*
X21387500Y32525000I62500J0D01*
G01*
X22037500Y32525000D01*
G75*
G02*
X22100000Y32462500I0J-62500D01*
G01*
X22100000Y32337500D01*
G75*
G02*
X22037500Y32275000I-62500J0D01*
G01*
X21387500Y32275000D01*
G75*
G02*
X21325000Y32337500I0J62500D01*
G01*
G37*
G36*
G01*
X21325000Y31837500D02*
X21325000Y31962500D01*
G75*
G02*
X21387500Y32025000I62500J0D01*
G01*
X22037500Y32025000D01*
G75*
G02*
X22100000Y31962500I0J-62500D01*
G01*
X22100000Y31837500D01*
G75*
G02*
X22037500Y31775000I-62500J0D01*
G01*
X21387500Y31775000D01*
G75*
G02*
X21325000Y31837500I0J62500D01*
G01*
G37*
G36*
G01*
X21325000Y31337500D02*
X21325000Y31462500D01*
G75*
G02*
X21387500Y31525000I62500J0D01*
G01*
X22037500Y31525000D01*
G75*
G02*
X22100000Y31462500I0J-62500D01*
G01*
X22100000Y31337500D01*
G75*
G02*
X22037500Y31275000I-62500J0D01*
G01*
X21387500Y31275000D01*
G75*
G02*
X21325000Y31337500I0J62500D01*
G01*
G37*
G36*
G01*
X21325000Y30837500D02*
X21325000Y30962500D01*
G75*
G02*
X21387500Y31025000I62500J0D01*
G01*
X22037500Y31025000D01*
G75*
G02*
X22100000Y30962500I0J-62500D01*
G01*
X22100000Y30837500D01*
G75*
G02*
X22037500Y30775000I-62500J0D01*
G01*
X21387500Y30775000D01*
G75*
G02*
X21325000Y30837500I0J62500D01*
G01*
G37*
G36*
G01*
X19400000Y30837500D02*
X19400000Y30962500D01*
G75*
G02*
X19462500Y31025000I62500J0D01*
G01*
X20112500Y31025000D01*
G75*
G02*
X20175000Y30962500I0J-62500D01*
G01*
X20175000Y30837500D01*
G75*
G02*
X20112500Y30775000I-62500J0D01*
G01*
X19462500Y30775000D01*
G75*
G02*
X19400000Y30837500I0J62500D01*
G01*
G37*
G36*
G01*
X19400000Y31337500D02*
X19400000Y31462500D01*
G75*
G02*
X19462500Y31525000I62500J0D01*
G01*
X20112500Y31525000D01*
G75*
G02*
X20175000Y31462500I0J-62500D01*
G01*
X20175000Y31337500D01*
G75*
G02*
X20112500Y31275000I-62500J0D01*
G01*
X19462500Y31275000D01*
G75*
G02*
X19400000Y31337500I0J62500D01*
G01*
G37*
G36*
G01*
X19400000Y31837500D02*
X19400000Y31962500D01*
G75*
G02*
X19462500Y32025000I62500J0D01*
G01*
X20112500Y32025000D01*
G75*
G02*
X20175000Y31962500I0J-62500D01*
G01*
X20175000Y31837500D01*
G75*
G02*
X20112500Y31775000I-62500J0D01*
G01*
X19462500Y31775000D01*
G75*
G02*
X19400000Y31837500I0J62500D01*
G01*
G37*
G36*
G01*
X19400000Y32337500D02*
X19400000Y32462500D01*
G75*
G02*
X19462500Y32525000I62500J0D01*
G01*
X20112500Y32525000D01*
G75*
G02*
X20175000Y32462500I0J-62500D01*
G01*
X20175000Y32337500D01*
G75*
G02*
X20112500Y32275000I-62500J0D01*
G01*
X19462500Y32275000D01*
G75*
G02*
X19400000Y32337500I0J62500D01*
G01*
G37*
%TD*%
D10*
%TO.C,Q1*%
G36*
X19876256Y25239860D02*
G01*
X20159099Y24957017D01*
X19699480Y24497398D01*
X19416637Y24780241D01*
X19876256Y25239860D01*
G37*
G36*
X18957017Y26159099D02*
G01*
X19239860Y25876256D01*
X18780241Y25416637D01*
X18497398Y25699480D01*
X18957017Y26159099D01*
G37*
G36*
X20760139Y27042982D02*
G01*
X21042982Y26760139D01*
X20583363Y26300520D01*
X20300520Y26583363D01*
X20760139Y27042982D01*
G37*
G36*
X19416637Y25699480D02*
G01*
X19699480Y25416637D01*
X19239861Y24957018D01*
X18957018Y25239861D01*
X19416637Y25699480D01*
G37*
G36*
X20300520Y27502602D02*
G01*
X20583363Y27219759D01*
X20123744Y26760140D01*
X19840901Y27042983D01*
X20300520Y27502602D01*
G37*
G36*
X21219759Y26583363D02*
G01*
X21502602Y26300520D01*
X21042983Y25840901D01*
X20760140Y26123744D01*
X21219759Y26583363D01*
G37*
%TD*%
%TO.C,C14*%
G36*
G01*
X9663371Y17653787D02*
X9903787Y17413371D01*
G75*
G02*
X9903787Y17215381I-98995J-98995D01*
G01*
X9705797Y17017391D01*
G75*
G02*
X9507807Y17017391I-98995J98995D01*
G01*
X9267391Y17257807D01*
G75*
G02*
X9267391Y17455797I98995J98995D01*
G01*
X9465381Y17653787D01*
G75*
G02*
X9663371Y17653787I98995J-98995D01*
G01*
G37*
G36*
G01*
X10342193Y18332609D02*
X10582609Y18092193D01*
G75*
G02*
X10582609Y17894203I-98995J-98995D01*
G01*
X10384619Y17696213D01*
G75*
G02*
X10186629Y17696213I-98995J98995D01*
G01*
X9946213Y17936629D01*
G75*
G02*
X9946213Y18134619I98995J98995D01*
G01*
X10144203Y18332609D01*
G75*
G02*
X10342193Y18332609I98995J-98995D01*
G01*
G37*
%TD*%
%TO.C,R11*%
G36*
G01*
X8490000Y13815000D02*
X8490000Y14185000D01*
G75*
G02*
X8625000Y14320000I135000J0D01*
G01*
X8895000Y14320000D01*
G75*
G02*
X9030000Y14185000I0J-135000D01*
G01*
X9030000Y13815000D01*
G75*
G02*
X8895000Y13680000I-135000J0D01*
G01*
X8625000Y13680000D01*
G75*
G02*
X8490000Y13815000I0J135000D01*
G01*
G37*
G36*
G01*
X7470000Y13815000D02*
X7470000Y14185000D01*
G75*
G02*
X7605000Y14320000I135000J0D01*
G01*
X7875000Y14320000D01*
G75*
G02*
X8010000Y14185000I0J-135000D01*
G01*
X8010000Y13815000D01*
G75*
G02*
X7875000Y13680000I-135000J0D01*
G01*
X7605000Y13680000D01*
G75*
G02*
X7470000Y13815000I0J135000D01*
G01*
G37*
%TD*%
D11*
%TO.C,D4*%
X7800000Y12050000D03*
X8700000Y12050000D03*
X8700000Y12950000D03*
X7800000Y12950000D03*
%TD*%
%TO.C,C16*%
G36*
G01*
X4763371Y16803787D02*
X5003787Y16563371D01*
G75*
G02*
X5003787Y16365381I-98995J-98995D01*
G01*
X4805797Y16167391D01*
G75*
G02*
X4607807Y16167391I-98995J98995D01*
G01*
X4367391Y16407807D01*
G75*
G02*
X4367391Y16605797I98995J98995D01*
G01*
X4565381Y16803787D01*
G75*
G02*
X4763371Y16803787I98995J-98995D01*
G01*
G37*
G36*
G01*
X5442193Y17482609D02*
X5682609Y17242193D01*
G75*
G02*
X5682609Y17044203I-98995J-98995D01*
G01*
X5484619Y16846213D01*
G75*
G02*
X5286629Y16846213I-98995J98995D01*
G01*
X5046213Y17086629D01*
G75*
G02*
X5046213Y17284619I98995J98995D01*
G01*
X5244203Y17482609D01*
G75*
G02*
X5442193Y17482609I98995J-98995D01*
G01*
G37*
%TD*%
%TO.C,C15*%
G36*
G01*
X4088371Y17478787D02*
X4328787Y17238371D01*
G75*
G02*
X4328787Y17040381I-98995J-98995D01*
G01*
X4130797Y16842391D01*
G75*
G02*
X3932807Y16842391I-98995J98995D01*
G01*
X3692391Y17082807D01*
G75*
G02*
X3692391Y17280797I98995J98995D01*
G01*
X3890381Y17478787D01*
G75*
G02*
X4088371Y17478787I98995J-98995D01*
G01*
G37*
G36*
G01*
X4767193Y18157609D02*
X5007609Y17917193D01*
G75*
G02*
X5007609Y17719203I-98995J-98995D01*
G01*
X4809619Y17521213D01*
G75*
G02*
X4611629Y17521213I-98995J98995D01*
G01*
X4371213Y17761629D01*
G75*
G02*
X4371213Y17959619I98995J98995D01*
G01*
X4569203Y18157609D01*
G75*
G02*
X4767193Y18157609I98995J-98995D01*
G01*
G37*
%TD*%
%TO.C,C12*%
G36*
G01*
X9761629Y27221213D02*
X9521213Y27461629D01*
G75*
G02*
X9521213Y27659619I98995J98995D01*
G01*
X9719203Y27857609D01*
G75*
G02*
X9917193Y27857609I98995J-98995D01*
G01*
X10157609Y27617193D01*
G75*
G02*
X10157609Y27419203I-98995J-98995D01*
G01*
X9959619Y27221213D01*
G75*
G02*
X9761629Y27221213I-98995J98995D01*
G01*
G37*
G36*
G01*
X9082807Y26542391D02*
X8842391Y26782807D01*
G75*
G02*
X8842391Y26980797I98995J98995D01*
G01*
X9040381Y27178787D01*
G75*
G02*
X9238371Y27178787I98995J-98995D01*
G01*
X9478787Y26938371D01*
G75*
G02*
X9478787Y26740381I-98995J-98995D01*
G01*
X9280797Y26542391D01*
G75*
G02*
X9082807Y26542391I-98995J98995D01*
G01*
G37*
%TD*%
%TO.C,C7*%
G36*
G01*
X3413371Y18153787D02*
X3653787Y17913371D01*
G75*
G02*
X3653787Y17715381I-98995J-98995D01*
G01*
X3455797Y17517391D01*
G75*
G02*
X3257807Y17517391I-98995J98995D01*
G01*
X3017391Y17757807D01*
G75*
G02*
X3017391Y17955797I98995J98995D01*
G01*
X3215381Y18153787D01*
G75*
G02*
X3413371Y18153787I98995J-98995D01*
G01*
G37*
G36*
G01*
X4092193Y18832609D02*
X4332609Y18592193D01*
G75*
G02*
X4332609Y18394203I-98995J-98995D01*
G01*
X4134619Y18196213D01*
G75*
G02*
X3936629Y18196213I-98995J98995D01*
G01*
X3696213Y18436629D01*
G75*
G02*
X3696213Y18634619I98995J98995D01*
G01*
X3894203Y18832609D01*
G75*
G02*
X4092193Y18832609I98995J-98995D01*
G01*
G37*
%TD*%
%TO.C,C6*%
G36*
G01*
X10338371Y16978787D02*
X10578787Y16738371D01*
G75*
G02*
X10578787Y16540381I-98995J-98995D01*
G01*
X10380797Y16342391D01*
G75*
G02*
X10182807Y16342391I-98995J98995D01*
G01*
X9942391Y16582807D01*
G75*
G02*
X9942391Y16780797I98995J98995D01*
G01*
X10140381Y16978787D01*
G75*
G02*
X10338371Y16978787I98995J-98995D01*
G01*
G37*
G36*
G01*
X11017193Y17657609D02*
X11257609Y17417193D01*
G75*
G02*
X11257609Y17219203I-98995J-98995D01*
G01*
X11059619Y17021213D01*
G75*
G02*
X10861629Y17021213I-98995J98995D01*
G01*
X10621213Y17261629D01*
G75*
G02*
X10621213Y17459619I98995J98995D01*
G01*
X10819203Y17657609D01*
G75*
G02*
X11017193Y17657609I98995J-98995D01*
G01*
G37*
%TD*%
%TO.C,C5*%
G36*
G01*
X1170000Y25800000D02*
X830000Y25800000D01*
G75*
G02*
X690000Y25940000I0J140000D01*
G01*
X690000Y26220000D01*
G75*
G02*
X830000Y26360000I140000J0D01*
G01*
X1170000Y26360000D01*
G75*
G02*
X1310000Y26220000I0J-140000D01*
G01*
X1310000Y25940000D01*
G75*
G02*
X1170000Y25800000I-140000J0D01*
G01*
G37*
G36*
G01*
X1170000Y24840000D02*
X830000Y24840000D01*
G75*
G02*
X690000Y24980000I0J140000D01*
G01*
X690000Y25260000D01*
G75*
G02*
X830000Y25400000I140000J0D01*
G01*
X1170000Y25400000D01*
G75*
G02*
X1310000Y25260000I0J-140000D01*
G01*
X1310000Y24980000D01*
G75*
G02*
X1170000Y24840000I-140000J0D01*
G01*
G37*
%TD*%
%TO.C,R14*%
G36*
G01*
X22075000Y13125000D02*
X22075000Y12575000D01*
G75*
G02*
X21875000Y12375000I-200000J0D01*
G01*
X21475000Y12375000D01*
G75*
G02*
X21275000Y12575000I0J200000D01*
G01*
X21275000Y13125000D01*
G75*
G02*
X21475000Y13325000I200000J0D01*
G01*
X21875000Y13325000D01*
G75*
G02*
X22075000Y13125000I0J-200000D01*
G01*
G37*
G36*
G01*
X23725000Y13125000D02*
X23725000Y12575000D01*
G75*
G02*
X23525000Y12375000I-200000J0D01*
G01*
X23125000Y12375000D01*
G75*
G02*
X22925000Y12575000I0J200000D01*
G01*
X22925000Y13125000D01*
G75*
G02*
X23125000Y13325000I200000J0D01*
G01*
X23525000Y13325000D01*
G75*
G02*
X23725000Y13125000I0J-200000D01*
G01*
G37*
%TD*%
%TO.C,R13*%
G36*
G01*
X6840000Y33115000D02*
X6840000Y33485000D01*
G75*
G02*
X6975000Y33620000I135000J0D01*
G01*
X7245000Y33620000D01*
G75*
G02*
X7380000Y33485000I0J-135000D01*
G01*
X7380000Y33115000D01*
G75*
G02*
X7245000Y32980000I-135000J0D01*
G01*
X6975000Y32980000D01*
G75*
G02*
X6840000Y33115000I0J135000D01*
G01*
G37*
G36*
G01*
X5820000Y33115000D02*
X5820000Y33485000D01*
G75*
G02*
X5955000Y33620000I135000J0D01*
G01*
X6225000Y33620000D01*
G75*
G02*
X6360000Y33485000I0J-135000D01*
G01*
X6360000Y33115000D01*
G75*
G02*
X6225000Y32980000I-135000J0D01*
G01*
X5955000Y32980000D01*
G75*
G02*
X5820000Y33115000I0J135000D01*
G01*
G37*
%TD*%
D12*
%TO.C,SW1*%
X4200000Y34250000D03*
D13*
X3900000Y32550000D03*
X3900000Y35950000D03*
D14*
X1650000Y32150000D03*
X1650000Y36350000D03*
%TD*%
D15*
%TO.C,Q2*%
X7600000Y30975000D03*
X5600000Y30025000D03*
X5600000Y31925000D03*
%TD*%
%TO.C,C10*%
G36*
G01*
X22504595Y19103033D02*
X22151041Y19456587D01*
G75*
G02*
X22151041Y19774785I159099J159099D01*
G01*
X22469239Y20092983D01*
G75*
G02*
X22787437Y20092983I159099J-159099D01*
G01*
X23140991Y19739429D01*
G75*
G02*
X23140991Y19421231I-159099J-159099D01*
G01*
X22822793Y19103033D01*
G75*
G02*
X22504595Y19103033I-159099J159099D01*
G01*
G37*
G36*
G01*
X21408579Y18007017D02*
X21055025Y18360571D01*
G75*
G02*
X21055025Y18678769I159099J159099D01*
G01*
X21373223Y18996967D01*
G75*
G02*
X21691421Y18996967I159099J-159099D01*
G01*
X22044975Y18643413D01*
G75*
G02*
X22044975Y18325215I-159099J-159099D01*
G01*
X21726777Y18007017D01*
G75*
G02*
X21408579Y18007017I-159099J159099D01*
G01*
G37*
%TD*%
%TO.C,C9*%
G36*
G01*
X22825000Y11100000D02*
X22825000Y11600000D01*
G75*
G02*
X23050000Y11825000I225000J0D01*
G01*
X23500000Y11825000D01*
G75*
G02*
X23725000Y11600000I0J-225000D01*
G01*
X23725000Y11100000D01*
G75*
G02*
X23500000Y10875000I-225000J0D01*
G01*
X23050000Y10875000D01*
G75*
G02*
X22825000Y11100000I0J225000D01*
G01*
G37*
G36*
G01*
X21275000Y11100000D02*
X21275000Y11600000D01*
G75*
G02*
X21500000Y11825000I225000J0D01*
G01*
X21950000Y11825000D01*
G75*
G02*
X22175000Y11600000I0J-225000D01*
G01*
X22175000Y11100000D01*
G75*
G02*
X21950000Y10875000I-225000J0D01*
G01*
X21500000Y10875000D01*
G75*
G02*
X21275000Y11100000I0J225000D01*
G01*
G37*
%TD*%
D16*
%TO.C,J2*%
X20050000Y34500000D03*
X9950000Y34500000D03*
D17*
X12250000Y35475000D03*
X16250000Y35475000D03*
X17250000Y35475000D03*
X18250000Y35475000D03*
X15250000Y35475000D03*
X13250000Y35475000D03*
X14250000Y35475000D03*
X17750000Y33525000D03*
X16750000Y33525000D03*
X15750000Y33525000D03*
X14750000Y33525000D03*
X13750000Y33525000D03*
X12750000Y33525000D03*
X11750000Y33525000D03*
%TD*%
D18*
%TO.C,AE1*%
X2000000Y8750000D03*
X2000000Y14250000D03*
%TD*%
D12*
%TO.C,SW2*%
X25800000Y34250000D03*
D13*
X26100000Y35950000D03*
X26100000Y32550000D03*
D14*
X28350000Y36350000D03*
X28350000Y32150000D03*
%TD*%
%TO.C,U4*%
G36*
G01*
X7882672Y23609879D02*
X7617507Y23344714D01*
G75*
G02*
X7352341Y23344714I-132583J132583D01*
G01*
X7087176Y23609879D01*
G75*
G02*
X7087176Y23875045I132583J132583D01*
G01*
X7352341Y24140210D01*
G75*
G02*
X7617507Y24140210I132583J-132583D01*
G01*
X7882672Y23875045D01*
G75*
G02*
X7882672Y23609879I-132583J-132583D01*
G01*
G37*
G36*
G01*
X7140210Y22867417D02*
X6875045Y22602252D01*
G75*
G02*
X6609879Y22602252I-132583J132583D01*
G01*
X6344714Y22867417D01*
G75*
G02*
X6344714Y23132583I132583J132583D01*
G01*
X6609879Y23397748D01*
G75*
G02*
X6875045Y23397748I132583J-132583D01*
G01*
X7140210Y23132583D01*
G75*
G02*
X7140210Y22867417I-132583J-132583D01*
G01*
G37*
G36*
G01*
X6397748Y22124955D02*
X6132583Y21859790D01*
G75*
G02*
X5867417Y21859790I-132583J132583D01*
G01*
X5602252Y22124955D01*
G75*
G02*
X5602252Y22390121I132583J132583D01*
G01*
X5867417Y22655286D01*
G75*
G02*
X6132583Y22655286I132583J-132583D01*
G01*
X6397748Y22390121D01*
G75*
G02*
X6397748Y22124955I-132583J-132583D01*
G01*
G37*
G36*
G01*
X8625134Y22867417D02*
X8359969Y22602252D01*
G75*
G02*
X8094803Y22602252I-132583J132583D01*
G01*
X7829638Y22867417D01*
G75*
G02*
X7829638Y23132583I132583J132583D01*
G01*
X8094803Y23397748D01*
G75*
G02*
X8359969Y23397748I132583J-132583D01*
G01*
X8625134Y23132583D01*
G75*
G02*
X8625134Y22867417I-132583J-132583D01*
G01*
G37*
G36*
G01*
X7882672Y22124955D02*
X7617507Y21859790D01*
G75*
G02*
X7352341Y21859790I-132583J132583D01*
G01*
X7087176Y22124955D01*
G75*
G02*
X7087176Y22390121I132583J132583D01*
G01*
X7352341Y22655286D01*
G75*
G02*
X7617507Y22655286I132583J-132583D01*
G01*
X7882672Y22390121D01*
G75*
G02*
X7882672Y22124955I-132583J-132583D01*
G01*
G37*
G36*
G01*
X7140210Y21382493D02*
X6875045Y21117328D01*
G75*
G02*
X6609879Y21117328I-132583J132583D01*
G01*
X6344714Y21382493D01*
G75*
G02*
X6344714Y21647659I132583J132583D01*
G01*
X6609879Y21912824D01*
G75*
G02*
X6875045Y21912824I132583J-132583D01*
G01*
X7140210Y21647659D01*
G75*
G02*
X7140210Y21382493I-132583J-132583D01*
G01*
G37*
G36*
G01*
X6397748Y25094803D02*
X6132583Y24829638D01*
G75*
G02*
X5867417Y24829638I-132583J132583D01*
G01*
X5602252Y25094803D01*
G75*
G02*
X5602252Y25359969I132583J132583D01*
G01*
X5867417Y25625134D01*
G75*
G02*
X6132583Y25625134I132583J-132583D01*
G01*
X6397748Y25359969D01*
G75*
G02*
X6397748Y25094803I-132583J-132583D01*
G01*
G37*
G36*
G01*
X5655286Y24352341D02*
X5390121Y24087176D01*
G75*
G02*
X5124955Y24087176I-132583J132583D01*
G01*
X4859790Y24352341D01*
G75*
G02*
X4859790Y24617507I132583J132583D01*
G01*
X5124955Y24882672D01*
G75*
G02*
X5390121Y24882672I132583J-132583D01*
G01*
X5655286Y24617507D01*
G75*
G02*
X5655286Y24352341I-132583J-132583D01*
G01*
G37*
G36*
G01*
X4912824Y23609879D02*
X4647659Y23344714D01*
G75*
G02*
X4382493Y23344714I-132583J132583D01*
G01*
X4117328Y23609879D01*
G75*
G02*
X4117328Y23875045I132583J132583D01*
G01*
X4382493Y24140210D01*
G75*
G02*
X4647659Y24140210I132583J-132583D01*
G01*
X4912824Y23875045D01*
G75*
G02*
X4912824Y23609879I-132583J-132583D01*
G01*
G37*
G36*
G01*
X7140210Y24352341D02*
X6875045Y24087176D01*
G75*
G02*
X6609879Y24087176I-132583J132583D01*
G01*
X6344714Y24352341D01*
G75*
G02*
X6344714Y24617507I132583J132583D01*
G01*
X6609879Y24882672D01*
G75*
G02*
X6875045Y24882672I132583J-132583D01*
G01*
X7140210Y24617507D01*
G75*
G02*
X7140210Y24352341I-132583J-132583D01*
G01*
G37*
G36*
G01*
X6397748Y23609879D02*
X6132583Y23344714D01*
G75*
G02*
X5867417Y23344714I-132583J132583D01*
G01*
X5602252Y23609879D01*
G75*
G02*
X5602252Y23875045I132583J132583D01*
G01*
X5867417Y24140210D01*
G75*
G02*
X6132583Y24140210I132583J-132583D01*
G01*
X6397748Y23875045D01*
G75*
G02*
X6397748Y23609879I-132583J-132583D01*
G01*
G37*
G36*
G01*
X5655286Y22867417D02*
X5390121Y22602252D01*
G75*
G02*
X5124955Y22602252I-132583J132583D01*
G01*
X4859790Y22867417D01*
G75*
G02*
X4859790Y23132583I132583J132583D01*
G01*
X5124955Y23397748D01*
G75*
G02*
X5390121Y23397748I132583J-132583D01*
G01*
X5655286Y23132583D01*
G75*
G02*
X5655286Y22867417I-132583J-132583D01*
G01*
G37*
G36*
G01*
X4170362Y22867417D02*
X3905197Y22602252D01*
G75*
G02*
X3640031Y22602252I-132583J132583D01*
G01*
X3374866Y22867417D01*
G75*
G02*
X3374866Y23132583I132583J132583D01*
G01*
X3640031Y23397748D01*
G75*
G02*
X3905197Y23397748I132583J-132583D01*
G01*
X4170362Y23132583D01*
G75*
G02*
X4170362Y22867417I-132583J-132583D01*
G01*
G37*
G36*
G01*
X4912824Y22124955D02*
X4647659Y21859790D01*
G75*
G02*
X4382493Y21859790I-132583J132583D01*
G01*
X4117328Y22124955D01*
G75*
G02*
X4117328Y22390121I132583J132583D01*
G01*
X4382493Y22655286D01*
G75*
G02*
X4647659Y22655286I132583J-132583D01*
G01*
X4912824Y22390121D01*
G75*
G02*
X4912824Y22124955I-132583J-132583D01*
G01*
G37*
G36*
G01*
X5655286Y21382493D02*
X5390121Y21117328D01*
G75*
G02*
X5124955Y21117328I-132583J132583D01*
G01*
X4859790Y21382493D01*
G75*
G02*
X4859790Y21647659I132583J132583D01*
G01*
X5124955Y21912824D01*
G75*
G02*
X5390121Y21912824I132583J-132583D01*
G01*
X5655286Y21647659D01*
G75*
G02*
X5655286Y21382493I-132583J-132583D01*
G01*
G37*
G36*
G01*
X6397748Y20640031D02*
X6132583Y20374866D01*
G75*
G02*
X5867417Y20374866I-132583J132583D01*
G01*
X5602252Y20640031D01*
G75*
G02*
X5602252Y20905197I132583J132583D01*
G01*
X5867417Y21170362D01*
G75*
G02*
X6132583Y21170362I132583J-132583D01*
G01*
X6397748Y20905197D01*
G75*
G02*
X6397748Y20640031I-132583J-132583D01*
G01*
G37*
G36*
G01*
X5867417Y18801554D02*
X5337087Y18271224D01*
G75*
G02*
X5248699Y18271224I-44194J44194D01*
G01*
X5160311Y18359612D01*
G75*
G02*
X5160311Y18448000I44194J44194D01*
G01*
X5690641Y18978330D01*
G75*
G02*
X5779029Y18978330I44194J-44194D01*
G01*
X5867417Y18889942D01*
G75*
G02*
X5867417Y18801554I-44194J-44194D01*
G01*
G37*
G36*
G01*
X5513864Y19155107D02*
X4983534Y18624777D01*
G75*
G02*
X4895146Y18624777I-44194J44194D01*
G01*
X4806758Y18713165D01*
G75*
G02*
X4806758Y18801553I44194J44194D01*
G01*
X5337088Y19331883D01*
G75*
G02*
X5425476Y19331883I44194J-44194D01*
G01*
X5513864Y19243495D01*
G75*
G02*
X5513864Y19155107I-44194J-44194D01*
G01*
G37*
G36*
G01*
X5160310Y19508661D02*
X4629980Y18978331D01*
G75*
G02*
X4541592Y18978331I-44194J44194D01*
G01*
X4453204Y19066719D01*
G75*
G02*
X4453204Y19155107I44194J44194D01*
G01*
X4983534Y19685437D01*
G75*
G02*
X5071922Y19685437I44194J-44194D01*
G01*
X5160310Y19597049D01*
G75*
G02*
X5160310Y19508661I-44194J-44194D01*
G01*
G37*
G36*
G01*
X4806757Y19862214D02*
X4276427Y19331884D01*
G75*
G02*
X4188039Y19331884I-44194J44194D01*
G01*
X4099651Y19420272D01*
G75*
G02*
X4099651Y19508660I44194J44194D01*
G01*
X4629981Y20038990D01*
G75*
G02*
X4718369Y20038990I44194J-44194D01*
G01*
X4806757Y19950602D01*
G75*
G02*
X4806757Y19862214I-44194J-44194D01*
G01*
G37*
G36*
G01*
X4453204Y20215767D02*
X3922874Y19685437D01*
G75*
G02*
X3834486Y19685437I-44194J44194D01*
G01*
X3746098Y19773825D01*
G75*
G02*
X3746098Y19862213I44194J44194D01*
G01*
X4276428Y20392543D01*
G75*
G02*
X4364816Y20392543I44194J-44194D01*
G01*
X4453204Y20304155D01*
G75*
G02*
X4453204Y20215767I-44194J-44194D01*
G01*
G37*
G36*
G01*
X4099650Y20569321D02*
X3569320Y20038991D01*
G75*
G02*
X3480932Y20038991I-44194J44194D01*
G01*
X3392544Y20127379D01*
G75*
G02*
X3392544Y20215767I44194J44194D01*
G01*
X3922874Y20746097D01*
G75*
G02*
X4011262Y20746097I44194J-44194D01*
G01*
X4099650Y20657709D01*
G75*
G02*
X4099650Y20569321I-44194J-44194D01*
G01*
G37*
G36*
G01*
X3746097Y20922874D02*
X3215767Y20392544D01*
G75*
G02*
X3127379Y20392544I-44194J44194D01*
G01*
X3038991Y20480932D01*
G75*
G02*
X3038991Y20569320I44194J44194D01*
G01*
X3569321Y21099650D01*
G75*
G02*
X3657709Y21099650I44194J-44194D01*
G01*
X3746097Y21011262D01*
G75*
G02*
X3746097Y20922874I-44194J-44194D01*
G01*
G37*
G36*
G01*
X3392543Y21276428D02*
X2862213Y20746098D01*
G75*
G02*
X2773825Y20746098I-44194J44194D01*
G01*
X2685437Y20834486D01*
G75*
G02*
X2685437Y20922874I44194J44194D01*
G01*
X3215767Y21453204D01*
G75*
G02*
X3304155Y21453204I44194J-44194D01*
G01*
X3392543Y21364816D01*
G75*
G02*
X3392543Y21276428I-44194J-44194D01*
G01*
G37*
G36*
G01*
X3038990Y21629981D02*
X2508660Y21099651D01*
G75*
G02*
X2420272Y21099651I-44194J44194D01*
G01*
X2331884Y21188039D01*
G75*
G02*
X2331884Y21276427I44194J44194D01*
G01*
X2862214Y21806757D01*
G75*
G02*
X2950602Y21806757I44194J-44194D01*
G01*
X3038990Y21718369D01*
G75*
G02*
X3038990Y21629981I-44194J-44194D01*
G01*
G37*
G36*
G01*
X2685437Y21983534D02*
X2155107Y21453204D01*
G75*
G02*
X2066719Y21453204I-44194J44194D01*
G01*
X1978331Y21541592D01*
G75*
G02*
X1978331Y21629980I44194J44194D01*
G01*
X2508661Y22160310D01*
G75*
G02*
X2597049Y22160310I44194J-44194D01*
G01*
X2685437Y22071922D01*
G75*
G02*
X2685437Y21983534I-44194J-44194D01*
G01*
G37*
G36*
G01*
X2331883Y22337088D02*
X1801553Y21806758D01*
G75*
G02*
X1713165Y21806758I-44194J44194D01*
G01*
X1624777Y21895146D01*
G75*
G02*
X1624777Y21983534I44194J44194D01*
G01*
X2155107Y22513864D01*
G75*
G02*
X2243495Y22513864I44194J-44194D01*
G01*
X2331883Y22425476D01*
G75*
G02*
X2331883Y22337088I-44194J-44194D01*
G01*
G37*
G36*
G01*
X1978330Y22690641D02*
X1448000Y22160311D01*
G75*
G02*
X1359612Y22160311I-44194J44194D01*
G01*
X1271224Y22248699D01*
G75*
G02*
X1271224Y22337087I44194J44194D01*
G01*
X1801554Y22867417D01*
G75*
G02*
X1889942Y22867417I44194J-44194D01*
G01*
X1978330Y22779029D01*
G75*
G02*
X1978330Y22690641I-44194J-44194D01*
G01*
G37*
G36*
G01*
X1978330Y23220971D02*
X1889942Y23132583D01*
G75*
G02*
X1801554Y23132583I-44194J44194D01*
G01*
X1271224Y23662913D01*
G75*
G02*
X1271224Y23751301I44194J44194D01*
G01*
X1359612Y23839689D01*
G75*
G02*
X1448000Y23839689I44194J-44194D01*
G01*
X1978330Y23309359D01*
G75*
G02*
X1978330Y23220971I-44194J-44194D01*
G01*
G37*
G36*
G01*
X2331883Y23574524D02*
X2243495Y23486136D01*
G75*
G02*
X2155107Y23486136I-44194J44194D01*
G01*
X1624777Y24016466D01*
G75*
G02*
X1624777Y24104854I44194J44194D01*
G01*
X1713165Y24193242D01*
G75*
G02*
X1801553Y24193242I44194J-44194D01*
G01*
X2331883Y23662912D01*
G75*
G02*
X2331883Y23574524I-44194J-44194D01*
G01*
G37*
G36*
G01*
X2685437Y23928078D02*
X2597049Y23839690D01*
G75*
G02*
X2508661Y23839690I-44194J44194D01*
G01*
X1978331Y24370020D01*
G75*
G02*
X1978331Y24458408I44194J44194D01*
G01*
X2066719Y24546796D01*
G75*
G02*
X2155107Y24546796I44194J-44194D01*
G01*
X2685437Y24016466D01*
G75*
G02*
X2685437Y23928078I-44194J-44194D01*
G01*
G37*
G36*
G01*
X3038990Y24281631D02*
X2950602Y24193243D01*
G75*
G02*
X2862214Y24193243I-44194J44194D01*
G01*
X2331884Y24723573D01*
G75*
G02*
X2331884Y24811961I44194J44194D01*
G01*
X2420272Y24900349D01*
G75*
G02*
X2508660Y24900349I44194J-44194D01*
G01*
X3038990Y24370019D01*
G75*
G02*
X3038990Y24281631I-44194J-44194D01*
G01*
G37*
G36*
G01*
X3392543Y24635184D02*
X3304155Y24546796D01*
G75*
G02*
X3215767Y24546796I-44194J44194D01*
G01*
X2685437Y25077126D01*
G75*
G02*
X2685437Y25165514I44194J44194D01*
G01*
X2773825Y25253902D01*
G75*
G02*
X2862213Y25253902I44194J-44194D01*
G01*
X3392543Y24723572D01*
G75*
G02*
X3392543Y24635184I-44194J-44194D01*
G01*
G37*
G36*
G01*
X3746097Y24988738D02*
X3657709Y24900350D01*
G75*
G02*
X3569321Y24900350I-44194J44194D01*
G01*
X3038991Y25430680D01*
G75*
G02*
X3038991Y25519068I44194J44194D01*
G01*
X3127379Y25607456D01*
G75*
G02*
X3215767Y25607456I44194J-44194D01*
G01*
X3746097Y25077126D01*
G75*
G02*
X3746097Y24988738I-44194J-44194D01*
G01*
G37*
G36*
G01*
X4099650Y25342291D02*
X4011262Y25253903D01*
G75*
G02*
X3922874Y25253903I-44194J44194D01*
G01*
X3392544Y25784233D01*
G75*
G02*
X3392544Y25872621I44194J44194D01*
G01*
X3480932Y25961009D01*
G75*
G02*
X3569320Y25961009I44194J-44194D01*
G01*
X4099650Y25430679D01*
G75*
G02*
X4099650Y25342291I-44194J-44194D01*
G01*
G37*
G36*
G01*
X4453204Y25695845D02*
X4364816Y25607457D01*
G75*
G02*
X4276428Y25607457I-44194J44194D01*
G01*
X3746098Y26137787D01*
G75*
G02*
X3746098Y26226175I44194J44194D01*
G01*
X3834486Y26314563D01*
G75*
G02*
X3922874Y26314563I44194J-44194D01*
G01*
X4453204Y25784233D01*
G75*
G02*
X4453204Y25695845I-44194J-44194D01*
G01*
G37*
G36*
G01*
X4806757Y26049398D02*
X4718369Y25961010D01*
G75*
G02*
X4629981Y25961010I-44194J44194D01*
G01*
X4099651Y26491340D01*
G75*
G02*
X4099651Y26579728I44194J44194D01*
G01*
X4188039Y26668116D01*
G75*
G02*
X4276427Y26668116I44194J-44194D01*
G01*
X4806757Y26137786D01*
G75*
G02*
X4806757Y26049398I-44194J-44194D01*
G01*
G37*
G36*
G01*
X5160310Y26402951D02*
X5071922Y26314563D01*
G75*
G02*
X4983534Y26314563I-44194J44194D01*
G01*
X4453204Y26844893D01*
G75*
G02*
X4453204Y26933281I44194J44194D01*
G01*
X4541592Y27021669D01*
G75*
G02*
X4629980Y27021669I44194J-44194D01*
G01*
X5160310Y26491339D01*
G75*
G02*
X5160310Y26402951I-44194J-44194D01*
G01*
G37*
G36*
G01*
X5513864Y26756505D02*
X5425476Y26668117D01*
G75*
G02*
X5337088Y26668117I-44194J44194D01*
G01*
X4806758Y27198447D01*
G75*
G02*
X4806758Y27286835I44194J44194D01*
G01*
X4895146Y27375223D01*
G75*
G02*
X4983534Y27375223I44194J-44194D01*
G01*
X5513864Y26844893D01*
G75*
G02*
X5513864Y26756505I-44194J-44194D01*
G01*
G37*
G36*
G01*
X5867417Y27110058D02*
X5779029Y27021670D01*
G75*
G02*
X5690641Y27021670I-44194J44194D01*
G01*
X5160311Y27552000D01*
G75*
G02*
X5160311Y27640388I44194J44194D01*
G01*
X5248699Y27728776D01*
G75*
G02*
X5337087Y27728776I44194J-44194D01*
G01*
X5867417Y27198446D01*
G75*
G02*
X5867417Y27110058I-44194J-44194D01*
G01*
G37*
G36*
G01*
X6839689Y27552000D02*
X6309359Y27021670D01*
G75*
G02*
X6220971Y27021670I-44194J44194D01*
G01*
X6132583Y27110058D01*
G75*
G02*
X6132583Y27198446I44194J44194D01*
G01*
X6662913Y27728776D01*
G75*
G02*
X6751301Y27728776I44194J-44194D01*
G01*
X6839689Y27640388D01*
G75*
G02*
X6839689Y27552000I-44194J-44194D01*
G01*
G37*
G36*
G01*
X7193242Y27198447D02*
X6662912Y26668117D01*
G75*
G02*
X6574524Y26668117I-44194J44194D01*
G01*
X6486136Y26756505D01*
G75*
G02*
X6486136Y26844893I44194J44194D01*
G01*
X7016466Y27375223D01*
G75*
G02*
X7104854Y27375223I44194J-44194D01*
G01*
X7193242Y27286835D01*
G75*
G02*
X7193242Y27198447I-44194J-44194D01*
G01*
G37*
G36*
G01*
X7546796Y26844893D02*
X7016466Y26314563D01*
G75*
G02*
X6928078Y26314563I-44194J44194D01*
G01*
X6839690Y26402951D01*
G75*
G02*
X6839690Y26491339I44194J44194D01*
G01*
X7370020Y27021669D01*
G75*
G02*
X7458408Y27021669I44194J-44194D01*
G01*
X7546796Y26933281D01*
G75*
G02*
X7546796Y26844893I-44194J-44194D01*
G01*
G37*
G36*
G01*
X7900349Y26491340D02*
X7370019Y25961010D01*
G75*
G02*
X7281631Y25961010I-44194J44194D01*
G01*
X7193243Y26049398D01*
G75*
G02*
X7193243Y26137786I44194J44194D01*
G01*
X7723573Y26668116D01*
G75*
G02*
X7811961Y26668116I44194J-44194D01*
G01*
X7900349Y26579728D01*
G75*
G02*
X7900349Y26491340I-44194J-44194D01*
G01*
G37*
G36*
G01*
X8253902Y26137787D02*
X7723572Y25607457D01*
G75*
G02*
X7635184Y25607457I-44194J44194D01*
G01*
X7546796Y25695845D01*
G75*
G02*
X7546796Y25784233I44194J44194D01*
G01*
X8077126Y26314563D01*
G75*
G02*
X8165514Y26314563I44194J-44194D01*
G01*
X8253902Y26226175D01*
G75*
G02*
X8253902Y26137787I-44194J-44194D01*
G01*
G37*
G36*
G01*
X8607456Y25784233D02*
X8077126Y25253903D01*
G75*
G02*
X7988738Y25253903I-44194J44194D01*
G01*
X7900350Y25342291D01*
G75*
G02*
X7900350Y25430679I44194J44194D01*
G01*
X8430680Y25961009D01*
G75*
G02*
X8519068Y25961009I44194J-44194D01*
G01*
X8607456Y25872621D01*
G75*
G02*
X8607456Y25784233I-44194J-44194D01*
G01*
G37*
G36*
G01*
X8961009Y25430680D02*
X8430679Y24900350D01*
G75*
G02*
X8342291Y24900350I-44194J44194D01*
G01*
X8253903Y24988738D01*
G75*
G02*
X8253903Y25077126I44194J44194D01*
G01*
X8784233Y25607456D01*
G75*
G02*
X8872621Y25607456I44194J-44194D01*
G01*
X8961009Y25519068D01*
G75*
G02*
X8961009Y25430680I-44194J-44194D01*
G01*
G37*
G36*
G01*
X9314563Y25077126D02*
X8784233Y24546796D01*
G75*
G02*
X8695845Y24546796I-44194J44194D01*
G01*
X8607457Y24635184D01*
G75*
G02*
X8607457Y24723572I44194J44194D01*
G01*
X9137787Y25253902D01*
G75*
G02*
X9226175Y25253902I44194J-44194D01*
G01*
X9314563Y25165514D01*
G75*
G02*
X9314563Y25077126I-44194J-44194D01*
G01*
G37*
G36*
G01*
X9668116Y24723573D02*
X9137786Y24193243D01*
G75*
G02*
X9049398Y24193243I-44194J44194D01*
G01*
X8961010Y24281631D01*
G75*
G02*
X8961010Y24370019I44194J44194D01*
G01*
X9491340Y24900349D01*
G75*
G02*
X9579728Y24900349I44194J-44194D01*
G01*
X9668116Y24811961D01*
G75*
G02*
X9668116Y24723573I-44194J-44194D01*
G01*
G37*
G36*
G01*
X10021669Y24370020D02*
X9491339Y23839690D01*
G75*
G02*
X9402951Y23839690I-44194J44194D01*
G01*
X9314563Y23928078D01*
G75*
G02*
X9314563Y24016466I44194J44194D01*
G01*
X9844893Y24546796D01*
G75*
G02*
X9933281Y24546796I44194J-44194D01*
G01*
X10021669Y24458408D01*
G75*
G02*
X10021669Y24370020I-44194J-44194D01*
G01*
G37*
G36*
G01*
X10375223Y24016466D02*
X9844893Y23486136D01*
G75*
G02*
X9756505Y23486136I-44194J44194D01*
G01*
X9668117Y23574524D01*
G75*
G02*
X9668117Y23662912I44194J44194D01*
G01*
X10198447Y24193242D01*
G75*
G02*
X10286835Y24193242I44194J-44194D01*
G01*
X10375223Y24104854D01*
G75*
G02*
X10375223Y24016466I-44194J-44194D01*
G01*
G37*
G36*
G01*
X10728776Y23662913D02*
X10198446Y23132583D01*
G75*
G02*
X10110058Y23132583I-44194J44194D01*
G01*
X10021670Y23220971D01*
G75*
G02*
X10021670Y23309359I44194J44194D01*
G01*
X10552000Y23839689D01*
G75*
G02*
X10640388Y23839689I44194J-44194D01*
G01*
X10728776Y23751301D01*
G75*
G02*
X10728776Y23662913I-44194J-44194D01*
G01*
G37*
G36*
G01*
X10728776Y22248699D02*
X10640388Y22160311D01*
G75*
G02*
X10552000Y22160311I-44194J44194D01*
G01*
X10021670Y22690641D01*
G75*
G02*
X10021670Y22779029I44194J44194D01*
G01*
X10110058Y22867417D01*
G75*
G02*
X10198446Y22867417I44194J-44194D01*
G01*
X10728776Y22337087D01*
G75*
G02*
X10728776Y22248699I-44194J-44194D01*
G01*
G37*
G36*
G01*
X10375223Y21895146D02*
X10286835Y21806758D01*
G75*
G02*
X10198447Y21806758I-44194J44194D01*
G01*
X9668117Y22337088D01*
G75*
G02*
X9668117Y22425476I44194J44194D01*
G01*
X9756505Y22513864D01*
G75*
G02*
X9844893Y22513864I44194J-44194D01*
G01*
X10375223Y21983534D01*
G75*
G02*
X10375223Y21895146I-44194J-44194D01*
G01*
G37*
G36*
G01*
X10021669Y21541592D02*
X9933281Y21453204D01*
G75*
G02*
X9844893Y21453204I-44194J44194D01*
G01*
X9314563Y21983534D01*
G75*
G02*
X9314563Y22071922I44194J44194D01*
G01*
X9402951Y22160310D01*
G75*
G02*
X9491339Y22160310I44194J-44194D01*
G01*
X10021669Y21629980D01*
G75*
G02*
X10021669Y21541592I-44194J-44194D01*
G01*
G37*
G36*
G01*
X9668116Y21188039D02*
X9579728Y21099651D01*
G75*
G02*
X9491340Y21099651I-44194J44194D01*
G01*
X8961010Y21629981D01*
G75*
G02*
X8961010Y21718369I44194J44194D01*
G01*
X9049398Y21806757D01*
G75*
G02*
X9137786Y21806757I44194J-44194D01*
G01*
X9668116Y21276427D01*
G75*
G02*
X9668116Y21188039I-44194J-44194D01*
G01*
G37*
G36*
G01*
X9314563Y20834486D02*
X9226175Y20746098D01*
G75*
G02*
X9137787Y20746098I-44194J44194D01*
G01*
X8607457Y21276428D01*
G75*
G02*
X8607457Y21364816I44194J44194D01*
G01*
X8695845Y21453204D01*
G75*
G02*
X8784233Y21453204I44194J-44194D01*
G01*
X9314563Y20922874D01*
G75*
G02*
X9314563Y20834486I-44194J-44194D01*
G01*
G37*
G36*
G01*
X8961009Y20480932D02*
X8872621Y20392544D01*
G75*
G02*
X8784233Y20392544I-44194J44194D01*
G01*
X8253903Y20922874D01*
G75*
G02*
X8253903Y21011262I44194J44194D01*
G01*
X8342291Y21099650D01*
G75*
G02*
X8430679Y21099650I44194J-44194D01*
G01*
X8961009Y20569320D01*
G75*
G02*
X8961009Y20480932I-44194J-44194D01*
G01*
G37*
G36*
G01*
X8607456Y20127379D02*
X8519068Y20038991D01*
G75*
G02*
X8430680Y20038991I-44194J44194D01*
G01*
X7900350Y20569321D01*
G75*
G02*
X7900350Y20657709I44194J44194D01*
G01*
X7988738Y20746097D01*
G75*
G02*
X8077126Y20746097I44194J-44194D01*
G01*
X8607456Y20215767D01*
G75*
G02*
X8607456Y20127379I-44194J-44194D01*
G01*
G37*
G36*
G01*
X8253902Y19773825D02*
X8165514Y19685437D01*
G75*
G02*
X8077126Y19685437I-44194J44194D01*
G01*
X7546796Y20215767D01*
G75*
G02*
X7546796Y20304155I44194J44194D01*
G01*
X7635184Y20392543D01*
G75*
G02*
X7723572Y20392543I44194J-44194D01*
G01*
X8253902Y19862213D01*
G75*
G02*
X8253902Y19773825I-44194J-44194D01*
G01*
G37*
G36*
G01*
X7900349Y19420272D02*
X7811961Y19331884D01*
G75*
G02*
X7723573Y19331884I-44194J44194D01*
G01*
X7193243Y19862214D01*
G75*
G02*
X7193243Y19950602I44194J44194D01*
G01*
X7281631Y20038990D01*
G75*
G02*
X7370019Y20038990I44194J-44194D01*
G01*
X7900349Y19508660D01*
G75*
G02*
X7900349Y19420272I-44194J-44194D01*
G01*
G37*
G36*
G01*
X7546796Y19066719D02*
X7458408Y18978331D01*
G75*
G02*
X7370020Y18978331I-44194J44194D01*
G01*
X6839690Y19508661D01*
G75*
G02*
X6839690Y19597049I44194J44194D01*
G01*
X6928078Y19685437D01*
G75*
G02*
X7016466Y19685437I44194J-44194D01*
G01*
X7546796Y19155107D01*
G75*
G02*
X7546796Y19066719I-44194J-44194D01*
G01*
G37*
G36*
G01*
X7193242Y18713165D02*
X7104854Y18624777D01*
G75*
G02*
X7016466Y18624777I-44194J44194D01*
G01*
X6486136Y19155107D01*
G75*
G02*
X6486136Y19243495I44194J44194D01*
G01*
X6574524Y19331883D01*
G75*
G02*
X6662912Y19331883I44194J-44194D01*
G01*
X7193242Y18801553D01*
G75*
G02*
X7193242Y18713165I-44194J-44194D01*
G01*
G37*
G36*
G01*
X6839689Y18359612D02*
X6751301Y18271224D01*
G75*
G02*
X6662913Y18271224I-44194J44194D01*
G01*
X6132583Y18801554D01*
G75*
G02*
X6132583Y18889942I44194J44194D01*
G01*
X6220971Y18978330D01*
G75*
G02*
X6309359Y18978330I44194J-44194D01*
G01*
X6839689Y18448000D01*
G75*
G02*
X6839689Y18359612I-44194J-44194D01*
G01*
G37*
%TD*%
D19*
%TO.C,U3*%
X21550000Y16600000D03*
X23450000Y16600000D03*
X23450000Y14400000D03*
X22500000Y14400000D03*
X21550000Y14400000D03*
%TD*%
%TO.C,R12*%
G36*
G01*
X10225520Y20413891D02*
X9963891Y20675520D01*
G75*
G02*
X9963891Y20866438I95459J95459D01*
G01*
X10154810Y21057357D01*
G75*
G02*
X10345728Y21057357I95459J-95459D01*
G01*
X10607357Y20795728D01*
G75*
G02*
X10607357Y20604810I-95459J-95459D01*
G01*
X10416438Y20413891D01*
G75*
G02*
X10225520Y20413891I-95459J95459D01*
G01*
G37*
G36*
G01*
X9504272Y19692643D02*
X9242643Y19954272D01*
G75*
G02*
X9242643Y20145190I95459J95459D01*
G01*
X9433562Y20336109D01*
G75*
G02*
X9624480Y20336109I95459J-95459D01*
G01*
X9886109Y20074480D01*
G75*
G02*
X9886109Y19883562I-95459J-95459D01*
G01*
X9695190Y19692643D01*
G75*
G02*
X9504272Y19692643I-95459J95459D01*
G01*
G37*
%TD*%
%TO.C,R10*%
G36*
G01*
X8274480Y18986109D02*
X8536109Y18724480D01*
G75*
G02*
X8536109Y18533562I-95459J-95459D01*
G01*
X8345190Y18342643D01*
G75*
G02*
X8154272Y18342643I-95459J95459D01*
G01*
X7892643Y18604272D01*
G75*
G02*
X7892643Y18795190I95459J95459D01*
G01*
X8083562Y18986109D01*
G75*
G02*
X8274480Y18986109I95459J-95459D01*
G01*
G37*
G36*
G01*
X8995728Y19707357D02*
X9257357Y19445728D01*
G75*
G02*
X9257357Y19254810I-95459J-95459D01*
G01*
X9066438Y19063891D01*
G75*
G02*
X8875520Y19063891I-95459J95459D01*
G01*
X8613891Y19325520D01*
G75*
G02*
X8613891Y19516438I95459J95459D01*
G01*
X8804810Y19707357D01*
G75*
G02*
X8995728Y19707357I95459J-95459D01*
G01*
G37*
%TD*%
%TO.C,R8*%
G36*
G01*
X16500520Y20238891D02*
X16238891Y20500520D01*
G75*
G02*
X16238891Y20691438I95459J95459D01*
G01*
X16429810Y20882357D01*
G75*
G02*
X16620728Y20882357I95459J-95459D01*
G01*
X16882357Y20620728D01*
G75*
G02*
X16882357Y20429810I-95459J-95459D01*
G01*
X16691438Y20238891D01*
G75*
G02*
X16500520Y20238891I-95459J95459D01*
G01*
G37*
G36*
G01*
X15779272Y19517643D02*
X15517643Y19779272D01*
G75*
G02*
X15517643Y19970190I95459J95459D01*
G01*
X15708562Y20161109D01*
G75*
G02*
X15899480Y20161109I95459J-95459D01*
G01*
X16161109Y19899480D01*
G75*
G02*
X16161109Y19708562I-95459J-95459D01*
G01*
X15970190Y19517643D01*
G75*
G02*
X15779272Y19517643I-95459J95459D01*
G01*
G37*
%TD*%
%TO.C,R7*%
G36*
G01*
X17200520Y19538891D02*
X16938891Y19800520D01*
G75*
G02*
X16938891Y19991438I95459J95459D01*
G01*
X17129810Y20182357D01*
G75*
G02*
X17320728Y20182357I95459J-95459D01*
G01*
X17582357Y19920728D01*
G75*
G02*
X17582357Y19729810I-95459J-95459D01*
G01*
X17391438Y19538891D01*
G75*
G02*
X17200520Y19538891I-95459J95459D01*
G01*
G37*
G36*
G01*
X16479272Y18817643D02*
X16217643Y19079272D01*
G75*
G02*
X16217643Y19270190I95459J95459D01*
G01*
X16408562Y19461109D01*
G75*
G02*
X16599480Y19461109I95459J-95459D01*
G01*
X16861109Y19199480D01*
G75*
G02*
X16861109Y19008562I-95459J-95459D01*
G01*
X16670190Y18817643D01*
G75*
G02*
X16479272Y18817643I-95459J95459D01*
G01*
G37*
%TD*%
%TO.C,R4*%
G36*
G01*
X16840000Y16135000D02*
X17210000Y16135000D01*
G75*
G02*
X17345000Y16000000I0J-135000D01*
G01*
X17345000Y15730000D01*
G75*
G02*
X17210000Y15595000I-135000J0D01*
G01*
X16840000Y15595000D01*
G75*
G02*
X16705000Y15730000I0J135000D01*
G01*
X16705000Y16000000D01*
G75*
G02*
X16840000Y16135000I135000J0D01*
G01*
G37*
G36*
G01*
X16840000Y17155000D02*
X17210000Y17155000D01*
G75*
G02*
X17345000Y17020000I0J-135000D01*
G01*
X17345000Y16750000D01*
G75*
G02*
X17210000Y16615000I-135000J0D01*
G01*
X16840000Y16615000D01*
G75*
G02*
X16705000Y16750000I0J135000D01*
G01*
X16705000Y17020000D01*
G75*
G02*
X16840000Y17155000I135000J0D01*
G01*
G37*
%TD*%
%TO.C,R3*%
G36*
G01*
X12790000Y16135000D02*
X13160000Y16135000D01*
G75*
G02*
X13295000Y16000000I0J-135000D01*
G01*
X13295000Y15730000D01*
G75*
G02*
X13160000Y15595000I-135000J0D01*
G01*
X12790000Y15595000D01*
G75*
G02*
X12655000Y15730000I0J135000D01*
G01*
X12655000Y16000000D01*
G75*
G02*
X12790000Y16135000I135000J0D01*
G01*
G37*
G36*
G01*
X12790000Y17155000D02*
X13160000Y17155000D01*
G75*
G02*
X13295000Y17020000I0J-135000D01*
G01*
X13295000Y16750000D01*
G75*
G02*
X13160000Y16615000I-135000J0D01*
G01*
X12790000Y16615000D01*
G75*
G02*
X12655000Y16750000I0J135000D01*
G01*
X12655000Y17020000D01*
G75*
G02*
X12790000Y17155000I135000J0D01*
G01*
G37*
%TD*%
D20*
%TO.C,J1*%
X14750000Y14045000D03*
X16750000Y14045000D03*
X16250000Y14045000D03*
X15750000Y14045000D03*
X15250000Y14045000D03*
X14250000Y14045000D03*
X13750000Y14045000D03*
X13250000Y14045000D03*
D21*
X18200000Y14045000D03*
X17400000Y14045000D03*
X12600000Y14045000D03*
X11800000Y14045000D03*
X11800000Y14045000D03*
X12600000Y14045000D03*
X17400000Y14045000D03*
X18200000Y14045000D03*
%TD*%
D22*
%TO.C,D3*%
X18300000Y15900000D03*
X18300000Y17300000D03*
%TD*%
%TO.C,D2*%
X14250000Y15900000D03*
X14250000Y17300000D03*
%TD*%
%TO.C,D1*%
X15750000Y15900000D03*
X15750000Y17300000D03*
%TD*%
%TO.C,C13*%
G36*
G01*
X8988371Y18328787D02*
X9228787Y18088371D01*
G75*
G02*
X9228787Y17890381I-98995J-98995D01*
G01*
X9030797Y17692391D01*
G75*
G02*
X8832807Y17692391I-98995J98995D01*
G01*
X8592391Y17932807D01*
G75*
G02*
X8592391Y18130797I98995J98995D01*
G01*
X8790381Y18328787D01*
G75*
G02*
X8988371Y18328787I98995J-98995D01*
G01*
G37*
G36*
G01*
X9667193Y19007609D02*
X9907609Y18767193D01*
G75*
G02*
X9907609Y18569203I-98995J-98995D01*
G01*
X9709619Y18371213D01*
G75*
G02*
X9511629Y18371213I-98995J98995D01*
G01*
X9271213Y18611629D01*
G75*
G02*
X9271213Y18809619I98995J98995D01*
G01*
X9469203Y19007609D01*
G75*
G02*
X9667193Y19007609I98995J-98995D01*
G01*
G37*
%TD*%
%TO.C,C11*%
G36*
G01*
X10338371Y19678787D02*
X10578787Y19438371D01*
G75*
G02*
X10578787Y19240381I-98995J-98995D01*
G01*
X10380797Y19042391D01*
G75*
G02*
X10182807Y19042391I-98995J98995D01*
G01*
X9942391Y19282807D01*
G75*
G02*
X9942391Y19480797I98995J98995D01*
G01*
X10140381Y19678787D01*
G75*
G02*
X10338371Y19678787I98995J-98995D01*
G01*
G37*
G36*
G01*
X11017193Y20357609D02*
X11257609Y20117193D01*
G75*
G02*
X11257609Y19919203I-98995J-98995D01*
G01*
X11059619Y19721213D01*
G75*
G02*
X10861629Y19721213I-98995J98995D01*
G01*
X10621213Y19961629D01*
G75*
G02*
X10621213Y20159619I98995J98995D01*
G01*
X10819203Y20357609D01*
G75*
G02*
X11017193Y20357609I98995J-98995D01*
G01*
G37*
%TD*%
%TO.C,C8*%
G36*
G01*
X23500000Y32230000D02*
X23500000Y32570000D01*
G75*
G02*
X23640000Y32710000I140000J0D01*
G01*
X23920000Y32710000D01*
G75*
G02*
X24060000Y32570000I0J-140000D01*
G01*
X24060000Y32230000D01*
G75*
G02*
X23920000Y32090000I-140000J0D01*
G01*
X23640000Y32090000D01*
G75*
G02*
X23500000Y32230000I0J140000D01*
G01*
G37*
G36*
G01*
X22540000Y32230000D02*
X22540000Y32570000D01*
G75*
G02*
X22680000Y32710000I140000J0D01*
G01*
X22960000Y32710000D01*
G75*
G02*
X23100000Y32570000I0J-140000D01*
G01*
X23100000Y32230000D01*
G75*
G02*
X22960000Y32090000I-140000J0D01*
G01*
X22680000Y32090000D01*
G75*
G02*
X22540000Y32230000I0J140000D01*
G01*
G37*
%TD*%
%TO.C,C4*%
G36*
G01*
X23436629Y18421213D02*
X23196213Y18661629D01*
G75*
G02*
X23196213Y18859619I98995J98995D01*
G01*
X23394203Y19057609D01*
G75*
G02*
X23592193Y19057609I98995J-98995D01*
G01*
X23832609Y18817193D01*
G75*
G02*
X23832609Y18619203I-98995J-98995D01*
G01*
X23634619Y18421213D01*
G75*
G02*
X23436629Y18421213I-98995J98995D01*
G01*
G37*
G36*
G01*
X22757807Y17742391D02*
X22517391Y17982807D01*
G75*
G02*
X22517391Y18180797I98995J98995D01*
G01*
X22715381Y18378787D01*
G75*
G02*
X22913371Y18378787I98995J-98995D01*
G01*
X23153787Y18138371D01*
G75*
G02*
X23153787Y17940381I-98995J-98995D01*
G01*
X22955797Y17742391D01*
G75*
G02*
X22757807Y17742391I-98995J98995D01*
G01*
G37*
%TD*%
%TO.C,C3*%
G36*
G01*
X17450000Y31930000D02*
X17450000Y32270000D01*
G75*
G02*
X17590000Y32410000I140000J0D01*
G01*
X17870000Y32410000D01*
G75*
G02*
X18010000Y32270000I0J-140000D01*
G01*
X18010000Y31930000D01*
G75*
G02*
X17870000Y31790000I-140000J0D01*
G01*
X17590000Y31790000D01*
G75*
G02*
X17450000Y31930000I0J140000D01*
G01*
G37*
G36*
G01*
X16490000Y31930000D02*
X16490000Y32270000D01*
G75*
G02*
X16630000Y32410000I140000J0D01*
G01*
X16910000Y32410000D01*
G75*
G02*
X17050000Y32270000I0J-140000D01*
G01*
X17050000Y31930000D01*
G75*
G02*
X16910000Y31790000I-140000J0D01*
G01*
X16630000Y31790000D01*
G75*
G02*
X16490000Y31930000I0J140000D01*
G01*
G37*
%TD*%
M02*
