%TF.GenerationSoftware,KiCad,Pcbnew,(5.1.12-1-10_14)*%
%TF.CreationDate,2022-04-04T20:25:46+08:00*%
%TF.ProjectId,DeerMon,44656572-4d6f-46e2-9e6b-696361645f70,rev?*%
%TF.SameCoordinates,Original*%
%TF.FileFunction,Soldermask,Bot*%
%TF.FilePolarity,Negative*%
%FSLAX46Y46*%
G04 Gerber Fmt 4.6, Leading zero omitted, Abs format (unit mm)*
G04 Created by KiCad (PCBNEW (5.1.12-1-10_14)) date 2022-04-04 20:25:46*
%MOMM*%
%LPD*%
G01*
G04 APERTURE LIST*
%ADD10C,0.600000*%
%ADD11C,1.300000*%
%ADD12C,2.100000*%
%ADD13O,1.800000X1.800000*%
%ADD14C,1.200000*%
%ADD15C,0.750000*%
G04 APERTURE END LIST*
D10*
%TO.C,CE4*%
X21000000Y7500000D03*
X22000000Y7500000D03*
X25000000Y7500000D03*
X24000000Y7500000D03*
X23000000Y7500000D03*
%TD*%
%TO.C,CE3*%
X24500000Y37500000D03*
X23500000Y37500000D03*
X20500000Y37500000D03*
X21500000Y37500000D03*
X22500000Y37500000D03*
%TD*%
%TO.C,CE2*%
X5000000Y7500000D03*
X6000000Y7500000D03*
X9000000Y7500000D03*
X8000000Y7500000D03*
X7000000Y7500000D03*
%TD*%
%TO.C,CE1*%
X9500000Y37500000D03*
X8500000Y37500000D03*
X5500000Y37500000D03*
X6500000Y37500000D03*
X7500000Y37500000D03*
%TD*%
D11*
%TO.C,H1*%
X6500000Y35000000D03*
%TD*%
%TO.C,H4*%
X21750000Y9500000D03*
%TD*%
%TO.C,H3*%
X8250000Y9500000D03*
%TD*%
%TO.C,H2*%
X23500000Y35000000D03*
%TD*%
D12*
%TO.C,BZ1*%
X9425988Y30974012D03*
X14800000Y25600000D03*
%TD*%
D13*
%TO.C,J3*%
X25710000Y29620000D03*
X28250000Y29620000D03*
X25710000Y27080000D03*
X28250000Y27080000D03*
X25710000Y24540000D03*
X28250000Y24540000D03*
X25710000Y22000000D03*
X28250000Y22000000D03*
X25710000Y19460000D03*
X28250000Y19460000D03*
X25710000Y16920000D03*
X28250000Y16920000D03*
X25710000Y14380000D03*
X28250000Y14380000D03*
X25710000Y11840000D03*
X28250000Y11840000D03*
X25710000Y9300000D03*
G36*
G01*
X27350000Y8450000D02*
X27350000Y10150000D01*
G75*
G02*
X27400000Y10200000I50000J0D01*
G01*
X29100000Y10200000D01*
G75*
G02*
X29150000Y10150000I0J-50000D01*
G01*
X29150000Y8450000D01*
G75*
G02*
X29100000Y8400000I-50000J0D01*
G01*
X27400000Y8400000D01*
G75*
G02*
X27350000Y8450000I0J50000D01*
G01*
G37*
%TD*%
D14*
%TO.C,SW1*%
X2600000Y32100000D03*
X2600000Y36400000D03*
%TD*%
%TO.C,SW2*%
X27400000Y36400000D03*
X27400000Y32100000D03*
%TD*%
%TO.C,J1*%
G36*
G01*
X18775000Y8475000D02*
X18775000Y9825000D01*
G75*
G02*
X19150000Y10200000I375000J0D01*
G01*
X19900000Y10200000D01*
G75*
G02*
X20275000Y9825000I0J-375000D01*
G01*
X20275000Y8475000D01*
G75*
G02*
X19900000Y8100000I-375000J0D01*
G01*
X19150000Y8100000D01*
G75*
G02*
X18775000Y8475000I0J375000D01*
G01*
G37*
D15*
X17900000Y12600000D03*
G36*
G01*
X9725000Y8475000D02*
X9725000Y9825000D01*
G75*
G02*
X10100000Y10200000I375000J0D01*
G01*
X10850000Y10200000D01*
G75*
G02*
X11225000Y9825000I0J-375000D01*
G01*
X11225000Y8475000D01*
G75*
G02*
X10850000Y8100000I-375000J0D01*
G01*
X10100000Y8100000D01*
G75*
G02*
X9725000Y8475000I0J375000D01*
G01*
G37*
X12100000Y12600000D03*
G36*
G01*
X9725000Y12405000D02*
X9725000Y13855000D01*
G75*
G02*
X10100000Y14230000I375000J0D01*
G01*
X10850000Y14230000D01*
G75*
G02*
X11225000Y13855000I0J-375000D01*
G01*
X11225000Y12405000D01*
G75*
G02*
X10850000Y12030000I-375000J0D01*
G01*
X10100000Y12030000D01*
G75*
G02*
X9725000Y12405000I0J375000D01*
G01*
G37*
G36*
G01*
X18775000Y12405000D02*
X18775000Y13855000D01*
G75*
G02*
X19150000Y14230000I375000J0D01*
G01*
X19900000Y14230000D01*
G75*
G02*
X20275000Y13855000I0J-375000D01*
G01*
X20275000Y12405000D01*
G75*
G02*
X19900000Y12030000I-375000J0D01*
G01*
X19150000Y12030000D01*
G75*
G02*
X18775000Y12405000I0J375000D01*
G01*
G37*
%TD*%
M02*
