M48
; DRILL file {KiCad (5.1.12-1-10_14)} date Monday, 04 April 2022 at 20:25:46
; FORMAT={-:-/ absolute / metric / decimal}
; #@! TF.CreationDate,2022-04-04T20:25:46+08:00
; #@! TF.GenerationSoftware,Kicad,Pcbnew,(5.1.12-1-10_14)
; #@! TF.FileFunction,Plated,1,4,PTH
FMAT,2
METRIC
T1C0.250
T2C0.300
T3C0.400
T4C0.500
T5C0.600
T6C0.900
T7C1.000
%
G90
G05
T1
X3.843Y23.672
X3.843Y22.328
X4.515Y23.0
X4.586Y24.414
X4.586Y21.586
X5.258Y23.742
X5.258Y22.258
X5.328Y25.157
X5.328Y20.843
X6.0Y24.485
X6.0Y23.0
X6.0Y21.515
X6.672Y25.157
X6.672Y20.843
X6.742Y23.742
X6.742Y22.258
X7.414Y24.414
X7.414Y21.586
X7.485Y23.0
X8.157Y23.672
X8.157Y22.328
T2
X0.75Y28.5
X0.75Y19.5
X0.75Y17.5
X0.8Y30.5
X1.0Y27.0
X1.75Y17.5
X2.5Y28.5
X2.55Y25.85
X2.75Y34.25
X2.8Y17.3
X3.475Y16.625
X3.6Y30.8
X3.95Y27.3
X4.15Y15.95
X5.0Y28.75
X5.25Y36.0
X5.5Y16.0
X5.85Y31.0
X6.0Y36.75
X6.5Y16.5
X6.6Y31.0
X7.0Y28.75
X7.0Y17.5
X7.0Y14.75
X7.0Y13.5
X7.0Y12.25
X7.0Y11.0
X7.0Y9.75
X7.0Y8.5
X7.6Y15.75
X7.75Y33.3
X8.0Y36.75
X8.0Y35.5
X8.0Y8.25
X8.05Y16.55
X8.2Y17.5
X8.25Y29.85
X8.7Y11.0
X9.25Y16.65
X9.75Y16.15
X10.0Y36.75
X10.35Y28.05
X10.5Y32.5
X10.75Y29.85
X10.85Y18.75
X11.5Y35.5
X11.75Y20.75
X12.0Y36.75
X12.0Y31.25
X12.0Y11.0
X12.0Y8.25
X13.15Y19.6
X13.2Y23.05
X13.2Y17.85
X13.25Y25.2
X13.7Y22.55
X14.0Y36.75
X14.0Y8.25
X14.25Y18.25
X14.5Y10.0
X15.0Y30.75
X15.75Y31.5
X15.75Y18.25
X15.9Y12.25
X16.0Y36.75
X16.0Y8.25
X16.1Y26.95
X17.0Y10.0
X17.05Y17.85
X17.45Y30.55
X18.0Y36.75
X18.0Y8.25
X18.25Y26.65
X18.3Y18.25
X18.5Y33.6
X18.5Y32.1
X19.75Y20.7
X19.75Y20.05
X20.0Y36.75
X20.75Y30.55
X20.75Y17.9
X21.55Y15.5
X22.0Y36.75
X22.0Y35.5
X22.0Y8.25
X22.05Y27.25
X22.425Y20.875
X22.6Y25.775
X22.65Y23.6
X23.1Y21.55
X23.2Y15.5
X23.25Y20.5
X23.5Y10.25
X23.5Y9.5
X24.0Y36.75
X24.0Y8.25
X24.15Y19.35
X24.55Y32.1
X24.75Y36.0
X25.25Y31.25
X27.25Y34.25
X29.25Y30.5
X29.25Y28.35
X29.25Y25.8
X29.25Y23.25
X29.25Y20.75
X29.25Y18.2
X29.25Y15.65
T3
X0.95Y21.75
X0.95Y20.9
X1.0Y24.35
X1.65Y19.15
X2.3Y19.8
X2.55Y26.75
X2.95Y18.9
X3.0Y30.0
X4.3Y31.5
X7.8Y14.9
X8.55Y28.55
X8.7Y15.75
X9.15Y26.025
X12.25Y32.0
X13.25Y36.5
X13.5Y21.0
X14.075Y12.375
X14.2Y20.3
X14.85Y23.55
X14.925Y12.375
X17.375Y11.125
X18.1Y20.05
X18.75Y31.1
X18.95Y20.05
X19.35Y27.0
X21.15Y23.35
X21.275Y27.15
X21.95Y26.475
X23.25Y33.1
X23.5Y31.1
T4
X5.9Y17.975
X11.5Y16.15
X16.75Y31.1
X19.614Y15.164
X20.286Y15.836
X22.5Y16.6
T6
X2.6Y36.4
X2.6Y32.1
X27.4Y36.4
X27.4Y32.1
T7
X9.426Y30.974
X14.8Y25.6
X25.71Y29.62
X25.71Y27.08
X25.71Y24.54
X25.71Y22.0
X25.71Y19.46
X25.71Y16.92
X25.71Y14.38
X25.71Y11.84
X25.71Y9.3
X28.25Y29.62
X28.25Y27.08
X28.25Y24.54
X28.25Y22.0
X28.25Y19.46
X28.25Y16.92
X28.25Y14.38
X28.25Y11.84
X28.25Y9.3
T5
G00X10.675Y13.68
M15
G01X10.675Y12.58
M16
G05
G00X10.675Y9.25
M15
G01X10.675Y8.65
M16
G05
G00X19.325Y13.68
M15
G01X19.325Y12.58
M16
G05
G00X19.325Y9.25
M15
G01X19.325Y8.65
M16
G05
T0
M30
