%TF.GenerationSoftware,KiCad,Pcbnew,(5.1.12-1-10_14)*%
%TF.CreationDate,2022-03-03T15:00:23+08:00*%
%TF.ProjectId,DeerMon,44656572-4d6f-46e2-9e6b-696361645f70,rev?*%
%TF.SameCoordinates,Original*%
%TF.FileFunction,Legend,Top*%
%TF.FilePolarity,Positive*%
%FSLAX46Y46*%
G04 Gerber Fmt 4.6, Leading zero omitted, Abs format (unit mm)*
G04 Created by KiCad (PCBNEW (5.1.12-1-10_14)) date 2022-03-03 15:00:23*
%MOMM*%
%LPD*%
G01*
G04 APERTURE LIST*
%ADD10C,0.120000*%
%ADD11C,0.200000*%
%ADD12C,0.100000*%
%ADD13C,0.075000*%
G04 APERTURE END LIST*
D10*
X11904190Y20938096D02*
X12170857Y20138096D01*
X12437523Y20938096D01*
X13123238Y20138096D02*
X12666095Y20138096D01*
X12894666Y20138096D02*
X12894666Y20938096D01*
X12818476Y20823810D01*
X12742285Y20747620D01*
X12666095Y20709524D01*
X13466095Y20214286D02*
X13504190Y20176191D01*
X13466095Y20138096D01*
X13428000Y20176191D01*
X13466095Y20214286D01*
X13466095Y20138096D01*
X13999428Y20938096D02*
X14075619Y20938096D01*
X14151809Y20900000D01*
X14189904Y20861905D01*
X14228000Y20785715D01*
X14266095Y20633334D01*
X14266095Y20442858D01*
X14228000Y20290477D01*
X14189904Y20214286D01*
X14151809Y20176191D01*
X14075619Y20138096D01*
X13999428Y20138096D01*
X13923238Y20176191D01*
X13885142Y20214286D01*
X13847047Y20290477D01*
X13808952Y20442858D01*
X13808952Y20633334D01*
X13847047Y20785715D01*
X13885142Y20861905D01*
X13923238Y20900000D01*
X13999428Y20938096D01*
X15218476Y20138096D02*
X15218476Y20938096D01*
X15218476Y20633334D02*
X15294666Y20671429D01*
X15447047Y20671429D01*
X15523238Y20633334D01*
X15561333Y20595239D01*
X15599428Y20519048D01*
X15599428Y20290477D01*
X15561333Y20214286D01*
X15523238Y20176191D01*
X15447047Y20138096D01*
X15294666Y20138096D01*
X15218476Y20176191D01*
X15866095Y20671429D02*
X16056571Y20138096D01*
X16247047Y20671429D02*
X16056571Y20138096D01*
X15980380Y19947620D01*
X15942285Y19909524D01*
X15866095Y19871429D01*
X17085142Y20938096D02*
X17618476Y20138096D01*
X17618476Y20938096D02*
X17085142Y20138096D01*
X17923238Y20138096D02*
X17923238Y20671429D01*
X17923238Y20938096D02*
X17885142Y20900000D01*
X17923238Y20861905D01*
X17961333Y20900000D01*
X17923238Y20938096D01*
X17923238Y20861905D01*
X18304190Y20138096D02*
X18304190Y20938096D01*
X18761333Y20138096D01*
X18761333Y20938096D01*
X19561333Y20900000D02*
X19485142Y20938096D01*
X19370857Y20938096D01*
X19256571Y20900000D01*
X19180380Y20823810D01*
X19142285Y20747620D01*
X19104190Y20595239D01*
X19104190Y20480953D01*
X19142285Y20328572D01*
X19180380Y20252381D01*
X19256571Y20176191D01*
X19370857Y20138096D01*
X19447047Y20138096D01*
X19561333Y20176191D01*
X19599428Y20214286D01*
X19599428Y20480953D01*
X19447047Y20480953D01*
X20399428Y20138096D02*
X20132761Y20519048D01*
X19942285Y20138096D02*
X19942285Y20938096D01*
X20247047Y20938096D01*
X20323238Y20900000D01*
X20361333Y20861905D01*
X20399428Y20785715D01*
X20399428Y20671429D01*
X20361333Y20595239D01*
X20323238Y20557143D01*
X20247047Y20519048D01*
X19942285Y20519048D01*
X20666095Y20938096D02*
X21199428Y20938096D01*
X20666095Y20138096D01*
X21199428Y20138096D01*
D11*
X11915714Y21707143D02*
X11915714Y22907143D01*
X12201428Y22907143D01*
X12372857Y22850000D01*
X12487142Y22735715D01*
X12544285Y22621429D01*
X12601428Y22392858D01*
X12601428Y22221429D01*
X12544285Y21992858D01*
X12487142Y21878572D01*
X12372857Y21764286D01*
X12201428Y21707143D01*
X11915714Y21707143D01*
X13572857Y21764286D02*
X13458571Y21707143D01*
X13230000Y21707143D01*
X13115714Y21764286D01*
X13058571Y21878572D01*
X13058571Y22335715D01*
X13115714Y22450000D01*
X13230000Y22507143D01*
X13458571Y22507143D01*
X13572857Y22450000D01*
X13630000Y22335715D01*
X13630000Y22221429D01*
X13058571Y22107143D01*
X14601428Y21764286D02*
X14487142Y21707143D01*
X14258571Y21707143D01*
X14144285Y21764286D01*
X14087142Y21878572D01*
X14087142Y22335715D01*
X14144285Y22450000D01*
X14258571Y22507143D01*
X14487142Y22507143D01*
X14601428Y22450000D01*
X14658571Y22335715D01*
X14658571Y22221429D01*
X14087142Y22107143D01*
X15172857Y21707143D02*
X15172857Y22507143D01*
X15172857Y22278572D02*
X15230000Y22392858D01*
X15287142Y22450000D01*
X15401428Y22507143D01*
X15515714Y22507143D01*
X15915714Y21707143D02*
X15915714Y22907143D01*
X16315714Y22050000D01*
X16715714Y22907143D01*
X16715714Y21707143D01*
X17458571Y21707143D02*
X17344285Y21764286D01*
X17287142Y21821429D01*
X17230000Y21935715D01*
X17230000Y22278572D01*
X17287142Y22392858D01*
X17344285Y22450000D01*
X17458571Y22507143D01*
X17630000Y22507143D01*
X17744285Y22450000D01*
X17801428Y22392858D01*
X17858571Y22278572D01*
X17858571Y21935715D01*
X17801428Y21821429D01*
X17744285Y21764286D01*
X17630000Y21707143D01*
X17458571Y21707143D01*
X18372857Y22507143D02*
X18372857Y21707143D01*
X18372857Y22392858D02*
X18430000Y22450000D01*
X18544285Y22507143D01*
X18715714Y22507143D01*
X18830000Y22450000D01*
X18887142Y22335715D01*
X18887142Y21707143D01*
D10*
%TO.C,C14*%
X10255810Y9996693D02*
X10103307Y9844190D01*
X9746693Y10505810D02*
X9594190Y10353307D01*
%TO.C,Q1*%
X13872792Y11950000D02*
X12776777Y10853984D01*
X11503984Y12126777D02*
X12423223Y13046016D01*
%TO.C,R11*%
X8096359Y6880000D02*
X8403641Y6880000D01*
X8096359Y6120000D02*
X8403641Y6120000D01*
D12*
%TO.C,D4*%
X8050000Y5850000D02*
X7400000Y5850000D01*
X7400000Y5850000D02*
X7400000Y5200000D01*
D10*
%TO.C,C16*%
X4846693Y9655810D02*
X4694190Y9503307D01*
X5355810Y9146693D02*
X5203307Y8994190D01*
%TO.C,C15*%
X4171693Y10330810D02*
X4019190Y10178307D01*
X4680810Y9821693D02*
X4528307Y9669190D01*
%TO.C,C12*%
X9678307Y19369190D02*
X9830810Y19521693D01*
X9169190Y19878307D02*
X9321693Y20030810D01*
%TO.C,C7*%
X3496693Y11005810D02*
X3344190Y10853307D01*
X4005810Y10496693D02*
X3853307Y10344190D01*
%TO.C,C6*%
X10421693Y9830810D02*
X10269190Y9678307D01*
X10930810Y9321693D02*
X10778307Y9169190D01*
%TO.C,C5*%
X1360000Y17992164D02*
X1360000Y18207836D01*
X640000Y17992164D02*
X640000Y18207836D01*
%TO.C,R14*%
X22737258Y4322500D02*
X22262742Y4322500D01*
X22737258Y3277500D02*
X22262742Y3277500D01*
%TO.C,R13*%
X6446359Y25420000D02*
X6753641Y25420000D01*
X6446359Y26180000D02*
X6753641Y26180000D01*
%TO.C,SW1*%
X1850000Y28150000D02*
X1850000Y25350000D01*
X3250000Y28950000D02*
X4050000Y28950000D01*
X3250000Y24550000D02*
X4050000Y24550000D01*
%TO.C,Q2*%
X7360000Y21895000D02*
X5900000Y21895000D01*
X7360000Y25055000D02*
X5200000Y25055000D01*
X7360000Y25055000D02*
X7360000Y24125000D01*
X7360000Y21895000D02*
X7360000Y22825000D01*
%TO.C,C10*%
X22060000Y9809420D02*
X22060000Y10090580D01*
X21040000Y9809420D02*
X21040000Y10090580D01*
%TO.C,C9*%
X22359420Y1740000D02*
X22640580Y1740000D01*
X22359420Y2760000D02*
X22640580Y2760000D01*
%TO.C,AE1*%
X3250000Y7550000D02*
X3250000Y400000D01*
X3250000Y400000D02*
X750000Y400000D01*
X750000Y400000D02*
X750000Y7550000D01*
%TO.C,SW2*%
X28150000Y25350000D02*
X28150000Y28150000D01*
X26750000Y24550000D02*
X25950000Y24550000D01*
X26750000Y28950000D02*
X25950000Y28950000D01*
%TO.C,U4*%
X5664124Y10730565D02*
X6000000Y10394689D01*
X6000000Y20605311D02*
X5664124Y20269435D01*
X6335876Y20269435D02*
X6000000Y20605311D01*
X11105311Y15500000D02*
X10769435Y15164124D01*
X10769435Y15835876D02*
X11105311Y15500000D01*
X894689Y15500000D02*
X1230565Y15835876D01*
X1230565Y15164124D02*
X894689Y15500000D01*
%TO.C,U3*%
X20890000Y7400000D02*
X20890000Y4950000D01*
X24110000Y5600000D02*
X24110000Y7400000D01*
%TO.C,U2*%
X21750000Y25460000D02*
X19750000Y25460000D01*
X20750000Y23240000D02*
X19750000Y23240000D01*
%TO.C,U1*%
X17864124Y13251885D02*
X18200000Y12916009D01*
X18200000Y18883991D02*
X17864124Y18548115D01*
X18535876Y18548115D02*
X18200000Y18883991D01*
X21183991Y15900000D02*
X20848115Y15564124D01*
X20848115Y16235876D02*
X21183991Y15900000D01*
X15216009Y15900000D02*
X15551885Y16235876D01*
X15551885Y15564124D02*
X15216009Y15900000D01*
%TO.C,R12*%
X10085060Y12497659D02*
X10302341Y12714940D01*
X9547659Y13035060D02*
X9764940Y13252341D01*
%TO.C,R10*%
X8414940Y11902341D02*
X8197659Y11685060D01*
X8952341Y11364940D02*
X8735060Y11147659D01*
%TO.C,R9*%
X16164940Y13102341D02*
X15947659Y12885060D01*
X16702341Y12564940D02*
X16485060Y12347659D01*
%TO.C,R8*%
X15810060Y13022659D02*
X16027341Y13239940D01*
X15272659Y13560060D02*
X15489940Y13777341D01*
%TO.C,R7*%
X15135060Y13697659D02*
X15352341Y13914940D01*
X14597659Y14235060D02*
X14814940Y14452341D01*
%TO.C,R6*%
X14460060Y14372659D02*
X14677341Y14589940D01*
X13922659Y14910060D02*
X14139940Y15127341D01*
%TO.C,R5*%
X20535060Y18372659D02*
X20752341Y18589940D01*
X19997659Y18910060D02*
X20214940Y19127341D01*
%TO.C,R4*%
X16645000Y9028641D02*
X16645000Y8721359D01*
X17405000Y9028641D02*
X17405000Y8721359D01*
%TO.C,R3*%
X12595000Y9028641D02*
X12595000Y8721359D01*
X13355000Y9028641D02*
X13355000Y8721359D01*
%TO.C,R2*%
X21885060Y17022659D02*
X22102341Y17239940D01*
X21347659Y17560060D02*
X21564940Y17777341D01*
%TO.C,R1*%
X21210060Y17697659D02*
X21427341Y17914940D01*
X20672659Y18235060D02*
X20889940Y18452341D01*
%TO.C,J1*%
X10300000Y4400000D02*
X10300000Y2800000D01*
X19700000Y4400000D02*
X19700000Y2800000D01*
%TO.C,D3*%
X18900000Y9800000D02*
X18900000Y7950000D01*
X17700000Y9800000D02*
X17700000Y7950000D01*
X17700000Y7950000D02*
X18900000Y7950000D01*
%TO.C,D2*%
X14850000Y9800000D02*
X14850000Y7950000D01*
X13650000Y9800000D02*
X13650000Y7950000D01*
X13650000Y7950000D02*
X14850000Y7950000D01*
%TO.C,D1*%
X16350000Y9800000D02*
X16350000Y7950000D01*
X15150000Y9800000D02*
X15150000Y7950000D01*
X15150000Y7950000D02*
X16350000Y7950000D01*
%TO.C,C13*%
X9071693Y11180810D02*
X8919190Y11028307D01*
X9580810Y10671693D02*
X9428307Y10519190D01*
%TO.C,C11*%
X10421693Y12530810D02*
X10269190Y12378307D01*
X10930810Y12021693D02*
X10778307Y11869190D01*
%TO.C,C8*%
X23192164Y24960000D02*
X23407836Y24960000D01*
X23192164Y24240000D02*
X23407836Y24240000D01*
%TO.C,C4*%
X23810000Y9292164D02*
X23810000Y9507836D01*
X23090000Y9292164D02*
X23090000Y9507836D01*
%TO.C,C3*%
X17142164Y24240000D02*
X17357836Y24240000D01*
X17142164Y24960000D02*
X17357836Y24960000D01*
%TO.C,C2*%
X21219190Y14071693D02*
X21371693Y13919190D01*
X21728307Y14580810D02*
X21880810Y14428307D01*
%TO.C,C1*%
X21894190Y14746693D02*
X22046693Y14594190D01*
X22403307Y15255810D02*
X22555810Y15103307D01*
%TO.C,D4*%
D13*
X7935714Y4160715D02*
X7935714Y3989286D01*
X7935714Y4075000D02*
X7635714Y4075000D01*
X7678571Y4046429D01*
X7707142Y4017858D01*
X7721428Y3989286D01*
%TD*%
M02*
